<?xml version="1.0" standalone="no"?>
<!DOCTYPE svg PUBLIC "-//W3C//DTD SVG 1.1//EN" "http://www.w3.org/Graphics/SVG/1.1/DTD/svg11.dtd">
<svg xmlns="http://www.w3.org/2000/svg"><metadata>This SVG WebFont was generated by YouWorkForThem.
Copyright Â© 2016 by Connary Fagen. All rights reserved.</metadata><defs><font horiz-adv-x="1228" id="ywftsvg"><font-face ascent="1638" bbox="-676 -707 2198 1851" cap-height="1290" descent="-410" font-family="" font-stretch="normal" font-weight="600" panose-1="0 0 7 0 0 0 0 0 0 0" underline-position="0" underline-thickness="0" unicode-range="U+0020-FB02" units-per-em="2048" x-height="881"/><missing-glyph d="M819 1638v-1996h-633v1996h633zM666 1505h-330v-65h129v-76h-131v-66h332v66h-134v76h134v65zM532 1247h-198v-207h332v68h-134v139zM465 1180v-72h-66v72h66zM666 985h-332v-65h131v-74h-131v-66h198v140h134v65zM666 866h-66v-133h-266v-67h332v200zM666 623h-201v-113 h67v47h68v-94h-201v160h-65v-226h332v226zM666 276h-332v-225h332v225zM600 211v-94h-201v94h201zM666 4h-332v-65h139l-139 -95v-65h332v65h-205l139 95h66v65z" horiz-adv-x="999"/><glyph d="M1397 1278q8 -18 8 -45q0 -55 -43 -96t-100.5 -41t-100.5 41t-43 96q0 20 6 39q16 59 -15.5 84.5t-96.5 25.5q-72 0 -135.5 -23.5t-129 -97t-98.5 -192.5l-53 -188h219l-29 -90l-213 10l-176 -631q-76 -268 -213 -409.5t-305 -141.5q-94 0 -148.5 41t-54.5 102 q0 45 30 75t73 30q47 0 68.5 -35t19.5 -78q-2 -70 67 -69q59 0 106.5 62.5t94.5 232.5l232 831l-230 12l19 58h229q78 274 240.5 421.5t410.5 147.5q141 0 231.5 -45t123.5 -115l4 -8l2 -2v-2zM1171 891q68 0 94.5 -45t0.5 -103l-217 -514q-37 -90 -2 -82q51 8 172 170 q4 4 6 9l39 -39q-207 -307 -369 -307q-68 0 -92.5 45t2.5 102l217 514q37 90 0 80q-53 -10 -170 -162q-4 -8 -10 -14l-37 39q202 307 366 307z" glyph-name="uniFB01" horiz-adv-x="1351" unicode="fi"/><glyph d="M995 229q-31 -90 2 -82q49 12 174 183l39 -39q-205 -311 -379 -311q-61 0 -83.5 34.5t-2.5 94.5l408 1181q0 35 -39 63.5t-113 28.5q-109 0 -208 -71.5t-146 -241.5l-53 -188h223l-29 -90l-215 10l-176 -631q-76 -268 -213 -409.5t-305 -141.5q-94 0 -148.5 41t-54.5 102 q0 45 30 75t73 30q47 0 68.5 -35t19.5 -78q-2 -70 67 -69q59 0 106.5 62.5t94.5 232.5l230 831l-226 12l19 58h225q76 270 233.5 419.5t366.5 149.5q133 0 254 -52t121 -108z" glyph-name="uniFB02" horiz-adv-x="1286" unicode="fl"/><glyph d="M1571 1430q94 0 146 -41t52 -101q0 -45 -28.5 -75.5t-71.5 -30.5q-45 0 -65.5 32.5t-20.5 73.5q0 76 -76 76q-61 0 -102 -60.5t-90 -234.5l-53 -188h225l-29 -90l-219 6l-176 -627q-76 -268 -213 -409.5t-305 -141.5q-94 0 -148.5 41t-54.5 102q0 45 29.5 75t72.5 30 q47 0 69 -35t19 -78q-2 -70 68 -69q59 0 106.5 62.5t94.5 232.5l229 823l-455 10l-198 -709q-76 -268 -213 -409t-305 -141q-94 0 -148.5 40.5t-54.5 102.5q0 45 29.5 74.5t72.5 29.5q47 0 68.5 -34.5t19.5 -77.5q-2 -70 68 -70q59 0 106.5 62.5t94.5 232.5l250 899v2l2 4 l-228 6l19 56h227q78 236 210 359.5t290 123.5q94 0 146 -41t52 -100q0 -45 -28.5 -76t-71.5 -31q-45 0 -65.5 33t-20.5 74q0 76 -76 75q-61 0 -102 -60t-90 -234l-35 -123h457q74 268 213 408.5t307 140.5z" glyph-name="f_f.liga" horiz-adv-x="1486" unicode="ff"/><glyph d="M2062 1278q8 -18 9 -45q0 -55 -43 -96t-100.5 -41t-100.5 41t-43 96q0 20 6 39q16 59 -15.5 84.5t-97.5 25.5q-72 0 -135 -23.5t-128.5 -97t-98.5 -192.5l-53 -188h225l-29 -90l-219 6l-176 -627q-76 -268 -213 -409.5t-305 -141.5q-94 0 -148.5 41t-54.5 102 q0 45 29.5 75t72.5 30q47 0 69 -35t19 -78q-2 -70 68 -69q59 0 106.5 62.5t94.5 232.5l229 823l-455 10l-198 -709q-76 -268 -213 -409t-305 -141q-94 0 -148.5 40.5t-54.5 102.5q0 45 29.5 74.5t72.5 29.5q47 0 68.5 -34.5t19.5 -77.5q-2 -70 68 -70q59 0 106.5 62.5 t94.5 232.5l250 899v2l2 4l-228 6l19 56h227q78 236 210 359.5t290 123.5q94 0 146 -41t52 -100q0 -45 -28.5 -76t-71.5 -31q-45 0 -65.5 33t-20.5 74q0 76 -76 75q-61 0 -102 -60t-90 -234l-35 -123h457q78 274 240.5 421.5t410.5 147.5q141 0 231 -45t123 -115l4 -8v-2z M1837 891q68 0 94.5 -45t-0.5 -103l-217 -514q-37 -90 -2 -82q51 8 172 170q4 4 6 9l39 -39q-205 -307 -368 -307q-68 0 -92.5 45t1.5 102l218 514q37 90 0 80q-53 -10 -170 -162q-4 -8 -11 -14l-37 39q203 307 367 307z" glyph-name="f_f_i.liga" horiz-adv-x="2017" unicode="ffi"/><glyph d="M819 1638v-1996h-633v1996h633zM666 1505h-330v-65h129v-76h-131v-66h332v66h-134v76h134v65zM532 1247h-198v-207h332v68h-134v139zM465 1180v-72h-66v72h66zM666 985h-332v-65h131v-74h-131v-66h198v140h134v65zM666 866h-66v-133h-266v-67h332v200zM666 623h-201v-113 h67v47h68v-94h-201v160h-65v-226h332v226zM666 276h-332v-225h332v225zM600 211v-94h-201v94h201zM666 4h-332v-65h139l-139 -95v-65h332v65h-205l139 95h66v65z" glyph-name=".notdef" horiz-adv-x="999"/><glyph glyph-name="glyph1" horiz-adv-x="0"/><glyph glyph-name="glyph2" horiz-adv-x="681"/><glyph glyph-name="space" horiz-adv-x="409" unicode=" "/><glyph d="M182 393l174 811q27 133 142 133q72 0 97.5 -37.5t-5.5 -113.5l-348 -793h-60zM158 -20q-61 0 -105.5 43t-44.5 106q0 59 44 102t106 43q59 0 103 -43t44 -102q0 -63 -44 -106t-103 -43z" glyph-name="exclam" horiz-adv-x="516" unicode="!"/><glyph d="M244 795l55 385q12 111 109 110q51 0 67.5 -42t-12.5 -97l-187 -356h-32zM524 795l56 385q12 111 108 110q51 0 67.5 -42t-12.5 -97l-186 -356h-33z" glyph-name="quotedbl" horiz-adv-x="604" unicode="&quot;"/><glyph d="M1047 848h-185l-145 -379h186l-43 -107h-184l-162 -423h-111l164 423h-217l-162 -423h-110l164 423h-185l43 107h183l145 379h-186l43 106h184l162 422h108l-161 -422h217l161 422h109l-162 -422h184zM608 469l146 379h-217l-146 -379h217z" glyph-name="numbersign" horiz-adv-x="1001" unicode="#"/><glyph d="M879 1253q141 -18 235 -106l-74 -238h-45q33 244 -145 277l-166 -410l2 -2l31 -20q29 -23 35 -27t33.5 -24.5t35.5 -29.5t30.5 -32t32 -37t25 -37.5t21.5 -43t11 -45t5 -52.5q0 -164 -160.5 -275.5t-388.5 -111.5h-10l-68 -166h-65l70 170q-180 18 -283 121l61 233h50 q-14 -125 40 -199.5t158 -84.5l195 479l-4 4q-63 45 -84 61.5t-67 60.5t-63.5 90t-17.5 103q0 154 136.5 251.5t342.5 97.5h27l68 167h65zM547 981q0 -86 88 -166l151 375q-106 -4 -172.5 -64.5t-66.5 -144.5zM700 364.5q0 100.5 -106 188.5l-178 -442q121 10 202.5 81.5 t81.5 172z" glyph-name="dollar" horiz-adv-x="1044" unicode="$"/><glyph d="M1389 1303l135 -13l-1334 -1290h-122l1149 1104q-66 -29 -142 -29q-104 0 -201 60q-4 -164 -153.5 -320t-310.5 -156q-80 0 -123 44.5t-43 121.5q0 166 153.5 318.5t321.5 152.5q90 0 129 -55q141 -100 239 -100q134 0 302 162zM446 729q109 0 237 157.5t128 268.5 q0 74 -72 74q-104 0 -227 -163t-123 -278q0 -59 57 -59zM1200 633q156 0 156 -152q0 -164 -150.5 -324.5t-314.5 -160.5q-80 0 -124 44t-44 122q0 162 154.5 316.5t322.5 154.5zM928 66q109 0 236.5 158.5t127.5 269.5q0 72 -73 71q-68 0 -152 -81t-141.5 -185t-57.5 -174 q1 -59 60 -59z" glyph-name="percent" horiz-adv-x="1462" unicode="%"/><glyph d="M1425 870q25 -102 -40.5 -174.5t-161.5 -72.5q-61 0 -144 53q10 -174 -57.5 -334t-202.5 -263.5t-303 -103.5q-195 0 -307.5 129t-112.5 312q0 168 92.5 302t224.5 192.5t253 29.5l82 178q33 72 36.5 118t-10.5 63.5t-29.5 42t-15.5 51.5q0 31 19.5 53t60.5 22 q70 0 85 -70.5t-40 -201.5l-455 -995q68 -23 148 -23q240 0 367.5 174t93.5 371q-37 18 -70 18q-55 0 -95 -38.5t-40 -77.5h-39q-25 102 40.5 177t162.5 75q66 0 153.5 -59.5t136.5 -59.5q53 0 92.5 38t36.5 74h39zM172 485q0 -182 168 -264l252 555q-61 41 -135 33 t-137.5 -44t-105.5 -112t-42 -168z" glyph-name="ampersand" horiz-adv-x="1374" unicode="&amp;"/><glyph d="M244 795l55 385q12 111 109 110q51 0 67.5 -42t-12.5 -97l-187 -356h-32z" glyph-name="quotesingle" horiz-adv-x="323" unicode="'"/><glyph d="M270 -317q-205 186 -204 526q0 383 225 761t573 576l54 -33q-291 -266 -482.5 -684.5t-191.5 -791.5q0 -199 63 -352z" glyph-name="parenleft" horiz-adv-x="626" unicode="("/><glyph d="M477 1546q205 -186 205 -526q0 -383 -225.5 -761t-573.5 -576l-53 32q291 266 482.5 685t191.5 792q0 199 -64 352z" glyph-name="parenright" horiz-adv-x="628" unicode=")"/><glyph d="M563 1065l-49 123q-23 55 2 86t66 31t65.5 -31t1.5 -86l-49 -123q-6 -16 -18.5 -16t-18.5 16zM502 1006l-129 22q-59 10 -74.5 49t8.5 68q23 37 57.5 41t77.5 -43l80 -105q10 -12 3 -23t-23 -9zM662 1006q-16 -2 -23.5 9t2.5 23l80 105q43 47 78 43t57 -41 q25 -29 9.5 -68t-74.5 -49zM307 829q-25 29 -9.5 68t75.5 49l129 23q16 2 23 -9.5t-3 -23.5l-80 -105q-43 -47 -77.5 -43t-57.5 41zM856 829q-23 -37 -57.5 -41t-77.5 43l-80 105q-10 12 -3 23.5t24 9.5l129 -23q59 -10 74.5 -49t-9.5 -68zM582 670q-41 0 -65.5 30.5 t-2.5 85.5l49 123q6 16 18.5 16.5t18.5 -16.5l49 -123q23 -55 -1.5 -85.5t-65.5 -30.5z" glyph-name="asterisk" horiz-adv-x="811" unicode="*"/><glyph d="M846 596l-53 -162h-267l-98 -301h-156l99 301h-271l54 162h268l96 297h156l-96 -297h268z" glyph-name="plus" horiz-adv-x="897" unicode="+"/><glyph d="M-96 -313l-19 55q164 55 209 182q16 49 -24 76q-80 53 -80 125q0 61 45 105t108.5 44t105.5 -45t42 -125q0 -129 -107.5 -255.5t-279.5 -161.5z" glyph-name="comma" horiz-adv-x="493" unicode=","/><glyph d="M123 467v121h655v-121h-655z" glyph-name="hyphen" horiz-adv-x="901" unicode="-"/><glyph d="M158 -20q-61 0 -105.5 43t-44.5 106q0 59 44 102t106 43q59 0 103 -43t44 -102q0 -63 -44 -106t-103 -43z" glyph-name="period" horiz-adv-x="516" unicode="."/><glyph d="M-123 -127l1118 1671l113 -69l-1118 -1672z" glyph-name="slash" horiz-adv-x="772" unicode="/"/><glyph d="M377 -18q-143 0 -229.5 81.5t-86.5 225.5q0 240 183.5 425t429.5 185q143 0 229 -82t86 -227q0 -238 -183 -423t-429 -185zM397 55q96 0 186.5 107.5t138.5 245t48 247.5q0 170 -119 170q-94 0 -183 -105.5t-138 -243.5t-49 -251q-1 -170 116 -170z" glyph-name="zero" horiz-adv-x="1050" unicode="0"/><glyph d="M410 170q-20 -63 6 -85t123 -34l-13 -51h-571l14 53q104 12 153.5 39t70.5 92l165 508q23 70 -3.5 97.5t-118.5 39.5l14 52h569l-14 -54q-100 -12 -153.5 -45.5t-76.5 -103.5z" glyph-name="one" horiz-adv-x="768" unicode="1"/><glyph d="M-35 0l-6 53q23 16 105.5 73.5t124.5 88.5t118 87t119 98t90 93.5t68.5 97.5t21.5 87q0 92 -104 92q-139 0 -277 -154l-35 54q82 115 188.5 172t217.5 57q102 0 162.5 -54t60.5 -143q0 -37 -13 -75.5t-30.5 -70.5t-52.5 -68.5t-60.5 -62.5t-75.5 -59.5t-76 -52t-82 -51.5 t-74.5 -43t-74 -38.5t-59.5 -30.5l207 8q84 0 144.5 29.5t119.5 113.5l49 -14l-176 -310h-49l4 23h-555z" glyph-name="two" horiz-adv-x="870" unicode="2"/><glyph d="M115 -389q-100 0 -176 40t-76 116q0 80 74 79q35 0 57 -25.5t33.5 -57t40 -57t71.5 -25.5q117 0 239 137t122 268q0 78 -50.5 115t-132.5 37q-66 0 -178 -43l-4 63l146 70q72 35 103.5 50t91 52t87 64.5t51 69.5t23.5 87q0 113 -117 113q-147 0 -307 -162l-29 66 q197 231 430 231q104 0 162 -52t58 -147q0 -127 -101.5 -213t-269.5 -157q104 -4 181 -61.5t77 -170.5q0 -184 -196.5 -335.5t-409.5 -151.5z" glyph-name="three" horiz-adv-x="925" unicode="3"/><glyph d="M932 911l-270 -831h176l-52 -100h-157l-56 -168q-20 -63 1.5 -84t91.5 -35l-9 -51h-505l10 55q80 14 123 39.5t63 89.5l51 154h-467l-16 47l930 884h86zM53 80h379l170 518z" glyph-name="four" horiz-adv-x="1005" unicode="4"/><glyph d="M891 686h-492l-155 -237q258 31 378.5 -58.5t120.5 -245.5q0 -213 -194.5 -373.5t-423.5 -160.5q-104 0 -184 38t-80 109q0 88 86 88q35 0 59.5 -25.5t36.5 -57t42 -57t75 -25.5q121 0 230.5 134t109.5 273q0 119 -93.5 182.5t-277.5 24.5l-29 41l349 545h311 q178 0 246 65h51z" glyph-name="five" horiz-adv-x="970" unicode="5"/><glyph d="M436 -25q-160 0 -241.5 92.5t-81.5 251.5q0 170 87 346.5t223 312.5t313 226t349 101l27 -68q-193 -18 -382 -189t-302 -396.5t-113 -415.5q0 -186 129 -187q94 0 185.5 89t142.5 212t51 228q0 172 -168 172q-45 0 -92 -11l21 47q68 55 180 56q121 0 199.5 -78t78.5 -217 q0 -223 -184 -397.5t-422 -174.5z" glyph-name="six" horiz-adv-x="1110" unicode="6"/><glyph d="M1057 881l12 -43q-559 -590 -889 -1235h-178q289 500 832 1083h-375q-96 0 -156.5 -30.5t-138.5 -135.5h-55l237 395h47l-8 -34h672z" glyph-name="seven" horiz-adv-x="991" unicode="7"/><glyph d="M811 707q158 -96 158 -261q0 -193 -175.5 -328.5t-398.5 -135.5q-152 0 -245 74.5t-93 207.5t91.5 242.5t248.5 177.5q-68 82 -67 195q0 178 141 302t326 124q131 0 203.5 -69t72.5 -173q0 -106 -71.5 -198t-190.5 -158zM791 1233q-106 0 -180 -86t-74 -182 q0 -121 135 -187l59 -28q92 57 146.5 146t54.5 183q0 154 -141 154zM403 55q129 0 231.5 99.5t102.5 218.5q0 57 -35.5 98t-119.5 84l-70 37q-29 14 -57 37q-115 -61 -179.5 -156.5t-64.5 -208.5q0 -98 52 -153.5t140 -55.5z" glyph-name="eight" horiz-adv-x="1075" unicode="8"/><glyph d="M670 901q160 0 241.5 -92t81.5 -252q0 -170 -87 -346t-223 -312.5t-313 -226.5t-350 -100l-26 68q193 18 382 189t302 396.5t113 415.5q0 186 -129 186q-94 0 -185.5 -89t-142.5 -212t-51 -227q0 -172 168 -172q45 0 92 10l-21 -47q-68 -55 -180 -55q-121 0 -200 77.5 t-79 217.5q0 223 184.5 397t422.5 174z" glyph-name="nine" horiz-adv-x="1101" unicode="9"/><glyph d="M372.5 635q-61.5 0 -105.5 43t-44 106q0 59 44 102.5t106 43.5q59 0 103 -43t44 -103q0 -63 -43 -106t-104.5 -43zM158 -20q-61 0 -105.5 43t-44.5 106q0 59 44 102t106 43q59 0 103 -43t44 -102q0 -63 -44 -106t-103 -43z" glyph-name="colon" horiz-adv-x="518" unicode=":"/><glyph d="M352.5 633q-61.5 0 -105.5 43t-44 106q0 59 44 102.5t105 43.5q59 0 103.5 -43t44.5 -103q0 -61 -43 -105t-104.5 -44zM-96 -313l-19 55q164 55 209 182q16 49 -24 76q-80 53 -80 125q0 61 45 105t108.5 44t105.5 -45t42 -125q0 -129 -107.5 -255.5t-279.5 -161.5z" glyph-name="semicolon" horiz-adv-x="493" unicode=";"/><glyph d="M973 936l-53 -205q-287 -139 -607 -246q135 -49 225.5 -99t211.5 -136l-45 -176q-248 186 -578 348l41 162q428 162 805 352z" glyph-name="less" horiz-adv-x="946" unicode="&lt;"/><glyph d="M160 618l53 162h682l-53 -162h-682zM41 250l53 162h682l-53 -162h-682z" glyph-name="equal" horiz-adv-x="888" unicode="="/><glyph d="M16 74l54 205q287 139 606 245q-135 49 -225.5 99.5t-210.5 136.5l45 176q248 -186 577 -348l-41 -162q-428 -162 -805 -352z" glyph-name="greater" horiz-adv-x="948" unicode=">"/><glyph d="M424 387q-4 82 24.5 150.5t77.5 125t101.5 111.5t104.5 132t81 163q35 109 -2 153t-145 44q-49 0 -109 -84q-68 -98 -109.5 -134t-80.5 -36q-66 0 -66 73q0 82 94 144.5t208 90.5t210 28q154 0 219.5 -93.5t18.5 -240.5q-31 -94 -96.5 -169t-138.5 -123t-145.5 -94 t-129 -106.5t-74.5 -134.5h-43zM383 -20q-61 0 -105.5 43t-44.5 106q0 59 44.5 102t105.5 43q59 0 103 -43t44 -102q0 -63 -44 -106t-103 -43z" glyph-name="question" horiz-adv-x="942" unicode="?"/><glyph d="M1157 211q-84 0 -130 36t-40 97q-143 -127 -293 -127q-88 0 -142 48t-54 141q0 188 169 354t355 166q166 0 172 -158l70 131h153l-260 -498q-25 -45 -32 -72.5t3.5 -44t42.5 -16.5q158 0 287 185.5t129 384.5q0 176 -112.5 286.5t-309.5 110.5q-217 0 -425 -135 t-333.5 -345t-125.5 -421q0 -182 109.5 -294t309.5 -112q186 0 428 123l46 -49q-231 -141 -490 -141q-252 0 -401.5 143t-149.5 373q0 236 146.5 450.5t382 343.5t485.5 129q242 0 377 -128t135 -334q0 -233 -150.5 -430t-351.5 -197zM733 285q88 0 186.5 83t165.5 197 l31 58q41 82 41 149q0 90 -94 90q-137 0 -273.5 -175t-136.5 -316q0 -86 80 -86z" glyph-name="at" horiz-adv-x="1673" unicode="@"/><glyph d="M1071 174q4 -68 24.5 -86t94.5 -35l-14 -53h-533l16 57q43 8 64.5 14.5t49.5 19.5t40 36t10 55l-10 201h-455l-149 -213q-10 -14 -15.5 -25.5t-9.5 -19.5t-2 -16.5t1 -13.5t7.5 -10t10.5 -7t15 -7t16.5 -6.5t20.5 -6.5t21 -5l-16 -53h-356l18 55q76 12 111 36t88 97 l803 1117h79zM406 453h405l-27 540z" glyph-name="A" horiz-adv-x="1335" unicode="A"/><glyph d="M1315 1034q0 -125 -102.5 -218t-266.5 -146q242 -61 242 -271q0 -135 -101.5 -228t-252 -132t-336.5 -39h-564l17 55q61 12 94 24.5t66.5 49.5t54.5 102l274 842q16 51 18.5 81t-17 46.5t-37 21.5t-64.5 15l14 53h549q190 0 301 -63.5t111 -192.5zM705 711 q154 0 261 110.5t107 245.5q0 72 -42 107.5t-148 35.5q-98 0 -135 -28.5t-58 -89.5l-125 -381h140zM514 80q180 0 299 111.5t119 257.5q0 88 -61.5 137t-211.5 49h-118l-133 -412q-27 -76 -4.5 -109.5t110.5 -33.5z" glyph-name="B" horiz-adv-x="1296" unicode="B"/><glyph d="M606 -27q-223 0 -337.5 124t-114.5 335q0 221 116.5 426t318.5 334t429 129q229 0 328 -119l-66 -268h-68q12 156 -37 232.5t-176 76.5t-239.5 -78t-187 -196.5t-117.5 -258t-43 -266.5q0 -168 78.5 -264t224.5 -96q201 0 336 121l30 -74q-78 -70 -205 -114t-270 -44z " glyph-name="C" horiz-adv-x="1239" unicode="C"/><glyph d="M874 1290q221 0 370 -111.5t149 -336.5q0 -332 -278.5 -587t-651.5 -255h-529l17 55q61 12 94 24.5t66.5 49.5t54.5 102l274 842q16 51 18.5 81t-17 46.5t-37 21.5t-64.5 15l14 53h520zM520 78q123 0 242 80t203 202.5t135 270t51 280.5q0 301 -307 301h-113l-311 -952 q-35 -106 -13.5 -144t113.5 -38z" glyph-name="D" horiz-adv-x="1386" unicode="D"/><glyph d="M354 1290h942l-84 -299h-53q31 119 11.5 169t-117.5 50h-146q-104 0 -152 -34.5t-83 -139.5l-113 -346h117q156 0 218 42t105 147h48l-142 -439h-47q27 111 -3 141.5t-191 30.5h-129l-127 -391q-18 -53 -21.5 -79.5t14 -42t42 -17.5t85.5 -2h107q106 0 188 57.5 t178 192.5h66l-186 -330h-947l17 55q61 12 94 24.5t66.5 49.5t54.5 102l274 842q16 51 18.5 81t-17 46.5t-37 21.5t-64.5 15z" glyph-name="E" horiz-adv-x="1191" unicode="E"/><glyph d="M358 1290h938l-84 -299h-53q31 119 11.5 169t-117.5 50h-146q-104 0 -152 -34.5t-83 -139.5l-113 -346h117q156 0 218 42t105 147h48l-142 -439h-47q27 111 -3 141.5t-191 30.5h-129l-136 -413q-8 -29 -13 -50.5t-1 -36t6 -22.5t17.5 -15t21.5 -9.5t31.5 -7.5t36.5 -7 l-11 -51h-546l10 55q61 12 93 24.5t66.5 49.5t55.5 102l280 861q10 29 14.5 50t1.5 35.5t-6 22.5t-18.5 15.5t-22.5 9.5t-32 7l-35 7z" glyph-name="F" horiz-adv-x="1122" unicode="F"/><glyph d="M643 -27q-242 0 -366.5 121t-124.5 330q0 168 73.5 332t194.5 287.5t286.5 200.5t337.5 77q242 0 340 -119q-12 -51 -35.5 -145t-31.5 -123h-68q20 172 -41 240.5t-188 68.5q-131 0 -250 -85t-200 -217t-128 -287.5t-47 -297.5q0 -145 63.5 -224t188.5 -79 q104 0 168 58.5t103 179.5l22 69q39 135 15.5 168t-144.5 43l16 60h537l-21 -64q-135 -18 -178 -157l-35 -109q-49 -152 -45 -238q-70 -35 -192.5 -62.5t-249.5 -27.5z" glyph-name="G" horiz-adv-x="1390" unicode="G"/><glyph d="M1120 1290h561l-18 -55q-47 -10 -72.5 -17.5t-56.5 -25.5t-51.5 -51t-36.5 -82l-275 -842q-16 -51 -18 -81t17.5 -46t38 -22.5t63.5 -16.5l-15 -51h-550l14 53q88 16 134 50t77 128l121 373h-525l-127 -387q-16 -51 -18 -81t17.5 -46t38 -22.5t63.5 -16.5l-15 -51h-550 l14 53q88 16 134 50t77 128l274 842q16 51 18.5 81t-17 46.5t-37 21.5t-64.5 15l14 53h561l-18 -55q-47 -10 -72.5 -17.5t-56.5 -25.5t-51.5 -51t-36.5 -82l-123 -377h526l127 391q16 51 18.5 81t-17 46.5t-37 21.5t-64.5 15z" glyph-name="H" horiz-adv-x="1474" unicode="H"/><glyph d="M-63 0l14 53q88 16 134 50t77 128l274 842q16 51 18.5 81t-17 46.5t-37 21.5t-64.5 15l14 53h561l-18 -55q-47 -10 -72.5 -17.5t-56.5 -25.5t-51.5 -51t-36.5 -82l-275 -842q-16 -51 -18 -81t17.5 -46t38 -22.5t63.5 -16.5l-15 -51h-550z" glyph-name="I" horiz-adv-x="704" unicode="I"/><glyph d="M-238 -371l23 78q137 37 197.5 106.5t111.5 229.5l334 1030q16 51 18.5 81t-18 46.5t-38 21.5t-66.5 15l14 53h567l-16 -55q-49 -8 -77 -16.5t-57.5 -26.5t-50 -50t-36.5 -83l-346 -1069q-59 -180 -206 -259t-354 -102z" glyph-name="J" horiz-adv-x="688" unicode="J"/><glyph d="M1507 1233q-92 0 -153.5 -28.5t-130.5 -84.5l-416 -332l285 -618q29 -66 66.5 -90.5t117.5 -26.5l-16 -53h-406q23 88 -6 154l-221 493l-115 -92l-111 -338q-16 -51 -18 -81t17.5 -46t38 -22.5t63.5 -16.5l-15 -51h-550l14 53q88 16 134 50t77 128l274 842q16 51 18.5 81 t-17 46.5t-37 21.5t-64.5 15l14 53h561l-18 -55q-47 -10 -72.5 -17.5t-56.5 -25.5t-51.5 -51t-36.5 -82l-123 -377l575 459q117 92 -45 92l17 57h426z" glyph-name="K" horiz-adv-x="1409" unicode="K"/><glyph d="M-66 0l17 55q61 12 94 24.5t66.5 49.5t54.5 102l274 842q16 51 18.5 81t-17 46.5t-37 21.5t-64.5 15l14 53h572l-19 -55q-68 -12 -102.5 -24.5t-68.5 -49.5t-56 -102l-272 -836q-29 -92 -6.5 -116.5t126.5 -24.5h113q109 0 191.5 57.5t179.5 202.5l57 -14l-180 -328h-955 z" glyph-name="L" horiz-adv-x="1142" unicode="L"/><glyph d="M1419 217q-12 -41 -13 -68.5t3 -43t22.5 -25.5t34 -14.5t47.5 -10.5l-10 -55h-551l11 55q47 10 72.5 17.5t56 26t51 51t35.5 81.5l262 902l-766 -1133h-56l-63 1040l-303 -823q-18 -49 -20.5 -80t17 -47t39 -21.5t66.5 -13.5l-10 -55h-403l10 55q61 12 94 24.5t67.5 49.5 t59.5 102l307 842q18 47 21.5 76t-16 46t-32 21.5t-57.5 14.5q-8 2 -14 4l18 55h387q-2 -25 2 -172l54 -747l512 762q88 135 100 157h434l-18 -55q-66 -16 -94.5 -26.5t-62.5 -47.5t-52 -102z" glyph-name="M" horiz-adv-x="1714" unicode="M"/><glyph d="M1161 1290h412l-17 -53q-88 -14 -138 -49t-81 -129l-344 -1059h-100l-361 1094l-286 -877q-14 -41 -15.5 -68.5t4 -44t27 -26.5t39.5 -15.5t57 -11.5l-14 -51h-410l15 53q88 14 138 49t81 129l274 842q12 41 13.5 68.5t-0.5 42t-25.5 27t-35 15.5t-50.5 11l12 53h373 l297 -913l234 696q14 41 15 68.5t-4 44t-26.5 27t-40 15.5t-57.5 11z" glyph-name="N" horiz-adv-x="1345" unicode="N"/><glyph d="M573 -27q-199 0 -312.5 119t-113.5 318q0 223 117 434t313.5 344t413.5 133q199 0 312.5 -118t113.5 -316q0 -225 -116.5 -436t-313.5 -344.5t-414 -133.5zM604 51q150 0 284 155.5t205.5 363.5t71.5 391q0 283 -204 282q-150 0 -283 -154.5t-206 -363.5t-73 -387 q0 -287 205 -287z" glyph-name="O" horiz-adv-x="1423" unicode="O"/><glyph d="M-66 0l17 55q61 12 94 24.5t66.5 49.5t54.5 102l274 842q16 51 18.5 81t-17 46.5t-37 21.5t-64.5 15l14 53h510q453 0 453 -303q0 -225 -211 -357t-512 -132q-29 0 -19 41q8 39 33 39q193 0 331 142t138 314q0 176 -205 176q-90 0 -125.5 -28.5t-56.5 -89.5l-282 -875 q-16 -51 -18.5 -81t17 -46t40 -22.5t71.5 -16.5l-10 -51h-574z" glyph-name="P" horiz-adv-x="1249" unicode="P"/><glyph d="M1032 -225q74 0 156 43l24 -54q-174 -123 -315 -122q-115 0 -203 92l-207 215q-27 29 -79 51q-125 43 -193 150.5t-68 259.5q0 223 117 434t313.5 344t413.5 133q199 0 312.5 -118t113.5 -316q0 -301 -203.5 -565.5t-488.5 -329.5q39 -18 72 -53l67 -76q76 -88 168 -88z M961 1243q-150 0 -283 -154.5t-206 -363.5t-73 -387q0 -287 205 -287q150 0 284 155.5t205.5 363.5t71.5 391q1 282 -204 282z" glyph-name="Q" horiz-adv-x="1419" unicode="Q"/><glyph d="M981 221q20 -84 72.5 -135t134.5 -27l-8 -65q-59 -27 -156 -27q-125 0 -185.5 53.5t-84.5 159.5l-49 215q-23 96 -64 128t-123 36l-110 -342q-16 -51 -18.5 -81t17 -46t40 -22.5t71.5 -16.5l-10 -51h-574l17 55q61 12 94 24.5t66.5 49.5t54.5 102l274 842q16 51 18.5 81 t-17 46.5t-37 21.5t-64.5 15l14 53h514q426 0 426 -280q0 -182 -134 -294t-357 -145q109 -35 137 -172zM872 1210q-143 0 -180 -112l-147 -459h82q186 0 307 123t121 289q-1 159 -183 159z" glyph-name="R" horiz-adv-x="1331" unicode="R"/><glyph d="M389 -23q-233 0 -356 138l61 258h49q-16 -152 48.5 -235t189.5 -83q131 0 221 82t90 199q0 74 -40 132t-120 122q-123 96 -161 147q-70 90 -70 201q0 170 137 276.5t342 106.5q207 0 326 -125l-74 -260h-45q16 145 -32 226t-164 81q-111 0 -181.5 -66.5t-70.5 -162.5 q0 -117 139 -228q4 -4 33.5 -26.5t39 -30.5t37 -31.5t40 -38t34 -40t31.5 -47t22.5 -49t17.5 -57.5t5 -63q0 -180 -161 -303t-388 -123z" glyph-name="S" horiz-adv-x="1046" unicode="S"/><glyph d="M1300 1290l107 21l-102 -367h-48q35 141 0.5 207t-174.5 66h-90l-325 -1000q-10 -35 -15.5 -58.5t2 -41t14.5 -27.5t30.5 -17t41 -11.5t56.5 -10.5l-15 -51h-598l17 53q100 16 148 49t79 129l320 986h-82q-141 0 -222.5 -71t-148.5 -216h-51l139 381l94 -21h823z" glyph-name="T" unicode="T"/><glyph d="M584 -23q-74 0 -135.5 14.5t-117 54.5t-85 100.5t-27.5 160t43 225.5l174 541q16 51 18.5 81t-17 46.5t-37 21.5t-64.5 15l14 53h561l-18 -55q-61 -12 -94 -24.5t-66 -49.5t-55 -102l-191 -590q-33 -100 -37 -176t11.5 -117t48.5 -66.5t64.5 -32.5t70.5 -7q57 0 114.5 17 t120 59t119 126t95.5 203l192 598q12 41 13 68.5t-2 42t-26.5 27t-34.5 14.5t-50 12l14 53h412l-19 -55q-68 -12 -102.5 -24.5t-69.5 -49.5t-57 -102l-186 -576q-164 -506 -594 -506z" glyph-name="U" horiz-adv-x="1384" unicode="U"/><glyph d="M1237 1290h356l-18 -55q-76 -12 -110.5 -35.5t-88.5 -97.5l-803 -1116h-79l-70 1130q-4 68 -24.5 86.5t-94.5 34.5l14 53h533l-16 -57q-43 -8 -64.5 -14.5t-49.5 -19.5t-40 -35.5t-10 -55.5l39 -811l575 823q10 14 15.5 25.5t9.5 20t2 16.5t-1 13t-7.5 10t-10.5 7 t-15 7.5t-16 6.5t-20.5 6t-21.5 5z" glyph-name="V" horiz-adv-x="1355" unicode="V"/><glyph d="M438 -16l-10 1118q0 74 -23.5 96.5t-99.5 38.5l14 53h533l-16 -57q-82 -10 -122 -33.5t-40 -87.5v-776l403 629q147 229 -39 272l15 53h368q-27 -86 -30 -295l4 -653l463 725q35 53 45 84t-10.5 48.5t-42 22.5t-83.5 15l15 53h416l-17 -57q-80 -14 -125 -43t-102 -117 l-709 -1089h-90l-10 946l-617 -946h-90z" glyph-name="W" horiz-adv-x="1961" unicode="W"/><glyph d="M1145 1290h424l-19 -55q-96 -14 -147 -40t-137 -108l-398 -380l154 -519q20 -74 59 -95t142 -40l-17 -53h-604l19 55q94 14 128.5 39t14.5 99l-105 362l-378 -381q-45 -47 -48.5 -70.5t18 -32t87.5 -18.5l-16 -53h-441l19 55q109 14 160 38t133 104l444 432l-133 461 q-23 80 -62 105.5t-133 41.5l15 53h581l-16 -57q-31 -6 -48.5 -10t-39 -12.5t-29.5 -17.5t-16 -24.5t-7 -36t9 -49.5l90 -303l336 332q37 37 51 59.5t-2 36t-34.5 17.5t-70.5 12z" glyph-name="X" horiz-adv-x="1386" unicode="X"/><glyph d="M1147 1290h385l-19 -57q-84 -14 -119.5 -36.5t-103.5 -98.5l-481 -539l-111 -340q-10 -35 -15 -59.5t2 -42t14.5 -27.5t31 -17t40.5 -11.5t56 -10.5l-14 -51h-596l16 53q98 16 146.5 50t79.5 130l100 310l-137 559q-18 78 -40 99.5t-99 35.5l16 53h555l-16 -57 q-109 -23 -136 -45q-35 -29 -20 -90l111 -455l409 467q33 37 43 60.5t-11.5 37t-36.5 17.5t-64 12z" glyph-name="Y" horiz-adv-x="1263" unicode="Y"/><glyph d="M-35 0l-12 31l1096 1198l-342 -8q-133 -2 -212 -72t-135 -215h-55l121 369l111 -13h854l-1127 -1229l414 25q129 8 206 75.5t150 213.5h64q-119 -240 -162 -375h-971z" glyph-name="Z" horiz-adv-x="1187" unicode="Z"/><glyph d="M270 -340l-407 29l596 1837l426 28l-17 -49l-213 -51l-551 -1694l181 -51z" glyph-name="bracketleft" horiz-adv-x="571" unicode="["/><glyph d="M799 -127l-131 -61l-432 1671l131 61z" glyph-name="backslash" horiz-adv-x="1003" unicode="\"/><glyph d="M406 1554l407 -28l-596 -1837l-426 -29l16 49l213 51l551 1694l-180 51z" glyph-name="bracketright" horiz-adv-x="561" unicode="]"/><glyph d="M244 748l-31 34l371 541l370 -543l-30 -32l-340 385z" glyph-name="asciicircum" horiz-adv-x="946" unicode="^"/><glyph d="M102 -137v96h1127v-96h-1127z" glyph-name="underscore" horiz-adv-x="1331" unicode="_"/><glyph d="M539 1034q-125 133 -254 219q16 49 70.5 89t103.5 40q96 -135 141 -309z" glyph-name="grave" horiz-adv-x="415" unicode="`"/><glyph d="M748 229q-31 -92 4 -82q47 12 174 183l37 -39q-205 -311 -369 -311q-66 0 -88.5 43t-1.5 104l69 201q-299 -348 -413 -348q-51 0 -91 52t-40 154q0 160 103.5 328t264 276.5t318.5 108.5q63 0 133 -18h125zM299 170q49 0 313 268l117 334q-70 43 -127 43q-80 0 -167 -94 t-141 -221t-54 -228q0 -102 59 -102z" glyph-name="a" horiz-adv-x="1048" unicode="a"/><glyph d="M829 899q88 0 144.5 -62.5t56.5 -177.5q0 -154 -97 -313.5t-252 -261.5t-306 -102q-145 0 -210 85t-26 195l291 848q29 80 -1 110.5t-140 30.5l20 66l379 47l21 -31l-217 -643q159 209 337 209zM410 43q88 0 182 118t151.5 270.5t57.5 260.5q0 111 -72 111 q-66 0 -156 -104.5t-174 -286.5l-59 -176q-27 -59 -12.5 -126t82.5 -67z" glyph-name="b" horiz-adv-x="1062" unicode="b"/><glyph d="M606 899q100 0 153.5 -57.5t53.5 -139.5q0 -57 -27.5 -94t-74.5 -37q-102 0 -86 160q6 61 -4.5 80.5t-45.5 19.5q-78 0 -151.5 -79.5t-115.5 -190t-42 -209.5q0 -96 45 -151.5t115 -55.5q55 0 123.5 35t116.5 99l28 -48q-63 -117 -178 -184t-217 -67q-109 0 -182.5 76.5 t-73.5 207.5q0 143 83 292t216 246t264 97z" glyph-name="c" horiz-adv-x="821" unicode="c"/><glyph d="M766 229q-31 -90 4 -82q47 10 172 183l39 -39q-205 -311 -379 -311q-61 0 -83.5 34.5t-2.5 94.5l88 253q-330 -383 -444 -382q-51 0 -91 52t-40 154q0 160 103.5 328t264 276.5t318.5 108.5q35 0 71 -6l76 217q29 80 -1 110.5t-140 30.5l22 66l377 47l21 -31zM299 170 q57 0 340 297l104 297q-78 51 -141 51q-80 0 -167 -94t-141 -221t-54 -228q0 -102 59 -102z" glyph-name="d" horiz-adv-x="1056" unicode="d"/><glyph d="M807 743q0 -248 -539 -362q-4 -41 -4 -59q0 -80 37 -128.5t109 -48.5q133 0 231 123l31 -43q-70 -119 -180.5 -181t-210.5 -62q-109 0 -175.5 74.5t-66.5 199.5q0 225 194.5 434t399.5 209q90 0 132 -43t42 -113zM545 817q-78 0 -155 -115.5t-109 -257.5 q166 35 249.5 111t83.5 166q1 96 -69 96z" glyph-name="e" horiz-adv-x="808" unicode="e"/><glyph d="M905 1430q94 0 146.5 -41t52.5 -101q0 -45 -28.5 -75.5t-71.5 -30.5q-45 0 -65.5 32.5t-20.5 73.5q0 76 -76 76q-61 0 -102.5 -60.5t-90.5 -234.5l-53 -188h225l-30 -90l-218 12l-176 -633q-76 -268 -213 -409.5t-305 -141.5q-94 0 -148.5 41t-54.5 102q0 45 30 75t73 30 q47 0 68.5 -35t19.5 -78q-2 -70 67 -69q59 0 106.5 62.5t94.5 232.5l232 833l-226 12l19 56h225q74 268 213 408.5t307 140.5z" glyph-name="f" horiz-adv-x="821" unicode="f"/><glyph d="M1024 852l-35 -141l-176 53q14 -35 14 -86q0 -152 -132 -258.5t-298 -106.5q-53 0 -94 13q-63 -18 -63 -54q0 -31 57 -53l174 -72q80 -33 113.5 -48t73.5 -41.5t53.5 -55.5t13.5 -68q0 -102 -89 -177.5t-212 -110.5t-250 -35q-170 0 -245.5 62.5t-71.5 148.5q2 39 59 88 t105.5 76.5t132.5 72.5q-68 31 -96.5 61t-28.5 73q0 45 62.5 89t141.5 74q-82 59 -81 172q0 150 132 259.5t298 109.5q86 0 145 -35q39 -10 297 -10zM412 365q90 0 159.5 131t69.5 249q0 100 -72 101q-88 0 -158.5 -129t-70.5 -252q0 -100 72 -100zM535 -154q0 39 -31 61.5 t-117 57.5l-156 62q-84 -53 -143 -116t-61 -110q-2 -53 40 -90t154 -37q127 0 220.5 50t93.5 122z" glyph-name="g" horiz-adv-x="968" unicode="g"/><glyph d="M889 899q80 0 133 -47t47 -143q-6 -121 -94 -294t-210 -303t-214 -130q-47 0 -91 27.5t-44 80.5q0 37 25.5 62.5t60.5 25.5t49 -32.5t19 -65.5t16 -33q68 0 149.5 236.5t89.5 375.5q4 76 -10 97.5t-43 21.5q-117 0 -269.5 -233.5t-256.5 -544.5h-207l381 1110 q29 80 -1 110.5t-140 30.5l20 66l379 47l20 -31l-196 -602l-142 -293l13 2q268 459 516 459z" glyph-name="h" horiz-adv-x="1075" unicode="h"/><glyph d="M536.5 1096q-57.5 0 -100.5 41t-43 96t43 96t100.5 41t100.5 -41t43 -96t-43 -96t-100.5 -41zM500 326l39 -39q-207 -307 -369 -307q-68 0 -92.5 45t2.5 102l217 514q37 90 0 80q-53 -10 -170 -162q-4 -8 -10 -14l-37 39q203 307 366 307q68 0 94.5 -45t0.5 -103 l-217 -514q-37 -90 -2 -82q51 8 172 170q4 5 6 9z" glyph-name="i" horiz-adv-x="626" unicode="i"/><glyph d="M579.5 1096q-57.5 0 -100.5 41t-43 96t43 96t100.5 41t100.5 -41t43 -96t-43 -96t-100.5 -41zM487 891q66 0 89.5 -44t1.5 -112l-193 -583q-84 -258 -197.5 -384t-269.5 -126q-100 0 -152.5 47t-52.5 116q0 53 32 87t79 34q109 0 80 -155q-12 -66 47 -66t90 57.5 t90 237.5l207 641q29 92 -6 82q-49 -14 -172 -178l-37 39q202 307 364 307z" glyph-name="j" horiz-adv-x="602" unicode="j"/><glyph d="M37 0l383 1110q29 80 -1 110.5t-140 30.5l20 66l379 47l20 -31l-454 -1333h-207zM1118 827q-82 -6 -146.5 -38.5t-164.5 -106.5l-150 -111l119 -381q45 -143 170 -34l15 -47q-131 -129 -234 -129q-109 0 -154 151l-110 387l268 195q139 102 -14 114l16 54h404z" glyph-name="k" horiz-adv-x="1085" unicode="k"/><glyph d="M322 229q-31 -90 4 -82q47 10 172 183l39 -39q-205 -311 -379 -311q-61 0 -84 34.5t-2 94.5l346 1001q29 80 -1 110.5t-141 30.5l23 66l377 47l20 -31z" glyph-name="l" horiz-adv-x="612" unicode="l"/><glyph d="M1518 330l38 -39q-205 -311 -378 -311q-61 0 -86 35.5t-2 93.5l172 428q25 61 37 99t14 63.5t-6.5 34.5t-28.5 9q-70 0 -233.5 -234.5t-274.5 -508.5h-199l187 524q25 68 36 104t15 65.5t-4 39.5t-29 10q-70 0 -233.5 -234.5t-274.5 -508.5h-198l229 645q33 92 -2 84 q-51 -10 -178 -180l-37 39q203 307 371 307q59 0 78.5 -36t-5.5 -93l-157 -391h26q158 283 282 401.5t230 118.5q199 0 31 -371l-68 -149h27q158 283 282 401.5t230 118.5q213 0 57 -369l-127 -297q-39 -88 -2 -82q49 10 164 162q9 11 17 21z" glyph-name="m" horiz-adv-x="1642" unicode="m"/><glyph d="M1016 330l39 -39q-205 -311 -379 -311q-61 0 -86 35.5t-2 93.5l172 428q25 61 37 99t14 63.5t-6 34.5t-29 9q-70 0 -233.5 -234.5t-274.5 -508.5h-198l229 645q33 92 -2 84q-51 -10 -178 -180l-37 39q203 307 371 307q59 0 78.5 -36t-5.5 -93l-157 -391h26 q158 283 282 401.5t230 118.5q213 0 58 -369l-127 -297q-39 -88 -2 -82q49 10 163 162q9 11 17 21z" glyph-name="n" horiz-adv-x="1140" unicode="n"/><glyph d="M297 -20q-117 0 -187.5 62t-70.5 200q0 244 191.5 450.5t424.5 206.5q258 0 258 -260q0 -244 -191.5 -451.5t-424.5 -207.5zM365 43q84 0 164.5 120t123.5 267.5t43 251.5q0 74 -27.5 114t-74.5 40q-84 0 -165 -113t-127 -258.5t-46 -255.5q0 -78 29 -122t80 -44z" glyph-name="o" horiz-adv-x="956" unicode="o"/><glyph d="M264 -29l-51 -145q-12 -37 -12 -59q0 -35 27.5 -49.5t97.5 -22.5l-15 -53h-504l17 53q78 16 118 41.5t64 93.5l313 897q-94 -55 -194 -137l-25 57q125 119 256 187l99 278l213 23l-82 -234q20 2 55 2q150 0 243 -70.5t93 -218.5q0 -219 -205 -413.5t-508 -229.5zM563 801 h-12l-264 -764q213 39 345 202.5t132 346.5q0 215 -201 215z" glyph-name="p" horiz-adv-x="1021" unicode="p"/><glyph d="M606 -174q-25 -74 -1 -96.5t114 -34.5l-14 -53h-502l16 53q80 16 120 41.5t62 93.5l174 500q-305 -350 -415 -350q-51 0 -91 52t-40 154q0 160 103.5 328t264 276.5t318.5 108.5q63 0 133 -18h125zM299 170q49 0 315 270l115 332q-70 43 -127 43q-80 0 -167 -94 t-141 -221t-54 -228q0 -102 59 -102z" glyph-name="q" horiz-adv-x="960" unicode="q"/><glyph d="M868 899q92 0 93 -100q0 -74 -52.5 -142.5t-120.5 -68.5q-49 0 -59 22.5t5.5 49t18.5 49t-20 22.5q-72 0 -199.5 -213t-261.5 -522q-100 -6 -198 0l229 653q10 29 13 48.5t0 27.5t-11 8q-51 0 -184 -180l-37 39q203 307 377 307q115 0 65 -129l-155 -399h26 q274 528 471 528z" glyph-name="r" horiz-adv-x="911" unicode="r"/><glyph d="M686 768q0 -129 -207 -301q76 -106 76 -191q0 -129 -119 -212.5t-258 -83.5q-100 0 -153.5 47t-53.5 108.5t58 114.5l57 -10q4 -66 56.5 -125.5t117.5 -59.5q47 0 74.5 33t27.5 86q0 66 -52 139.5t-104 152.5t-52 157q0 123 108.5 199.5t237.5 76.5q74 0 130 -30.5 t56 -100.5zM461 494q92 117 92 219q0 53 -23.5 84.5t-64.5 31.5q-45 0 -83 -30.5t-38 -87.5q0 -37 21.5 -80t36 -61.5t59.5 -75.5z" glyph-name="s" horiz-adv-x="698" unicode="s"/><glyph d="M547 803l-236 -645q-10 -29 15 -21q63 16 227 197l12 12l39 -39q-127 -160 -234.5 -242.5t-179.5 -82.5q-57 0 -85.5 53t-8.5 112l242 668l-178 10l18 56h182l84 229l224 25l-93 -254h191l-31 -90z" glyph-name="t" horiz-adv-x="694" unicode="t"/><glyph d="M119 547l-37 39q205 309 375 309q63 0 88.5 -38t-0.5 -99l-168 -418q-25 -61 -37 -99t-13 -63.5t8 -36t30 -10.5q72 0 237.5 235.5t274.5 522.5h198l-233 -660q-33 -92 2 -84q49 10 174 183l39 -39q-205 -309 -379 -309q-61 0 -84 35.5t2 93.5l160 395l-19 -2 q-164 -293 -280.5 -407.5t-223.5 -114.5q-217 0 -61 366l127 297q39 90 2 82q-53 -10 -170 -162z" glyph-name="u" horiz-adv-x="1142" unicode="u"/><glyph d="M723 881h289l-742 -901h-80l84 684q12 100 -15.5 127.5t-108.5 37.5l16 52h334l-80 -617l350 408q51 59 55 94t-24.5 46t-93.5 17z" glyph-name="v" horiz-adv-x="927" unicode="v"/><glyph d="M1280 881h289l-742 -901h-79l83 682l-561 -682h-80l84 684q12 100 -15.5 127.5t-108.5 37.5l16 52h334l-80 -617l350 408q53 63 57 98q-8 20 -26.5 33.5t-37 16.5t-56.5 9l16 52h334l-80 -617l350 408q51 59 55 94t-24.5 46t-93.5 17z" glyph-name="w" horiz-adv-x="1484" unicode="w"/><glyph d="M737 881h277l-10 -56q-53 -8 -89 -29.5t-94 -76.5l-248 -240l84 -334q12 -49 35 -67.5t80 -26.5l-12 -51h-441l13 55q66 8 95.5 33t16.5 72l-51 211l-231 -242q-18 -18 -26.5 -30.5t-11.5 -19.5t4 -12.5t11 -7.5t21.5 -4t23.5 -4l-8 -51h-289l13 55q59 8 95 27.5t93 75.5 l289 278l-72 293q-12 51 -34.5 71.5t-73.5 28.5l10 52h420l-11 -56q-129 -16 -104 -108l43 -170l193 201q12 14 20 24t13 17.5t4 13.5t-1 9t-10 6t-13 4t-17.5 4t-18.5 3z" glyph-name="x" horiz-adv-x="950" unicode="x"/><glyph d="M727 881h317l-708 -895q-14 -18 -54 -70.5t-58.5 -74t-55.5 -63.5t-62.5 -61.5t-61.5 -44t-71.5 -34t-74.5 -9.5q-70 0 -121 32t-51 93q0 45 28.5 70.5t71.5 25.5q41 0 88 -39.5t86 -39.5q43 0 93 43t138 163l39 687q6 100 -20.5 127.5t-106.5 37.5l17 52h317l-43 -666 l365 459q49 61 50 94t-31 44t-107 17z" glyph-name="y" horiz-adv-x="960" unicode="y"/><glyph d="M719 86q43 0 69.5 -29.5t26.5 -72.5q0 -72 -67.5 -114t-153.5 -42q-98 0 -251 91t-249 91q-86 0 -147 -43l-33 39l725 709h-277q-170 0 -241 -168h-51l143 334h700l-731 -715q74 0 133.5 -28.5t96.5 -70.5t67.5 -84t61 -72t63.5 -30q27 0 32 14.5t-2 50.5t-7 52 q0 37 25.5 62.5t66.5 25.5z" glyph-name="z" horiz-adv-x="915" unicode="z"/><glyph d="M311 -326q-92 27 -143 71t-62.5 104.5t-3 118t32.5 136.5l105 318q35 106 -95 168v43q82 29 143.5 79t80.5 109l102 318q27 80 52.5 132t72.5 109.5t123 97.5t184 66l12 -55q-82 -33 -128 -119t-105 -264l-86 -266q-59 -184 -258 -230l-21 -18q76 -20 113 -88t4 -166 l-88 -266q-68 -211 -70 -265q-2 -70 52 -98z" glyph-name="braceleft" horiz-adv-x="636" unicode="{"/><glyph d="M297 -358v1681h102v-1681h-102z" glyph-name="bar" horiz-adv-x="669" unicode="|"/><glyph d="M434 1544q92 -27 143.5 -70.5t62.5 -104t3 -118t-33 -137.5l-104 -317q-35 -106 94 -168v-43q-82 -29 -143.5 -79t-79.5 -110l-103 -317q-27 -80 -52 -132t-72.5 -109.5t-123 -97.5t-184.5 -67l-12 56q82 33 128 118.5t105 264.5l87 266q59 184 258 229l20 19 q-76 20 -112.5 87.5t-4.5 166.5l88 266q68 211 70 264q2 70 -51 98z" glyph-name="braceright" horiz-adv-x="634" unicode="}"/><glyph d="M604 360q-55 0 -96 24t-60.5 51.5t-52.5 51t-78 23.5q-53 0 -105 -41t-60 -74l-31 31q18 106 96 167.5t174 61.5q55 0 96 -23.5t60.5 -51t53.5 -51t77 -23.5q53 0 105.5 41t62.5 74l31 -31q-18 -106 -97.5 -168t-175.5 -62z" glyph-name="asciitilde" horiz-adv-x="954" unicode="~"/><glyph d="M368.5 932q61.5 0 105.5 -43t44 -107q0 -59 -44 -102t-105 -43q-59 0 -103.5 43t-44.5 102q0 61 43 105.5t104.5 44.5zM344 518l-174 -811q-27 -133 -141 -133q-72 0 -97.5 37t5.5 115l348 792h59z" glyph-name="exclamdown" horiz-adv-x="516" unicode="¡"/><glyph d="M705 881q109 -51 108 -179q0 -57 -27.5 -94t-74.5 -37q-102 0 -86 160v10l-310 -544q45 -51 111 -52q55 0 123.5 35t116.5 99l28 -48q-63 -117 -178 -184t-217 -67q-53 0 -98 18l-70 -123h-88l92 162q-92 82 -92 227q0 143 83 292t216 246t264 97h21l94 164h88zM266 352 q0 -45 8 -71l314 550h-13q-78 0 -151.5 -79.5t-115.5 -190.5t-42 -209z" glyph-name="cent" horiz-adv-x="821" unicode="¢"/><glyph d="M1018 1305q96 0 151.5 -40t53.5 -122q-12 -43 -66.5 -71t-112.5 -23q-8 160 -120 159q-147 0 -236 -270l-84 -260h301l-61 -119h-279q-35 -96 -96 -178t-129 -125q25 6 51 6q57 0 106.5 -32.5t77 -72.5t64.5 -73t72 -33q49 0 88 51.5t39 110.5q0 33 -9 55l177 105 q31 -29 30 -86q0 -147 -134 -243.5t-284 -96.5q-70 0 -126 27.5t-85.5 61.5t-70.5 61.5t-84 27.5q-98 0 -234 -143l-55 79q154 127 232.5 227.5t138.5 270.5h-176l61 119h156l39 121q82 248 251 377t353 129z" glyph-name="sterling" horiz-adv-x="1179" unicode="£"/><glyph d="M1149 467q0 -141 -84 -254l145 -143l-94 -95l-145 144q-117 -80 -250 -80q-135 0 -246 78l-143 -142l-94 95l143 141q-84 113 -84 256q0 139 82 250l-141 139l94 96l141 -141q111 82 248 82q141 0 252 -84l143 143l94 -96l-143 -141q82 -111 82 -248zM436 467 q0 -121 83 -210t204 -89q119 0 205 89t86 210t-86 208t-205 87q-121 0 -204 -87t-83 -208z" glyph-name="currency" horiz-adv-x="1433" unicode="¤"/><glyph d="M1147 1290h385l-19 -57q-84 -14 -119.5 -36.5t-103.5 -98.5l-416 -467h213l-30 -94h-254l-35 -103h254l-31 -94h-254l-39 -121q-10 -35 -15 -59.5t2 -42t14.5 -27.5t31 -17t40.5 -11.5t56 -10.5l-14 -51h-596l16 53q98 16 146.5 50t79.5 130l35 107h-295l30 94h295 l35 103h-295l31 94h244l-117 471q-18 78 -40 99.5t-99 35.5l16 53h555l-16 -57q-109 -23 -136 -45q-35 -29 -20 -90l111 -455l409 467q33 37 43 60.5t-11.5 37t-36.5 17.5t-64 12z" glyph-name="yen" horiz-adv-x="1263" unicode="¥"/><glyph d="M297 645v678h102v-678h-102zM297 -358v677h102v-677h-102z" glyph-name="brokenbar" horiz-adv-x="669" unicode="¦"/><glyph d="M1059 1022h-49q4 102 -42 166.5t-147 64.5q-90 0 -161.5 -51t-71.5 -147q0 -55 31.5 -92t117.5 -89q283 -125 283 -327q0 -127 -87 -222.5t-231 -140.5q92 -82 93 -198q0 -160 -137.5 -257.5t-331.5 -97.5q-184 0 -310 113l52 201h45q-4 -111 43 -178.5t147 -67.5 q102 0 180 55.5t78 145.5q0 51 -34.5 89t-123.5 89q-281 119 -280 330q0 127 87 221t228 139q-86 82 -86 195q0 162 133 261t326 99q170 0 297 -115zM770 485q0 55 -39 94t-131 91q-37 14 -74 37q-154 -66 -153 -218q0 -70 38 -110.5t130 -95.5q29 -10 59 -29 q74 37 122 102.5t48 128.5z" glyph-name="section" horiz-adv-x="1081" unicode="§"/><glyph d="M422 1147q-53 0 -89 37t-36 88t37 87t88 36t87 -36t36 -87t-36 -88t-87 -37zM858 1147q-51 0 -88 37t-37 88t37 87t88 36t87 -36t36 -87t-36 -88t-87 -37z" glyph-name="dieresis" horiz-adv-x="737" unicode="¨"/><glyph d="M813 51q-248 0 -423 175t-175 423q0 246 175 421t423 175q246 0 421 -175t175 -421q0 -248 -175 -423t-421 -175zM813 115q217 0 371.5 157.5t154.5 376.5q0 217 -154.5 375t-371.5 158q-219 0 -372.5 -158t-153.5 -375q0 -219 153.5 -376.5t372.5 -157.5zM838 305 q-162 0 -261.5 96.5t-99.5 241.5q0 152 103.5 251t267.5 99q133 0 211 -49l8 -141h-43q-35 141 -190 141q-100 0 -153.5 -72.5t-53.5 -189.5q0 -137 76.5 -225t199.5 -88q109 0 158 51l22 -27q-75 -88 -245 -88z" glyph-name="copyright" horiz-adv-x="1480" unicode="©"/><glyph d="M696 870q-20 -59 2 -53q33 8 113 119l25 -27q-135 -201 -238 -200q-43 0 -58.5 28.5t1.5 67.5l45 129q-197 -225 -269 -225q-35 0 -61.5 39.5t-22.5 113.5q10 156 147.5 298.5t289.5 142.5q41 0 90 -13h82zM408 834q29 0 202 170l74 215q-51 31 -88 30 q-74 0 -148.5 -117.5t-78.5 -216.5q-4 -81 39 -81zM102 430l39 123h510l-39 -123h-510z" glyph-name="ordfeminine" horiz-adv-x="761" unicode="ª"/><glyph d="M111 455l372 288l19 -28l-242 -260l72 -260l-39 -29zM436 455l373 288l18 -28l-241 -260l71 -260l-39 -29z" glyph-name="guillemotleft" horiz-adv-x="858" unicode="«"/><glyph d="M1073 780l-158 -487h-178l101 325h-658l53 162h840z" glyph-name="logicalnot" horiz-adv-x="1085" unicode="¬"/><glyph d="M123 467v121h655v-121h-655z" glyph-name="uni00AD" horiz-adv-x="901" unicode="­"/><glyph d="M813 51q-248 0 -423 175t-175 423q0 246 175 421t423 175q246 0 421 -175t175 -421q0 -248 -175 -423t-421 -175zM813 115q217 0 371.5 157.5t154.5 376.5q0 217 -154.5 375t-371.5 158q-219 0 -372.5 -158t-153.5 -375q0 -219 153.5 -376.5t372.5 -157.5zM1092 326 q-119 0 -172 88l-64 104q-43 72 -76 86v35q174 0 174 137q0 135 -147 135q-43 0 -57.5 -10t-14.5 -35v-426q0 -33 12.5 -49t23.5 -20t46 -11v-26h-295v26q35 6 46.5 10.5t23.5 21t12 48.5v410q0 31 -11 48t-24.5 21.5t-46.5 10.5v26h279q289 0 289 -174q0 -72 -53.5 -114.5 t-131.5 -57.5q49 -12 115 -123l24 -41q51 -82 91 -88v-26q-18 -6 -43 -6z" glyph-name="registered" horiz-adv-x="1480" unicode="®"/><glyph d="M270 1212l31 93h573l-30 -93h-574z" glyph-name="macron" horiz-adv-x="614" unicode="¯"/><glyph d="M588 768q-117 0 -197 72.5t-80 195.5q0 125 84 200t207 75q117 0 197 -73t80 -196q0 -125 -84 -199.5t-207 -74.5zM604 815q61 0 97 51.5t36 147.5q0 102 -39 176t-112 74q-59 0 -96 -51.5t-37 -147.5q0 -100 38.5 -175t112.5 -75z" glyph-name="degree" horiz-adv-x="800" unicode="°"/><glyph d="M643 803h268l-53 -162h-266l-98 -301h-156l98 301h-270l53 162h268l97 297h155zM31 -18l53 161h682l-53 -161h-682z" glyph-name="plusminus" horiz-adv-x="962" unicode="±"/><glyph d="M217 805l-4 33q18 14 83.5 59t102.5 73.5t86.5 70.5t73 79t23.5 68q0 25 -18.5 47t-51.5 22q-66 0 -147 -100l-15 43q82 121 201 121q55 0 88 -32t33 -87t-41 -109.5t-81 -85t-118 -80.5t-96 -63l113 10q90 0 149 89l25 -15l-82 -143h-324z" glyph-name="uni00B2" horiz-adv-x="538" unicode="²"/><glyph d="M319 786q-43 0 -75.5 12.5t-32.5 37.5q0 20 13.5 31.5t29.5 11.5t35.5 -32t52.5 -32q59 0 109.5 52.5t50.5 111.5q0 72 -86 72q-33 0 -72 -15l-2 25l66 24q72 27 109.5 54.5t37.5 72.5q0 43 -59 43q-76 0 -136 -55l-12 17q90 96 201 96q94 0 94 -76q0 -86 -149 -147 q106 -8 106 -93q0 -80 -90.5 -145.5t-190.5 -65.5z" glyph-name="uni00B3" horiz-adv-x="507" unicode="³"/><glyph d="M289 1034l-62 39q45 174 142 309q49 0 103 -39.5t71 -89.5q-129 -86 -254 -219z" glyph-name="acute" horiz-adv-x="299" unicode="´"/><glyph d="M905 1290h774l-8 -55q-70 -12 -105.5 -24.5t-72.5 -49.5t-57 -102l-359 -1104q-102 -313 -467 -313h-145l24 71l459 1417q16 45 3 61.5t-70 16.5q-164 0 -295 -156.5t-131 -324.5q0 -170 190 -170q18 0 24.5 -20.5t-0.5 -40t-20 -19.5q-207 0 -326.5 84t-119.5 248 q0 227 202.5 354t499.5 127zM1212 1130q18 61 11.5 76t-45.5 15q-96 0 -136 -123l-448 -1381q92 12 148.5 77t97.5 190z" glyph-name="paragraph" horiz-adv-x="1480" unicode="¶"/><glyph d="M315.5 463q-61.5 0 -105.5 43t-44 106q0 59 44 102.5t105 43.5q59 0 103.5 -43t44.5 -103q0 -63 -43 -106t-104.5 -43z" glyph-name="periodcentered" horiz-adv-x="518" unicode="·"/><glyph d="M-152 -434l11 53q94 0 138 26.5t44 65.5q0 88 -229 88l102 201h98l-45 -90q88 0 157 -45t69 -123q-1 -176 -345 -176z" glyph-name="cedilla" horiz-adv-x="446" unicode="¸"/><glyph d="M215 815l6 23q78 10 96 59l97 297q4 14 6 23.5t1 16.5t-4 10t-11 3l-44 -6l9 23l159 67l13 -12l-142 -436q-8 -25 4.5 -32t51.5 -13l-6 -23h-236z" glyph-name="uni00B9" horiz-adv-x="421" unicode="¹"/><glyph d="M416 707q-166 0 -166 178q0 160 113.5 287.5t257.5 127.5q164 0 163 -176q0 -160 -113.5 -288.5t-254.5 -128.5zM440 748q57 0 108.5 82.5t76 177t24.5 153.5q0 45 -15.5 72t-37.5 27q-82 0 -146.5 -151t-64.5 -257q0 -104 55 -104zM111 430l39 123h509l-38 -123h-510z " glyph-name="ordmasculine" horiz-adv-x="702" unicode="º"/><glyph d="M418 455l-373 -289l-18 29l241 260l-71 260l39 28zM743 455l-372 -289l-19 29l242 260l-72 260l39 28z" glyph-name="guillemotright" horiz-adv-x="858" unicode="»"/><glyph d="M457 838l-6 -23h-236l6 23q78 10 96 59l97 297q4 14 6 23.5t1 16.5t-4 10t-11 3l-44 -6l9 23l159 67l13 -12l-142 -436q-8 -25 4.5 -32t51.5 -13zM1192 1303h51l-1223 -1313h-51zM940 504h86l-106 -328h67l-20 -41h-62l-22 -69q-8 -25 3 -33t50 -13l-6 -20h-230l9 20 q43 4 58 12.5t24 33.5l22 69h-199l7 41zM657 176h170l84 260z" glyph-name="onequarter" horiz-adv-x="1122" unicode="¼"/><glyph d="M215 815l6 23q78 10 96 59l97 297q4 14 6 23.5t1 16.5t-4 10t-11 3l-44 -6l9 23l159 67l13 -12l-142 -436q-8 -25 4.5 -32t51.5 -13l-6 -23h-236zM-31 -10l1223 1313h51l-1223 -1313h-51zM610 0l-4 33q18 14 84 59t102.5 74t86 71t73 78.5t23.5 67.5q0 25 -18.5 47.5 t-51.5 22.5q-66 0 -147 -101l-15 43q82 121 201 121q55 0 88 -32.5t33 -86.5q0 -55 -41 -109.5t-81 -85t-117.5 -80.5t-96.5 -63l113 11q90 0 149 88l25 -15l-82 -143h-324z" glyph-name="onehalf" horiz-adv-x="1191" unicode="½"/><glyph d="M319 786q-43 0 -75.5 12.5t-32.5 37.5q0 20 13.5 31.5t29.5 11.5t35.5 -32t52.5 -32q59 0 109.5 52.5t50.5 111.5q0 72 -86 72q-33 0 -72 -15l-2 25l66 24q72 27 109.5 54.5t37.5 72.5q0 43 -59 43q-76 0 -136 -55l-12 17q90 96 201 96q94 0 94 -76q0 -86 -149 -147 q106 -8 106 -93q0 -80 -90.5 -145.5t-190.5 -65.5zM1343 1303h52l-1223 -1313h-51zM1186 504h86l-107 -328h68l-21 -41h-61l-23 -69q-8 -25 3.5 -33t50.5 -13l-6 -20h-230l8 20q43 4 58.5 12.5t23.5 33.5l23 69h-199l6 41zM903 176h170l84 260z" glyph-name="threequarters" horiz-adv-x="1400" unicode="¾"/><glyph d="M571 932q61 0 105.5 -43t44.5 -107q0 -59 -44 -102t-106 -43q-59 0 -103 43t-44 102q0 61 44 105.5t103 44.5zM530 524q4 -82 -24.5 -150.5t-77.5 -124.5t-101.5 -111.5t-104.5 -132.5t-81 -163q-35 -109 2 -152.5t146 -43.5q49 0 108 84q68 98 110 134t81 36 q66 0 65 -74q0 -82 -94 -144.5t-207.5 -90t-210.5 -27.5q-154 0 -219 93t-18 241q31 94 96.5 168.5t138 123t145 94.5t129 106.5t74.5 133.5h43z" glyph-name="questiondown" horiz-adv-x="944" unicode="¿"/><glyph d="M963 1423q-125 133 -254 219q16 49 70.5 89.5t103.5 40.5q96 -135 141 -310zM1071 174q4 -68 24.5 -86t94.5 -35l-14 -53h-533l16 57q43 8 64.5 14.5t49.5 19.5t40 36t10 55l-10 201h-455l-149 -213q-10 -14 -15.5 -25.5t-9.5 -19.5t-2 -16.5t1 -13.5t7.5 -10t10.5 -7 t15 -7t16.5 -6.5t20.5 -6.5t21 -5l-16 -53h-356l18 55q76 12 111 36t88 97l803 1117h79zM406 453h405l-27 540z" glyph-name="Agrave" horiz-adv-x="1335" unicode="À"/><glyph d="M1221 1642q-129 -86 -254 -219l-62 39q45 174 142 310q49 0 103.5 -40.5t70.5 -89.5zM1071 174q4 -68 24.5 -86t94.5 -35l-14 -53h-533l16 57q43 8 64.5 14.5t49.5 19.5t40 36t10 55l-10 201h-455l-149 -213q-10 -14 -15.5 -25.5t-9.5 -19.5t-2 -16.5t1 -13.5t7.5 -10 t10.5 -7t15 -7t16.5 -6.5t20.5 -6.5t21 -5l-16 -53h-356l18 55q76 12 111 36t88 97l803 1117h79zM406 453h405l-27 540z" glyph-name="Aacute" horiz-adv-x="1335" unicode="Á"/><glyph d="M1120 1798l166 -307l-33 -33l-178 174l-289 -174l-20 31zM1071 174q4 -68 24.5 -86t94.5 -35l-14 -53h-533l16 57q43 8 64.5 14.5t49.5 19.5t40 36t10 55l-10 201h-455l-149 -213q-10 -14 -15.5 -25.5t-9.5 -19.5t-2 -16.5t1 -13.5t7.5 -10t10.5 -7t15 -7t16.5 -6.5 t20.5 -6.5t21 -5l-16 -53h-356l18 55q76 12 111 36t88 97l803 1117h79zM406 453h405l-27 540z" glyph-name="Acircumflex" horiz-adv-x="1335" unicode="Â"/><glyph d="M1372 1710l37 -31q-18 -106 -92 -167.5t-164 -61.5q-51 0 -88 23.5t-54.5 51t-46 51t-65.5 23.5q-53 0 -102 -40.5t-60 -73.5l-37 31q18 106 92 167.5t162 61.5q51 0 88 -23.5t54.5 -51.5t47.5 -51.5t66 -23.5q53 0 102.5 41t59.5 74zM1071 174q4 -68 24.5 -86t94.5 -35 l-14 -53h-533l16 57q43 8 64.5 14.5t49.5 19.5t40 36t10 55l-10 201h-455l-149 -213q-10 -14 -15.5 -25.5t-9.5 -19.5t-2 -16.5t1 -13.5t7.5 -10t10.5 -7t15 -7t16.5 -6.5t20.5 -6.5t21 -5l-16 -53h-356l18 55q76 12 111 36t88 97l803 1117h79zM406 453h405l-27 540z" glyph-name="Atilde" horiz-adv-x="1335" unicode="Ã"/><glyph d="M788.5 1536q-51.5 0 -88 37t-36.5 88t36.5 87t88 36t87 -36t35.5 -87t-35.5 -88t-87 -37zM1225 1784q51 0 87 -36t36 -87t-36 -88t-87 -37q-53 0 -89 37t-36 88t37 87t88 36zM1071 174q4 -68 24.5 -86t94.5 -35l-14 -53h-533l16 57q43 8 64.5 14.5t49.5 19.5t40 36t10 55 l-10 201h-455l-149 -213q-10 -14 -15.5 -25.5t-9.5 -19.5t-2 -16.5t1 -13.5t7.5 -10t10.5 -7t15 -7t16.5 -6.5t20.5 -6.5t21 -5l-16 -53h-356l18 55q76 12 111 36t88 97l803 1117h79zM406 453h405l-27 540z" glyph-name="Adieresis" horiz-adv-x="1335" unicode="Ä"/><glyph d="M1092 1851q82 0 138 -55t56 -135t-56 -135.5t-138 -55.5t-138.5 55.5t-56.5 135.5t56.5 135t138.5 55zM1091.5 1575q38.5 0 63.5 24.5t25 61.5t-25 61.5t-63.5 24.5t-63 -24.5t-24.5 -61.5t24.5 -61.5t63 -24.5zM1071 174q4 -68 24.5 -86t94.5 -35l-14 -53h-533l16 57 q43 8 64.5 14.5t49.5 19.5t40 36t10 55l-10 201h-455l-149 -213q-10 -14 -15.5 -25.5t-9.5 -19.5t-2 -16.5t1 -13.5t7.5 -10t10.5 -7t15 -7t16.5 -6.5t20.5 -6.5t21 -5l-16 -53h-356l18 55q76 12 111 36t88 97l803 1117h79zM406 453h405l-27 540z" glyph-name="Aring" horiz-adv-x="1335" unicode="Å"/><glyph d="M2013 1290l-84 -299h-53q31 119 11.5 169t-118.5 50h-145q-104 0 -152.5 -34.5t-82.5 -139.5l-113 -346h117q156 0 218 42t105 147h47l-141 -439h-47q27 111 -3 141.5t-192 30.5h-129l-127 -391q-18 -53 -21 -79.5t14.5 -42t42 -17.5t85.5 -2h107q106 0 188 57.5 t178 192.5h66l-187 -330h-946l17 55q61 12 94 24.5t66.5 49.5t54.5 102l49 152h-494l-219 -229q-27 -27 -38 -44.5t-6 -27.5t10 -13t30 -9.5t33 -10.5l-25 -49h-321l26 55q76 16 114 38t105 91l998 1028q-18 8 -88 25l14 53h942zM958 461l199 612q16 55 17 80l-662 -692h446 z" glyph-name="AE" horiz-adv-x="1908" unicode="Æ"/><glyph d="M1018 1321q229 0 328 -119l-66 -268h-68q12 156 -37 232.5t-176 76.5t-239.5 -78t-187 -196.5t-117.5 -258t-43 -266.5q0 -168 78.5 -264t224.5 -96q201 0 336 121l30 -74q-76 -68 -199.5 -112t-263.5 -46l-32 -63q88 0 156.5 -45t68.5 -123q0 -176 -344 -176l10 53 q94 0 138 26.5t44 65.5q0 88 -229 88l92 181q-182 23 -275 142.5t-93 309.5q0 221 116.5 426t318.5 334t429 129z" glyph-name="Ccedilla" horiz-adv-x="1239" unicode="Ç"/><glyph d="M874 1423q-125 133 -253 219q16 49 70 89.5t104 40.5q96 -135 141 -310zM354 1290h942l-84 -299h-53q31 119 11.5 169t-117.5 50h-146q-104 0 -152 -34.5t-83 -139.5l-113 -346h117q156 0 218 42t105 147h48l-142 -439h-47q27 111 -3 141.5t-191 30.5h-129l-127 -391 q-18 -53 -21.5 -79.5t14 -42t42 -17.5t85.5 -2h107q106 0 188 57.5t178 192.5h66l-186 -330h-947l17 55q61 12 94 24.5t66.5 49.5t54.5 102l274 842q16 51 18.5 81t-17 46.5t-37 21.5t-64.5 15z" glyph-name="Egrave" horiz-adv-x="1191" unicode="È"/><glyph d="M1133 1642q-129 -86 -254 -219l-62 39q45 174 141 310q49 0 104 -40.5t71 -89.5zM354 1290h942l-84 -299h-53q31 119 11.5 169t-117.5 50h-146q-104 0 -152 -34.5t-83 -139.5l-113 -346h117q156 0 218 42t105 147h48l-142 -439h-47q27 111 -3 141.5t-191 30.5h-129 l-127 -391q-18 -53 -21.5 -79.5t14 -42t42 -17.5t85.5 -2h107q106 0 188 57.5t178 192.5h66l-186 -330h-947l17 55q61 12 94 24.5t66.5 49.5t54.5 102l274 842q16 51 18.5 81t-17 46.5t-37 21.5t-64.5 15z" glyph-name="Eacute" horiz-adv-x="1191" unicode="É"/><glyph d="M987 1632l-289 -174l-20 31l354 309l166 -307l-33 -33zM354 1290h942l-84 -299h-53q31 119 11.5 169t-117.5 50h-146q-104 0 -152 -34.5t-83 -139.5l-113 -346h117q156 0 218 42t105 147h48l-142 -439h-47q27 111 -3 141.5t-191 30.5h-129l-127 -391q-18 -53 -21.5 -79.5 t14 -42t42 -17.5t85.5 -2h107q106 0 188 57.5t178 192.5h66l-186 -330h-947l17 55q61 12 94 24.5t66.5 49.5t54.5 102l274 842q16 51 18.5 81t-17 46.5t-37 21.5t-64.5 15z" glyph-name="Ecircumflex" horiz-adv-x="1191" unicode="Ê"/><glyph d="M700 1536q-53 0 -89 37t-36 88t37 87t88.5 36t87 -36t35.5 -87t-36 -88t-87 -37zM1136.5 1536q-51.5 0 -88 37t-36.5 88t36.5 87t88 36t87.5 -36t36 -87t-36 -88t-87.5 -37zM354 1290h942l-84 -299h-53q31 119 11.5 169t-117.5 50h-146q-104 0 -152 -34.5t-83 -139.5 l-113 -346h117q156 0 218 42t105 147h48l-142 -439h-47q27 111 -3 141.5t-191 30.5h-129l-127 -391q-18 -53 -21.5 -79.5t14 -42t42 -17.5t85.5 -2h107q106 0 188 57.5t178 192.5h66l-186 -330h-947l17 55q61 12 94 24.5t66.5 49.5t54.5 102l274 842q16 51 18.5 81t-17 46.5 t-37 21.5t-64.5 15z" glyph-name="Edieresis" horiz-adv-x="1191" unicode="Ë"/><glyph d="M629 1423q-125 133 -254 219q16 49 70.5 89.5t103.5 40.5q96 -135 141 -310zM-63 0l14 53q88 16 134 50t77 128l274 842q16 51 18.5 81t-17 46.5t-37 21.5t-64.5 15l14 53h561l-18 -55q-47 -10 -72.5 -17.5t-56.5 -25.5t-51.5 -51t-36.5 -82l-275 -842q-16 -51 -18 -81 t17.5 -46t38 -22.5t63.5 -16.5l-15 -51h-550z" glyph-name="Igrave" horiz-adv-x="704" unicode="Ì"/><glyph d="M633 1423l-62 39q45 174 142 310q49 0 103 -40t71 -90q-129 -86 -254 -219zM-63 0l14 53q88 16 134 50t77 128l274 842q16 51 18.5 81t-17 46.5t-37 21.5t-64.5 15l14 53h561l-18 -55q-47 -10 -72.5 -17.5t-56.5 -25.5t-51.5 -51t-36.5 -82l-275 -842q-16 -51 -18 -81 t17.5 -46t38 -22.5t63.5 -16.5l-15 -51h-550z" glyph-name="Iacute" horiz-adv-x="704" unicode="Í"/><glyph d="M786 1798l166 -307l-32 -33l-179 174l-288 -174l-21 31zM-63 0l14 53q88 16 134 50t77 128l274 842q16 51 18.5 81t-17 46.5t-37 21.5t-64.5 15l14 53h561l-18 -55q-47 -10 -72.5 -17.5t-56.5 -25.5t-51.5 -51t-36.5 -82l-275 -842q-16 -51 -18 -81t17.5 -46t38 -22.5 t63.5 -16.5l-15 -51h-550z" glyph-name="Icircumflex" horiz-adv-x="704" unicode="Î"/><glyph d="M455 1536q-53 0 -89 37t-36 88t36.5 87t88 36t87.5 -36t36 -87t-36 -88t-87 -37zM891 1536q-51 0 -88 37t-37 88t37 87t88 36t87 -36t36 -87t-36 -88t-87 -37zM-63 0l14 53q88 16 134 50t77 128l274 842q16 51 18.5 81t-17 46.5t-37 21.5t-64.5 15l14 53h561l-18 -55 q-47 -10 -72.5 -17.5t-56.5 -25.5t-51.5 -51t-36.5 -82l-275 -842q-16 -51 -18 -81t17.5 -46t38 -22.5t63.5 -16.5l-15 -51h-550z" glyph-name="Idieresis" horiz-adv-x="704" unicode="Ï"/><glyph d="M944 1290q221 0 369.5 -111.5t148.5 -336.5q0 -332 -278.5 -587t-651.5 -255h-528l16 55q61 12 94 24.5t67 49.5t55 102l120 371l-225 -6l21 82l227 -6l131 401q16 51 18 81t-17 46.5t-36.5 21.5t-64.5 15l14 53h520zM590 78q123 0 241.5 80t202.5 202.5t135.5 270 t51.5 280.5q0 301 -308 301h-112l-176 -540l233 6l-20 -82l-238 6l-111 -342q-35 -106 -13 -144t114 -38z" glyph-name="Eth" horiz-adv-x="1456" unicode="Ð"/><glyph d="M903 1599q-53 0 -102 -40.5t-60 -73.5l-36 31q18 106 91.5 167.5t161.5 61.5q51 0 88 -23.5t54.5 -51.5t47.5 -51.5t66 -23.5q53 0 102.5 41t59.5 74l37 -31q-18 -106 -92 -167.5t-164 -61.5q-51 0 -88 23.5t-54.5 51t-46 51t-65.5 23.5zM1161 1290h412l-17 -53 q-88 -14 -138 -49t-81 -129l-344 -1059h-100l-361 1094l-286 -877q-14 -41 -15.5 -68.5t4 -44t27 -26.5t39.5 -15.5t57 -11.5l-14 -51h-410l15 53q88 14 138 49t81 129l274 842q12 41 13.5 68.5t-0.5 42t-25.5 27t-35 15.5t-50.5 11l12 53h373l297 -913l234 696 q14 41 15 68.5t-4 44t-26.5 27t-40 15.5t-57.5 11z" glyph-name="Ntilde" horiz-adv-x="1345" unicode="Ñ"/><glyph d="M989 1423q-125 133 -254 219q16 49 70.5 89.5t103.5 40.5q96 -135 142 -310zM573 -27q-199 0 -312.5 119t-113.5 318q0 223 117 434t313.5 344t413.5 133q199 0 312.5 -118t113.5 -316q0 -225 -116.5 -436t-313.5 -344.5t-414 -133.5zM604 51q150 0 284 155.5 t205.5 363.5t71.5 391q0 283 -204 282q-150 0 -283 -154.5t-206 -363.5t-73 -387q0 -287 205 -287z" glyph-name="Ograve" horiz-adv-x="1423" unicode="Ò"/><glyph d="M993 1423l-61 39q45 174 141 310q49 0 103.5 -40t70.5 -90q-129 -86 -254 -219zM573 -27q-199 0 -312.5 119t-113.5 318q0 223 117 434t313.5 344t413.5 133q199 0 312.5 -118t113.5 -316q0 -225 -116.5 -436t-313.5 -344.5t-414 -133.5zM604 51q150 0 284 155.5 t205.5 363.5t71.5 391q0 283 -204 282q-150 0 -283 -154.5t-206 -363.5t-73 -387q0 -287 205 -287z" glyph-name="Oacute" horiz-adv-x="1423" unicode="Ó"/><glyph d="M1147 1798l166 -307l-33 -33l-178 174l-289 -174l-20 31zM573 -27q-199 0 -312.5 119t-113.5 318q0 223 117 434t313.5 344t413.5 133q199 0 312.5 -118t113.5 -316q0 -225 -116.5 -436t-313.5 -344.5t-414 -133.5zM604 51q150 0 284 155.5t205.5 363.5t71.5 391 q0 283 -204 282q-150 0 -283 -154.5t-206 -363.5t-73 -387q0 -287 205 -287z" glyph-name="Ocircumflex" horiz-adv-x="1423" unicode="Ô"/><glyph d="M1180 1450q-51 0 -88 23.5t-54.5 51t-46 51t-65.5 23.5q-53 0 -102.5 -40.5t-59.5 -73.5l-37 31q18 106 92 167.5t162 61.5q51 0 88 -23.5t54.5 -51.5t47 -51.5t66.5 -23.5q53 0 102.5 41t59.5 74l37 -31q-18 -106 -92 -167.5t-164 -61.5zM573 -27q-199 0 -312.5 119 t-113.5 318q0 223 117 434t313.5 344t413.5 133q199 0 312.5 -118t113.5 -316q0 -225 -116.5 -436t-313.5 -344.5t-414 -133.5zM604 51q150 0 284 155.5t205.5 363.5t71.5 391q0 283 -204 282q-150 0 -283 -154.5t-206 -363.5t-73 -387q0 -287 205 -287z" glyph-name="Otilde" horiz-adv-x="1423" unicode="Õ"/><glyph d="M815 1536q-53 0 -89 37t-36 88t37 87t88 36t87 -36t36 -87t-36 -88t-87 -37zM1251.5 1536q-51.5 0 -88.5 37t-37 88t37 87t88.5 36t87 -36t35.5 -87t-35.5 -88t-87 -37zM573 -27q-199 0 -312.5 119t-113.5 318q0 223 117 434t313.5 344t413.5 133q199 0 312.5 -118 t113.5 -316q0 -225 -116.5 -436t-313.5 -344.5t-414 -133.5zM604 51q150 0 284 155.5t205.5 363.5t71.5 391q0 283 -204 282q-150 0 -283 -154.5t-206 -363.5t-73 -387q0 -287 205 -287z" glyph-name="Odieresis" horiz-adv-x="1423" unicode="Ö"/><glyph d="M823 729l-266 -217l121 -215l-146 -115l-120 213l-267 -217l-67 125l264 215l-121 215l146 115l120 -213l269 219z" glyph-name="multiply" horiz-adv-x="851" unicode="×"/><glyph d="M1186 1284q111 -49 171 -152.5t60 -244.5q0 -225 -116.5 -436t-313 -344.5t-414.5 -133.5q-98 0 -184 33l-67 -106l-41 26l63 103q-197 113 -197 381q0 223 117 434t313.5 344t413.5 133q86 0 148 -21l78 123l40 -26zM399 338q0 -106 31 -174l649 1042q-47 37 -118 37 q-150 0 -283 -154.5t-206 -363.5t-73 -387zM604 51q150 0 284 155.5t205.5 363.5t71.5 391q0 137 -51 208l-657 -1052q53 -66 147 -66z" glyph-name="Oslash" horiz-adv-x="1423" unicode="Ø"/><glyph d="M987 1423q-125 133 -254 219q16 49 70.5 89.5t103.5 40.5q96 -135 142 -310zM584 -23q-74 0 -135.5 14.5t-117 54.5t-85 100.5t-27.5 160t43 225.5l174 541q16 51 18.5 81t-17 46.5t-37 21.5t-64.5 15l14 53h561l-18 -55q-61 -12 -94 -24.5t-66 -49.5t-55 -102l-191 -590 q-33 -100 -37 -176t11.5 -117t48.5 -66.5t64.5 -32.5t70.5 -7q57 0 114.5 17t120 59t119 126t95.5 203l192 598q12 41 13 68.5t-2 42t-26.5 27t-34.5 14.5t-50 12l14 53h412l-19 -55q-68 -12 -102.5 -24.5t-69.5 -49.5t-57 -102l-186 -576q-164 -506 -594 -506z" glyph-name="Ugrave" horiz-adv-x="1384" unicode="Ù"/><glyph d="M991 1423l-61 39q45 174 141 310q49 0 103.5 -40t70.5 -90q-129 -86 -254 -219zM584 -23q-74 0 -135.5 14.5t-117 54.5t-85 100.5t-27.5 160t43 225.5l174 541q16 51 18.5 81t-17 46.5t-37 21.5t-64.5 15l14 53h561l-18 -55q-61 -12 -94 -24.5t-66 -49.5t-55 -102 l-191 -590q-33 -100 -37 -176t11.5 -117t48.5 -66.5t64.5 -32.5t70.5 -7q57 0 114.5 17t120 59t119 126t95.5 203l192 598q12 41 13 68.5t-2 42t-26.5 27t-34.5 14.5t-50 12l14 53h412l-19 -55q-68 -12 -102.5 -24.5t-69.5 -49.5t-57 -102l-186 -576q-164 -506 -594 -506z " glyph-name="Uacute" horiz-adv-x="1384" unicode="Ú"/><glyph d="M1145 1798l166 -307l-33 -33l-178 174l-289 -174l-20 31zM584 -23q-74 0 -135.5 14.5t-117 54.5t-85 100.5t-27.5 160t43 225.5l174 541q16 51 18.5 81t-17 46.5t-37 21.5t-64.5 15l14 53h561l-18 -55q-61 -12 -94 -24.5t-66 -49.5t-55 -102l-191 -590q-33 -100 -37 -176 t11.5 -117t48.5 -66.5t64.5 -32.5t70.5 -7q57 0 114.5 17t120 59t119 126t95.5 203l192 598q12 41 13 68.5t-2 42t-26.5 27t-34.5 14.5t-50 12l14 53h412l-19 -55q-68 -12 -102.5 -24.5t-69.5 -49.5t-57 -102l-186 -576q-164 -506 -594 -506z" glyph-name="Ucircumflex" horiz-adv-x="1384" unicode="Û"/><glyph d="M813 1536q-51 0 -88 37t-37 88t37 87t88 36t87 -36t36 -87t-36 -88t-87 -37zM1249 1536q-53 0 -89 37t-36 88t37 87t88 36t87 -36t36 -87t-36 -88t-87 -37zM584 -23q-74 0 -135.5 14.5t-117 54.5t-85 100.5t-27.5 160t43 225.5l174 541q16 51 18.5 81t-17 46.5t-37 21.5 t-64.5 15l14 53h561l-18 -55q-61 -12 -94 -24.5t-66 -49.5t-55 -102l-191 -590q-33 -100 -37 -176t11.5 -117t48.5 -66.5t64.5 -32.5t70.5 -7q57 0 114.5 17t120 59t119 126t95.5 203l192 598q12 41 13 68.5t-2 42t-26.5 27t-34.5 14.5t-50 12l14 53h412l-19 -55 q-68 -12 -102.5 -24.5t-69.5 -49.5t-57 -102l-186 -576q-164 -506 -594 -506z" glyph-name="Udieresis" horiz-adv-x="1384" unicode="Ü"/><glyph d="M1174 1642q-129 -86 -254 -219l-62 39q45 174 141 310q49 0 104 -40.5t71 -89.5zM1147 1290h385l-19 -57q-84 -14 -119.5 -36.5t-103.5 -98.5l-481 -539l-111 -340q-10 -35 -15 -59.5t2 -42t14.5 -27.5t31 -17t40.5 -11.5t56 -10.5l-14 -51h-596l16 53q98 16 146.5 50 t79.5 130l100 310l-137 559q-18 78 -40 99.5t-99 35.5l16 53h555l-16 -57q-109 -23 -136 -45q-35 -29 -20 -90l111 -455l409 467q33 37 43 60.5t-11.5 37t-36.5 17.5t-64 12z" glyph-name="Yacute" horiz-adv-x="1263" unicode="Ý"/><glyph d="M410 244l-9 -27q-16 -51 -18 -81t17.5 -46t38 -22.5t63.5 -16.5l-15 -51h-550l14 53q88 16 134 50t77 128l274 842q16 51 18.5 81t-17 46.5t-37 21.5t-64.5 15l14 53h561l-18 -55q-47 -10 -72.5 -17.5t-56.5 -25.5t-51.5 -51t-36.5 -82l-6 -17q471 -18 471 -311 q0 -166 -104.5 -276.5t-261 -156.5t-365.5 -54zM645 963l-207 -635q205 25 332 142.5t127 285.5q0 104 -58.5 150.5t-193.5 56.5z" glyph-name="Thorn" horiz-adv-x="1159" unicode="Þ"/><glyph d="M676 707l123 -181q59 -88 59 -176q0 -104 -92 -194t-211 -136.5t-217 -46.5q-70 0 -107.5 28t-37.5 77q0 43 26.5 70.5t73.5 27.5q45 0 95 -57.5t67 -57.5q57 0 118.5 74t61.5 141q0 49 -35 113l-149 238q324 281 323 485q0 115 -100 115q-164 0 -264 -309l-299 -918 h-355l11 55q76 12 118.5 39t63.5 90l248 762q57 176 185 267.5t298 91.5q137 0 211 -59.5t74 -160.5q0 -183 -289 -378z" glyph-name="germandbls" horiz-adv-x="976" unicode="ß"/><glyph d="M664 1014q-125 133 -254 219q16 49 70.5 89t103.5 40q96 -135 141 -309zM748 229q-31 -92 4 -82q47 12 174 183l37 -39q-205 -311 -369 -311q-66 0 -88.5 43t-1.5 104l69 201q-299 -348 -413 -348q-51 0 -91 52t-40 154q0 160 103.5 328t264 276.5t318.5 108.5 q63 0 133 -18h125zM299 170q49 0 313 268l117 334q-70 43 -127 43q-80 0 -167 -94t-141 -221t-54 -228q0 -102 59 -102z" glyph-name="agrave" horiz-adv-x="1048" unicode="à"/><glyph d="M922 1233q-129 -86 -254 -219l-62 39q45 174 142 309q49 0 103.5 -40t70.5 -89zM748 229q-31 -92 4 -82q47 12 174 183l37 -39q-205 -311 -369 -311q-66 0 -88.5 43t-1.5 104l69 201q-299 -348 -413 -348q-51 0 -91 52t-40 154q0 160 103.5 328t264 276.5t318.5 108.5 q63 0 133 -18h125zM299 170q49 0 313 268l117 334q-70 43 -127 43q-80 0 -167 -94t-141 -221t-54 -228q0 -102 59 -102z" glyph-name="aacute" horiz-adv-x="1048" unicode="á"/><glyph d="M776 1223l-289 -174l-20 30l354 310l166 -308l-33 -32zM973 881l-225 -652q-31 -92 4 -82q47 12 174 183l37 -39q-205 -311 -369 -311q-66 0 -88.5 43t-1.5 104l69 201q-299 -348 -413 -348q-51 0 -91 52t-40 154q0 160 103.5 328t264 276.5t318.5 108.5q63 0 133 -18 h125zM299 170q49 0 313 268l117 334q-70 43 -127 43q-80 0 -167 -94t-141 -221t-54 -228q0 -102 59 -102z" glyph-name="acircumflex" horiz-adv-x="1048" unicode="â"/><glyph d="M1073 1300l37 -30q-18 -106 -92 -168t-164 -62q-51 0 -88 23.5t-54.5 51.5t-46 51.5t-65.5 23.5q-53 0 -102 -41t-60 -74l-37 31q18 106 92 167.5t162 61.5q51 0 88 -23.5t54.5 -51t47 -51t66.5 -23.5q53 0 102.5 40.5t59.5 73.5zM973 881l-225 -652q-31 -92 4 -82 q47 12 174 183l37 -39q-205 -311 -369 -311q-66 0 -88.5 43t-1.5 104l69 201q-299 -348 -413 -348q-51 0 -91 52t-40 154q0 160 103.5 328t264 276.5t318.5 108.5q63 0 133 -18h125zM299 170q49 0 313 268l117 334q-70 43 -127 43q-80 0 -167 -94t-141 -221t-54 -228 q0 -102 59 -102z" glyph-name="atilde" horiz-adv-x="1048" unicode="ã"/><glyph d="M489.5 1126q-51.5 0 -88 37t-36.5 88.5t36.5 87t88 35.5t87 -35.5t35.5 -87t-35.5 -88.5t-87 -37zM925.5 1374q51.5 0 87.5 -35.5t36 -87t-36 -88.5t-87 -37q-53 0 -89 37t-36 88.5t36.5 87t88 35.5zM973 881l-225 -652q-31 -92 4 -82q47 12 174 183l37 -39 q-205 -311 -369 -311q-66 0 -88.5 43t-1.5 104l69 201q-299 -348 -413 -348q-51 0 -91 52t-40 154q0 160 103.5 328t264 276.5t318.5 108.5q63 0 133 -18h125zM299 170q49 0 313 268l117 334q-70 43 -127 43q-80 0 -167 -94t-141 -221t-54 -228q0 -102 59 -102z" glyph-name="adieresis" horiz-adv-x="1048" unicode="ä"/><glyph d="M792.5 1061q-81.5 0 -138 55t-56.5 135t56.5 135.5t138 55.5t138 -55.5t56.5 -135.5t-56.5 -135t-138 -55zM792.5 1337q-38.5 0 -63 -24.5t-24.5 -61.5t24.5 -61.5t63 -24.5t63.5 24.5t25 61.5t-25 61.5t-63.5 24.5zM973 881l-225 -652q-31 -92 4 -82q47 12 174 183 l37 -39q-205 -311 -369 -311q-66 0 -88.5 43t-1.5 104l69 201q-299 -348 -413 -348q-51 0 -91 52t-40 154q0 160 103.5 328t264 276.5t318.5 108.5q63 0 133 -18h125zM299 170q49 0 313 268l117 334q-70 43 -127 43q-80 0 -167 -94t-141 -221t-54 -228q0 -102 59 -102z" glyph-name="aring" horiz-adv-x="1048" unicode="å"/><glyph d="M1335 743q0 -248 -538 -362q-4 -41 -4 -59q0 -80 36.5 -128.5t108.5 -48.5q133 0 231 123l31 -43q-70 -119 -180.5 -181t-210.5 -62q-109 0 -175.5 74.5t-66.5 199.5q0 35 6 68q-63 -72 -107 -118t-105.5 -105.5t-111.5 -90t-87 -30.5q-55 0 -96 61t-35 176 q8 156 109.5 314.5t258 263t310.5 104.5q129 0 239 -61q111 61 213 61q90 0 132 -43t42 -113zM1073 817q-78 0 -154.5 -115.5t-109.5 -257.5q166 35 250 111t84 166q0 96 -70 96zM301 172q51 0 295 248q59 170 203 307q-98 88 -195 88q-119 0 -236.5 -181t-125.5 -335 q-4 -55 11 -91t48 -36z" glyph-name="ae" horiz-adv-x="1347" unicode="æ"/><glyph d="M606 899q100 0 153.5 -57.5t53.5 -139.5q0 -57 -27.5 -94t-74.5 -37q-102 0 -86 160q6 61 -4.5 80.5t-45.5 19.5q-78 0 -151.5 -79.5t-115.5 -190t-42 -209.5q0 -96 45 -151.5t115 -55.5q55 0 123.5 35t116.5 99l28 -48q-59 -109 -165.5 -176t-206.5 -75l-35 -70 q88 0 156.5 -45t68.5 -123q0 -176 -344 -176l10 53q94 0 138 26.5t44 65.5q0 88 -229 88l96 191q-82 23 -133 94.5t-51 179.5q0 143 83 292t216 246t264 97z" glyph-name="ccedilla" horiz-adv-x="821" unicode="ç"/><glyph d="M553 1014q-125 133 -254 219q16 49 70.5 89t103.5 40q96 -135 141 -309zM807 743q0 -248 -539 -362q-4 -41 -4 -59q0 -80 37 -128.5t109 -48.5q133 0 231 123l31 -43q-70 -119 -180.5 -181t-210.5 -62q-109 0 -175.5 74.5t-66.5 199.5q0 225 194.5 434t399.5 209 q90 0 132 -43t42 -113zM545 817q-78 0 -155 -115.5t-109 -257.5q166 35 249.5 111t83.5 166q1 96 -69 96z" glyph-name="egrave" horiz-adv-x="808" unicode="è"/><glyph d="M811 1233q-129 -86 -254 -219l-61 39q45 174 141 309q49 0 103.5 -40t70.5 -89zM633 899q90 0 132 -43t42 -113q0 -248 -539 -362q-4 -41 -4 -59q0 -80 37 -128.5t109 -48.5q133 0 231 123l31 -43q-70 -119 -180.5 -181t-210.5 -62q-109 0 -175.5 74.5t-66.5 199.5 q0 225 194.5 434t399.5 209zM281 444q166 35 249.5 111t83.5 166q0 96 -69 96q-78 0 -154.5 -116t-109.5 -257z" glyph-name="eacute" horiz-adv-x="808" unicode="é"/><glyph d="M711 1389l166 -308l-33 -32l-178 174l-289 -174l-21 30zM633 899q90 0 132 -43t42 -113q0 -248 -539 -362q-4 -41 -4 -59q0 -80 37 -128.5t109 -48.5q133 0 231 123l31 -43q-70 -119 -180.5 -181t-210.5 -62q-109 0 -175.5 74.5t-66.5 199.5q0 225 194.5 434t399.5 209z M281 444q166 35 249.5 111t83.5 166q0 96 -69 96q-78 0 -154.5 -116t-109.5 -257z" glyph-name="ecircumflex" horiz-adv-x="808" unicode="ê"/><glyph d="M379 1126q-51 0 -88 37t-37 88.5t37 87t88 35.5t87 -35.5t36 -87t-36 -88.5t-87 -37zM815 1374q51 0 87 -35.5t36 -87t-36 -88.5t-87 -37q-53 0 -89 37t-36 88.5t37 87t88 35.5zM633 899q90 0 132 -43t42 -113q0 -248 -539 -362q-4 -41 -4 -59q0 -80 37 -128.5t109 -48.5 q133 0 231 123l31 -43q-70 -119 -180.5 -181t-210.5 -62q-109 0 -175.5 74.5t-66.5 199.5q0 225 194.5 434t399.5 209zM281 444q166 35 249.5 111t83.5 166q0 96 -69 96q-78 0 -154.5 -116t-109.5 -257z" glyph-name="edieresis" horiz-adv-x="808" unicode="ë"/><glyph d="M444 1014q-125 133 -254 219q16 49 70.5 89t104.5 40q96 -135 141 -309zM504 326l39 -39q-207 -307 -369 -307q-68 0 -91.5 45t1.5 102l211 514q35 88 0 82q-51 -10 -172 -172q-4 -2 -6 -6l-37 39q203 307 366 307q68 0 92.5 -44t0.5 -104l-211 -514q-37 -90 -2 -82 q51 8 172 170q4 5 6 9z" glyph-name="igrave" horiz-adv-x="630" unicode="ì"/><glyph d="M449 1014l-62 39q45 174 141 309q49 0 103.5 -40t70.5 -89q-128 -86 -253 -219zM504 326l39 -39q-207 -307 -369 -307q-68 0 -91.5 45t1.5 102l211 514q35 88 0 82q-51 -10 -172 -172q-4 -2 -6 -6l-37 39q203 307 366 307q68 0 92.5 -44t0.5 -104l-211 -514 q-37 -90 -2 -82q51 8 172 170q4 5 6 9z" glyph-name="iacute" horiz-adv-x="630" unicode="í"/><glyph d="M602 1389l166 -308l-33 -32l-178 174l-289 -174l-20 30zM504 326l39 -39q-207 -307 -369 -307q-68 0 -91.5 45t1.5 102l211 514q35 88 0 82q-51 -10 -172 -172q-4 -2 -6 -6l-37 39q203 307 366 307q68 0 92.5 -44t0.5 -104l-211 -514q-37 -90 -2 -82q51 8 172 170 q4 5 6 9z" glyph-name="icircumflex" horiz-adv-x="630" unicode="î"/><glyph d="M270 1126q-53 0 -89 37t-36 88.5t37 87t88.5 35.5t87 -35.5t35.5 -87t-36 -88.5t-87 -37zM706.5 1126q-51.5 0 -88 37t-36.5 88.5t36.5 87t88 35.5t87 -35.5t35.5 -87t-35.5 -88.5t-87 -37zM504 326l39 -39q-207 -307 -369 -307q-68 0 -91.5 45t1.5 102l211 514 q35 88 0 82q-51 -10 -172 -172q-4 -2 -6 -6l-37 39q203 307 366 307q68 0 92.5 -44t0.5 -104l-211 -514q-37 -90 -2 -82q51 8 172 170q4 5 6 9z" glyph-name="idieresis" horiz-adv-x="630" unicode="ï"/><glyph d="M1200 1298l-20 -110q-92 -27 -277 -84q119 -152 119 -363q0 -197 -80 -369.5t-229.5 -281t-333.5 -108.5q-143 0 -228 81.5t-85 225.5q0 246 183 438.5t427 192.5h41.5h45h38.5q-10 82 -39 137q-162 -57 -352 -129l22 110q168 47 285 88q-80 98 -232 115l39 64 q182 -12 320 -138q200 72 356 131zM401 55q96 0 185.5 110.5t137.5 254t48 258.5q0 168 -117 168q-96 0 -185 -110.5t-137 -253t-48 -257.5q-1 -170 116 -170z" glyph-name="eth" horiz-adv-x="1079" unicode="ð"/><glyph d="M905 1040q-51 0 -88 23.5t-54.5 51.5t-46 51.5t-65.5 23.5q-53 0 -102 -41t-60 -74l-36 31q18 106 91.5 167.5t162.5 61.5q51 0 87.5 -23.5t54 -51t47.5 -51t67 -23.5q53 0 102 41t59 73l37 -30q-18 -106 -92 -168t-164 -62zM1016 330l39 -39q-205 -311 -379 -311 q-61 0 -86 35.5t-2 93.5l172 428q25 61 37 99t14 63.5t-6 34.5t-29 9q-70 0 -233.5 -234.5t-274.5 -508.5h-198l229 645q33 92 -2 84q-51 -10 -178 -180l-37 39q203 307 371 307q59 0 78.5 -36t-5.5 -93l-157 -391h26q158 283 282 401.5t230 118.5q213 0 58 -369l-127 -297 q-39 -88 -2 -82q49 10 163 162q9 11 17 21z" glyph-name="ntilde" horiz-adv-x="1140" unicode="ñ"/><glyph d="M645 1014q-125 133 -254 219q16 49 70.5 89t103.5 40q96 -135 142 -309zM297 -20q-117 0 -187.5 62t-70.5 200q0 244 191.5 450.5t424.5 206.5q258 0 258 -260q0 -244 -191.5 -451.5t-424.5 -207.5zM365 43q84 0 164.5 120t123.5 267.5t43 251.5q0 74 -27.5 114t-74.5 40 q-84 0 -165 -113t-127 -258.5t-46 -255.5q0 -78 29 -122t80 -44z" glyph-name="ograve" horiz-adv-x="956" unicode="ò"/><glyph d="M649 1014l-61 39q45 174 141 309q49 0 103.5 -40t70.5 -89q-129 -86 -254 -219zM297 -20q-117 0 -187.5 62t-70.5 200q0 244 191.5 450.5t424.5 206.5q258 0 258 -260q0 -244 -191.5 -451.5t-424.5 -207.5zM365 43q84 0 164.5 120t123.5 267.5t43 251.5q0 74 -27.5 114 t-74.5 40q-84 0 -165 -113t-127 -258.5t-46 -255.5q0 -78 29 -122t80 -44z" glyph-name="oacute" horiz-adv-x="956" unicode="ó"/><glyph d="M803 1389l166 -308l-33 -32l-178 174l-289 -174l-20 30zM297 -20q-117 0 -187.5 62t-70.5 200q0 244 191.5 450.5t424.5 206.5q258 0 258 -260q0 -244 -191.5 -451.5t-424.5 -207.5zM365 43q84 0 164.5 120t123.5 267.5t43 251.5q0 74 -27.5 114t-74.5 40 q-84 0 -165 -113t-127 -258.5t-46 -255.5q0 -78 29 -122t80 -44z" glyph-name="ocircumflex" horiz-adv-x="956" unicode="ô"/><glyph d="M836 1040q-51 0 -88 23.5t-54.5 51.5t-46.5 51.5t-65 23.5q-53 0 -102.5 -41t-59.5 -74l-37 31q18 106 92 167.5t162 61.5q51 0 88 -23.5t54.5 -51t47 -51t66.5 -23.5q53 0 102 41t60 73l37 -30q-18 -106 -92 -168t-164 -62zM297 -20q-117 0 -187.5 62t-70.5 200 q0 244 191.5 450.5t424.5 206.5q258 0 258 -260q0 -244 -191.5 -451.5t-424.5 -207.5zM365 43q84 0 164.5 120t123.5 267.5t43 251.5q0 74 -27.5 114t-74.5 40q-84 0 -165 -113t-127 -258.5t-46 -255.5q0 -78 29 -122t80 -44z" glyph-name="otilde" horiz-adv-x="956" unicode="õ"/><glyph d="M471 1126q-53 0 -89 37t-36 88.5t37 87t88 35.5t87 -35.5t36 -87t-36 -88.5t-87 -37zM907 1126q-51 0 -88 37t-37 88.5t37 87t88 35.5t87 -35.5t36 -87t-36 -88.5t-87 -37zM297 -20q-117 0 -187.5 62t-70.5 200q0 244 191.5 450.5t424.5 206.5q258 0 258 -260 q0 -244 -191.5 -451.5t-424.5 -207.5zM365 43q84 0 164.5 120t123.5 267.5t43 251.5q0 74 -27.5 114t-74.5 40q-84 0 -165 -113t-127 -258.5t-46 -255.5q0 -78 29 -122t80 -44z" glyph-name="odieresis" horiz-adv-x="956" unicode="ö"/><glyph d="M551 711q-49 0 -84 34.5t-35 83.5q0 47 35 82t84 35q47 0 82 -34.5t35 -82.5q0 -49 -35 -83.5t-82 -34.5zM100 434l54 162h682l-54 -162h-682zM367 84q-49 0 -84 35t-35 84q0 47 34.5 81.5t84.5 34.5q47 0 81.5 -34.5t34.5 -81.5q0 -49 -34.5 -84t-81.5 -35z" glyph-name="divide" horiz-adv-x="886" unicode="÷"/><glyph d="M776 879q137 -55 137 -240q0 -244 -191.5 -451.5t-424.5 -207.5q-45 0 -78 8l-55 -88l-41 26l47 76q-131 59 -131 240q0 244 191.5 450.5t424.5 206.5q37 0 72 -6l70 111l41 -27zM256 209q0 -33 6 -62l406 650q-27 39 -74 39q-84 0 -165 -113t-127 -258t-46 -256zM365 43 q84 0 164.5 120t123.5 267.5t43 251.5q0 35 -6 59l-407 -651q29 -47 82 -47z" glyph-name="oslash" horiz-adv-x="956" unicode="ø"/><glyph d="M717 1014q-125 133 -254 219q16 49 70.5 89t103.5 40q96 -135 141 -309zM119 547l-37 39q205 309 375 309q63 0 88.5 -38t-0.5 -99l-168 -418q-25 -61 -37 -99t-13 -63.5t8 -36t30 -10.5q72 0 237.5 235.5t274.5 522.5h198l-233 -660q-33 -92 2 -84q49 10 174 183l39 -39 q-205 -309 -379 -309q-61 0 -84 35.5t2 93.5l160 395l-19 -2q-164 -293 -280.5 -407.5t-223.5 -114.5q-217 0 -61 366l127 297q39 90 2 82q-53 -10 -170 -162z" glyph-name="ugrave" horiz-adv-x="1142" unicode="ù"/><glyph d="M721 1014l-62 39q45 174 142 309q49 0 103 -40t71 -89q-129 -86 -254 -219zM119 547l-37 39q205 309 375 309q63 0 88.5 -38t-0.5 -99l-168 -418q-25 -61 -37 -99t-13 -63.5t8 -36t30 -10.5q72 0 237.5 235.5t274.5 522.5h198l-233 -660q-33 -92 2 -84q49 10 174 183 l39 -39q-205 -309 -379 -309q-61 0 -84 35.5t2 93.5l160 395l-19 -2q-164 -293 -280.5 -407.5t-223.5 -114.5q-217 0 -61 366l127 297q39 90 2 82q-53 -10 -170 -162z" glyph-name="uacute" horiz-adv-x="1142" unicode="ú"/><glyph d="M874 1389l166 -308l-32 -32l-179 174l-288 -174l-21 30zM119 547l-37 39q205 309 375 309q63 0 88.5 -38t-0.5 -99l-168 -418q-25 -61 -37 -99t-13 -63.5t8 -36t30 -10.5q72 0 237.5 235.5t274.5 522.5h198l-233 -660q-33 -92 2 -84q49 10 174 183l39 -39 q-205 -309 -379 -309q-61 0 -84 35.5t2 93.5l160 395l-19 -2q-164 -293 -280.5 -407.5t-223.5 -114.5q-217 0 -61 366l127 297q39 90 2 82q-53 -10 -170 -162z" glyph-name="ucircumflex" horiz-adv-x="1142" unicode="û"/><glyph d="M543 1126q-51 0 -88 37t-37 88.5t37 87t88 35.5t87 -35.5t36 -87t-36 -88.5t-87 -37zM979 1126q-53 0 -89 37t-36 88.5t37 87t88 35.5t87 -35.5t36 -87t-36 -88.5t-87 -37zM119 547l-37 39q205 309 375 309q63 0 88.5 -38t-0.5 -99l-168 -418q-25 -61 -37 -99t-13 -63.5 t8 -36t30 -10.5q72 0 237.5 235.5t274.5 522.5h198l-233 -660q-33 -92 2 -84q49 10 174 183l39 -39q-205 -309 -379 -309q-61 0 -84 35.5t2 93.5l160 395l-19 -2q-164 -293 -280.5 -407.5t-223.5 -114.5q-217 0 -61 366l127 297q39 90 2 82q-53 -10 -170 -162z" glyph-name="udieresis" horiz-adv-x="1142" unicode="ü"/><glyph d="M879 1233q-129 -86 -254 -219l-62 39q45 174 142 309q49 0 103.5 -40t70.5 -89zM727 881h317l-708 -895q-14 -18 -54 -70.5t-58.5 -74t-55.5 -63.5t-62.5 -61.5t-61.5 -44t-71.5 -34t-74.5 -9.5q-70 0 -121 32t-51 93q0 45 28.5 70.5t71.5 25.5q41 0 88 -39.5t86 -39.5 q43 0 93 43t138 163l39 687q6 100 -20.5 127.5t-106.5 37.5l17 52h317l-43 -666l365 459q49 61 50 94t-31 44t-107 17z" glyph-name="yacute" horiz-adv-x="960" unicode="ý"/><glyph d="M266 -8l-57 -166q-25 -74 -1.5 -96.5t114.5 -34.5l-15 -53h-502l17 53q78 16 118 41.5t64 93.5l318 905q-66 -31 -193 -100l-23 57q135 94 250 146l97 272q29 80 -1 110.5t-141 30.5l21 66l379 47l20 -31l-151 -436q18 2 51 2q164 0 260 -70.5t96 -214t-90 -279.5 t-258 -231.5t-373 -111.5zM565 801h-18l-258 -746q217 27 347 185.5t130 351.5q0 115 -50.5 162t-150.5 47z" glyph-name="thorn" horiz-adv-x="1032" unicode="þ"/><glyph d="M446 1126q-53 0 -88.5 37t-35.5 88.5t36.5 87t88 35.5t87 -35.5t35.5 -87t-36 -88.5t-87 -37zM882.5 1126q-51.5 0 -88 37t-36.5 88.5t36.5 87t88 35.5t87.5 -35.5t36 -87t-36 -88.5t-87.5 -37zM727 881h317l-708 -895q-14 -18 -54 -70.5t-58.5 -74t-55.5 -63.5 t-62.5 -61.5t-61.5 -44t-71.5 -34t-74.5 -9.5q-70 0 -121 32t-51 93q0 45 28.5 70.5t71.5 25.5q41 0 88 -39.5t86 -39.5q43 0 93 43t138 163l39 687q6 100 -20.5 127.5t-106.5 37.5l17 52h317l-43 -666l365 459q49 61 50 94t-31 44t-107 17z" glyph-name="ydieresis" horiz-adv-x="960" unicode="ÿ"/><glyph d="M795 1694h573l-31 -92h-573zM1071 174q4 -68 24.5 -86t94.5 -35l-14 -53h-533l16 57q43 8 64.5 14.5t49.5 19.5t40 36t10 55l-10 201h-455l-149 -213q-10 -14 -15.5 -25.5t-9.5 -19.5t-2 -16.5t1 -13.5t7.5 -10t10.5 -7t15 -7t16.5 -6.5t20.5 -6.5t21 -5l-16 -53h-356 l18 55q76 12 111 36t88 97l803 1117h79zM406 453h405l-27 540z" glyph-name="Amacron" horiz-adv-x="1335" unicode="Ā"/><glyph d="M496 1284h573l-31 -92h-573zM973 881l-225 -652q-31 -92 4 -82q47 12 174 183l37 -39q-205 -311 -369 -311q-66 0 -88.5 43t-1.5 104l69 201q-299 -348 -413 -348q-51 0 -91 52t-40 154q0 160 103.5 328t264 276.5t318.5 108.5q63 0 133 -18h125zM299 170q49 0 313 268 l117 334q-70 43 -127 43q-80 0 -167 -94t-141 -221t-54 -228q0 -102 59 -102z" glyph-name="amacron" horiz-adv-x="1048" unicode="ā"/><glyph d="M1350 1794h49q-45 -152 -137.5 -226.5t-212.5 -74.5q-133 0 -185.5 84t-7.5 219h49q-29 -154 164 -154q203 0 281 152zM1071 174q4 -68 24.5 -86t94.5 -35l-14 -53h-533l16 57q43 8 64.5 14.5t49.5 19.5t40 36t10 55l-10 201h-455l-149 -213q-10 -14 -15.5 -25.5 t-9.5 -19.5t-2 -16.5t1 -13.5t7.5 -10t10.5 -7t15 -7t16.5 -6.5t20.5 -6.5t21 -5l-16 -53h-356l18 55q76 12 111 36t88 97l803 1117h79zM406 453h405l-27 540z" glyph-name="Abreve" horiz-adv-x="1335" unicode="Ă"/><glyph d="M1051 1384h49q-45 -152 -137.5 -226.5t-212.5 -74.5q-133 0 -185.5 84t-7.5 219h49q-29 -154 164 -153q203 -1 281 151zM973 881l-225 -652q-31 -92 4 -82q47 12 174 183l37 -39q-205 -311 -369 -311q-66 0 -88.5 43t-1.5 104l69 201q-299 -348 -413 -348q-51 0 -91 52 t-40 154q0 160 103.5 328t264 276.5t318.5 108.5q63 0 133 -18h125zM299 170q49 0 313 268l117 334q-70 43 -127 43q-80 0 -167 -94t-141 -221t-54 -228q0 -102 59 -102z" glyph-name="abreve" horiz-adv-x="1048" unicode="ă"/><glyph d="M995 0q-158 -90 -157 -193q0 -47 25.5 -73.5t70.5 -26.5q39 0 88 17l-14 -41q-80 -70 -191 -70q-176 0 -176 145q0 84 59 150l150 92h-207l16 57q43 8 64.5 14.5t49.5 19.5t40 36t10 55l-10 201h-455l-149 -213q-10 -14 -15.5 -25.5t-9.5 -19.5t-2 -16.5t1 -13.5t7.5 -10 t10.5 -7t15 -7t16.5 -6.5t20.5 -6.5t21 -5l-16 -53h-356l18 55q76 12 111 36t88 97l803 1117h79l70 -1131q4 -68 24.5 -86t94.5 -35l-14 -53h-181zM406 453h405l-27 540z" glyph-name="Aogonek" horiz-adv-x="1335" unicode="Ą"/><glyph d="M748 229q-31 -92 4 -82q47 12 174 183l37 -39q-109 -164 -207 -244v-8q-92 -63 -128 -105.5t-36 -95.5t29.5 -86t80.5 -33q35 0 78 17v-41q-74 -70 -182 -70q-86 0 -142.5 42t-56.5 132q0 68 41 121l109 66q-39 14 -51.5 54t6.5 87l69 201q-299 -348 -413 -348 q-51 0 -91 52t-40 154q0 160 103.5 328t264 276.5t318.5 108.5q63 0 133 -18h125zM299 170q49 0 313 268l117 334q-70 43 -127 43q-80 0 -167 -94t-141 -221t-54 -228q0 -102 59 -102z" glyph-name="aogonek" horiz-adv-x="1060" unicode="ą"/><glyph d="M889 1423l-62 39q45 174 142 310q49 0 103 -40t71 -90q-129 -86 -254 -219zM606 -27q-223 0 -337.5 124t-114.5 335q0 221 116.5 426t318.5 334t429 129q229 0 328 -119l-66 -268h-68q12 156 -37 232.5t-176 76.5t-239.5 -78t-187 -196.5t-117.5 -258t-43 -266.5 q0 -168 78.5 -264t224.5 -96q201 0 336 121l30 -74q-78 -70 -205 -114t-270 -44z" glyph-name="Cacute" horiz-adv-x="1239" unicode="Ć"/><glyph d="M567 1014l-61 39q45 174 141 309q49 0 103.5 -40t70.5 -89q-129 -86 -254 -219zM606 899q100 0 153.5 -57.5t53.5 -139.5q0 -57 -27.5 -94t-74.5 -37q-102 0 -86 160q6 61 -4.5 80.5t-45.5 19.5q-78 0 -151.5 -79.5t-115.5 -190t-42 -209.5q0 -96 45 -151.5t115 -55.5 q55 0 123.5 35t116.5 99l28 -48q-63 -117 -178 -184t-217 -67q-109 0 -182.5 76.5t-73.5 207.5q0 143 83 292t216 246t264 97z" glyph-name="cacute" horiz-adv-x="821" unicode="ć"/><glyph d="M989.5 1450q-59.5 0 -104.5 43t-45 102.5t44 101.5t105.5 42t105.5 -42t44 -101.5t-45 -102.5t-104.5 -43zM606 -27q-223 0 -337.5 124t-114.5 335q0 221 116.5 426t318.5 334t429 129q229 0 328 -119l-66 -268h-68q12 156 -37 232.5t-176 76.5t-239.5 -78t-187 -196.5 t-117.5 -258t-43 -266.5q0 -168 78.5 -264t224.5 -96q201 0 336 121l30 -74q-78 -70 -205 -114t-270 -44z" glyph-name="Cdotaccent" horiz-adv-x="1239" unicode="Ċ"/><glyph d="M667.5 1040q-59.5 0 -104.5 43t-45 102.5t44 101.5t105.5 42t105.5 -42t44 -101.5t-45 -102.5t-104.5 -43zM606 899q100 0 153.5 -57.5t53.5 -139.5q0 -57 -27.5 -94t-74.5 -37q-102 0 -86 160q6 61 -4.5 80.5t-45.5 19.5q-78 0 -151.5 -79.5t-115.5 -190t-42 -209.5 q0 -96 45 -151.5t115 -55.5q55 0 123.5 35t116.5 99l28 -48q-63 -117 -178 -184t-217 -67q-109 0 -182.5 76.5t-73.5 207.5q0 143 83 292t216 246t264 97z" glyph-name="cdotaccent" horiz-adv-x="821" unicode="ċ"/><glyph d="M942 1456l-166 307l33 33l178 -174l289 174l20 -31zM606 -27q-223 0 -337.5 124t-114.5 335q0 221 116.5 426t318.5 334t429 129q229 0 328 -119l-66 -268h-68q12 156 -37 232.5t-176 76.5t-239.5 -78t-187 -196.5t-117.5 -258t-43 -266.5q0 -168 78.5 -264t224.5 -96 q201 0 336 121l30 -74q-78 -70 -205 -114t-270 -44z" glyph-name="Ccaron" horiz-adv-x="1239" unicode="Č"/><glyph d="M621 1047l-166 307l32 32l179 -174l288 174l21 -30zM606 899q100 0 153.5 -57.5t53.5 -139.5q0 -57 -27.5 -94t-74.5 -37q-102 0 -86 160q6 61 -4.5 80.5t-45.5 19.5q-78 0 -151.5 -79.5t-115.5 -190t-42 -209.5q0 -96 45 -151.5t115 -55.5q55 0 123.5 35t116.5 99 l28 -48q-63 -117 -178 -184t-217 -67q-109 0 -182.5 76.5t-73.5 207.5q0 143 83 292t216 246t264 97z" glyph-name="ccaron" horiz-adv-x="821" unicode="č"/><glyph d="M1380 1765l-354 -309l-166 307l33 33l178 -174l289 174zM874 1290q221 0 370 -111.5t149 -336.5q0 -332 -278.5 -587t-651.5 -255h-529l17 55q61 12 94 24.5t66.5 49.5t54.5 102l274 842q16 51 18.5 81t-17 46.5t-37 21.5t-64.5 15l14 53h520zM520 78q123 0 242 80 t203 202.5t135 270t51 280.5q0 301 -307 301h-113l-311 -952q-35 -106 -13.5 -144t113.5 -38z" glyph-name="Dcaron" horiz-adv-x="1386" unicode="Ď"/><glyph d="M1141 1333l-375 -1104q-31 -90 4 -82q47 10 172 183l39 -39q-205 -311 -379 -311q-61 0 -83.5 34.5t-2.5 94.5l88 253q-330 -383 -444 -382q-51 0 -91 52t-40 154q0 160 103.5 328t264 276.5t318.5 108.5q35 0 71 -6l76 217q29 80 -1 110.5t-140 30.5l22 66l377 47z M1219 1343q39 18 97 5t81 -52q-37 -143 -158 -321l-55 33q41 198 35 335zM299 170q57 0 340 297l104 297q-78 51 -141 51q-80 0 -167 -94t-141 -221t-54 -228q0 -102 59 -102z" glyph-name="dcaron" horiz-adv-x="1181" unicode="ď"/><glyph d="M944 1290q221 0 369.5 -111.5t148.5 -336.5q0 -332 -278.5 -587t-651.5 -255h-528l16 55q61 12 94 24.5t67 49.5t55 102l120 371l-225 -6l21 82l227 -6l131 401q16 51 18 81t-17 46.5t-36.5 21.5t-64.5 15l14 53h520zM590 78q123 0 241.5 80t202.5 202.5t135.5 270 t51.5 280.5q0 301 -308 301h-112l-176 -540l233 6l-20 -82l-238 6l-111 -342q-35 -106 -13 -144t114 -38z" glyph-name="Dcroat" horiz-adv-x="1456" unicode="Đ"/><glyph d="M1028 1001l-262 -772q-31 -90 4 -82q47 10 172 183l39 -39q-205 -311 -379 -311q-61 0 -83.5 34.5t-2.5 94.5l88 253q-330 -383 -444 -382q-51 0 -91 52t-40 154q0 160 103.5 328t264 276.5t318.5 108.5q35 0 71 -6l39 111q-170 0 -340 -7l21 82q172 -6 344 -6l12 37 q29 80 -1 110.5t-140 30.5l22 66l377 47l21 -31l-88 -258q53 0 159 4l-20 -82q-111 4 -164 4zM299 170q57 0 340 297l104 297q-78 51 -141 51q-80 0 -167 -94t-141 -221t-54 -228q0 -102 59 -102z" glyph-name="dcroat" horiz-adv-x="1071" unicode="đ"/><glyph d="M1280 1694l-31 -92h-573l31 92h573zM354 1290h942l-84 -299h-53q31 119 11.5 169t-117.5 50h-146q-104 0 -152 -34.5t-83 -139.5l-113 -346h117q156 0 218 42t105 147h48l-142 -439h-47q27 111 -3 141.5t-191 30.5h-129l-127 -391q-18 -53 -21.5 -79.5t14 -42t42 -17.5 t85.5 -2h107q106 0 188 57.5t178 192.5h66l-186 -330h-947l17 55q61 12 94 24.5t66.5 49.5t54.5 102l274 842q16 51 18.5 81t-17 46.5t-37 21.5t-64.5 15z" glyph-name="Emacron" horiz-adv-x="1191" unicode="Ē"/><glyph d="M385 1284h573l-30 -92h-574zM633 899q90 0 132 -43t42 -113q0 -248 -539 -362q-4 -41 -4 -59q0 -80 37 -128.5t109 -48.5q133 0 231 123l31 -43q-70 -119 -180.5 -181t-210.5 -62q-109 0 -175.5 74.5t-66.5 199.5q0 225 194.5 434t399.5 209zM281 444q166 35 249.5 111 t83.5 166q0 96 -69 96q-78 0 -154.5 -116t-109.5 -257z" glyph-name="emacron" horiz-adv-x="808" unicode="ē"/><glyph d="M979 1450q-59 0 -104.5 43t-45.5 102.5t44.5 101.5t105.5 42t105 -42t44 -101.5t-45 -102.5t-104 -43zM354 1290h942l-84 -299h-53q31 119 11.5 169t-117.5 50h-146q-104 0 -152 -34.5t-83 -139.5l-113 -346h117q156 0 218 42t105 147h48l-142 -439h-47q27 111 -3 141.5 t-191 30.5h-129l-127 -391q-18 -53 -21.5 -79.5t14 -42t42 -17.5t85.5 -2h107q106 0 188 57.5t178 192.5h66l-186 -330h-947l17 55q61 12 94 24.5t66.5 49.5t54.5 102l274 842q16 51 18.5 81t-17 46.5t-37 21.5t-64.5 15z" glyph-name="Edotaccent" horiz-adv-x="1191" unicode="Ė"/><glyph d="M657.5 1040q-59.5 0 -104.5 43t-45 102.5t44 101.5t105.5 42t105.5 -42t44 -101.5t-45 -102.5t-104.5 -43zM633 899q90 0 132 -43t42 -113q0 -248 -539 -362q-4 -41 -4 -59q0 -80 37 -128.5t109 -48.5q133 0 231 123l31 -43q-70 -119 -180.5 -181t-210.5 -62 q-109 0 -175.5 74.5t-66.5 199.5q0 225 194.5 434t399.5 209zM281 444q166 35 249.5 111t83.5 166q0 96 -69 96q-78 0 -154.5 -116t-109.5 -257z" glyph-name="edotaccent" horiz-adv-x="808" unicode="ė"/><glyph d="M354 1290h942l-84 -299h-53q31 119 11.5 169t-117.5 50h-146q-104 0 -152 -34.5t-83 -139.5l-113 -346h117q156 0 218 42t105 147h48l-142 -439h-47q27 111 -3 141.5t-191 30.5h-129l-127 -391q-18 -53 -21.5 -79.5t14 -42t42 -17.5t85.5 -2h107q106 0 188 57.5 t178 192.5h66l-186 -330h-103q-158 -90 -157 -193q0 -47 25.5 -73.5t70.5 -26.5q39 0 88 17l-14 -41q-80 -70 -191 -70q-176 0 -176 145q0 84 59 150l150 92h-699l17 55q61 12 94 24.5t66.5 49.5t54.5 102l274 842q16 51 18.5 81t-17 46.5t-37 21.5t-64.5 15z" glyph-name="Eogonek" horiz-adv-x="1191" unicode="Ę"/><glyph d="M807 743q0 -248 -539 -362q-4 -41 -4 -59q0 -80 37 -128.5t109 -48.5q133 0 231 123l31 -43q-92 -160 -264 -221q-166 -92 -166 -197q0 -47 25.5 -73.5t70.5 -26.5q39 0 88 17l-14 -41q-80 -70 -191 -70q-176 0 -176 145q0 84 59 150l127 78q-88 16 -140 88.5t-52 181.5 q0 225 194.5 434t399.5 209q90 0 132 -43t42 -113zM545 817q-78 0 -155 -115.5t-109 -257.5q166 35 249.5 111t83.5 166q1 96 -69 96z" glyph-name="eogonek" horiz-adv-x="808" unicode="ę"/><glyph d="M1286 1765l-354 -309l-166 307l33 33l178 -174l289 174zM354 1290h942l-84 -299h-53q31 119 11.5 169t-117.5 50h-146q-104 0 -152 -34.5t-83 -139.5l-113 -346h117q156 0 218 42t105 147h48l-142 -439h-47q27 111 -3 141.5t-191 30.5h-129l-127 -391 q-18 -53 -21.5 -79.5t14 -42t42 -17.5t85.5 -2h107q106 0 188 57.5t178 192.5h66l-186 -330h-947l17 55q61 12 94 24.5t66.5 49.5t54.5 102l274 842q16 51 18.5 81t-17 46.5t-37 21.5t-64.5 15z" glyph-name="Ecaron" horiz-adv-x="1191" unicode="Ě"/><glyph d="M965 1356l-355 -309l-166 307l33 32l178 -174l289 174zM633 899q90 0 132 -43t42 -113q0 -248 -539 -362q-4 -41 -4 -59q0 -80 37 -128.5t109 -48.5q133 0 231 123l31 -43q-70 -119 -180.5 -181t-210.5 -62q-109 0 -175.5 74.5t-66.5 199.5q0 225 194.5 434t399.5 209z M281 444q166 35 249.5 111t83.5 166q0 96 -69 96q-78 0 -154.5 -116t-109.5 -257z" glyph-name="ecaron" horiz-adv-x="808" unicode="ě"/><glyph d="M1047 1493q-133 0 -185.5 84t-7.5 219h49q-29 -154 164 -154q203 0 281 152h49q-45 -152 -137 -226.5t-213 -74.5zM643 -27q-242 0 -366.5 121t-124.5 330q0 168 73.5 332t194.5 287.5t286.5 200.5t337.5 77q242 0 340 -119q-12 -51 -35.5 -145t-31.5 -123h-68 q20 172 -41 240.5t-188 68.5q-131 0 -250 -85t-200 -217t-128 -287.5t-47 -297.5q0 -145 63.5 -224t188.5 -79q104 0 168 58.5t103 179.5l22 69q39 135 15.5 168t-144.5 43l16 60h537l-21 -64q-135 -18 -178 -157l-35 -109q-49 -152 -45 -238q-70 -35 -192.5 -62.5 t-249.5 -27.5z" glyph-name="Gbreve" horiz-adv-x="1390" unicode="Ğ"/><glyph d="M702 1083q-133 0 -185 84t-7 219h49q-29 -154 164 -153q203 0 281 151h49q-45 -152 -137.5 -226.5t-213.5 -74.5zM727 862q39 -10 297 -10l-35 -141l-176 53q14 -35 14 -86q0 -152 -132 -258.5t-298 -106.5q-53 0 -94 13q-63 -18 -63 -54q0 -31 57 -53l174 -72 q80 -33 113.5 -48t73.5 -41.5t53.5 -55.5t13.5 -68q0 -102 -89 -177.5t-212 -110.5t-250 -35q-170 0 -245.5 62.5t-71.5 148.5q2 39 59 88t105.5 76.5t132.5 72.5q-68 31 -96.5 61t-28.5 73q0 45 62.5 89t141.5 74q-82 59 -81 172q0 150 132 259.5t298 109.5q86 0 145 -35z M412 365q90 0 159.5 131t69.5 249q0 100 -72 101q-88 0 -158.5 -129t-70.5 -252q0 -100 72 -100zM535 -154q0 39 -31 61.5t-117 57.5l-156 62q-84 -53 -143 -116t-61 -110q-2 -53 40 -90t154 -37q127 0 220.5 50t93.5 122z" glyph-name="gbreve" horiz-adv-x="968" unicode="ğ"/><glyph d="M1065 1450q-59 0 -104.5 43t-45.5 102.5t44.5 101.5t105.5 42t105 -42t44 -101.5t-45 -102.5t-104 -43zM643 -27q-242 0 -366.5 121t-124.5 330q0 168 73.5 332t194.5 287.5t286.5 200.5t337.5 77q242 0 340 -119q-12 -51 -35.5 -145t-31.5 -123h-68q20 172 -41 240.5 t-188 68.5q-131 0 -250 -85t-200 -217t-128 -287.5t-47 -297.5q0 -145 63.5 -224t188.5 -79q104 0 168 58.5t103 179.5l22 69q39 135 15.5 168t-144.5 43l16 60h537l-21 -64q-135 -18 -178 -157l-35 -109q-49 -152 -45 -238q-70 -35 -192.5 -62.5t-249.5 -27.5z" glyph-name="Gdotaccent" horiz-adv-x="1390" unicode="Ġ"/><glyph d="M721 1040q-59 0 -104.5 43t-45.5 102.5t44 101.5t105.5 42t105.5 -42t44 -101.5t-45 -102.5t-104 -43zM1024 852l-35 -141l-176 53q14 -35 14 -86q0 -152 -132 -258.5t-298 -106.5q-53 0 -94 13q-63 -18 -63 -54q0 -31 57 -53l174 -72q80 -33 113.5 -48t73.5 -41.5 t53.5 -55.5t13.5 -68q0 -102 -89 -177.5t-212 -110.5t-250 -35q-170 0 -245.5 62.5t-71.5 148.5q2 39 59 88t105.5 76.5t132.5 72.5q-68 31 -96.5 61t-28.5 73q0 45 62.5 89t141.5 74q-82 59 -81 172q0 150 132 259.5t298 109.5q86 0 145 -35q39 -10 297 -10zM412 365 q90 0 159.5 131t69.5 249q0 100 -72 101q-88 0 -158.5 -129t-70.5 -252q0 -100 72 -100zM535 -154q0 39 -31 61.5t-117 57.5l-156 62q-84 -53 -143 -116t-61 -110q-2 -53 40 -90t154 -37q127 0 220.5 50t93.5 122z" glyph-name="gdotaccent" horiz-adv-x="968" unicode="ġ"/><glyph d="M643 -27q-242 0 -366.5 121t-124.5 330q0 168 73.5 332t194.5 287.5t286.5 200.5t337.5 77q242 0 340 -119q-12 -51 -35.5 -145t-31.5 -123h-68q20 172 -41 240.5t-188 68.5q-131 0 -250 -85t-200 -217t-128 -287.5t-47 -297.5q0 -145 63.5 -224t188.5 -79 q104 0 168 58.5t103 179.5l22 69q39 135 15.5 168t-144.5 43l16 60h537l-21 -64q-135 -18 -178 -157l-35 -109q-49 -152 -45 -238q-70 -35 -192.5 -62.5t-249.5 -27.5zM229 -707l-18 56q164 55 209 182q16 49 -25 76q-80 53 -80 125q0 61 45.5 105t108.5 44t105 -45t42 -125 q0 -129 -107.5 -256t-279.5 -162z" glyph-name="Gcommaaccent" horiz-adv-x="1390" unicode="Ģ"/><glyph d="M636.5 1047q-63.5 0 -105.5 45t-42 125q0 129 108 255.5t280 161.5l18 -55q-164 -55 -209 -182q-16 -49 25 -76q80 -53 80 -125q0 -61 -45.5 -105t-109 -44zM1024 852l-35 -141l-176 53q14 -35 14 -86q0 -152 -132 -258.5t-298 -106.5q-53 0 -94 13q-63 -18 -63 -54 q0 -31 57 -53l174 -72q80 -33 113.5 -48t73.5 -41.5t53.5 -55.5t13.5 -68q0 -102 -89 -177.5t-212 -110.5t-250 -35q-170 0 -245.5 62.5t-71.5 148.5q2 39 59 88t105.5 76.5t132.5 72.5q-68 31 -96.5 61t-28.5 73q0 45 62.5 89t141.5 74q-82 59 -81 172q0 150 132 259.5 t298 109.5q86 0 145 -35q39 -10 297 -10zM412 365q90 0 159.5 131t69.5 249q0 100 -72 101q-88 0 -158.5 -129t-70.5 -252q0 -100 72 -100zM535 -154q0 39 -31 61.5t-117 57.5l-156 62q-84 -53 -143 -116t-61 -110q-2 -53 40 -90t154 -37q127 0 220.5 50t93.5 122z" glyph-name="gcommaaccent" horiz-adv-x="968" unicode="ģ"/><glyph d="M1120 1290h561l-18 -55q-47 -10 -72.5 -17.5t-56.5 -25.5t-51.5 -51t-36.5 -82l-275 -842q-16 -51 -18 -81t17.5 -46t38 -22.5t63.5 -16.5l-15 -51h-550l14 53q88 16 134 50t77 128l121 373h-525l-127 -387q-16 -51 -18 -81t17.5 -46t38 -22.5t63.5 -16.5l-15 -51h-550 l14 53q88 16 134 50t77 128l274 842q16 51 18.5 81t-17 46.5t-37 21.5t-64.5 15l14 53h561l-18 -55q-47 -10 -72.5 -17.5t-56.5 -25.5t-51.5 -51t-36.5 -82l-51 -158h526l55 172q16 51 18.5 81t-17 46.5t-37 21.5t-64.5 15zM553 682h526l45 141h-524z" glyph-name="Hbar" horiz-adv-x="1474" unicode="Ħ"/><glyph d="M893 899q80 0 133 -47t47 -143q-6 -121 -94 -294t-210 -303t-214 -130q-47 0 -91 27.5t-44 80.5q0 37 25.5 62.5t60.5 25.5t49 -32.5t19.5 -65.5t15.5 -33q68 0 149.5 236.5t89.5 375.5q4 76 -10 97.5t-43 21.5q-117 0 -269.5 -233.5t-256.5 -544.5h-207l344 1001 q-63 0 -186 -4l20 82q127 -4 191 -4l12 35q29 80 -1 110.5t-140 30.5l20 66l379 47l20 -31l-84 -260q156 0 310 6l-21 -82q-158 6 -313 7l-88 -273l-141 -293l12 2q268 459 516 459z" glyph-name="hbar" horiz-adv-x="1079" unicode="ħ"/><glyph d="M430 1602l31 92h573l-30 -92h-574zM-63 0l14 53q88 16 134 50t77 128l274 842q16 51 18.5 81t-17 46.5t-37 21.5t-64.5 15l14 53h561l-18 -55q-47 -10 -72.5 -17.5t-56.5 -25.5t-51.5 -51t-36.5 -82l-275 -842q-16 -51 -18 -81t17.5 -46t38 -22.5t63.5 -16.5l-15 -51 h-550z" glyph-name="Imacron" horiz-adv-x="704" unicode="Ī"/><glyph d="M246 1192l30 92h574l-31 -92h-573zM504 326l39 -39q-207 -307 -369 -307q-68 0 -91.5 45t1.5 102l211 514q35 88 0 82q-51 -10 -172 -172q-4 -2 -6 -6l-37 39q203 307 366 307q68 0 92.5 -44t0.5 -104l-211 -514q-37 -90 -2 -82q51 8 172 170q4 5 6 9z" glyph-name="imacron" horiz-adv-x="630" unicode="ī"/><glyph d="M350 1290h561l-18 -55q-47 -10 -72.5 -17.5t-56.5 -25.5t-51.5 -51t-36.5 -82l-275 -842q-16 -51 -18 -81t17.5 -46t38 -22.5t63.5 -16.5l-15 -51h-170q-158 -90 -157 -193q0 -47 25.5 -73.5t70.5 -26.5q39 0 88 17l-14 -41q-80 -70 -191 -70q-176 0 -176 145 q0 84 60 150l149 92h-235l14 53q88 16 134 50t77 128l274 842q16 51 18.5 81t-17 46.5t-37 21.5t-64.5 15z" glyph-name="Iogonek" horiz-adv-x="704" unicode="Į"/><glyph d="M548.5 1329q61.5 0 105.5 -42t44 -101.5t-45 -102.5t-104.5 -43t-104.5 43t-45 102.5t44 101.5t105.5 42zM539 743l-211 -514q-37 -90 -2 -82q51 8 172 170q4 4 6 9l39 -39q-158 -231 -287 -289q-154 -90 -154 -191q0 -47 26 -73.5t71 -26.5q39 0 88 17l-15 -41 q-80 -70 -190 -70q-176 0 -176 145q0 84 59 150l144 88q-61 43 -25 131l211 514q35 88 0 82q-51 -10 -172 -172q-4 -2 -6 -6l-37 39q203 307 366 307q68 0 93 -44.5t0 -103.5z" glyph-name="iogonek" horiz-adv-x="630" unicode="į"/><glyph d="M733.5 1450q-59.5 0 -104.5 43t-45 102.5t44 101.5t105.5 42t105.5 -42t44 -101.5t-45 -102.5t-104.5 -43zM-63 0l14 53q88 16 134 50t77 128l274 842q16 51 18.5 81t-17 46.5t-37 21.5t-64.5 15l14 53h561l-18 -55q-47 -10 -72.5 -17.5t-56.5 -25.5t-51.5 -51t-36.5 -82 l-275 -842q-16 -51 -18 -81t17.5 -46t38 -22.5t63.5 -16.5l-15 -51h-550z" glyph-name="Idotaccent" horiz-adv-x="704" unicode="İ"/><glyph d="M504 326l39 -39q-207 -307 -369 -307q-68 0 -91.5 45t1.5 102l211 514q35 88 0 82q-51 -10 -172 -172q-4 -2 -6 -6l-37 39q203 307 366 307q68 0 92.5 -44t0.5 -104l-211 -514q-37 -90 -2 -82q51 8 172 170q4 5 6 9z" glyph-name="dotlessi" horiz-adv-x="630" unicode="ı"/><glyph d="M-63 0l14 53q88 16 134 50t77 128l274 842q16 51 18.5 81t-17 46.5t-37 21.5t-64.5 15l14 53h561l-18 -55q-47 -10 -72.5 -17.5t-56.5 -25.5t-51.5 -51t-36.5 -82l-275 -842q-16 -51 -18 -81t17.5 -46t38 -22.5t63.5 -16.5l-15 -51h-550zM467 -371l22 78 q137 37 198 106.5t112 229.5l334 1030q16 51 18 81t-18.5 46.5t-38 21.5t-66.5 15l14 53h568l-17 -55q-49 -8 -76.5 -16.5t-57 -26.5t-50 -50t-37.5 -83l-346 -1069q-59 -180 -205.5 -259t-353.5 -102z" glyph-name="IJ" horiz-adv-x="1392" unicode="Ĳ"/><glyph d="M536.5 1096q-57.5 0 -100.5 41t-43 96t43 96t100.5 41t100.5 -41t43 -96t-43 -96t-100.5 -41zM1206.5 1096q-57.5 0 -100.5 41t-43 96t43 96t100.5 41t100.5 -41t43 -96t-43 -96t-100.5 -41zM500 326l39 -39q-207 -307 -369 -307q-68 0 -92.5 45t2.5 102l217 514 q37 90 0 80q-53 -10 -170 -162q-4 -8 -10 -14l-37 39q203 307 366 307q68 0 94.5 -45t0.5 -103l-217 -514q-37 -90 -2 -82q51 8 172 170q4 5 6 9zM1114 891q66 0 89.5 -44t0.5 -112l-192 -583q-84 -258 -198 -384t-269 -126q-100 0 -152.5 47t-52.5 116q0 53 31.5 87 t79.5 34q109 0 79 -155q-12 -66 47.5 -66t90 57.5t90.5 237.5l207 641q29 92 -7 82q-49 -14 -172 -178l-36 39q202 307 364 307z" glyph-name="ij" unicode="ĳ"/><glyph d="M1507 1233q-92 0 -153.5 -28.5t-130.5 -84.5l-416 -332l285 -618q29 -66 66.5 -90.5t117.5 -26.5l-16 -53h-406q23 88 -6 154l-221 493l-115 -92l-111 -338q-16 -51 -18 -81t17.5 -46t38 -22.5t63.5 -16.5l-15 -51h-550l14 53q88 16 134 50t77 128l274 842q16 51 18.5 81 t-17 46.5t-37 21.5t-64.5 15l14 53h561l-18 -55q-47 -10 -72.5 -17.5t-56.5 -25.5t-51.5 -51t-36.5 -82l-123 -377l575 459q117 92 -45 92l17 57h426zM497.5 -119q63.5 0 105.5 -45t42 -125q0 -129 -107.5 -256t-279.5 -162l-18 56q164 55 209 182q16 49 -25 76 q-80 53 -80 125q0 61 45 105t108.5 44z" glyph-name="Kcommaaccent" horiz-adv-x="1409" unicode="Ķ"/><glyph d="M37 0l383 1110q29 80 -1 110.5t-140 30.5l20 66l379 47l20 -31l-454 -1333h-207zM1118 827q-82 -6 -146.5 -38.5t-164.5 -106.5l-150 -111l119 -381q45 -143 170 -34l15 -47q-131 -129 -234 -129q-109 0 -154 151l-110 387l268 195q139 102 -14 114l16 54h404zM88 -707 l-18 56q164 55 209 182q16 49 -25 76q-80 53 -80 125q0 61 45 105t108.5 44t105.5 -45t42 -125q0 -129 -107.5 -256t-279.5 -162z" glyph-name="kcommaaccent" horiz-adv-x="1085" unicode="ķ"/><glyph d="M610 1423l-61 39q45 174 141 310q49 0 103.5 -40t70.5 -90q-129 -86 -254 -219zM-66 0l17 55q61 12 94 24.5t66.5 49.5t54.5 102l274 842q16 51 18.5 81t-17 46.5t-37 21.5t-64.5 15l14 53h572l-19 -55q-68 -12 -102.5 -24.5t-68.5 -49.5t-56 -102l-272 -836 q-29 -92 -6.5 -116.5t126.5 -24.5h113q109 0 191.5 57.5t179.5 202.5l57 -14l-180 -328h-955z" glyph-name="Lacute" horiz-adv-x="1142" unicode="Ĺ"/><glyph d="M526 1423l-61 39q45 174 141 310q49 0 103.5 -40t70.5 -90q-129 -86 -254 -219zM322 229q-31 -90 4 -82q47 10 172 183l39 -39q-205 -311 -379 -311q-61 0 -84 34.5t-2 94.5l346 1001q29 80 -1 110.5t-141 30.5l23 66l377 47l20 -31z" glyph-name="lacute" horiz-adv-x="612" unicode="ĺ"/><glyph d="M-66 0l17 55q61 12 94 24.5t66.5 49.5t54.5 102l274 842q16 51 18.5 81t-17 46.5t-37 21.5t-64.5 15l14 53h572l-19 -55q-68 -12 -102.5 -24.5t-68.5 -49.5t-56 -102l-272 -836q-29 -92 -6.5 -116.5t126.5 -24.5h113q109 0 191.5 57.5t179.5 202.5l57 -14l-180 -328h-955 zM135 -707l-18 56q164 55 209 182q16 49 -25 76q-80 53 -80 125q0 61 45 105t108.5 44t105.5 -45t42 -125q0 -129 -107.5 -256t-279.5 -162z" glyph-name="Lcommaaccent" horiz-adv-x="1142" unicode="Ļ"/><glyph d="M322 229q-31 -90 4 -82q47 10 172 183l39 -39q-205 -311 -379 -311q-61 0 -84 34.5t-2 94.5l346 1001q29 80 -1 110.5t-141 30.5l23 66l377 47l20 -31zM-145 -707l-19 56q164 55 209 182q16 49 -25 76q-80 53 -79 125q0 61 45 105t108.5 44t105.5 -45t42 -125 q0 -129 -107.5 -256t-279.5 -162z" glyph-name="lcommaaccent" horiz-adv-x="612" unicode="ļ"/><glyph d="M905 723l-18 55q164 55 209 183q16 49 -25 75q-80 53 -80 125q0 61 45 105.5t108.5 44.5t105.5 -45t42 -125q0 -129 -107.5 -256t-279.5 -162zM-66 0l17 55q61 12 94 24.5t66.5 49.5t54.5 102l274 842q16 51 18.5 81t-17 46.5t-37 21.5t-64.5 15l14 53h572l-19 -55 q-68 -12 -102.5 -24.5t-68.5 -49.5t-56 -102l-272 -836q-29 -92 -6.5 -116.5t126.5 -24.5h113q109 0 191.5 57.5t179.5 202.5l57 -14l-180 -328h-955z" glyph-name="Lcaron" horiz-adv-x="1142" unicode="Ľ"/><glyph d="M782 995l-55 33q41 199 35 336q39 18 97.5 5t80.5 -52q-37 -144 -158 -322zM322 229q-31 -90 4 -82q47 10 172 183l39 -39q-205 -311 -379 -311q-61 0 -84 34.5t-2 94.5l346 1001q29 80 -1 110.5t-141 30.5l23 66l377 47l20 -31z" glyph-name="lcaron" horiz-adv-x="675" unicode="ľ"/><glyph d="M-66 0l17 55q61 12 94 24.5t66.5 49.5t54.5 102l274 842q16 51 18.5 81t-17 46.5t-37 21.5t-64.5 15l14 53h572l-19 -55q-68 -12 -102.5 -24.5t-68.5 -49.5t-56 -102l-272 -836q-29 -92 -6.5 -116.5t126.5 -24.5h113q109 0 191.5 57.5t179.5 202.5l57 -14l-180 -328h-955 zM850 489q-61 0 -105.5 43t-44.5 107q0 59 44 102t106 43q59 0 103 -43t44 -102q0 -61 -44 -105.5t-103 -44.5z" glyph-name="Ldot" horiz-adv-x="1142" unicode="Ŀ"/><glyph d="M322 229q-31 -90 4 -82q47 10 172 183l39 -39q-205 -311 -379 -311q-61 0 -84 34.5t-2 94.5l346 1001q29 80 -1 110.5t-141 30.5l23 66l377 47l20 -31zM782.5 543q-61.5 0 -105.5 43t-44 106q0 59 44 102.5t105 43.5q59 0 103.5 -43t44.5 -103q0 -61 -43 -105t-104.5 -44 z" glyph-name="ldot" horiz-adv-x="831" unicode="ŀ"/><glyph d="M1092 342l57 -14l-180 -328h-955l17 55q61 12 94 24.5t66.5 49.5t54.5 102l131 402q-94 -33 -236 -88v100q123 35 267 80l112 348q16 51 18.5 81t-17 46.5t-37 21.5t-64.5 15l14 53h572l-19 -55q-68 -12 -102.5 -24.5t-68.5 -49.5t-56 -102l-78 -240q74 27 221 84v-100 q-168 -49 -252 -76l-164 -504q-29 -92 -6 -116.5t127 -24.5h113q109 0 192 57.5t179 202.5z" glyph-name="Lslash" horiz-adv-x="1222" unicode="Ł"/><glyph d="M696 1333l-186 -549l125 52v-97q-53 -14 -156 -47l-157 -463q-31 -90 4 -82q47 10 172 183l39 -39q-205 -311 -379 -311q-61 0 -84 34.5t-2 94.5l172 499q-23 -8 -48.5 -18t-57.5 -23.5t-48 -19.5v96q143 43 186 57l142 410q29 80 -1 110.5t-141 30.5l23 66l377 47z" glyph-name="lslash" horiz-adv-x="612" unicode="ł"/><glyph d="M1225 1642q-129 -86 -254 -219l-62 39q45 174 142 310q49 0 103.5 -40.5t70.5 -89.5zM1161 1290h412l-17 -53q-88 -14 -138 -49t-81 -129l-344 -1059h-100l-361 1094l-286 -877q-14 -41 -15.5 -68.5t4 -44t27 -26.5t39.5 -15.5t57 -11.5l-14 -51h-410l15 53q88 14 138 49 t81 129l274 842q12 41 13.5 68.5t-0.5 42t-25.5 27t-35 15.5t-50.5 11l12 53h373l297 -913l234 696q14 41 15 68.5t-4 44t-26.5 27t-40 15.5t-57.5 11z" glyph-name="Nacute" horiz-adv-x="1345" unicode="Ń"/><glyph d="M719 1014l-62 39q45 174 142 309q49 0 103 -40t71 -89q-129 -86 -254 -219zM1016 330l39 -39q-205 -311 -379 -311q-61 0 -86 35.5t-2 93.5l172 428q25 61 37 99t14 63.5t-6 34.5t-29 9q-70 0 -233.5 -234.5t-274.5 -508.5h-198l229 645q33 92 -2 84q-51 -10 -178 -180 l-37 39q203 307 371 307q59 0 78.5 -36t-5.5 -93l-157 -391h26q158 283 282 401.5t230 118.5q213 0 58 -369l-127 -297q-39 -88 -2 -82q49 10 163 162q9 11 17 21z" glyph-name="nacute" horiz-adv-x="1140" unicode="ń"/><glyph d="M1161 1290h412l-17 -53q-88 -14 -138 -49t-81 -129l-344 -1059h-100l-361 1094l-286 -877q-14 -41 -15.5 -68.5t4 -44t27 -26.5t39.5 -15.5t57 -11.5l-14 -51h-410l15 53q88 14 138 49t81 129l274 842q12 41 13.5 68.5t-0.5 42t-25.5 27t-35 15.5t-50.5 11l12 53h373 l297 -913l234 696q14 41 15 68.5t-4 44t-26.5 27t-40 15.5t-57.5 11zM475.5 -119q63.5 0 105.5 -45t42 -125q0 -129 -107.5 -256t-279.5 -162l-19 56q164 55 209 182q16 49 -25 76q-80 53 -79 125q0 61 45 105t108.5 44z" glyph-name="Ncommaaccent" horiz-adv-x="1345" unicode="Ņ"/><glyph d="M1016 330l39 -39q-205 -311 -379 -311q-61 0 -86 35.5t-2 93.5l172 428q25 61 37 99t14 63.5t-6 34.5t-29 9q-70 0 -233.5 -234.5t-274.5 -508.5h-198l229 645q33 92 -2 84q-51 -10 -178 -180l-37 39q203 307 371 307q59 0 78.5 -36t-5.5 -93l-157 -391h26 q158 283 282 401.5t230 118.5q213 0 58 -369l-127 -297q-39 -88 -2 -82q49 10 163 162q9 11 17 21zM117 -707l-19 56q164 55 209 182q16 49 -24 76q-80 53 -80 125q0 61 45 105t108.5 44t105.5 -45t42 -125q0 -129 -107.5 -256t-279.5 -162z" glyph-name="ncommaaccent" horiz-adv-x="1140" unicode="ņ"/><glyph d="M1378 1765l-354 -309l-166 307l33 33l178 -174l289 174zM1161 1290h412l-17 -53q-88 -14 -138 -49t-81 -129l-344 -1059h-100l-361 1094l-286 -877q-14 -41 -15.5 -68.5t4 -44t27 -26.5t39.5 -15.5t57 -11.5l-14 -51h-410l15 53q88 14 138 49t81 129l274 842 q12 41 13.5 68.5t-0.5 42t-25.5 27t-35 15.5t-50.5 11l12 53h373l297 -913l234 696q14 41 15 68.5t-4 44t-26.5 27t-40 15.5t-57.5 11z" glyph-name="Ncaron" horiz-adv-x="1345" unicode="Ň"/><glyph d="M772 1047l-166 307l33 32l178 -174l289 174l20 -30zM1016 330l39 -39q-205 -311 -379 -311q-61 0 -86 35.5t-2 93.5l172 428q25 61 37 99t14 63.5t-6 34.5t-29 9q-70 0 -233.5 -234.5t-274.5 -508.5h-198l229 645q33 92 -2 84q-51 -10 -178 -180l-37 39q203 307 371 307 q59 0 78.5 -36t-5.5 -93l-157 -391h26q158 283 282 401.5t230 118.5q213 0 58 -369l-127 -297q-39 -88 -2 -82q49 10 163 162q9 11 17 21z" glyph-name="ncaron" horiz-adv-x="1140" unicode="ň"/><glyph d="M1161 1290h412l-17 -53q-88 -14 -138 -49t-81 -129l-243 -750h2l-103 -319q-31 -94 -89 -163t-139 -106.5t-151.5 -56t-167.5 -33.5q-16 29 7 76q137 37 200.5 107.5t112.5 228.5l55 174l-289 877l-286 -877q-14 -41 -15.5 -68.5t4 -44t27 -26.5t39.5 -15.5t57 -11.5 l-14 -51h-410l15 53q88 14 138 49t81 129l274 842q12 41 13.5 68.5t-0.5 42t-25.5 27t-35 15.5t-50.5 11l12 53h373l297 -913l234 696q14 41 15 68.5t-4 44t-26.5 27t-40 15.5t-57.5 11z" glyph-name="Eng" horiz-adv-x="1345" unicode="Ŋ"/><glyph d="M907 895q59 0 89 -27.5t31 -81t-12.5 -115t-43.5 -145.5l-133 -374q-92 -258 -200 -384t-253 -126q-109 0 -163 47t-54 116q0 53 31.5 87t79.5 34q109 0 79 -155q-12 -66 48 -66q57 0 87.5 55.5t88.5 225.5q2 10 4 14l180 537q23 68 33 102.5t12 61t-6 34.5t-29 8 q-70 0 -233.5 -234.5t-274.5 -508.5h-198l229 645q33 92 -2 84q-51 -10 -178 -180l-37 39q203 307 371 307q59 0 78.5 -36t-5.5 -93l-157 -391h26q158 283 282 401.5t230 118.5z" glyph-name="eng" horiz-adv-x="1062" unicode="ŋ"/><glyph d="M791 1602l30 92h574l-31 -92h-573zM573 -27q-199 0 -312.5 119t-113.5 318q0 223 117 434t313.5 344t413.5 133q199 0 312.5 -118t113.5 -316q0 -225 -116.5 -436t-313.5 -344.5t-414 -133.5zM604 51q150 0 284 155.5t205.5 363.5t71.5 391q0 283 -204 282 q-150 0 -283 -154.5t-206 -363.5t-73 -387q0 -287 205 -287z" glyph-name="Omacron" horiz-adv-x="1423" unicode="Ō"/><glyph d="M446 1192l31 92h574l-31 -92h-574zM297 -20q-117 0 -187.5 62t-70.5 200q0 244 191.5 450.5t424.5 206.5q258 0 258 -260q0 -244 -191.5 -451.5t-424.5 -207.5zM365 43q84 0 164.5 120t123.5 267.5t43 251.5q0 74 -27.5 114t-74.5 40q-84 0 -165 -113t-127 -258.5 t-46 -255.5q0 -78 29 -122t80 -44z" glyph-name="omacron" horiz-adv-x="956" unicode="ō"/><glyph d="M870 1423l-61 39q45 174 141 310q49 0 103.5 -40t70.5 -90q-129 -86 -254 -219zM1221 1423l-62 39q45 174 141 310q49 0 103.5 -40t71.5 -90q-129 -86 -254 -219zM573 -27q-199 0 -312.5 119t-113.5 318q0 223 117 434t313.5 344t413.5 133q199 0 312.5 -118t113.5 -316 q0 -225 -116.5 -436t-313.5 -344.5t-414 -133.5zM604 51q150 0 284 155.5t205.5 363.5t71.5 391q0 283 -204 282q-150 0 -283 -154.5t-206 -363.5t-73 -387q0 -287 205 -287z" glyph-name="Ohungarumlaut" horiz-adv-x="1423" unicode="Ő"/><glyph d="M526 1014l-61 39q45 174 141 309q49 0 103.5 -40t70.5 -89q-129 -86 -254 -219zM877 1014l-62 39q45 174 141 309q49 0 103.5 -40t70.5 -89q-128 -86 -253 -219zM297 -20q-117 0 -187.5 62t-70.5 200q0 244 191.5 450.5t424.5 206.5q258 0 258 -260q0 -244 -191.5 -451.5 t-424.5 -207.5zM365 43q84 0 164.5 120t123.5 267.5t43 251.5q0 74 -27.5 114t-74.5 40q-84 0 -165 -113t-127 -258.5t-46 -255.5q0 -78 29 -122t80 -44z" glyph-name="ohungarumlaut" horiz-adv-x="956" unicode="ő"/><glyph d="M1171 1290h914l-84 -299h-53q31 119 11 169t-118 50h-145q-104 0 -152.5 -34.5t-83.5 -139.5l-112 -346h116q156 0 218.5 42t105.5 147h47l-141 -439h-47q27 111 -3 141.5t-192 30.5h-129l-127 -391q-18 -53 -21.5 -79.5t14 -42t42 -17.5t86.5 -2h106q106 0 188.5 57.5 t178.5 192.5h65l-186 -330h-911q-92 -25 -185 -25q-197 0 -310 119t-113 318q0 221 115.5 432t312 345t413.5 134q94 0 180 -33zM391 340q0 -135 54.5 -209t158.5 -74q223 0 387 299l2 -6l181 551l-7 -6q55 346 -206 346q-150 0 -286 -154.5t-210 -362.5t-74 -384z" glyph-name="OE" horiz-adv-x="1980" unicode="Œ"/><glyph d="M1415 745q0 -248 -538 -362q-4 -41 -5 -59q0 -80 37 -128.5t109 -48.5q133 0 231 123l31 -43q-70 -119 -180.5 -181t-210.5 -62q-164 0 -221 151q-176 -156 -371 -155q-117 0 -187.5 62t-70.5 200q0 244 191.5 450.5t424.5 206.5q193 0 244 -151q174 154 342 153 q90 0 132 -43t42 -113zM365 43q84 0 164.5 120t123.5 267.5t43 251.5q0 74 -27.5 114t-74.5 40q-84 0 -165 -113t-127 -258.5t-46 -255.5q0 -78 29 -122t80 -44zM1153 819q-78 0 -154.5 -115.5t-109.5 -257.5q166 35 250 111t84 166q0 96 -70 96z" glyph-name="oe" horiz-adv-x="1417" unicode="œ"/><glyph d="M1141 1642q-129 -86 -254 -219l-62 39q45 174 142 310q49 0 103.5 -40.5t70.5 -89.5zM981 221q20 -84 72.5 -135t134.5 -27l-8 -65q-59 -27 -156 -27q-125 0 -185.5 53.5t-84.5 159.5l-49 215q-23 96 -64 128t-123 36l-110 -342q-16 -51 -18.5 -81t17 -46t40 -22.5 t71.5 -16.5l-10 -51h-574l17 55q61 12 94 24.5t66.5 49.5t54.5 102l274 842q16 51 18.5 81t-17 46.5t-37 21.5t-64.5 15l14 53h514q426 0 426 -280q0 -182 -134 -294t-357 -145q109 -35 137 -172zM872 1210q-143 0 -180 -112l-147 -459h82q186 0 307 123t121 289 q-1 159 -183 159z" glyph-name="Racute" horiz-adv-x="1331" unicode="Ŕ"/><glyph d="M600 1014l-61 39q45 174 141 309q49 0 103.5 -40t70.5 -89q-129 -86 -254 -219zM868 899q92 0 93 -100q0 -74 -52.5 -142.5t-120.5 -68.5q-49 0 -59 22.5t5.5 49t18.5 49t-20 22.5q-72 0 -199.5 -213t-261.5 -522q-100 -6 -198 0l229 653q10 29 13 48.5t0 27.5t-11 8 q-51 0 -184 -180l-37 39q203 307 377 307q115 0 65 -129l-155 -399h26q274 528 471 528z" glyph-name="racute" horiz-adv-x="911" unicode="ŕ"/><glyph d="M981 221q20 -84 72.5 -135t134.5 -27l-8 -65q-59 -27 -156 -27q-125 0 -185.5 53.5t-84.5 159.5l-49 215q-23 96 -64 128t-123 36l-110 -342q-16 -51 -18.5 -81t17 -46t40 -22.5t71.5 -16.5l-10 -51h-574l17 55q61 12 94 24.5t66.5 49.5t54.5 102l274 842q16 51 18.5 81 t-17 46.5t-37 21.5t-64.5 15l14 53h514q426 0 426 -280q0 -182 -134 -294t-357 -145q109 -35 137 -172zM872 1210q-143 0 -180 -112l-147 -459h82q186 0 307 123t121 289q-1 159 -183 159zM452.5 -119q63.5 0 105.5 -45t42 -125q0 -129 -107.5 -256t-279.5 -162l-18 56 q164 55 208 182q16 49 -24 76q-80 53 -80 125q0 61 45 105t108.5 44z" glyph-name="Rcommaaccent" horiz-adv-x="1331" unicode="Ŗ"/><glyph d="M868 899q92 0 93 -100q0 -74 -52.5 -142.5t-120.5 -68.5q-49 0 -59 22.5t5.5 49t18.5 49t-20 22.5q-72 0 -199.5 -213t-261.5 -522q-100 -6 -198 0l229 653q10 29 13 48.5t0 27.5t-11 8q-51 0 -184 -180l-37 39q203 307 377 307q115 0 65 -129l-155 -399h26 q274 528 471 528zM-137 -707l-19 56q164 55 209 182q16 49 -24 76q-80 53 -80 125q0 61 45 105t108.5 44t105.5 -45t42 -125q0 -129 -107.5 -256t-279.5 -162z" glyph-name="rcommaaccent" horiz-adv-x="911" unicode="ŗ"/><glyph d="M1294 1765l-354 -309l-166 307l33 33l178 -174l289 174zM1294 1010q0 -182 -134 -294t-357 -145q109 -35 137 -172l41 -178q20 -84 72.5 -135t134.5 -27l-8 -65q-59 -27 -156 -27q-125 0 -185.5 53.5t-84.5 159.5l-49 215q-23 96 -64 128t-123 36l-110 -342 q-16 -51 -18.5 -81t17 -46t40 -22.5t71.5 -16.5l-10 -51h-574l17 55q61 12 94 24.5t66.5 49.5t54.5 102l274 842q16 51 18.5 81t-17 46.5t-37 21.5t-64.5 15l14 53h514q426 1 426 -280zM627 639q186 0 307 123t121 289q0 160 -183 159q-143 0 -180 -112l-147 -459h82z" glyph-name="Rcaron" horiz-adv-x="1331" unicode="Ř"/><glyph d="M653 1047l-166 307l33 32l178 -174l289 174l21 -30zM868 899q92 0 93 -100q0 -74 -52.5 -142.5t-120.5 -68.5q-49 0 -59 22.5t5.5 49t18.5 49t-20 22.5q-72 0 -199.5 -213t-261.5 -522q-100 -6 -198 0l229 653q10 29 13 48.5t0 27.5t-11 8q-51 0 -184 -180l-37 39 q203 307 377 307q115 0 65 -129l-155 -399h26q274 528 471 528z" glyph-name="rcaron" horiz-adv-x="911" unicode="ř"/><glyph d="M805 1423l-62 39q45 174 142 310q49 0 103 -40t71 -90q-129 -86 -254 -219zM389 -23q-233 0 -356 138l61 258h49q-16 -152 48.5 -235t189.5 -83q131 0 221 82t90 199q0 74 -40 132t-120 122q-123 96 -161 147q-70 90 -70 201q0 170 137 276.5t342 106.5q207 0 326 -125 l-74 -260h-45q16 145 -32 226t-164 81q-111 0 -181.5 -66.5t-70.5 -162.5q0 -117 139 -228q4 -4 33.5 -26.5t39 -30.5t37 -31.5t40 -38t34 -40t31.5 -47t22.5 -49t17.5 -57.5t5 -63q0 -180 -161 -303t-388 -123z" glyph-name="Sacute" horiz-adv-x="1046" unicode="Ś"/><glyph d="M745 1233q-129 -86 -253 -219l-62 39q45 174 141 309q49 0 103.5 -40t70.5 -89zM500 899q74 0 130 -30.5t56 -100.5q0 -129 -207 -301q76 -106 76 -191q0 -129 -119 -212.5t-258 -83.5q-100 0 -153.5 47t-53.5 108.5t58 114.5l57 -10q4 -66 56.5 -125.5t117.5 -59.5 q47 0 74.5 33t27.5 86q0 66 -52 139.5t-104 152.5t-52 157q0 123 108.5 199.5t237.5 76.5zM461 494q92 117 92 219q0 53 -23.5 84.5t-64.5 31.5q-45 0 -83 -30.5t-38 -87.5q0 -37 21.5 -80t36 -61.5t59.5 -75.5z" glyph-name="sacute" horiz-adv-x="698" unicode="ś"/><glyph d="M780 1321q207 0 326 -125l-74 -260h-45q16 145 -32 226t-164 81q-111 0 -181.5 -66.5t-70.5 -162.5q0 -117 139 -228q4 -4 33.5 -26.5t39 -30.5t37 -31.5t40 -38t34 -40t31.5 -47t22.5 -49t17.5 -57.5t5 -63q0 -172 -148.5 -293.5t-363.5 -132.5l-35 -67q88 0 156.5 -45 t68.5 -123q0 -176 -344 -176l11 53q94 0 138 26.5t44 65.5q0 88 -229 88l92 181q-190 18 -295 135l61 258h49q-16 -152 48.5 -235t189.5 -83q131 0 221 82t90 199q0 74 -40 132t-120 122q-123 96 -161 147q-70 90 -70 201q0 170 137 276.5t342 106.5z" glyph-name="Scedilla" horiz-adv-x="1046" unicode="Ş"/><glyph d="M686 768q0 -129 -207 -301q76 -106 76 -191q0 -113 -91 -190.5t-214 -99.5l-39 -76q88 0 156.5 -45t68.5 -123q0 -176 -344 -176l10 53q94 0 138.5 26.5t44.5 65.5q0 88 -230 88l92 183q-86 6 -131 52t-45 101q0 61 58 115l57 -10q4 -66 56.5 -125.5t117.5 -59.5 q47 0 74.5 33t27.5 86q0 66 -52 139.5t-104 152.5t-52 157q0 123 108.5 199.5t237.5 76.5q74 0 130 -30.5t56 -100.5zM461 494q92 117 92 219q0 53 -23.5 84.5t-64.5 31.5q-45 0 -83 -30.5t-38 -87.5q0 -37 21.5 -80t36 -61.5t59.5 -75.5z" glyph-name="scedilla" horiz-adv-x="698" unicode="ş"/><glyph d="M858 1456l-166 307l33 33l178 -174l289 174l20 -31zM389 -23q-233 0 -356 138l61 258h49q-16 -152 48.5 -235t189.5 -83q131 0 221 82t90 199q0 74 -40 132t-120 122q-123 96 -161 147q-70 90 -70 201q0 170 137 276.5t342 106.5q207 0 326 -125l-74 -260h-45 q16 145 -32 226t-164 81q-111 0 -181.5 -66.5t-70.5 -162.5q0 -117 139 -228q4 -4 33.5 -26.5t39 -30.5t37 -31.5t40 -38t34 -40t31.5 -47t22.5 -49t17.5 -57.5t5 -63q0 -180 -161 -303t-388 -123z" glyph-name="Scaron" horiz-adv-x="1046" unicode="Š"/><glyph d="M899 1356l-354 -309l-166 307l33 32l178 -174l289 174zM500 899q74 0 130 -30.5t56 -100.5q0 -129 -207 -301q76 -106 76 -191q0 -129 -119 -212.5t-258 -83.5q-100 0 -153.5 47t-53.5 108.5t58 114.5l57 -10q4 -66 56.5 -125.5t117.5 -59.5q47 0 74.5 33t27.5 86 q0 66 -52 139.5t-104 152.5t-52 157q0 123 108.5 199.5t237.5 76.5zM461 494q92 117 92 219q0 53 -23.5 84.5t-64.5 31.5q-45 0 -83 -30.5t-38 -87.5q0 -37 21.5 -80t36 -61.5t59.5 -75.5z" glyph-name="scaron" horiz-adv-x="698" unicode="š"/><glyph d="M1300 1290l107 21l-102 -367h-48q35 141 0.5 207t-174.5 66h-90l-325 -1000q-10 -35 -15.5 -58.5t2 -41t14.5 -27.5t30.5 -17t41 -11.5t56.5 -10.5l-15 -51h-260l-45 -90q88 0 156.5 -45t68.5 -123q0 -176 -344 -176l11 53q94 0 138 26.5t44 65.5q0 88 -229 88l102 201 h-240l17 53q100 16 148 49t79 129l320 986h-82q-141 0 -222.5 -71t-148.5 -216h-51l139 381l94 -21h823z" glyph-name="Tcommaaccent" unicode="Ţ"/><glyph d="M547 803l-236 -645q-10 -29 15 -21q63 16 227 197l12 12l39 -39q-205 -262 -356 -315l-41 -82q88 0 156.5 -45t68.5 -123q0 -176 -344 -176l10 53q94 0 138.5 26.5t44.5 65.5q0 88 -230 88l99 193q-39 18 -54.5 63t0.5 92l242 668l-178 10l18 56h182l84 229l224 25 l-93 -254h191l-31 -90z" glyph-name="tcommaaccent" horiz-adv-x="694" unicode="ţ"/><glyph d="M1298 1765l-354 -309l-166 307l33 33l178 -174l289 174zM1300 1290l107 21l-102 -367h-48q35 141 0.5 207t-174.5 66h-90l-325 -1000q-10 -35 -15.5 -58.5t2 -41t14.5 -27.5t30.5 -17t41 -11.5t56.5 -10.5l-15 -51h-598l17 53q100 16 148 49t79 129l320 986h-82 q-141 0 -222.5 -71t-148.5 -216h-51l139 381l94 -21h823z" glyph-name="Tcaron" unicode="Ť"/><glyph d="M889 1352q63 0 77.5 -44t-30.5 -114l-113 -166q-33 -49 -67 -49q-27 0 -37 20.5t0 51.5l61 198q31 103 109 103zM668 1135l-93 -254h191l-31 -90l-188 12l-236 -645q-10 -29 15 -21q63 16 227 197l12 12l39 -39q-127 -160 -234.5 -242.5t-179.5 -82.5q-57 0 -85.5 53 t-8.5 112l242 668l-178 10l18 56h182l84 229z" glyph-name="tcaron" horiz-adv-x="708" unicode="ť"/><glyph d="M1300 1290l107 21l-102 -367h-48q35 141 0.5 207t-174.5 66h-90l-178 -545l227 6l-20 -82l-229 6l-125 -385q-10 -35 -15.5 -58.5t2 -41t14.5 -27.5t30.5 -17t41 -11.5t56.5 -10.5l-15 -51h-598l17 53q100 16 148 49t79 129l121 371l-234 -6l21 82l235 -6l177 545h-82 q-141 0 -222.5 -71t-148.5 -216h-51l139 381l94 -21h823z" glyph-name="Tbar" unicode="Ŧ"/><glyph d="M735 791l-188 12l-39 -105h221l-31 -90l-217 13l-170 -463q-10 -29 15 -21q63 16 227 197l12 12l39 -39q-127 -160 -234.5 -242.5t-179.5 -82.5q-57 0 -85.5 53t-8.5 112l176 488l-147 8l18 55h152l43 117l-178 10l18 56h182l84 229l224 25l-93 -254h191z" glyph-name="tbar" horiz-adv-x="694" unicode="ŧ"/><glyph d="M788 1602l31 92h574l-31 -92h-574zM584 -23q-74 0 -135.5 14.5t-117 54.5t-85 100.5t-27.5 160t43 225.5l174 541q16 51 18.5 81t-17 46.5t-37 21.5t-64.5 15l14 53h561l-18 -55q-61 -12 -94 -24.5t-66 -49.5t-55 -102l-191 -590q-33 -100 -37 -176t11.5 -117t48.5 -66.5 t64.5 -32.5t70.5 -7q57 0 114.5 17t120 59t119 126t95.5 203l192 598q12 41 13 68.5t-2 42t-26.5 27t-34.5 14.5t-50 12l14 53h412l-19 -55q-68 -12 -102.5 -24.5t-69.5 -49.5t-57 -102l-186 -576q-164 -506 -594 -506z" glyph-name="Umacron" horiz-adv-x="1384" unicode="Ū"/><glyph d="M518 1192l31 92h573l-30 -92h-574zM119 547l-37 39q205 309 375 309q63 0 88.5 -38t-0.5 -99l-168 -418q-25 -61 -37 -99t-13 -63.5t8 -36t30 -10.5q72 0 237.5 235.5t274.5 522.5h198l-233 -660q-33 -92 2 -84q49 10 174 183l39 -39q-205 -309 -379 -309q-61 0 -84 35.5 t2 93.5l160 395l-19 -2q-164 -293 -280.5 -407.5t-223.5 -114.5q-217 0 -61 366l127 297q39 90 2 82q-53 -10 -170 -162z" glyph-name="umacron" horiz-adv-x="1142" unicode="ū"/><glyph d="M803 1083q-133 0 -185.5 84t-7.5 219h49q-29 -154 164 -153q203 0 281 151h49q-45 -152 -137 -226.5t-213 -74.5zM119 547l-37 39q205 309 375 309q63 0 88.5 -38t-0.5 -99l-168 -418q-25 -61 -37 -99t-13 -63.5t8 -36t30 -10.5q72 0 237.5 235.5t274.5 522.5h198 l-233 -660q-33 -92 2 -84q49 10 174 183l39 -39q-205 -309 -379 -309q-61 0 -84 35.5t2 93.5l160 395l-19 -2q-164 -293 -280.5 -407.5t-223.5 -114.5q-217 0 -61 366l127 297q39 90 2 82q-53 -10 -170 -162z" glyph-name="ubreve" horiz-adv-x="1142" unicode="ŭ"/><glyph d="M1116 1470q-82 0 -138 55.5t-56 135.5t56 135t138 55t138.5 -55t56.5 -135t-56.5 -135.5t-138.5 -55.5zM1116 1575q39 0 63.5 24.5t24.5 61.5t-24.5 61.5t-63.5 24.5t-63.5 -24.5t-24.5 -61.5t24.5 -61.5t63.5 -24.5zM584 -23q-74 0 -135.5 14.5t-117 54.5t-85 100.5 t-27.5 160t43 225.5l174 541q16 51 18.5 81t-17 46.5t-37 21.5t-64.5 15l14 53h561l-18 -55q-61 -12 -94 -24.5t-66 -49.5t-55 -102l-191 -590q-33 -100 -37 -176t11.5 -117t48.5 -66.5t64.5 -32.5t70.5 -7q57 0 114.5 17t120 59t119 126t95.5 203l192 598q12 41 13 68.5 t-2 42t-26.5 27t-34.5 14.5t-50 12l14 53h412l-19 -55q-68 -12 -102.5 -24.5t-69.5 -49.5t-57 -102l-186 -576q-164 -506 -594 -506z" glyph-name="Uring" horiz-adv-x="1384" unicode="Ů"/><glyph d="M846 1061q-82 0 -138.5 55t-56.5 135t56.5 135.5t138.5 55.5t138 -55.5t56 -135.5t-56 -135t-138 -55zM846 1165q39 0 63.5 24.5t24.5 61.5t-24.5 61.5t-63.5 24.5t-63.5 -24.5t-24.5 -61.5t24.5 -61.5t63.5 -24.5zM119 547l-37 39q205 309 375 309q63 0 88.5 -38 t-0.5 -99l-168 -418q-25 -61 -37 -99t-13 -63.5t8 -36t30 -10.5q72 0 237.5 235.5t274.5 522.5h198l-233 -660q-33 -92 2 -84q49 10 174 183l39 -39q-205 -309 -379 -309q-61 0 -84 35.5t2 93.5l160 395l-19 -2q-164 -293 -280.5 -407.5t-223.5 -114.5q-217 0 -61 366 l127 297q39 90 2 82q-53 -10 -170 -162z" glyph-name="uring" horiz-adv-x="1142" unicode="ů"/><glyph d="M868 1423l-61 39q45 174 141 310q49 0 103.5 -40t70.5 -90q-129 -86 -254 -219zM1219 1423l-62 39q45 174 141 310q49 0 103.5 -40t71.5 -90q-129 -86 -254 -219zM584 -23q-74 0 -135.5 14.5t-117 54.5t-85 100.5t-27.5 160t43 225.5l174 541q16 51 18.5 81t-17 46.5 t-37 21.5t-64.5 15l14 53h561l-18 -55q-61 -12 -94 -24.5t-66 -49.5t-55 -102l-191 -590q-33 -100 -37 -176t11.5 -117t48.5 -66.5t64.5 -32.5t70.5 -7q57 0 114.5 17t120 59t119 126t95.5 203l192 598q12 41 13 68.5t-2 42t-26.5 27t-34.5 14.5t-50 12l14 53h412l-19 -55 q-68 -12 -102.5 -24.5t-69.5 -49.5t-57 -102l-186 -576q-164 -506 -594 -506z" glyph-name="Uhungarumlaut" horiz-adv-x="1384" unicode="Ű"/><glyph d="M598 1014l-61 39q45 174 141 309q49 0 103.5 -40t70.5 -89q-129 -86 -254 -219zM948 1014l-61 39q45 174 141 309q49 0 103.5 -40t70.5 -89q-129 -86 -254 -219zM119 547l-37 39q205 309 375 309q63 0 88.5 -38t-0.5 -99l-168 -418q-25 -61 -37 -99t-13 -63.5t8 -36 t30 -10.5q72 0 237.5 235.5t274.5 522.5h198l-233 -660q-33 -92 2 -84q49 10 174 183l39 -39q-205 -309 -379 -309q-61 0 -84 35.5t2 93.5l160 395l-19 -2q-164 -293 -280.5 -407.5t-223.5 -114.5q-217 0 -61 366l127 297q39 90 2 82q-53 -10 -170 -162z" glyph-name="uhungarumlaut" horiz-adv-x="1142" unicode="ű"/><glyph d="M1200 1290h412l-19 -55q-68 -12 -102.5 -24.5t-69.5 -49.5t-57 -102l-186 -576q-145 -446 -500 -499q-168 -55 -168 -164q0 -47 26.5 -74t71.5 -27q39 0 84 19l-10 -45q-78 -68 -190 -68q-178 0 -179 146q0 84 60 149l139 62q-82 8 -142.5 39.5t-106.5 96t-45 165 t44 249.5l174 541q16 51 18.5 81t-17 46.5t-37 21.5t-64.5 15l14 53h561l-18 -55q-61 -12 -94 -24.5t-66 -49.5t-55 -102l-191 -590q-33 -100 -37 -176t11.5 -117t48.5 -66.5t64.5 -32.5t70.5 -7q57 0 114.5 17t120 59t119 126t95.5 203l192 598q12 41 13 68.5t-2 42 t-26.5 27t-34.5 14.5t-50 12z" glyph-name="Uogonek" horiz-adv-x="1384" unicode="Ų"/><glyph d="M842 229q-33 -92 2 -84q49 10 174 183l39 -39q-152 -227 -285 -289q-160 -90 -160 -193q0 -47 26 -73.5t71 -26.5q39 0 88 17l-15 -41q-80 -70 -190 -70q-176 0 -176 145q0 84 59 150l141 86q-53 33 -20 115l160 395l-19 -2q-164 -293 -280.5 -407.5t-223.5 -114.5 q-217 0 -61 366l127 297q39 90 2 82q-53 -10 -170 -162l-12 -16l-37 39q205 309 375 309q63 0 88.5 -38t-0.5 -99l-168 -418q-25 -61 -37 -99t-13 -63.5t8 -36t30 -10.5q72 0 237.5 235.5t274.5 522.5h198z" glyph-name="uogonek" horiz-adv-x="1142" unicode="ų"/><glyph d="M1415 1798l166 -307l-33 -33l-178 174l-289 -174l-20 31zM438 -16l-10 1118q0 74 -23.5 96.5t-99.5 38.5l14 53h533l-16 -57q-82 -10 -122 -33.5t-40 -87.5v-776l403 629q147 229 -39 272l15 53h368q-27 -86 -30 -295l4 -653l463 725q35 53 45 84t-10.5 48.5t-42 22.5 t-83.5 15l15 53h416l-17 -57q-80 -14 -125 -43t-102 -117l-709 -1089h-90l-10 946l-617 -946h-90z" glyph-name="Wcircumflex" horiz-adv-x="1961" unicode="Ŵ"/><glyph d="M975 1223l-289 -174l-20 30l354 310l166 -308l-33 -32zM1280 881h289l-742 -901h-79l83 682l-561 -682h-80l84 684q12 100 -15.5 127.5t-108.5 37.5l16 52h334l-80 -617l350 408q53 63 57 98q-8 20 -26.5 33.5t-37 16.5t-56.5 9l16 52h334l-80 -617l350 408q51 59 55 94 t-24.5 46t-93.5 17z" glyph-name="wcircumflex" horiz-adv-x="1484" unicode="ŵ"/><glyph d="M1028 1632l-289 -174l-20 31l354 309l166 -307l-33 -33zM1147 1290h385l-19 -57q-84 -14 -119.5 -36.5t-103.5 -98.5l-481 -539l-111 -340q-10 -35 -15 -59.5t2 -42t14.5 -27.5t31 -17t40.5 -11.5t56 -10.5l-14 -51h-596l16 53q98 16 146.5 50t79.5 130l100 310l-137 559 q-18 78 -40 99.5t-99 35.5l16 53h555l-16 -57q-109 -23 -136 -45q-35 -29 -20 -90l111 -455l409 467q33 37 43 60.5t-11.5 37t-36.5 17.5t-64 12z" glyph-name="Ycircumflex" horiz-adv-x="1263" unicode="Ŷ"/><glyph d="M733 1223l-289 -174l-20 30l354 310l166 -308l-33 -32zM727 881h317l-708 -895q-14 -18 -54 -70.5t-58.5 -74t-55.5 -63.5t-62.5 -61.5t-61.5 -44t-71.5 -34t-74.5 -9.5q-70 0 -121 32t-51 93q0 45 28.5 70.5t71.5 25.5q41 0 88 -39.5t86 -39.5q43 0 93 43t138 163 l39 687q6 100 -20.5 127.5t-106.5 37.5l17 52h317l-43 -666l365 459q49 61 50 94t-31 44t-107 17z" glyph-name="ycircumflex" horiz-adv-x="960" unicode="ŷ"/><glyph d="M741 1536q-53 0 -89 37t-36 88t37 87t88.5 36t87 -36t35.5 -87t-36 -88t-87 -37zM1177.5 1536q-51.5 0 -88 37t-36.5 88t36.5 87t88 36t87 -36t35.5 -87t-35.5 -88t-87 -37zM1147 1290h385l-19 -57q-84 -14 -119.5 -36.5t-103.5 -98.5l-481 -539l-111 -340 q-10 -35 -15 -59.5t2 -42t14.5 -27.5t31 -17t40.5 -11.5t56 -10.5l-14 -51h-596l16 53q98 16 146.5 50t79.5 130l100 310l-137 559q-18 78 -40 99.5t-99 35.5l16 53h555l-16 -57q-109 -23 -136 -45q-35 -29 -20 -90l111 -455l409 467q33 37 43 60.5t-11.5 37t-36.5 17.5 t-64 12z" glyph-name="Ydieresis" horiz-adv-x="1263" unicode="Ÿ"/><glyph d="M881 1423l-62 39q45 174 142 310q49 0 103 -40t71 -90q-129 -86 -254 -219zM-35 0l-12 31l1096 1198l-342 -8q-133 -2 -212 -72t-135 -215h-55l121 369l111 -13h854l-1127 -1229l414 25q129 8 206 75.5t150 213.5h64q-119 -240 -162 -375h-971z" glyph-name="Zacute" horiz-adv-x="1187" unicode="Ź"/><glyph d="M844 1233q-129 -86 -254 -219l-62 39q45 174 142 309q49 0 103.5 -40t70.5 -89zM719 86q43 0 69.5 -29.5t26.5 -72.5q0 -72 -67.5 -114t-153.5 -42q-98 0 -251 91t-249 91q-86 0 -147 -43l-33 39l725 709h-277q-170 0 -241 -168h-51l143 334h700l-731 -715 q74 0 133.5 -28.5t96.5 -70.5t67.5 -84t61 -72t63.5 -30q27 0 32 14.5t-2 50.5t-7 52q0 37 25.5 62.5t66.5 25.5z" glyph-name="zacute" horiz-adv-x="915" unicode="ź"/><glyph d="M981 1450q-59 0 -104.5 43t-45.5 102.5t44.5 101.5t105.5 42t105 -42t44 -101.5t-45 -102.5t-104 -43zM-35 0l-12 31l1096 1198l-342 -8q-133 -2 -212 -72t-135 -215h-55l121 369l111 -13h854l-1127 -1229l414 25q129 8 206 75.5t150 213.5h64q-119 -240 -162 -375h-971z " glyph-name="Zdotaccent" horiz-adv-x="1187" unicode="Ż"/><glyph d="M690.5 1040q-59.5 0 -104.5 43t-45 102.5t44 101.5t105.5 42t105.5 -42t44 -101.5t-45 -102.5t-104.5 -43zM719 86q43 0 69.5 -29.5t26.5 -72.5q0 -72 -67.5 -114t-153.5 -42q-98 0 -251 91t-249 91q-86 0 -147 -43l-33 39l725 709h-277q-170 0 -241 -168h-51l143 334 h700l-731 -715q74 0 133.5 -28.5t96.5 -70.5t67.5 -84t61 -72t63.5 -30q27 0 32 14.5t-2 50.5t-7 52q0 37 25.5 62.5t66.5 25.5z" glyph-name="zdotaccent" horiz-adv-x="915" unicode="ż"/><glyph d="M934 1456l-166 307l33 33l178 -174l289 174l20 -31zM-35 0l-12 31l1096 1198l-342 -8q-133 -2 -212 -72t-135 -215h-55l121 369l111 -13h854l-1127 -1229l414 25q129 8 206 75.5t150 213.5h64q-119 -240 -162 -375h-971z" glyph-name="Zcaron" horiz-adv-x="1187" unicode="Ž"/><glyph d="M997 1356l-354 -309l-166 307l33 32l178 -174l289 174zM213 881h700l-731 -715q74 0 133.5 -28.5t96.5 -70.5t67.5 -84t61 -72t63.5 -30q27 0 32 14.5t-2 50.5t-7 52q0 37 25.5 62.5t66.5 25.5q43 0 69.5 -29.5t26.5 -72.5q0 -72 -67.5 -114t-153.5 -42q-98 0 -251 91 t-249 91q-86 0 -147 -43l-33 39l725 709h-277q-170 0 -241 -168h-51z" glyph-name="zcaron" horiz-adv-x="915" unicode="ž"/><glyph d="M1243 1403q82 0 129 -40t39 -122q-18 -43 -76.5 -70.5t-117.5 -23.5q2 41 1 77t-16.5 59.5t-46.5 23.5q-59 0 -131 -61.5t-135 -207.5l-62 -141l232 14q-31 -57 -47 -110l-224 6l-284 -657q-109 -246 -292 -377t-357 -131q-82 0 -130.5 39.5t-39.5 121.5q20 43 78.5 71 t117.5 24q-2 -41 -2 -77t15.5 -59.5t48.5 -23.5q59 0 130.5 61.5t135.5 206.5l350 807l-127 4l19 53l145 31q109 244 292 373t355 129z" glyph-name="florin" horiz-adv-x="1136" unicode="ƒ"/><glyph d="M389 -23q-233 0 -356 138l61 258h49q-16 -152 48.5 -235t189.5 -83q131 0 221 82t90 199q0 74 -40 132t-120 122q-123 96 -161 147q-70 90 -70 201q0 170 137 276.5t342 106.5q207 0 326 -125l-74 -260h-45q16 145 -32 226t-164 81q-111 0 -181.5 -66.5t-70.5 -162.5 q0 -117 139 -228q4 -4 33.5 -26.5t39 -30.5t37 -31.5t40 -38t34 -40t31.5 -47t22.5 -49t17.5 -57.5t5 -63q0 -180 -161 -303t-388 -123zM70 -707l-19 56q164 55 209 182q16 49 -24 76q-80 53 -80 125q0 61 45 105t108.5 44t105.5 -45t42 -125q0 -129 -107.5 -256 t-279.5 -162z" glyph-name="Scommaaccent" horiz-adv-x="1046" unicode="Ș"/><glyph d="M686 768q0 -129 -207 -301q76 -106 76 -191q0 -129 -119 -212.5t-258 -83.5q-100 0 -153.5 47t-53.5 108.5t58 114.5l57 -10q4 -66 56.5 -125.5t117.5 -59.5q47 0 74.5 33t27.5 86q0 66 -52 139.5t-104 152.5t-52 157q0 123 108.5 199.5t237.5 76.5q74 0 130 -30.5 t56 -100.5zM461 494q92 117 92 219q0 53 -23.5 84.5t-64.5 31.5q-45 0 -83 -30.5t-38 -87.5q0 -37 21.5 -80t36 -61.5t59.5 -75.5zM129.5 -119q63.5 0 105 -45t41.5 -125q0 -129 -107.5 -256t-279.5 -162l-18 56q164 55 209 182q16 49 -25 76q-80 53 -80 125q0 61 45.5 105 t109 44z" glyph-name="scommaaccent" horiz-adv-x="698" unicode="ș"/><glyph d="M1300 1290l107 21l-102 -367h-48q35 141 0.5 207t-174.5 66h-90l-325 -1000q-10 -35 -15.5 -58.5t2 -41t14.5 -27.5t30.5 -17t41 -11.5t56.5 -10.5l-15 -51h-598l17 53q100 16 148 49t79 129l320 986h-82q-141 0 -222.5 -71t-148.5 -216h-51l139 381l94 -21h823z M395.5 -119q63.5 0 105.5 -45t42 -125q0 -129 -107.5 -256t-279.5 -162l-19 56q164 55 209 182q16 49 -24 76q-80 53 -80 125q0 61 45 105t108.5 44z" glyph-name="uni021A" unicode="Ț"/><glyph d="M547 803l-236 -645q-10 -29 15 -21q63 16 227 197l12 12l39 -39q-127 -160 -234.5 -242.5t-179.5 -82.5q-57 0 -85.5 53t-8.5 112l242 668l-178 10l18 56h182l84 229l224 25l-93 -254h191l-31 -90zM124.5 -119q63.5 0 105.5 -45t42 -125q0 -129 -107.5 -256t-279.5 -162 l-18 56q164 55 209 182q16 49 -25 76q-80 53 -80 125q0 61 45 105t108.5 44z" glyph-name="uni021B" horiz-adv-x="694" unicode="ț"/><glyph d="M485 891q66 0 89.5 -43t3.5 -105l-199 -591q-86 -256 -195.5 -383t-257.5 -127q-113 0 -166 51t-47 123q4 51 33 81.5t74 30.5q51 0 72.5 -42t7.5 -115q-12 -63 47 -63.5t91 56t89 236.5l207 641q29 92 -6 82q-49 -14 -172 -178l-37 39q202 307 366 307z" glyph-name="uni0237" horiz-adv-x="598" unicode="ȷ"/><glyph d="M590 1409l166 -307l-33 -33l-178 174l-289 -174l-20 31z" glyph-name="circumflex" horiz-adv-x="561" unicode="ˆ"/><glyph d="M489 1067l-165 307l32 33l179 -174l288 174l21 -31z" glyph-name="caron" horiz-adv-x="561" unicode="ˇ"/><glyph d="M530 1104q-133 0 -185 84t-7 219h49q-29 -154 164 -154q203 0 280 152h50q-45 -152 -137.5 -226.5t-213.5 -74.5z" glyph-name="breve" horiz-adv-x="583" unicode="˘"/><glyph d="M426 1061q-59 0 -104.5 43t-45.5 102.5t44.5 101.5t105.5 42t105 -42t44 -101.5t-45 -102.5t-104 -43z" glyph-name="dotaccent" horiz-adv-x="354" unicode="˙"/><glyph d="M496 1081q-82 0 -138.5 55.5t-56.5 135.5t56.5 135t138.5 55t138 -55t56 -135t-56 -135.5t-138 -55.5zM496 1186q39 0 63.5 24.5t24.5 61.5t-24.5 61.5t-63.5 24.5t-63.5 -24.5t-24.5 -61.5t24.5 -61.5t63.5 -24.5z" glyph-name="ring" horiz-adv-x="450" unicode="˚"/><glyph d="M-10 -375q-176 0 -176 146q0 84 59 149l344 211l-12 -98q-96 -51 -145.5 -99.5t-49.5 -113.5q0 -47 25.5 -74t70.5 -27q39 0 89 17l-15 -41q-79 -70 -190 -70z" glyph-name="ogonek" horiz-adv-x="444" unicode="˛"/><glyph d="M700 1061q-51 0 -88 23.5t-54 51t-46 51t-66 23.5q-53 0 -102 -41t-59 -73l-37 30q18 106 92 168t162 62q51 0 88 -23.5t54.5 -51.5t47 -51.5t66.5 -23.5q53 0 102 41t60 74l36 -31q-18 -106 -92 -167.5t-164 -61.5z" glyph-name="tilde" horiz-adv-x="704" unicode="˜"/><glyph d="M289 1034l-62 39q45 174 142 309q49 0 103 -39.5t71 -89.5q-129 -86 -254 -219zM639 1034l-61 39q45 174 141 309q49 0 103.5 -39.5t70.5 -89.5q-129 -86 -254 -219z" glyph-name="hungarumlaut" horiz-adv-x="649" unicode="˝"/><glyph d="M-10 1034l-62 39q45 174 142 309q49 0 103 -39.5t71 -89.5q-129 -86 -254 -219z" glyph-name="acutecomb" horiz-adv-x="0" unicode="́"/><glyph d="M-657 -707l-19 56q164 55 209 182q16 49 -25 76q-80 53 -79 125q0 61 45 105t108.5 44t105.5 -45t42 -125q0 -129 -107.5 -256t-279.5 -162z" glyph-name="uni0326" horiz-adv-x="0" unicode="̦"/><glyph d="M-98 0l956 1298l119 -1298h-1075zM119 199h624l-49 786z" glyph-name="Delta" horiz-adv-x="1136" unicode="Δ"/><glyph d="M965 190q121 0 174 10.5t94 49.5h41l-148 -250h-409l61 190q104 47 203.5 188.5t158 306.5t58.5 290q0 117 -52 182.5t-153 65.5q-143 0 -280.5 -134.5t-215 -319.5t-77.5 -345q0 -86 25.5 -147.5t62.5 -86.5l-62 -190h-407l14 250h29q14 -39 56 -49.5t151 -10.5h41 q-55 47 -98.5 139.5t-43.5 209.5q0 295 248 530.5t555 235.5q207 0 325 -117t118 -303q0 -421 -469 -695z" glyph-name="Omega" horiz-adv-x="1445" unicode="Ω"/><glyph d="M842 229q-33 -92 2 -84q49 10 174 183l39 -39q-205 -309 -379 -309q-61 0 -84 35.5t2 93.5l160 395l-19 -2q-164 -293 -280.5 -407.5t-223.5 -114.5q-113 0 -122 106q-59 -152 -54.5 -213t26 -107.5t13.5 -68.5q-16 -47 -60 -76t-91 -29q-49 0 -69.5 31t3.5 96l408 899h2 l10 25q39 90 2 82q-53 -10 -170 -162l-12 -16l-37 39q205 309 375 309q63 0 88.5 -38t-0.5 -99l-168 -418q-25 -61 -37 -99t-13 -63.5t8 -36t30 -10.5q72 0 237.5 235.5t274.5 522.5h198z" glyph-name="mu" horiz-adv-x="1140" unicode="μ"/><glyph d="M1122 745l-176 -542q-37 -115 2 -115q29 0 57.5 40t60.5 79t69 39q41 0 56 -35t-3 -94q-16 -51 -62.5 -84t-91.5 -43t-96 -10q-117 0 -175 80.5t-11 222.5l149 462h-211l-164 -505q-41 -125 -130 -188.5t-185 -63.5q-76 0 -137 30l-15 64q70 -20 145 31t109 159l154 473 h-70q-66 0 -116 -48t-56 -126l-39 66q-10 119 55.5 203t190.5 84h922l-58 -179h-174z" glyph-name="pi" horiz-adv-x="1382" unicode="π"/><glyph d="M1257 1423q-125 133 -253 219q16 49 70 89.5t104 40.5q96 -135 141 -310zM438 -16l-10 1118q0 74 -23.5 96.5t-99.5 38.5l14 53h533l-16 -57q-82 -10 -122 -33.5t-40 -87.5v-776l403 629q147 229 -39 272l15 53h368q-27 -86 -30 -295l4 -653l463 725q35 53 45 84 t-10.5 48.5t-42 22.5t-83.5 15l15 53h416l-17 -57q-80 -14 -125 -43t-102 -117l-709 -1089h-90l-10 946l-617 -946h-90z" glyph-name="Wgrave" horiz-adv-x="1961" unicode="Ẁ"/><glyph d="M862 1014q-125 133 -254 219q16 49 70.5 89t103.5 40q96 -135 142 -309zM1280 881h289l-742 -901h-79l83 682l-561 -682h-80l84 684q12 100 -15.5 127.5t-108.5 37.5l16 52h334l-80 -617l350 408q53 63 57 98q-8 20 -26.5 33.5t-37 16.5t-56.5 9l16 52h334l-80 -617 l350 408q51 59 55 94t-24.5 46t-93.5 17z" glyph-name="wgrave" horiz-adv-x="1484" unicode="ẁ"/><glyph d="M1262 1423l-62 39q45 174 141 310q49 0 103.5 -40t71.5 -90q-129 -86 -254 -219zM438 -16l-10 1118q0 74 -23.5 96.5t-99.5 38.5l14 53h533l-16 -57q-82 -10 -122 -33.5t-40 -87.5v-776l403 629q147 229 -39 272l15 53h368q-27 -86 -30 -295l4 -653l463 725q35 53 45 84 t-10.5 48.5t-42 22.5t-83.5 15l15 53h416l-17 -57q-80 -14 -125 -43t-102 -117l-709 -1089h-90l-10 946l-617 -946h-90z" glyph-name="Wacute" horiz-adv-x="1961" unicode="Ẃ"/><glyph d="M1120 1233q-129 -86 -254 -219l-61 39q45 174 141 309q49 0 103.5 -40t70.5 -89zM1280 881h289l-742 -901h-79l83 682l-561 -682h-80l84 684q12 100 -15.5 127.5t-108.5 37.5l16 52h334l-80 -617l350 408q53 63 57 98q-8 20 -26.5 33.5t-37 16.5t-56.5 9l16 52h334 l-80 -617l350 408q51 59 55 94t-24.5 46t-93.5 17z" glyph-name="wacute" horiz-adv-x="1484" unicode="ẃ"/><glyph d="M1083.5 1536q-51.5 0 -88.5 37t-37 88t37 87t88.5 36t87 -36t35.5 -87t-35.5 -88t-87 -37zM1520 1536q-53 0 -89 37t-36 88t36.5 87t88 36t87 -36t35.5 -87t-35.5 -88t-86.5 -37zM438 -16l-10 1118q0 74 -23.5 96.5t-99.5 38.5l14 53h533l-16 -57q-82 -10 -122 -33.5 t-40 -87.5v-776l403 629q147 229 -39 272l15 53h368q-27 -86 -30 -295l4 -653l463 725q35 53 45 84t-10.5 48.5t-42 22.5t-83.5 15l15 53h416l-17 -57q-80 -14 -125 -43t-102 -117l-709 -1089h-90l-10 946l-617 -946h-90z" glyph-name="Wdieresis" horiz-adv-x="1961" unicode="Ẅ"/><glyph d="M688 1126q-53 0 -89 37t-36 88.5t37 87t88 35.5t87 -35.5t36 -87t-36 -88.5t-87 -37zM1124.5 1126q-51.5 0 -88.5 37t-37 88.5t37 87t88.5 35.5t87 -35.5t35.5 -87t-35.5 -88.5t-87 -37zM1280 881h289l-742 -901h-79l83 682l-561 -682h-80l84 684q12 100 -15.5 127.5 t-108.5 37.5l16 52h334l-80 -617l350 408q53 63 57 98q-8 20 -26.5 33.5t-37 16.5t-56.5 9l16 52h334l-80 -617l350 408q51 59 55 94t-24.5 46t-93.5 17z" glyph-name="wdieresis" horiz-adv-x="1484" unicode="ẅ"/><glyph d="M1071 711q121 -18 193.5 -88t72.5 -189q0 -188 -164.5 -331.5t-377.5 -143.5q-158 0 -232 90q33 164 43 240h45q2 -156 32 -206t89 -50q131 0 229.5 130t98.5 265q0 223 -336 223l469 533q-49 31 -148 30q-352 0 -503 -464l-174 -533q-14 -47 -18.5 -75.5t8 -45t25.5 -25 t44 -16.5l-8 -55h-518l10 55q61 12 94 24.5t66.5 49.5t54.5 102l170 521q178 553 663 553q219 0 486 -134z" glyph-name="uni1E9E" horiz-adv-x="1437" unicode="ẞ"/><glyph d="M811 1599q-53 0 -102.5 -40.5t-59.5 -73.5l-37 31q18 106 92 167.5t162 61.5q51 0 88 -23.5t54.5 -51.5t47 -51.5t66.5 -23.5q53 0 102.5 41t59.5 74l37 -31q-18 -106 -92 -167.5t-164 -61.5q-51 0 -88 23.5t-54.5 51t-46 51t-65.5 23.5zM340 1237l14 53h942l-84 -299 h-53q31 119 11.5 169t-117.5 50h-146q-104 0 -152 -34.5t-83 -139.5l-113 -346h117q156 0 218 42t105 147h48l-142 -439h-47q27 111 -3 141.5t-191 30.5h-129l-127 -391q-18 -53 -21.5 -79.5t14 -42t42 -17.5t85.5 -2h107q106 0 188 57.5t178 192.5h66l-186 -330h-947l17 55 q61 12 94 24.5t66.5 49.5t54.5 102l274 842q16 51 18.5 81t-17 46.5t-37 21.5t-64.5 15z" glyph-name="uni1EBC" horiz-adv-x="1191" unicode="Ẽ"/><glyph d="M963 1300l36 -30q-18 -106 -91.5 -168t-164.5 -62q-51 0 -88 23.5t-54 51.5t-46 51.5t-66 23.5q-53 0 -102 -41t-59 -74l-37 31q18 106 92 167.5t162 61.5q51 0 88 -23.5t54.5 -51t47 -51t66.5 -23.5q53 0 102.5 40.5t59.5 73.5zM633 899q90 0 132 -43t42 -113 q0 -248 -539 -362q-4 -41 -4 -59q0 -80 37 -128.5t109 -48.5q133 0 231 123l31 -43q-70 -119 -180.5 -181t-210.5 -62q-109 0 -175.5 74.5t-66.5 199.5q0 225 194.5 434t399.5 209zM281 444q166 35 249.5 111t83.5 166q0 96 -69 96q-78 0 -154.5 -116t-109.5 -257z" glyph-name="uni1EBD" horiz-adv-x="808" unicode="ẽ"/><glyph d="M915 1423q-125 133 -253 219q16 49 70 89.5t104 40.5q96 -135 141 -310zM1147 1290h385l-19 -57q-84 -14 -119.5 -36.5t-103.5 -98.5l-481 -539l-111 -340q-10 -35 -15 -59.5t2 -42t14.5 -27.5t31 -17t40.5 -11.5t56 -10.5l-14 -51h-596l16 53q98 16 146.5 50t79.5 130 l100 310l-137 559q-18 78 -40 99.5t-99 35.5l16 53h555l-16 -57q-109 -23 -136 -45q-35 -29 -20 -90l111 -455l409 467q33 37 43 60.5t-11.5 37t-36.5 17.5t-64 12z" glyph-name="Ygrave" horiz-adv-x="1263" unicode="Ỳ"/><glyph d="M621 1014q-125 133 -254 219q16 49 70.5 89t103.5 40q96 -135 141 -309zM727 881h317l-708 -895q-14 -18 -54 -70.5t-58.5 -74t-55.5 -63.5t-62.5 -61.5t-61.5 -44t-71.5 -34t-74.5 -9.5q-70 0 -121 32t-51 93q0 45 28.5 70.5t71.5 25.5q41 0 88 -39.5t86 -39.5 q43 0 93 43t138 163l39 687q6 100 -20.5 127.5t-106.5 37.5l17 52h317l-43 -666l365 459q49 61 50 94t-31 44t-107 17z" glyph-name="ygrave" horiz-adv-x="960" unicode="ỳ"/><glyph d="M102 483v105h1158v-105h-1158z" glyph-name="endash" horiz-adv-x="1361" unicode="–"/><glyph d="M102 483v105h1678v-105h-1678z" glyph-name="emdash" horiz-adv-x="1882" unicode="—"/><glyph d="M102 483v105h1678v-105h-1678z" glyph-name="afii00208" horiz-adv-x="1882" unicode="―"/><glyph d="M637 1319l18 -55q-164 -55 -209 -183q-16 -49 25 -75q80 -53 80 -125q0 -61 -45 -105.5t-108.5 -44.5t-105.5 45t-42 125q0 129 107.5 256t279.5 162z" glyph-name="quoteleft" horiz-adv-x="493" unicode="‘"/><glyph d="M244 737l-19 56q164 55 209 182q16 49 -24 76q-80 53 -80 125q0 61 45 105t108.5 44t105.5 -45t42 -125q0 -129 -107.5 -256t-279.5 -162z" glyph-name="quoteright" horiz-adv-x="493" unicode="’"/><glyph d="M-96 -313l-19 55q164 55 209 182q16 49 -24 76q-80 53 -80 125q0 61 45 105t108.5 44t105.5 -45t42 -125q0 -129 -107.5 -255.5t-279.5 -161.5z" glyph-name="quotesinglbase" horiz-adv-x="493" unicode="‚"/><glyph d="M637 1319l18 -55q-164 -55 -209 -183q-16 -49 25 -75q80 -53 80 -125q0 -61 -45 -105.5t-108.5 -44.5t-105.5 45t-42 125q0 129 107.5 256t279.5 162zM1063 1319l18 -55q-164 -55 -209 -183q-16 -49 25 -75q80 -53 80 -125q0 -61 -45 -105.5t-108.5 -44.5t-105.5 45 t-42 125q0 129 107.5 256t279.5 162z" glyph-name="quotedblleft" horiz-adv-x="919" unicode="“"/><glyph d="M246 737l-19 56q164 55 209 182q16 49 -24 76q-80 53 -80 125q0 61 45 105t108.5 44t105.5 -45t42 -125q0 -129 -107.5 -256t-279.5 -162zM672 737l-19 56q164 55 209 182q16 49 -24 76q-80 53 -80 125q0 61 45 105t108.5 44t105.5 -45t42 -125q0 -129 -107.5 -256 t-279.5 -162z" glyph-name="quotedblright" horiz-adv-x="921" unicode="”"/><glyph d="M-92 -303l-19 55q164 55 209 182q16 49 -24 76q-80 53 -80 125q0 61 45 105.5t108.5 44.5t105.5 -45t42 -125q0 -129 -107.5 -256t-279.5 -162zM334 -303l-19 55q164 55 209 182q16 49 -24 76q-80 53 -80 125q0 61 45 105.5t108.5 44.5t105.5 -45t42 -125 q0 -129 -107.5 -256t-279.5 -162z" glyph-name="quotedblbase" horiz-adv-x="921" unicode="„"/><glyph d="M301 2l127 672l123 133l45 106q-51 0 -131 -46t-111 -46q-53 0 -76.5 42t-3.5 104q12 39 47 61.5t80 22.5q35 0 90.5 -42t110.5 -34q23 57 6.5 135t-2.5 121q12 39 47 64.5t78 25.5q53 0 72.5 -46t-0.5 -106q-8 -29 -74.5 -98.5t-91.5 -130.5q53 8 133 59.5t115 51.5 q53 0 76.5 -42t3.5 -104q-12 -39 -47 -61.5t-80 -22.5q-39 0 -92.5 46t-104.5 46l-45 -106l41 -133l-305 -672h-31z" glyph-name="dagger" horiz-adv-x="915" unicode="†"/><glyph d="M317 -35q-53 0 -73.5 46t0.5 106q10 29 75.5 97.5t92.5 131.5q-53 -8 -133 -59t-115 -51q-53 0 -77 41.5t-3 103.5q12 39 47 61.5t80 22.5q39 0 92 -46t105 -46l43 106l-29 174l131 154l43 106q-51 0 -131 -46t-111 -46q-53 0 -76.5 42t-3.5 104q12 39 47 61.5t80 22.5 q35 0 90.5 -42t110.5 -34q23 57 6.5 135t-2.5 121q12 39 47 64.5t78 25.5q53 0 72.5 -46t-0.5 -106q-8 -29 -74.5 -98.5t-91.5 -130.5q53 8 133 59.5t115 51.5q53 0 76.5 -42t3.5 -104q-12 -39 -47 -61.5t-80 -22.5q-39 0 -92.5 46t-104.5 46l-45 -106l37 -154l-137 -174 l-45 -106q53 0 133 46t110 46q53 0 77 -42t3 -104q-12 -39 -47 -61t-80 -22q-35 0 -90 41.5t-113 33.5q-23 -57 -5 -135t3 -121q-12 -39 -47 -64.5t-78 -25.5z" glyph-name="daggerdbl" horiz-adv-x="915" unicode="‡"/><glyph d="M395.5 233q-108.5 0 -185.5 77t-77 185.5t77 185.5t185.5 77t185 -77t76.5 -185.5t-76.5 -185.5t-185 -77z" glyph-name="bullet" horiz-adv-x="755" unicode="•"/><glyph d="M158 -20q-61 0 -105.5 43t-44.5 106q0 59 44 102t106 43q59 0 103 -43t44 -102q0 -63 -44 -106t-103 -43zM598 -20q-61 0 -105 43t-44 106q0 59 44 102t105 43q59 0 103 -43t44 -102q0 -63 -43 -106t-104 -43zM1038 -20q-61 0 -105 43t-44 106q0 59 44 102t105 43 q59 0 103.5 -43t44.5 -102q0 -63 -44.5 -106t-103.5 -43z" glyph-name="ellipsis" horiz-adv-x="1396" unicode="…"/><glyph d="M1389 1303l135 -13l-1334 -1290h-122l1149 1104q-66 -29 -142 -29q-104 0 -201 60q-4 -164 -153.5 -320t-310.5 -156q-80 0 -123 44.5t-43 121.5q0 166 153.5 318.5t321.5 152.5q90 0 129 -55q141 -100 239 -100q134 0 302 162zM446 729q109 0 237 157.5t128 268.5 q0 74 -72 74q-104 0 -227 -163t-123 -278q0 -59 57 -59zM1200 633q156 0 156 -152q0 -164 -150.5 -324.5t-314.5 -160.5q-80 0 -124 44t-44 122q0 162 154.5 316.5t322.5 154.5zM1905 633q156 0 155 -152q0 -164 -150.5 -324.5t-314.5 -160.5q-80 0 -124 44t-44 122 q0 162 155 316.5t323 154.5zM928 66q109 0 236.5 158.5t127.5 269.5q0 72 -73 71q-68 0 -152 -81t-141.5 -185t-57.5 -174q1 -59 60 -59zM1632 66q109 0 237 158.5t128 269.5q0 72 -74 71q-68 0 -151.5 -81t-141 -185t-57.5 -174q0 -59 59 -59z" glyph-name="perthousand" horiz-adv-x="2166" unicode="‰"/><glyph d="M111 455l372 288l19 -28l-242 -260l72 -260l-39 -29z" glyph-name="guilsinglleft" horiz-adv-x="532" unicode="‹"/><glyph d="M418 455l-373 -289l-18 29l241 260l-71 260l39 28z" glyph-name="guilsinglright" horiz-adv-x="532" unicode="›"/><glyph d="M-453 -10l1223 1313h51l-1222 -1313h-52z" glyph-name="fraction" horiz-adv-x="233" unicode="⁄"/><glyph d="M1278 1321q229 0 328 -119l-66 -268h-67q12 156 -37.5 232.5t-175.5 76.5q-156 0 -284 -109.5t-208 -281.5h324l-72 -141h-305q-18 -61 -31 -123h274l-71 -142h-215v-2q0 -168 78.5 -264t224.5 -96q201 0 336 121l30 -74q-78 -70 -204.5 -114t-270.5 -44 q-223 0 -337.5 124t-114.5 335v14h-295l71 142h240q14 68 33 123h-211l72 141h204q117 209 319 339t431 130z" glyph-name="Euro" horiz-adv-x="1499" unicode="€"/><glyph d="M436 612v39q35 6 47.5 9.5t30.5 13.5t23.5 26.5t5.5 44.5v496h-49q-76 0 -108 -38t-46 -113h-33l10 200h607l10 -200h-35q-12 76 -44 113.5t-103 37.5h-54l2 -496q0 -29 5.5 -45t22.5 -26t29.5 -13.5t47.5 -9.5v-39h-369zM1024 612v39q33 6 43 9.5t28.5 13.5t24.5 26.5 t6 44.5v412q0 29 -5 46.5t-24.5 26.5t-27.5 12t-43 9v39h254l207 -463l182 463h270v-39q-4 0 -10 -2q-27 -6 -38 -9t-25.5 -12t-19.5 -26.5t-5 -44.5v-412q0 -29 5 -46t23.5 -26t29 -12.5t43.5 -9.5v-39h-353v39q31 6 42 9.5t27.5 13.5t22 26.5t5.5 44.5l-3 441l-231 -574 h-35l-237 529l2 -396q0 -37 13 -56t29.5 -24.5t59.5 -13.5v-39h-260z" glyph-name="trademark" horiz-adv-x="1927" unicode="™"/><glyph d="M457 838l-6 -23h-236l6 23q78 10 96 59l97 297q4 14 6 23.5t1 16.5t-4 10t-11 3l-44 -6l9 23l159 67l13 -12l-142 -436q-8 -25 4.5 -32t51.5 -13zM1192 1303h51l-1223 -1313h-51zM961 500q63 0 91.5 -37t12.5 -86q-20 -59 -96 -107q86 -47 55 -137q-23 -70 -89.5 -111.5 t-148.5 -41.5q-78 0 -115.5 38.5t-17.5 104.5q31 84 123 129q-35 47 -14 110q18 57 74.5 97.5t124.5 40.5zM1006 375q14 31 0.5 60.5t-58.5 29.5q-78 0 -102 -74q-20 -57 51 -88l41 -18q52 35 68 90zM928 102q10 35 -2.5 53.5t-57.5 41.5l-45 20q-16 8 -22 14 q-63 -37 -86 -102q-16 -51 6 -83t82 -32q96 0 125 88z" glyph-name="oneeighth" horiz-adv-x="1226" unicode="⅛"/><glyph d="M319 786q-43 0 -75.5 12.5t-32.5 37.5q0 20 13.5 31.5t29.5 11.5t35.5 -32t52.5 -32q59 0 109.5 52.5t50.5 111.5q0 72 -86 72q-33 0 -72 -15l-2 25l66 24q72 27 109.5 54.5t37.5 72.5q0 43 -59 43q-76 0 -136 -55l-12 17q90 96 201 96q94 0 94 -76q0 -86 -149 -147 q106 -8 106 -93q0 -80 -90.5 -145.5t-190.5 -65.5zM1348 1303h51l-1223 -1313h-51zM1210 500q63 0 92 -37t13 -86q-20 -59 -96 -107q86 -47 55 -137q-23 -70 -89.5 -111.5t-148.5 -41.5q-78 0 -115.5 38.5t-17.5 104.5q31 84 123 129q-35 47 -14 110q18 57 74 97.5t124 40.5 zM1255 375q14 31 1 60.5t-58 29.5q-78 0 -102 -74q-20 -57 51 -88l41 -18q51 35 67 90zM1178 102q10 35 -2.5 53.5t-57.5 41.5l-45 20q-16 8 -22 14q-63 -37 -86 -102q-16 -51 6 -83t82 -32q96 0 125 88z" glyph-name="threeeighths" horiz-adv-x="1456" unicode="⅜"/><glyph d="M313 799q-109 0 -108 49q0 16 13 29.5t30 13.5q18 0 37.5 -32t54.5 -32q55 0 104.5 52.5t49.5 109.5q0 88 -177 76l-8 16l148 230h123q72 0 96 24h16l-63 -100h-189l-65 -102q223 14 223 -103q0 -88 -91.5 -159.5t-193.5 -71.5zM1346 1303h51l-1223 -1313h-51zM1208 500 q63 0 92 -37t13 -86q-20 -59 -96 -107q86 -47 55 -137q-23 -70 -89.5 -111.5t-148.5 -41.5q-78 0 -115.5 38.5t-17.5 104.5q31 84 123 129q-35 47 -14 110q18 57 74 97.5t124 40.5zM1253 375q14 31 1 60.5t-58 29.5q-78 0 -102 -74q-20 -57 51 -88l41 -18q51 35 67 90z M1176 102q10 35 -2.5 53.5t-57.5 41.5l-45 20q-16 8 -22 14q-63 -37 -86 -102q-16 -51 6 -83t82 -32q96 0 125 88z" glyph-name="fiveeighths" horiz-adv-x="1472" unicode="⅝"/><glyph d="M332 815h-60q115 195 334 436h-151q-37 0 -59.5 -10t-51.5 -49h-16l82 135l30 -8h246l4 -12q-231 -256 -358 -492zM1294 1303h52l-1223 -1313h-51zM1157 500q63 0 92 -37t13 -86q-20 -59 -97 -107q86 -47 56 -137q-23 -70 -89.5 -111.5t-148.5 -41.5q-78 0 -116 38.5 t-17 104.5q31 84 123 129q-35 47 -15 110q18 57 74.5 97.5t124.5 40.5zM1202 375q14 31 1 60.5t-58 29.5q-78 0 -103 -74q-20 -57 52 -88l41 -18q51 35 67 90zM1124 102q10 35 -2 53.5t-57 41.5l-45 20q-16 8 -23 14q-63 -37 -86 -102q-16 -51 6.5 -83t81.5 -32q96 0 125 88 z" glyph-name="seveneighths" horiz-adv-x="1372" unicode="⅞"/><glyph d="M481 -25q-182 0 -283.5 92.5t-101.5 241.5q0 109 49.5 210.5t129 171t181 115.5t204 43t198.5 -48l-2 -56q-137 29 -264 -45.5t-201 -209t-74 -275.5q0 -164 144 -164q127 0 241.5 131t176 309.5t61.5 333.5q0 190 -100.5 296t-259.5 120l43 64q227 -12 391 -172 t164 -404q0 -301 -203 -527.5t-494 -226.5z" glyph-name="partialdiff" horiz-adv-x="1202" unicode="∂"/><glyph d="M1159 864l-147 -110q68 -129 12 -303q-63 -195 -243.5 -332t-374.5 -137q-174 0 -267 112l-149 -112l-37 55l149 113q-68 129 -12 301q63 195 244.5 331t374.5 136q172 0 266 -111l147 113zM172 451q-47 -139 6 -244l719 543q-76 86 -215 86q-162 0 -310.5 -111.5 t-199.5 -273.5zM942 451q45 139 -6 243l-721 -542q78 -88 217 -89q162 0 309.5 113t200.5 275z" glyph-name="emptyset" horiz-adv-x="1103" unicode="∅"/><glyph d="M1446 1638l-666 -2048h-153l612 1887h-627l-612 -1887h-154l666 2048h934z" glyph-name="product" horiz-adv-x="1179" unicode="∏"/><glyph d="M1393 1638l-52 -161h-673l311 -865l-852 -860h653l-51 -162h-881l52 162l874 889l-313 836l51 161h881z" glyph-name="summation" horiz-adv-x="1128" unicode="∑"/><glyph d="M100 434l54 162h682l-54 -162h-682z" glyph-name="minus" horiz-adv-x="886" unicode="−"/><glyph d="M317 -410l-94 686q-12 80 -36.5 108t-96.5 58l16 72h295l93 -670l1249 1796h246l-23 -94q-98 -25 -154.5 -65.5t-128.5 -143.5l-1228 -1747h-138z" glyph-name="radical" horiz-adv-x="1628" unicode="√"/><glyph d="M324 94q-100 0 -159 72t-59 192q0 125 55.5 258.5t154 224.5t206.5 91q158 0 209 -184q164 186 330 186q100 0 157.5 -71.5t57.5 -194.5q0 -131 -56.5 -263.5t-153.5 -220.5t-204 -88q-158 0 -209 185q-165 -187 -329 -187zM291 309q141 0 260 187l125 176 q-39 102 -160 102q-129 0 -230.5 -116.5t-101.5 -237.5q1 -111 107 -111zM879 254q121 0 221 116.5t100 237.5q0 111 -106 111q-141 0 -260 -189l-125 -174q39 -102 170 -102z" glyph-name="infinity" horiz-adv-x="1335" unicode="∞"/><glyph d="M-145 -358q-82 0 -130.5 39.5t-39.5 121.5q20 43 78.5 71t117.5 24q-2 -41 -2 -77t15.5 -59.5t48.5 -23.5q59 0 130.5 61.5t135.5 206.5l385 889q106 246 290.5 377t358.5 131q82 0 129 -40t39 -122q-18 -43 -76.5 -70.5t-117.5 -23.5q2 41 1 77t-16.5 59.5t-46.5 23.5 q-59 0 -131 -61.5t-135 -207.5l-385 -888q-106 -246 -290.5 -377t-358.5 -131z" glyph-name="integral" horiz-adv-x="1136" unicode="∫"/><glyph d="M702 543q-59 0 -103 23.5t-64.5 51t-57.5 51t-84 23.5q-57 0 -114.5 -41t-65.5 -73l-33 30q18 106 103.5 168t189.5 62q59 0 103.5 -23.5t66 -51.5t57 -51.5t82.5 -23.5q57 0 113.5 40t69.5 75l32 -31q-18 -106 -104.5 -167.5t-190.5 -61.5zM592 195q-59 0 -103.5 23.5 t-65 51t-57 51t-83.5 23.5q-57 0 -114.5 -41t-66.5 -74l-32 31q18 106 103 167.5t189 61.5q59 0 103.5 -23.5t66 -51t57.5 -51t83 -23.5q57 0 113.5 40t68.5 75l33 -31q-18 -106 -104.5 -167.5t-190.5 -61.5z" glyph-name="approxequal" horiz-adv-x="1017" unicode="≈"/><glyph d="M842 618h-242l-86 -206h262l-53 -162h-277l-104 -250h-170l104 250h-235l53 162h250l86 206h-270l53 162h285l98 236h170l-98 -236h227z" glyph-name="notequal" horiz-adv-x="888" unicode="≠"/><glyph d="M1071 242q-377 190 -805 352l-41 162q330 162 578 348l45 -176q-121 -86 -211 -136.5t-225 -99.5q319 -106 606 -246zM1139 -18h-682l-54 161h682z" glyph-name="lessequal" horiz-adv-x="1409" unicode="≤"/><glyph d="M72 242l53 204q287 139 606 246q-135 49 -225 99.5t-211 136.5l45 176q248 -186 578 -348l-41 -162q-428 -162 -805 -352zM4 -18l53 161h682l-53 -161h-682z" glyph-name="greaterequal" horiz-adv-x="956" unicode="≥"/><glyph d="M471 -37l-305 672l743 674l305 -674zM522 119l565 516l-229 518l-565 -518z" glyph-name="lozenge" horiz-adv-x="1253" unicode="◊"/><glyph d="M1845 1290l-10 -55q-61 -12 -93 -24.5t-67 -49.5t-55 -102l-272 -842q-16 -49 -18.5 -80t16 -47t35 -22.5t59.5 -16.5l-10 -51h-547l10 55q61 12 93 24.5t66.5 49.5t55.5 102l283 875l-750 -1106h-55l-68 1034l-264 -817q-16 -51 -18.5 -81t16 -46t37 -22.5t65.5 -16.5 l-10 -51h-403l10 55q63 12 96 24.5t69 49.5t56 102l281 861q10 29 14 50t0 35.5t-6 22.5t-17.5 15.5t-23.5 9.5t-33 7l-35 7l10 51h390q-6 -37 4 -172l51 -747l512 762q78 119 96 157h430z" glyph-name="M.aalt" horiz-adv-x="1644"/><glyph d="M1665 1290h350l-10 -55q-80 -16 -115 -38.5t-82 -90.5l-796 -1120h-86l-25 475l-338 -475h-80l2 2l-59 1128q-2 68 -22.5 87.5t-92.5 35.5l8 51h1248l-11 -55q-80 -16 -114.5 -38.5t-81.5 -90.5l-223 -313l28 -469l551 798q29 41 28 64.5t-16.5 32t-54.5 18.5 q-10 2 -16 4zM725 336l170 248l-27 532q-2 66 -20.5 92.5t-52.5 26.5q-45 0 -82 -33t-35 -94zM1239 1235q-49 0 -86 -32t-35 -95l10 -186l140 200q39 68 26.5 90.5t-55.5 22.5z" glyph-name="W.aalt" horiz-adv-x="1783"/><glyph d="M548.5 1040q-59.5 0 -104.5 43t-45 102.5t44 101.5t105.5 42t105.5 -42t44 -101.5t-45 -102.5t-104.5 -43zM504 326l39 -39q-207 -307 -369 -307q-68 0 -91.5 45t1.5 102l211 514q35 88 0 82q-51 -10 -172 -172q-4 -2 -6 -6l-37 39q203 307 366 307q68 0 92.5 -44 t0.5 -104l-211 -514q-37 -90 -2 -82q51 8 172 170q4 5 6 9z" glyph-name="i.aalt" horiz-adv-x="630"/><glyph d="M1931 899q80 0 132.5 -46t47.5 -144q-4 -119 -92 -293t-210.5 -304t-215.5 -130q-47 0 -91 27.5t-44 80.5q0 37 24.5 62.5t61.5 25.5q35 0 49.5 -32.5t19.5 -65.5t15 -33q68 0 150 236.5t90 375.5q4 76 -10.5 97.5t-42.5 21.5q-117 0 -269.5 -233.5t-257.5 -544.5h-207 l338 981q59 233 -168 233h-190l-324 -997q-10 -35 -15 -58.5t2 -41t14 -27.5t31 -17t41 -11.5t56 -10.5l-14 -51h-598l16 53q100 16 148.5 49t79.5 129l319 983h-151q-141 0 -223.5 -69.5t-147.5 -214.5h-51l139 381l94 -21h877l366 74l21 -31l-197 -602l-141 -293l12 2 q268 459 516 459z" glyph-name="T_h.dlig" horiz-adv-x="2119"/><glyph d="M1489 899q88 0 142.5 -61.5t54.5 -175.5q0 -156 -96.5 -315t-249 -262t-304.5 -103q-145 0 -209.5 85t-25.5 195l352 1028q0 35 -39 63.5t-113 28.5q-109 0 -207 -72.5t-145 -240.5l-53 -188h225l-30 -90l-218 12l-176 -633q-76 -268 -213 -409.5t-305 -141.5 q-94 0 -148.5 41t-54.5 102q0 45 30 75t73 30q47 0 68.5 -35t19.5 -78q-2 -70 67 -69q59 0 106.5 62.5t94.5 232.5l232 833l-226 12l19 56h225q76 274 232.5 421.5t367.5 147.5q133 0 251 -51t122 -109l-203 -598q162 207 334 207zM1071 43q88 0 180 119t148.5 272.5 t56.5 267.5q0 100 -65.5 100.5t-155.5 -103t-174 -285.5l-60 -178q-27 -59 -12.5 -126t82.5 -67z" glyph-name="f_b.dlig" horiz-adv-x="1718"/><glyph d="M1559 899q80 0 132 -46t48 -144q-4 -119 -92 -293t-211 -304t-215 -130q-47 0 -91.5 27.5t-44.5 80.5q0 37 25 62.5t61 25.5q35 0 49.5 -32.5t19.5 -65.5t15 -33q68 0 150 236.5t90 375.5q4 76 -10.5 97.5t-42.5 21.5q-117 0 -269.5 -233.5t-257.5 -544.5h-206l444 1290 q0 35 -39 63.5t-113 28.5q-109 0 -208 -71.5t-146 -241.5l-53 -188h225l-31 -90l-215 12l-176 -633q-76 -268 -213 -409.5t-305 -141.5q-94 0 -148.5 41t-54.5 102q0 45 30 75t73 30q47 0 68.5 -35t19.5 -78q-2 -70 67 -69q59 0 106.5 62.5t94.5 232.5l230 833l-226 12 l19 56h225q76 270 233.5 419.5t366.5 149.5q133 0 254 -52t121 -108l-187 -559l-141 -293l12 2q269 459 517 459z" glyph-name="f_h.dlig" horiz-adv-x="1746"/><glyph d="M1397 1278q8 -18 8 -45q0 -55 -43 -96t-100.5 -41t-100.5 41t-43 96q0 20 6 39q16 59 -15.5 84.5t-96.5 25.5q-72 0 -135.5 -23.5t-129 -97t-98.5 -192.5l-53 -188h219l-29 -90l-213 10l-176 -631q-76 -268 -213 -409.5t-305 -141.5q-94 0 -148.5 41t-54.5 102 q0 45 30 75t73 30q47 0 68.5 -35t19.5 -78q-2 -70 67 -69q59 0 106.5 62.5t94.5 232.5l232 831l-230 12l19 58h229q78 274 240.5 421.5t410.5 147.5q141 0 231.5 -45t123.5 -115l4 -8l2 -2v-2zM1169 891q66 0 89.5 -44t1.5 -112l-193 -583q-84 -258 -197.5 -384t-269.5 -126 q-100 0 -152.5 47t-52.5 116q0 53 32 87t79 34q109 0 80 -155q-12 -66 47 -66t90 57.5t90 237.5l207 641q29 92 -6 82q-49 -14 -172 -178l-37 39q202 307 364 307z" glyph-name="f_j.dlig" horiz-adv-x="1284"/><glyph d="M983 1450q133 0 254 -52t121 -108l-443 -1290h-206l444 1290q0 35 -39 63.5t-113 28.5q-109 0 -208 -71.5t-146 -241.5l-53 -188h223l-29 -90l-215 10l-176 -631q-76 -268 -213 -409.5t-305 -141.5q-94 0 -148.5 41t-54.5 102q0 45 30 75t73 30q47 0 68.5 -35t19.5 -78 q-2 -70 67 -69q59 0 106.5 62.5t94.5 232.5l230 831l-226 12l19 58h225q76 270 233.5 419.5t366.5 149.5zM1790 827q-82 -6 -146.5 -38.5t-164.5 -106.5l-150 -111l125 -399q37 -125 162 -16l14 -47q-131 -129 -231 -129q-109 0 -154 151l-110 387l268 195q139 102 -14 114 l16 54h403z" glyph-name="f_k.dlig" horiz-adv-x="1755"/><glyph d="M1237 803l-236 -645q-10 -29 15 -21q63 16 227 197l12 12l39 -39q-127 -160 -234.5 -242.5t-178.5 -82.5q-57 0 -86 53t-9 112l234 644h-477l-232 -633q-10 -29 15 -21q63 16 227 197l12 12l39 -39q-127 -160 -234.5 -242.5t-179.5 -82.5q-57 0 -85.5 53t-8.5 112 l242 668l-178 10l18 56h182l84 229l224 25l-93 -254h476l84 229l223 25l-92 -254h190l-31 -90z" glyph-name="t_t.dlig" horiz-adv-x="1384"/><glyph d="M1468 86q43 0 70 -29.5t27 -72.5q0 -72 -67.5 -114t-154.5 -42q-98 0 -250.5 91t-248.5 91q-6 -82 -91 -132t-175 -50q-76 0 -157 45t-164 91t-163 46q-86 0 -147 -43l-33 39l725 709h-277q-170 0 -241 -168h-51l143 334h700l-731 -715q90 0 161 -44t107.5 -97.5 t78.5 -98.5t81 -45q41 0 56.5 39t-2.5 86l725 709h-277q-170 0 -242 -168h-51l144 334h700l-731 -715q74 0 133 -28.5t96 -70.5t68 -84t61.5 -72t63.5 -30q27 0 32 14.5t-2.5 50.5t-7.5 52q0 37 25.5 62.5t66.5 25.5z" glyph-name="z_z.dlig" horiz-adv-x="1665"/><glyph d="M473 -18q-162 0 -248 102t-86 278q0 215 98.5 432.5t273.5 364t370 146.5q162 0 247.5 -102.5t85.5 -280.5q0 -215 -98 -431.5t-273 -362.5t-370 -146zM502 59q119 0 236.5 178.5t184 401.5t66.5 383q0 205 -137 205q-117 0 -235.5 -177.5t-186.5 -400.5t-68 -383 q1 -207 140 -207z" glyph-name="zero.lnum" horiz-adv-x="1214"/><glyph d="M-43 0l10 55q104 12 153.5 39t69.5 90l277 854q16 55 7 70.5t-50 7.5l-102 -18l14 53l416 172l26 -33l-360 -1120q-20 -63 6.5 -85t122.5 -34l-10 -51h-580z" glyph-name="one.lnum" horiz-adv-x="772"/><glyph d="M-53 0v66q25 18 115 83.5t133 97.5t131 99.5t137 110.5t121.5 108.5t113.5 116.5t84 109.5t61.5 111.5t18.5 103q0 137 -145 137q-199 0 -393 -232l-43 64q111 164 257 247t291 83q131 0 207 -74t76 -197q0 -94 -48 -188t-117.5 -168t-172 -154t-188.5 -135 t-190.5 -120.5t-153.5 -102.5l309 10q121 4 200.5 43t161.5 158l58 -15l-226 -403h-61l10 41h-747z" glyph-name="two.lnum" horiz-adv-x="1105"/><glyph d="M260 -25q-111 0 -195.5 39t-84.5 111q0 86 88 86q35 0 60.5 -25.5t38.5 -55.5t48 -55.5t88 -25.5q143 0 281.5 141.5t138.5 284.5q0 86 -59.5 127t-151.5 41q-76 0 -197 -43l-8 66l158 65q84 35 141.5 63.5t119.5 69.5t94 88t32 99q0 59 -39 91t-104 32q-74 0 -170.5 -41 t-186.5 -123l-35 63q109 119 241 175.5t253 56.5q119 0 180.5 -54.5t61.5 -154.5q0 -125 -95.5 -204t-283.5 -161q117 0 197.5 -60.5t80.5 -181.5q0 -137 -105.5 -257.5t-264 -188.5t-322.5 -68z" glyph-name="three.lnum" horiz-adv-x="1032"/><glyph d="M1081 1311l-276 -852h176l-51 -101h-158l-61 -188q-20 -63 4 -83.5t106 -35.5l-8 -51h-543l11 55q90 14 136 40t68 89l58 174h-467l-17 48l936 905h86zM197 459h378l177 534z" glyph-name="four.lnum" horiz-adv-x="1056"/><glyph d="M1040 1096h-491l-182 -281q272 37 400 -52t128 -249q0 -217 -201.5 -378t-441.5 -161q-109 0 -190.5 39t-81.5 117q0 80 77 80q39 0 66 -25.5t41 -57.5t47 -57.5t82 -25.5q129 0 243.5 133t114.5 279q0 123 -99 185.5t-300 19.5l-29 40l375 588h311q178 0 246 66h51z" glyph-name="five.lnum" horiz-adv-x="987"/><glyph d="M436 -25q-160 0 -241.5 92.5t-81.5 251.5q0 170 87 346.5t223 312.5t313 226t349 101l27 -68q-193 -18 -382 -189t-302 -396.5t-113 -415.5q0 -186 129 -187q94 0 185.5 89t142.5 212t51 228q0 172 -168 172q-45 0 -92 -11l21 47q68 55 180 56q121 0 199.5 -78t78.5 -217 q0 -223 -184 -397.5t-422 -174.5z" glyph-name="six.lnum" horiz-adv-x="1110"/><glyph d="M1190 1290l12 -43q-567 -600 -899 -1247h-178q291 504 842 1096h-375q-96 0 -156.5 -31t-138.5 -135h-55l237 395h47l-8 -35h672z" glyph-name="seven.lnum" horiz-adv-x="991"/><glyph d="M811 707q158 -96 158 -261q0 -193 -175.5 -328.5t-398.5 -135.5q-152 0 -245 74.5t-93 207.5t91.5 242.5t248.5 177.5q-68 82 -67 195q0 178 141 302t326 124q131 0 203.5 -69t72.5 -173q0 -106 -71.5 -198t-190.5 -158zM791 1233q-106 0 -180 -86t-74 -182 q0 -121 135 -187l59 -28q92 57 146.5 146t54.5 183q0 154 -141 154zM403 55q129 0 231.5 99.5t102.5 218.5q0 57 -35.5 98t-119.5 84l-70 37q-29 14 -57 37q-115 -61 -179.5 -156.5t-64.5 -208.5q0 -98 52 -153.5t140 -55.5z" glyph-name="eight.lnum" horiz-adv-x="1073"/><glyph d="M801 1305q160 0 241.5 -92.5t81.5 -251.5q0 -170 -87 -346.5t-223 -312.5t-313 -226t-349 -101l-27 68q193 18 382 189t302 396.5t113 415.5q0 186 -129 187q-94 0 -185.5 -89t-142.5 -212t-51 -228q0 -172 168 -172q45 0 92 11l-21 -47q-68 -55 -180 -56 q-121 0 -199.5 78t-78.5 217q0 223 184 397.5t422 174.5z" glyph-name="nine.lnum" horiz-adv-x="1101"/><glyph d="M489 -18q-162 0 -247.5 102t-85.5 278q0 215 98 432.5t273 364t370 146.5q162 0 248 -102.5t86 -280.5q0 -215 -98.5 -431.5t-273.5 -362.5t-370 -146zM518 59q119 0 236.5 178.5t184.5 401.5t67 383q0 205 -138 205q-117 0 -235.5 -177.5t-186 -400.5t-67.5 -383 q0 -207 139 -207z" glyph-name="zero.tnum"/><glyph d="M184 0l11 55q104 12 153 39t70 90l276 854q16 55 7 70.5t-50 7.5l-102 -18l14 53l416 172l27 -33l-361 -1120q-20 -63 6.5 -85t122.5 -34l-10 -51h-580z" glyph-name="one.tnum"/><glyph d="M29 0v66q25 18 114.5 83.5t132.5 97.5t131.5 99.5t137.5 110.5t121.5 108.5t113.5 116.5t84 109.5t61.5 111.5t18.5 103q0 137 -145 137q-199 0 -393 -232l-44 64q111 164 257.5 247t291.5 83q131 0 207 -74t76 -197q0 -94 -48 -188t-118 -168t-172 -154t-188 -135 t-190.5 -120.5t-153.5 -102.5l309 10q121 4 200.5 43t161.5 158l58 -15l-226 -403h-61l10 41h-747z" glyph-name="two.tnum"/><glyph d="M367 -25q-111 0 -196 39t-85 111q0 86 88 86q35 0 60.5 -25.5t39 -55.5t48 -55.5t88.5 -25.5q143 0 281 141.5t138 284.5q0 86 -59 127t-152 41q-76 0 -196 -43l-8 66l157 65q84 35 141.5 63.5t120 69.5t94 88t31.5 99q0 59 -38.5 91t-104.5 32q-74 0 -170 -41t-186 -123 l-35 63q109 119 241 175.5t253 56.5q119 0 180 -54.5t61 -154.5q0 -125 -95 -204t-284 -161q117 0 198 -60.5t81 -181.5q0 -137 -105.5 -257.5t-264 -188.5t-322.5 -68z" glyph-name="three.tnum"/><glyph d="M1151 1311l-277 -852h177l-52 -101h-157l-62 -188q-20 -63 4.5 -83.5t106.5 -35.5l-8 -51h-543l10 55q90 14 136 40t69 89l57 174h-467l-16 48l936 905h86zM266 459h379l176 534z" glyph-name="four.tnum"/><glyph d="M1145 1096h-492l-182 -281q272 37 400 -52t128 -249q0 -217 -201.5 -378t-441.5 -161q-109 0 -190.5 39t-81.5 117q0 80 78 80q39 0 65.5 -25.5t41 -57.5t47 -57.5t81.5 -25.5q129 0 244 133t115 279q0 123 -99.5 185.5t-300.5 19.5l-28 40l374 588h312q178 0 246 66h51z " glyph-name="five.tnum"/><glyph d="M496 -25q-160 0 -242 92.5t-82 251.5q0 170 87 346.5t223 312.5t313.5 226t349.5 101l26 -68q-193 -18 -382 -189t-301.5 -396.5t-112.5 -415.5q0 -186 129 -187q94 0 185 89t142.5 212t51.5 228q0 172 -168 172q-47 0 -92 -11l20 47q68 55 180 56q121 0 200 -78t79 -217 q0 -223 -184 -397.5t-422 -174.5z" glyph-name="six.tnum"/><glyph d="M1292 1290l13 -43q-567 -600 -899 -1247h-179q291 504 842 1096h-375q-96 0 -156.5 -31t-138.5 -135h-55l238 395h47l-8 -35h671z" glyph-name="seven.tnum"/><glyph d="M881 707q158 -96 157 -261q0 -193 -175 -328.5t-398 -135.5q-152 0 -245 74.5t-93 207.5t91 242.5t249 177.5q-68 82 -68 195q0 178 141.5 302t325.5 124q131 0 204 -69t73 -173q0 -106 -71.5 -198t-190.5 -158zM860 1233q-106 0 -180 -86t-74 -182q0 -121 135 -187 l60 -28q92 57 146 146t54 183q0 154 -141 154zM473 55q129 0 231.5 99.5t102.5 218.5q0 57 -36 98t-120 84l-69 37q-29 14 -58 37q-115 -61 -179 -156.5t-64 -208.5q0 -98 52 -153.5t140 -55.5z" glyph-name="eight.tnum"/><glyph d="M899 1305q160 0 242 -92.5t82 -251.5q0 -170 -87 -346.5t-223.5 -312.5t-313.5 -226t-349 -101l-27 68q193 18 382.5 189t302 396.5t112.5 415.5q0 186 -129 187q-94 0 -185.5 -89t-142.5 -212t-51 -228q0 -172 168 -172q45 0 92 11l-20 -47q-68 -55 -181 -56 q-121 0 -199.5 78t-78.5 217q0 223 184 397.5t422 174.5z" glyph-name="nine.tnum"/><glyph d="M145 -20q-66 0 -102.5 44t-36.5 119q0 131 85 247t202 116q66 0 102.5 -45t36.5 -121q0 -131 -85 -245.5t-202 -114.5zM141 12q74 0 140.5 141.5t66.5 243.5q0 76 -51 76q-74 0 -140.5 -142.5t-66.5 -242.5q0 -76 51 -76z" glyph-name="zero.dnom" horiz-adv-x="567"/><glyph d="M-51 0l6 23q78 10 96 59l96 297q4 14 6.5 23.5t1.5 16.5t-4.5 10t-11.5 3l-43 -6l8 23l160 67l12 -12l-141 -436q-8 -25 4.5 -32t50.5 -13l-6 -23h-235z" glyph-name="one.dnom" horiz-adv-x="419"/><glyph d="M-45 0l-4 33q18 14 83.5 59t102.5 74t86 71t72.5 78.5t23.5 67.5q0 25 -18 47.5t-51 22.5q-66 0 -148 -101l-14 43q82 121 201 121q55 0 88 -32.5t33 -86.5q0 -55 -41 -109.5t-81 -85t-118 -80.5t-96 -63l112 11q90 0 150 88l24 -15l-81 -143h-324z" glyph-name="two.dnom" horiz-adv-x="536"/><glyph d="M57 -20q-43 0 -75.5 12t-32.5 37q0 20 13 31.5t29.5 11.5t36 -32t52.5 -32q59 0 109.5 52.5t50.5 111.5q0 72 -86 72q-33 0 -72 -15l-2 25l65 25q72 27 110 54t38 73q0 43 -60 43q-76 0 -135 -56l-12 17q90 96 201 96q94 0 94 -76q0 -86 -150 -147q106 -8 107 -93 q0 -80 -90.5 -145t-190.5 -65z" glyph-name="three.dnom" horiz-adv-x="507"/><glyph d="M371 504l-107 -328h68l-21 -41h-61l-23 -69q-8 -25 3.5 -33t50.5 -13l-7 -20h-229l8 20q43 4 58.5 12.5t23.5 33.5l23 69h-199l6 41l320 328h86zM2 176h170l84 260z" glyph-name="four.dnom" horiz-adv-x="466"/><glyph d="M362 416h-188l-65 -103q223 14 223 -102q0 -88 -91 -159.5t-194 -71.5q-109 0 -108 49q0 16 13 29.5t30 13.5q18 0 37.5 -32t54.5 -32q55 0 104 52.5t49 109.5q0 88 -176 76l-8 16l147 230h123q72 0 97 24h16z" glyph-name="five.dnom" horiz-adv-x="516"/><glyph d="M154 -20q-66 0 -100 34.5t-34 94.5q0 135 128 261t270 136l4 -27q-119 -12 -216 -140t-97 -251q0 -78 59 -78t103 72t44 135q0 82 -106 74l8 26q78 23 136.5 -3.5t58.5 -94.5q0 -90 -81 -164.5t-177 -74.5z" glyph-name="six.dnom" horiz-adv-x="571"/><glyph d="M422 504l4 -12q-231 -256 -358 -492h-60q115 195 334 436h-152q-37 0 -59 -10t-51 -49h-17l82 135l31 -8h246z" glyph-name="seven.dnom" horiz-adv-x="460"/><glyph d="M410 377q-20 -59 -97 -107q86 -47 56 -137q-23 -70 -89.5 -111.5t-148.5 -41.5q-78 0 -116 38.5t-17 104.5q31 84 123 129q-35 47 -15 110q18 57 75 97.5t124 40.5q63 0 92 -37t13 -86zM350 375q14 31 1 60.5t-58 29.5q-78 0 -103 -74q-20 -57 52 -88l41 -18q51 35 67 90 zM272 102q10 35 -2 53.5t-57 41.5l-45 20q-16 8 -23 14q-63 -37 -86 -102q-16 -51 6.5 -83t81.5 -32q96 0 125 88z" glyph-name="eight.dnom" horiz-adv-x="571"/><glyph d="M283 498q66 0 99.5 -35t33.5 -94q0 -135 -128 -261t-270 -137l-4 27q119 12 216.5 140t97.5 251q0 78 -59.5 78t-103.5 -71.5t-44 -135.5q0 -82 106 -74l-8 -26q-78 -23 -136 3.5t-58 94.5q0 90 81 165t177 75z" glyph-name="nine.dnom" horiz-adv-x="561"/><glyph d="M412 797q-66 0 -103 44t-37 120q0 131 85 246.5t202 115.5q66 0 102.5 -45t36.5 -121q0 -131 -84.5 -245.5t-201.5 -114.5zM408 829q74 0 140 141.5t66 243.5q0 76 -51 76q-74 0 -140.5 -142t-66.5 -243q1 -76 52 -76z" glyph-name="zero.numr" horiz-adv-x="567"/><glyph d="M215 815l6 23q78 10 96 59l97 297q4 14 6 23.5t1 16.5t-4 10t-11 3l-44 -6l9 23l159 67l13 -12l-142 -436q-8 -25 4.5 -32t51.5 -13l-6 -23h-236z" glyph-name="one.numr" horiz-adv-x="421"/><glyph d="M217 805l-4 33q18 14 83.5 59t102.5 73.5t86.5 70.5t73 79t23.5 68q0 25 -18.5 47t-51.5 22q-66 0 -147 -100l-15 43q82 121 201 121q55 0 88 -32t33 -87t-41 -109.5t-81 -85t-118 -80.5t-96 -63l113 10q90 0 149 89l25 -15l-82 -143h-324z" glyph-name="two.numr" horiz-adv-x="538"/><glyph d="M319 786q-43 0 -75.5 12.5t-32.5 37.5q0 20 13.5 31.5t29.5 11.5t35.5 -32t52.5 -32q59 0 109.5 52.5t50.5 111.5q0 72 -86 72q-33 0 -72 -15l-2 25l66 24q72 27 109.5 54.5t37.5 72.5q0 43 -59 43q-76 0 -136 -55l-12 17q90 96 201 96q94 0 94 -76q0 -86 -149 -147 q106 -8 106 -93q0 -80 -90.5 -145.5t-190.5 -65.5z" glyph-name="three.numr" horiz-adv-x="507"/><glyph d="M631 1305l-107 -328h68l-21 -41h-61l-23 -70q-8 -25 3.5 -33t50.5 -12l-6 -20h-230l8 20q43 4 58.5 12.5t23.5 32.5l23 70h-199l6 41l320 328h86zM262 977h170l84 260z" glyph-name="four.numr" horiz-adv-x="466"/><glyph d="M629 1235h-189l-65 -102q223 14 223 -103q0 -88 -91 -159.5t-194 -71.5q-109 0 -108 49q0 16 13 29.5t30 13.5q18 0 37.5 -32t54.5 -32q55 0 104.5 52.5t49.5 109.5q0 88 -177 76l-8 16l148 230h123q72 0 96 24h16z" glyph-name="five.numr" horiz-adv-x="516"/><glyph d="M416 784q-66 0 -99.5 35t-33.5 94q0 135 128 261t269 137l4 -27q-119 -12 -216 -140t-97 -251q0 -78 59 -78t103.5 71.5t44.5 135.5q0 82 -107 74l8 26q78 23 136.5 -3.5t58.5 -94.5q0 -90 -81 -165t-177 -75z" glyph-name="six.numr" horiz-adv-x="571"/><glyph d="M686 1319l4 -12q-231 -256 -358 -492h-60q115 195 334 436h-151q-37 0 -59.5 -10t-51.5 -49h-16l82 135l30 -8h246z" glyph-name="seven.numr" horiz-adv-x="460"/><glyph d="M676 1192q-20 -59 -96 -107q86 -47 55 -137q-23 -70 -89.5 -111.5t-148.5 -41.5q-78 0 -115.5 38.5t-17.5 104.5q31 84 123 129q-35 47 -14 111q18 57 74.5 97t123.5 40q63 0 92 -37t13 -86zM616 1190q14 31 1 60.5t-58 29.5q-78 0 -102 -74q-20 -57 51 -88l41 -18 q51 35 67 90zM539 918q10 35 -2.5 53t-57.5 41l-45 20q-16 8 -22 15q-63 -37 -86 -103q-16 -51 6 -83t82 -32q96 1 125 89z" glyph-name="eight.numr" horiz-adv-x="573"/><glyph d="M545 1305q66 0 99.5 -35t33.5 -94q0 -135 -128 -261.5t-269 -136.5l-5 27q119 12 216.5 140t97.5 251q0 78 -59.5 78t-103.5 -72t-44 -135q0 -82 106 -74l-8 -26q-78 -23 -136 3.5t-58 94.5q0 90 81 165t177 75z" glyph-name="nine.numr" horiz-adv-x="561"/></font>
</defs>
</svg>
