<?xml version="1.0" standalone="no"?>
<!DOCTYPE svg PUBLIC "-//W3C//DTD SVG 1.1//EN" "http://www.w3.org/Graphics/SVG/1.1/DTD/svg11.dtd">
<svg xmlns="http://www.w3.org/2000/svg"><metadata>This SVG WebFont was generated by YouWorkForThem.
Â© 2016 Connary Fagen</metadata><defs><font horiz-adv-x="1265" id="ywftsvg"><font-face ascent="1638" bbox="-362 -711 2284 1956" cap-height="1434" descent="-410" font-family="" font-stretch="normal" font-weight="800" panose-1="0 0 9 0 0 0 0 0 0 0" underline-position="0" underline-thickness="0" unicode-range="U+0020-FB02" units-per-em="2048" x-height="1004"/><missing-glyph d="M831 1638v-2027h-643v2027h643zM676 1503h-336v-67h133v-76h-135v-66h338v66h-135v76h135v67zM541 1241h-203v-211h338v70h-135v141zM473 1171v-71h-67v71h67zM676 975h-338v-66h135v-75h-135v-68h203v143h135v66zM676 854h-68v-133h-270v-70h338v203zM676 606h-203v-112 h68v45h67v-95h-202v162h-68v-229h338v229zM676 256h-338v-229h338v229zM608 188v-94h-202v94h202zM676 -20h-338v-66h143l-143 -96v-68h338v68h-207l141 96h66v66z" horiz-adv-x="1013"/><glyph d="M1093.5 1180q-69.5 0 -116.5 48t-47 115q0 70 47 118t116.5 48t116.5 -48t47 -118q0 -68 -47 -115.5t-116.5 -47.5zM768 1473q20 -12 20 -37v-217q0 -18 -11 -24.5t-25 3.5q-55 33 -121 33t-85.5 -28.5t-19.5 -90.5v-108h213q31 0 31 -31v-187q0 -31 -31 -30h-213v-725 q0 -31 -30 -31h-246q-31 0 -31 31v725h-119q-31 0 -30 30v187q0 31 30 31h119v149q0 176 99.5 265t269.5 89q119 1 180 -34zM1217 1004q31 0 30 -31v-942q0 -31 -30 -31h-246q-31 0 -31 31v942q0 31 31 31h246z" glyph-name="uniFB01" horiz-adv-x="1341" unicode="fi"/><glyph d="M768 1473q20 -12 20 -37v-217q0 -18 -11 -24.5t-25 3.5q-55 33 -121 33t-85.5 -28.5t-19.5 -90.5v-108h213q31 0 31 -31v-187q0 -31 -31 -30h-213v-725q0 -31 -30 -31h-246q-31 0 -31 31v725h-119q-31 0 -30 30v187q0 31 30 31h119v149q0 176 99.5 265t269.5 89 q119 1 180 -34zM1217 1495q31 0 30 -31v-1433q0 -31 -30 -31h-246q-31 0 -31 31v1433q0 31 31 31h246z" glyph-name="uniFB02" horiz-adv-x="1345" unicode="fl"/><glyph d="M831 1638v-2027h-643v2027h643zM676 1503h-336v-67h133v-76h-135v-66h338v66h-135v76h135v67zM541 1241h-203v-211h338v70h-135v141zM473 1171v-71h-67v71h67zM676 975h-338v-66h135v-75h-135v-68h203v143h135v66zM676 854h-68v-133h-270v-70h338v203zM676 606h-203v-112 h68v45h67v-95h-202v162h-68v-229h338v229zM676 256h-338v-229h338v229zM608 188v-94h-202v94h202zM676 -20h-338v-66h143l-143 -96v-68h338v68h-207l141 96h66v66z" glyph-name=".notdef" horiz-adv-x="1013"/><glyph glyph-name="glyph1" horiz-adv-x="0"/><glyph glyph-name="glyph2" horiz-adv-x="681"/><glyph glyph-name="space" horiz-adv-x="573" unicode=" "/><glyph d="M496 1257l-78 -788q-2 -29 -31 -29h-108q-29 0 -31 29l-80 788q-8 86 40 139.5t124 53.5t124 -53.5t40 -139.5zM332 -27q-70 0 -118 48.5t-48 117.5q0 68 48 116t118 48q68 0 116 -48t48 -116q0 -70 -48 -118t-116 -48z" glyph-name="exclam" horiz-adv-x="663" unicode="!"/><glyph d="M324 1434q14 0 23 -8.5t7 -22.5l-26 -402q-4 -31 -31 -30h-160q-25 0 -31 30l-24 402q-2 14 7 22.5t24 8.5h211zM674 1434q14 0 23.5 -8.5t7.5 -22.5l-27 -402q-4 -31 -31 -30h-160q-25 0 -30 30l-25 402q-2 14 7.5 22.5t23.5 8.5h211z" glyph-name="quotedbl" horiz-adv-x="784" unicode="&quot;"/><glyph d="M1176 942h-132v-287h132q29 0 28 -30v-162q0 -31 -28 -31h-132v-237q0 -31 -30 -31h-221q-31 0 -31 31v237h-184v-237q0 -31 -31 -31h-221q-31 0 -31 31v237h-131q-31 0 -31 31v162q0 31 31 30h131v287h-131q-31 0 -31 31v162q0 31 31 30h131v238q0 31 31 31h221 q31 0 31 -31v-238h184v238q0 31 31 31h221q31 0 30 -31v-238h132q29 0 28 -30v-162q1 -31 -28 -31zM762 655v287h-184v-287h184z" glyph-name="numbersign" horiz-adv-x="1337" unicode="#"/><glyph d="M1098 410q0 -174 -114 -284t-282 -140v-140q0 -31 -30 -30h-174q-31 0 -31 30v142q-117 25 -215 83t-154 130q-16 23 2 43l142 157q18 27 45 5q160 -131 315 -132q78 0 131 38t53 104q0 45 -35.5 79.5t-93 59.5t-126 50.5t-138 60t-127 81t-93.5 120t-36 169.5 q0 154 92.5 259.5t237.5 140.5v151q0 31 31 31h174q31 0 30 -31v-147q188 -31 338 -180q23 -18 4 -43l-133 -162q-18 -27 -43 -8q-150 104 -264 104q-74 0 -114.5 -35t-40.5 -86t48 -89t119.5 -60.5t156.5 -58.5t156.5 -80t120 -129.5t48.5 -202.5z" glyph-name="dollar" horiz-adv-x="1167" unicode="$"/><glyph d="M381 1444q117 0 199 -80t82 -196.5t-82 -197.5t-199 -81t-198 81t-81 197.5t81 196.5t198 80zM1100 1423l170 -106l-879 -1307l-170 107zM381 1249q-33 0 -56.5 -23.5t-23.5 -58t23.5 -59.5t56.5 -25q35 0 59.5 25t24.5 59.5t-24.5 58t-59.5 23.5zM1110 545 q119 0 199 -81t80 -197.5t-80 -196.5t-199 -80q-117 0 -199 80t-82 196.5t82 197.5t199 81zM1110 350q-35 0 -58.5 -24.5t-23.5 -59.5t23.5 -58.5t58.5 -23.5q33 0 57.5 23.5t24.5 58.5t-24.5 59.5t-57.5 24.5z" glyph-name="percent" horiz-adv-x="1490" unicode="%"/><glyph d="M1194 322l164 -156q23 -23 0 -47l-127 -127q-23 -25 -45 -2l-166 160q-209 -168 -436 -168q-190 0 -337 113.5t-147 307.5q0 219 256 385q-154 158 -153 304q0 147 113.5 252.5t281.5 105.5q162 0 280.5 -106.5t118.5 -251.5q0 -205 -229 -363l246 -235q55 68 149 208 q18 29 43 11l156 -113q20 -14 4 -43q-92 -143 -172 -235zM477 1083q0 -68 96 -168q74 47 111 85t37 83t-35 78t-88 33t-87 -33t-34 -78zM621 260q106 0 215 68l-279 266q-145 -92 -145 -182q0 -59 55.5 -105.5t153.5 -46.5z" glyph-name="ampersand" horiz-adv-x="1429" unicode="&amp;"/><glyph d="M324 1434q14 0 23 -8.5t7 -22.5l-26 -402q-4 -31 -31 -30h-160q-25 0 -31 30l-24 402q-2 14 7 22.5t24 8.5h211z" glyph-name="quotesingle" horiz-adv-x="432" unicode="'"/><glyph d="M621 1526q41 0 18 -37q-199 -369 -199 -834q0 -492 203 -884q16 -37 -22 -37h-242q-25 0 -37 20q-219 393 -219 901q0 489 219 850q12 20 37 21h242z" glyph-name="parenleft" horiz-adv-x="770" unicode="("/><glyph d="M150 1526h241q25 0 37 -21q219 -360 219 -850q0 -508 -219 -901q-12 -20 -37 -20h-241q-39 0 -23 37q203 393 203 884q0 465 -199 834q-22 37 19 37z" glyph-name="parenright" horiz-adv-x="770" unicode=")"/><glyph d="M915 1126l-200 -55l137 -182l-182 -113l-125 176l-125 -176l-182 113l137 182l-201 55l51 213l221 -65l-8 231h209l-2 -231l219 65z" glyph-name="asterisk" horiz-adv-x="1089" unicode="*"/><glyph d="M848 696q31 0 31 -30v-162q0 -31 -31 -31h-230v-231q0 -31 -30 -31h-162q-31 0 -31 31v231h-231q-31 0 -31 31v162q0 31 31 30h231v232q0 31 31 30h162q31 0 30 -30v-232h230z" glyph-name="plus" horiz-adv-x="1011" unicode="+"/><glyph d="M264 303q74 0 121 -53t47 -146q0 -213 -211 -434l-76 45q74 113 91 256q-61 10 -102.5 57.5t-41.5 108.5q0 70 50 118t122 48z" glyph-name="comma" horiz-adv-x="524" unicode=","/><glyph d="M760 688q31 0 31 -31v-186q0 -31 -31 -31h-617q-31 0 -30 31v186q0 31 30 31h617z" glyph-name="hyphen" horiz-adv-x="851" unicode="-"/><glyph d="M258 -27q-70 0 -118 48.5t-48 117.5q0 68 48 116t118 48q68 0 116 -48t48 -116q0 -70 -48 -118t-116 -48z" glyph-name="period" horiz-adv-x="514" unicode="."/><glyph d="M1014 1526q37 0 24 -35l-671 -1733q-8 -25 -37 -24h-260q-37 0 -25 35l672 1732q8 25 37 25h260z" glyph-name="slash" horiz-adv-x="1083" unicode="/"/><glyph d="M678 1450q242 0 415 -193.5t173 -546t-172 -545t-416 -192.5q-242 0 -415 192.5t-173 545t173 546t415 193.5zM678 1165q-143 0 -218 -132t-75 -322.5t75 -321.5t218 -131t217 131t74 321.5t-74 322.5t-217 132z" glyph-name="zero" horiz-adv-x="1355" unicode="0"/><glyph d="M651 1434q31 0 31 -31v-1372q0 -31 -31 -31h-245q-31 0 -31 31v1155h-240q-33 0 -33 31v186q0 31 33 31h516z" glyph-name="one" horiz-adv-x="815" unicode="1"/><glyph d="M1001 248q31 0 31 -31v-186q0 -31 -31 -31h-851q-31 0 -31 31v217l198 213q61 66 143.5 147.5t120 121.5t78.5 89t55.5 87t14.5 79q0 84 -57.5 136.5t-141.5 52.5q-70 0 -136 -38t-111 -96q-20 -29 -45 -4l-148 144q-18 18 -2 43q66 98 184.5 162.5t268.5 64.5 q207 0 344 -129t137 -324q0 -66 -18.5 -122t-66.5 -121.5t-87 -109.5t-128 -136t-140 -150l-97 -110h516z" glyph-name="two" horiz-adv-x="1122" unicode="2"/><glyph d="M834 754q217 -117 217 -338q0 -190 -136.5 -316.5t-365.5 -126.5q-143 0 -267 55.5t-192 155.5q-16 25 2 43l150 142q25 25 45 0q96 -115 241 -115q104 0 162 53t58 131q0 68 -57.5 121t-194.5 57q-31 0 -31 31v170q0 31 35 31q231 6 231 170q0 68 -56.5 109.5 t-123.5 41.5q-139 0 -221 -110q-18 -27 -45 0l-150 141q-20 20 -2 43q70 94 186.5 150.5t245.5 56.5q180 0 308 -112.5t128.5 -286.5t-167.5 -297z" glyph-name="three" horiz-adv-x="1142" unicode="3"/><glyph d="M1114 516q31 0 31 -31v-188q0 -31 -31 -31h-123v-235q0 -31 -30 -31h-246q-31 0 -31 31v235h-571q-31 0 -31 31v199q0 18 10 39l580 878q12 20 37 21h252q31 0 30 -31v-887h123zM684 516v465l-303 -465h303z" glyph-name="four" horiz-adv-x="1236" unicode="4"/><glyph d="M565 973q203 0 339 -142.5t136 -341.5q0 -236 -145 -375t-377 -139q-145 0 -256.5 65.5t-163.5 158.5q-16 23 8 37l179 122q25 18 45 -2q72 -100 188 -100q98 0 160.5 69.5t62.5 163.5q0 88 -63.5 156t-157.5 68q-100 0 -166 -70q-18 -20 -41 -12l-192 59q-27 8 -21 37 l181 680q6 27 32 27h619q31 0 31 -31v-186q0 -31 -31 -31h-436l-62 -236q2 0 18.5 5.5t48 11.5t64.5 6z" glyph-name="five" horiz-adv-x="1128" unicode="5"/><glyph d="M674 965q190 -33 314 -166t124 -326q0 -215 -148.5 -357.5t-367.5 -142.5q-217 0 -365.5 142.5t-148.5 357.5q0 211 184 434l451 551q20 25 43 6l170 -145q25 -23 6 -43zM596 258q94 0 156.5 62.5t62.5 152.5q0 96 -63.5 160.5t-155.5 64.5t-154.5 -64.5t-62.5 -160.5 q0 -90 63.5 -152.5t153.5 -62.5z" glyph-name="six" horiz-adv-x="1193" unicode="6"/><glyph d="M1006 1434q31 0 24 -31l-536 -1372q-10 -31 -35 -31h-240q-14 0 -23.5 9t-2.5 22l456 1155h-538q-31 0 -31 31v186q0 31 31 31h895z" glyph-name="seven" horiz-adv-x="1093" unicode="7"/><glyph d="M602 -27q-201 0 -355.5 125t-154.5 338q0 129 63.5 228.5t172.5 150.5q-141 102 -142 272q0 150 115 256.5t301 106.5t301 -106.5t115 -256.5q0 -168 -139 -272q106 -51 169.5 -150.5t63.5 -228.5q0 -213 -154.5 -338t-355.5 -125zM602.5 926q61.5 0 102 41t43.5 98 q0 61 -42 102t-103.5 41t-103.5 -41t-40 -102q0 -57 41 -98t102.5 -41zM602 254q88 0 146.5 51t58.5 141.5t-60.5 143.5t-144.5 53q-82 0 -142.5 -53t-60.5 -143.5t57.5 -141.5t145.5 -51z" glyph-name="eight" horiz-adv-x="1204" unicode="8"/><glyph d="M571 1450q217 0 365.5 -142.5t148.5 -357.5q0 -211 -184 -434l-450 -551q-20 -25 -43 -6l-170 145q-25 23 -7 43l263 312q-190 33 -314.5 166t-124.5 325q0 215 148.5 357.5t367.5 142.5zM571.5 725q92.5 0 154.5 64.5t62 160.5q0 90 -63 152.5t-154 62.5 q-94 0 -156.5 -62.5t-62.5 -152.5q0 -96 63.5 -160.5t156 -64.5z" glyph-name="nine" horiz-adv-x="1167" unicode="9"/><glyph d="M258 684q-70 0 -118 48t-48 118q0 68 48 116t118 48q68 0 116 -48t48 -116q0 -70 -48 -118t-116 -48zM258 -27q-70 0 -118 48.5t-48 117.5q0 68 48 116t118 48q68 0 116 -48t48 -116q0 -70 -48 -118t-116 -48z" glyph-name="colon" horiz-adv-x="514" unicode=":"/><glyph d="M260 684q-70 0 -118 48t-48 118q0 68 48 116t118 48q68 0 116 -48t48 -116q0 -70 -48 -118t-116 -48zM264 303q74 0 121 -53t47 -146q0 -213 -211 -434l-76 45q74 113 91 256q-61 10 -102.5 57.5t-41.5 108.5q0 70 50 118t122 48z" glyph-name="semicolon" horiz-adv-x="516" unicode=";"/><glyph d="M899 985q14 8 25.5 1t11.5 -23v-197q0 -25 -23 -35l-510 -221l510 -221q23 -10 23 -35v-197q0 -16 -11.5 -23t-25.5 1l-754 368q-23 12 -22 33v148q0 20 22 32z" glyph-name="less" horiz-adv-x="1038" unicode="&lt;"/><glyph d="M889 868q31 0 31 -30v-162q0 -31 -31 -31h-725q-31 0 -31 31v162q0 31 31 30h725zM889 524q31 0 31 -30v-162q0 -31 -31 -31h-725q-31 0 -31 31v162q0 31 31 30h725z" glyph-name="equal" horiz-adv-x="1052" unicode="="/><glyph d="M180 985l754 -369q23 -12 22 -32v-148q0 -20 -22 -33l-754 -368q-16 -8 -26.5 -1t-10.5 23v197q0 25 23 35l510 221l-510 221q-23 10 -23 35v197q0 16 10.5 23t26.5 -1z" glyph-name="greater" horiz-adv-x="1079" unicode=">"/><glyph d="M557 1450q186 0 327.5 -110.5t141.5 -282.5q0 -139 -77 -231.5t-271 -192.5l-16 -162q-4 -31 -31 -31h-191q-27 0 -30 31l-21 287q-2 25 27 35q166 51 225 102t59 115q0 61 -52 96t-116 35q-131 0 -262 -117q-37 -33 -63 0l-121 147q-25 33 -2 62q178 217 473 217z M539 303q68 0 115.5 -48t47.5 -116q0 -70 -48 -118t-115 -48q-70 0 -118 48.5t-48 117.5q0 68 48 116t118 48z" glyph-name="question" horiz-adv-x="1118" unicode="?"/><glyph d="M1182 1026l-35 -364q-12 -109 67 -109q102 0 102.5 202.5t-138 335t-332.5 132.5q-213 0 -362.5 -143.5t-149.5 -372.5q0 -217 147.5 -356.5t352.5 -139.5q135 0 249 70l193 -127q-76 -76 -191.5 -123t-238.5 -47q-305 0 -530.5 200.5t-225.5 522.5q0 225 109.5 398 t279.5 259t367 86q297 0 506 -194.5t209 -501.5q0 -193 -103.5 -305.5t-263.5 -112.5q-119 0 -188 63q-74 -51 -177 -51q-156 0 -257 104.5t-101 258.5q0 152 101.5 256t256.5 104q123 0 205 -72l25 27h123zM829.5 555q65.5 0 107.5 44t42 112q0 66 -42 109.5t-107.5 43.5 t-108.5 -44t-43 -109.5t43 -110.5t108.5 -45z" glyph-name="at" horiz-adv-x="1650" unicode="@"/><glyph d="M1372 35q14 -35 -24 -35h-267q-27 0 -34 25l-72 221h-506l-72 -221q-8 -25 -35 -25h-266q-39 0 -24 35l495 1374q10 25 35 25h236q31 0 39 -25zM555 502h336l-168 514z" glyph-name="A" horiz-adv-x="1443" unicode="A"/><glyph d="M930 766q115 -31 197.5 -125t82.5 -227q0 -414 -534 -414h-504q-31 0 -31 31v1372q0 31 31 31h502q203 0 316.5 -105.5t113.5 -265.5q0 -106 -50 -186t-124 -111zM807 1022q0 131 -162 131h-186v-274h186q162 0 162 143zM688 281q94 0 149.5 43t55.5 129q0 164 -205 163 h-229v-335h229z" glyph-name="B" horiz-adv-x="1290" unicode="B"/><glyph d="M1190 397l158 -170q20 -23 0 -43q-201 -211 -506 -211q-309 0 -525.5 214t-216.5 523.5t216 524.5t526 215q303 0 506 -209q18 -20 0 -43l-158 -172q-18 -23 -43 -2q-135 115 -307 115q-174 0 -293 -123t-119 -305q0 -180 119 -303t293 -123q172 0 307 114q25 21 43 -2z " glyph-name="C" horiz-adv-x="1447" unicode="C"/><glyph d="M600 1434q356 0 555 -203t199 -514t-199 -514t-555 -203h-428q-31 0 -31 31v1372q0 31 31 31h428zM600 281q213 0 321.5 112.5t108.5 323.5t-108.5 323.5t-321.5 112.5h-141v-872h141z" glyph-name="D" horiz-adv-x="1441" unicode="D"/><glyph d="M942 281q31 0 31 -31v-219q0 -31 -31 -31h-770q-31 0 -31 31v1372q0 31 31 31h768q31 0 31 -31v-219q0 -31 -31 -31h-481v-281h452q31 0 31 -30v-219q0 -31 -31 -31h-452v-311h483z" glyph-name="E" horiz-adv-x="1105" unicode="E"/><glyph d="M922 1434q31 0 30 -31v-219q0 -31 -30 -31h-463v-281h436q31 0 31 -30v-219q0 -31 -31 -31h-436v-561q0 -31 -31 -31h-256q-31 0 -31 31v1372q0 31 31 31h750z" glyph-name="F" horiz-adv-x="1075" unicode="F"/><glyph d="M1477 821q31 0 30 -30v-140q0 -289 -179 -483.5t-476 -194.5q-315 0 -533.5 216.5t-218.5 527.5q0 305 216 519t526 214q303 0 506 -209q18 -20 0 -43l-158 -172q-18 -23 -43 -2q-135 115 -307 115q-174 0 -293 -122t-119 -300q0 -186 115.5 -309t304.5 -123 q160 0 253 78.5t99 193.5h-344q-31 0 -31 31v203q0 31 31 30h621z" glyph-name="G" horiz-adv-x="1597" unicode="G"/><glyph d="M1245 1434q31 0 31 -31v-1372q0 -31 -31 -31h-256q-31 0 -31 31v532h-499v-532q0 -31 -31 -31h-256q-31 0 -31 31v1372q0 31 31 31h256q31 0 31 -31v-559h499v559q0 31 31 31h256z" glyph-name="H" horiz-adv-x="1417" unicode="H"/><glyph d="M141 1403q0 31 31 31h256q31 0 31 -31v-1372q0 -31 -31 -31h-256q-31 0 -31 31v1372z" glyph-name="I" horiz-adv-x="600" unicode="I"/><glyph d="M233 358q16 23 46 2q2 -2 15 -10t18 -11t19.5 -11.5t24 -11.5t24.5 -9t29.5 -9t32 -5t35.5 -2q207 0 207 264v848q0 31 31 31h256q31 0 30 -31v-858q0 -287 -137 -425t-377 -138q-256 0 -385 151q-14 16 0 43z" glyph-name="J" horiz-adv-x="1142" unicode="J"/><glyph d="M1323 37q10 -16 5 -26.5t-23 -10.5h-304q-25 0 -36 18l-398 555l-108 -124v-418q0 -31 -31 -31h-256q-31 0 -31 31v1372q0 31 31 31h256q31 0 31 -31v-533l448 547q14 16 37 17h320q18 0 23 -11.5t-7 -25.5l-502 -580z" glyph-name="K" horiz-adv-x="1400" unicode="K"/><glyph d="M901 281q31 0 31 -31v-219q0 -31 -31 -31h-729q-31 0 -31 31v1372q0 31 31 31h256q31 0 31 -31v-1122h442z" glyph-name="L" horiz-adv-x="1032" unicode="L"/><glyph d="M1649 1434q31 0 30 -31v-1372q0 -31 -30 -31h-256q-31 0 -31 31v809l-27 -97l-274 -718q-8 -25 -37 -25h-225q-29 0 -39 25l-275 718l-26 99v-811q0 -31 -31 -31h-256q-31 0 -31 31v1372q0 31 31 31h281q29 0 36 -21l422 -1044l418 1044q8 20 37 21h283z" glyph-name="M" horiz-adv-x="1820" unicode="M"/><glyph d="M1290 1434q31 0 31 -31v-1372q0 -31 -31 -31h-291q-25 0 -36 20l-504 904v-893q0 -31 -31 -31h-256q-31 0 -31 31v1372q0 31 31 31h289q25 0 37 -21l506 -905v895q0 31 30 31h256z" glyph-name="N" horiz-adv-x="1462" unicode="N"/><glyph d="M838 -27q-305 0 -521.5 215t-216.5 522.5t216 523.5t522 216q307 0 523 -216t216 -523.5t-216 -522.5t-523 -215zM838 285q176 0 295.5 122.5t119.5 303.5q0 182 -119.5 305t-295.5 123t-295 -123t-119 -305q0 -180 120 -303t294 -123z" glyph-name="O" horiz-adv-x="1677" unicode="O"/><glyph d="M608 1434q252 0 392.5 -130t140.5 -345.5t-140.5 -345.5t-392.5 -130h-149v-452q0 -31 -31 -31h-256q-31 0 -31 31v1372q0 31 31 31h436zM602 764q98 0 167 45t69 149.5t-69 149.5t-167 45h-143v-389h143z" glyph-name="P" horiz-adv-x="1220" unicode="P"/><glyph d="M1452 301l113 -113q20 -20 0 -43l-174 -174q-23 -20 -43 0l-115 117q-178 -115 -395 -115q-305 0 -521.5 215t-216.5 522.5t216 523.5t522 216q307 0 523 -216t216 -523q0 -228 -125 -410zM838 285q84 0 166 32l-152 154q-20 20 -2 43l176 172q23 20 43 0l150 -149 q35 82 34 174q0 182 -119.5 305t-295.5 123t-295 -123t-119 -305q0 -180 120 -303t294 -123z" glyph-name="Q" horiz-adv-x="1677" unicode="Q"/><glyph d="M1169 37q23 -37 -20 -37h-272q-25 0 -37 20l-297 463h-84v-452q0 -31 -31 -31h-256q-31 0 -31 31v1372q0 31 31 31h436q252 0 392.5 -130t140.5 -346q0 -156 -75 -269.5t-216 -164.5zM459 1153v-389h143q98 0 167 45t69 149.5t-69 149.5t-167 45h-143z" glyph-name="R" horiz-adv-x="1275" unicode="R"/><glyph d="M449 1030q0 -51 48 -89t119.5 -60.5t156.5 -58.5t156.5 -80t120 -130t48.5 -202q0 -203 -151.5 -319t-352.5 -116q-154 0 -290 65.5t-206 160.5q-16 23 2 43l142 157q18 27 45 5q160 -131 315 -132q78 0 131 38t53 104q0 45 -35.5 79.5t-93 59.5t-126 50.5t-138 60 t-127 81t-93.5 120t-36 169.5q0 188 135.5 301t321.5 113q252 0 446 -190q23 -18 4 -43l-133 -162q-18 -27 -43 -8q-150 104 -264 104q-74 0 -114.5 -35t-40.5 -86z" glyph-name="S" horiz-adv-x="1187" unicode="S"/><glyph d="M1059 1434q31 0 31 -31v-219q0 -31 -31 -31h-305v-1122q0 -31 -31 -31h-256q-31 0 -31 31v1122h-305q-31 0 -31 31v219q0 31 31 31h928z" glyph-name="T" horiz-adv-x="1189" unicode="T"/><glyph d="M1204 1434q31 0 31 -31v-846q0 -276 -152.5 -430t-398.5 -154q-248 0 -400.5 154t-152.5 430v846q0 31 31 31h256q31 0 31 -31v-846q0 -270 235 -270q115 0 174.5 69.5t59.5 200.5v846q0 31 30 31h256z" glyph-name="U" horiz-adv-x="1366" unicode="U"/><glyph d="M1067 1409q8 25 35 25h266q39 0 25 -35l-496 -1374q-8 -25 -39 -25h-235q-25 0 -35 25l-496 1374q-14 35 25 35h266q27 0 35 -25l325 -991z" glyph-name="V" horiz-adv-x="1484" unicode="V"/><glyph d="M2198 1434q35 0 24 -35l-434 -1374q-10 -25 -39 -25h-250q-29 0 -35 25l-309 931l-311 -931q-8 -25 -33 -25h-250q-33 0 -39 25l-430 1374q-14 35 25 35h266q27 0 35 -25l272 -987l309 987q2 14 17 21q8 4 16 4h246q10 0 18 -4q8 -6 15 -21l309 -987l274 987q6 25 35 25 h269z" glyph-name="W" horiz-adv-x="2314" unicode="W"/><glyph d="M1268 37q20 -37 -21 -37h-270q-25 0 -37 20l-258 433l-258 -433q-12 -20 -37 -20h-270q-41 0 -21 37l418 696l-397 664q-20 37 20 37h271q25 0 36 -21l238 -397l238 397q12 20 36 21h271q41 0 20 -37l-397 -664z" glyph-name="X" horiz-adv-x="1363" unicode="X"/><glyph d="M1231 1434q41 0 20 -37l-417 -738v-628q0 -31 -31 -31h-258q-31 0 -31 31v635l-418 731q-20 37 21 37h270q25 0 37 -21l250 -450l250 450q12 20 37 21h270z" glyph-name="Y" horiz-adv-x="1347" unicode="Y"/><glyph d="M1106 281q31 0 31 -31v-219q0 -31 -31 -31h-965q-31 0 -30 31v229q0 18 12 37l649 856h-610q-31 0 -31 31v219q0 31 31 31h923q31 0 31 -31v-229q0 -18 -12 -37l-651 -856h653z" glyph-name="Z" horiz-adv-x="1245" unicode="Z"/><glyph d="M569 1526q31 0 31 -31v-186q0 -31 -31 -31h-127v-1296h127q31 0 31 -31v-187q0 -31 -31 -30h-415q-31 0 -31 30v1731q0 31 31 31h415z" glyph-name="bracketleft" horiz-adv-x="722" unicode="["/><glyph d="M70 1526h260q27 0 37 -25l671 -1732q12 -35 -24 -35h-260q-29 0 -37 24l-672 1733q-12 35 25 35z" glyph-name="backslash" horiz-adv-x="1083" unicode="\"/><glyph d="M154 1526h415q31 0 31 -31v-1731q0 -31 -31 -30h-415q-31 0 -31 30v187q0 31 31 31h127v1296h-127q-31 0 -31 31v186q0 31 31 31z" glyph-name="bracketright" horiz-adv-x="722" unicode="]"/><glyph d="M1077 657q8 -14 1 -25t-23 -11h-197q-25 0 -35 22l-221 510l-221 -510q-10 -23 -35 -22h-196q-16 0 -23.5 11t0.5 25l369 754q12 23 32 23h148q20 0 33 -23z" glyph-name="asciicircum" horiz-adv-x="1204" unicode="^"/><glyph d="M1116 0q31 0 31 -31v-186q0 -31 -31 -31h-962q-31 0 -31 31v186q0 31 31 31h962z" glyph-name="underscore" horiz-adv-x="1269" unicode="_"/><glyph d="M106 1491h222q25 0 34 -25l123 -258q16 -35 -24 -34h-221q-25 0 -35 24l-123 258q-17 35 24 35z" glyph-name="grave" horiz-adv-x="520" unicode="`"/><glyph d="M1114 1004q31 0 31 -31v-942q0 -31 -31 -31h-209q-27 0 -31 31l-12 86q-106 -131 -287 -131q-209 0 -347 148.5t-138 365.5q0 221 138.5 372.5t346.5 151.5q176 0 289 -143l10 92q4 31 31 31h209zM612 266q100 0 163 65.5t63 170.5q0 102 -62.5 171.5t-163.5 69.5 q-98 0 -162.5 -67.5t-64.5 -173.5q0 -104 64.5 -170t162.5 -66z" glyph-name="a" unicode="a"/><glyph d="M690 1024q209 0 347.5 -151.5t138.5 -372.5q0 -217 -138.5 -365.5t-347.5 -148.5q-180 0 -287 131l-12 -86q-4 -31 -31 -31h-208q-31 0 -31 31v1433q0 31 31 31h245q31 0 31 -31v-553q106 113 262 113zM653 266q98 0 163 65.5t65 170.5q0 106 -64.5 173.5t-163.5 67.5 q-100 0 -162.5 -69.5t-62.5 -171.5q0 -104 62.5 -170t162.5 -66z" glyph-name="b" unicode="b"/><glyph d="M612 270q100 0 191 78q25 20 45 0l147 -141q20 -20 2 -43q-156 -178 -393 -178q-217 0 -365.5 151.5t-148.5 370.5q0 215 149.5 365.5t364.5 150.5q231 0 387 -178q18 -23 -2 -43l-147 -144q-20 -20 -45 3q-88 78 -185 77q-98 0 -162.5 -66.5t-64.5 -164.5 q0 -100 64.5 -169t162.5 -69z" glyph-name="c" horiz-adv-x="1085" unicode="c"/><glyph d="M1114 1495q31 0 31 -31v-1433q0 -31 -31 -31h-209q-27 0 -31 31l-12 86q-106 -131 -287 -131q-209 0 -347 148.5t-138 365.5q0 221 138.5 372.5t346.5 151.5q156 0 263 -113v553q0 31 30 31h246zM612 266q100 0 163 65.5t63 170.5q0 102 -62.5 171.5t-163.5 69.5 q-98 0 -162.5 -67.5t-64.5 -173.5q0 -104 64.5 -170t162.5 -66z" glyph-name="d" unicode="d"/><glyph d="M1077 524q0 -68 -14 -97.5t-59 -29.5h-609q47 -166 258 -166q100 0 195 60q25 16 45 -4l106 -103q18 -23 -4 -45q-154 -154 -372 -153q-233 0 -383 150.5t-150 369.5t145.5 368.5t364.5 149.5q213 0 345 -145.5t132 -354.5zM602 764q-80 0 -137 -44t-74 -128h414 q-14 84 -69.5 128t-133.5 44z" glyph-name="e" horiz-adv-x="1167" unicode="e"/><glyph d="M946 1331q14 -14 -2 -31l-123 -118q-14 -14 -28 -4q-88 53 -158 53q-66 0 -87.5 -30t-21.5 -89v-108h203q31 0 31 -31v-187q0 -31 -31 -30h-203v-725q0 -31 -30 -31h-246q-31 0 -31 31v725h-119q-31 0 -30 30v187q0 31 30 31h119v149q0 176 100.5 265t272.5 89 q209 0 354 -176z" glyph-name="f" horiz-adv-x="927" unicode="f"/><glyph d="M1120 1004q31 0 31 -31v-965q0 -115 -50 -199.5t-132 -129t-170 -65t-183 -20.5q-266 0 -446 132q-20 14 -8 41l80 143q18 25 41 12q133 -78 309 -78q104 0 190 44t86 147v94q-119 -135 -295 -135q-207 0 -345 150.5t-138 365.5t138.5 365.5t344.5 150.5q168 0 287 -133 l6 80q4 31 31 31h223zM612 274q94 0 160 72t66 166t-65.5 165t-160.5 71q-96 0 -161.5 -69t-65.5 -167q0 -100 64.5 -169t162.5 -69z" glyph-name="g" horiz-adv-x="1271" unicode="g"/><glyph d="M737 1026q156 0 260.5 -117.5t104.5 -314.5v-563q0 -31 -31 -31h-246q-31 0 -30 31v501q0 111 -50.5 160t-121.5 49q-90 0 -142.5 -65.5t-52.5 -118.5v-526q0 -31 -31 -31h-245q-31 0 -31 31v1433q0 31 31 31h245q31 0 31 -31v-618q108 180 309 180z" glyph-name="h" horiz-adv-x="1222" unicode="h"/><glyph d="M284.5 1180q-69.5 0 -116.5 48t-47 115q0 70 47 118t116.5 48t117 -48t47.5 -118q0 -68 -47.5 -115.5t-117 -47.5zM131 973q0 31 31 31h246q31 0 30 -31v-942q0 -31 -30 -31h-246q-31 0 -31 31v942z" glyph-name="i" horiz-adv-x="569" unicode="i"/><glyph d="M420 1180q-68 0 -116 48t-48 115q0 70 48 118t116 48q70 0 118 -48t48 -118q0 -68 -48 -115.5t-118 -47.5zM301 1004h246q31 0 31 -31v-950q0 -205 -117 -313.5t-316 -115.5q-20 0 -24 17l-78 250q-8 23 14 22q86 6 149.5 54.5t63.5 146.5v889q0 31 31 31z" glyph-name="j" horiz-adv-x="706" unicode="j"/><glyph d="M1147 37q10 -16 5 -26.5t-24 -10.5h-264q-25 0 -37 18l-278 371l-121 -131v-227q0 -31 -31 -31h-245q-31 0 -31 31v1433q0 31 31 31h245q31 0 31 -31v-833l328 356q14 16 35 17h278q20 0 25.5 -11.5t-9.5 -25.5l-350 -377z" glyph-name="k" horiz-adv-x="1216" unicode="k"/><glyph d="M121 1464q0 31 31 31h245q31 0 31 -31v-1433q0 -31 -31 -31h-245q-31 0 -31 31v1433z" glyph-name="l" horiz-adv-x="548" unicode="l"/><glyph d="M1391 1026q170 0 277.5 -116.5t107.5 -315.5v-563q0 -31 -31 -31h-246q-31 0 -31 31v501q0 111 -50 160t-122 49q-88 0 -141 -56t-53 -114v-540q0 -31 -31 -31h-246q-31 0 -30 31v501q0 111 -50.5 160t-121.5 49q-90 0 -142.5 -65.5t-52.5 -118.5v-526q0 -31 -31 -31 h-245q-31 0 -31 31v942q0 31 31 31h237q27 0 31 -31l8 -127q109 180 309 180q98 0 178 -47t127 -135q124 182 349 182z" glyph-name="m" horiz-adv-x="1896" unicode="m"/><glyph d="M737 1026q156 0 260.5 -117.5t104.5 -314.5v-563q0 -31 -31 -31h-246q-31 0 -30 31v501q0 111 -50.5 160t-121.5 49q-90 0 -142.5 -65.5t-52.5 -118.5v-526q0 -31 -31 -31h-245q-31 0 -31 31v942q0 31 31 31h237q27 0 31 -31l8 -127q108 180 309 180z" glyph-name="n" horiz-adv-x="1222" unicode="n"/><glyph d="M612 -20q-217 0 -369.5 152.5t-152.5 369.5q0 219 152.5 371.5t369.5 152.5q219 0 372 -152.5t153 -371.5q0 -217 -153 -369.5t-372 -152.5zM612 264q96 0 162 67.5t66 170.5q0 104 -65.5 171.5t-162.5 67.5q-94 0 -160.5 -68.5t-66.5 -171t66.5 -170t160.5 -67.5z" glyph-name="o" horiz-adv-x="1226" unicode="o"/><glyph d="M690 1024q209 0 347.5 -151.5t138.5 -372.5q0 -217 -138.5 -365.5t-347.5 -148.5q-162 0 -262 104v-448q0 -31 -31 -31h-245q-31 0 -31 31v1331q0 31 31 31h208q27 0 31 -31l10 -92q113 143 289 143zM653 266q98 0 163 65.5t65 170.5q0 106 -64.5 173.5t-163.5 67.5 q-100 0 -162.5 -69.5t-62.5 -171.5q0 -104 62.5 -170t162.5 -66z" glyph-name="p" unicode="p"/><glyph d="M1114 1004q31 0 31 -31v-1331q0 -31 -31 -31h-246q-31 0 -30 31v448q-100 -104 -263 -104q-209 0 -347 148.5t-138 365.5q0 221 138.5 372.5t346.5 151.5q176 0 289 -143l10 92q4 31 31 31h209zM612 266q100 0 163 65.5t63 170.5q0 102 -62.5 171.5t-163.5 69.5 q-98 0 -162.5 -67.5t-64.5 -173.5q0 -104 64.5 -170t162.5 -66z" glyph-name="q" unicode="q"/><glyph d="M823 975q20 -18 11 -45l-68 -176q-10 -33 -51 -23q-55 16 -84 17q-92 0 -147.5 -61.5t-55.5 -156.5v-499q0 -31 -31 -31h-245q-31 0 -31 31v942q0 31 31 31h235q27 0 31 -31l8 -117q88 170 258 170q84 0 139 -51z" glyph-name="r" horiz-adv-x="864" unicode="r"/><glyph d="M401 713q0 -37 48.5 -60.5t117 -42t137 -47t116.5 -96.5t48 -170q0 -145 -121.5 -231t-273.5 -86q-121 0 -223.5 49t-161.5 118q-14 18 0 41l90 131q14 18 47 0q135 -84 238 -83q106 0 106 65q0 37 -48 61.5t-115.5 45t-135 50t-116 94t-48.5 159.5q0 145 105.5 230 t249.5 85q223 0 352 -152q16 -20 -2 -43l-92 -120q-14 -18 -45 2q-121 70 -182 69q-43 0 -67 -20t-24 -49z" glyph-name="s" horiz-adv-x="946" unicode="s"/><glyph d="M735 1004q31 0 31 -31v-187q0 -31 -31 -30h-164v-725q0 -31 -30 -31h-246q-31 0 -31 31v725h-164q-31 0 -30 30v187q0 31 30 31h164v276q0 31 31 31h246q31 0 30 -31v-276h164z" glyph-name="t" horiz-adv-x="835" unicode="t"/><glyph d="M1061 1004q31 0 31 -31v-942q0 -31 -31 -31h-238q-27 0 -30 31l-9 108q-117 -166 -290 -166q-170 0 -276.5 117t-106.5 316v567q0 31 30 31h246q31 0 31 -31v-506q0 -111 52 -159t124 -48q90 0 140 56.5t50 121.5v535q0 31 31 31h246z" glyph-name="u" horiz-adv-x="1212" unicode="u"/><glyph d="M834 979q10 25 36 25h248q37 0 25 -35l-377 -944q-8 -25 -37 -25h-242q-29 0 -36 25l-377 944q-12 35 24 35h248q27 0 37 -25l225 -619z" glyph-name="v" horiz-adv-x="1216" unicode="v"/><glyph d="M1808 1004q37 0 25 -35l-348 -944q-10 -25 -37 -25h-238q-27 0 -36 25l-222 581l-221 -581q-10 -25 -37 -25h-235q-27 0 -37 25l-348 944q-12 35 24 35h242q29 0 37 -25l209 -619l217 619q6 18 20 20q8 4 17 5h227q8 0 16 -5q14 -2 21 -20l219 -619l207 619q10 25 37 25 h241z" glyph-name="w" horiz-adv-x="1906" unicode="w"/><glyph d="M1114 37q10 -16 4 -26.5t-24 -10.5h-279q-23 0 -37 20l-170 265l-172 -265q-14 -20 -37 -20h-278q-18 0 -24.5 10t3.5 27l330 477l-313 453q-10 16 -4 26.5t24 10.5h279q23 0 37 -21l155 -238l154 238q14 20 37 21h278q18 0 24.5 -10.5t-3.5 -26.5l-314 -453z" glyph-name="x" horiz-adv-x="1214" unicode="x"/><glyph d="M1122 1004q37 0 25 -35l-531 -1334q-10 -25 -36 -24h-240q-43 0 -25 35l146 352l-387 971q-12 35 24 35h248q27 0 37 -25l225 -619l226 619q10 25 36 25h252z" glyph-name="y" horiz-adv-x="1220" unicode="y"/><glyph d="M940 973v-195q0 -25 -14 -39l-477 -489h460q31 0 31 -31v-188q0 -31 -31 -31h-798q-31 0 -31 31v196q0 25 14 39l475 490h-458q-31 0 -31 30v187q0 31 31 31h798q31 0 31 -31z" glyph-name="z" horiz-adv-x="1019" unicode="z"/><glyph d="M641 1526q31 0 31 -31v-186q0 -31 -31 -31h-41q-72 0 -72 -64v-428q0 -20 -14 -36l-76 -101q-20 -20 0 -43l76 -98q14 -20 14 -37v-424q0 -66 72 -65h41q31 0 31 -31v-187q0 -31 -31 -30h-219q-84 0 -148.5 49t-64.5 166v512q0 23 -10 39l-68 106q-12 23 -2 41l70 111 q10 18 10 39v514q0 117 64.5 166t148.5 49h219z" glyph-name="braceleft" horiz-adv-x="794" unicode="{"/><glyph d="M131 1608q0 31 31 30h256q31 0 31 -30v-1966q0 -31 -31 -31h-256q-31 0 -31 31v1966z" glyph-name="bar" horiz-adv-x="579" unicode="|"/><glyph d="M96 1526h219q84 0 148.5 -49.5t64.5 -165.5v-514q0 -20 11 -39l69 -111q10 -18 -2 -41l-67 -106q-10 -16 -11 -39v-512q0 -117 -64.5 -166t-148.5 -49h-219q-31 0 -30 30v187q0 31 30 31h41q72 0 72 65v424q0 16 14 37l76 98q20 23 0 43l-76 101q-14 16 -14 36v428 q0 63 -72 64h-41q-31 0 -30 31v186q-1 31 30 31z" glyph-name="braceright" horiz-adv-x="737" unicode="}"/><glyph d="M373 758q78 0 147.5 -40t127 -80t108.5 -40q37 0 64.5 18.5t37.5 42.5q12 18 25 19h75q23 0 23 -23q4 -121 -67.5 -183t-182.5 -62q-78 0 -146.5 39.5t-126 79.5t-106.5 40q-37 0 -66.5 -18.5t-39.5 -42.5q-6 -18 -25 -19h-76q-27 0 -22 29q14 119 81 179.5t169 60.5z " glyph-name="asciitilde" horiz-adv-x="1103" unicode="~"/><glyph d="M332 1092q68 0 116 -48.5t48 -117.5q0 -68 -48.5 -116t-115.5 -48q-70 0 -118 48t-48 116q0 70 48 118t118 48zM496 -193q8 -86 -40 -139t-124 -53t-124 53t-40 139l80 789q2 29 31 29h108q29 0 31 -29z" glyph-name="exclamdown" horiz-adv-x="561" unicode="¡"/><glyph d="M995 356q20 -20 2 -43q-119 -135 -297 -166v-198q0 -31 -30 -31h-140q-31 0 -30 31v201q-180 35 -295 175t-115 326q0 184 116 322.5t294 173.5v256q0 31 30 31h140q31 0 30 -31v-254q176 -35 291 -166q18 -23 -2 -43l-147 -139q-20 -20 -45 2q-47 41 -97 59v-430 q53 20 103 64q25 18 45 0zM385 651q0 -141 115 -205v404q-115 -62 -115 -199z" glyph-name="cent" horiz-adv-x="1064" unicode="¢"/><glyph d="M672 1139q-70 0 -114 -39t-44 -113q0 -37 12.5 -71.5t22.5 -52t37 -54.5h424q31 0 30 -31v-219q0 -31 -30 -31h-338q-10 -131 -125 -247h502q31 0 30 -31v-219q0 -31 -30 -31h-887q-31 0 -31 31v250q94 45 151.5 99t69.5 148h-198q-31 0 -31 31v219q0 31 31 31h84 q-49 98 -50 221q0 182 134.5 301t318.5 119q137 0 242.5 -55.5t210.5 -157.5q25 -23 -2 -59l-111 -148q-18 -29 -63 4q-78 61 -129 83t-117 22z" glyph-name="sterling" horiz-adv-x="1228" unicode="£"/><glyph d="M1087 975q0 -106 -49 -209l95 -94l-160 -158l-84 84q-119 -82 -260 -82q-139 0 -256 78l-80 -80l-160 158l90 90q-53 96 -53 213t55 221l-92 92l160 158l86 -86q113 74 250 74q141 0 254 -78l90 90l160 -158l-99 -98q53 -96 53 -215zM629 725q123 0 188.5 81t65.5 169 q0 86 -65.5 168t-188.5 82q-121 0 -185.5 -82t-64.5 -168q0 -88 63.5 -169t186.5 -81z" glyph-name="currency" unicode="¤"/><glyph d="M1231 1434q41 0 20 -37l-413 -731h147q31 0 31 -31v-162q0 -31 -31 -31h-151v-82h151q31 0 31 -30v-162q0 -31 -31 -31h-151v-106q0 -31 -31 -31h-258q-31 0 -31 31v106h-172q-31 0 -31 31v162q0 31 31 30h172v82h-172q-31 0 -31 31v162q0 31 31 31h172l-418 731 q-20 37 21 37h270q25 0 37 -21l250 -450l250 450q12 20 37 21h270z" glyph-name="yen" horiz-adv-x="1327" unicode="¥"/><glyph d="M418 1638q31 0 31 -30v-574q0 -31 -31 -30h-256q-31 0 -31 30v574q0 31 31 30h256zM418 246q31 0 31 -31v-573q0 -31 -31 -31h-256q-31 0 -31 31v573q0 31 31 31h256z" glyph-name="brokenbar" horiz-adv-x="579" unicode="¦"/><glyph d="M1378 608q0 -248 -229 -366q-14 -188 -169 -295t-357 -107q-174 0 -313.5 67.5t-217.5 168.5q-25 29 0 57l111 152q20 33 63 2q199 -139 361 -140q92 0 145 34t53 98q0 53 -52 92t-130 59.5t-169 54t-169 73.5t-130 123t-52 198q0 260 229 372q14 182 151.5 284.5 t327.5 102.5q262 0 490 -213q23 -23 -2 -59l-111 -147q-18 -27 -63 4q-96 59 -163 84.5t-142 25.5q-82 0 -123 -34.5t-41 -84t39 -83t100.5 -55t137 -42t150.5 -51.5t136 -74t100 -121t39 -180zM449 883q0 -61 65.5 -102.5t152.5 -61t196.5 -62.5t174.5 -102q14 25 15 55 q0 59 -65.5 100.5t-152.5 63t-196 65.5t-174 101q-16 -28 -16 -57z" glyph-name="section" horiz-adv-x="1458" unicode="§"/><glyph d="M182.5 1139q-61.5 0 -106.5 44t-45 109q0 63 45 107.5t106.5 44.5t106.5 -44t45 -108q0 -66 -45 -109.5t-106.5 -43.5zM647.5 1139q-61.5 0 -106.5 44t-45 109q0 63 45 107.5t106.5 44.5t106.5 -44t45 -108q0 -66 -45 -109.5t-106.5 -43.5z" glyph-name="dieresis" horiz-adv-x="829" unicode="¨"/><glyph d="M680 279q-244 0 -417 172t-173 413.5t173 413.5t417 172t418 -172t174 -413.5t-174 -413.5t-418 -172zM680 451q170 0 288.5 120.5t118.5 292.5t-118.5 293t-288.5 121t-288 -121t-118 -293t118 -292.5t288 -120.5zM860 688q18 -25 -4 -43q-66 -59 -162 -59 q-113 0 -195.5 82t-82.5 196q0 117 83 198t195 81q92 0 166 -60q18 -16 0 -43l-57 -61q-14 -16 -41 -2q-29 14 -64 14q-51 0 -88 -36.5t-37 -90t37 -90.5t88 -37q20 0 64 15q29 12 41 -2z" glyph-name="copyright" horiz-adv-x="1361" unicode="©"/><glyph d="M625 1434h192v-736h-192l-17 50q-70 -49 -155 -50q-156 0 -264.5 108.5t-108.5 264.5t108.5 264.5t264.5 108.5q86 0 155 -49zM452.5 913q67.5 0 113.5 45.5t46 113t-46 114.5t-113.5 47t-112.5 -47t-45 -114.5t45 -113t112.5 -45.5z" glyph-name="ordfeminine" horiz-adv-x="897" unicode="ª"/><glyph d="M92 647q0 23 17 37l225 203q14 12 25.5 6t11.5 -27v-153q0 -23 -17 -37l-137 -117l137 -117q16 -14 17 -36v-154q0 -20 -11.5 -25.5t-25.5 6.5l-225 201q-16 14 -17 37v176zM446 647q0 23 17 37l225 203q14 12 25.5 6t11.5 -27v-153q0 -23 -16 -37l-138 -117l138 -117 q16 -14 16 -36v-154q0 -20 -11.5 -25.5t-25.5 6.5l-225 201q-16 14 -17 37v176z" glyph-name="guillemotleft" horiz-adv-x="817" unicode="«"/><glyph d="M983 645q31 0 31 -31v-331q0 -31 -31 -31h-240q-31 0 -30 31v112h-559q-31 0 -31 31v188q0 31 31 31h829z" glyph-name="logicalnot" horiz-adv-x="1136" unicode="¬"/><glyph d="M760 688q31 0 31 -31v-186q0 -31 -31 -31h-617q-31 0 -30 31v186q0 31 30 31h617z" glyph-name="uni00AD" horiz-adv-x="839" unicode="­"/><glyph d="M680 1450q244 0 418 -172t174 -413.5t-174 -413.5t-418 -172t-417 172t-173 413.5t173 413.5t417 172zM680 451q170 0 288.5 120.5t118.5 292.5t-118.5 293t-288.5 121t-288 -121t-118 -293t118 -292.5t288 -120.5zM825 766l138 -137q14 -18 -7 -19h-137q-14 0 -20 6 l-135 140h-68v-131q0 -14 -14 -15h-121q-16 0 -17 15v479q0 14 17 14h276q225 0 226 -180q-1 -141 -138 -172zM739 997h-143v-118h143q66 0 66 59t-66 59z" glyph-name="registered" horiz-adv-x="1361" unicode="®"/><glyph d="M696 1434q31 0 31 -31v-176q0 -31 -31 -31h-635q-31 0 -30 31v176q0 31 30 31h635z" glyph-name="macron" horiz-adv-x="757" unicode="¯"/><glyph d="M428 1473q125 0 214 -88.5t89 -210.5q0 -125 -89 -214.5t-214 -89.5t-215 89.5t-90 214.5q0 123 90 211t215 88zM428 1290q-59 0 -88 -38t-29 -78q0 -45 29 -83t88 -38q57 0 87 38.5t30 82.5q0 39 -30 77.5t-87 38.5z" glyph-name="degree" horiz-adv-x="854" unicode="°"/><glyph d="M184 553q-31 0 -30 31v161q0 31 30 31h232v232q0 31 30 30h162q31 0 31 -30v-232h229q31 0 31 -31v-161q0 -31 -31 -31h-229v-231q0 -31 -31 -31h-162q-31 0 -30 31v231h-232zM889 223q31 0 31 -30v-162q0 -31 -31 -31h-725q-31 0 -31 31v162q0 31 31 30h725z" glyph-name="plusminus" horiz-adv-x="1052" unicode="±"/><glyph d="M223 1442q70 0 121 -46t51 -108q0 -53 -29.5 -96t-109.5 -125l-96 -100h241v-66h-344v66l140 141q57 59 74.5 78.5t31.5 46.5t14 55q0 37 -28.5 63.5t-65.5 26.5q-39 0 -67.5 -26.5t-28.5 -75.5v-29h-76v29q0 72 50 119t122 47z" glyph-name="uni00B2" horiz-adv-x="491" unicode="²"/><glyph d="M281 1440q66 0 114.5 -42t48.5 -98q0 -66 -61 -108q86 -37 86 -135q0 -70 -56.5 -117t-131.5 -47q-84 0 -138.5 55.5t-48.5 130.5h78q-10 -47 23.5 -84t85.5 -37q45 0 77.5 28t32.5 71q0 57 -41 79.5t-110 10.5v65q129 6 129 88q0 31 -26 53.5t-62 22.5q-45 0 -72 -31.5 t-23 -84.5h-77q-8 76 43 128t129 52z" glyph-name="uni00B3" horiz-adv-x="561" unicode="³"/><glyph d="M414 1491q41 0 24 -35l-123 -258q-10 -25 -34 -24h-222q-41 0 -24 34l123 258q10 25 35 25h221z" glyph-name="acute" horiz-adv-x="473" unicode="´"/><glyph d="M1061 1004q31 0 31 -31v-942q0 -31 -31 -31h-238q-27 0 -30 31l-9 108q-117 -166 -290 -166q-51 0 -86 9v-340q0 -31 -31 -31h-246q-31 0 -31 31v1142h11v189q0 31 30 31h246q31 0 31 -31v-506q0 -111 52 -159t124 -48q90 0 140 56.5t50 121.5v535q0 31 31 31h246z" glyph-name="uni00B5" horiz-adv-x="1191" unicode="µ"/><glyph d="M612 1434h437q31 0 30 -31v-1372q0 -31 -30 -31h-256q-31 0 -31 31v452h-150q-252 0 -392 130t-140 345.5t140 345.5t392 130zM1286 1403q0 31 31 31h256q31 0 31 -31v-1372q0 -31 -31 -31h-256q-31 0 -31 31v1372zM618 764h144v389h-144q-98 0 -166.5 -45t-68.5 -149.5 t68.5 -149.5t166.5 -45z" glyph-name="paragraph" horiz-adv-x="1724" unicode="¶"/><glyph d="M258 408q-70 0 -118 48t-48 117q0 68 48 116t118 48q68 0 116 -48t48 -116q0 -70 -48 -117.5t-116 -47.5z" glyph-name="periodcentered" horiz-adv-x="561" unicode="·"/><glyph d="M236 -66q76 -6 131 -51t55 -121q0 -131 -109.5 -182t-263.5 -29q-18 2 -18 23v107q0 20 22 20q168 -18 168 49q0 16 -21.5 27.5t-58.5 13.5t-86 -12q-25 -10 -24 14v111q0 18 10 24l78 72h192z" glyph-name="cedilla" horiz-adv-x="452" unicode="¸"/><glyph d="M211 1436v-535h-76v461h-55v74h131z" glyph-name="uni00B9" horiz-adv-x="321" unicode="¹"/><glyph d="M452.5 698q-155.5 0 -264 108.5t-108.5 264.5t108.5 264.5t264 108.5t264 -108.5t108.5 -264.5t-108.5 -264.5t-264 -108.5zM452.5 913q67.5 0 113.5 45.5t46 113t-46 114.5t-113.5 47t-112.5 -47t-45 -114.5t45 -113t112.5 -45.5z" glyph-name="ordmasculine" horiz-adv-x="905" unicode="º"/><glyph d="M371 647v-176q0 -23 -17 -37l-225 -201q-14 -12 -25.5 -7t-11.5 26v154q0 23 17 36l137 117l-137 117q-16 14 -17 37v153q0 20 11.5 26.5t25.5 -5.5l225 -203q17 -14 17 -37zM725 647v-176q0 -23 -16 -37l-226 -201q-14 -12 -25.5 -7t-11.5 26v154q0 23 17 36l137 117 l-137 117q-16 14 -17 37v153q0 20 11.5 26.5t25.5 -5.5l226 -203q16 -14 16 -37z" glyph-name="guillemotright" horiz-adv-x="817" unicode="»"/><glyph d="M213 1436v-535h-76v461h-55v74h131zM1075 1434l-880 -1434h-99l893 1434h86zM1083 535v-316h56v-63h-56v-156h-75v156h-271l271 379h75zM1008 424l-144 -205h144v205z" glyph-name="onequarter" horiz-adv-x="1220" unicode="¼"/><glyph d="M213 1436v-535h-76v461h-55v74h131zM1075 1434l-880 -1434h-99l893 1434h86zM909 541q70 0 121 -46t51 -108q0 -53 -29.5 -96t-109.5 -125l-96 -100h241v-66h-344v66l140 141q57 59 74.5 78.5t32 46t14.5 55.5q0 37 -29 63.5t-66 26.5q-39 0 -67.5 -26.5t-28.5 -75.5v-29 h-76v29q0 72 50 119t122 47z" glyph-name="onehalf" horiz-adv-x="1169" unicode="½"/><glyph d="M268 1440q66 0 115 -42t49 -98q0 -66 -61 -108q86 -37 86 -135q0 -70 -56.5 -117t-132.5 -47q-84 0 -138 55.5t-48 130.5h78q-10 -47 23.5 -84t84.5 -37q45 0 78 28t33 71q0 57 -41 79.5t-111 10.5v65q129 6 129 88q0 31 -25.5 53.5t-62.5 22.5q-45 0 -71.5 -31.5 t-22.5 -84.5h-78q-8 76 43 128t129 52zM1139 1434l-881 -1434h-98l893 1434h86zM1126 535v-316h56v-63h-56v-156h-75v156h-271l271 379h75zM1051 424l-144 -205h144v205z" glyph-name="threequarters" horiz-adv-x="1263" unicode="¾"/><glyph d="M580 762q-68 0 -116 48t-48 116q0 70 48 118t116 48q70 0 117.5 -48.5t47.5 -117.5q0 -68 -47.5 -116t-117.5 -48zM1032 -106q25 -33 2 -62q-178 -217 -473 -217q-186 0 -327.5 110.5t-141.5 282.5q0 139 77 231.5t271 192.5l17 162q4 31 30 31h191q27 0 31 -31l20 -287 q2 -25 -27 -35q-166 -51 -225 -102t-59 -115q0 -61 52 -96t116 -35q131 0 262 117q37 33 63 0z" glyph-name="questiondown" horiz-adv-x="1118" unicode="¿"/><glyph d="M561 1567l-123 258q-16 35 25 35h221q25 0 35 -25l123 -258q16 -35 -25 -35h-221q-25 0 -35 25zM1372 35q14 -35 -24 -35h-267q-27 0 -34 25l-72 221h-506l-72 -221q-8 -25 -35 -25h-266q-39 0 -24 35l495 1374q10 25 35 25h236q31 0 39 -25zM555 502h336l-168 514z" glyph-name="Agrave" horiz-adv-x="1443" unicode="À"/><glyph d="M631 1542q-41 0 -25 35l123 258q10 25 35 25h221q41 0 25 -35l-123 -258q-10 -25 -35 -25h-221zM1372 35q14 -35 -24 -35h-267q-27 0 -34 25l-72 221h-506l-72 -221q-8 -25 -35 -25h-266q-39 0 -24 35l495 1374q10 25 35 25h236q31 0 39 -25zM555 502h336l-168 514z" glyph-name="Aacute" horiz-adv-x="1443" unicode="Á"/><glyph d="M426 1581q-20 0 -25.5 11.5t7.5 25.5l200 225q14 16 37 17h176q23 0 37 -17l203 -225q12 -14 6 -25.5t-27 -11.5h-153q-23 0 -37 16l-117 138l-117 -138q-14 -16 -36 -16h-154zM1372 35q14 -35 -24 -35h-267q-27 0 -34 25l-72 221h-506l-72 -221q-8 -25 -35 -25h-266 q-39 0 -24 35l495 1374q10 25 35 25h236q31 0 39 -25zM555 502h336l-168 514z" glyph-name="Acircumflex" horiz-adv-x="1443" unicode="Â"/><glyph d="M362 1661q-20 0 -20 29q8 106 69.5 161.5t157.5 55.5q57 0 109.5 -22.5t85.5 -50.5t74 -50.5t77 -22.5q72 0 97 56q6 16 22 16h70q20 0 20 -21q-6 -111 -68.5 -168t-162.5 -57q-55 0 -106.5 22.5t-84 50.5t-74.5 50.5t-79 22.5q-70 0 -94 -56q-6 -16 -23 -16h-70z M1372 35q14 -35 -24 -35h-267q-27 0 -34 25l-72 221h-506l-72 -221q-8 -25 -35 -25h-266q-39 0 -24 35l495 1374q10 25 35 25h236q31 0 39 -25zM555 502h336l-168 514z" glyph-name="Atilde" horiz-adv-x="1443" unicode="Ã"/><glyph d="M499.5 1569q-61.5 0 -106.5 44t-45 109q0 63 45 107.5t106.5 44.5t106.5 -44t45 -108q0 -66 -45 -109.5t-106.5 -43.5zM964.5 1569q-61.5 0 -106.5 44t-45 109q0 63 45 107.5t106.5 44.5t106.5 -44t45 -108q0 -66 -45 -109.5t-106.5 -43.5zM1372 35q14 -35 -24 -35h-267 q-27 0 -34 25l-72 221h-506l-72 -221q-8 -25 -35 -25h-266q-39 0 -24 35l495 1374q10 25 35 25h236q31 0 39 -25zM555 502h336l-168 514z" glyph-name="Adieresis" horiz-adv-x="1443" unicode="Ä"/><glyph d="M735 1524q-92 0 -157.5 63.5t-65.5 151.5q0 90 64.5 153.5t158.5 63.5q86 0 150.5 -64.5t64.5 -152.5t-64.5 -151.5t-150.5 -63.5zM731 1788q-18 0 -32.5 -13.5t-14.5 -33.5q0 -18 14.5 -32.5t32.5 -14.5q20 0 34.5 14t14.5 33q0 20 -14.5 33.5t-34.5 13.5zM1372 35 q14 -35 -24 -35h-267q-27 0 -34 25l-72 221h-506l-72 -221q-8 -25 -35 -25h-266q-39 0 -24 35l495 1374q10 25 35 25h236q31 0 39 -25zM555 502h336l-168 514z" glyph-name="Aring" horiz-adv-x="1443" unicode="Å"/><glyph d="M1632 281q31 0 31 -31v-219q0 -31 -31 -31h-770q-31 0 -31 31v248h-344l-98 -254q-10 -25 -35 -25h-268q-39 0 -25 35l578 1374q8 25 35 25h956q31 0 31 -31v-219q0 -31 -31 -31h-481v-281h453q31 0 30 -30v-219q0 -31 -30 -31h-453v-311h483zM590 547h241v627z" glyph-name="AE" horiz-adv-x="1775" unicode="Æ"/><glyph d="M1190 397l158 -170q20 -23 0 -43q-178 -186 -447 -209l-47 -41q76 -6 131 -51t55 -121q0 -131 -109.5 -182t-262.5 -29q-18 2 -19 23v107q0 20 23 20q168 -18 168 49q0 16 -21.5 27.5t-58.5 13.5t-86 -12q-25 -10 -25 14v111q0 18 10 24l60 56q-266 43 -442.5 246.5 t-176.5 480.5q0 309 216 524t526 215q303 0 506 -209q18 -20 0 -43l-158 -172q-18 -23 -43 -2q-135 115 -307 115q-174 0 -293 -123t-119 -305q0 -180 119 -303t293 -123q172 0 307 114q25 21 43 -2z" glyph-name="Ccedilla" horiz-adv-x="1447" unicode="Ç"/><glyph d="M295 1860h221q25 0 35 -25l123 -258q16 -35 -25 -35h-221q-25 0 -35 25l-123 258q-16 35 25 35zM942 281q31 0 31 -31v-219q0 -31 -31 -31h-770q-31 0 -31 31v1372q0 31 31 31h768q31 0 31 -31v-219q0 -31 -31 -31h-481v-281h452q31 0 31 -30v-219q0 -31 -31 -31h-452 v-311h483z" glyph-name="Egrave" horiz-adv-x="1105" unicode="È"/><glyph d="M817 1860q41 0 25 -35l-123 -258q-10 -25 -35 -25h-221q-41 0 -25 35l123 258q10 25 35 25h221zM942 281q31 0 31 -31v-219q0 -31 -31 -31h-770q-31 0 -31 31v1372q0 31 31 31h768q31 0 31 -31v-219q0 -31 -31 -31h-481v-281h452q31 0 31 -30v-219q0 -31 -31 -31h-452 v-311h483z" glyph-name="Eacute" horiz-adv-x="1105" unicode="É"/><glyph d="M653 1860q23 0 37 -17l203 -225q12 -14 6 -25.5t-27 -11.5h-153q-23 0 -37 16l-117 138l-116 -138q-14 -16 -37 -16h-154q-20 0 -25.5 11.5t7.5 25.5l200 225q14 16 37 17h176zM942 281q31 0 31 -31v-219q0 -31 -31 -31h-770q-31 0 -31 31v1372q0 31 31 31h768 q31 0 31 -31v-219q0 -31 -31 -31h-481v-281h452q31 0 31 -30v-219q0 -31 -31 -31h-452v-311h483z" glyph-name="Ecircumflex" horiz-adv-x="1105" unicode="Ê"/><glyph d="M331.5 1569q-61.5 0 -106.5 44t-45 109q0 63 45 107.5t106.5 44.5t106.5 -44t45 -108q0 -66 -45 -109.5t-106.5 -43.5zM796.5 1569q-61.5 0 -106.5 44t-45 109q0 63 45 107.5t106.5 44.5t106.5 -44t45 -108q0 -66 -45 -109.5t-106.5 -43.5zM942 281q31 0 31 -31v-219 q0 -31 -31 -31h-770q-31 0 -31 31v1372q0 31 31 31h768q31 0 31 -31v-219q0 -31 -31 -31h-481v-281h452q31 0 31 -30v-219q0 -31 -31 -31h-452v-311h483z" glyph-name="Edieresis" horiz-adv-x="1105" unicode="Ë"/><glyph d="M31 1860h221q25 0 35 -25l123 -258q16 -35 -25 -35h-221q-25 0 -35 25l-123 258q-16 35 25 35zM141 1403q0 31 31 31h256q31 0 31 -31v-1372q0 -31 -31 -31h-256q-31 0 -31 31v1372z" glyph-name="Igrave" horiz-adv-x="600" unicode="Ì"/><glyph d="M553 1860q41 0 25 -35l-123 -258q-10 -25 -35 -25h-221q-41 0 -25 35l123 258q10 25 35 25h221zM141 1403q0 31 31 31h256q31 0 31 -31v-1372q0 -31 -31 -31h-256q-31 0 -31 31v1372z" glyph-name="Iacute" horiz-adv-x="600" unicode="Í"/><glyph d="M389 1860q23 0 37 -17l203 -225q12 -14 6 -25.5t-27 -11.5h-153q-23 0 -37 16l-117 138l-117 -138q-14 -16 -37 -16h-153q-20 0 -25.5 11.5t6.5 25.5l201 225q14 16 37 17h176zM141 1403q0 31 31 31h256q31 0 31 -31v-1372q0 -31 -31 -31h-256q-31 0 -31 31v1372z" glyph-name="Icircumflex" horiz-adv-x="600" unicode="Î"/><glyph d="M67.5 1569q-61.5 0 -106.5 44t-45 109q0 63 45 107.5t106.5 44.5t106.5 -44t45 -108q0 -66 -45 -109.5t-106.5 -43.5zM532.5 1569q-61.5 0 -106.5 44t-45 109q0 63 45 107.5t106.5 44.5t106.5 -44t45 -108q0 -66 -45 -109.5t-106.5 -43.5zM141 1403q0 31 31 31h256 q31 0 31 -31v-1372q0 -31 -31 -31h-256q-31 0 -31 31v1372z" glyph-name="Idieresis" horiz-adv-x="600" unicode="Ï"/><glyph d="M616 1434q356 0 555 -203t199 -514t-198.5 -514t-555.5 -203h-428q-31 0 -30 31v553h-76q-31 0 -31 30v177q0 31 31 30h76v582q0 31 30 31h428zM616 281q213 0 322 112.5t109 323.5t-109 323.5t-322 112.5h-141v-332h242q31 0 31 -30v-177q0 -31 -31 -30h-242v-303h141z " glyph-name="Eth" horiz-adv-x="1458" unicode="Ð"/><glyph d="M360 1661q-20 0 -20 29q8 106 69.5 161.5t157.5 55.5q57 0 109.5 -22.5t85.5 -50.5t74 -50.5t77 -22.5q72 0 97 56q6 16 22 16h70q20 0 20 -21q-6 -111 -68.5 -168t-162.5 -57q-55 0 -106.5 22.5t-84 50.5t-74.5 50.5t-79 22.5q-70 0 -94 -56q-6 -16 -23 -16h-70z M1290 1434q31 0 31 -31v-1372q0 -31 -31 -31h-291q-25 0 -36 20l-504 904v-893q0 -31 -31 -31h-256q-31 0 -31 31v1372q0 31 31 31h289q25 0 37 -21l506 -905v895q0 31 30 31h256z" glyph-name="Ntilde" horiz-adv-x="1462" unicode="Ñ"/><glyph d="M567 1860h221q25 0 35 -25l123 -258q16 -35 -24 -35h-222q-25 0 -34 25l-123 258q-17 35 24 35zM838 -27q-305 0 -521.5 215t-216.5 522.5t216 523.5t522 216q307 0 523 -216t216 -523.5t-216 -522.5t-523 -215zM838 285q176 0 295.5 122.5t119.5 303.5q0 182 -119.5 305 t-295.5 123t-295 -123t-119 -305q0 -180 120 -303t294 -123z" glyph-name="Ograve" horiz-adv-x="1677" unicode="Ò"/><glyph d="M1090 1860q41 0 24 -35l-123 -258q-10 -25 -35 -25h-221q-41 0 -24 35l123 258q10 25 34 25h222zM838 -27q-305 0 -521.5 215t-216.5 522.5t216 523.5t522 216q307 0 523 -216t216 -523.5t-216 -522.5t-523 -215zM838 285q176 0 295.5 122.5t119.5 303.5 q0 182 -119.5 305t-295.5 123t-295 -123t-119 -305q0 -180 120 -303t294 -123z" glyph-name="Oacute" horiz-adv-x="1677" unicode="Ó"/><glyph d="M926 1860q23 0 37 -17l202 -225q12 -14 6 -25.5t-26 -11.5h-154q-23 0 -37 16l-116 138l-117 -138q-14 -16 -37 -16h-154q-20 0 -25 11.5t7 25.5l201 225q14 16 37 17h176zM838 -27q-305 0 -521.5 215t-216.5 522.5t216 523.5t522 216q307 0 523 -216t216 -523.5 t-216 -522.5t-523 -215zM838 285q176 0 295.5 122.5t119.5 303.5q0 182 -119.5 305t-295.5 123t-295 -123t-119 -305q0 -180 120 -303t294 -123z" glyph-name="Ocircumflex" horiz-adv-x="1677" unicode="Ô"/><glyph d="M674 1907q92 0 194.5 -73t151.5 -73q72 0 96 56q6 16 23 16h69q20 0 21 -21q-6 -111 -68.5 -168t-163.5 -57q-55 0 -106 22.5t-84 50.5t-75 50.5t-79 22.5q-70 0 -94 -56q-6 -16 -22 -16h-70q-20 0 -21 29q8 106 70 161.5t158 55.5zM838 -27q-305 0 -521.5 215 t-216.5 522.5t216 523.5t522 216q307 0 523 -216t216 -523.5t-216 -522.5t-523 -215zM838 285q176 0 295.5 122.5t119.5 303.5q0 182 -119.5 305t-295.5 123t-295 -123t-119 -305q0 -180 120 -303t294 -123z" glyph-name="Otilde" horiz-adv-x="1677" unicode="Õ"/><glyph d="M604.5 1569q-61.5 0 -106.5 44t-45 109q0 63 45 107.5t106.5 44.5t106.5 -44t45 -108q0 -66 -45 -109.5t-106.5 -43.5zM1069 1569q-61 0 -106 44t-45 109q0 63 45 107.5t106 44.5t106.5 -44t45.5 -108q0 -66 -45.5 -109.5t-106.5 -43.5zM838 -27q-305 0 -521.5 215 t-216.5 522.5t216 523.5t522 216q307 0 523 -216t216 -523.5t-216 -522.5t-523 -215zM838 285q176 0 295.5 122.5t119.5 303.5q0 182 -119.5 305t-295.5 123t-295 -123t-119 -305q0 -180 120 -303t294 -123z" glyph-name="Odieresis" horiz-adv-x="1677" unicode="Ö"/><glyph d="M623 586l161 -162q18 -23 0 -45l-114 -113q-23 -25 -43 0l-162 162l-164 -164q-23 -23 -43 0l-115 115q-20 23 0 43l164 164l-164 164q-20 20 0 43l115 114q20 23 43 0l164 -164l164 164q23 23 43 0l114 -114q20 -23 0 -43z" glyph-name="multiply" horiz-adv-x="927" unicode="×"/><glyph d="M1264 1317q145 -102 229 -262t84 -344q0 -307 -216 -522.5t-523 -215.5q-100 0 -193 25l-37 -78q-10 -23 -35 -22h-237q-39 0 -23 36l86 185q-139 102 -219 256.5t-80 335.5q0 307 216 523t522 216q94 0 174 -20l35 73q10 23 34 23h240q39 0 22 -37zM424 711 q0 -174 113 -297l337 723q-12 2 -36 2q-176 0 -295 -123t-119 -305zM838 285q176 0 295.5 122.5t119.5 303.5q0 186 -127 313l-346 -735q38 -4 58 -4z" glyph-name="Oslash" horiz-adv-x="1656" unicode="Ø"/><glyph d="M414 1860h221q25 0 35 -25l123 -258q16 -35 -25 -35h-221q-25 0 -35 25l-123 258q-16 35 25 35zM1204 1434q31 0 31 -31v-846q0 -276 -152.5 -430t-398.5 -154q-248 0 -400.5 154t-152.5 430v846q0 31 31 31h256q31 0 31 -31v-846q0 -270 235 -270q115 0 174.5 69.5 t59.5 200.5v846q0 31 30 31h256z" glyph-name="Ugrave" horiz-adv-x="1366" unicode="Ù"/><glyph d="M936 1860q41 0 25 -35l-123 -258q-10 -25 -35 -25h-221q-41 0 -25 35l123 258q10 25 35 25h221zM1204 1434q31 0 31 -31v-846q0 -276 -152.5 -430t-398.5 -154q-248 0 -400.5 154t-152.5 430v846q0 31 31 31h256q31 0 31 -31v-846q0 -270 235 -270q115 0 174.5 69.5 t59.5 200.5v846q0 31 30 31h256z" glyph-name="Uacute" horiz-adv-x="1366" unicode="Ú"/><glyph d="M772 1860q23 0 37 -17l203 -225q12 -14 6 -25.5t-27 -11.5h-153q-23 0 -37 16l-117 138l-117 -138q-14 -16 -37 -16h-153q-20 0 -25.5 11.5t6.5 25.5l201 225q14 16 37 17h176zM1204 1434q31 0 31 -31v-846q0 -276 -152.5 -430t-398.5 -154q-248 0 -400.5 154t-152.5 430 v846q0 31 31 31h256q31 0 31 -31v-846q0 -270 235 -270q115 0 174.5 69.5t59.5 200.5v846q0 31 30 31h256z" glyph-name="Ucircumflex" horiz-adv-x="1366" unicode="Û"/><glyph d="M450.5 1569q-61.5 0 -106.5 44t-45 109q0 63 45 107.5t106.5 44.5t106.5 -44t45 -108q0 -66 -45 -109.5t-106.5 -43.5zM915.5 1569q-61.5 0 -106.5 44t-45 109q0 63 45 107.5t106.5 44.5t106.5 -44t45 -108q0 -66 -45 -109.5t-106.5 -43.5zM1204 1434q31 0 31 -31v-846 q0 -276 -152.5 -430t-398.5 -154q-248 0 -400.5 154t-152.5 430v846q0 31 31 31h256q31 0 31 -31v-846q0 -270 235 -270q115 0 174.5 69.5t59.5 200.5v846q0 31 30 31h256z" glyph-name="Udieresis" horiz-adv-x="1366" unicode="Ü"/><glyph d="M571 1542q-41 0 -24 35l123 258q10 25 35 25h221q41 0 24 -35l-123 -258q-10 -25 -34 -25h-222zM1231 1434q41 0 20 -37l-417 -738v-628q0 -31 -31 -31h-258q-31 0 -31 31v635l-418 731q-20 37 21 37h270q25 0 37 -21l250 -450l250 450q12 20 37 21h270z" glyph-name="Yacute" horiz-adv-x="1347" unicode="Ý"/><glyph d="M616 1192q258 0 396.5 -123t138.5 -352.5t-138.5 -352t-396.5 -122.5h-157v-211q0 -31 -31 -31h-256q-31 0 -31 31v1372q0 31 31 31h256q31 0 31 -31v-211h157zM594 522q127 0 190.5 42t63.5 152.5t-63.5 152.5t-190.5 42h-135v-389h135z" glyph-name="Thorn" horiz-adv-x="1220" unicode="Þ"/><glyph d="M909 737q133 -14 229.5 -99t96.5 -230q0 -219 -141.5 -313.5t-440.5 -94.5h-84q-31 0 -30 31v174q0 31 30 31h84q145 0 215 41.5t70 142.5q0 96 -76 130t-241 34h-52q-31 0 -30 30v174q0 31 30 31h52q236 0 235 187q0 72 -57.5 110.5t-151.5 38.5q-102 0 -155.5 -36 t-53.5 -128v-960q0 -31 -30 -31h-246q-31 0 -31 31v960q0 217 146.5 330t369.5 113q215 0 360.5 -101.5t145.5 -285.5q0 -137 -77 -221.5t-167 -88.5z" glyph-name="germandbls" horiz-adv-x="1302" unicode="ß"/><glyph d="M440 1137l-123 258q-16 35 25 35h221q25 0 35 -25l123 -258q16 -35 -25 -35h-221q-25 0 -35 25zM1114 1004q31 0 31 -31v-942q0 -31 -31 -31h-209q-27 0 -31 31l-12 86q-106 -131 -287 -131q-209 0 -347 148.5t-138 365.5q0 221 138.5 372.5t346.5 151.5q176 0 289 -143 l10 92q4 31 31 31h209zM612 266q100 0 163 65.5t63 170.5q0 102 -62.5 171.5t-163.5 69.5q-98 0 -162.5 -67.5t-64.5 -173.5q0 -104 64.5 -170t162.5 -66z" glyph-name="agrave" unicode="à"/><glyph d="M510 1112q-41 0 -25 35l123 258q10 25 35 25h221q41 0 25 -35l-123 -258q-10 -25 -35 -25h-221zM1114 1004q31 0 31 -31v-942q0 -31 -31 -31h-209q-27 0 -31 31l-12 86q-106 -131 -287 -131q-209 0 -347 148.5t-138 365.5q0 221 138.5 372.5t346.5 151.5q176 0 289 -143 l10 92q4 31 31 31h209zM612 266q100 0 163 65.5t63 170.5q0 102 -62.5 171.5t-163.5 69.5q-98 0 -162.5 -67.5t-64.5 -173.5q0 -104 64.5 -170t162.5 -66z" glyph-name="aacute" unicode="á"/><glyph d="M305 1151q-20 0 -25.5 11.5t7.5 25.5l200 225q14 16 37 17h176q23 0 37 -17l203 -225q12 -14 6 -25.5t-26 -11.5h-154q-23 0 -37 16l-117 138l-116 -138q-14 -16 -37 -16h-154zM1114 1004q31 0 31 -31v-942q0 -31 -31 -31h-209q-27 0 -31 31l-12 86q-106 -131 -287 -131 q-209 0 -347 148.5t-138 365.5q0 221 138.5 372.5t346.5 151.5q176 0 289 -143l10 92q4 31 31 31h209zM612 266q100 0 163 65.5t63 170.5q0 102 -62.5 171.5t-163.5 69.5q-98 0 -162.5 -67.5t-64.5 -173.5q0 -104 64.5 -170t162.5 -66z" glyph-name="acircumflex" unicode="â"/><glyph d="M242 1231q-20 0 -21 29q8 106 69.5 161.5t158.5 55.5q92 0 194 -73t152 -73q72 0 96 55q6 16 22 17h70q20 0 21 -21q-6 -111 -69 -168t-163 -57q-55 0 -106.5 22.5t-84 50t-74.5 50.5t-79 23q-70 0 -94 -56q-6 -16 -23 -16h-69zM1114 1004q31 0 31 -31v-942 q0 -31 -31 -31h-209q-27 0 -31 31l-12 86q-106 -131 -287 -131q-209 0 -347 148.5t-138 365.5q0 221 138.5 372.5t346.5 151.5q176 0 289 -143l10 92q4 31 31 31h209zM612 266q100 0 163 65.5t63 170.5q0 102 -62.5 171.5t-163.5 69.5q-98 0 -162.5 -67.5t-64.5 -173.5 q0 -104 64.5 -170t162.5 -66z" glyph-name="atilde" unicode="ã"/><glyph d="M378.5 1139q-61.5 0 -106.5 44t-45 109q0 63 45 107.5t106.5 44.5t106.5 -44t45 -108q0 -66 -45 -109.5t-106.5 -43.5zM843.5 1139q-61.5 0 -106.5 44t-45 109q0 63 45 107.5t106.5 44.5t106.5 -44t45 -108q0 -66 -45 -109.5t-106.5 -43.5zM1114 1004q31 0 31 -31v-942 q0 -31 -31 -31h-209q-27 0 -31 31l-12 86q-106 -131 -287 -131q-209 0 -347 148.5t-138 365.5q0 221 138.5 372.5t346.5 151.5q176 0 289 -143l10 92q4 31 31 31h209zM612 266q100 0 163 65.5t63 170.5q0 102 -62.5 171.5t-163.5 69.5q-98 0 -162.5 -67.5t-64.5 -173.5 q0 -104 64.5 -170t162.5 -66z" glyph-name="adieresis" unicode="ä"/><glyph d="M614 1094q-92 0 -157.5 63.5t-65.5 151.5q0 90 64.5 153.5t158.5 63.5q86 0 150.5 -64.5t64.5 -152.5t-64.5 -151.5t-150.5 -63.5zM610 1358q-18 0 -32.5 -13.5t-14.5 -33.5q0 -18 14.5 -32.5t32.5 -14.5q20 0 34.5 14t14.5 33q0 20 -14.5 33.5t-34.5 13.5zM1114 1004 q31 0 31 -31v-942q0 -31 -31 -31h-209q-27 0 -31 31l-12 86q-106 -131 -287 -131q-209 0 -347 148.5t-138 365.5q0 221 138.5 372.5t346.5 151.5q176 0 289 -143l10 92q4 31 31 31h209zM612 266q100 0 163 65.5t63 170.5q0 102 -62.5 171.5t-163.5 69.5q-98 0 -162.5 -67.5 t-64.5 -173.5q0 -104 64.5 -170t162.5 -66z" glyph-name="aring" unicode="å"/><glyph d="M1835 524q0 -68 -14.5 -97.5t-59.5 -29.5h-608q47 -166 258 -166q100 0 195 60q25 16 45 -4l106 -103q18 -23 -4 -45q-154 -154 -373 -153q-125 0 -235 49v-4q0 -31 -31 -31h-209q-27 0 -31 31l-12 86q-106 -131 -287 -131q-209 0 -347 148.5t-138 365.5 q0 221 138.5 372.5t346.5 151.5q176 0 289 -143l10 92q4 31 31 31h209q27 0 31 -25q100 45 213 45q213 0 345 -145.5t132 -354.5zM1360 764q-80 0 -137.5 -44t-73.5 -128h414q-14 84 -69.5 128t-133.5 44zM612 266q100 0 163 65.5t63 170.5q0 102 -62.5 171.5t-163.5 69.5 q-98 0 -162.5 -67.5t-64.5 -173.5q0 -104 64.5 -170t162.5 -66z" glyph-name="ae" horiz-adv-x="1904" unicode="æ"/><glyph d="M995 207q20 -20 2 -43q-137 -158 -348 -176l-61 -54q76 -6 131 -51t55 -121q0 -131 -109.5 -182t-263.5 -29q-18 2 -18 23v107q0 20 23 20q168 -18 167 49q0 16 -21.5 27.5t-58 13.5t-85.5 -12q-25 -10 -25 14v111q0 18 10 24l78 72h10q-172 41 -281.5 182.5 t-109.5 325.5q0 215 149.5 365.5t364.5 150.5q231 0 387 -178q18 -23 -2 -43l-147 -144q-20 -20 -45 3q-88 78 -185 77q-98 0 -162.5 -66.5t-64.5 -164.5q0 -100 64.5 -169t162.5 -69q100 0 191 78q25 20 45 0z" glyph-name="ccedilla" horiz-adv-x="1181" unicode="ç"/><glyph d="M414 1137l-123 258q-16 35 24 35h222q25 0 34 -25l123 -258q16 -35 -24 -35h-221q-25 0 -35 25zM1077 524q0 -68 -14 -97.5t-59 -29.5h-609q47 -166 258 -166q100 0 195 60q25 16 45 -4l106 -103q18 -23 -4 -45q-154 -154 -372 -153q-233 0 -383 150.5t-150 369.5 t145.5 368.5t364.5 149.5q213 0 345 -145.5t132 -354.5zM602 764q-80 0 -137 -44t-74 -128h414q-14 84 -69.5 128t-133.5 44z" glyph-name="egrave" horiz-adv-x="1167" unicode="è"/><glyph d="M483 1112q-41 0 -24 35l123 258q10 25 34 25h222q41 0 24 -35l-123 -258q-10 -25 -34 -25h-222zM1077 524q0 -68 -14 -97.5t-59 -29.5h-609q47 -166 258 -166q100 0 195 60q25 16 45 -4l106 -103q18 -23 -4 -45q-154 -154 -372 -153q-233 0 -383 150.5t-150 369.5 t145.5 368.5t364.5 149.5q213 0 345 -145.5t132 -354.5zM602 764q-80 0 -137 -44t-74 -128h414q-14 84 -69.5 128t-133.5 44z" glyph-name="eacute" horiz-adv-x="1167" unicode="é"/><glyph d="M279 1151q-20 0 -25.5 11.5t6.5 25.5l201 225q14 16 37 17h176q23 0 37 -17l202 -225q12 -14 6 -25.5t-26 -11.5h-154q-23 0 -37 16l-116 138l-117 -138q-14 -16 -37 -16h-153zM1077 524q0 -68 -14 -97.5t-59 -29.5h-609q47 -166 258 -166q100 0 195 60q25 16 45 -4 l106 -103q18 -23 -4 -45q-154 -154 -372 -153q-233 0 -383 150.5t-150 369.5t145.5 368.5t364.5 149.5q213 0 345 -145.5t132 -354.5zM602 764q-80 0 -137 -44t-74 -128h414q-14 84 -69.5 128t-133.5 44z" glyph-name="ecircumflex" horiz-adv-x="1167" unicode="ê"/><glyph d="M352.5 1139q-61.5 0 -106.5 44t-45 109q0 63 45 107.5t106.5 44.5t106.5 -44t45 -108q0 -66 -45 -109.5t-106.5 -43.5zM817.5 1139q-61.5 0 -106.5 44t-45 109q0 63 45 107.5t106.5 44.5t106.5 -44t45 -108q0 -66 -45 -109.5t-106.5 -43.5zM1077 524q0 -68 -14 -97.5 t-59 -29.5h-609q47 -166 258 -166q100 0 195 60q25 16 45 -4l106 -103q18 -23 -4 -45q-154 -154 -372 -153q-233 0 -383 150.5t-150 369.5t145.5 368.5t364.5 149.5q213 0 345 -145.5t132 -354.5zM602 764q-80 0 -137 -44t-74 -128h414q-14 84 -69.5 128t-133.5 44z" glyph-name="edieresis" horiz-adv-x="1167" unicode="ë"/><glyph d="M-6 1430h221q25 0 35 -25l123 -258q16 -35 -25 -35h-221q-25 0 -35 25l-123 258q-16 35 25 35zM111 973q0 31 30 31h246q31 0 31 -31v-942q0 -31 -31 -31h-246q-31 0 -30 31v942z" glyph-name="igrave" horiz-adv-x="528" unicode="ì"/><glyph d="M516 1430q41 0 25 -35l-123 -258q-10 -25 -35 -25h-221q-41 0 -25 35l123 258q10 25 35 25h221zM111 973q0 31 30 31h246q31 0 31 -31v-942q0 -31 -31 -31h-246q-31 0 -30 31v942z" glyph-name="iacute" horiz-adv-x="528" unicode="í"/><glyph d="M352 1430q23 0 37 -17l203 -225q12 -14 6 -25.5t-27 -11.5h-153q-23 0 -37 16l-117 138l-117 -138q-14 -16 -36 -16h-154q-20 0 -25.5 11.5t7.5 25.5l200 225q14 16 37 17h176zM111 973q0 31 30 31h246q31 0 31 -31v-942q0 -31 -31 -31h-246q-31 0 -30 31v942z" glyph-name="icircumflex" horiz-adv-x="528" unicode="î"/><glyph d="M30.5 1139q-61.5 0 -106.5 44t-45 109q0 63 45 107.5t106.5 44.5t106.5 -44t45 -108q0 -66 -45 -109.5t-106.5 -43.5zM495.5 1139q-61.5 0 -106.5 44t-45 109q0 63 45 107.5t106.5 44.5t106.5 -44t45 -108q0 -66 -45 -109.5t-106.5 -43.5zM111 973q0 31 30 31h246 q31 0 31 -31v-942q0 -31 -31 -31h-246q-31 0 -30 31v942z" glyph-name="idieresis" horiz-adv-x="528" unicode="ï"/><glyph d="M1155 1346q33 4 33 -29v-156q0 -29 -29 -33l-14 -2v-1095q0 -31 -31 -31h-209q-27 0 -31 31l-12 86q-106 -131 -287 -131q-209 0 -347 148.5t-138 365.5q0 221 138.5 372.5t346.5 151.5q156 0 263 -113v179l-148 -17q-33 -4 -33 29v155q0 29 29 33l152 19v155q0 31 30 31 h246q31 0 31 -31v-121zM612 266q100 0 163 65.5t63 170.5q0 102 -62.5 171.5t-163.5 69.5q-98 0 -162.5 -67.5t-64.5 -173.5q0 -104 64.5 -170t162.5 -66z" glyph-name="eth" horiz-adv-x="1218" unicode="ð"/><glyph d="M240 1231q-20 0 -21 29q8 106 69.5 161.5t157.5 55.5q57 0 109.5 -22.5t85.5 -50.5t74 -50.5t78 -22.5q72 0 96 55q6 16 22 17h70q20 0 20 -21q-6 -111 -68.5 -168t-162.5 -57q-55 0 -106.5 22.5t-84 50t-74.5 50.5t-79 23q-70 0 -94 -56q-6 -16 -23 -16h-69zM737 1026 q156 0 260.5 -117.5t104.5 -314.5v-563q0 -31 -31 -31h-246q-31 0 -30 31v501q0 111 -50.5 160t-121.5 49q-90 0 -142.5 -65.5t-52.5 -118.5v-526q0 -31 -31 -31h-245q-31 0 -31 31v942q0 31 31 31h237q27 0 31 -31l8 -127q108 180 309 180z" glyph-name="ntilde" horiz-adv-x="1222" unicode="ñ"/><glyph d="M342 1430h221q25 0 35 -25l123 -258q16 -35 -25 -35h-221q-25 0 -35 25l-123 258q-16 35 25 35zM612 -20q-217 0 -369.5 152.5t-152.5 369.5q0 219 152.5 371.5t369.5 152.5q219 0 372 -152.5t153 -371.5q0 -217 -153 -369.5t-372 -152.5zM612 264q96 0 162 67.5 t66 170.5q0 104 -65.5 171.5t-162.5 67.5q-94 0 -160.5 -68.5t-66.5 -171t66.5 -170t160.5 -67.5z" glyph-name="ograve" horiz-adv-x="1226" unicode="ò"/><glyph d="M864 1430q41 0 25 -35l-123 -258q-10 -25 -35 -25h-221q-41 0 -25 35l123 258q10 25 35 25h221zM612 -20q-217 0 -369.5 152.5t-152.5 369.5q0 219 152.5 371.5t369.5 152.5q219 0 372 -152.5t153 -371.5q0 -217 -153 -369.5t-372 -152.5zM612 264q96 0 162 67.5 t66 170.5q0 104 -65.5 171.5t-162.5 67.5q-94 0 -160.5 -68.5t-66.5 -171t66.5 -170t160.5 -67.5z" glyph-name="oacute" horiz-adv-x="1226" unicode="ó"/><glyph d="M700 1430q23 0 37 -17l203 -225q12 -14 6 -25.5t-26 -11.5h-154q-23 0 -37 16l-117 138l-116 -138q-14 -16 -37 -16h-154q-20 0 -25.5 11.5t7.5 25.5l200 225q14 16 37 17h176zM612 -20q-217 0 -369.5 152.5t-152.5 369.5q0 219 152.5 371.5t369.5 152.5 q219 0 372 -152.5t153 -371.5q0 -217 -153 -369.5t-372 -152.5zM612 264q96 0 162 67.5t66 170.5q0 104 -65.5 171.5t-162.5 67.5q-94 0 -160.5 -68.5t-66.5 -171t66.5 -170t160.5 -67.5z" glyph-name="ocircumflex" horiz-adv-x="1226" unicode="ô"/><glyph d="M449 1477q92 0 194 -73t152 -73q72 0 96 55q6 16 22 17h70q20 0 21 -21q-6 -111 -69 -168t-163 -57q-55 0 -106.5 22.5t-84 50t-74.5 50.5t-79 23q-70 0 -94 -56q-6 -16 -23 -16h-69q-20 0 -21 29q8 106 70 161.5t158 55.5zM612 -20q-217 0 -369.5 152.5t-152.5 369.5 q0 219 152.5 371.5t369.5 152.5q219 0 372 -152.5t153 -371.5q0 -217 -153 -369.5t-372 -152.5zM612 264q96 0 162 67.5t66 170.5q0 104 -65.5 171.5t-162.5 67.5q-94 0 -160.5 -68.5t-66.5 -171t66.5 -170t160.5 -67.5z" glyph-name="otilde" horiz-adv-x="1226" unicode="õ"/><glyph d="M378.5 1139q-61.5 0 -106.5 44t-45 109q0 63 45 107.5t106.5 44.5t106.5 -44t45 -108q0 -66 -45 -109.5t-106.5 -43.5zM843.5 1139q-61.5 0 -106.5 44t-45 109q0 63 45 107.5t106.5 44.5t106.5 -44t45 -108q0 -66 -45 -109.5t-106.5 -43.5zM612 -20q-217 0 -369.5 152.5 t-152.5 369.5q0 219 152.5 371.5t369.5 152.5q219 0 372 -152.5t153 -371.5q0 -217 -153 -369.5t-372 -152.5zM612 264q96 0 162 67.5t66 170.5q0 104 -65.5 171.5t-162.5 67.5q-94 0 -160.5 -68.5t-66.5 -171t66.5 -170t160.5 -67.5z" glyph-name="odieresis" horiz-adv-x="1226" unicode="ö"/><glyph d="M528 752q-70 0 -118 48t-48 118q0 68 48.5 115.5t117.5 47.5q68 0 116 -48t48 -115q0 -70 -48 -118t-116 -48zM889 696q31 0 31 -30v-162q0 -31 -31 -31h-725q-31 0 -31 31v162q0 31 31 30h725zM528 55q-70 0 -118 48.5t-48 117.5q0 68 48.5 116t117.5 48q68 0 116 -48 t48 -116q0 -70 -48 -118t-116 -48z" glyph-name="divide" horiz-adv-x="1052" unicode="÷"/><glyph d="M920 928q100 -72 158.5 -184.5t58.5 -241.5q0 -217 -153 -369.5t-372 -152.5q-51 0 -108 10l-49 -111q-8 -23 -35 -22h-191q-39 0 -22 37l86 194q-94 72 -148.5 180.5t-54.5 233.5q0 219 152.5 371.5t369.5 152.5q55 0 97 -8l45 102q8 23 34 23h189q39 0 22 -37zM385 502 q0 -72 35 -129l164 366q-84 -10 -141.5 -76.5t-57.5 -160.5zM627 264q90 6 151.5 72.5t61.5 165.5q0 82 -43 145z" glyph-name="oslash" horiz-adv-x="1206" unicode="ø"/><glyph d="M428 1137l-123 258q-16 35 25 35h221q25 0 35 -25l123 -258q16 -35 -25 -35h-221q-25 0 -35 25zM1061 1004q31 0 31 -31v-942q0 -31 -31 -31h-238q-27 0 -30 31l-9 108q-117 -166 -290 -166q-170 0 -276.5 117t-106.5 316v567q0 31 30 31h246q31 0 31 -31v-506 q0 -111 52 -159t124 -48q90 0 140 56.5t50 121.5v535q0 31 31 31h246z" glyph-name="ugrave" horiz-adv-x="1212" unicode="ù"/><glyph d="M498 1112q-41 0 -25 35l123 258q10 25 35 25h221q41 0 25 -35l-123 -258q-10 -25 -35 -25h-221zM1061 1004q31 0 31 -31v-942q0 -31 -31 -31h-238q-27 0 -30 31l-9 108q-117 -166 -290 -166q-170 0 -276.5 117t-106.5 316v567q0 31 30 31h246q31 0 31 -31v-506 q0 -111 52 -159t124 -48q90 0 140 56.5t50 121.5v535q0 31 31 31h246z" glyph-name="uacute" horiz-adv-x="1212" unicode="ú"/><glyph d="M293 1151q-20 0 -25.5 11.5t6.5 25.5l201 225q14 16 37 17h176q23 0 37 -17l203 -225q12 -14 6 -25.5t-27 -11.5h-153q-23 0 -37 16l-117 138l-117 -138q-14 -16 -37 -16h-153zM1061 1004q31 0 31 -31v-942q0 -31 -31 -31h-238q-27 0 -30 31l-9 108q-117 -166 -290 -166 q-170 0 -276.5 117t-106.5 316v567q0 31 30 31h246q31 0 31 -31v-506q0 -111 52 -159t124 -48q90 0 140 56.5t50 121.5v535q0 31 31 31h246z" glyph-name="ucircumflex" horiz-adv-x="1212" unicode="û"/><glyph d="M366.5 1139q-61.5 0 -106.5 44t-45 109q0 63 45 107.5t106.5 44.5t106.5 -44t45 -108q0 -66 -45 -109.5t-106.5 -43.5zM831.5 1139q-61.5 0 -106.5 44t-45 109q0 63 45 107.5t106.5 44.5t106.5 -44t45 -108q0 -66 -45 -109.5t-106.5 -43.5zM1061 1004q31 0 31 -31v-942 q0 -31 -31 -31h-238q-27 0 -30 31l-9 108q-117 -166 -290 -166q-170 0 -276.5 117t-106.5 316v567q0 31 30 31h246q31 0 31 -31v-506q0 -111 52 -159t124 -48q90 0 140 56.5t50 121.5v535q0 31 31 31h246z" glyph-name="udieresis" horiz-adv-x="1212" unicode="ü"/><glyph d="M860 1430q41 0 25 -35l-123 -258q-10 -25 -35 -25h-221q-41 0 -25 35l123 258q10 25 35 25h221zM1122 1004q37 0 25 -35l-531 -1334q-10 -25 -36 -24h-240q-43 0 -25 35l146 352l-387 971q-12 35 24 35h248q27 0 37 -25l225 -619l226 619q10 25 36 25h252z" glyph-name="yacute" horiz-adv-x="1220" unicode="ý"/><glyph d="M696 1024q209 0 347.5 -151.5t138.5 -372.5q0 -217 -138.5 -365.5t-347.5 -148.5h-2h-4q-154 0 -256 98v-442q0 -31 -31 -31h-245q-31 0 -31 31v368q-6 10 -6 21v1433q0 31 31 31h245q31 0 31 -31v-553q106 113 262 113h4h2zM434 501.5q0 -102.5 61.5 -168t159.5 -67.5 q98 2 162 67.5t64 168.5q0 104 -62.5 171.5t-161.5 69.5q-100 -2 -161.5 -70.5t-61.5 -171z" glyph-name="thorn" horiz-adv-x="1257" unicode="þ"/><glyph d="M374.5 1139q-61.5 0 -106.5 44t-45 109q0 63 45 107.5t106.5 44.5t106.5 -44t45 -108q0 -66 -45 -109.5t-106.5 -43.5zM839.5 1139q-61.5 0 -106.5 44t-45 109q0 63 45 107.5t106.5 44.5t106.5 -44t45 -108q0 -66 -45 -109.5t-106.5 -43.5zM1122 1004q37 0 25 -35 l-531 -1334q-10 -25 -36 -24h-240q-43 0 -25 35l146 352l-387 971q-12 35 24 35h248q27 0 37 -25l225 -619l226 619q10 25 36 25h252z" glyph-name="ydieresis" horiz-adv-x="1220" unicode="ÿ"/><glyph d="M416 1622q-31 0 -31 31v176q0 31 31 31h635q31 0 30 -31v-176q0 -31 -30 -31h-635zM1372 35q14 -35 -24 -35h-267q-27 0 -34 25l-72 221h-506l-72 -221q-8 -25 -35 -25h-266q-39 0 -24 35l495 1374q10 25 35 25h236q31 0 39 -25zM555 502h336l-168 514z" glyph-name="Amacron" horiz-adv-x="1443" unicode="Ā"/><glyph d="M295 1192q-31 0 -31 31v176q0 31 31 31h635q31 0 31 -31v-176q0 -31 -31 -31h-635zM1114 1004q31 0 31 -31v-942q0 -31 -31 -31h-209q-27 0 -31 31l-12 86q-106 -131 -287 -131q-209 0 -347 148.5t-138 365.5q0 221 138.5 372.5t346.5 151.5q176 0 289 -143l10 92 q4 31 31 31h209zM612 266q100 0 163 65.5t63 170.5q0 102 -62.5 171.5t-163.5 69.5q-98 0 -162.5 -67.5t-64.5 -173.5q0 -104 64.5 -170t162.5 -66z" glyph-name="amacron" unicode="ā"/><glyph d="M733 1565q-143 0 -230 75.5t-100 190.5q-2 31 29 31h123q27 0 33 -29q10 -39 48 -68.5t97 -29.5q115 0 146 98q6 29 32 29h123q31 0 29 -31q-10 -115 -99.5 -190.5t-230.5 -75.5zM1372 35q14 -35 -24 -35h-267q-27 0 -34 25l-72 221h-506l-72 -221q-8 -25 -35 -25h-266 q-39 0 -24 35l495 1374q10 25 35 25h236q31 0 39 -25zM555 502h336l-168 514z" glyph-name="Abreve" horiz-adv-x="1443" unicode="Ă"/><glyph d="M612 1135q-143 0 -230 75.5t-99 190.5q-4 31 28 31h123q27 0 33 -29q10 -39 48 -68.5t97 -29.5q115 0 146 98q6 29 33 29h122q33 0 29 -31q-10 -115 -99.5 -190.5t-230.5 -75.5zM1114 1004q31 0 31 -31v-942q0 -31 -31 -31h-209q-27 0 -31 31l-12 86q-106 -131 -287 -131 q-209 0 -347 148.5t-138 365.5q0 221 138.5 372.5t346.5 151.5q176 0 289 -143l10 92q4 31 31 31h209zM612 266q100 0 163 65.5t63 170.5q0 102 -62.5 171.5t-163.5 69.5q-98 0 -162.5 -67.5t-64.5 -173.5q0 -104 64.5 -170t162.5 -66z" glyph-name="abreve" unicode="ă"/><glyph d="M1372 35q14 -35 -24 -35h-5q-82 0 -128 -46t-46 -101q0 -37 30 -60.5t95 -11.5v-187q-47 -20 -109.5 -21t-121.5 17.5t-100 70.5t-41 130q0 131 129 223l-4 11l-72 221h-506l-72 -221q-8 -25 -35 -25h-266q-39 0 -24 35l495 1374q10 25 35 25h236q31 0 39 -25l466 -1292 v-2zM555 502h336l-168 514z" glyph-name="Aogonek" horiz-adv-x="1443" unicode="Ą"/><glyph d="M1114 1004q31 0 31 -31v-942q0 -31 -31 -31h-39q-80 0 -127 -46t-47 -101q0 -37 30 -60.5t95 -11.5v-187q-47 -20 -109.5 -21t-122 17.5t-100.5 70.5t-41 130q0 176 217 275l-8 51q-106 -131 -287 -131q-209 0 -347 148.5t-138 365.5q0 221 138.5 372.5t346.5 151.5 q176 0 289 -143l10 92q4 31 31 31h209zM612 266q100 0 163 65.5t63 170.5q0 102 -62.5 171.5t-163.5 69.5q-98 0 -162.5 -67.5t-64.5 -173.5q0 -104 64.5 -170t162.5 -66z" glyph-name="aogonek" horiz-adv-x="1249" unicode="ą"/><glyph d="M1079 1860q41 0 25 -35l-123 -258q-10 -25 -35 -25h-221q-41 0 -25 35l123 258q10 25 35 25h221zM1190 397l158 -170q20 -23 0 -43q-201 -211 -506 -211q-309 0 -525.5 214t-216.5 523.5t216 524.5t526 215q303 0 506 -209q18 -20 0 -43l-158 -172q-18 -23 -43 -2 q-135 115 -307 115q-174 0 -293 -123t-119 -305q0 -180 119 -303t293 -123q172 0 307 114q25 21 43 -2z" glyph-name="Cacute" horiz-adv-x="1447" unicode="Ć"/><glyph d="M893 1491q41 0 25 -35l-123 -258q-10 -25 -35 -24h-221q-41 0 -25 34l123 258q10 25 35 25h221zM612 270q100 0 191 78q25 20 45 0l147 -141q20 -20 2 -43q-156 -178 -393 -178q-217 0 -365.5 151.5t-148.5 370.5q0 215 149.5 365.5t364.5 150.5q231 0 387 -178 q18 -23 -2 -43l-147 -144q-20 -20 -45 3q-88 78 -185 77q-98 0 -162.5 -66.5t-64.5 -164.5q0 -100 64.5 -169t162.5 -69z" glyph-name="cacute" horiz-adv-x="1181" unicode="ć"/><glyph d="M827.5 1569q-61.5 0 -106.5 44t-45 109q0 63 45 107.5t106.5 44.5t106.5 -44t45 -108q0 -66 -45 -109.5t-106.5 -43.5zM1190 397l158 -170q20 -23 0 -43q-201 -211 -506 -211q-309 0 -525.5 214t-216.5 523.5t216 524.5t526 215q303 0 506 -209q18 -20 0 -43l-158 -172 q-18 -23 -43 -2q-135 115 -307 115q-174 0 -293 -123t-119 -305q0 -180 119 -303t293 -123q172 0 307 114q25 21 43 -2z" glyph-name="Cdotaccent" horiz-adv-x="1447" unicode="Ċ"/><glyph d="M620.5 1139q-61.5 0 -106.5 44t-45 109q0 63 45 107.5t106.5 44.5t106.5 -44t45 -108q0 -66 -45 -109.5t-106.5 -43.5zM612 270q100 0 191 78q25 20 45 0l147 -141q20 -20 2 -43q-156 -178 -393 -178q-217 0 -365.5 151.5t-148.5 370.5q0 215 149.5 365.5t364.5 150.5 q231 0 387 -178q18 -23 -2 -43l-147 -144q-20 -20 -45 3q-88 78 -185 77q-98 0 -162.5 -66.5t-64.5 -164.5q0 -100 64.5 -169t162.5 -69z" glyph-name="cdotaccent" horiz-adv-x="1181" unicode="ċ"/><glyph d="M915 1581h-176q-23 0 -37 16l-200 226q-12 14 -7 25.5t25 11.5h154q23 0 37 -17l116 -137l117 137q14 16 37 17h154q20 0 26 -11.5t-6 -25.5l-203 -226q-14 -16 -37 -16zM1190 397l158 -170q20 -23 0 -43q-201 -211 -506 -211q-309 0 -525.5 214t-216.5 523.5t216 524.5 t526 215q303 0 506 -209q18 -20 0 -43l-158 -172q-18 -23 -43 -2q-135 115 -307 115q-174 0 -293 -123t-119 -305q0 -180 119 -303t293 -123q172 0 307 114q25 21 43 -2z" glyph-name="Ccaron" horiz-adv-x="1447" unicode="Č"/><glyph d="M645 1155h-176q-23 0 -37 16l-201 226q-12 14 -7 25.5t26 11.5h153q23 0 37 -17l117 -137l117 137q14 16 37 17h153q20 0 26.5 -11.5t-5.5 -25.5l-203 -226q-14 -16 -37 -16zM612 270q100 0 191 78q25 20 45 0l147 -141q20 -20 2 -43q-156 -178 -393 -178 q-217 0 -365.5 151.5t-148.5 370.5q0 215 149.5 365.5t364.5 150.5q231 0 387 -178q18 -23 -2 -43l-147 -144q-20 -20 -45 3q-88 78 -185 77q-98 0 -162.5 -66.5t-64.5 -164.5q0 -100 64.5 -169t162.5 -69z" glyph-name="ccaron" horiz-adv-x="1181" unicode="č"/><glyph d="M575 1597l-200 226q-12 14 -7 25.5t25 11.5h154q23 0 37 -17l116 -137l117 137q14 16 37 17h154q20 0 26 -11.5t-6 -25.5l-203 -226q-14 -16 -37 -16h-176q-23 0 -37 16zM600 1434q356 0 555 -203t199 -514t-199 -514t-555 -203h-428q-31 0 -31 31v1372q0 31 31 31h428z M600 281q213 0 321.5 112.5t108.5 323.5t-108.5 323.5t-321.5 112.5h-141v-872h141z" glyph-name="Dcaron" horiz-adv-x="1441" unicode="Ď"/><glyph d="M1114 1495q31 0 31 -31v-1433q0 -31 -31 -31h-209q-27 0 -31 31l-12 86q-106 -131 -287 -131q-209 0 -347 148.5t-138 365.5q0 221 138.5 372.5t346.5 151.5q156 0 263 -113v553q0 31 30 31h246zM1595 1495q41 0 25 -35l-123 -258q-10 -25 -35 -24h-221q-41 0 -24 34 l122 258q10 25 35 25h221zM612 266q100 0 163 65.5t63 170.5q0 102 -62.5 171.5t-163.5 69.5q-98 0 -162.5 -67.5t-64.5 -173.5q0 -104 64.5 -170t162.5 -66z" glyph-name="dcaron" horiz-adv-x="1622" unicode="ď"/><glyph d="M616 1434q356 0 555 -203t199 -514t-198.5 -514t-555.5 -203h-428q-31 0 -30 31v553h-76q-31 0 -31 30v177q0 31 31 30h76v582q0 31 30 31h428zM616 281q213 0 322 112.5t109 323.5t-109 323.5t-322 112.5h-141v-332h242q31 0 31 -30v-177q0 -31 -31 -30h-242v-303h141z " glyph-name="Dcroat" horiz-adv-x="1458" unicode="Đ"/><glyph d="M1214 1327q31 0 31 -31v-176q0 -31 -31 -30h-69v-1059q0 -31 -31 -31h-209q-27 0 -31 31l-12 86q-106 -131 -287 -131q-209 0 -347 148.5t-138 365.5q0 221 138.5 372.5t346.5 151.5q156 0 263 -113v179h-258q-31 0 -31 30v176q0 31 31 31h258v137q0 31 30 31h246 q31 0 31 -31v-137h69zM612 266q100 0 163 65.5t63 170.5q0 102 -62.5 171.5t-163.5 69.5q-98 0 -162.5 -67.5t-64.5 -173.5q0 -104 64.5 -170t162.5 -66z" glyph-name="dcroat" horiz-adv-x="1275" unicode="đ"/><glyph d="M883 1860q31 0 30 -31v-176q0 -31 -30 -31h-635q-31 0 -31 31v176q0 31 31 31h635zM942 281q31 0 31 -31v-219q0 -31 -31 -31h-770q-31 0 -31 31v1372q0 31 31 31h768q31 0 31 -31v-219q0 -31 -31 -31h-481v-281h452q31 0 31 -30v-219q0 -31 -31 -31h-452v-311h483z" glyph-name="Emacron" horiz-adv-x="1105" unicode="Ē"/><glyph d="M268 1192q-31 0 -30 31v176q0 31 30 31h635q31 0 31 -31v-176q0 -31 -31 -31h-635zM1077 524q0 -68 -14 -97.5t-59 -29.5h-609q47 -166 258 -166q100 0 195 60q25 16 45 -4l106 -103q18 -23 -4 -45q-154 -154 -372 -153q-233 0 -383 150.5t-150 369.5t145.5 368.5 t364.5 149.5q213 0 345 -145.5t132 -354.5zM602 764q-80 0 -137 -44t-74 -128h414q-14 84 -69.5 128t-133.5 44z" glyph-name="emacron" horiz-adv-x="1167" unicode="ē"/><glyph d="M565.5 1569q-61.5 0 -106.5 44t-45 109q0 63 45 107.5t106.5 44.5t106.5 -44t45 -108q0 -66 -45 -109.5t-106.5 -43.5zM942 281q31 0 31 -31v-219q0 -31 -31 -31h-770q-31 0 -31 31v1372q0 31 31 31h768q31 0 31 -31v-219q0 -31 -31 -31h-481v-281h452q31 0 31 -30v-219 q0 -31 -31 -31h-452v-311h483z" glyph-name="Edotaccent" horiz-adv-x="1105" unicode="Ė"/><glyph d="M585.5 1139q-61.5 0 -106.5 44t-45 109q0 63 45 107.5t106.5 44.5t106.5 -44t45 -108q0 -66 -45 -109.5t-106.5 -43.5zM1077 524q0 -68 -14 -97.5t-59 -29.5h-609q47 -166 258 -166q100 0 195 60q25 16 45 -4l106 -103q18 -23 -4 -45q-154 -154 -372 -153 q-233 0 -383 150.5t-150 369.5t145.5 368.5t364.5 149.5q213 0 345 -145.5t132 -354.5zM602 764q-80 0 -137 -44t-74 -128h414q-14 84 -69.5 128t-133.5 44z" glyph-name="edotaccent" horiz-adv-x="1167" unicode="ė"/><glyph d="M942 281q31 0 31 -31v-219q0 -31 -31 -31h-72q-84 -41 -84 -127q0 -37 30 -60.5t95 -11.5v-186q-47 -20 -109.5 -21.5t-121.5 17t-100 71t-41 130.5q0 106 86 188h-453q-31 0 -31 31v1372q0 31 31 31h768q31 0 31 -31v-219q0 -31 -31 -31h-481v-281h452q31 0 31 -30v-219 q0 -31 -31 -31h-452v-311h483z" glyph-name="Eogonek" horiz-adv-x="1105" unicode="Ę"/><glyph d="M1077 524q0 -68 -14 -97.5t-59 -29.5h-609q47 -166 258 -166q100 0 195 60q25 16 45 -4l106 -103q18 -23 -4 -45q-90 -90 -217 -131v-8q-188 -47 -188 -158q0 -37 30.5 -60.5t94.5 -10.5v-187q-47 -20 -109.5 -21t-121 17.5t-99.5 70.5t-41 130q0 133 135 221 q-176 45 -282.5 183.5t-106.5 320.5q0 219 145.5 368.5t364.5 149.5q213 0 345 -145.5t132 -354.5zM602 764q-80 0 -137 -44t-74 -128h414q-14 84 -69.5 128t-133.5 44z" glyph-name="eogonek" horiz-adv-x="1146" unicode="ę"/><glyph d="M653 1581h-176q-23 0 -37 16l-200 226q-12 14 -7 25.5t25 11.5h154q23 0 37 -17l116 -137l117 137q14 16 37 17h153q20 0 26.5 -11.5t-5.5 -25.5l-203 -226q-14 -16 -37 -16zM942 281q31 0 31 -31v-219q0 -31 -31 -31h-770q-31 0 -31 31v1372q0 31 31 31h768q31 0 31 -31 v-219q0 -31 -31 -31h-481v-281h452q31 0 31 -30v-219q0 -31 -31 -31h-452v-311h483z" glyph-name="Ecaron" horiz-adv-x="1105" unicode="Ě"/><glyph d="M461 1167l-201 226q-12 14 -7 25.5t26 11.5h153q23 0 37 -17l117 -137l116 137q14 16 37 17h154q20 0 26.5 -11.5t-6.5 -25.5l-202 -226q-14 -16 -37 -16h-176q-23 0 -37 16zM1077 524q0 -68 -14 -97.5t-59 -29.5h-609q47 -166 258 -166q100 0 195 60q25 16 45 -4 l106 -103q18 -23 -4 -45q-154 -154 -372 -153q-233 0 -383 150.5t-150 369.5t145.5 368.5t364.5 149.5q213 0 345 -145.5t132 -354.5zM602 764q-80 0 -137 -44t-74 -128h414q-14 84 -69.5 128t-133.5 44z" glyph-name="ecaron" horiz-adv-x="1167" unicode="ě"/><glyph d="M838 1565q-143 0 -230.5 75.5t-99.5 190.5q-4 31 29 31h122q27 0 33 -29q10 -39 48 -68.5t98 -29.5q115 0 145 98q6 29 33 29h123q33 0 28 -31q-10 -115 -99 -190.5t-230 -75.5zM1477 821q31 0 30 -30v-140q0 -289 -179 -483.5t-476 -194.5q-315 0 -533.5 216.5 t-218.5 527.5q0 305 216 519t526 214q303 0 506 -209q18 -20 0 -43l-158 -172q-18 -23 -43 -2q-135 115 -307 115q-174 0 -293 -122t-119 -300q0 -186 115.5 -309t304.5 -123q160 0 253 78.5t99 193.5h-344q-31 0 -31 31v203q0 31 31 30h621z" glyph-name="Gbreve" horiz-adv-x="1597" unicode="Ğ"/><glyph d="M637 1135q-143 0 -230.5 75.5t-99.5 190.5q-4 31 29 31h123q27 0 33 -29q10 -39 48 -68.5t97 -29.5q115 0 145 98q6 29 33 29h123q33 0 29 -31q-10 -115 -99.5 -190.5t-230.5 -75.5zM1120 1004q31 0 31 -31v-965q0 -115 -50 -199.5t-132 -129t-170 -65t-183 -20.5 q-266 0 -446 132q-20 14 -8 41l80 143q18 25 41 12q133 -78 309 -78q104 0 190 44t86 147v94q-119 -135 -295 -135q-207 0 -345 150.5t-138 365.5t138.5 365.5t344.5 150.5q168 0 287 -133l6 80q4 31 31 31h223zM612 274q94 0 160 72t66 166t-65.5 165t-160.5 71 q-96 0 -161.5 -69t-65.5 -167q0 -100 64.5 -169t162.5 -69z" glyph-name="gbreve" horiz-adv-x="1271" unicode="ğ"/><glyph d="M837.5 1569q-61.5 0 -106.5 44t-45 109q0 63 45 107.5t106.5 44.5t106.5 -44t45 -108q0 -66 -45 -109.5t-106.5 -43.5zM1477 821q31 0 30 -30v-140q0 -289 -179 -483.5t-476 -194.5q-315 0 -533.5 216.5t-218.5 527.5q0 305 216 519t526 214q303 0 506 -209q18 -20 0 -43 l-158 -172q-18 -23 -43 -2q-135 115 -307 115q-174 0 -293 -122t-119 -300q0 -186 115.5 -309t304.5 -123q160 0 253 78.5t99 193.5h-344q-31 0 -31 31v203q0 31 31 30h621z" glyph-name="Gdotaccent" horiz-adv-x="1597" unicode="Ġ"/><glyph d="M636.5 1139q-61.5 0 -106.5 44t-45 109q0 63 45 107.5t106.5 44.5t106.5 -44t45 -108q0 -66 -45 -109.5t-106.5 -43.5zM1120 1004q31 0 31 -31v-965q0 -115 -50 -199.5t-132 -129t-170 -65t-183 -20.5q-266 0 -446 132q-20 14 -8 41l80 143q18 25 41 12q133 -78 309 -78 q104 0 190 44t86 147v94q-119 -135 -295 -135q-207 0 -345 150.5t-138 365.5t138.5 365.5t344.5 150.5q168 0 287 -133l6 80q4 31 31 31h223zM612 274q94 0 160 72t66 166t-65.5 165t-160.5 71q-96 0 -161.5 -69t-65.5 -167q0 -100 64.5 -169t162.5 -69z" glyph-name="gdotaccent" horiz-adv-x="1271" unicode="ġ"/><glyph d="M1477 821q31 0 30 -30v-140q0 -289 -179 -483.5t-476 -194.5q-315 0 -533.5 216.5t-218.5 527.5q0 305 216 519t526 214q303 0 506 -209q18 -20 0 -43l-158 -172q-18 -23 -43 -2q-135 115 -307 115q-174 0 -293 -122t-119 -300q0 -186 115.5 -309t304.5 -123 q160 0 253 78.5t99 193.5h-344q-31 0 -31 31v203q0 31 31 30h621zM811 -78q74 0 121 -53t47 -145q0 -213 -211 -435l-76 45q74 113 90 256q-61 10 -102 57.5t-41 108.5q0 70 50 118t122 48z" glyph-name="Gcommaaccent" horiz-adv-x="1597" unicode="Ģ"/><glyph d="M612 1122q-74 0 -121 53.5t-47 145.5q0 213 211 434l76 -45q-74 -113 -90 -256q61 -10 102 -57t41 -109q0 -70 -50 -118t-122 -48zM1120 1004q31 0 31 -31v-965q0 -115 -50 -199.5t-132 -129t-170 -65t-183 -20.5q-266 0 -446 132q-20 14 -8 41l80 143q18 25 41 12 q133 -78 309 -78q104 0 190 44t86 147v94q-119 -135 -295 -135q-207 0 -345 150.5t-138 365.5t138.5 365.5t344.5 150.5q168 0 287 -133l6 80q4 31 31 31h223zM612 274q94 0 160 72t66 166t-65.5 165t-160.5 71q-96 0 -161.5 -69t-65.5 -167q0 -100 64.5 -169t162.5 -69z " glyph-name="gcommaaccent" horiz-adv-x="1251" unicode="ģ"/><glyph d="M1245 1434q31 0 31 -31v-1372q0 -31 -31 -31h-256q-31 0 -31 31v532h-499v-532q0 -31 -31 -31h-256q-31 0 -31 31v1372q0 31 31 31h256q31 0 31 -31v-191h499v191q0 31 31 31h256zM459 844h499v114h-499v-114z" glyph-name="Hbar" horiz-adv-x="1417" unicode="Ħ"/><glyph d="M760 1026q156 0 260 -117.5t104 -314.5v-563q0 -31 -30 -31h-246q-31 0 -31 31v501q0 111 -50 160t-122 49q-90 0 -142 -65.5t-52 -118.5v-526q0 -31 -31 -31h-246q-31 0 -31 31v1032h-82q-31 0 -30 31v176q0 31 30 30h82v164q0 31 31 31h246q31 0 31 -31v-164h245 q31 0 31 -30v-176q0 -31 -31 -31h-245v-217q108 180 309 180z" glyph-name="hbar" horiz-adv-x="1224" unicode="ħ"/><glyph d="M618 1860q31 0 31 -31v-176q0 -31 -31 -31h-634q-31 0 -31 31v176q0 31 31 31h634zM141 1403q0 31 31 31h256q31 0 31 -31v-1372q0 -31 -31 -31h-256q-31 0 -31 31v1372z" glyph-name="Imacron" horiz-adv-x="600" unicode="Ī"/><glyph d="M582 1430q31 0 30 -31v-176q0 -31 -30 -31h-635q-31 0 -31 31v176q0 31 31 31h635zM111 973q0 31 30 31h246q31 0 31 -31v-942q0 -31 -31 -31h-246q-31 0 -30 31v942z" glyph-name="imacron" horiz-adv-x="528" unicode="ī"/><glyph d="M264.5 1139q-61.5 0 -106.5 44t-45 109q0 63 45 107.5t106.5 44.5t106.5 -44t45 -108q0 -66 -45 -109.5t-106.5 -43.5zM387 1004q31 0 31 -31v-942q0 -31 -31 -31q-82 0 -128 -46t-46 -101q0 -37 29.5 -60.5t95.5 -11.5v-187q-47 -20 -109.5 -21t-122 17.5t-100.5 70.5 t-41 130q0 141 146 236v4v942q0 31 30 31h246z" glyph-name="iogonek" horiz-adv-x="528" unicode="į"/><glyph d="M301 1569q-61 0 -106 44t-45 109q0 63 45 107.5t106 44.5t106.5 -44t45.5 -108q0 -66 -45.5 -109.5t-106.5 -43.5zM141 1403q0 31 31 31h256q31 0 31 -31v-1372q0 -31 -31 -31h-256q-31 0 -31 31v1372z" glyph-name="Idotaccent" horiz-adv-x="600" unicode="İ"/><glyph d="M111 973q0 31 30 31h246q31 0 31 -31v-942q0 -31 -31 -31h-246q-31 0 -30 31v942z" glyph-name="dotlessi" horiz-adv-x="528" unicode="ı"/><glyph d="M141 1403q0 31 31 31h256q31 0 31 -31v-1372q0 -31 -31 -31h-256q-31 0 -31 31v1372zM834 358q16 23 45 2q2 -2 15 -10t18.5 -11t19.5 -11.5t23.5 -11.5t24.5 -9t29.5 -9t32 -5t35.5 -2q207 0 207 264v848q0 31 31 31h256q31 0 31 -31v-858q0 -287 -137.5 -425 t-377.5 -138q-256 0 -385 151q-14 16 0 43z" glyph-name="IJ" horiz-adv-x="1742" unicode="Ĳ"/><glyph d="M284.5 1180q-69.5 0 -116.5 48t-47 115q0 70 47 118t116.5 48t117 -48t47.5 -118q0 -68 -47.5 -115.5t-117 -47.5zM928 1180q-68 0 -116 48t-48 115q0 70 48 118t116 48q70 0 118 -48t48 -118q0 -68 -48 -115.5t-118 -47.5zM131 973q0 31 31 31h246q31 0 30 -31v-942 q0 -31 -30 -31h-246q-31 0 -31 31v942zM809 1004h246q31 0 30 -31v-950q0 -205 -116.5 -313.5t-315.5 -115.5q-20 0 -24 17l-78 250q-8 23 14 22q86 6 149.5 54.5t63.5 146.5v889q0 31 31 31z" glyph-name="ij" horiz-adv-x="1214" unicode="ĳ"/><glyph d="M1323 37q10 -16 5 -26.5t-23 -10.5h-304q-25 0 -36 18l-398 555l-108 -124v-418q0 -31 -31 -31h-256q-31 0 -31 31v1372q0 31 31 31h256q31 0 31 -31v-533l448 547q14 16 37 17h320q18 0 23 -11.5t-7 -25.5l-502 -580zM784 -78q74 0 121 -53t47 -145q0 -213 -211 -435 l-75 45q74 113 90 256q-61 10 -102.5 57.5t-41.5 108.5q0 70 50 118t122 48z" glyph-name="Kcommaaccent" horiz-adv-x="1542" unicode="Ķ"/><glyph d="M1147 37q10 -16 5 -26.5t-24 -10.5h-264q-25 0 -37 18l-278 371l-121 -131v-227q0 -31 -31 -31h-245q-31 0 -31 31v1433q0 31 31 31h245q31 0 31 -31v-833l328 356q14 16 35 17h278q20 0 25.5 -11.5t-9.5 -25.5l-350 -377zM625 -78q74 0 121 -53t47 -145 q0 -213 -211 -435l-76 45q74 113 90 256q-61 10 -102 57.5t-41 108.5q0 70 50 118t122 48z" glyph-name="kcommaaccent" horiz-adv-x="1216" unicode="ķ"/><glyph d="M227 1538q-41 0 -24 35l123 258q10 25 34 24h222q41 0 24 -34l-123 -258q-10 -25 -34 -25h-222zM901 281q31 0 31 -31v-219q0 -31 -31 -31h-729q-31 0 -31 31v1372q0 31 31 31h256q31 0 31 -31v-1122h442z" glyph-name="Lacute" horiz-adv-x="1011" unicode="Ĺ"/><glyph d="M526 1921q41 0 25 -35l-123 -258q-10 -25 -35 -24h-221q-41 0 -25 34l123 258q10 25 35 25h221zM121 1464q0 31 31 31h245q31 0 31 -31v-1433q0 -31 -31 -31h-245q-31 0 -31 31v1433z" glyph-name="lacute" horiz-adv-x="548" unicode="ĺ"/><glyph d="M901 281q31 0 31 -31v-219q0 -31 -31 -31h-729q-31 0 -31 31v1372q0 31 31 31h256q31 0 31 -31v-1122h442zM518 -78q74 0 121 -53t47 -145q0 -213 -211 -435l-76 45q74 113 90 256q-61 10 -102 57.5t-41 108.5q0 70 50 118t122 48z" glyph-name="Lcommaaccent" horiz-adv-x="1032" unicode="Ļ"/><glyph d="M152 0q-31 0 -31 31v1433q0 31 31 31h245q31 0 31 -31v-1433q0 -31 -31 -31h-245zM281 -78q74 0 121 -53t47 -145q0 -213 -211 -435l-76 45q74 113 90 256q-61 10 -102 57.5t-41 108.5q0 70 50 118t122 48z" glyph-name="lcommaaccent" horiz-adv-x="548" unicode="ļ"/><glyph d="M745 1200q-61 10 -102 57.5t-41 108.5q0 70 50 118t122 48q74 0 121 -53.5t47 -145.5q0 -213 -211 -434l-76 45q74 113 90 256zM901 281q31 0 31 -31v-219q0 -31 -31 -31h-729q-31 0 -31 31v1372q0 31 31 31h256q31 0 31 -31v-1122h442z" glyph-name="Lcaron" horiz-adv-x="1011" unicode="Ľ"/><glyph d="M705 1532q74 0 120.5 -53.5t46.5 -145.5q0 -213 -210 -434l-76 45q74 113 90 256q-61 10 -102.5 57.5t-41.5 108.5q0 70 50.5 118t122.5 48zM397 1495q31 0 31 -31v-1433q0 -31 -31 -31h-245q-31 0 -31 31v1433q0 31 31 31h245z" glyph-name="lcaron" horiz-adv-x="915" unicode="ľ"/><glyph d="M901 281q31 0 31 -31v-219q0 -31 -31 -31h-729q-31 0 -31 31v1372q0 31 31 31h256q31 0 31 -31v-1122h442zM836 915q68 0 115.5 -48t47.5 -115q0 -70 -48 -118t-115 -48q-70 0 -118 48t-48 118q0 68 48 115.5t118 47.5z" glyph-name="Ldot" horiz-adv-x="1060" unicode="Ŀ"/><glyph d="M121 1464q0 31 31 31h245q31 0 31 -31v-1433q0 -31 -31 -31h-245q-31 0 -31 31v1433zM674 582q-70 0 -118 48t-48 118q0 68 48 115.5t118 47.5q68 0 116 -48t48 -115q0 -70 -48 -118t-116 -48z" glyph-name="ldot" horiz-adv-x="907" unicode="ŀ"/><glyph d="M946 281q31 0 31 -31v-219q0 -31 -31 -31h-729q-31 0 -31 31v385l-88 -86q-16 -14 -26.5 -9t-10.5 25v203q0 23 17 39l108 106v709q0 31 31 31h256q31 0 31 -31v-397l180 176q16 14 26.5 9t10.5 -26v-200q0 -23 -16 -39l-201 -197v-448h442z" glyph-name="Lslash" horiz-adv-x="1056" unicode="Ł"/><glyph d="M627 1143v-262l-127 -133v-717q0 -31 -31 -31h-246q-31 0 -30 31v393l-101 -107v265l101 106v776q0 31 30 31h246q31 0 31 -31v-452l125 131h2z" glyph-name="lslash" horiz-adv-x="718" unicode="ł"/><glyph d="M629 1542q-41 0 -25 35l123 258q10 25 35 25h221q41 0 25 -35l-123 -258q-10 -25 -35 -25h-221zM1290 1434q31 0 31 -31v-1372q0 -31 -31 -31h-291q-25 0 -36 20l-504 904v-893q0 -31 -31 -31h-256q-31 0 -31 31v1372q0 31 31 31h289q25 0 37 -21l506 -905v895 q0 31 30 31h256z" glyph-name="Nacute" horiz-adv-x="1462" unicode="Ń"/><glyph d="M508 1112q-41 0 -25 35l123 258q10 25 35 25h221q41 0 25 -35l-123 -258q-10 -25 -35 -25h-221zM737 1026q156 0 260.5 -117.5t104.5 -314.5v-563q0 -31 -31 -31h-246q-31 0 -30 31v501q0 111 -50.5 160t-121.5 49q-90 0 -142.5 -65.5t-52.5 -118.5v-526q0 -31 -31 -31 h-245q-31 0 -31 31v942q0 31 31 31h237q27 0 31 -31l8 -127q108 180 309 180z" glyph-name="nacute" horiz-adv-x="1222" unicode="ń"/><glyph d="M1290 1434q31 0 31 -31v-1372q0 -31 -31 -31h-291q-25 0 -36 20l-504 904v-893q0 -31 -31 -31h-256q-31 0 -31 31v1372q0 31 31 31h289q25 0 37 -21l506 -905v895q0 31 30 31h256zM737 -78q74 0 121 -53t47 -145q0 -213 -211 -435l-76 45q74 113 91 256 q-61 10 -102.5 57.5t-41.5 108.5q0 70 50 118t122 48z" glyph-name="Ncommaaccent" horiz-adv-x="1462" unicode="Ņ"/><glyph d="M737 1026q156 0 260.5 -117.5t104.5 -314.5v-563q0 -31 -31 -31h-246q-31 0 -30 31v501q0 111 -50.5 160t-121.5 49q-90 0 -142.5 -65.5t-52.5 -118.5v-526q0 -31 -31 -31h-245q-31 0 -31 31v942q0 31 31 31h237q27 0 31 -31l8 -127q108 180 309 180zM616 -78 q74 0 121 -53t47 -145q0 -213 -211 -435l-75 45q74 113 90 256q-61 10 -102.5 57.5t-41.5 108.5q0 70 50 118t122 48z" glyph-name="ncommaaccent" horiz-adv-x="1222" unicode="ņ"/><glyph d="M606 1597l-200 226q-12 14 -7.5 25.5t25.5 11.5h154q23 0 36 -17l117 -137l117 137q14 16 37 17h153q20 0 26.5 -11.5t-5.5 -25.5l-203 -226q-14 -16 -37 -16h-176q-23 0 -37 16zM1290 1434q31 0 31 -31v-1372q0 -31 -31 -31h-291q-25 0 -36 20l-504 904v-893 q0 -31 -31 -31h-256q-31 0 -31 31v1372q0 31 31 31h289q25 0 37 -21l506 -905v895q0 31 30 31h256z" glyph-name="Ncaron" horiz-adv-x="1462" unicode="Ň"/><glyph d="M485 1167l-200 226q-12 14 -7 25.5t25 11.5h154q23 0 37 -17l116 -137l117 137q14 16 37 17h154q20 0 26 -11.5t-6 -25.5l-203 -226q-14 -16 -37 -16h-176q-23 0 -37 16zM737 1026q156 0 260.5 -117.5t104.5 -314.5v-563q0 -31 -31 -31h-246q-31 0 -30 31v501 q0 111 -50.5 160t-121.5 49q-90 0 -142.5 -65.5t-52.5 -118.5v-526q0 -31 -31 -31h-245q-31 0 -31 31v942q0 31 31 31h237q27 0 31 -31l8 -127q108 180 309 180z" glyph-name="ncaron" horiz-adv-x="1222" unicode="ň"/><glyph d="M1290 1434q31 0 31 -31v-1372q0 -10 -8 -23q-31 -219 -164 -325.5t-342 -106.5q-256 0 -385 152q-14 16 0 43l131 182q16 23 45 2q2 -2 15.5 -10t18.5 -11.5t19.5 -11.5t23.5 -11t24.5 -9t29.5 -9.5t31.5 -5.5t36.5 -2q137 0 184 119q-12 2 -18 16l-504 904v-893 q0 -31 -31 -31h-256q-31 0 -31 31v1372q0 31 31 31h289q25 0 37 -21l506 -905v895q0 31 30 31h256z" glyph-name="Eng" horiz-adv-x="1441" unicode="Ŋ"/><glyph d="M737 1026q156 0 260.5 -117.5t104.5 -314.5v-563q0 -14 -10 -25q-4 -199 -122 -305.5t-311 -106.5q-18 0 -24 17l-78 250q-8 23 14 22q84 0 148.5 51.5t64.5 149.5v121h11v327q0 111 -50.5 160t-121.5 49q-90 0 -142.5 -65.5t-52.5 -118.5v-526q0 -31 -31 -31h-245 q-31 0 -31 31v942q0 31 31 31h237q27 0 31 -31l8 -127q108 180 309 180z" glyph-name="eng" horiz-adv-x="1202" unicode="ŋ"/><glyph d="M1155 1860q31 0 31 -31v-176q0 -31 -31 -31h-635q-31 0 -31 31v176q0 31 31 31h635zM838 -27q-305 0 -521.5 215t-216.5 522.5t216 523.5t522 216q307 0 523 -216t216 -523.5t-216 -522.5t-523 -215zM838 285q176 0 295.5 122.5t119.5 303.5q0 182 -119.5 305t-295.5 123 t-295 -123t-119 -305q0 -180 120 -303t294 -123z" glyph-name="Omacron" horiz-adv-x="1677" unicode="Ō"/><glyph d="M930 1430q31 0 31 -31v-176q0 -31 -31 -31h-635q-31 0 -31 31v176q0 31 31 31h635zM612 -20q-217 0 -369.5 152.5t-152.5 369.5q0 219 152.5 371.5t369.5 152.5q219 0 372 -152.5t153 -371.5q0 -217 -153 -369.5t-372 -152.5zM612 264q96 0 162 67.5t66 170.5 q0 104 -65.5 171.5t-162.5 67.5q-94 0 -160.5 -68.5t-66.5 -171t66.5 -170t160.5 -67.5z" glyph-name="omacron" horiz-adv-x="1226" unicode="ō"/><glyph d="M961 1860q41 0 24 -35l-123 -258q-10 -25 -35 -25h-221q-41 0 -24 35l123 258q10 25 34 25h222zM1360 1860q41 0 24 -35l-122 -258q-10 -25 -35 -25h-221q-41 0 -25 35l123 258q10 25 35 25h221zM838 -27q-305 0 -521.5 215t-216.5 522.5t216 523.5t522 216 q307 0 523 -216t216 -523.5t-216 -522.5t-523 -215zM838 285q176 0 295.5 122.5t119.5 303.5q0 182 -119.5 305t-295.5 123t-295 -123t-119 -305q0 -180 120 -303t294 -123z" glyph-name="Ohungarumlaut" horiz-adv-x="1677" unicode="Ő"/><glyph d="M735 1430q41 0 25 -35l-123 -258q-10 -25 -35 -25h-221q-41 0 -25 35l123 258q10 25 35 25h221zM1135 1430q41 0 24 -35l-123 -258q-10 -25 -35 -25h-221q-41 0 -24 35l123 258q10 25 34 25h222zM612 -20q-217 0 -369.5 152.5t-152.5 369.5q0 219 152.5 371.5 t369.5 152.5q219 0 372 -152.5t153 -371.5q0 -217 -153 -369.5t-372 -152.5zM612 264q96 0 162 67.5t66 170.5q0 104 -65.5 171.5t-162.5 67.5q-94 0 -160.5 -68.5t-66.5 -171t66.5 -170t160.5 -67.5z" glyph-name="ohungarumlaut" horiz-adv-x="1226" unicode="ő"/><glyph d="M2058 281q31 0 31 -31v-219q0 -31 -31 -31h-770q-31 0 -31 31v71q-186 -129 -419 -129q-305 0 -521.5 215t-216.5 522.5t216 523.5t522 216q233 0 419 -129v82q0 31 31 31h768q31 0 31 -31v-219q0 -31 -31 -31h-481v-281h453q31 0 30 -30v-219q0 -31 -30 -31h-453v-311 h483zM838 285q176 0 295.5 122.5t119.5 303.5q0 182 -119.5 305t-295.5 123t-295 -123t-119 -305q0 -180 120 -303t294 -123z" glyph-name="OE" horiz-adv-x="2201" unicode="Œ"/><glyph d="M1829 524q0 -68 -14.5 -97.5t-59.5 -29.5h-608q47 -166 258 -166q100 0 194 60q25 16 46 -4l106 -103q18 -23 -4 -45q-154 -154 -373 -153q-233 0 -385 151q-152 -158 -377 -157q-217 0 -369.5 152.5t-152.5 369.5q0 219 152.5 371.5t369.5 152.5q219 0 373 -154 q147 152 367 152q213 0 345 -145.5t132 -354.5zM1354 764q-80 0 -137.5 -44t-73.5 -128h413q-14 84 -69 128t-133 44zM612 264q96 0 162 67.5t66 170.5q0 104 -65.5 171.5t-162.5 67.5q-94 0 -160.5 -68.5t-66.5 -171t66.5 -170t160.5 -67.5z" glyph-name="oe" horiz-adv-x="1898" unicode="œ"/><glyph d="M498 1542q-41 0 -25 35l123 258q10 25 35 25h221q41 0 25 -35l-123 -258q-10 -25 -35 -25h-221zM1169 37q23 -37 -20 -37h-272q-25 0 -37 20l-297 463h-84v-452q0 -31 -31 -31h-256q-31 0 -31 31v1372q0 31 31 31h436q252 0 392.5 -130t140.5 -346q0 -156 -75 -269.5 t-216 -164.5zM459 1153v-389h143q98 0 167 45t69 149.5t-69 149.5t-167 45h-143z" glyph-name="Racute" horiz-adv-x="1275" unicode="Ŕ"/><glyph d="M303 1112q-41 0 -24 35l122 258q10 25 35 25h221q41 0 25 -35l-123 -258q-10 -25 -35 -25h-221zM823 975q20 -18 11 -45l-68 -176q-10 -33 -51 -23q-55 16 -84 17q-92 0 -147.5 -61.5t-55.5 -156.5v-499q0 -31 -31 -31h-245q-31 0 -31 31v942q0 31 31 31h235q27 0 31 -31 l8 -117q88 170 258 170q84 0 139 -51z" glyph-name="racute" horiz-adv-x="864" unicode="ŕ"/><glyph d="M1169 37q23 -37 -20 -37h-272q-25 0 -37 20l-297 463h-84v-452q0 -31 -31 -31h-256q-31 0 -31 31v1372q0 31 31 31h436q252 0 392.5 -130t140.5 -346q0 -156 -75 -269.5t-216 -164.5zM459 1153v-389h143q98 0 167 45t69 149.5t-69 149.5t-167 45h-143zM606 -78 q74 0 121 -53t47 -145q0 -213 -211 -435l-76 45q74 113 91 256q-61 10 -102.5 57.5t-41.5 108.5q0 70 50 118t122 48z" glyph-name="Rcommaaccent" horiz-adv-x="1275" unicode="Ŗ"/><glyph d="M823 975q20 -18 11 -45l-68 -176q-10 -33 -51 -23q-55 16 -84 17q-92 0 -147.5 -61.5t-55.5 -156.5v-499q0 -31 -31 -31h-245q-31 0 -31 31v942q0 31 31 31h235q27 0 31 -31l8 -117q88 170 258 170q84 0 139 -51zM279 -78q74 0 120.5 -53t46.5 -145q0 -213 -210 -435 l-76 45q74 113 90 256q-61 10 -102.5 57.5t-41.5 108.5q0 70 50.5 118t122.5 48z" glyph-name="rcommaaccent" horiz-adv-x="864" unicode="ŗ"/><glyph d="M475 1597l-201 226q-12 14 -7 25.5t26 11.5h153q23 0 37 -17l117 -137l117 137q14 16 37 17h153q20 0 26.5 -11.5t-5.5 -25.5l-203 -226q-14 -16 -37 -16h-176q-23 0 -37 16zM1169 37q23 -37 -20 -37h-272q-25 0 -37 20l-297 463h-84v-452q0 -31 -31 -31h-256 q-31 0 -31 31v1372q0 31 31 31h436q252 0 392.5 -130t140.5 -346q0 -156 -75 -269.5t-216 -164.5zM459 1153v-389h143q98 0 167 45t69 149.5t-69 149.5t-167 45h-143z" glyph-name="Rcaron" horiz-adv-x="1275" unicode="Ř"/><glyph d="M317 1151q-23 0 -36 16l-201 226q-12 14 -7 25.5t25 11.5h154q23 0 37 -17l117 -137l116 137q14 16 37 17h154q20 0 26 -11.5t-6 -25.5l-203 -226q-14 -16 -36 -16h-177zM823 975q20 -18 11 -45l-68 -176q-10 -33 -51 -23q-55 16 -84 17q-92 0 -147.5 -61.5t-55.5 -156.5 v-499q0 -31 -31 -31h-245q-31 0 -31 31v942q0 31 31 31h235q27 0 31 -31l8 -117q88 170 258 170q84 0 139 -51z" glyph-name="rcaron" horiz-adv-x="864" unicode="ř"/><glyph d="M834 1860q41 0 24 -35l-123 -258q-10 -25 -35 -25h-221q-41 0 -24 35l123 258q10 25 34 25h222zM449 1030q0 -51 48 -89t119.5 -60.5t156.5 -58.5t156.5 -80t120 -130t48.5 -202q0 -203 -151.5 -319t-352.5 -116q-154 0 -290 65.5t-206 160.5q-16 23 2 43l142 157 q18 27 45 5q160 -131 315 -132q78 0 131 38t53 104q0 45 -35.5 79.5t-93 59.5t-126 50.5t-138 60t-127 81t-93.5 120t-36 169.5q0 188 135.5 301t321.5 113q252 0 446 -190q23 -18 4 -43l-133 -162q-18 -27 -43 -8q-150 104 -264 104q-74 0 -114.5 -35t-40.5 -86z" glyph-name="Sacute" horiz-adv-x="1187" unicode="Ś"/><glyph d="M727 1430q41 0 25 -35l-123 -258q-10 -25 -35 -25h-221q-41 0 -25 35l123 258q10 25 35 25h221zM401 713q0 -37 48.5 -60.5t117 -42t137 -47t116.5 -96.5t48 -170q0 -145 -121.5 -231t-273.5 -86q-121 0 -223.5 49t-161.5 118q-14 18 0 41l90 131q14 18 47 0 q135 -84 238 -83q106 0 106 65q0 37 -48 61.5t-115.5 45t-135 50t-116 94t-48.5 159.5q0 145 105.5 230t249.5 85q223 0 352 -152q16 -20 -2 -43l-92 -120q-14 -18 -45 2q-121 70 -182 69q-43 0 -67 -20t-24 -49z" glyph-name="sacute" horiz-adv-x="946" unicode="ś"/><glyph d="M1098 410q0 -186 -128 -299t-311 -131l-51 -46q76 -6 131.5 -51t55.5 -121q0 -131 -110 -182t-263 -29q-18 2 -19 23v107q0 20 23 20q168 -18 168 49q0 16 -21.5 27.5t-58.5 13.5t-86 -12q-25 -10 -25 14v111q0 18 11 24l63 58q-121 23 -222 82t-157 133q-16 23 2 43 l142 157q18 27 45 5q160 -131 315 -132q78 0 131 38t53 104q0 45 -35.5 79.5t-93 59.5t-126 50.5t-138 60t-127 81t-93.5 120t-36 169.5q0 188 135.5 301t321.5 113q252 0 446 -190q23 -18 4 -43l-133 -162q-18 -27 -43 -8q-150 104 -264 104q-74 0 -114.5 -35t-40.5 -86 t48 -89t119.5 -60.5t156.5 -58.5t156.5 -80t120 -129.5t48.5 -202.5z" glyph-name="Scedilla" horiz-adv-x="1187" unicode="Ş"/><glyph d="M868 297q0 -121 -88 -203t-217 -106l-61 -54q76 -6 131 -51t55 -121q0 -131 -109.5 -182t-263.5 -29q-18 2 -18 23v107q0 20 22 20q168 -18 168 49q0 16 -21.5 27.5t-58 13.5t-85.5 -12q-25 -10 -25 14v111q0 18 10 24l66 62q-178 31 -285 157q-14 18 0 41l90 131 q14 18 47 0q135 -84 238 -83q106 0 106 65q0 37 -48 61.5t-115.5 45t-135 50t-116 94t-48.5 159.5q0 145 105.5 230t249.5 85q223 0 352 -152q16 -20 -2 -43l-92 -120q-14 -18 -45 2q-121 70 -182 69q-43 0 -67 -20.5t-24 -48.5q0 -37 48.5 -60.5t117 -42t137 -47 t116.5 -96.5t48 -170z" glyph-name="scedilla" horiz-adv-x="946" unicode="ş"/><glyph d="M670 1581h-176q-23 0 -37 16l-201 226q-12 14 -7 25.5t25 11.5h154q23 0 37 -17l117 -137l116 137q14 16 37 17h154q20 0 26.5 -11.5t-6.5 -25.5l-202 -226q-14 -16 -37 -16zM449 1030q0 -51 48 -89t119.5 -60.5t156.5 -58.5t156.5 -80t120 -130t48.5 -202 q0 -203 -151.5 -319t-352.5 -116q-154 0 -290 65.5t-206 160.5q-16 23 2 43l142 157q18 27 45 5q160 -131 315 -132q78 0 131 38t53 104q0 45 -35.5 79.5t-93 59.5t-126 50.5t-138 60t-127 81t-93.5 120t-36 169.5q0 188 135.5 301t321.5 113q252 0 446 -190q23 -18 4 -43 l-133 -162q-18 -27 -43 -8q-150 104 -264 104q-74 0 -114.5 -35t-40.5 -86z" glyph-name="Scaron" horiz-adv-x="1187" unicode="Š"/><glyph d="M563 1151h-176q-23 0 -37 16l-200 226q-12 14 -7.5 25.5t25.5 11.5h154q23 0 36 -17l117 -137l117 137q14 16 37 17h153q20 0 26.5 -11.5t-5.5 -25.5l-203 -226q-14 -16 -37 -16zM401 713q0 -37 48.5 -60.5t117 -42t137 -47t116.5 -96.5t48 -170q0 -145 -121.5 -231 t-273.5 -86q-121 0 -223.5 49t-161.5 118q-14 18 0 41l90 131q14 18 47 0q135 -84 238 -83q106 0 106 65q0 37 -48 61.5t-115.5 45t-135 50t-116 94t-48.5 159.5q0 145 105.5 230t249.5 85q223 0 352 -152q16 -20 -2 -43l-92 -120q-14 -18 -45 2q-121 70 -182 69 q-43 0 -67 -20t-24 -49z" glyph-name="scaron" horiz-adv-x="946" unicode="š"/><glyph d="M1059 1434q31 0 31 -31v-219q0 -31 -31 -31h-305v-1122q0 -31 -31 -31h-25l-75 -66q76 -6 131 -51t55 -121q0 -131 -109.5 -182t-263.5 -29q-18 2 -18 23v107q0 20 22 20q168 -18 168 49q0 16 -21.5 27.5t-58 13.5t-86.5 -12q-25 -10 -24 14v111q0 18 10 24l78 72h-39 q-31 0 -31 31v1122h-305q-31 0 -31 31v219q0 31 31 31h928z" glyph-name="Tcommaaccent" horiz-adv-x="1189" unicode="Ţ"/><glyph d="M735 1004q31 0 31 -31v-187q0 -31 -31 -30h-164v-725q0 -31 -30 -31h-23l-69 -59q76 -6 131 -51.5t55 -120.5q0 -131 -109.5 -182.5t-263.5 -28.5q-18 4 -18 22v107q0 20 22 20q168 -18 168 49q0 16 -21.5 27.5t-58.5 13.5t-86 -12q-25 -10 -24 14v111q0 18 10 24l72 66 h-31q-31 0 -31 31v725h-164q-31 0 -30 30v187q0 31 30 31h164v276q0 31 31 31h246q31 0 30 -31v-276h164z" glyph-name="tcommaaccent" horiz-adv-x="835" unicode="ţ"/><glyph d="M684 1581h-176q-23 0 -37 16l-201 226q-12 14 -7 25.5t26 11.5h153q23 0 37 -17l117 -137l117 137q14 16 37 17h153q20 0 26.5 -11.5t-5.5 -25.5l-203 -226q-14 -16 -37 -16zM1059 1434q31 0 31 -31v-219q0 -31 -31 -31h-305v-1122q0 -31 -31 -31h-256q-31 0 -31 31v1122 h-305q-31 0 -31 31v219q0 31 31 31h928z" glyph-name="Tcaron" horiz-adv-x="1189" unicode="Ť"/><glyph d="M1006 1434q41 0 24 -35l-123 -258q-10 -25 -35 -25h-221q-41 0 -24 35l123 258q10 25 34 25h222zM735 1004q31 0 31 -31v-187q0 -31 -31 -30h-164v-725q0 -31 -30 -31h-246q-31 0 -31 31v725h-164q-31 0 -30 30v187q0 31 30 31h164v276q0 31 31 31h246q31 0 30 -31v-276 h164z" glyph-name="tcaron" horiz-adv-x="1064" unicode="ť"/><glyph d="M1059 1434q31 0 31 -31v-219q0 -31 -31 -31h-305v-149h149q31 0 31 -31v-176q0 -31 -31 -31h-149v-735q0 -31 -31 -31h-256q-31 0 -31 31v735h-168q-31 0 -30 31v176q0 31 30 31h168v149h-305q-31 0 -31 31v219q0 31 31 31h928z" glyph-name="Tbar" horiz-adv-x="1169" unicode="Ŧ"/><glyph d="M735 1004q31 0 31 -31v-187q0 -31 -31 -30h-164v-84h123q31 0 31 -31v-188q0 -31 -31 -31h-123v-391q0 -31 -30 -31h-246q-31 0 -31 31v391h-164q-31 0 -30 31v188q0 31 30 31h164v84h-164q-31 0 -30 30v187q0 31 30 31h164v276q0 31 31 31h246q31 0 30 -31v-276h164z " glyph-name="tbar" horiz-adv-x="794" unicode="ŧ"/><glyph d="M1001 1860q31 0 31 -31v-176q0 -31 -31 -31h-634q-31 0 -31 31v176q0 31 31 31h634zM1204 1434q31 0 31 -31v-846q0 -276 -152.5 -430t-398.5 -154q-248 0 -400.5 154t-152.5 430v846q0 31 31 31h256q31 0 31 -31v-846q0 -270 235 -270q115 0 174.5 69.5t59.5 200.5v846 q0 31 30 31h256z" glyph-name="Umacron" horiz-adv-x="1366" unicode="Ū"/><glyph d="M283 1192q-31 0 -31 31v176q0 31 31 31h635q31 0 30 -31v-176q0 -31 -30 -31h-635zM1061 1004q31 0 31 -31v-942q0 -31 -31 -31h-238q-27 0 -30 31l-9 108q-117 -166 -290 -166q-170 0 -276.5 117t-106.5 316v567q0 31 30 31h246q31 0 31 -31v-506q0 -111 52 -159 t124 -48q90 0 140 56.5t50 121.5v535q0 31 31 31h246z" glyph-name="umacron" horiz-adv-x="1212" unicode="ū"/><glyph d="M829 1833q6 29 33 29h123q31 0 29 -31q-10 -115 -99.5 -190.5t-230.5 -75.5q-143 0 -230 75.5t-100 190.5q-2 31 29 31h123q27 0 33 -29q10 -39 48 -68.5t97 -29.5q114 0 145 98zM1204 1434q31 0 31 -31v-846q0 -276 -152.5 -430t-398.5 -154q-248 0 -400.5 154 t-152.5 430v846q0 31 31 31h256q31 0 31 -31v-846q0 -270 235 -270q115 0 174.5 69.5t59.5 200.5v846q0 31 30 31h256z" glyph-name="Ubreve" horiz-adv-x="1366" unicode="Ŭ"/><glyph d="M600 1135q-143 0 -230 75.5t-100 190.5q-4 31 29 31h123q27 0 33 -29q10 -39 48 -68.5t97 -29.5q115 0 145 98q6 29 33 29h123q33 0 29 -31q-10 -115 -99.5 -190.5t-230.5 -75.5zM1061 1004q31 0 31 -31v-942q0 -31 -31 -31h-238q-27 0 -30 31l-9 108 q-117 -166 -290 -166q-170 0 -276.5 117t-106.5 316v567q0 31 30 31h246q31 0 31 -31v-506q0 -111 52 -159t124 -48q90 0 140 56.5t50 121.5v535q0 31 31 31h246z" glyph-name="ubreve" horiz-adv-x="1212" unicode="ŭ"/><glyph d="M686 1956q86 0 150.5 -64.5t64.5 -152.5t-64.5 -151.5t-150.5 -63.5q-92 0 -157.5 63.5t-65.5 151.5q0 90 64.5 153.5t158.5 63.5zM682 1694q20 0 34.5 14t14.5 33q0 20 -14.5 33.5t-34.5 13.5q-18 0 -32.5 -13.5t-14.5 -33.5q0 -18 14.5 -32.5t32.5 -14.5zM1204 1434 q31 0 31 -31v-846q0 -276 -152.5 -430t-398.5 -154q-248 0 -400.5 154t-152.5 430v846q0 31 31 31h256q31 0 31 -31v-846q0 -270 235 -270q115 0 174.5 69.5t59.5 200.5v846q0 31 30 31h256z" glyph-name="Uring" horiz-adv-x="1366" unicode="Ů"/><glyph d="M602 1094q-92 0 -157.5 63.5t-65.5 151.5q0 90 64.5 153.5t158.5 63.5q86 0 150.5 -64.5t64.5 -152.5t-64.5 -151.5t-150.5 -63.5zM598 1358q-18 0 -32.5 -13.5t-14.5 -33.5q0 -18 14.5 -32.5t32.5 -14.5q20 0 34.5 14t14.5 33q0 20 -14.5 33.5t-34.5 13.5zM1061 1004 q31 0 31 -31v-942q0 -31 -31 -31h-238q-27 0 -30 31l-9 108q-117 -166 -290 -166q-170 0 -276.5 117t-106.5 316v567q0 31 30 31h246q31 0 31 -31v-506q0 -111 52 -159t124 -48q90 0 140 56.5t50 121.5v535q0 31 31 31h246z" glyph-name="uring" horiz-adv-x="1212" unicode="ů"/><glyph d="M807 1860q41 0 24 -35l-122 -258q-10 -25 -35 -25h-221q-41 0 -25 35l123 258q10 25 35 25h221zM1206 1860q41 0 25 -35l-123 -258q-10 -25 -35 -25h-221q-41 0 -25 35l123 258q10 25 35 25h221zM1204 1434q31 0 31 -31v-846q0 -276 -152.5 -430t-398.5 -154 q-248 0 -400.5 154t-152.5 430v846q0 31 31 31h256q31 0 31 -31v-846q0 -270 235 -270q115 0 174.5 69.5t59.5 200.5v846q0 31 30 31h256z" glyph-name="Uhungarumlaut" horiz-adv-x="1366" unicode="Ű"/><glyph d="M369 1112q-41 0 -25 35l123 258q10 25 35 25h221q41 0 25 -35l-123 -258q-10 -25 -35 -25h-221zM1122 1430q41 0 25 -35l-123 -258q-10 -25 -35 -25h-221q-41 0 -25 35l123 258q10 25 35 25h221zM1061 1004q31 0 31 -31v-942q0 -31 -31 -31h-238q-27 0 -30 31l-9 108 q-117 -166 -290 -166q-170 0 -276.5 117t-106.5 316v567q0 31 30 31h246q31 0 31 -31v-506q0 -111 52 -159t124 -48q90 0 140 56.5t50 121.5v535q0 31 31 31h246z" glyph-name="uhungarumlaut" horiz-adv-x="1212" unicode="ű"/><glyph d="M1204 1434q31 0 31 -31v-846q0 -227 -104.5 -372.5t-284.5 -190.5q-129 -61 -129 -141q0 -37 29.5 -60.5t95.5 -11.5v-187q-47 -20 -109.5 -21t-122 17.5t-100.5 70.5t-41 130q0 111 98 193q-201 35 -318.5 183t-117.5 390v846q0 31 31 31h256q31 0 31 -31v-846 q0 -270 235 -270q115 0 174.5 69.5t59.5 200.5v846q0 31 30 31h256z" glyph-name="Uogonek" horiz-adv-x="1345" unicode="Ų"/><glyph d="M1061 1004q31 0 31 -31v-942q0 -31 -31 -31h-2q-80 0 -127 -46t-47 -101q0 -37 29.5 -60.5t95.5 -11.5v-187q-47 -20 -109.5 -21t-122 17.5t-100.5 70.5t-41 130q0 143 156 244l-9 104q-117 -166 -290 -166q-170 0 -276.5 117t-106.5 316v567q0 31 30 31h246q31 0 31 -31 v-506q0 -111 52 -159t124 -48q90 0 140 56.5t50 121.5v535q0 31 31 31h246z" glyph-name="uogonek" horiz-adv-x="1191" unicode="ų"/><glyph d="M850 1581q-20 0 -25.5 11.5t6.5 25.5l201 225q14 16 37 17h176q23 0 37 -17l203 -225q12 -14 6 -25.5t-27 -11.5h-153q-23 0 -37 16l-117 138l-117 -138q-14 -16 -36 -16h-154zM2198 1434q35 0 24 -35l-434 -1374q-10 -25 -39 -25h-250q-29 0 -35 25l-309 931l-311 -931 q-8 -25 -33 -25h-250q-33 0 -39 25l-430 1374q-14 35 25 35h266q27 0 35 -25l272 -987l309 987q2 14 17 21q8 4 16 4h246q10 0 18 -4q8 -6 15 -21l309 -987l274 987q6 25 35 25h269z" glyph-name="Wcircumflex" horiz-adv-x="2314" unicode="Ŵ"/><glyph d="M647 1151q-20 0 -25.5 11.5t7.5 25.5l200 225q14 16 37 17h176q23 0 37 -17l203 -225q12 -14 6 -25.5t-26 -11.5h-154q-23 0 -37 16l-117 138l-116 -138q-14 -16 -37 -16h-154zM1808 1004q37 0 25 -35l-348 -944q-10 -25 -37 -25h-238q-27 0 -36 25l-222 581l-221 -581 q-10 -25 -37 -25h-235q-27 0 -37 25l-348 944q-12 35 24 35h242q29 0 37 -25l209 -619l217 619q6 18 20 20q8 4 17 5h227q8 0 16 -5q14 -2 21 -20l219 -619l207 619q10 25 37 25h241z" glyph-name="wcircumflex" horiz-adv-x="1906" unicode="ŵ"/><glyph d="M367 1581q-20 0 -25.5 11.5t6.5 25.5l201 225q14 16 37 17h176q23 0 37 -17l202 -225q12 -14 6 -25.5t-26 -11.5h-154q-23 0 -36 16l-117 138l-117 -138q-14 -16 -37 -16h-153zM1231 1434q41 0 20 -37l-417 -738v-628q0 -31 -31 -31h-258q-31 0 -31 31v635l-418 731 q-20 37 21 37h270q25 0 37 -21l250 -450l250 450q12 20 37 21h270z" glyph-name="Ycircumflex" horiz-adv-x="1347" unicode="Ŷ"/><glyph d="M696 1430q23 0 37 -17l203 -225q12 -14 6 -25.5t-27 -11.5h-153q-23 0 -37 16l-117 138l-116 -138q-14 -16 -37 -16h-154q-20 0 -25.5 11.5t7.5 25.5l200 225q14 16 37 17h176zM1122 1004q37 0 25 -35l-531 -1334q-10 -25 -36 -24h-240q-43 0 -25 35l146 352l-387 971 q-12 35 24 35h248q27 0 37 -25l225 -619l226 619q10 25 36 25h252z" glyph-name="ycircumflex" horiz-adv-x="1220" unicode="ŷ"/><glyph d="M440.5 1569q-61.5 0 -106.5 44t-45 109q0 63 45 107.5t106.5 44.5t106.5 -44t45 -108q0 -66 -45 -109.5t-106.5 -43.5zM905.5 1569q-61.5 0 -106.5 44t-45 109q0 63 45 107.5t106.5 44.5t106.5 -44t45 -108q0 -66 -45 -109.5t-106.5 -43.5zM1231 1434q41 0 20 -37 l-417 -738v-628q0 -31 -31 -31h-258q-31 0 -31 31v635l-418 731q-20 37 21 37h270q25 0 37 -21l250 -450l250 450q12 20 37 21h270z" glyph-name="Ydieresis" horiz-adv-x="1347" unicode="Ÿ"/><glyph d="M877 1860q41 0 24 -35l-123 -258q-10 -25 -35 -25h-221q-41 0 -24 35l123 258q10 25 34 25h222zM1106 281q31 0 31 -31v-219q0 -31 -31 -31h-965q-31 0 -30 31v229q0 18 12 37l649 856h-610q-31 0 -31 31v219q0 31 31 31h923q31 0 31 -31v-229q0 -18 -12 -37l-651 -856 h653z" glyph-name="Zacute" horiz-adv-x="1245" unicode="Ź"/><glyph d="M762 1430q41 0 24 -35l-122 -258q-10 -25 -35 -25h-221q-41 0 -25 35l123 258q10 25 35 25h221zM940 973v-195q0 -25 -14 -39l-477 -489h460q31 0 31 -31v-188q0 -31 -31 -31h-798q-31 0 -31 31v196q0 25 14 39l475 490h-458q-31 0 -31 30v187q0 31 31 31h798 q31 0 31 -31z" glyph-name="zacute" horiz-adv-x="1019" unicode="ź"/><glyph d="M624.5 1569q-61.5 0 -106.5 44t-45 109q0 63 45 107.5t106.5 44.5t106.5 -44t45 -108q0 -66 -45 -109.5t-106.5 -43.5zM1106 281q31 0 31 -31v-219q0 -31 -31 -31h-965q-31 0 -30 31v229q0 18 12 37l649 856h-610q-31 0 -31 31v219q0 31 31 31h923q31 0 31 -31v-229 q0 -18 -12 -37l-651 -856h653z" glyph-name="Zdotaccent" horiz-adv-x="1245" unicode="Ż"/><glyph d="M510 1139q-61 0 -106.5 44t-45.5 109q0 63 45.5 107.5t106.5 44.5t106.5 -44t45.5 -108q0 -66 -45.5 -109.5t-106.5 -43.5zM940 973v-195q0 -25 -14 -39l-477 -489h460q31 0 31 -31v-188q0 -31 -31 -31h-798q-31 0 -31 31v196q0 25 14 39l475 490h-458q-31 0 -31 30v187 q0 31 31 31h798q31 0 31 -31z" glyph-name="zdotaccent" horiz-adv-x="1019" unicode="ż"/><glyph d="M713 1581h-176q-23 0 -37 16l-201 226q-12 14 -7 25.5t25 11.5h154q23 0 37 -17l117 -137l116 137q14 16 37 17h154q20 0 26.5 -11.5t-6.5 -25.5l-202 -226q-14 -16 -37 -16zM1106 281q31 0 31 -31v-219q0 -31 -31 -31h-965q-31 0 -30 31v229q0 18 12 37l649 856h-610 q-31 0 -31 31v219q0 31 31 31h923q31 0 31 -31v-229q0 -18 -12 -37l-651 -856h653z" glyph-name="Zcaron" horiz-adv-x="1245" unicode="Ž"/><glyph d="M598 1151h-176q-23 0 -37 16l-201 226q-12 14 -7 25.5t26 11.5h153q23 0 37 -17l117 -137l117 137q14 16 37 17h153q20 0 26.5 -11.5t-5.5 -25.5l-203 -226q-14 -16 -37 -16zM940 973v-195q0 -25 -14 -39l-477 -489h460q31 0 31 -31v-188q0 -31 -31 -31h-798 q-31 0 -31 31v196q0 25 14 39l475 490h-458q-31 0 -31 30v187q0 31 31 31h798q31 0 31 -31z" glyph-name="zcaron" horiz-adv-x="1019" unicode="ž"/><glyph d="M791 1432q20 -12 20 -37v-217q0 -18 -11.5 -25.5t-25.5 2.5q-57 35 -121 35q-66 0 -85 -28.5t-19 -90.5v-67h213q31 0 31 -31v-187q0 -31 -31 -30h-213v-791q0 -176 -99.5 -265t-271.5 -89q-115 0 -178 35q-20 12 -20 37v217q0 18 10 24t26 -2q57 -35 121 -35 q66 0 85.5 29t19.5 90v750h-119q-31 0 -31 30v187q0 31 31 31h119v108q0 176 99 265t269 89q118 1 181 -34z" glyph-name="florin" horiz-adv-x="790" unicode="ƒ"/><glyph d="M608 1597l-200 226q-12 14 -7 25.5t25 11.5h154q23 0 36 -17l117 -137l117 137q14 16 37 17h153q20 0 26.5 -11.5t-5.5 -25.5l-203 -226q-14 -16 -37 -16h-176q-23 0 -37 16zM1372 35q14 -35 -24 -35h-267q-27 0 -34 25l-72 221h-506l-72 -221q-8 -25 -35 -25h-266 q-39 0 -24 35l495 1374q10 25 35 25h236q31 0 39 -25zM555 502h336l-168 514z" glyph-name="uni01CD" horiz-adv-x="1443" unicode="Ǎ"/><glyph d="M487 1167l-200 226q-12 14 -7 25.5t25 11.5h154q23 0 37 -17l116 -137l117 137q14 16 37 17h154q20 0 26 -11.5t-6 -25.5l-203 -226q-14 -16 -37 -16h-176q-23 0 -37 16zM1114 1004q31 0 31 -31v-942q0 -31 -31 -31h-209q-27 0 -31 31l-12 86q-106 -131 -287 -131 q-209 0 -347 148.5t-138 365.5q0 221 138.5 372.5t346.5 151.5q176 0 289 -143l10 92q4 31 31 31h209zM612 266q100 0 163 65.5t63 170.5q0 102 -62.5 171.5t-163.5 69.5q-98 0 -162.5 -67.5t-64.5 -173.5q0 -104 64.5 -170t162.5 -66z" glyph-name="uni01CE" unicode="ǎ"/><glyph d="M389 1581h-176q-23 0 -37 16l-201 226q-12 14 -7 25.5t26 11.5h153q23 0 37 -17l117 -137l117 137q14 16 37 17h153q20 0 26.5 -11.5t-5.5 -25.5l-203 -226q-14 -16 -37 -16zM141 1403q0 31 31 31h256q31 0 31 -31v-1372q0 -31 -31 -31h-256q-31 0 -31 31v1372z" glyph-name="uni01CF" horiz-adv-x="600" unicode="Ǐ"/><glyph d="M352 1151h-176q-23 0 -37 16l-200 226q-12 14 -7 25.5t25 11.5h154q23 0 36 -17l117 -137l117 137q14 16 37 17h153q20 0 26.5 -11.5t-5.5 -25.5l-203 -226q-14 -16 -37 -16zM111 973q0 31 30 31h246q31 0 31 -31v-942q0 -31 -31 -31h-246q-31 0 -30 31v942z" glyph-name="uni01D0" horiz-adv-x="528" unicode="ǐ"/><glyph d="M926 1581h-176q-23 0 -37 16l-201 226q-12 14 -7 25.5t25 11.5h154q23 0 37 -17l117 -137l116 137q14 16 37 17h154q20 0 26.5 -11.5t-6.5 -25.5l-202 -226q-14 -16 -37 -16zM838 -27q-305 0 -521.5 215t-216.5 522.5t216 523.5t522 216q307 0 523 -216t216 -523.5 t-216 -522.5t-523 -215zM838 285q176 0 295.5 122.5t119.5 303.5q0 182 -119.5 305t-295.5 123t-295 -123t-119 -305q0 -180 120 -303t294 -123z" glyph-name="uni01D1" horiz-adv-x="1677" unicode="Ǒ"/><glyph d="M700 1151h-176q-23 0 -37 16l-200 226q-12 14 -7 25.5t25 11.5h154q23 0 37 -17l116 -137l117 137q14 16 37 17h154q20 0 26 -11.5t-6 -25.5l-203 -226q-14 -16 -37 -16zM612 -20q-217 0 -369.5 152.5t-152.5 369.5q0 219 152.5 371.5t369.5 152.5q219 0 372 -152.5 t153 -371.5q0 -217 -153 -369.5t-372 -152.5zM612 264q96 0 162 67.5t66 170.5q0 104 -65.5 171.5t-162.5 67.5q-94 0 -160.5 -68.5t-66.5 -171t66.5 -170t160.5 -67.5z" glyph-name="uni01D2" horiz-adv-x="1226" unicode="ǒ"/><glyph d="M772 1581h-176q-23 0 -37 16l-201 226q-12 14 -7 25.5t26 11.5h153q23 0 37 -17l117 -137l117 137q14 16 37 17h153q20 0 26.5 -11.5t-5.5 -25.5l-203 -226q-14 -16 -37 -16zM1204 1434q31 0 31 -31v-846q0 -276 -152.5 -430t-398.5 -154q-248 0 -400.5 154t-152.5 430 v846q0 31 31 31h256q31 0 31 -31v-846q0 -270 235 -270q115 0 174.5 69.5t59.5 200.5v846q0 31 30 31h256z" glyph-name="uni01D3" horiz-adv-x="1366" unicode="Ǔ"/><glyph d="M475 1167l-201 226q-12 14 -7 25.5t26 11.5h153q23 0 37 -17l117 -137l117 137q14 16 37 17h153q20 0 26.5 -11.5t-5.5 -25.5l-203 -226q-14 -16 -37 -16h-176q-23 0 -37 16zM1061 1004q31 0 31 -31v-942q0 -31 -31 -31h-238q-27 0 -30 31l-9 108q-117 -166 -290 -166 q-170 0 -276.5 117t-106.5 316v567q0 31 30 31h246q31 0 31 -31v-506q0 -111 52 -159t124 -48q90 0 140 56.5t50 121.5v535q0 31 31 31h246z" glyph-name="uni01D4" horiz-adv-x="1212" unicode="ǔ"/><glyph d="M788 -25q-74 -47 -73 -122q0 -37 29.5 -60.5t95.5 -11.5v-187q-47 -20 -109.5 -21t-122 17.5t-100.5 70.5t-41 130q0 131 129 223q-219 76 -357.5 266.5t-138.5 430.5q0 307 216 523t522 216q307 0 523 -216t216 -523.5t-216 -522.5t-523 -215q-34 0 -50 2zM424 711 q0 -180 120 -303t294 -123q176 0 295.5 122.5t119.5 303.5q0 182 -119.5 305t-295.5 123t-295 -123t-119 -305z" glyph-name="uni01EA" horiz-adv-x="1656" unicode="Ǫ"/><glyph d="M696 -14q-115 -47 -114 -133q0 -37 30.5 -60.5t94.5 -11.5v-187q-47 -20 -109.5 -21t-122 17.5t-100.5 70.5t-41 130q0 125 121 213q-160 49 -262.5 186.5t-102.5 311.5q0 219 152.5 371.5t369.5 152.5q219 0 372 -152.5t153 -371.5q0 -195 -126.5 -341t-314.5 -175z M385 501.5q0 -102.5 66.5 -170t160.5 -67.5q96 0 162 67.5t66 170.5q0 104 -65.5 171.5t-162.5 67.5q-94 0 -160.5 -68.5t-66.5 -171z" glyph-name="uni01EB" horiz-adv-x="1206" unicode="ǫ"/><glyph d="M449 1030q0 -51 48 -89t119.5 -60.5t156.5 -58.5t156.5 -80t120 -130t48.5 -202q0 -203 -151.5 -319t-352.5 -116q-154 0 -290 65.5t-206 160.5q-16 23 2 43l142 157q18 27 45 5q160 -131 315 -132q78 0 131 38t53 104q0 45 -35.5 79.5t-93 59.5t-126 50.5t-138 60 t-127 81t-93.5 120t-36 169.5q0 188 135.5 301t321.5 113q252 0 446 -190q23 -18 4 -43l-133 -162q-18 -27 -43 -8q-150 104 -264 104q-74 0 -114.5 -35t-40.5 -86zM588 -78q74 0 121 -53t47 -145q0 -213 -211 -435l-76 45q74 113 90 256q-61 10 -102 57.5t-41 108.5 q0 70 50 118t122 48z" glyph-name="Scommaaccent" horiz-adv-x="1187" unicode="Ș"/><glyph d="M401 713q0 -37 48.5 -60.5t117 -42t137 -47t116.5 -96.5t48 -170q0 -145 -121.5 -231t-273.5 -86q-121 0 -223.5 49t-161.5 118q-14 18 0 41l90 131q14 18 47 0q135 -84 238 -83q106 0 106 65q0 37 -48 61.5t-115.5 45t-135 50t-116 94t-48.5 159.5q0 145 105.5 230 t249.5 85q223 0 352 -152q16 -20 -2 -43l-92 -120q-14 -18 -45 2q-121 70 -182 69q-43 0 -67 -20t-24 -49zM481 -78q74 0 121 -53t47 -145q0 -213 -211 -435l-76 45q74 113 91 256q-61 10 -102.5 57.5t-41.5 108.5q0 70 50 118t122 48z" glyph-name="scommaaccent" horiz-adv-x="946" unicode="ș"/><glyph d="M1059 1434q31 0 31 -31v-219q0 -31 -31 -31h-305v-1122q0 -31 -31 -31h-256q-31 0 -31 31v1122h-305q-31 0 -31 31v219q0 31 31 31h928zM602 -78q74 0 121 -53t47 -145q0 -213 -211 -435l-76 45q74 113 90 256q-61 10 -102 57.5t-41 108.5q0 70 50 118t122 48z" glyph-name="uni021A" horiz-adv-x="1189" unicode="Ț"/><glyph d="M735 1004q31 0 31 -31v-187q0 -31 -31 -30h-164v-725q0 -31 -30 -31h-246q-31 0 -31 31v725h-164q-31 0 -30 30v187q0 31 30 31h164v276q0 31 31 31h246q31 0 30 -31v-276h164zM428 -72q74 0 121 -53t47 -145q0 -213 -211 -435l-76 46q74 113 90 256q-61 10 -102 57 t-41 108q0 70 50 118t122 48z" glyph-name="uni021B" horiz-adv-x="835" unicode="ț"/><glyph d="M291 1004h246q31 0 30 -31v-950q0 -205 -116.5 -313.5t-315.5 -115.5q-20 0 -24 17l-78 250q-8 23 14 22q86 6 149.5 54.5t63.5 146.5v889q0 31 31 31z" glyph-name="uni0237" horiz-adv-x="669" unicode="ȷ"/><glyph d="M455 1434q23 0 37 -17l202 -225q12 -14 6 -25.5t-26 -11.5h-154q-23 0 -37 16l-116 138l-117 -138q-14 -16 -37 -16h-154q-20 0 -25 11.5t7 25.5l201 225q14 16 37 17h176z" glyph-name="circumflex" horiz-adv-x="735" unicode="ˆ"/><glyph d="M455 1155h-176q-23 0 -37 16l-201 226q-12 14 -7 25.5t25 11.5h154q23 0 37 -17l117 -137l116 137q14 16 37 17h154q20 0 26.5 -11.5t-6.5 -25.5l-202 -226q-14 -16 -37 -16z" glyph-name="caron" horiz-adv-x="735" unicode="ˇ"/><glyph d="M508 1405q6 29 33 29h123q33 0 28 -31q-10 -115 -99 -190.5t-231 -75.5q-143 0 -230 75.5t-99 190.5q-4 31 28 31h123q27 0 33 -29q10 -39 48 -68.5t97 -29.5q115 0 146 98z" glyph-name="breve" horiz-adv-x="724" unicode="˘"/><glyph d="M182.5 1139q-61.5 0 -106.5 44t-45 109q0 63 45 107.5t106.5 44.5t106.5 -44t45 -108q0 -66 -45 -109.5t-106.5 -43.5z" glyph-name="dotaccent" horiz-adv-x="364" unicode="˙"/><glyph d="M254 1526q86 0 150.5 -64.5t64.5 -152.5t-64.5 -151.5t-150.5 -63.5q-92 0 -157.5 63.5t-65.5 151.5q0 90 64.5 153.5t158.5 63.5zM250 1264q20 0 34.5 14t14.5 33q0 20 -14.5 33.5t-34.5 13.5q-18 0 -32.5 -13.5t-14.5 -33.5q0 -18 14.5 -32.5t32.5 -14.5z" glyph-name="ring" horiz-adv-x="499" unicode="˚"/><glyph d="M453 0q-82 0 -128 -46t-46 -101q0 -37 29.5 -60.5t94.5 -11.5v-187q-47 -20 -109.5 -21t-121.5 17.5t-100 70.5t-41 130q0 100 79.5 179t173 113t169.5 34v-117z" glyph-name="ogonek" horiz-adv-x="483" unicode="˛"/><glyph d="M258 1481q57 0 109.5 -22.5t85 -50.5t73.5 -50.5t78 -22.5q72 0 96 56q6 16 23 16h70q20 0 20 -21q-6 -111 -68.5 -168t-162.5 -57q-55 0 -106.5 22.5t-84.5 50.5t-75 50.5t-78 22.5q-70 0 -95 -56q-6 -16 -22 -16h-70q-20 0 -20 29q8 106 69.5 161.5t157.5 55.5z" glyph-name="tilde" horiz-adv-x="843" unicode="˜"/><glyph d="M414 1491q41 0 24 -35l-123 -258q-10 -25 -34 -24h-222q-41 0 -24 34l123 258q10 25 35 25h221zM813 1491q41 0 25 -35l-123 -258q-10 -25 -35 -24h-221q-41 0 -25 34l123 258q10 25 35 25h221z" glyph-name="hungarumlaut" horiz-adv-x="919" unicode="˝"/><glyph d="M-190 -78q74 0 120.5 -53t46.5 -145q0 -213 -210 -435l-76 45q74 113 90 256q-61 10 -102 57.5t-41 108.5q0 70 50 118t122 48z" glyph-name="uni0326" horiz-adv-x="0" unicode="̦"/><glyph d="M1374 35q14 -35 -24 -35h-1252q-39 0 -24 35l495 1374q8 25 35 25h236q29 0 39 -25zM725 1016l-252 -766h502z" glyph-name="Delta" horiz-adv-x="1427" unicode="Δ"/><glyph d="M1567 739q0 -133 -54.5 -266t-171.5 -223h226v-250h-561v342q111 53 176 156.5t65 240.5q0 176 -120.5 290t-299 114t-298 -114t-119.5 -290q0 -137 64.5 -240.5t174.5 -156.5v-342h-559v250h225q-117 90 -171 223t-54 266q0 301 215 506t522.5 205t523.5 -205t216 -506z " glyph-name="Omega" horiz-adv-x="1656" unicode="Ω"/><glyph d="M1061 1004q31 0 31 -31v-942q0 -31 -31 -31h-238q-27 0 -30 31l-9 108q-117 -166 -290 -166q-51 0 -86 9v-340q0 -31 -31 -31h-246q-31 0 -31 31v1142h11v189q0 31 30 31h246q31 0 31 -31v-506q0 -111 52 -159t124 -48q90 0 140 56.5t50 121.5v535q0 31 31 31h246z" glyph-name="mu" horiz-adv-x="1191" unicode="μ"/><glyph d="M1391 268q37 6 36 -28v-193q0 -61 -188 -61q-131 0 -218 73.5t-87 233.5v463h-299v-725q0 -31 -31 -31h-246q-31 0 -30 31v725h-172q-31 0 -31 30v187q0 31 31 31h1192q31 0 30 -31v-187q0 -31 -30 -30h-107v-404q0 -88 80 -88q45 0 70 4z" glyph-name="pi" horiz-adv-x="1495" unicode="π"/><glyph d="M331.5 1569q-61.5 0 -106.5 44t-45 109q0 63 45 107.5t106.5 44.5t106.5 -44t45 -108q0 -66 -45 -109.5t-106.5 -43.5zM796.5 1569q-61.5 0 -106.5 44t-45 109q0 63 45 107.5t106.5 44.5t106.5 -44t45 -108q0 -66 -45 -109.5t-106.5 -43.5zM942 281q31 0 31 -31v-219 q0 -31 -31 -31h-770q-31 0 -31 31v1372q0 31 31 31h768q31 0 31 -31v-219q0 -31 -31 -31h-481v-281h452q31 0 31 -30v-219q0 -31 -31 -31h-452v-311h483z" glyph-name="afii10023" horiz-adv-x="1105" unicode="Ё"/><glyph d="M424 1542q-41 0 -25 35l123 258q10 25 35 25h221q41 0 25 -35l-123 -258q-10 -25 -35 -25h-221zM940 1434q31 0 31 -31v-219q0 -31 -31 -31h-481v-1122q0 -31 -31 -31h-256q-31 0 -31 31v1372q0 31 31 31h768z" glyph-name="afii10052" horiz-adv-x="1038" unicode="Ѓ"/><glyph d="M1190 397l158 -170q20 -23 0 -43q-201 -211 -506 -211q-309 0 -525.5 214t-216.5 523.5t216 524.5t526 215q303 0 506 -209q18 -20 0 -43l-158 -172q-18 -23 -43 -2q-135 115 -307 115q-135 0 -240.5 -78t-146.5 -203h430q31 0 30 -31v-219q0 -31 -30 -30h-437 q41 -131 147.5 -212t246.5 -81q172 0 307 114q25 21 43 -2z" glyph-name="afii10053" horiz-adv-x="1427" unicode="Є"/><glyph d="M141 1403q0 31 31 31h256q31 0 31 -31v-1372q0 -31 -31 -31h-256q-31 0 -31 31v1372z" glyph-name="afii10055" horiz-adv-x="600" unicode="І"/><glyph d="M67.5 1569q-61.5 0 -106.5 44t-45 109q0 63 45 107.5t106.5 44.5t106.5 -44t45 -108q0 -66 -45 -109.5t-106.5 -43.5zM532.5 1569q-61.5 0 -106.5 44t-45 109q0 63 45 107.5t106.5 44.5t106.5 -44t45 -108q0 -66 -45 -109.5t-106.5 -43.5zM141 1403q0 31 31 31h256 q31 0 31 -31v-1372q0 -31 -31 -31h-256q-31 0 -31 31v1372z" glyph-name="afii10056" horiz-adv-x="600" unicode="Ї"/><glyph d="M588 1542q-41 0 -25 35l123 258q10 25 35 25h221q41 0 25 -35l-123 -258q-10 -25 -35 -25h-221zM1323 37q10 -16 5 -26.5t-23 -10.5h-304q-25 0 -36 18l-398 555l-108 -124v-418q0 -31 -31 -31h-256q-31 0 -31 31v1372q0 31 31 31h256q31 0 31 -31v-533l448 547 q14 16 37 17h320q18 0 23 -11.5t-7 -25.5l-502 -580z" glyph-name="afii10061" horiz-adv-x="1400" unicode="Ќ"/><glyph d="M739 1565q-143 0 -230 75.5t-99 190.5q-4 31 28 31h123q27 0 33 -29q10 -39 48 -68.5t97 -29.5q115 0 146 98q6 29 33 29h122q33 0 29 -31q-10 -115 -99.5 -190.5t-230.5 -75.5zM1374 1434q18 0 24.5 -10.5t-3.5 -26.5l-832 -1377q-12 -20 -37 -20h-272q-41 0 -21 37 l336 557l-483 803q-10 16 -4 26.5t24 10.5h271q25 0 37 -21l325 -539l326 539q12 20 37 21h272z" glyph-name="afii10062" horiz-adv-x="1478" unicode="Ў"/><glyph d="M1372 35q14 -35 -24 -35h-267q-27 0 -34 25l-72 221h-506l-72 -221q-8 -25 -35 -25h-266q-39 0 -24 35l495 1374q10 25 35 25h236q31 0 39 -25zM555 502h336l-168 514z" glyph-name="afii10017" horiz-adv-x="1443" unicode="А"/><glyph d="M608 950q252 0 392.5 -130t140.5 -345t-140.5 -345t-392.5 -130h-436q-31 0 -31 31v1372q0 31 31 31h768q31 0 31 -31v-219q0 -31 -31 -31h-481v-203h149zM602 281q98 0 167 45t69 149.5t-69 149.5t-167 45h-143v-389h143z" glyph-name="afii10018" horiz-adv-x="1200" unicode="Б"/><glyph d="M930 766q115 -31 197.5 -125t82.5 -227q0 -414 -534 -414h-504q-31 0 -31 31v1372q0 31 31 31h502q203 0 316.5 -105.5t113.5 -265.5q0 -106 -50 -186t-124 -111zM807 1022q0 131 -162 131h-186v-274h186q162 0 162 143zM688 281q94 0 149.5 43t55.5 129q0 164 -205 163 h-229v-335h229z" glyph-name="afii10019" horiz-adv-x="1290" unicode="В"/><glyph d="M940 1434q31 0 31 -31v-219q0 -31 -31 -31h-481v-1122q0 -31 -31 -31h-256q-31 0 -31 31v1372q0 31 31 31h768z" glyph-name="afii10020" horiz-adv-x="1038" unicode="Г"/><glyph d="M1614 281q31 0 31 -31v-361q0 -31 -31 -30h-258q-31 0 -31 30v111h-924v-111q0 -31 -30 -30h-258q-31 0 -31 30v361q0 10 2 14q4 14 16 15q4 2 13 2h20q74 10 127 60t53 138v924q0 31 31 31h1083q31 0 31 -31v-1122h156zM633 418q0 -72 -17 -137h525v872h-508v-735z" glyph-name="afii10021" horiz-adv-x="1726" unicode="Д"/><glyph d="M942 281q31 0 31 -31v-219q0 -31 -31 -31h-770q-31 0 -31 31v1372q0 31 31 31h768q31 0 31 -31v-219q0 -31 -31 -31h-481v-281h452q31 0 31 -30v-219q0 -31 -31 -31h-452v-311h483z" glyph-name="afii10022" horiz-adv-x="1105" unicode="Е"/><glyph d="M2134 37q10 -16 5 -26.5t-23 -10.5h-304q-25 0 -36 18l-398 555l-108 -124v-418q0 -31 -31 -31h-276q-31 0 -31 31v418l-109 124l-397 -555q-12 -18 -37 -18h-303q-18 0 -23.5 10t5.5 27l544 780l-501 580q-12 14 -7 25.5t23 11.5h319q23 0 37 -17l449 -547v533 q0 31 31 31h276q31 0 31 -31v-533l448 547q14 16 37 17h320q18 0 23 -11.5t-7 -25.5l-502 -580z" glyph-name="afii10024" horiz-adv-x="2189" unicode="Ж"/><glyph d="M817 760q100 -43 170 -131t70 -205q0 -186 -145.5 -313t-374.5 -127q-135 0 -250 48t-187 130q-18 23 2 43l162 153q20 20 45 0q94 -74 213 -73q102 0 155.5 45t53.5 119q0 63 -61.5 113t-214.5 52q-31 0 -31 31v186q0 31 33 31q80 2 132 15.5t75.5 37t30.5 45t7 50.5 q0 66 -52 102.5t-109 36.5q-106 0 -189 -68q-25 -20 -45 0l-155 150q-20 20 -2 43q68 80 175 128t228 48q186 0 323.5 -109.5t137.5 -281.5q0 -100 -57.5 -181t-139.5 -118z" glyph-name="afii10025" horiz-adv-x="1148" unicode="З"/><glyph d="M1270 1434q31 0 30 -31v-1372q0 -31 -30 -31h-256q-31 0 -31 31v893l-504 -904q-12 -20 -37 -20h-290q-31 0 -31 31v1372q0 31 31 31h256q31 0 30 -31v-895l506 905q12 20 37 21h289z" glyph-name="afii10026" horiz-adv-x="1441" unicode="И"/><glyph d="M721 1565q-143 0 -230.5 75.5t-99.5 190.5q-2 31 29 31h123q27 0 32 -29q10 -39 48.5 -68.5t97.5 -29.5q115 0 145 98q6 29 33 29h123q31 0 29 -31q-10 -115 -99.5 -190.5t-230.5 -75.5zM1270 1434q31 0 30 -31v-1372q0 -31 -30 -31h-256q-31 0 -31 31v893l-504 -904 q-12 -20 -37 -20h-290q-31 0 -31 31v1372q0 31 31 31h256q31 0 30 -31v-895l506 905q12 20 37 21h289z" glyph-name="afii10027" horiz-adv-x="1441" unicode="Й"/><glyph d="M1323 37q10 -16 5 -26.5t-23 -10.5h-304q-25 0 -36 18l-398 555l-108 -124v-418q0 -31 -31 -31h-256q-31 0 -31 31v1372q0 31 31 31h256q31 0 31 -31v-533l448 547q14 16 37 17h320q18 0 23 -11.5t-7 -25.5l-502 -580z" glyph-name="afii10028" horiz-adv-x="1400" unicode="К"/><glyph d="M1384 1434q31 0 31 -31v-1372q0 -31 -31 -31h-256q-31 0 -30 31v1122h-508v-735q0 -205 -123 -316.5t-322 -111.5q-18 0 -24 16l-78 250q-8 23 14 23q84 0 148.5 51t64.5 149v924q0 31 31 31h1083z" glyph-name="afii10029" horiz-adv-x="1536" unicode="Л"/><glyph d="M1649 1434q31 0 30 -31v-1372q0 -31 -30 -31h-256q-31 0 -31 31v809l-27 -97l-274 -718q-8 -25 -37 -25h-225q-29 0 -39 25l-275 718l-26 99v-811q0 -31 -31 -31h-256q-31 0 -31 31v1372q0 31 31 31h281q29 0 36 -21l422 -1044l418 1044q8 20 37 21h283z" glyph-name="afii10030" horiz-adv-x="1820" unicode="М"/><glyph d="M1245 1434q31 0 31 -31v-1372q0 -31 -31 -31h-256q-31 0 -31 31v532h-499v-532q0 -31 -31 -31h-256q-31 0 -31 31v1372q0 31 31 31h256q31 0 31 -31v-559h499v559q0 31 31 31h256z" glyph-name="afii10031" horiz-adv-x="1417" unicode="Н"/><glyph d="M838 -27q-305 0 -521.5 215t-216.5 522.5t216 523.5t522 216q307 0 523 -216t216 -523.5t-216 -522.5t-523 -215zM838 285q176 0 295.5 122.5t119.5 303.5q0 182 -119.5 305t-295.5 123t-295 -123t-119 -305q0 -180 120 -303t294 -123z" glyph-name="afii10032" horiz-adv-x="1677" unicode="О"/><glyph d="M1245 1434q31 0 31 -31v-1372q0 -31 -31 -31h-256q-31 0 -31 31v1122h-499v-1122q0 -31 -31 -31h-256q-31 0 -31 31v1372q0 31 31 31h1073z" glyph-name="afii10033" horiz-adv-x="1396" unicode="П"/><glyph d="M608 1434q252 0 392.5 -130t140.5 -345.5t-140.5 -345.5t-392.5 -130h-149v-452q0 -31 -31 -31h-256q-31 0 -31 31v1372q0 31 31 31h436zM602 764q98 0 167 45t69 149.5t-69 149.5t-167 45h-143v-389h143z" glyph-name="afii10034" horiz-adv-x="1220" unicode="Р"/><glyph d="M1190 397l158 -170q20 -23 0 -43q-201 -211 -506 -211q-309 0 -525.5 214t-216.5 523.5t216 524.5t526 215q303 0 506 -209q18 -20 0 -43l-158 -172q-18 -23 -43 -2q-135 115 -307 115q-174 0 -293 -123t-119 -305q0 -180 119 -303t293 -123q172 0 307 114q25 21 43 -2z " glyph-name="afii10035" horiz-adv-x="1447" unicode="С"/><glyph d="M1059 1434q31 0 31 -31v-219q0 -31 -31 -31h-305v-1122q0 -31 -31 -31h-256q-31 0 -31 31v1122h-305q-31 0 -31 31v219q0 31 31 31h928z" glyph-name="afii10036" horiz-adv-x="1189" unicode="Т"/><glyph d="M1374 1434q18 0 24.5 -10.5t-3.5 -26.5l-832 -1377q-12 -20 -37 -20h-272q-41 0 -21 37l336 557l-483 803q-10 16 -4 26.5t24 10.5h271q25 0 37 -21l325 -539l326 539q12 20 37 21h272z" glyph-name="afii10037" horiz-adv-x="1478" unicode="У"/><glyph d="M1167 1311q303 0 484.5 -179.5t181.5 -415t-181.5 -414.5t-484.5 -179h-43v-92q0 -31 -30 -31h-256q-31 0 -31 31v92h-62q-303 0 -484 179t-181 414.5t181 415t484 179.5h62v92q0 31 31 31h256q31 0 30 -31v-92h43zM745 403h62v627h-62q-160 0 -251 -88t-91 -225 t91 -225.5t251 -88.5zM1167 403q160 0 251 88.5t91 225.5t-91 225t-251 88h-43v-627h43z" glyph-name="afii10038" horiz-adv-x="1912" unicode="Ф"/><glyph d="M1268 37q20 -37 -21 -37h-270q-25 0 -37 20l-258 433l-258 -433q-12 -20 -37 -20h-270q-41 0 -21 37l418 696l-397 664q-20 37 20 37h271q25 0 36 -21l238 -397l238 397q12 20 36 21h271q41 0 20 -37l-397 -664z" glyph-name="afii10039" horiz-adv-x="1363" unicode="Х"/><glyph d="M1436 281q31 0 30 -31v-361q0 -31 -30 -30h-256q-31 0 -31 30v111h-977q-31 0 -31 31v1372q0 31 31 31h256q31 0 31 -31v-1122h499v1122q0 31 31 31h256q31 0 31 -31v-1122h160z" glyph-name="afii10040" horiz-adv-x="1548" unicode="Ц"/><glyph d="M1190 1434q31 0 31 -31v-1372q0 -31 -31 -31h-256q-31 0 -31 31v573q-145 -190 -403 -190q-170 0 -294 130t-124 326v533q0 31 31 31h258q31 0 30 -31v-471q0 -111 63.5 -158t141.5 -47q119 0 208 60.5t89 105.5v510q0 31 31 31h256z" glyph-name="afii10041" horiz-adv-x="1351" unicode="Ч"/><glyph d="M2062 1434q31 0 31 -31v-1372q0 -31 -31 -31h-1890q-31 0 -31 31v1372q0 31 31 31h256q31 0 31 -31v-1122h499v1122q0 31 31 31h256q31 0 31 -31v-1122h500v1122q0 31 30 31h256z" glyph-name="afii10042" horiz-adv-x="2213" unicode="Ш"/><glyph d="M2253 281q31 0 31 -31v-361q0 -31 -31 -30h-258q-31 0 -31 30v111h-1792q-31 0 -31 31v1372q0 31 31 31h256q31 0 31 -31v-1122h499v1122q0 31 31 31h256q31 0 31 -31v-1122h500v1122q0 31 30 31h256q31 0 31 -31v-1122h160z" glyph-name="afii10043" horiz-adv-x="2365" unicode="Щ"/><glyph d="M776 950q252 0 392.5 -130t140.5 -345t-140.5 -345t-392.5 -130h-436q-31 0 -31 31v1122h-227q-31 0 -31 31v219q0 31 31 31h514q31 0 31 -31v-453h149zM770 281q98 0 167 45t69 149.5t-69 149.5t-167 45h-143v-389h143z" glyph-name="afii10044" horiz-adv-x="1368" unicode="Ъ"/><glyph d="M608 0h-436q-31 0 -31 31v1372q0 31 31 31h256q31 0 31 -31v-453h149q252 0 392.5 -130t140.5 -345t-140.5 -345t-392.5 -130zM1386 1403q0 31 31 31h256q31 0 31 -31v-1372q0 -31 -31 -31h-256q-31 0 -31 31v1372zM602 670h-143v-389h143q98 0 167 45t69 149.5 t-69 149.5t-167 45z" glyph-name="afii10045" horiz-adv-x="1824" unicode="Ы"/><glyph d="M608 0h-436q-31 0 -31 31v1372q0 31 31 31h256q31 0 31 -31v-453h149q252 0 392.5 -130t140.5 -345t-140.5 -345t-392.5 -130zM602 670h-143v-389h143q98 0 167 45t69 149.5t-69 149.5t-167 45z" glyph-name="afii10046" horiz-adv-x="1200" unicode="Ь"/><glyph d="M596 1450q309 0 525 -215t216 -524.5t-216 -523.5t-525 -214q-305 0 -506 211q-20 20 0 43l158 170q18 23 43 2q135 -115 307 -114q139 0 245.5 80.5t147.5 212.5h-436q-31 0 -31 30v219q0 31 31 31h430q-41 125 -146.5 203t-240.5 78q-172 0 -307 -115q-25 -20 -43 2 l-158 172q-18 23 0 43q203 209 506 209z" glyph-name="afii10047" horiz-adv-x="1427" unicode="Э"/><glyph d="M1296 1450q307 0 523.5 -216t216.5 -523.5t-216 -522.5t-524 -215q-268 0 -473 172t-252 433h-112v-547q0 -31 -31 -31h-256q-31 0 -31 31v1372q0 31 31 31h256q31 0 31 -31v-545h114q51 256 254 424t469 168zM1296 285q176 0 296 122.5t120 303.5q0 182 -119.5 305 t-296 123t-295 -123t-118.5 -305q0 -180 119.5 -303t293.5 -123z" glyph-name="afii10048" horiz-adv-x="2113" unicode="Ю"/><glyph d="M1104 1434q31 0 31 -31v-1372q0 -31 -31 -31h-256q-31 0 -31 31v452h-84l-297 -463q-12 -20 -37 -20h-272q-43 0 -21 37l320 487q-141 51 -216 165t-75 269q0 215 140.5 345.5t392.5 130.5h436zM674 1153q-98 0 -167 -45t-69 -149.5t68.5 -149.5t167.5 -45h143v389h-143z " glyph-name="afii10049" horiz-adv-x="1275" unicode="Я"/><glyph d="M1114 1004q31 0 31 -31v-942q0 -31 -31 -31h-209q-27 0 -31 31l-12 86q-106 -131 -287 -131q-209 0 -347 148.5t-138 365.5q0 221 138.5 372.5t346.5 151.5q176 0 289 -143l10 92q4 31 31 31h209zM612 266q100 0 163 65.5t63 170.5q0 102 -62.5 171.5t-163.5 69.5 q-98 0 -162.5 -67.5t-64.5 -173.5q0 -104 64.5 -170t162.5 -66z" glyph-name="afii10065" unicode="а"/><glyph d="M688 1026q207 0 345 -152.5t138 -373.5t-138 -374t-345 -153q-168 0 -289 131l-6 -73q-4 -31 -31 -31h-221q-31 0 -30 31v1026q0 377 333 377h242q109 0 154 41h233q-2 -311 -387 -312h-162q-66 0 -89 -30.5t-23 -94.5l2 -135q116 123 274 123zM649 254q98 0 161.5 70.5 t63.5 177.5q0 104 -63 175t-162 71q-96 0 -160.5 -72t-64.5 -174.5t64.5 -175t160.5 -72.5z" glyph-name="afii10066" horiz-adv-x="1251" unicode="б"/><glyph d="M932 524q96 -23 153.5 -87t57.5 -148q0 -150 -126 -219.5t-341 -69.5h-535q-31 0 -30 31v942q0 31 30 31h535q172 0 281.5 -75t109.5 -212.5t-135 -192.5zM791 686q0 70 -127 70h-246v-144h250q55 0 84.5 14.5t34 27t4.5 32.5zM664 250q113 0 148.5 19.5t35.5 60.5 q0 37 -35 55t-145 18h-250v-153h246z" glyph-name="afii10067" horiz-adv-x="1210" unicode="в"/><glyph d="M811 1004q31 0 31 -31v-187q0 -31 -31 -30h-393v-725q0 -31 -31 -31h-246q-31 0 -30 31v942q0 31 30 31h670z" glyph-name="afii10068" horiz-adv-x="911" unicode="г"/><glyph d="M1458 250q31 0 31 -31v-305q0 -31 -31 -31h-246q-31 0 -30 31v86h-793v-86q0 -31 -31 -31h-245q-31 0 -31 31v346q0 8 2 12q6 6 14 7q84 0 148.5 51t64.5 149v494q0 31 31 31h899q31 0 31 -31v-723h186zM618 756v-338q0 -94 -24 -168h371v506h-347z" glyph-name="afii10069" horiz-adv-x="1570" unicode="д"/><glyph d="M1077 524q0 -68 -14 -97.5t-59 -29.5h-609q47 -166 258 -166q100 0 195 60q25 16 45 -4l106 -103q18 -23 -4 -45q-154 -154 -372 -153q-233 0 -383 150.5t-150 369.5t145.5 368.5t364.5 149.5q213 0 345 -145.5t132 -354.5zM602 764q-80 0 -137 -44t-74 -128h414 q-14 84 -69.5 128t-133.5 44z" glyph-name="afii10070" horiz-adv-x="1167" unicode="е"/><glyph d="M1915 37q12 -16 7 -26.5t-26 -10.5h-294q-23 0 -37 16l-310 353l-108 -113v-225q0 -31 -31 -31h-248q-31 0 -30 31v225l-109 113l-309 -353q-14 -16 -37 -16h-295q-20 0 -25.5 10t7.5 27l467 530l-390 400q-14 16 -9 26.5t26 10.5h293q25 0 39 -17l342 -354v340 q0 31 30 31h248q31 0 31 -31v-340l342 354q14 16 39 17h293q20 0 25 -10.5t-9 -26.5l-389 -400z" glyph-name="afii10072" horiz-adv-x="1982" unicode="ж"/><glyph d="M676 537q154 -80 153 -244q0 -143 -110.5 -226t-257.5 -83q-252 0 -357 129q-27 33 5 63l110 113q20 20 55 -2q61 -49 152 -49q49 0 91 21.5t42 72.5q0 39 -42 66.5t-138 27.5q-23 0 -36 12.5t-13 32.5v104q0 47 49 48q143 0 143 75q0 68 -106 68q-43 0 -117 -31 q-47 -31 -76 0l-88 96q-29 29 -2 60q111 125 328 125q133 0 236.5 -73t103.5 -195q0 -125 -125 -211z" glyph-name="afii10073" horiz-adv-x="921" unicode="з"/><glyph d="M1092 1004q31 0 30 -31v-942q0 -31 -30 -31h-246q-31 0 -31 31v561l-385 -572q-14 -20 -39 -20h-252q-29 0 -28 31v942q0 31 30 31h246q31 0 31 -31v-559l383 569q14 20 39 21h252z" glyph-name="afii10074" horiz-adv-x="1230" unicode="и"/><glyph d="M647 1135q-143 0 -230 75.5t-100 190.5q-2 31 29 31h123q27 0 33 -29q10 -39 48 -68.5t97 -29.5q115 0 146 98q6 29 32 29h123q31 0 29 -31q-10 -115 -99.5 -190.5t-230.5 -75.5zM1092 1004q31 0 30 -31v-942q0 -31 -30 -31h-246q-31 0 -31 31v561l-385 -572 q-14 -20 -39 -20h-252q-29 0 -28 31v942q0 31 30 31h246q31 0 31 -31v-559l383 569q14 20 39 21h252z" glyph-name="afii10075" horiz-adv-x="1230" unicode="й"/><glyph d="M1186 37q12 -16 7 -26.5t-26 -10.5h-295q-23 0 -36 16l-310 353l-108 -113v-225q0 -31 -31 -31h-246q-31 0 -30 31v942q0 31 30 31h246q31 0 31 -31v-340l342 354q14 16 39 17h293q20 0 25 -10.5t-9 -26.5l-389 -400z" glyph-name="afii10076" horiz-adv-x="1255" unicode="к"/><glyph d="M1190 1004q31 0 31 -31v-942q0 -31 -31 -31h-246q-31 0 -31 31v725h-346v-338q0 -207 -117.5 -317.5t-314.5 -110.5q-18 0 -24 16l-78 250q-8 23 14 23q84 0 148.5 51t64.5 149v494q0 31 31 31h899z" glyph-name="afii10077" horiz-adv-x="1331" unicode="л"/><glyph d="M1440 1004q31 0 30 -31v-942q0 -31 -30 -31h-246q-31 0 -31 31v436l-207 -444q-10 -23 -34 -23h-263q-25 0 -34 23l-207 442v-434q0 -31 -31 -31h-246q-31 0 -30 31v942q0 31 30 31h293q23 0 35 -23l324 -662l319 662q12 23 35 23h293z" glyph-name="afii10078" horiz-adv-x="1581" unicode="м"/><glyph d="M1106 1004q31 0 31 -31v-942q0 -31 -31 -31h-246q-31 0 -31 31v346h-411v-346q0 -31 -31 -31h-246q-31 0 -30 31v942q0 31 30 31h246q31 0 31 -31v-346h411v346q0 31 31 31h246z" glyph-name="afii10079" horiz-adv-x="1247" unicode="н"/><glyph d="M612 -20q-217 0 -369.5 152.5t-152.5 369.5q0 219 152.5 371.5t369.5 152.5q219 0 372 -152.5t153 -371.5q0 -217 -153 -369.5t-372 -152.5zM612 264q96 0 162 67.5t66 170.5q0 104 -65.5 171.5t-162.5 67.5q-94 0 -160.5 -68.5t-66.5 -171t66.5 -170t160.5 -67.5z" glyph-name="afii10080" horiz-adv-x="1226" unicode="о"/><glyph d="M1106 1004q31 0 31 -31v-942q0 -31 -31 -31h-246q-31 0 -31 31v725h-411v-725q0 -31 -31 -31h-246q-31 0 -30 31v942q0 31 30 31h965z" glyph-name="afii10081" horiz-adv-x="1247" unicode="п"/><glyph d="M690 1024q209 0 347.5 -151.5t138.5 -372.5q0 -217 -138.5 -365.5t-347.5 -148.5q-162 0 -262 104v-448q0 -31 -31 -31h-245q-31 0 -31 31v1331q0 31 31 31h208q27 0 31 -31l10 -92q113 143 289 143zM653 266q98 0 163 65.5t65 170.5q0 106 -64.5 173.5t-163.5 67.5 q-100 0 -162.5 -69.5t-62.5 -171.5q0 -104 62.5 -170t162.5 -66z" glyph-name="afii10082" unicode="р"/><glyph d="M612 270q100 0 191 78q25 20 45 0l147 -141q20 -20 2 -43q-156 -178 -393 -178q-217 0 -365.5 151.5t-148.5 370.5q0 215 149.5 365.5t364.5 150.5q231 0 387 -178q18 -23 -2 -43l-147 -144q-20 -20 -45 3q-88 78 -185 77q-98 0 -162.5 -66.5t-64.5 -164.5 q0 -100 64.5 -169t162.5 -69z" glyph-name="afii10083" horiz-adv-x="1085" unicode="с"/><glyph d="M864 1004q31 0 31 -31v-187q0 -31 -31 -30h-223v-725q0 -31 -31 -31h-245q-31 0 -31 31v725h-223q-31 0 -31 30v187q0 31 31 31h753z" glyph-name="afii10084" horiz-adv-x="974" unicode="т"/><glyph d="M1122 1004q37 0 25 -35l-531 -1334q-10 -25 -36 -24h-240q-43 0 -25 35l146 352l-387 971q-12 35 24 35h248q27 0 37 -25l225 -619l226 619q10 25 36 25h252z" glyph-name="afii10085" horiz-adv-x="1200" unicode="у"/><glyph d="M1399 1026q207 0 345 -152.5t138 -373.5t-138 -374t-345 -153q-152 0 -264 109v-440q0 -31 -31 -31h-246q-31 0 -31 31v448q-117 -113 -264 -113q-207 0 -345 154t-138 375t138 373.5t345 152.5q152 0 264 -106v438q0 31 31 31h246q31 0 31 -31v-451q117 113 264 113z M602 258q96 0 160.5 72.5t64.5 173.5q0 102 -64.5 175t-160.5 73q-98 0 -162.5 -71t-64.5 -177.5t64.5 -176t162.5 -69.5zM1362 254q96 0 160.5 70.5t64.5 177.5q0 104 -64.5 175t-160.5 71t-161.5 -73t-65.5 -173q0 -102 65.5 -175t161.5 -73z" glyph-name="afii10086" horiz-adv-x="1961" unicode="ф"/><glyph d="M1114 37q10 -16 4 -26.5t-24 -10.5h-279q-23 0 -37 20l-170 265l-172 -265q-14 -20 -37 -20h-278q-18 0 -24.5 10t3.5 27l330 477l-313 453q-10 16 -4 26.5t24 10.5h279q23 0 37 -21l155 -238l154 238q14 20 37 21h278q18 0 24.5 -10.5t-3.5 -26.5l-314 -453z" glyph-name="afii10087" horiz-adv-x="1214" unicode="х"/><glyph d="M1257 250q31 0 31 -31v-305q0 -31 -31 -31h-245q-31 0 -31 31v86h-840q-31 0 -30 31v942q0 31 30 31h246q31 0 31 -31v-725h389v2h22v723q0 31 31 31h246q31 0 31 -31v-723h120z" glyph-name="afii10088" horiz-adv-x="1370" unicode="ц"/><glyph d="M1102 1004q31 0 31 -31v-942q0 -31 -31 -31h-246q-31 0 -31 31v340q-119 -133 -309 -133q-195 0 -315.5 111.5t-120.5 332.5v291q0 31 31 31h245q31 0 31 -31v-295q0 -96 46 -161.5t147 -65.5q137 0 245 153v369q0 31 31 31h246z" glyph-name="afii10089" horiz-adv-x="1241" unicode="ч"/><glyph d="M1493 1004q31 0 31 -31v-942q0 -31 -31 -31h-1352q-31 0 -30 31v942q0 31 30 31h246q31 0 31 -31v-723h246v723q0 31 30 31h246q31 0 31 -31v-723h246v723q0 31 30 31h246z" glyph-name="afii10090" horiz-adv-x="1634" unicode="ш"/><glyph d="M1667 250q31 0 31 -31v-305q0 -31 -31 -31h-246q-31 0 -30 31v86h-1250q-31 0 -30 31v942q0 31 30 31h246q31 0 31 -31v-723h246v723q0 31 30 31h246q31 0 31 -31v-723h246v723q0 31 30 31h246q31 0 31 -31v-723h143z" glyph-name="afii10091" horiz-adv-x="1779" unicode="щ"/><glyph d="M723 668q442 0 442 -334t-442 -334h-502q-31 0 -31 31v725h-98q-31 0 -31 30v187q0 31 31 31h375q31 0 31 -31v-305h225zM727 223q74 0 108.5 24.5t34.5 86t-34.5 86t-108.5 24.5h-229v-221h229z" glyph-name="afii10092" horiz-adv-x="1234" unicode="ъ"/><glyph d="M643 668q442 0 442 -334t-442 -334h-502q-31 0 -30 31v942q0 31 30 31h246q31 0 31 -31v-305h225zM1522 1004q31 0 30 -31v-942q0 -31 -30 -31h-246q-31 0 -31 31v942q0 31 31 31h246zM647 223q74 0 109 24.5t35 86t-35 86t-109 24.5h-229v-221h229z" glyph-name="afii10093" horiz-adv-x="1660" unicode="ы"/><glyph d="M643 668q442 0 442 -334t-442 -334h-502q-31 0 -30 31v942q0 31 30 31h246q31 0 31 -31v-305h225zM647 223q74 0 109 24.5t35 86t-35 86t-109 24.5h-229v-221h229z" glyph-name="afii10094" horiz-adv-x="1155" unicode="ь"/><glyph d="M471 1024q215 0 364.5 -150.5t149.5 -365.5q0 -219 -148.5 -370.5t-365.5 -151.5q-238 0 -393 178q-18 23 2 43l147 141q20 20 45 0q90 -78 191 -78q137 0 199 119h-248q-31 0 -31 31v160q0 31 31 30h254q-27 59 -81.5 94t-123.5 35q-96 0 -184 -77q-25 -23 -46 -3 l-147 144q-20 20 -2 43q156 178 387 178z" glyph-name="afii10095" horiz-adv-x="1064" unicode="э"/><glyph d="M1083 1026q219 0 372 -152.5t153 -371.5q0 -217 -152.5 -369.5t-372.5 -152.5q-182 0 -323.5 110.5t-184.5 284.5h-157v-346q0 -31 -31 -31h-246q-31 0 -30 31v942q0 31 30 30h246q31 0 31 -30v-346h157q41 176 182.5 288.5t325.5 112.5zM1083 264q96 0 162 67.5 t66 170.5q0 104 -65.5 171.5t-162.5 67.5q-94 0 -160.5 -68.5t-66.5 -171t66.5 -170t160.5 -67.5z" glyph-name="afii10096" horiz-adv-x="1677" unicode="ю"/><glyph d="M1069 1004q31 0 31 -31v-942q0 -31 -31 -31h-246q-31 0 -30 31v305h-105l-287 -320q-14 -16 -36 -16h-252q-20 0 -25.5 11.5t8.5 25.5l285 309q-301 47 -301 324q0 334 442 334h547zM518 780q-143 0 -143 -110.5t143 -110.5h275v221h-275z" glyph-name="afii10097" horiz-adv-x="1210" unicode="я"/><glyph d="M376.5 1200q-61.5 0 -106.5 44t-45 110q0 63 45 107t106.5 44t106.5 -44t45 -107q0 -66 -45 -110t-106.5 -44zM841.5 1200q-61.5 0 -106.5 44t-45 110q0 63 45 107t106.5 44t106.5 -44t45 -107q0 -66 -45 -110t-106.5 -44zM1077 524q0 -68 -14 -97.5t-59 -29.5h-609 q47 -166 258 -166q100 0 195 60q25 16 45 -4l106 -103q18 -23 -4 -45q-154 -154 -372 -153q-233 0 -383 150.5t-150 369.5t145.5 368.5t364.5 149.5q213 0 345 -145.5t132 -354.5zM602 764q-80 0 -137 -44t-74 -128h414q-14 84 -69.5 128t-133.5 44z" glyph-name="afii10071" horiz-adv-x="1167" unicode="ё"/><glyph d="M350 1112q-41 0 -24 35l123 258q10 25 34 25h222q41 0 24 -35l-123 -258q-10 -25 -35 -25h-221zM811 1004q31 0 31 -31v-187q0 -31 -31 -30h-393v-725q0 -31 -31 -31h-246q-31 0 -30 31v942q0 31 30 31h670z" glyph-name="afii10100" horiz-adv-x="911" unicode="ѓ"/><glyph d="M995 207q20 -20 2 -43q-156 -178 -393 -178q-217 0 -365.5 151.5t-148.5 370.5q0 215 149.5 365.5t364.5 150.5q231 0 387 -178q18 -23 -2 -43l-147 -144q-20 -20 -45 3q-88 78 -185 77q-70 0 -124 -34.5t-80 -94.5h254q31 0 30 -30v-160q0 -31 -30 -31h-248 q61 -119 198 -119q100 0 191 78q25 20 45 0z" glyph-name="afii10101" horiz-adv-x="1064" unicode="є"/><glyph d="M30.5 1139q-61.5 0 -106.5 44t-45 109q0 63 45 107.5t106.5 44.5t106.5 -44t45 -108q0 -66 -45 -109.5t-106.5 -43.5zM495.5 1139q-61.5 0 -106.5 44t-45 109q0 63 45 107.5t106.5 44.5t106.5 -44t45 -108q0 -66 -45 -109.5t-106.5 -43.5zM111 973q0 31 30 31h246 q31 0 31 -31v-942q0 -31 -31 -31h-246q-31 0 -30 31v942z" glyph-name="afii10104" horiz-adv-x="528" unicode="ї"/><glyph d="M526 1112q-41 0 -24 35l123 258q10 25 34 25h222q41 0 24 -35l-123 -258q-10 -25 -34 -25h-222zM1186 37q12 -16 7 -26.5t-26 -10.5h-295q-23 0 -36 16l-310 353l-108 -113v-225q0 -31 -31 -31h-246q-31 0 -30 31v942q0 31 30 31h246q31 0 31 -31v-340l342 354 q14 16 39 17h293q20 0 25 -10.5t-9 -26.5l-389 -400z" glyph-name="afii10109" horiz-adv-x="1255" unicode="ќ"/><glyph d="M754 1403q6 29 32 29h123q33 0 29 -31q-10 -115 -99 -190.5t-231 -75.5q-143 0 -230 75.5t-99 190.5q-4 31 28 31h123q27 0 33 -29q10 -39 48 -68.5t97 -29.5q115 0 146 98zM1122 1004q37 0 25 -35l-531 -1334q-10 -25 -36 -24h-240q-43 0 -25 35l146 352l-387 971 q-12 35 24 35h248q27 0 37 -25l225 -619l226 619q10 25 36 25h252z" glyph-name="afii10110" horiz-adv-x="1200" unicode="ў"/><glyph d="M940 1538q31 0 31 -31v-323q0 -31 -31 -31h-481v-1122q0 -31 -31 -31h-256q-31 0 -31 31v1372q0 31 31 31h518v73q0 31 31 31h219z" glyph-name="afii10050" horiz-adv-x="1038" unicode="Ґ"/><glyph d="M811 1130q31 0 31 -30v-314q0 -31 -31 -30h-393v-725q0 -31 -31 -31h-246q-31 0 -30 31v942q0 31 30 31h394v96q0 31 30 30h246z" glyph-name="afii10098" horiz-adv-x="911" unicode="ґ"/><glyph d="M985 1567l-123 258q-16 35 25 35h221q25 0 35 -25l123 -258q16 -35 -25 -35h-221q-25 0 -35 25zM2198 1434q35 0 24 -35l-434 -1374q-10 -25 -39 -25h-250q-29 0 -35 25l-309 931l-311 -931q-8 -25 -33 -25h-250q-33 0 -39 25l-430 1374q-14 35 25 35h266q27 0 35 -25 l272 -987l309 987q2 14 17 21q8 4 16 4h246q10 0 18 -4q8 -6 15 -21l309 -987l274 987q6 25 35 25h269z" glyph-name="Wgrave" horiz-adv-x="2314" unicode="Ẁ"/><glyph d="M782 1137l-123 258q-16 35 25 35h221q25 0 35 -25l123 -258q16 -35 -25 -35h-221q-25 0 -35 25zM1808 1004q37 0 25 -35l-348 -944q-10 -25 -37 -25h-238q-27 0 -36 25l-222 581l-221 -581q-10 -25 -37 -25h-235q-27 0 -37 25l-348 944q-12 35 24 35h242q29 0 37 -25 l209 -619l217 619q6 18 20 20q8 4 17 5h227q8 0 16 -5q14 -2 21 -20l219 -619l207 619q10 25 37 25h241z" glyph-name="wgrave" horiz-adv-x="1906" unicode="ẁ"/><glyph d="M1055 1542q-41 0 -25 35l123 258q10 25 35 25h221q41 0 25 -35l-123 -258q-10 -25 -35 -25h-221zM2198 1434q35 0 24 -35l-434 -1374q-10 -25 -39 -25h-250q-29 0 -35 25l-309 931l-311 -931q-8 -25 -33 -25h-250q-33 0 -39 25l-430 1374q-14 35 25 35h266q27 0 35 -25 l272 -987l309 987q2 14 17 21q8 4 16 4h246q10 0 18 -4q8 -6 15 -21l309 -987l274 987q6 25 35 25h269z" glyph-name="Wacute" horiz-adv-x="2314" unicode="Ẃ"/><glyph d="M852 1112q-41 0 -25 35l123 258q10 25 35 25h221q41 0 25 -35l-123 -258q-10 -25 -35 -25h-221zM1808 1004q37 0 25 -35l-348 -944q-10 -25 -37 -25h-238q-27 0 -36 25l-222 581l-221 -581q-10 -25 -37 -25h-235q-27 0 -37 25l-348 944q-12 35 24 35h242q29 0 37 -25 l209 -619l217 619q6 18 20 20q8 4 17 5h227q8 0 16 -5q14 -2 21 -20l219 -619l207 619q10 25 37 25h241z" glyph-name="wacute" horiz-adv-x="1906" unicode="ẃ"/><glyph d="M923.5 1569q-61.5 0 -106.5 44t-45 109q0 63 45 107.5t106.5 44.5t106.5 -44t45 -108q0 -66 -45 -109.5t-106.5 -43.5zM1388.5 1569q-61.5 0 -106.5 44t-45 109q0 63 45 107.5t106.5 44.5t106.5 -44t45 -108q0 -66 -45 -109.5t-106.5 -43.5zM2198 1434q35 0 24 -35 l-434 -1374q-10 -25 -39 -25h-250q-29 0 -35 25l-309 931l-311 -931q-8 -25 -33 -25h-250q-33 0 -39 25l-430 1374q-14 35 25 35h266q27 0 35 -25l272 -987l309 987q2 14 17 21q8 4 16 4h246q10 0 18 -4q8 -6 15 -21l309 -987l274 987q6 25 35 25h269z" glyph-name="Wdieresis" horiz-adv-x="2314" unicode="Ẅ"/><glyph d="M720.5 1139q-61.5 0 -106.5 44t-45 109q0 63 45 107.5t106.5 44.5t106.5 -44t45 -108q0 -66 -45 -109.5t-106.5 -43.5zM1185.5 1139q-61.5 0 -106.5 44t-45 109q0 63 45 107.5t106.5 44.5t106.5 -44t45 -108q0 -66 -45 -109.5t-106.5 -43.5zM1808 1004q37 0 25 -35 l-348 -944q-10 -25 -37 -25h-238q-27 0 -36 25l-222 581l-221 -581q-10 -25 -37 -25h-235q-27 0 -37 25l-348 944q-12 35 24 35h242q29 0 37 -25l209 -619l217 619q6 18 20 20q8 4 17 5h227q8 0 16 -5q14 -2 21 -20l219 -619l207 619q10 25 37 25h241z" glyph-name="wdieresis" horiz-adv-x="1906" unicode="ẅ"/><glyph d="M502 1567l-123 258q-16 35 24 35h222q25 0 34 -25l123 -258q16 -35 -24 -35h-221q-25 0 -35 25zM1231 1434q41 0 20 -37l-417 -738v-628q0 -31 -31 -31h-258q-31 0 -31 31v635l-418 731q-20 37 21 37h270q25 0 37 -21l250 -450l250 450q12 20 37 21h270z" glyph-name="Ygrave" horiz-adv-x="1347" unicode="Ỳ"/><glyph d="M338 1430h221q25 0 35 -25l123 -258q16 -35 -25 -35h-221q-25 0 -35 25l-123 258q-16 35 25 35zM1122 1004q37 0 25 -35l-531 -1334q-10 -25 -36 -24h-240q-43 0 -25 35l146 352l-387 971q-12 35 24 35h248q27 0 37 -25l225 -619l226 619q10 25 36 25h252z" glyph-name="ygrave" horiz-adv-x="1220" unicode="ỳ"/><glyph d="M1137 688q31 0 30 -31v-186q0 -31 -30 -31h-983q-31 0 -31 31v186q0 31 31 31h983z" glyph-name="endash" horiz-adv-x="1290" unicode="–"/><glyph d="M1260 688q31 0 30 -31v-186q0 -31 -30 -31h-1106q-31 0 -31 31v186q0 31 31 31h1106z" glyph-name="emdash" horiz-adv-x="1413" unicode="—"/><glyph d="M279 1167q61 -10 102 -57t41 -109q0 -70 -50 -117.5t-122 -47.5q-74 0 -121 53t-47 145q0 213 211 434l76 -45q-74 -113 -90 -256z" glyph-name="quoteleft" horiz-adv-x="503" unicode="‘"/><glyph d="M254 1466q74 0 121 -53t47 -145q0 -213 -211 -434l-76 45q74 113 90 256q-61 10 -102 57t-41 108q0 70 50 118t122 48z" glyph-name="quoteright" horiz-adv-x="503" unicode="’"/><glyph d="M254 303q74 0 121 -53t47 -146q0 -213 -211 -434l-76 45q74 113 90 256q-61 10 -102 57.5t-41 108.5q0 70 50 118t122 48z" glyph-name="quotesinglbase" horiz-adv-x="495" unicode="‚"/><glyph d="M276 1167q61 -10 102.5 -57t41.5 -109q0 -70 -50.5 -117.5t-121.5 -47.5q-74 0 -121 53t-47 145q0 213 211 434l76 -45q-75 -113 -91 -256zM690 1167q61 -10 102.5 -57t41.5 -109q0 -70 -50.5 -117.5t-121.5 -47.5q-74 0 -121 53t-47 145q0 213 211 434l75 -45 q-74 -113 -90 -256z" glyph-name="quotedblleft" horiz-adv-x="915" unicode="“"/><glyph d="M254 1466q74 0 121 -53t47 -145q0 -213 -211 -434l-76 45q74 113 90 256q-61 10 -102 57t-41 108q0 70 50 118t122 48zM668 1466q74 0 121 -53t47 -145q0 -213 -211 -434l-76 45q74 113 90 256q-61 10 -102 57t-41 108q0 70 50 118t122 48z" glyph-name="quotedblright" horiz-adv-x="915" unicode="”"/><glyph d="M254 303q74 0 121 -53t47 -146q0 -213 -211 -434l-76 45q74 113 90 256q-61 10 -102 57.5t-41 108.5q0 70 50 118t122 48zM684 303q74 0 121 -53t47 -146q0 -213 -211 -434l-76 45q74 113 90 256q-61 10 -102 57.5t-41 108.5q0 70 50 118t122 48z" glyph-name="quotedblbase" horiz-adv-x="931" unicode="„"/><glyph d="M848 1174q31 0 31 -31v-162q0 -31 -31 -31h-230v-231q0 -31 -30 -31h-162q-31 0 -31 31v231h-231q-31 0 -31 31v162q0 31 31 31h231v231q0 31 31 31h162q31 0 30 -31v-231h230z" glyph-name="dagger" horiz-adv-x="1011" unicode="†"/><glyph d="M848 1174q31 0 31 -31v-162q0 -31 -31 -31h-230v-231q0 -31 -30 -31h-162q-31 0 -31 31v231h-231q-31 0 -31 31v162q0 31 31 31h231v231q0 31 31 31h162q31 0 30 -31v-231h230zM848 307q31 0 31 -31v-161q0 -31 -31 -31h-230v-231q0 -31 -30 -31h-162q-31 0 -31 31v231 h-231q-31 0 -31 31v161q0 31 31 31h231v232q0 31 31 30h162q31 0 30 -30v-232h230z" glyph-name="daggerdbl" horiz-adv-x="1011" unicode="‡"/><glyph d="M354 342q-90 0 -155.5 65.5t-65.5 155.5t65.5 155.5t155.5 65.5t155.5 -65.5t65.5 -155.5t-65.5 -155.5t-155.5 -65.5z" glyph-name="bullet" horiz-adv-x="708" unicode="•"/><glyph d="M258 -27q-70 0 -118 48.5t-48 117.5q0 68 48 116t118 48q68 0 116 -48t48 -116q0 -70 -48 -118t-116 -48zM764 -27q-70 0 -118 48.5t-48 117.5q0 68 48 116t118 48q68 0 116 -48t48 -116q0 -70 -48 -118t-116 -48zM1270 -27q-70 0 -118 48.5t-48 117.5q0 68 48 116 t118 48q68 0 116 -48t48 -116q0 -70 -48 -118t-116 -48z" glyph-name="ellipsis" horiz-adv-x="1525" unicode="…"/><glyph d="M381 1444q117 0 199 -80t82 -196.5t-82 -197.5t-199 -81t-198 81t-81 197.5t81 196.5t198 80zM1100 1423l170 -106l-879 -1307l-170 107zM381 1249q-33 0 -56.5 -23.5t-23.5 -58t23.5 -59.5t56.5 -25q35 0 59.5 25t24.5 59.5t-24.5 58t-59.5 23.5zM1110 545 q119 0 199 -81t80 -197.5t-80 -196.5t-199 -80q-117 0 -199 80t-82 196.5t82 197.5t199 81zM1833 545q117 0 197.5 -81t80.5 -197.5t-80.5 -196.5t-197.5 -80q-119 0 -200 80t-81 196.5t81 197.5t200 81zM1110 350q-35 0 -58.5 -24.5t-23.5 -59.5t23.5 -58.5t58.5 -23.5 q33 0 57.5 23.5t24.5 58.5t-24.5 59.5t-57.5 24.5zM1833 350q-35 0 -59.5 -24.5t-24.5 -59.5t24.5 -58.5t59.5 -23.5q33 0 56.5 23.5t23.5 58.5t-23.5 59.5t-56.5 24.5z" glyph-name="perthousand" horiz-adv-x="2213" unicode="‰"/><glyph d="M92 645q0 23 17 37l225 203q14 12 25.5 6t11.5 -27v-153q0 -23 -17 -37l-137 -117l137 -117q16 -14 17 -37v-153q0 -20 -11.5 -25.5t-25.5 6.5l-225 201q-16 14 -17 37v176z" glyph-name="guilsinglleft" horiz-adv-x="462" unicode="‹"/><glyph d="M371 750v-177q0 -23 -17 -36l-225 -201q-14 -12 -25.5 -7t-11.5 25v154q0 23 17 37l137 117l-137 116q-16 14 -17 37v154q0 20 11.5 26t25.5 -6l225 -203q17 -13 17 -36z" glyph-name="guilsinglright" horiz-adv-x="462" unicode="›"/><glyph d="M641 1434l-881 -1434h-98l893 1434h86z" glyph-name="fraction" horiz-adv-x="303" unicode="⁄"/><glyph d="M1262 397l157 -170q20 -23 0 -43q-201 -211 -506 -211q-233 0 -420.5 128t-269.5 337h-110q-31 0 -31 31v162q0 31 31 31h61q-2 16 -2 49v34h-59q-31 0 -31 31v162q0 31 31 31h104q80 215 269.5 348t426.5 133q303 0 506 -209q18 -20 0 -43l-157 -172q-18 -23 -43 -2 q-135 115 -308 115q-211 0 -331 -170h176q31 0 30 -31v-162q0 -31 -30 -31h-254q-2 -12 -2 -34q0 -33 2 -49h254q31 0 30 -31v-162q0 -31 -30 -31h-164q121 -154 319 -153q172 0 308 114q25 21 43 -2z" glyph-name="Euro" horiz-adv-x="1499" unicode="€"/><glyph d="M1194 745h-193q-59 -51 -133 -83h326q35 0 31 -31v-162q4 -31 -31 -31h-709q-2 -6 -2 -22q0 -66 53.5 -104t131.5 -38q156 0 315 132q27 23 45 -5l141 -157q18 -20 2 -43q-70 -94 -206 -160t-289 -66q-201 0 -352.5 116t-151.5 319v28h-61q-31 0 -31 31v162q0 31 31 31 h141q41 51 92 83h-233q-31 0 -31 31v162q0 31 31 31h690q20 31 20 61q0 51 -41 86t-114 35q-115 0 -265 -104q-25 -18 -43 8l-133 162q-18 25 4 43q195 190 447 190q186 0 321.5 -112.5t135.5 -301.5q0 -27 -5 -67h66q35 0 31 -31v-162q4 -31 -31 -31z" glyph-name="uni20B4" horiz-adv-x="1304" unicode="₴"/><glyph d="M479 1434q10 0 10 -11v-65q0 -10 -10 -10h-117v-273q0 -10 -10 -10h-82q-10 0 -10 10v273h-117q-10 0 -10 10v65q0 10 10 11h336zM1044 1434q10 0 11 -11v-348q0 -10 -11 -10h-77q-10 0 -11 10v187l-110 -191q-2 -6 -12 -6h-54q-10 0 -12 6l-109 191v-187q0 -10 -10 -10 h-78q-10 0 -10 10v348q0 10 10 11h84q8 0 13 -7l139 -233l139 233q4 6 12 7h86z" glyph-name="trademark" horiz-adv-x="1187" unicode="™"/><glyph d="M213 1436v-535h-76v461h-55v74h131zM1075 1434l-880 -1434h-99l893 1434h86zM924 539q74 0 117.5 -41t43.5 -97q0 -70 -61 -108q88 -43 88 -135q0 -70 -55.5 -116t-132.5 -46q-76 0 -131.5 46t-55.5 116q0 92 88 135q-61 39 -61 108q0 53 44 95.5t116 42.5zM924 475 q-41 0 -62.5 -21.5t-21.5 -52t25.5 -55t58.5 -24.5q35 0 59.5 23.5t24.5 55.5q0 74 -84 74zM924 258q-45 0 -78 -28.5t-33 -71.5q0 -41 33 -70t78 -29q49 0 79.5 27t30.5 72t-30.5 72.5t-79.5 27.5z" glyph-name="oneeighth" horiz-adv-x="1193" unicode="⅛"/><glyph d="M268 1440q66 0 115 -42t49 -98q0 -66 -61 -108q86 -37 86 -135q0 -70 -56.5 -117t-132.5 -47q-84 0 -138 55.5t-48 130.5h78q-10 -47 23.5 -84t84.5 -37q45 0 78 28t33 71q0 57 -41 79.5t-111 10.5v65q129 6 129 88q0 31 -25.5 53.5t-62.5 22.5q-45 0 -71.5 -31.5 t-22.5 -84.5h-78q-8 76 43 128t129 52zM1122 1434l-880 -1434h-99l893 1434h86zM967 539q74 0 117.5 -41t43.5 -97q0 -70 -61 -108q88 -43 88 -135q0 -70 -55.5 -116t-132.5 -46q-76 0 -131.5 46t-55.5 116q0 92 88 135q-61 39 -61 108q0 53 44 95.5t116 42.5zM967 475 q-41 0 -62.5 -21.5t-21.5 -52t25.5 -55t58.5 -24.5q37 0 60.5 23.5t23.5 55.5q0 74 -84 74zM967 258q-45 0 -78 -28.5t-33 -71.5q0 -41 33 -70t78 -29q49 0 79.5 27t30.5 72t-30.5 72.5t-79.5 27.5z" glyph-name="threeeighths" horiz-adv-x="1236" unicode="⅜"/><glyph d="M412 1436v-66h-213l-17 -119q45 20 92 21q72 0 129.5 -54.5t57.5 -134t-57.5 -135t-137.5 -55.5q-68 0 -120 38t-64 89l68 39q4 -41 35.5 -71t80.5 -30q47 0 82 36t35 89q0 51 -34 87t-75 36q-72 0 -116 -59l-66 16l37 273h283zM1122 1434l-880 -1434h-99l893 1434h86z M971 539q74 0 118 -41t44 -97q0 -70 -62 -108q88 -43 88 -135q0 -70 -55 -116t-133 -46q-76 0 -131.5 46t-55.5 116q0 92 88 135q-61 39 -61 108q0 53 44 95.5t116 42.5zM971 475q-41 0 -62.5 -21.5t-21.5 -52t25.5 -55t58.5 -24.5q37 0 60.5 23.5t23.5 55.5q0 74 -84 74z M971 258q-45 0 -78 -28.5t-33 -71.5q0 -41 33 -70t78 -29q49 0 79.5 27t30.5 72t-30.5 72.5t-79.5 27.5z" glyph-name="fiveeighths" horiz-adv-x="1241" unicode="⅝"/><glyph d="M436 1436l-209 -535h-80l183 469h-248v66h354zM1077 1434l-880 -1434h-99l893 1434h86zM926 539q74 0 117.5 -41t43.5 -97q0 -70 -61 -108q88 -43 88 -135q0 -70 -55 -116t-133 -46q-76 0 -131.5 46t-55.5 116q0 92 88 135q-61 39 -61 108q0 53 44 95.5t116 42.5z M926 475q-41 0 -62.5 -21.5t-21.5 -52t25.5 -55t58.5 -24.5q37 0 60.5 23.5t23.5 55.5q0 74 -84 74zM926 258q-45 0 -78 -28.5t-33 -71.5q0 -41 33 -70t78 -29q49 0 79.5 27t30.5 72t-30.5 72.5t-79.5 27.5z" glyph-name="seveneighths" horiz-adv-x="1196" unicode="⅞"/><glyph d="M901 907q184 -223 184 -434q0 -215 -148.5 -357.5t-365.5 -142.5q-219 0 -367.5 142.5t-148.5 357.5q0 193 124 326t315 166l-263 311q-18 20 7 43l170 145q23 18 43 -6zM571 258q90 0 153.5 62.5t63.5 152.5q0 96 -62 160.5t-154.5 64.5t-156 -64.5t-63.5 -160.5 q0 -90 62.5 -152.5t156.5 -62.5z" glyph-name="partialdiff" horiz-adv-x="1167" unicode="∂"/><glyph d="M123 1608q0 31 31 30h1235q31 0 30 -30v-1966q0 -31 -30 -31h-220q-31 0 -30 31v1716h-736v-1716q0 -31 -30 -31h-219q-31 0 -31 31v1966z" glyph-name="product" horiz-adv-x="1542" unicode="∏"/><glyph d="M1313 1638q31 0 30 -30v-222q0 -31 -30 -30h-830l549 -709q16 -23 0 -45l-549 -708h830q31 0 30 -31v-221q0 -31 -30 -31h-1159q-31 0 -31 31v231q0 18 12 37l551 715l-551 714q-12 18 -12 37v232q0 31 31 30h1159z" glyph-name="summation" horiz-adv-x="1466" unicode="∑"/><glyph d="M889 696q31 0 31 -30v-162q0 -31 -31 -31h-725q-31 0 -31 31v162q0 31 31 30h725z" glyph-name="minus" horiz-adv-x="1052" unicode="−"/><glyph d="M1477 1638q37 0 26 -34l-540 -1966q-6 -27 -33 -27h-258q-29 0 -35 24l-270 865h-213q-31 0 -31 30v222q0 31 31 30h372q29 0 35 -26l236 -811l454 1667q6 27 33 26h193z" glyph-name="radical" horiz-adv-x="1628" unicode="√"/><glyph d="M1243 879q156 0 265.5 -95.5t109.5 -246.5q0 -156 -109.5 -252.5t-265.5 -96.5q-207 0 -389 187q-182 -186 -387 -187q-158 0 -267.5 96.5t-109.5 252.5q0 152 110.5 247t266.5 95q203 0 387 -185q184 185 389 185zM479 389q74 0 127 31t117 115q-63 82 -117.5 113.5 t-126.5 31.5q-70 0 -113.5 -44t-43.5 -101q0 -59 43.5 -102.5t113.5 -43.5zM1229 389q70 0 113.5 43t43.5 103q0 57 -44 101t-113 44q-72 0 -126 -32t-120 -113q63 -84 117.5 -115t128.5 -31z" glyph-name="infinity" horiz-adv-x="1708" unicode="∞"/><glyph d="M879 1604q20 -12 20 -37v-217q0 -18 -11 -24.5t-26 1.5q-55 35 -119 35q-66 0 -85 -28.5t-19 -90.5v-1278q0 -176 -99.5 -265t-271.5 -89q-115 0 -178 35q-20 12 -20 37v217q0 18 10 24t26 -2q55 -35 121 -35t85.5 29t19.5 90v1278q0 176 99 265t269 89q118 1 179 -34z " glyph-name="integral" horiz-adv-x="878" unicode="∫"/><glyph d="M373 897q78 0 147.5 -40t127 -80t108.5 -40q37 0 64.5 18.5t37.5 43.5q12 18 25 18h75q23 0 23 -22q4 -121 -67.5 -183.5t-182.5 -62.5q-78 0 -146.5 40t-126 80t-106.5 40q-37 0 -66.5 -18.5t-39.5 -43.5q-6 -18 -25 -18h-76q-27 0 -22 28q14 119 81 179.5t169 60.5z M373 569q78 0 147.5 -40t127 -79.5t108.5 -39.5q37 0 64.5 18t37.5 43q12 18 25 18h75q23 0 23 -22q4 -121 -67.5 -183.5t-182.5 -62.5q-78 0 -146.5 40t-126 80t-106.5 40q-37 0 -66.5 -18.5t-39.5 -43.5q-6 -18 -25 -18h-76q-27 0 -22 29q14 119 81 179t169 60z" glyph-name="approxequal" horiz-adv-x="1103" unicode="≈"/><glyph d="M889 645h-205l-47 -121h252q31 0 31 -30v-162q0 -31 -31 -31h-338l-107 -276q-10 -25 -36 -25h-193q-37 0 -25 35l103 266h-129q-31 0 -31 31v162q0 31 31 30h217l45 121h-262q-31 0 -31 31v162q0 31 31 30h350l98 256q10 25 37 25h193q37 0 24 -35l-94 -246h117 q31 0 31 -30v-162q0 -31 -31 -31z" glyph-name="notequal" horiz-adv-x="1052" unicode="≠"/><glyph d="M840 1214q16 8 25 2t9 -22v-178q0 -20 -20 -31l-473 -201l473 -200q20 -10 20 -33v-178q0 -35 -34 -21l-697 336q-20 8 -20 29v133q0 18 20 31zM879 240q31 0 30 -31v-162q0 -31 -30 -31h-725q-31 0 -31 31v162q0 31 31 31h725z" glyph-name="lessequal" horiz-adv-x="1003" unicode="≤"/><glyph d="M201 1214l696 -333q20 -12 21 -31v-133q0 -20 -21 -29l-696 -336q-35 -14 -35 21v178q0 23 20 33l473 200l-473 201q-20 10 -20 31v178q0 16 9.5 22t25.5 -2zM162 240h725q31 0 31 -31v-162q0 -31 -31 -31h-725q-31 0 -31 31v162q0 31 31 31z" glyph-name="greaterequal" horiz-adv-x="1054" unicode="≥"/><glyph d="M805 1434q27 0 35 -23l299 -674q8 -20 0 -41l-299 -673q-8 -23 -35 -23h-340q-27 0 -35 23l-299 673q-8 20 0 41l299 674q8 23 35 23h340zM635 184l235 533l-235 534l-236 -534z" glyph-name="lozenge" horiz-adv-x="1269" unicode="◊"/><glyph d="M1608 1196q20 -20 0 -43l-971 -971q-23 -20 -43 0l-516 516q-20 23 0 43l155 156q20 20 43 0l314 -311l792 792q23 23 43 0z" glyph-name="uni2713" horiz-adv-x="1687" unicode="✓"/><glyph d="M264.5 1139q-61.5 0 -106.5 44t-45 109q0 63 45 107.5t106.5 44.5t106.5 -44t45 -108q0 -66 -45 -109.5t-106.5 -43.5zM111 973q0 31 30 31h246q31 0 31 -31v-942q0 -31 -31 -31h-246q-31 0 -30 31v942z" glyph-name="i.aalt" horiz-adv-x="528"/><glyph d="M768 1473q20 -12 20 -37v-217q0 -18 -11 -24.5t-25 3.5q-55 33 -121 33t-85.5 -28.5t-19.5 -90.5v-108h213q31 0 31 -31v-187q0 -31 -31 -30h-213v-725q0 -31 -30 -31h-246q-31 0 -31 31v725h-119q-31 0 -30 30v187q0 31 30 31h119v149q0 176 99.5 265t269.5 89 q119 1 180 -34z" glyph-name="f.aalt" horiz-adv-x="870"/><glyph d="M1049 240q27 -14 26 -35v-176q0 -33 -26 -35q-104 -16 -193.5 9.5t-128.5 102.5q-119 -133 -305 -133q-164 0 -253 77t-89 222q0 141 86 209t276 101l125 22q117 23 135 51q-12 115 -132.5 115t-147.5 -98q-4 -18 -29 -19h-229q-14 0 -24.5 8.5t-8.5 22.5q18 342 444 342 q207 0 322 -101.5t115 -306.5v-294q0 -66 37 -84zM385 311q0 -80 100 -80q127 0 220 91v153q-18 -35 -140 -57l-94 -19q-86 -18 -86 -88z" glyph-name="a.salt" horiz-adv-x="1144"/><glyph d="M477 1112q-41 0 -24 35l122 258q10 25 35 25h221q41 0 25 -35l-123 -258q-10 -25 -35 -25h-221zM1049 240q27 -14 26 -35v-176q0 -33 -26 -35q-104 -16 -193.5 9.5t-128.5 102.5q-119 -133 -305 -133q-164 0 -253 77t-89 222q0 141 86 209t276 101l125 22q117 23 135 51 q-12 115 -132.5 115t-147.5 -98q-4 -18 -29 -19h-229q-14 0 -24.5 8.5t-8.5 22.5q18 342 444 342q207 0 322 -101.5t115 -306.5v-294q0 -66 37 -84zM385 311q0 -80 100 -80q127 0 220 91v153q-18 -35 -140 -57l-94 -19q-86 -18 -86 -88z" glyph-name="aacute.aalt" horiz-adv-x="1144"/><glyph d="M580 1135q-143 0 -230.5 75.5t-99.5 190.5q-4 31 29 31h122q27 0 33 -29q10 -39 48 -68.5t98 -29.5q115 0 145 98q6 29 33 29h123q33 0 28 -31q-10 -115 -99 -190.5t-230 -75.5zM1049 240q27 -14 26 -35v-176q0 -33 -26 -35q-104 -16 -193.5 9.5t-128.5 102.5 q-119 -133 -305 -133q-164 0 -253 77t-89 222q0 141 86 209t276 101l125 22q117 23 135 51q-12 115 -132.5 115t-147.5 -98q-4 -18 -29 -19h-229q-14 0 -24.5 8.5t-8.5 22.5q18 342 444 342q207 0 322 -101.5t115 -306.5v-294q0 -66 37 -84zM385 311q0 -80 100 -80 q127 0 220 91v153q-18 -35 -140 -57l-94 -19q-86 -18 -86 -88z" glyph-name="abreve.aalt" horiz-adv-x="1144"/><glyph d="M455 1167l-201 226q-12 14 -7 25.5t25 11.5h154q23 0 37 -17l117 -137l116 137q14 16 37 17h154q20 0 26.5 -11.5t-6.5 -25.5l-202 -226q-14 -16 -37 -16h-176q-23 0 -37 16zM1049 240q27 -14 26 -35v-176q0 -33 -26 -35q-104 -16 -193.5 9.5t-128.5 102.5 q-119 -133 -305 -133q-164 0 -253 77t-89 222q0 141 86 209t276 101l125 22q117 23 135 51q-12 115 -132.5 115t-147.5 -98q-4 -18 -29 -19h-229q-14 0 -24.5 8.5t-8.5 22.5q18 342 444 342q207 0 322 -101.5t115 -306.5v-294q0 -66 37 -84zM385 311q0 -80 100 -80 q127 0 220 91v153q-18 -35 -140 -57l-94 -19q-86 -18 -86 -88z" glyph-name="uni01CE.aalt" horiz-adv-x="1144"/><glyph d="M272 1151q-20 0 -25 11.5t7 25.5l201 225q14 16 37 17h176q23 0 37 -17l202 -225q12 -14 6 -25.5t-26 -11.5h-154q-23 0 -37 16l-116 138l-117 -138q-14 -16 -37 -16h-154zM1049 240q27 -14 26 -35v-176q0 -33 -26 -35q-104 -16 -193.5 9.5t-128.5 102.5 q-119 -133 -305 -133q-164 0 -253 77t-89 222q0 141 86 209t276 101l125 22q117 23 135 51q-12 115 -132.5 115t-147.5 -98q-4 -18 -29 -19h-229q-14 0 -24.5 8.5t-8.5 22.5q18 342 444 342q207 0 322 -101.5t115 -306.5v-294q0 -66 37 -84zM385 311q0 -80 100 -80 q127 0 220 91v153q-18 -35 -140 -57l-94 -19q-86 -18 -86 -88z" glyph-name="acircumflex.aalt" horiz-adv-x="1144"/><glyph d="M346.5 1139q-61.5 0 -106.5 44t-45 109q0 63 45 107.5t106.5 44.5t106.5 -44t45 -108q0 -66 -45 -109.5t-106.5 -43.5zM811 1139q-61 0 -106.5 44t-45.5 109q0 63 45.5 107.5t106.5 44.5t106.5 -44t45.5 -108q0 -66 -45.5 -109.5t-106.5 -43.5zM1049 240q27 -14 26 -35 v-176q0 -33 -26 -35q-104 -16 -193.5 9.5t-128.5 102.5q-119 -133 -305 -133q-164 0 -253 77t-89 222q0 141 86 209t276 101l125 22q117 23 135 51q-12 115 -132.5 115t-147.5 -98q-4 -18 -29 -19h-229q-14 0 -24.5 8.5t-8.5 22.5q18 342 444 342q207 0 322 -101.5 t115 -306.5v-294q0 -66 37 -84zM385 311q0 -80 100 -80q127 0 220 91v153q-18 -35 -140 -57l-94 -19q-86 -18 -86 -88z" glyph-name="adieresis.aalt" horiz-adv-x="1144"/><glyph d="M408 1137l-123 258q-16 35 24 35h221q25 0 35 -25l123 -258q16 -35 -24 -35h-222q-24 0 -34 25zM1049 240q27 -14 26 -35v-176q0 -33 -26 -35q-104 -16 -193.5 9.5t-128.5 102.5q-119 -133 -305 -133q-164 0 -253 77t-89 222q0 141 86 209t276 101l125 22q117 23 135 51 q-12 115 -132.5 115t-147.5 -98q-4 -18 -29 -19h-229q-14 0 -24.5 8.5t-8.5 22.5q18 342 444 342q207 0 322 -101.5t115 -306.5v-294q0 -66 37 -84zM385 311q0 -80 100 -80q127 0 220 91v153q-18 -35 -140 -57l-94 -19q-86 -18 -86 -88z" glyph-name="agrave.aalt" horiz-adv-x="1144"/><glyph d="M262 1192q-31 0 -31 31v176q0 31 31 31h635q31 0 31 -31v-176q0 -31 -31 -31h-635zM1049 240q27 -14 26 -35v-176q0 -33 -26 -35q-104 -16 -193.5 9.5t-128.5 102.5q-119 -133 -305 -133q-164 0 -253 77t-89 222q0 141 86 209t276 101l125 22q117 23 135 51 q-12 115 -132.5 115t-147.5 -98q-4 -18 -29 -19h-229q-14 0 -24.5 8.5t-8.5 22.5q18 342 444 342q207 0 322 -101.5t115 -306.5v-294q0 -66 37 -84zM385 311q0 -80 100 -80q127 0 220 91v153q-18 -35 -140 -57l-94 -19q-86 -18 -86 -88z" glyph-name="amacron.aalt" horiz-adv-x="1144"/><glyph d="M1049 240q27 -14 26 -35v-176q0 -33 -26 -35l-64 -6q-57 -8 -89 -38t-32 -77q0 -37 30 -60.5t95 -11.5v-186q-47 -20 -109.5 -21.5t-122 17t-100.5 71t-41 130.5q0 160 162 233q-29 23 -51 61q-119 -133 -305 -133q-164 0 -253 77t-89 222q0 141 86 209t276 101l125 22 q117 23 135 51q-12 115 -132.5 115t-147.5 -98q-4 -18 -29 -19h-229q-14 0 -24.5 8.5t-8.5 22.5q18 342 444 342q207 0 322 -101.5t115 -306.5v-294q0 -66 37 -84zM385 311q0 -80 100 -80q127 0 220 91v153q-18 -35 -140 -57l-94 -19q-86 -18 -86 -88z" glyph-name="aogonek.aalt" horiz-adv-x="1134"/><glyph d="M582 1094q-92 0 -158 63.5t-66 151.5q0 90 64.5 153.5t159.5 63.5q86 0 150.5 -64.5t64.5 -152.5t-64.5 -151.5t-150.5 -63.5zM578 1358q-18 0 -33 -13.5t-15 -33.5q0 -18 14.5 -32.5t33.5 -14.5q20 0 34.5 14t14.5 33q0 20 -14.5 33.5t-34.5 13.5zM1049 240 q27 -14 26 -35v-176q0 -33 -26 -35q-104 -16 -193.5 9.5t-128.5 102.5q-119 -133 -305 -133q-164 0 -253 77t-89 222q0 141 86 209t276 101l125 22q117 23 135 51q-12 115 -132.5 115t-147.5 -98q-4 -18 -29 -19h-229q-14 0 -24.5 8.5t-8.5 22.5q18 342 444 342 q207 0 322 -101.5t115 -306.5v-294q0 -66 37 -84zM385 311q0 -80 100 -80q127 0 220 91v153q-18 -35 -140 -57l-94 -19q-86 -18 -86 -88z" glyph-name="aring.aalt" horiz-adv-x="1144"/><glyph d="M209 1231q-20 0 -21 29q8 106 69.5 161.5t158.5 55.5q92 0 194.5 -73t151.5 -73q72 0 96 55q6 16 23 17h69q20 0 21 -21q-6 -111 -68.5 -168t-163.5 -57q-55 0 -106 22.5t-84 50t-75 50.5t-79 23q-70 0 -94 -56q-6 -16 -22 -16h-70zM1049 240q27 -14 26 -35v-176 q0 -33 -26 -35q-104 -16 -193.5 9.5t-128.5 102.5q-119 -133 -305 -133q-164 0 -253 77t-89 222q0 141 86 209t276 101l125 22q117 23 135 51q-12 115 -132.5 115t-147.5 -98q-4 -18 -29 -19h-229q-14 0 -24.5 8.5t-8.5 22.5q18 342 444 342q207 0 322 -101.5t115 -306.5 v-294q0 -66 37 -84zM385 311q0 -80 100 -80q127 0 220 91v153q-18 -35 -140 -57l-94 -19q-86 -18 -86 -88z" glyph-name="atilde.aalt" horiz-adv-x="1144"/><glyph d="M780 143q162 0 237 -73.5t75 -188.5q0 -285 -533 -284q-479 0 -479 223q0 102 117 143q-90 80 -91 182q0 133 123 197q-104 111 -104 274q0 182 127 296t334 114q141 0 250 -57l196 35q12 2 21.5 -7.5t9.5 -23.5v-146q0 -31 -31 -30h-26q39 -84 38 -181 q0 -182 -126.5 -295.5t-331.5 -113.5q-123 0 -217 41q-49 0 -50 -41q0 -63 216 -64h245zM586 778q-70 0 -118 -46t-48 -115.5t48 -115.5t118 -46q68 0 116 46t48 115.5t-48 115.5t-116 46zM559 -215q258 0 258 59q0 41 -94 41h-311h-2q-94 0 -95 -41q0 -59 244 -59z" glyph-name="g.aalt" horiz-adv-x="1171"/><glyph d="M602 1135q-143 0 -230 75.5t-100 190.5q-2 31 29 31h123q27 0 33 -29q10 -39 48 -68.5t97 -29.5q115 0 146 98q6 29 32 29h123q31 0 29 -31q-10 -115 -99.5 -190.5t-230.5 -75.5zM780 143q162 0 237 -73.5t75 -188.5q0 -285 -533 -284q-479 0 -479 223q0 102 117 143 q-90 80 -91 182q0 133 123 197q-104 111 -104 274q0 182 127 296t334 114q141 0 250 -57l196 35q12 2 21.5 -7.5t9.5 -23.5v-146q0 -31 -31 -30h-26q39 -84 38 -181q0 -182 -126.5 -295.5t-331.5 -113.5q-123 0 -217 41q-49 0 -50 -41q0 -63 216 -64h245zM586 778 q-70 0 -118 -46t-48 -115.5t48 -115.5t118 -46q68 0 116 46t48 115.5t-48 115.5t-116 46zM559 -215q258 0 258 59q0 41 -94 41h-311h-2q-94 0 -95 -41q0 -59 244 -59z" glyph-name="gbreve.aalt" horiz-adv-x="1171"/><glyph d="M590 1137q-74 0 -121 53t-47 145q0 213 211 434l76 -45q-74 -113 -91 -256q61 -10 102.5 -57t41.5 -108q0 -70 -50 -118t-122 -48zM780 143q162 0 237 -73.5t75 -188.5q0 -285 -533 -284q-479 0 -479 223q0 102 117 143q-90 80 -91 182q0 133 123 197q-104 111 -104 274 q0 182 127 296t334 114q141 0 250 -57l196 35q12 2 21.5 -7.5t9.5 -23.5v-146q0 -31 -31 -30h-26q39 -84 38 -181q0 -182 -126.5 -295.5t-331.5 -113.5q-123 0 -217 41q-49 0 -50 -41q0 -63 216 -64h245zM586 778q-70 0 -118 -46t-48 -115.5t48 -115.5t118 -46q68 0 116 46 t48 115.5t-48 115.5t-116 46zM559 -215q258 0 258 59q0 41 -94 41h-311h-2q-94 0 -95 -41q0 -59 244 -59z" glyph-name="gcommaaccent.aalt" horiz-adv-x="1202"/><glyph d="M602.5 1139q-61.5 0 -106.5 44t-45 109q0 63 45 107.5t106.5 44.5t106.5 -44t45 -108q0 -66 -45 -109.5t-106.5 -43.5zM780 143q162 0 237 -73.5t75 -188.5q0 -285 -533 -284q-479 0 -479 223q0 102 117 143q-90 80 -91 182q0 133 123 197q-104 111 -104 274 q0 182 127 296t334 114q141 0 250 -57l196 35q12 2 21.5 -7.5t9.5 -23.5v-146q0 -31 -31 -30h-26q39 -84 38 -181q0 -182 -126.5 -295.5t-331.5 -113.5q-123 0 -217 41q-49 0 -50 -41q0 -63 216 -64h245zM586 778q-70 0 -118 -46t-48 -115.5t48 -115.5t118 -46q68 0 116 46 t48 115.5t-48 115.5t-116 46zM559 -215q258 0 258 59q0 41 -94 41h-311h-2q-94 0 -95 -41q0 -59 244 -59z" glyph-name="gdotaccent.aalt" horiz-adv-x="1171"/><glyph d="M688 270q37 6 37 -28v-193q0 -61 -188 -61q-131 0 -218.5 73.5t-87.5 233.5v461h-131q-31 0 -30 30v187q0 31 30 31h131v235q0 31 31 31h246q31 0 31 -31v-235h153q31 0 31 -31v-187q0 -31 -31 -30h-153v-402q0 -88 79 -88q45 0 70 4z" glyph-name="t.aalt" horiz-adv-x="802"/><glyph d="M757.5 1450q241.5 0 415 -193.5t173.5 -546t-172.5 -545t-415.5 -192.5q-242 0 -415 192.5t-173 545t173 546t414.5 193.5zM757.5 1165q-143.5 0 -218 -132t-74.5 -322.5t74.5 -321.5t218 -131t217.5 131t74 321.5t-74 322.5t-217.5 132z" glyph-name="zero.tnum" horiz-adv-x="1495"/><glyph d="M1059 1434q31 0 31 -31v-1372q0 -31 -31 -31h-246q-31 0 -31 31v1155h-239q-33 0 -33 31v186q0 31 33 31h516z" glyph-name="one.tnum" horiz-adv-x="1495"/><glyph d="M1223 248q31 0 30 -31v-186q0 -31 -30 -31h-852q-31 0 -31 31v217l199 213q61 66 143 147.5t120 121.5t79 89t55 87t14 79q0 84 -57 136.5t-141 52.5q-70 0 -136.5 -38t-111.5 -96q-20 -29 -45 -4l-148 144q-18 18 -2 43q66 98 184.5 162.5t268.5 64.5q207 0 344 -129 t137 -324q0 -66 -18.5 -122t-66.5 -121.5t-87 -109.5t-128 -136t-140 -150l-96 -110h516z" glyph-name="two.tnum" horiz-adv-x="1495"/><glyph d="M1020 754q217 -117 217 -338q0 -190 -136 -316.5t-366 -126.5q-143 0 -267 55.5t-192 155.5q-16 25 3 43l149 142q25 25 45 0q96 -115 242 -115q104 0 161.5 53t57.5 131q0 68 -57.5 121t-194.5 57q-31 0 -31 31v170q0 31 35 31q231 6 232 170q0 68 -56.5 109.5 t-124.5 41.5q-139 0 -221 -110q-18 -27 -45 0l-149 141q-20 20 -3 43q70 94 187 150.5t246 56.5q180 0 308 -112.5t128 -286.5t-168 -297z" glyph-name="three.tnum" horiz-adv-x="1495"/><glyph d="M1249 516q31 0 31 -31v-188q0 -31 -31 -31h-123v-235q0 -31 -30 -31h-246q-31 0 -31 31v235h-571q-31 0 -31 31v199q0 18 10 39l580 878q12 20 37 21h252q31 0 30 -31v-887h123zM819 516v465l-303 -465h303z" glyph-name="four.tnum" horiz-adv-x="1495"/><glyph d="M731 973q203 0 339 -142.5t136 -341.5q0 -236 -145.5 -375t-376.5 -139q-145 0 -257 65.5t-163 158.5q-16 23 8 37l179 122q25 18 45 -2q72 -100 188 -100q98 0 160.5 69.5t62.5 163.5q0 88 -63.5 156t-157.5 68q-100 0 -166 -70q-18 -20 -41 -12l-192 59q-27 8 -21 37 l180 680q6 27 33 27h619q31 0 30 -31v-186q0 -31 -30 -31h-436l-62 -236q2 0 18.5 5.5t48 11.5t64.5 6z" glyph-name="five.tnum" horiz-adv-x="1495"/><glyph d="M838 965q190 -33 314 -166t124 -326q0 -215 -148.5 -357.5t-367.5 -142.5q-217 0 -365.5 142.5t-148.5 357.5q0 211 184 434l451 551q20 25 43 6l170 -145q25 -23 6 -43zM760 258q94 0 156.5 62.5t62.5 152.5q0 96 -63.5 160.5t-155.5 64.5t-154.5 -64.5t-62.5 -160.5 q0 -90 63.5 -152.5t153.5 -62.5z" glyph-name="six.tnum" horiz-adv-x="1495"/><glyph d="M1198 1434q31 0 25 -31l-537 -1372q-10 -31 -35 -31h-239q-14 0 -23.5 9t-3.5 22l457 1155h-539q-31 0 -31 31v186q0 31 31 31h895z" glyph-name="seven.tnum" horiz-adv-x="1495"/><glyph d="M757.5 -27q-200.5 0 -355 125t-154.5 338q0 129 63.5 228.5t171.5 150.5q-141 102 -141 272q0 150 114.5 256.5t301 106.5t301.5 -106.5t115 -256.5q0 -168 -140 -272q106 -51 170 -150.5t64 -228.5q0 -213 -155 -338t-355.5 -125zM757.5 926q61.5 0 102.5 41t43 98 q0 61 -42 102t-103.5 41t-103.5 -41t-40 -102q0 -57 41 -98t102.5 -41zM758 254q88 0 146.5 51t58.5 141.5t-60.5 143.5t-144.5 53q-82 0 -142.5 -53t-60.5 -143.5t57.5 -141.5t145.5 -51z" glyph-name="eight.tnum" horiz-adv-x="1495"/><glyph d="M786 1450q217 0 365.5 -142.5t148.5 -357.5q0 -211 -184 -434l-450 -551q-20 -25 -43 -6l-170 145q-25 23 -7 43l263 312q-190 33 -314.5 166t-124.5 325q0 215 148.5 357.5t367.5 142.5zM786.5 725q92.5 0 155 64.5t62.5 160.5q0 90 -63.5 152.5t-154.5 62.5 q-94 0 -156.5 -62.5t-62.5 -152.5q0 -96 63.5 -160.5t156 -64.5z" glyph-name="nine.tnum" horiz-adv-x="1495"/><glyph d="M297 539q96 0 155.5 -72t59.5 -186v-27q0 -115 -59.5 -186.5t-155.5 -71.5q-92 0 -153.5 71.5t-61.5 186.5v27q0 115 61.5 186.5t153.5 71.5zM297 475q-59 0 -99 -52t-40 -142v-27q0 -90 40 -142.5t99 -52.5q63 0 101 51.5t38 143.5v27q0 92 -38 143t-101 51z" glyph-name="zero.dnom" horiz-adv-x="593"/><glyph d="M213 535v-535h-76v461h-55v74h131z" glyph-name="one.dnom" horiz-adv-x="294"/><glyph d="M254 541q70 0 121 -46t51 -108q0 -53 -29.5 -96t-109.5 -125l-97 -100h242v-66h-344v66l139 141q57 59 74.5 78.5t32 46t14.5 55.5q0 37 -28.5 63.5t-65.5 26.5q-39 0 -67.5 -26.5t-28.5 -75.5v-29h-76v29q0 72 50 119t122 47z" glyph-name="two.dnom" horiz-adv-x="514"/><glyph d="M268 539q66 0 115 -42t49 -98q0 -66 -61 -108q86 -37 86 -135q0 -70 -56.5 -117t-132.5 -47q-84 0 -138 55t-48 131h78q-10 -47 23.5 -84t84.5 -37q45 0 78 28t33 71q0 57 -41 79.5t-111 10.5v65q129 6 129 88q0 31 -25.5 53.5t-62.5 22.5q-45 0 -71.5 -31.5t-22.5 -85.5 h-78q-8 76 43 128.5t129 52.5z" glyph-name="three.dnom" horiz-adv-x="538"/><glyph d="M428 535v-316h55v-63h-55v-156h-76v156h-270l270 379h76zM352 424l-143 -205h143v205z" glyph-name="four.dnom" horiz-adv-x="565"/><glyph d="M412 535v-66h-213l-17 -119q45 20 92 21q72 0 129.5 -54.5t57.5 -134.5t-57.5 -135t-137.5 -55q-68 0 -120 38t-64 89l68 39q4 -41 35.5 -71t80.5 -30q47 0 82 36t35 89q0 51 -34 87t-75 36q-72 0 -116 -59l-66 16l37 273h283z" glyph-name="five.dnom" horiz-adv-x="542"/><glyph d="M387 535l-139 -197h12q70 0 123 -51t53 -121q0 -72 -53 -123t-123 -51t-124 51t-54 123q0 33 11 64.5t20.5 47t37 51.5t33.5 44l117 162h86zM260 272q-45 0 -73.5 -28.5t-28.5 -77.5q0 -47 31.5 -78t70.5 -31q37 0 68.5 31t31.5 78t-30.5 76.5t-69.5 29.5z" glyph-name="six.dnom" horiz-adv-x="518"/><glyph d="M436 535l-209 -535h-80l183 469h-248v66h354z" glyph-name="seven.dnom" horiz-adv-x="518"/><glyph d="M268 539q74 0 118 -41t44 -97q0 -70 -61 -108q88 -43 88 -135q0 -70 -55.5 -116t-133.5 -46q-76 0 -131 46t-55 116q0 92 88 135q-61 39 -61 108q0 53 43.5 95.5t115.5 42.5zM268 475q-41 0 -62.5 -21.5t-21.5 -52t26 -55t58 -24.5q35 0 59.5 23.5t24.5 55.5q0 74 -84 74 zM268 258q-45 0 -77.5 -28.5t-32.5 -71.5q0 -41 32.5 -70t77.5 -29q49 0 80 27t31 72t-31 72.5t-80 27.5z" glyph-name="eight.dnom" horiz-adv-x="538"/><glyph d="M260 541q70 0 124 -50.5t54 -121.5q0 -27 -5 -49.5t-18.5 -46t-21.5 -37t-29.5 -40t-29.5 -36.5l-115 -160h-88l139 195h-10q-72 0 -125 52t-53 122q0 72 54 122t124 50zM260 475q-39 0 -70.5 -30.5t-31.5 -75.5q0 -47 31.5 -78t70.5 -31q45 0 72.5 29.5t27.5 79.5 q0 45 -31.5 75.5t-68.5 30.5z" glyph-name="nine.dnom" horiz-adv-x="520"/><glyph d="M297 1440q96 0 155.5 -72t59.5 -186v-27q0 -115 -59.5 -186.5t-155.5 -71.5q-92 0 -153.5 71.5t-61.5 186.5v27q0 115 61.5 186.5t153.5 71.5zM297 1376q-59 0 -99 -52t-40 -142v-27q0 -90 40 -142t99 -52q63 0 101 51t38 143v27q0 92 -38 143t-101 51z" glyph-name="zero.numr" horiz-adv-x="593"/><glyph d="M213 1436v-535h-76v461h-55v74h131z" glyph-name="one.numr" horiz-adv-x="294"/><glyph d="M254 1442q70 0 121 -46t51 -108q0 -53 -29.5 -96t-109.5 -125l-97 -100h242v-66h-344v66l139 141q57 59 74.5 78.5t32 46.5t14.5 55q0 37 -28.5 63.5t-65.5 26.5q-39 0 -67.5 -26.5t-28.5 -75.5v-29h-76v29q0 72 50 119t122 47z" glyph-name="two.numr" horiz-adv-x="514"/><glyph d="M268 1440q66 0 115 -42t49 -98q0 -66 -61 -108q86 -37 86 -135q0 -70 -56.5 -117t-132.5 -47q-84 0 -138 55.5t-48 130.5h78q-10 -47 23.5 -84t84.5 -37q45 0 78 28t33 71q0 57 -41 79.5t-111 10.5v65q129 6 129 88q0 31 -25.5 53.5t-62.5 22.5q-45 0 -71.5 -31.5 t-22.5 -84.5h-78q-8 76 43 128t129 52z" glyph-name="three.numr" horiz-adv-x="538"/><glyph d="M428 1436v-316h55v-63h-55v-156h-76v156h-270l270 379h76zM352 1325l-143 -205h143v205z" glyph-name="four.numr" horiz-adv-x="565"/><glyph d="M412 1436v-66h-213l-17 -119q45 20 92 21q72 0 129.5 -54.5t57.5 -134t-57.5 -135t-137.5 -55.5q-68 0 -120 38t-64 89l68 39q4 -41 35.5 -71t80.5 -30q47 0 82 36t35 89q0 51 -34 87t-75 36q-72 0 -116 -59l-66 16l37 273h283z" glyph-name="five.numr" horiz-adv-x="542"/><glyph d="M387 1436l-139 -197h12q70 0 123 -51t53 -121q0 -72 -53 -123t-123 -51t-124 51t-54 123q0 33 11 64.5t20.5 47t37 51.5t33.5 44l117 162h86zM260 1174q-45 0 -73.5 -29t-28.5 -78q0 -47 31.5 -78t70.5 -31q37 0 68.5 31t31.5 78t-30.5 77t-69.5 30z" glyph-name="six.numr" horiz-adv-x="518"/><glyph d="M436 1436l-209 -535h-80l183 469h-248v66h354z" glyph-name="seven.numr" horiz-adv-x="518"/><glyph d="M268 1440q74 0 118 -41t44 -96q0 -70 -61 -109q88 -43 88 -135q0 -70 -55.5 -116t-133.5 -46q-76 0 -131 46t-55 116q0 92 88 135q-61 39 -61 109q0 53 43.5 95t115.5 42zM268 1376q-41 0 -62.5 -21.5t-21.5 -52t26 -55t58 -24.5q35 0 59.5 23.5t24.5 56.5q0 73 -84 73z M268 1159q-45 0 -77.5 -28.5t-32.5 -71.5q0 -41 32.5 -69.5t77.5 -28.5q49 0 80 26.5t31 71.5t-31 72.5t-80 27.5z" glyph-name="eight.numr" horiz-adv-x="538"/><glyph d="M260 1442q70 0 124 -50.5t54 -121.5q0 -27 -5 -49.5t-18.5 -46t-21.5 -37t-29.5 -40t-29.5 -36.5l-115 -160h-88l139 195h-10q-72 0 -125 52t-53 122q0 72 54 122t124 50zM260 1376q-39 0 -70.5 -30.5t-31.5 -75.5q0 -47 31.5 -78t70.5 -31q45 0 72.5 30t27.5 79 q0 45 -31.5 75.5t-68.5 30.5z" glyph-name="nine.numr" horiz-adv-x="520"/><glyph d="M631 1542q-41 0 -25 35l123 258q10 25 35 25h221q41 0 25 -35l-123 -258q-10 -25 -35 -25h-221zM1372 35q14 -35 -24 -35h-267q-27 0 -34 25l-72 221h-506l-72 -221q-8 -25 -35 -25h-266q-39 0 -24 35l495 1374q10 25 35 25h236q31 0 39 -25zM555 502h336l-168 514z" glyph-name="glyph499" horiz-adv-x="1443"/><glyph d="M817 1860q41 0 25 -35l-123 -258q-10 -25 -35 -25h-221q-41 0 -25 35l123 258q10 25 35 25h221zM942 281q31 0 31 -31v-219q0 -31 -31 -31h-770q-31 0 -31 31v1372q0 31 31 31h768q31 0 31 -31v-219q0 -31 -31 -31h-481v-281h452q31 0 31 -30v-219q0 -31 -31 -31h-452 v-311h483z" glyph-name="glyph500" horiz-adv-x="1105"/><glyph d="M618 1542q-41 0 -24 35l123 258q10 25 35 25h221q41 0 24 -35l-123 -258q-10 -25 -34 -25h-222zM1270 1434q31 0 30 -31v-1372q0 -31 -30 -31h-256q-31 0 -31 31v893l-504 -904q-12 -20 -37 -20h-290q-31 0 -31 31v1372q0 31 31 31h256q31 0 30 -31v-895l506 905 q12 20 37 21h289z" glyph-name="glyph501" horiz-adv-x="1441"/><glyph d="M1090 1860q41 0 24 -35l-123 -258q-10 -25 -35 -25h-221q-41 0 -24 35l123 258q10 25 34 25h222zM838 -27q-305 0 -521.5 215t-216.5 522.5t216 523.5t522 216q307 0 523 -216t216 -523.5t-216 -522.5t-523 -215zM838 285q176 0 295.5 122.5t119.5 303.5 q0 182 -119.5 305t-295.5 123t-295 -123t-119 -305q0 -180 120 -303t294 -123z" glyph-name="glyph502" horiz-adv-x="1677"/><glyph d="M637 1542q-41 0 -25 35l123 258q10 25 35 25h221q41 0 25 -35l-123 -258q-10 -25 -35 -25h-221zM1374 1434q18 0 24.5 -10.5t-3.5 -26.5l-832 -1377q-12 -20 -37 -20h-272q-41 0 -21 37l336 557l-483 803q-10 16 -4 26.5t24 10.5h271q25 0 37 -21l325 -539l326 539 q12 20 37 21h272z" glyph-name="glyph503" horiz-adv-x="1478"/><glyph d="M1165 1860q41 0 25 -35l-123 -258q-10 -25 -35 -25h-221q-41 0 -25 35l123 258q10 25 35 25h221zM608 0h-436q-31 0 -31 31v1372q0 31 31 31h256q31 0 31 -31v-453h149q252 0 392.5 -130t140.5 -345t-140.5 -345t-392.5 -130zM1386 1403q0 31 31 31h256q31 0 31 -31 v-1372q0 -31 -31 -31h-256q-31 0 -31 31v1372zM602 670h-143v-389h143q98 0 167 45t69 149.5t-69 149.5t-167 45z" glyph-name="glyph504" horiz-adv-x="1824"/><glyph d="M612 1542q-41 0 -24 35l123 258q10 25 34 25h222q41 0 24 -35l-123 -258q-10 -25 -34 -25h-222zM596 1450q309 0 525 -215t216 -524.5t-216 -523.5t-525 -214q-305 0 -506 211q-20 20 0 43l158 170q18 23 43 2q135 -115 307 -114q139 0 245.5 80.5t147.5 212.5h-436 q-31 0 -31 30v219q0 31 31 31h430q-41 125 -146.5 203t-240.5 78q-172 0 -307 -115q-25 -20 -43 2l-158 172q-18 23 0 43q203 209 506 209z" glyph-name="glyph505" horiz-adv-x="1427"/><glyph d="M954 1542q-41 0 -24 35l123 258q10 25 34 25h222q41 0 24 -35l-123 -258q-10 -25 -34 -25h-222zM1296 1450q307 0 523.5 -216t216.5 -523.5t-216 -522.5t-524 -215q-268 0 -473 172t-252 433h-112v-547q0 -31 -31 -31h-256q-31 0 -31 31v1372q0 31 31 31h256q31 0 31 -31 v-545h114q51 256 254 424t469 168zM1296 285q176 0 296 122.5t120 303.5q0 182 -119.5 305t-296 123t-295 -123t-118.5 -305q0 -180 119.5 -303t293.5 -123z" glyph-name="glyph506" horiz-adv-x="2113"/><glyph d="M573 1542q-41 0 -24 35l123 258q10 25 35 25h221q41 0 24 -35l-123 -258q-10 -25 -34 -25h-222zM1104 1434q31 0 31 -31v-1372q0 -31 -31 -31h-256q-31 0 -31 31v452h-84l-297 -463q-12 -20 -37 -20h-272q-43 0 -21 37l320 487q-141 51 -216 165t-75 269 q0 215 140.5 345.5t392.5 130.5h436zM674 1153q-98 0 -167 -45t-69 -149.5t68.5 -149.5t167.5 -45h143v389h-143z" glyph-name="glyph507" horiz-adv-x="1275"/><glyph d="M510 1112q-41 0 -25 35l123 258q10 25 35 25h221q41 0 25 -35l-123 -258q-10 -25 -35 -25h-221zM1114 1004q31 0 31 -31v-942q0 -31 -31 -31h-209q-27 0 -31 31l-12 86q-106 -131 -287 -131q-209 0 -347 148.5t-138 365.5q0 221 138.5 372.5t346.5 151.5q176 0 289 -143 l10 92q4 31 31 31h209zM612 266q100 0 163 65.5t63 170.5q0 102 -62.5 171.5t-163.5 69.5q-98 0 -162.5 -67.5t-64.5 -173.5q0 -104 64.5 -170t162.5 -66z" glyph-name="glyph508"/><glyph d="M508 1174q-41 0 -25 34l123 258q10 25 35 25h221q41 0 25 -35l-123 -258q-10 -25 -35 -24h-221zM1077 524q0 -68 -14 -97.5t-59 -29.5h-609q47 -166 258 -166q100 0 195 60q25 16 45 -4l106 -103q18 -23 -4 -45q-154 -154 -372 -153q-233 0 -383 150.5t-150 369.5 t145.5 368.5t364.5 149.5q213 0 345 -145.5t132 -354.5zM602 764q-80 0 -137 -44t-74 -128h414q-14 84 -69.5 128t-133.5 44z" glyph-name="glyph509" horiz-adv-x="1167"/><glyph d="M545 1112q-41 0 -25 35l123 258q10 25 35 25h221q41 0 25 -35l-123 -258q-10 -25 -35 -25h-221zM1092 1004q31 0 30 -31v-942q0 -31 -30 -31h-246q-31 0 -31 31v561l-385 -572q-14 -20 -39 -20h-252q-29 0 -28 31v942q0 31 30 31h246q31 0 31 -31v-559l383 569 q14 20 39 21h252z" glyph-name="glyph510" horiz-adv-x="1230"/><glyph d="M864 1430q41 0 25 -35l-123 -258q-10 -25 -35 -25h-221q-41 0 -25 35l123 258q10 25 35 25h221zM612 -20q-217 0 -369.5 152.5t-152.5 369.5q0 219 152.5 371.5t369.5 152.5q219 0 372 -152.5t153 -371.5q0 -217 -153 -369.5t-372 -152.5zM612 264q96 0 162 67.5 t66 170.5q0 104 -65.5 171.5t-162.5 67.5q-94 0 -160.5 -68.5t-66.5 -171t66.5 -170t160.5 -67.5z" glyph-name="glyph511" horiz-adv-x="1226"/><glyph d="M860 1430q41 0 25 -35l-123 -258q-10 -25 -35 -25h-221q-41 0 -25 35l123 258q10 25 35 25h221zM1122 1004q37 0 25 -35l-531 -1334q-10 -25 -36 -24h-240q-43 0 -25 35l146 352l-387 971q-12 35 24 35h248q27 0 37 -25l225 -619l226 619q10 25 36 25h252z" glyph-name="glyph512" horiz-adv-x="1200"/><glyph d="M1083 1430q41 0 25 -35l-123 -258q-10 -25 -35 -25h-221q-41 0 -24 35l122 258q10 25 35 25h221zM643 668q442 0 442 -334t-442 -334h-502q-31 0 -30 31v942q0 31 30 31h246q31 0 31 -31v-305h225zM1522 1004q31 0 30 -31v-942q0 -31 -30 -31h-246q-31 0 -31 31v942 q0 31 31 31h246zM647 223q74 0 109 24.5t35 86t-35 86t-109 24.5h-229v-221h229z" glyph-name="glyph513" horiz-adv-x="1660"/><glyph d="M432 1112q-41 0 -24 35l122 258q10 25 35 25h221q41 0 25 -35l-123 -258q-10 -25 -35 -25h-221zM471 1024q215 0 364.5 -150.5t149.5 -365.5q0 -219 -148.5 -370.5t-365.5 -151.5q-238 0 -393 178q-18 23 2 43l147 141q20 20 45 0q90 -78 191 -78q137 0 199 119h-248 q-31 0 -31 31v160q0 31 31 30h254q-27 59 -81.5 94t-123.5 35q-96 0 -184 -77q-25 -23 -46 -3l-147 144q-20 20 -2 43q156 178 387 178z" glyph-name="glyph514" horiz-adv-x="1064"/><glyph d="M737 1112q-41 0 -24 35l123 258q10 25 34 25h222q41 0 24 -35l-123 -258q-10 -25 -35 -25h-221zM1083 1026q219 0 372 -152.5t153 -371.5q0 -217 -152.5 -369.5t-372.5 -152.5q-182 0 -323.5 110.5t-184.5 284.5h-157v-346q0 -31 -31 -31h-246q-31 0 -30 31v942 q0 31 30 30h246q31 0 31 -30v-346h157q41 176 182.5 288.5t325.5 112.5zM1083 264q96 0 162 67.5t66 170.5q0 104 -65.5 171.5t-162.5 67.5q-94 0 -160.5 -68.5t-66.5 -171t66.5 -170t160.5 -67.5z" glyph-name="glyph515" horiz-adv-x="1677"/><glyph d="M502 1112q-41 0 -25 35l123 258q10 25 35 25h221q41 0 25 -35l-123 -258q-10 -25 -35 -25h-221zM1069 1004q31 0 31 -31v-942q0 -31 -31 -31h-246q-31 0 -30 31v305h-105l-287 -320q-14 -16 -36 -16h-252q-20 0 -25.5 11.5t8.5 25.5l285 309q-301 47 -301 324 q0 334 442 334h547zM518 780q-143 0 -143 -110.5t143 -110.5h275v221h-275z" glyph-name="glyph516" horiz-adv-x="1210"/></font>
</defs>
</svg>
