<?xml version="1.0" standalone="no"?>
<!DOCTYPE svg PUBLIC "-//W3C//DTD SVG 1.1//EN" "http://www.w3.org/Graphics/SVG/1.1/DTD/svg11.dtd">
<svg xmlns="http://www.w3.org/2000/svg"><metadata>This SVG WebFont was generated by YouWorkForThem.
Â© 2016 Connary Fagen</metadata><defs><font horiz-adv-x="1271" id="ywftsvg"><font-face ascent="1638" bbox="-389 -739 2324.03 1968" cap-height="1434" descent="-410" font-family="" font-stretch="normal" font-weight="900" panose-1="0 0 10 0 0 0 0 0 0 0" underline-position="0" underline-thickness="0" unicode-range="U+0020-FB02" units-per-em="2048" x-height="1004"/><missing-glyph d="M831 1638v-2027h-643v2027h643zM676 1503h-336v-67h133v-76h-135v-66h338v66h-135v76h135v67zM541 1241h-203v-211h338v70h-135v141zM473 1171v-71h-67v71h67zM676 975h-338v-66h135v-75h-135v-68h203v143h135v66zM676 854h-68v-133h-270v-70h338v203zM676 606h-203v-112 h68v45h67v-95h-202v162h-68v-229h338v229zM676 256h-338v-229h338v229zM608 188v-94h-202v94h202zM676 -20h-338v-66h143l-143 -96v-68h338v68h-207l141 96h66v66z" horiz-adv-x="1013"/><glyph d="M1128 1167q-76 0 -127 52.5t-51 126t51.5 126t126.5 52.5q74 0 125.5 -52.5t51.5 -126t-51.5 -126t-125.5 -52.5zM791 1473q20 -12 20 -37v-244q0 -18 -10 -24.5t-27 3.5q-55 33 -121 33q-45 0 -67.5 -17.5t-26.5 -38t-4 -58.5v-86h213q31 0 31 -31v-211q0 -31 -31 -31 h-213v-700q0 -31 -31 -31h-276q-31 0 -31 31v700h-119q-31 0 -30 31v211q0 31 30 31h119v133q0 184 105.5 277t281.5 93q126 1 187 -34zM1266 1004q31 0 30 -31v-942q0 -31 -30 -31h-277q-31 0 -31 31v942q0 31 31 31h277z" glyph-name="uniFB01" horiz-adv-x="1390" unicode="fi"/><glyph d="M791 1473q20 -12 20 -37v-244q0 -18 -10 -24.5t-27 3.5q-55 33 -121 33q-45 0 -67.5 -17.5t-26.5 -38t-4 -58.5v-86h213q31 0 31 -31v-211q0 -31 -31 -31h-213v-700q0 -31 -31 -31h-276q-31 0 -31 31v700h-119q-31 0 -30 31v211q0 31 30 31h119v133q0 184 105.5 277 t281.5 93q126 1 187 -34zM1268 1495q31 0 30 -31v-1433q0 -31 -30 -31h-277q-31 0 -30 31v1433q0 31 30 31h277z" glyph-name="uniFB02" horiz-adv-x="1394" unicode="fl"/><glyph d="M831 1638v-2027h-643v2027h643zM676 1503h-336v-67h133v-76h-135v-66h338v66h-135v76h135v67zM541 1241h-203v-211h338v70h-135v141zM473 1171v-71h-67v71h67zM676 975h-338v-66h135v-75h-135v-68h203v143h135v66zM676 854h-68v-133h-270v-70h338v203zM676 606h-203v-112 h68v45h67v-95h-202v162h-68v-229h338v229zM676 256h-338v-229h338v229zM608 188v-94h-202v94h202zM676 -20h-338v-66h143l-143 -96v-68h338v68h-207l141 96h66v66z" glyph-name=".notdef" horiz-adv-x="1013"/><glyph glyph-name="glyph1" horiz-adv-x="0"/><glyph glyph-name="glyph2" horiz-adv-x="681"/><glyph glyph-name="space" horiz-adv-x="573" unicode=" "/><glyph d="M526 1239l-84 -760q-6 -29 -30 -28h-125q-25 0 -31 28l-86 760q-10 96 42 153.5t136 57.5t136 -58.5t42 -152.5zM348 -27q-74 0 -126 52.5t-52 126t52 126t126 52.5t126 -52.5t52 -126t-52 -126t-126 -52.5z" glyph-name="exclam" horiz-adv-x="694" unicode="!"/><glyph d="M346 1434q14 0 23.5 -9.5t7.5 -21.5l-27 -404q-6 -31 -31 -30h-180q-27 0 -30 30l-29 404q-2 14 7 22.5t24 8.5h235zM723 1434q14 0 23.5 -9.5t7.5 -21.5l-27 -404q-6 -31 -31 -30h-180q-27 0 -31 30l-28 404q-2 14 7 22.5t23 8.5h236z" glyph-name="quotedbl" horiz-adv-x="829" unicode="&quot;"/><glyph d="M1214 928h-127v-256h127q29 0 29 -31v-180q0 -31 -29 -31h-127v-235q0 -31 -30 -31h-250q-31 0 -31 31v235h-174v-235q0 -31 -31 -31h-247q-31 0 -31 31v235h-129q-31 0 -31 31v180q0 31 31 31h129v256h-129q-31 0 -31 30v181q0 31 31 30h129v234q0 31 31 31h247 q31 0 31 -31v-234h174v234q0 31 31 31h250q31 0 30 -31v-234h127q29 0 29 -30v-181q0 -30 -29 -30zM776 672v256h-174v-256h174z" glyph-name="numbersign" horiz-adv-x="1376" unicode="#"/><glyph d="M1114 418q0 -178 -113.5 -289t-281.5 -143v-140q0 -31 -31 -30h-194q-31 0 -31 30v144q-117 25 -214 84t-153 129q-16 20 0 43l158 178q20 25 47 4q152 -123 309 -123q68 0 115 30t47 87q0 53 -65.5 92t-158.5 73t-186.5 80t-159 138t-65.5 223q0 156 92.5 261.5 t233.5 142.5v155q0 31 31 31h194q31 0 31 -31v-147q178 -29 340 -178q18 -18 4 -43l-150 -187q-18 -25 -43 -8q-82 53 -136 74.5t-118 21.5q-68 0 -102.5 -29.5t-34.5 -70.5q0 -53 65.5 -90t159 -66.5t186.5 -72.5t158.5 -138.5t65.5 -234.5z" glyph-name="dollar" horiz-adv-x="1179" unicode="$"/><glyph d="M381 1444q119 0 200 -80t81 -196.5t-81 -197.5t-200 -81t-199 81t-80 197.5t80 196.5t199 80zM1087 1421l187 -114l-868 -1293l-187 115zM381 1233q-25 0 -44.5 -18.5t-19.5 -47.5q0 -27 19.5 -46t44.5 -19q29 0 47 18.5t18 47t-18 47t-47 18.5zM1110 545q119 0 199 -81 t80 -197.5t-80 -196.5t-199 -80q-117 0 -199 80t-82 196.5t82 197.5t199 81zM1110 334q-27 0 -46.5 -20.5t-19.5 -47t19.5 -45t46.5 -18.5t45.5 18.5t18.5 44.5q0 29 -18.5 48.5t-45.5 19.5z" glyph-name="percent" horiz-adv-x="1490" unicode="%"/><glyph d="M1372 178q25 -23 2 -45l-143 -143q-25 -25 -45 -4l-168 157q-203 -162 -428 -161q-193 0 -342.5 115.5t-149.5 310.5q0 215 240 372q-147 152 -148 299q0 152 119 261.5t293 109.5q166 0 289 -110.5t123 -260.5q0 -207 -221 -362l219 -203q41 51 151 215q18 29 43 10 l174 -125q20 -14 4 -45q-90 -139 -174 -239zM492 1071q0 -66 86 -151q135 82 135 151q0 39 -32 69.5t-79 30.5q-49 0 -79.5 -30.5t-30.5 -69.5zM631 287q94 0 182 49l-252 237q-121 -82 -121 -155q0 -47 48.5 -89t142.5 -42z" glyph-name="ampersand" horiz-adv-x="1443" unicode="&amp;"/><glyph d="M346 1434q14 0 23.5 -9.5t7.5 -21.5l-27 -404q-6 -31 -31 -30h-180q-27 0 -30 30l-29 404q-2 14 7 22.5t24 8.5h235z" glyph-name="quotesingle" horiz-adv-x="454" unicode="'"/><glyph d="M653 1526q16 0 22.5 -10.5t-1.5 -26.5q-201 -360 -201 -834q0 -489 203 -884q16 -37 -23 -37h-270q-25 0 -37 20q-223 401 -223 901q0 487 223 850q12 20 37 21h270z" glyph-name="parenleft" horiz-adv-x="802" unicode="("/><glyph d="M150 1526h270q25 0 37 -21q223 -362 223 -850q0 -500 -223 -901q-12 -20 -37 -20h-270q-39 0 -23 37q203 395 203 884q0 473 -201 834q-8 16 -1.5 26.5t22.5 10.5z" glyph-name="parenright" horiz-adv-x="802" unicode=")"/><glyph d="M944 1118l-194 -53l137 -180l-205 -125l-121 172l-123 -172l-205 125l138 180l-197 53l57 236l218 -64l-7 230h230l-2 -230l219 64z" glyph-name="asterisk" horiz-adv-x="1118" unicode="*"/><glyph d="M874 707q31 0 31 -31v-180q0 -31 -31 -31h-235v-234q0 -31 -31 -30h-180q-31 0 -31 30v234h-233q-31 0 -31 31v180q0 31 31 31h233v233q0 31 31 31h180q31 0 31 -31v-233h235z" glyph-name="plus" horiz-adv-x="1038" unicode="+"/><glyph d="M279 330q78 0 128 -57.5t50 -155.5q0 -225 -224 -449l-79 47q78 117 90 256q-63 12 -107.5 62.5t-44.5 116.5q0 74 55.5 127t131.5 53z" glyph-name="comma" horiz-adv-x="548" unicode=","/><glyph d="M764 698q31 0 31 -30v-211q0 -31 -31 -31h-621q-31 0 -30 31v211q0 31 30 30h621z" glyph-name="hyphen" horiz-adv-x="845" unicode="-"/><glyph d="M270.5 -27q-73.5 0 -126 52.5t-52.5 126t52.5 126t126 52.5t126 -52.5t52.5 -126t-52.5 -126t-126 -52.5z" glyph-name="period" horiz-adv-x="540" unicode="."/><glyph d="M1049 1526q37 0 24 -35l-672 -1733q-8 -25 -36 -24h-295q-37 0 -25 35l672 1732q8 25 37 25h295z" glyph-name="slash" horiz-adv-x="1118" unicode="/"/><glyph d="M686 1450q242 0 420 -193.5t178 -545.5q0 -180 -52 -325.5t-138 -232.5t-190.5 -133.5t-217.5 -46.5q-240 0 -419 192.5t-179 545t179 546t419 193.5zM686 1137q-92 0 -156.5 -66.5t-90 -159t-25.5 -201t25.5 -199.5t90 -156.5t156.5 -65.5t156.5 65.5t90 156.5 t25.5 199.5t-25.5 201t-90 159t-156.5 66.5z" glyph-name="zero" horiz-adv-x="1370" unicode="0"/><glyph d="M686 1434q31 0 31 -31v-1372q0 -31 -31 -31h-276q-31 0 -31 31v1132h-244q-33 0 -33 31v209q0 31 33 31h551z" glyph-name="one" horiz-adv-x="849" unicode="1"/><glyph d="M1018 272q31 0 31 -30v-211q0 -31 -31 -31h-864q-31 0 -31 31v241l172 185q66 70 146.5 149.5t120.5 120.5t81 88t56.5 84t15.5 78q0 76 -54.5 123t-125.5 47q-63 0 -128 -37t-108 -94q-18 -29 -45 -2l-166 162q-18 18 -2 43q66 98 186.5 164.5t274.5 66.5 q207 0 349 -131t142 -328q0 -66 -19.5 -124t-68.5 -123.5t-92 -112.5t-130 -137.5t-144 -151.5l-60 -70h494z" glyph-name="two" horiz-adv-x="1134" unicode="2"/><glyph d="M856 750q209 -115 209 -330q0 -190 -137 -318.5t-371 -128.5q-143 0 -271 57.5t-196 159.5q-14 27 2 43l168 160q27 27 45 0q96 -111 227 -110q98 0 148.5 47t50.5 116q0 23 -8 44.5t-29.5 48t-71 43t-118.5 18.5q-31 0 -31 31v192q0 29 33 29q217 6 217 154 q0 61 -52.5 98t-111.5 37q-131 0 -209 -107q-20 -25 -45 0l-170 162q-18 18 -2 43q68 96 188.5 153.5t251.5 57.5q186 0 315.5 -113.5t129.5 -292.5q0 -165 -162 -294z" glyph-name="three" horiz-adv-x="1157" unicode="3"/><glyph d="M1137 522q31 0 30 -30v-209q0 -31 -30 -31h-119v-221q0 -31 -31 -31h-276q-31 0 -31 31v221h-567q-31 0 -31 31v219q0 20 10 39l576 872q8 20 37 21h282q31 0 31 -31v-881h119zM680 522v418l-272 -418h272z" glyph-name="four" horiz-adv-x="1259" unicode="4"/><glyph d="M571 979q207 0 342.5 -143.5t135.5 -341.5q0 -238 -145.5 -378.5t-381.5 -140.5q-150 0 -263.5 69t-162.5 161q-14 23 8 37l201 139q25 18 45 -4q66 -92 170 -92q90 0 145.5 63.5t55.5 145.5q0 76 -55.5 138t-145.5 62q-82 0 -141 -55q-20 -20 -41 -14l-217 65 q-27 6 -21 35l179 682q6 27 32 27h633q31 0 31 -31v-211q0 -31 -31 -31h-428l-51 -194h14q49 12 92 12z" glyph-name="five" horiz-adv-x="1136" unicode="5"/><glyph d="M713 971q184 -41 302 -171t118 -321q0 -219 -152 -362.5t-373 -143.5q-223 0 -374.5 143.5t-151.5 362.5t194 455l443 524q20 25 43 6l192 -164q23 -23 7 -43zM608 289q84 0 141.5 55t57.5 135q0 88 -57.5 147.5t-141.5 59.5t-142 -59.5t-58 -147.5q0 -80 58 -135 t142 -55z" glyph-name="six" horiz-adv-x="1214" unicode="6"/><glyph d="M1016 1434q14 0 21 -8.5t3 -22.5l-530 -1372q-6 -31 -33 -31h-270q-14 0 -24.5 9t-4.5 22l447 1132h-516q-31 0 -31 31v209q0 31 31 31h907z" glyph-name="seven" horiz-adv-x="1103" unicode="7"/><glyph d="M612 -27q-201 0 -360.5 127t-159.5 344q0 127 60.5 224.5t164.5 152.5q-127 102 -127 264q0 152 115 258.5t307.5 106.5t308 -106.5t115.5 -258.5q0 -164 -129 -264q225 -117 226 -377q0 -217 -159 -344t-362 -127zM612 938q55 0 90 36t35 85q2 53 -35.5 89t-89 36 t-88.5 -36t-37 -89q2 -49 37 -85t88 -36zM612.5 283q77.5 0 130 46t52.5 126q0 82 -54.5 129t-128 47t-128 -47t-54.5 -129t52.5 -127t130 -45z" glyph-name="eight" horiz-adv-x="1224" unicode="8"/><glyph d="M575 1450q223 0 375 -143.5t152 -362.5t-195 -455l-442 -524q-20 -25 -43 -6l-193 164q-23 23 -6 43l248 287q-184 41 -302 171t-118 320q0 219 151.5 362.5t372.5 143.5zM575.5 737q83.5 0 142 59.5t58.5 147.5q0 80 -58.5 135.5t-142 55.5t-141 -55.5t-57.5 -135.5 q0 -88 57.5 -147.5t141 -59.5z" glyph-name="nine" horiz-adv-x="1183" unicode="9"/><glyph d="M270.5 657q-73.5 0 -126 52.5t-52.5 126t52.5 126t126 52.5t126 -52.5t52.5 -126t-52.5 -126t-126 -52.5zM270.5 -27q-73.5 0 -126 52.5t-52.5 126t52.5 126t126 52.5t126 -52.5t52.5 -126t-52.5 -126t-126 -52.5z" glyph-name="colon" horiz-adv-x="540" unicode=":"/><glyph d="M272.5 657q-73.5 0 -126 52.5t-52.5 126t52.5 126t126 52.5t126 -52.5t52.5 -126t-52.5 -126t-126 -52.5zM279 330q78 0 128 -57.5t50 -155.5q0 -225 -224 -449l-79 47q78 117 90 256q-63 12 -107.5 62.5t-44.5 116.5q0 74 55.5 127t131.5 53z" glyph-name="semicolon" horiz-adv-x="542" unicode=";"/><glyph d="M899 985q14 8 25.5 1t11.5 -23v-222q0 -27 -23 -32l-481 -199l481 -197q23 -10 23 -34v-222q0 -16 -11.5 -23t-25.5 1l-754 360q-23 12 -22 35v160q0 23 22 35z" glyph-name="less" horiz-adv-x="1038" unicode="&lt;"/><glyph d="M915 885q31 0 31 -31v-180q0 -31 -31 -31h-751q-31 0 -31 31v180q0 31 31 31h751zM915 526q31 0 31 -30v-181q0 -31 -31 -30h-751q-31 0 -31 30v181q0 31 31 30h751z" glyph-name="equal" horiz-adv-x="1079" unicode="="/><glyph d="M180 985l754 -360q23 -12 22 -35v-160q0 -23 -22 -35l-754 -360q-16 -8 -26.5 -1t-10.5 23v222q0 25 23 34l481 197l-481 199q-23 6 -23 32v222q0 16 10.5 23t26.5 -1z" glyph-name="greater" horiz-adv-x="1079" unicode=">"/><glyph d="M567 1450q186 0 331.5 -112.5t145.5 -286.5q0 -139 -73.5 -230.5t-268.5 -193.5l-16 -144q-6 -31 -31 -30h-215q-27 0 -32 30l-21 285q-6 25 27 35q160 47 215 93t55 99.5t-47 84t-100 30.5q-117 0 -248 -115q-37 -33 -64 0l-139 170q-25 33 -2 62q182 223 483 223z M547 330q74 0 126 -52.5t52 -126t-52 -126t-126 -52.5t-126 52.5t-52 126t52 126t126 52.5z" glyph-name="question" horiz-adv-x="1136" unicode="?"/><glyph d="M1171 1024l-32 -348q-10 -102 61 -103q94 0 94 187q0 188 -132 316t-316 128q-209 0 -351.5 -139t-142.5 -358q0 -205 139.5 -340.5t337.5 -135.5q129 0 236 64l213 -135q-70 -76 -188.5 -126t-243.5 -50q-197 0 -368 85t-280.5 252.5t-109.5 385.5q0 225 109.5 398 t279.5 259t369 86q295 0 504 -193.5t209 -498.5q0 -188 -106.5 -303t-272.5 -115q-117 0 -187 57q-63 -43 -162 -43q-154 0 -254 102.5t-100 254t100.5 255t253.5 103.5q113 0 191 -63l20 18h129zM700 710.5q0 -57.5 38 -95t93 -37.5q57 0 93.5 36.5t36.5 96t-36 97.5 t-94 38q-55 0 -93 -39t-38 -96.5z" glyph-name="at" horiz-adv-x="1644" unicode="@"/><glyph d="M1395 35q14 -35 -25 -35h-301q-27 0 -35 25l-63 200h-477l-64 -200q-8 -25 -35 -25h-301q-39 0 -24 35l493 1374q10 25 35 25h262q31 0 39 -25zM584 508h295l-148 463z" glyph-name="A" horiz-adv-x="1462" unicode="A"/><glyph d="M950 764q111 -31 195 -125t84 -227q0 -412 -541 -412h-518q-31 0 -31 31v1372q0 31 31 31h516q201 0 315.5 -105.5t114.5 -269.5q0 -106 -49 -185t-117 -110zM793 1012q0 115 -140 114h-164v-237h164q140 0 140 123zM702 307q82 0 130.5 39t48.5 113q0 143 -179 143h-213 v-295h213z" glyph-name="B" horiz-adv-x="1304" unicode="B"/><glyph d="M1176 422l178 -193q16 -25 0 -43q-201 -213 -510 -213t-527.5 215t-218.5 523q0 311 218.5 525t527.5 214q313 0 510 -213q18 -18 0 -43l-178 -193q-16 -25 -43 -2q-125 109 -293 109q-162 0 -271.5 -113.5t-109.5 -283.5q0 -168 109.5 -281t271.5 -113q172 0 293 109 q25 21 43 -4z" glyph-name="C" horiz-adv-x="1449" unicode="C"/><glyph d="M621 1434q354 0 552.5 -203t198.5 -514q0 -309 -199.5 -513t-551.5 -204h-451q-31 0 -31 31v1372q0 31 31 31h451zM621 307q197 0 297 105.5t100 304t-100.5 304t-296.5 105.5h-132v-819h132z" glyph-name="D" horiz-adv-x="1460" unicode="D"/><glyph d="M952 307q31 0 31 -31v-245q0 -31 -31 -31h-782q-31 0 -31 31v1372q0 31 31 31h780q31 0 31 -31v-246q0 -31 -31 -31h-461v-245h433q31 0 30 -31v-246q0 -31 -30 -31h-433v-266h463z" glyph-name="E" horiz-adv-x="1116" unicode="E"/><glyph d="M932 1434q31 0 31 -31v-246q0 -31 -31 -31h-443v-245h416q31 0 31 -31v-246q0 -31 -31 -31h-416v-542q0 -31 -30 -31h-289q-31 0 -31 31v1372q0 31 31 31h762z" glyph-name="F" horiz-adv-x="1085" unicode="F"/><glyph d="M1479 836q31 0 30 -31v-152q0 -289 -179 -484.5t-476 -195.5q-315 0 -535.5 217.5t-220.5 526.5q0 307 218.5 520t527.5 213q313 0 510 -213q18 -18 0 -43l-178 -193q-16 -25 -43 -2q-125 109 -293 109q-162 0 -271.5 -112.5t-109.5 -278.5q0 -172 107.5 -286t285.5 -114 q145 0 229 68t90 164h-315q-31 0 -31 31v225q0 31 31 31h623z" glyph-name="G" horiz-adv-x="1597" unicode="G"/><glyph d="M1274 1434q31 0 31 -31v-1372q0 -31 -31 -31h-289q-31 0 -31 31v516h-465v-516q0 -31 -30 -31h-289q-31 0 -31 31v1372q0 31 31 31h289q31 0 30 -31v-549h465v549q0 31 31 31h289z" glyph-name="H" horiz-adv-x="1441" unicode="H"/><glyph d="M139 1403q0 31 31 31h289q31 0 30 -31v-1372q0 -31 -30 -31h-289q-31 0 -31 31v1372z" glyph-name="I" horiz-adv-x="626" unicode="I"/><glyph d="M250 385q12 20 45 4q6 -2 24.5 -14.5t32 -19.5t36 -15t47 -13t52.5 -5q190 0 191 241v840q0 31 31 31h288q31 0 31 -31v-852q0 -291 -142.5 -430t-387.5 -139q-262 0 -396 155q-16 18 2 43z" glyph-name="J" horiz-adv-x="1165" unicode="J"/><glyph d="M1358 37q10 -16 5 -26.5t-24 -10.5h-340q-25 0 -36 18l-373 527l-101 -117v-397q0 -31 -30 -31h-289q-31 0 -31 31v1372q0 31 31 31h289q31 0 30 -31v-510l422 524q14 16 37 17h357q20 0 24 -11.5t-8 -25.5l-498 -580z" glyph-name="K" horiz-adv-x="1431" unicode="K"/><glyph d="M911 307q31 0 31 -31v-245q0 -31 -31 -31h-741q-31 0 -31 31v1372q0 31 31 31h289q31 0 30 -31v-1096h422z" glyph-name="L" horiz-adv-x="1040" unicode="L"/><glyph d="M1667 1434q31 0 31 -31v-1372q0 -31 -31 -31h-289q-31 0 -30 31v741l-25 -94l-242 -651q-10 -27 -39 -27h-249q-27 0 -37 27l-242 651l-25 94v-741q0 -31 -30 -31h-289q-31 0 -31 31v1372q0 31 31 31h311q29 0 37 -21l400 -1007l397 1007q8 20 37 21h315z" glyph-name="M" horiz-adv-x="1835" unicode="M"/><glyph d="M1313 1434q31 0 30 -31v-1372q0 -31 -30 -31h-322q-25 0 -37 20l-465 840v-829q0 -31 -30 -31h-289q-31 0 -31 31v1372q0 31 31 31h322q25 0 36 -21l465 -842v832q0 31 31 31h289z" glyph-name="N" horiz-adv-x="1480" unicode="N"/><glyph d="M837.5 -27q-305.5 0 -522.5 215t-217 522.5t217 523.5t522.5 216t522.5 -216t217 -523.5t-217 -522.5t-522.5 -215zM837.5 317q163.5 0 273.5 113t110 281t-110 282.5t-273.5 114.5t-273 -114.5t-109.5 -282.5t109.5 -281t273 -113z" glyph-name="O" horiz-adv-x="1675" unicode="O"/><glyph d="M616 1434q258 0 400.5 -131.5t142.5 -350.5t-142.5 -350t-400.5 -131h-127v-440q0 -31 -30 -31h-289q-31 0 -31 31v1372q0 31 31 31h446zM610 778q88 0 151.5 40t63.5 134.5t-62.5 134t-152.5 39.5h-121v-348h121z" glyph-name="P" horiz-adv-x="1236" unicode="P"/><glyph d="M1460 313l105 -104q20 -20 0 -43l-197 -197q-20 -20 -41 0l-108 109q-176 -104 -381 -105q-305 0 -522.5 215t-217.5 522.5t217 523.5t522.5 216t522.5 -216t217 -523q0 -216 -117 -398zM838 317q70 0 125 21l-140 139q-25 23 -4 43l199 197q27 16 43 0l139 -139 q20 68 21 133q0 168 -110 282.5t-273.5 114.5t-273 -114.5t-109.5 -282.5t109.5 -281t273.5 -113z" glyph-name="Q" horiz-adv-x="1675" unicode="Q"/><glyph d="M1194 37q23 -37 -20 -37h-306q-25 0 -37 20l-286 451h-56v-440q0 -31 -30 -31h-289q-31 0 -31 31v1372q0 31 31 31h446q258 0 400.5 -131.5t142.5 -350.5q0 -154 -71.5 -266.5t-206.5 -167.5zM489 1126v-348h121q88 0 151.5 40t63.5 134.5t-62.5 134t-152.5 39.5h-121z " glyph-name="R" horiz-adv-x="1296" unicode="R"/><glyph d="M479 1020q0 -53 65.5 -90t159 -66.5t186.5 -72.5t158.5 -138.5t65.5 -234.5q0 -211 -155.5 -327t-358.5 -116q-154 0 -292 68t-212 160q-16 20 0 43l158 178q20 25 47 4q152 -123 309 -123q68 0 115 30t47 87q0 53 -65.5 92t-158.5 73t-186.5 80t-159 138t-65.5 223 q0 195 139.5 308.5t327.5 113.5q250 0 455 -188q18 -18 4 -43l-150 -187q-18 -25 -43 -8q-82 53 -136 74.5t-118 21.5q-68 0 -102.5 -29.5t-34.5 -70.5z" glyph-name="S" horiz-adv-x="1200" unicode="S"/><glyph d="M1081 1434q31 0 31 -31v-246q0 -31 -31 -31h-301v-1095q0 -31 -30 -31h-289q-31 0 -31 31v1095h-301q-31 0 -31 31v246q0 31 31 31h952z" glyph-name="T" horiz-adv-x="1208" unicode="T"/><glyph d="M1219 1434q31 0 30 -31v-844q0 -276 -155.5 -431t-405.5 -155t-404.5 155t-154.5 431v844q0 31 31 31h289q31 0 30 -31v-844q0 -240 209 -240q211 0 211 240v844q0 31 31 31h289z" glyph-name="U" horiz-adv-x="1376" unicode="U"/><glyph d="M1055 1409q8 25 35 25h301q39 0 24 -35l-495 -1374q-10 -25 -39 -25h-263q-25 0 -34 25l-494 1374q-14 35 25 35h301q27 0 35 -25l301 -946z" glyph-name="V" horiz-adv-x="1503" unicode="V"/><glyph d="M2210 1434q35 0 24 -35l-432 -1374q-8 -25 -39 -25h-278q-27 0 -33 25l-291 882l-293 -882q-8 -25 -34 -25h-277q-35 0 -41 25l-426 1374q-14 35 25 35h301q27 0 35 -25l249 -940l289 940q2 16 19 23q4 2 14 2h276q10 0 19 -4q8 -6 14 -21l287 -940l256 940q6 25 35 25 h301z" glyph-name="W" horiz-adv-x="2322" unicode="W"/><glyph d="M1290 37q20 -37 -20 -37h-305q-25 0 -37 20l-236 400l-237 -400q-12 -20 -37 -20h-303q-41 0 -21 37l412 696l-391 664q-18 37 20 37h303q25 0 37 -21l217 -364l215 364q12 20 37 21h305q39 0 21 -37l-393 -664z" glyph-name="X" horiz-adv-x="1382" unicode="X"/><glyph d="M1260 1434q39 0 20 -37l-418 -742v-624q0 -31 -31 -31h-288q-31 0 -31 31v628l-418 738q-18 37 21 37h303q25 0 37 -21l231 -428l232 428q12 20 36 21h306z" glyph-name="Y" horiz-adv-x="1372" unicode="Y"/><glyph d="M1118 307q31 0 31 -31v-245q0 -31 -31 -31h-979q-31 0 -30 31v256q0 18 12 37l631 802h-592q-31 0 -31 31v246q0 31 31 31h938q31 0 30 -31v-256q0 -18 -12 -37l-631 -803h633z" glyph-name="Z" horiz-adv-x="1257" unicode="Z"/><glyph d="M596 1526q31 0 31 -31v-211q0 -31 -31 -31h-123v-1247h123q31 0 31 -31v-211q0 -31 -31 -30h-442q-31 0 -31 30v1731q0 31 31 31h442z" glyph-name="bracketleft" horiz-adv-x="749" unicode="["/><glyph d="M70 1526h295q29 0 36 -25l672 -1732q12 -35 -24 -35h-295q-29 0 -37 24l-672 1733q-12 35 25 35z" glyph-name="backslash" horiz-adv-x="1118" unicode="\"/><glyph d="M154 1526h442q31 0 31 -31v-1731q0 -31 -31 -30h-442q-31 0 -31 30v211q0 31 31 31h122v1247h-122q-31 0 -31 31v211q0 31 31 31z" glyph-name="bracketright" horiz-adv-x="749" unicode="]"/><glyph d="M1079 657q8 -14 1 -25t-23 -11h-221q-27 0 -33 22l-199 481l-196 -481q-10 -23 -35 -22h-221q-16 0 -23.5 11t0.5 25l360 754q12 23 35 23h160q23 0 35 -23z" glyph-name="asciicircum" horiz-adv-x="1206" unicode="^"/><glyph d="M1116 0q31 0 31 -31v-211q0 -31 -31 -30h-962q-31 0 -31 30v211q0 31 31 31h962z" glyph-name="underscore" horiz-adv-x="1269" unicode="_"/><glyph d="M106 1491h252q25 0 35 -25l123 -258q16 -35 -24 -34h-252q-25 0 -35 24l-123 258q-17 35 24 35z" glyph-name="grave" horiz-adv-x="550" unicode="`"/><glyph d="M1122 1004q31 0 31 -31v-942q0 -31 -31 -31h-233q-27 0 -31 31l-10 78q-102 -123 -275 -123q-209 0 -347 148.5t-138 365.5q0 221 138.5 372.5t346.5 151.5q168 0 275 -135l10 84q4 31 31 31h233zM612 295q92 0 146.5 57.5t54.5 149.5t-55.5 153.5t-145.5 61.5 q-86 0 -142 -60.5t-56 -154.5q0 -92 56 -149.5t142 -57.5z" glyph-name="a" unicode="a"/><glyph d="M698 1024q209 0 347.5 -151.5t138.5 -372.5q0 -217 -138.5 -365.5t-347.5 -148.5q-172 0 -274 123l-10 -78q-4 -31 -31 -31h-233q-31 0 -31 31v1433q0 31 31 31h276q31 0 31 -31v-538q102 98 241 98zM659 295q86 0 142.5 57.5t56.5 149.5q0 94 -56.5 154.5t-142.5 60.5 q-90 0 -145 -61.5t-55 -153.5t54 -149.5t146 -57.5z" glyph-name="b" unicode="b"/><glyph d="M612 301q92 0 172 68q27 18 45 0l168 -162q20 -20 2 -43q-156 -178 -395 -178q-217 0 -366.5 152.5t-149.5 371.5q0 215 149.5 364.5t366.5 149.5q233 0 389 -178q18 -23 -2 -43l-168 -164q-18 -18 -45 4q-78 68 -166 68q-86 0 -142 -58.5t-56 -142.5q0 -88 56 -148.5 t142 -60.5z" glyph-name="c" horiz-adv-x="1083" unicode="c"/><glyph d="M1122 1495q31 0 31 -31v-1433q0 -31 -31 -31h-233q-27 0 -31 31l-10 78q-102 -123 -275 -123q-209 0 -347 148.5t-138 365.5q0 221 138.5 372.5t346.5 151.5q139 0 242 -98v538q0 31 31 31h276zM612 295q92 0 146.5 57.5t54.5 149.5t-55.5 153.5t-145.5 61.5 q-86 0 -142 -60.5t-56 -154.5q0 -92 56 -149.5t142 -57.5z" glyph-name="d" unicode="d"/><glyph d="M1081 520q0 -72 -15 -102.5t-62 -30.5h-578q43 -135 231 -135q92 0 181 53q27 16 45 -4l118 -117q20 -20 -4 -45q-158 -154 -370 -153q-238 0 -388.5 149.5t-150.5 370.5q0 217 147.5 367.5t364.5 150.5q215 0 348 -146.5t133 -357.5zM604 739q-154 0 -184 -141h360 q-31 141 -176 141z" glyph-name="e" horiz-adv-x="1167" unicode="e"/><glyph d="M983 1317q16 -12 -2 -31l-135 -133q-14 -14 -31 -4q-92 55 -158 55q-63 0 -82.5 -28.5t-19.5 -85.5v-86h203q31 0 30 -31v-211q0 -31 -30 -31h-203v-700q0 -31 -31 -31h-276q-31 0 -31 31v700h-119q-31 0 -30 31v211q0 31 30 31h119v133q0 184 106.5 277t284.5 93 q228 0 375 -190z" glyph-name="f" horiz-adv-x="964" unicode="f"/><glyph d="M1130 1004q31 0 31 -31v-967q0 -117 -51 -201t-135 -128t-171 -63.5t-181 -19.5q-270 0 -461 138q-18 16 -6 41l90 159q16 27 41 13q135 -78 307 -78q96 0 177 39t81 133v80q-121 -127 -283 -127q-205 0 -343 151.5t-138 366.5t138.5 366.5t342.5 151.5q156 0 277 -125 l4 70q4 31 31 31h249zM612 301q86 0 143.5 63.5t57.5 147.5q0 82 -57.5 144.5t-143.5 62.5t-142 -60.5t-56 -146.5q0 -88 57 -149.5t141 -61.5z" glyph-name="g" horiz-adv-x="1277" unicode="g"/><glyph d="M760 1026q156 0 261 -121t105 -317v-557q0 -31 -30 -31h-277q-31 0 -31 31v485q0 109 -47 152t-112 43q-82 0 -127 -60.5t-45 -111.5v-508q0 -31 -31 -31h-276q-31 0 -31 31v1433q0 31 31 31h276q31 0 31 -31v-614q106 176 303 176z" glyph-name="h" horiz-adv-x="1245" unicode="h"/><glyph d="M297 1167q-76 0 -127 52.5t-51 126t51 126t127 52.5q74 0 125 -52.5t51 -126t-51 -126t-125 -52.5zM127 973q0 31 31 31h276q31 0 31 -31v-942q0 -31 -31 -31h-276q-31 0 -31 31v942z" glyph-name="i" horiz-adv-x="589" unicode="i"/><glyph d="M436 1167q-74 0 -126 52.5t-52 126t52 126t126 52.5t126 -52.5t52 -126t-52 -126t-126 -52.5zM301 1004h277q31 0 30 -31v-946q0 -207 -123 -316.5t-327 -116.5q-25 0 -27 15l-88 280q-8 23 14 23q84 8 148.5 51t64.5 135v875q0 31 31 31z" glyph-name="j" horiz-adv-x="731" unicode="j"/><glyph d="M1176 37q10 -16 5 -26.5t-24 -10.5h-295q-25 0 -37 18l-264 351l-104 -113v-225q0 -31 -31 -31h-276q-31 0 -31 31v1433q0 31 31 31h276q31 0 31 -31v-798l293 321q14 16 36 17h314q20 0 25 -11.5t-9 -25.5l-348 -375z" glyph-name="k" horiz-adv-x="1245" unicode="k"/><glyph d="M119 1464q0 31 31 31h276q31 0 31 -31v-1433q0 -31 -31 -31h-276q-31 0 -31 31v1433z" glyph-name="l" horiz-adv-x="573" unicode="l"/><glyph d="M1407 1026q172 0 281.5 -120t109.5 -318v-557q0 -31 -31 -31h-276q-31 0 -31 31v485q0 109 -48 152t-114 43q-76 0 -124 -49.5t-48 -98.5v-532q0 -31 -30 -31h-277q-31 0 -31 31v485q0 109 -47 152t-112 43q-82 0 -127 -60.5t-45 -111.5v-508q0 -31 -31 -31h-276 q-31 0 -31 31v942q0 31 31 31h268q27 0 31 -31l8 -123q106 176 302.5 176t303.5 -180q121 180 344 180z" glyph-name="m" horiz-adv-x="1914" unicode="m"/><glyph d="M760 1026q156 0 261 -121t105 -317v-557q0 -31 -30 -31h-277q-31 0 -31 31v485q0 109 -47 152t-112 43q-82 0 -127 -60.5t-45 -111.5v-508q0 -31 -31 -31h-276q-31 0 -31 31v942q0 31 31 31h268q27 0 31 -31l8 -123q106 176 303 176z" glyph-name="n" horiz-adv-x="1245" unicode="n"/><glyph d="M614 -20q-219 0 -372.5 152.5t-153.5 369.5q0 219 153.5 371.5t372.5 152.5q217 0 372 -152.5t155 -371.5q0 -217 -155 -369.5t-372 -152.5zM614 295q84 0 142.5 59.5t58.5 147.5q0 90 -58.5 150.5t-142.5 60.5t-142 -60.5t-58 -150.5q0 -88 58 -147.5t142 -59.5z" glyph-name="o" horiz-adv-x="1226" unicode="o"/><glyph d="M698 1024q209 0 347.5 -151.5t138.5 -372.5q0 -217 -138.5 -365.5t-347.5 -148.5q-143 0 -241 88v-432q0 -31 -31 -31h-276q-31 0 -31 31v1331q0 31 31 31h233q27 0 31 -31l10 -84q106 135 274 135zM659 295q86 0 142.5 57.5t56.5 149.5q0 94 -56.5 154.5t-142.5 60.5 q-90 0 -145 -61.5t-55 -153.5t54 -149.5t146 -57.5z" glyph-name="p" unicode="p"/><glyph d="M1122 1004q31 0 31 -31v-1331q0 -31 -31 -31h-276q-31 0 -31 31v432q-98 -88 -242 -88q-209 0 -347 148.5t-138 365.5q0 221 138.5 372.5t346.5 151.5q168 0 275 -135l10 84q4 31 31 31h233zM612 295q92 0 146.5 57.5t54.5 149.5t-55.5 153.5t-145.5 61.5 q-86 0 -142 -60.5t-56 -154.5q0 -92 56 -149.5t142 -57.5z" glyph-name="q" unicode="q"/><glyph d="M856 973q23 -23 12 -49l-75 -197q-10 -35 -52 -25q-45 16 -86 17q-94 0 -146 -60.5t-52 -152.5v-475q0 -31 -31 -31h-276q-31 0 -31 31v942q0 31 31 31h266q27 0 30 -31l9 -123q88 176 260 176q84 0 141 -53z" glyph-name="r" horiz-adv-x="894" unicode="r"/><glyph d="M428 707q0 -33 46 -53.5t111.5 -37t132 -45t113 -96t46.5 -172.5q0 -147 -125 -235t-279 -88q-123 0 -226.5 49t-162.5 118q-14 18 2 43l100 144q12 20 45 2q129 -76 232 -76q86 0 86 49q0 31 -46 51.5t-111.5 40t-131 49t-112 94t-46.5 158.5q0 150 107.5 237t253.5 87 q229 0 358 -152q16 -20 -2 -43l-102 -137q-10 -14 -45 2q-113 63 -172 64q-39 0 -55.5 -17.5t-16.5 -35.5z" glyph-name="s" horiz-adv-x="954" unicode="s"/><glyph d="M764 1004q31 0 31 -31v-211q0 -31 -31 -31h-164v-700q0 -31 -31 -31h-276q-31 0 -31 31v700h-164q-31 0 -30 31v211q0 31 30 31h164v276q0 31 31 31h276q31 0 31 -31v-276h164z" glyph-name="t" horiz-adv-x="860" unicode="t"/><glyph d="M1085 1004q31 0 31 -31v-942q0 -31 -31 -31h-268q-27 0 -31 31l-8 108q-115 -166 -284.5 -166t-277 120t-107.5 319v561q0 31 30 31h277q31 0 30 -31v-490q0 -106 49.5 -149t112.5 -43q82 0 126 49t44 115v518q0 31 31 31h276z" glyph-name="u" horiz-adv-x="1234" unicode="u"/><glyph d="M829 979q10 25 37 25h279q37 0 24 -35l-378 -944q-8 -25 -37 -25h-269q-27 0 -36 25l-377 944q-12 35 24 35h279q27 0 37 -25l209 -580z" glyph-name="v" horiz-adv-x="1239" unicode="v"/><glyph d="M1827 1004q37 0 24 -35l-348 -944q-8 -25 -37 -25h-262q-29 0 -37 25l-206 540l-205 -540q-10 -25 -37 -25h-264q-29 0 -37 25l-346 944q-12 35 24 35h271q29 0 36 -25l195 -582l197 582q6 18 20 20q8 4 16 5h259q8 0 16 -5q14 -2 20 -20l201 -582l191 582q10 25 36 25 h273z" glyph-name="w" horiz-adv-x="1921" unicode="w"/><glyph d="M1157 37q10 -16 4 -26.5t-24 -10.5h-314q-18 0 -37 20l-157 242l-158 -242q-14 -20 -37 -20h-313q-18 0 -24.5 10t3.5 27l332 479l-313 451q-12 16 -5 26.5t25 10.5h314q23 0 36 -21l140 -215l141 215q14 20 37 21h313q18 0 24.5 -10.5t-3.5 -26.5l-314 -451z" glyph-name="x" horiz-adv-x="1257" unicode="x"/><glyph d="M1149 1004q37 0 25 -35l-531 -1334q-8 -25 -37 -24h-270q-41 0 -25 35l148 352l-387 971q-12 35 24 35h279q27 0 37 -25l209 -580l208 580q10 25 37 25h283z" glyph-name="y" horiz-adv-x="1245" unicode="y"/><glyph d="M948 973v-219q0 -25 -14 -39l-449 -443h433q31 0 30 -30v-211q0 -31 -30 -31h-809q-31 0 -31 31v219q0 25 14 39l449 442h-432q-31 0 -31 31v211q0 31 31 31h809q30 0 30 -31z" glyph-name="z" horiz-adv-x="1024" unicode="z"/><glyph d="M672 1526q31 0 30 -31v-209q0 -31 -30 -31h-41q-72 0 -72 -63v-406q0 -16 -12 -34l-82 -101q-16 -23 0 -45l82 -98q12 -18 12 -37v-403q0 -61 72 -62h41q31 0 30 -33v-209q0 -31 -30 -30h-236q-90 0 -158.5 49t-68.5 178v500q0 23 -10 39l-68 106q-12 23 -2 41l70 111 q10 18 10 39v501q0 68 21.5 116t58.5 70.5t72.5 32t74.5 9.5h236z" glyph-name="braceleft" horiz-adv-x="825" unicode="{"/><glyph d="M129 1608q0 31 31 30h289q31 0 30 -30v-1966q0 -31 -30 -31h-289q-31 0 -31 31v1966z" glyph-name="bar" horiz-adv-x="606" unicode="|"/><glyph d="M96 1526h236q39 0 74.5 -9.5t72.5 -32t58.5 -70.5t21.5 -116v-501q0 -20 10 -39l70 -111q10 -18 -2 -41l-68 -106q-10 -16 -10 -39v-500q0 -129 -68.5 -178t-158.5 -49h-236q-31 0 -30 30v209q0 33 30 33h41q72 0 72 62v403q0 18 12 37l82 98q16 23 0 45l-82 101 q-12 18 -12 34v406q0 63 -72 63h-41q-31 0 -30 31v209q-1 31 30 31z" glyph-name="braceright" horiz-adv-x="768" unicode="}"/><glyph d="M385 766q82 0 153.5 -41t131 -81t110.5 -40q37 0 67 17.5t40 42.5q10 18 24 18h84q18 0 23 -23q6 -129 -70 -195.5t-196 -66.5q-102 0 -219 82t-171 82q-82 -4 -108 -61q-4 -20 -25 -17h-82q-10 -2 -18 7.5t-6 21.5q31 254 262 254z" glyph-name="asciitilde" horiz-adv-x="1140" unicode="~"/><glyph d="M348 1092q74 0 126 -52.5t52 -126t-52 -126t-126 -52.5t-126 52.5t-52 126t52 126t126 52.5zM526 -174q10 -94 -42 -152.5t-136 -58.5t-136 57.5t-42 153.5l86 760q6 29 31 28h125q25 0 30 -28z" glyph-name="exclamdown" horiz-adv-x="595" unicode="¡"/><glyph d="M997 356q20 -20 2 -43q-111 -127 -286 -163v-201q0 -31 -31 -31h-156q-31 0 -30 31v201q-178 37 -293 177t-115 326q0 182 114.5 319.5t293.5 174.5v256q0 31 30 31h156q31 0 31 -31v-258q166 -33 280 -162q18 -23 -2 -43l-168 -160q-18 -18 -45 4q-37 31 -65 43v-358 q35 14 71 45q27 18 45 0zM414 653q0 -109 82 -168v330q-82 -60 -82 -162z" glyph-name="cent" horiz-adv-x="1062" unicode="¢"/><glyph d="M690 1108q-63 0 -101 -35t-38 -98q0 -74 61 -154h422q31 0 31 -30v-246q0 -31 -31 -31h-327q-25 -115 -117 -207h477q31 0 31 -31v-245q0 -31 -31 -31h-903q-31 0 -31 31v276q90 41 144.5 85t72.5 122h-196q-31 0 -31 31v246q0 31 31 30h79q-41 88 -40 203q0 186 136 306 t324 120q141 0 242.5 -54.5t220.5 -158.5q25 -20 -2 -57l-127 -170q-20 -29 -63 2q-76 59 -125.5 77.5t-108.5 18.5z" glyph-name="sterling" horiz-adv-x="1251" unicode="£"/><glyph d="M1096 975q0 -106 -43 -193l96 -96l-174 -172l-80 80q-117 -78 -258 -78q-137 0 -252 76l-78 -78l-174 172l90 90q-45 94 -45 199q0 109 49 207l-94 94l174 172l84 -84q117 70 246 70q137 0 250 -74l88 88l174 -172l-100 -100q47 -90 47 -201zM637 748q119 0 174 75.5 t55 151.5q0 43 -18.5 92t-73.5 93t-137 44q-119 0 -174 -76.5t-55 -152.5q0 -78 55 -152.5t174 -74.5z" glyph-name="currency" horiz-adv-x="1282" unicode="¤"/><glyph d="M1260 1434q39 0 20 -37l-412 -731h142q31 0 30 -31v-180q0 -31 -30 -31h-148v-82h148q31 0 30 -31v-180q0 -31 -30 -31h-148v-69q0 -31 -31 -31h-288q-31 0 -31 31v69h-170q-31 0 -31 31v180q0 31 31 31h170v82h-170q-31 0 -31 31v180q0 31 31 31h166l-414 731 q-18 37 21 37h303q25 0 37 -21l231 -428l232 428q12 20 36 21h306z" glyph-name="yen" horiz-adv-x="1351" unicode="¥"/><glyph d="M449 1638q31 0 30 -30v-574q0 -31 -30 -30h-289q-31 0 -31 30v574q0 31 31 30h289zM449 246q31 0 30 -31v-573q0 -31 -30 -31h-289q-31 0 -31 31v573q0 31 31 31h289z" glyph-name="brokenbar" horiz-adv-x="606" unicode="¦"/><glyph d="M1405 618q0 -254 -238 -378q-12 -199 -172.5 -309.5t-367.5 -110.5q-178 0 -319.5 68.5t-219.5 166.5q-23 27 2 60l125 172q20 29 64 2q195 -129 350 -129q178 0 178 106q0 49 -51 83t-127 52.5t-165 51t-165 72.5t-127 124t-51 199q0 268 239 387q12 190 152.5 296.5 t335.5 106.5q264 0 498 -213q25 -20 -3 -57l-126 -170q-16 -25 -64 2q-182 100 -295 100q-72 0 -105.5 -29.5t-33.5 -68.5q0 -51 51 -85t127 -51t165 -48t165 -71t127 -125t51 -204zM481 850q0 -53 59.5 -89t137.5 -53.5t181.5 -54.5t168.5 -86q16 23 16 51q0 51 -58 87 t-137 54.5t-181.5 56.5t-167.5 87q-19 -22 -19 -53z" glyph-name="section" horiz-adv-x="1480" unicode="§"/><glyph d="M194.5 1112q-67.5 0 -115.5 48t-48 120q0 68 48 116t115.5 48t115.5 -47t48 -117q0 -72 -48 -120t-115.5 -48zM677.5 1112q-67.5 0 -115.5 48t-48 120q0 70 48 117t115.5 47t116 -48t48.5 -116q0 -72 -48.5 -120t-116 -48z" glyph-name="dieresis" horiz-adv-x="872" unicode="¨"/><glyph d="M680 279q-244 0 -418 172t-174 413.5t174 413.5t418 172t418 -172t174 -413.5t-174 -413.5t-418 -172zM680 463q166 0 280.5 116.5t114.5 284.5q0 170 -114.5 287t-280.5 117t-280.5 -117t-114.5 -287q0 -168 114.5 -284.5t280.5 -116.5zM852 698q20 -25 -2 -43 q-66 -57 -156 -57q-109 0 -188.5 78t-79.5 188.5t81 189.5t187 79q86 0 158 -58q20 -18 0 -43l-61 -69q-12 -12 -41 -2q-23 10 -52 10q-43 0 -73.5 -32t-30.5 -75t29.5 -73.5t74.5 -30.5q23 0 52 8q29 12 41 -2z" glyph-name="copyright" horiz-adv-x="1357" unicode="©"/><glyph d="M602 1434h213v-736h-213l-14 39q-61 -39 -137 -39q-156 0 -264.5 108.5t-108.5 264.5t108.5 264.5t264.5 108.5q76 0 137 -39zM450.5 934q59.5 0 100.5 40t41 97q0 59 -41 100t-100.5 41t-99.5 -41t-40 -100t40 -98t99.5 -39z" glyph-name="ordfeminine" horiz-adv-x="890" unicode="ª"/><glyph d="M92 649q0 23 17 37l229 205q12 12 24.5 7t12.5 -26v-172q0 -23 -17 -36l-131 -111l131 -111q16 -14 17 -36v-173q0 -20 -12.5 -26t-24.5 6l-229 207q-16 14 -17 37v192zM457 649q0 23 16 37l229 205q12 12 24.5 7t12.5 -26v-172q0 -23 -16 -36l-131 -111l131 -111 q16 -14 16 -36v-173q0 -20 -12 -26t-25 6l-229 207q-16 14 -16 37v192z" glyph-name="guillemotleft" horiz-adv-x="831" unicode="«"/><glyph d="M1004 649q31 0 30 -31v-346q0 -31 -30 -30h-271q-31 0 -31 30v105h-548q-31 0 -31 31v210q0 31 31 31h850z" glyph-name="logicalnot" horiz-adv-x="1157" unicode="¬"/><glyph d="M764 698q31 0 31 -30v-211q0 -31 -31 -31h-621q-31 0 -30 31v211q0 31 30 30h621z" glyph-name="uni00AD" horiz-adv-x="839" unicode="­"/><glyph d="M680 1450q244 0 418 -172t174 -413.5t-174 -413.5t-418 -172t-418 172t-174 413.5t174 413.5t418 172zM680 463q166 0 280.5 116.5t114.5 284.5q0 170 -114.5 287t-280.5 117t-280.5 -117t-114.5 -287q0 -168 114.5 -284.5t280.5 -116.5zM963 932q0 -133 -129 -168 l131 -127q4 -6 2 -12.5t-9 -6.5h-147q-12 0 -20 7l-125 129h-60v-119q0 -16 -12 -17h-131q-14 0 -14 17v459q0 16 14 16h276q224 0 224 -178zM741 985h-135v-106h135q51 0 52 53q0 25 -16 39t-36 14z" glyph-name="registered" horiz-adv-x="1357" unicode="®"/><glyph d="M711 1434q31 0 30 -31v-197q0 -31 -30 -30h-650q-31 0 -30 30v197q0 31 30 31h650z" glyph-name="macron" horiz-adv-x="772" unicode="¯"/><glyph d="M428 1473q125 0 215 -88.5t90 -210.5q0 -125 -90 -215.5t-215 -90.5t-215 90.5t-90 215.5q0 123 90 211t215 88zM428 1276q-53 0 -77.5 -35t-24.5 -67q0 -37 24.5 -73t77.5 -36q55 0 78.5 36t23.5 73q0 33 -23.5 67.5t-78.5 34.5z" glyph-name="degree" horiz-adv-x="856" unicode="°"/><glyph d="M184 565q-31 0 -30 31v180q0 31 30 31h234v233q0 31 31 31h180q31 0 30 -31v-233h236q31 0 31 -31v-180q0 -31 -31 -31h-236v-233q0 -31 -30 -31h-180q-31 0 -31 31v233h-234zM915 242q31 0 31 -31v-180q0 -31 -31 -31h-751q-31 0 -31 31v180q0 31 31 31h751z" glyph-name="plusminus" horiz-adv-x="1079" unicode="±"/><glyph d="M213 1442q70 0 121 -46t51 -108q0 -53 -29.5 -96t-109.5 -125l-96 -100h241v-66h-344v66l139 141q57 59 75 78.5t32 46.5t14 55q0 37 -28.5 63.5t-65.5 26.5q-39 0 -67.5 -26.5t-28.5 -75.5v-29h-76v29q0 72 50 119t122 47z" glyph-name="uni00B2" horiz-adv-x="479" unicode="²"/><glyph d="M283 1440q66 0 114.5 -42t48.5 -98q0 -66 -61 -108q86 -37 86 -135q0 -70 -56.5 -117t-131.5 -47q-84 0 -139.5 56.5t-47.5 129.5h78q-14 -47 21.5 -84t87.5 -37q45 0 77.5 28t32.5 71q0 57 -41 80.5t-110 9.5v65q129 8 129 88q0 31 -26 53.5t-62 22.5q-45 0 -73 -32.5 t-20 -86.5h-79q-8 78 44 130.5t128 52.5z" glyph-name="uni00B3" horiz-adv-x="563" unicode="³"/><glyph d="M444 1491q41 0 25 -35l-123 -258q-10 -25 -35 -24h-252q-41 0 -24 34l123 258q10 25 35 25h251z" glyph-name="acute" horiz-adv-x="503" unicode="´"/><glyph d="M1085 1004q31 0 31 -31v-942q0 -31 -31 -31h-268q-27 0 -31 31l-8 108q-115 -166 -284 -166q-20 0 -58 4v-335q0 -31 -30 -31h-277q-31 0 -31 31v1167h11v164q0 31 30 31h277q31 0 30 -31v-490q0 -106 49.5 -149t112.5 -43q82 0 126 49t44 115v518q0 31 31 31h276z" glyph-name="uni00B5" horiz-adv-x="1214" unicode="µ"/><glyph d="M621 1434h446q31 0 31 -31v-1372q0 -31 -31 -31h-289q-31 0 -30 31v440h-127q-258 0 -400.5 131t-142.5 350t142.5 350.5t400.5 131.5zM1315 1403q0 31 31 31h288q31 0 31 -31v-1372q0 -31 -31 -31h-288q-31 0 -31 31v1372zM627 778h121v348h-121q-90 0 -152.5 -39.5 t-62.5 -134t63.5 -134.5t151.5 -40z" glyph-name="paragraph" horiz-adv-x="1781" unicode="¶"/><glyph d="M270.5 391q-73.5 0 -126 52.5t-52.5 126t52.5 126t126 52.5t126 -52.5t52.5 -126t-52.5 -126t-126 -52.5z" glyph-name="periodcentered" horiz-adv-x="595" unicode="·"/><glyph d="M244 -63q78 -6 135 -52.5t57 -122.5q0 -133 -113.5 -185t-273.5 -28q-18 4 -18 23v115q0 20 22 20q164 -18 164 41q0 14 -20.5 24.5t-56.5 12.5t-85 -14q-25 -10 -24 14v125q0 14 10 24l76 66h202z" glyph-name="cedilla" horiz-adv-x="466" unicode="¸"/><glyph d="M207 1436v-535h-76v461h-55v74h131z" glyph-name="uni00B9" horiz-adv-x="315" unicode="¹"/><glyph d="M450.5 698q-155.5 0 -264 108.5t-108.5 264.5t108.5 264.5t264 108.5t264 -108.5t108.5 -264.5t-108.5 -264.5t-264 -108.5zM450.5 934q59.5 0 100.5 40t41 97q0 59 -41 100t-100.5 41t-99.5 -41t-40 -100t40 -98t99.5 -39z" glyph-name="ordmasculine" horiz-adv-x="899" unicode="º"/><glyph d="M375 649v-192q0 -23 -17 -37l-229 -207q-12 -12 -24.5 -6t-12.5 26v173q0 23 17 36l131 111l-131 111q-16 14 -17 36v172q0 20 12.5 25.5t24.5 -6.5l229 -205q17 -14 17 -37zM739 649v-192q0 -23 -16 -37l-229 -207q-12 -12 -24.5 -6t-12.5 26v173q0 23 16 36l131 111 l-131 111q-16 14 -16 36v172q0 20 12 25.5t25 -6.5l229 -205q16 -14 16 -37z" glyph-name="guillemotright" horiz-adv-x="831" unicode="»"/><glyph d="M213 1436v-535h-76v461h-55v74h131zM1075 1434l-880 -1434h-99l893 1434h86zM1083 535v-316h56v-63h-56v-156h-75v156h-271l271 379h75zM1008 424l-144 -205h144v205z" glyph-name="onequarter" horiz-adv-x="1220" unicode="¼"/><glyph d="M213 1436v-535h-76v461h-55v74h131zM1075 1434l-880 -1434h-99l893 1434h86zM909 541q70 0 121 -46t51 -108q0 -53 -29.5 -96t-109.5 -125l-96 -100h241v-66h-344v66l140 141q57 59 74.5 78.5t32 46t14.5 55.5q0 37 -29 63.5t-66 26.5q-39 0 -67.5 -26.5t-28.5 -75.5v-29 h-76v29q0 72 50 119t122 47z" glyph-name="onehalf" horiz-adv-x="1169" unicode="½"/><glyph d="M268 1440q66 0 115 -42t49 -98q0 -66 -61 -108q86 -37 86 -135q0 -70 -56.5 -117t-132.5 -47q-84 0 -139 56.5t-47 129.5h78q-14 -47 21.5 -84t86.5 -37q45 0 78 28t33 71q0 57 -41 80.5t-111 9.5v65q129 8 129 88q0 31 -25.5 53.5t-62.5 22.5q-45 0 -72.5 -32.5 t-19.5 -86.5h-80q-8 78 44 130.5t128 52.5zM1139 1434l-881 -1434h-98l893 1434h86zM1126 535v-316h56v-63h-56v-156h-75v156h-271l271 379h75zM1051 424l-144 -205h144v205z" glyph-name="threequarters" horiz-adv-x="1263" unicode="¾"/><glyph d="M590 735q-74 0 -126 52.5t-52 126t52 126t126 52.5t126 -52.5t52 -126t-52 -126t-126 -52.5zM1051 -100q27 -33 2 -62q-182 -223 -484 -223q-186 0 -331.5 112.5t-145.5 286.5q0 139 74 230.5t268 193.5l17 144q6 31 30 30h215q27 0 33 -30l21 -285q6 -25 -27 -35 q-160 -47 -215 -93t-55 -99.5t47 -84t100 -30.5q117 0 248 115q37 33 63 0z" glyph-name="questiondown" horiz-adv-x="1136" unicode="¿"/><glyph d="M551 1567l-123 258q-16 35 25 35h252q25 0 34 -25l123 -258q16 -35 -24 -35h-252q-25 0 -35 25zM1395 35q14 -35 -25 -35h-301q-27 0 -35 25l-63 200h-477l-64 -200q-8 -25 -35 -25h-301q-39 0 -24 35l493 1374q10 25 35 25h262q31 0 39 -25zM584 508h295l-148 463z" glyph-name="Agrave" horiz-adv-x="1462" unicode="À"/><glyph d="M623 1542q-41 0 -25 35l123 258q10 25 35 25h252q41 0 24 -35l-123 -258q-10 -25 -35 -25h-251zM1395 35q14 -35 -25 -35h-301q-27 0 -35 25l-63 200h-477l-64 -200q-8 -25 -35 -25h-301q-39 0 -24 35l493 1374q10 25 35 25h262q31 0 39 -25zM584 508h295l-148 463z" glyph-name="Aacute" horiz-adv-x="1462" unicode="Á"/><glyph d="M422 1577q-20 0 -26.5 12.5t5.5 24.5l207 229q14 16 37 17h193q23 0 36 -17l205 -229q12 -12 7 -24.5t-25 -12.5h-172q-23 0 -37 16l-111 131l-110 -131q-14 -16 -37 -16h-172zM1395 35q14 -35 -25 -35h-301q-27 0 -35 25l-63 200h-477l-64 -200q-8 -25 -35 -25h-301 q-39 0 -24 35l493 1374q10 25 35 25h262q31 0 39 -25zM584 508h295l-148 463z" glyph-name="Acircumflex" horiz-adv-x="1462" unicode="Â"/><glyph d="M354 1651q-20 0 -20 26q8 115 72.5 173.5t166.5 58.5q74 0 138.5 -37t119 -74t99.5 -37q74 0 98 56q8 14 23 14h75q20 0 21 -21q-4 -117 -69.5 -177t-172.5 -60q-72 0 -137.5 37t-118.5 73.5t-98 36.5q-72 0 -98 -55q-6 -14 -23 -14h-76zM1395 35q14 -35 -25 -35h-301 q-27 0 -35 25l-63 200h-477l-64 -200q-8 -25 -35 -25h-301q-39 0 -24 35l493 1374q10 25 35 25h262q31 0 39 -25zM584 508h295l-148 463z" glyph-name="Atilde" horiz-adv-x="1462" unicode="Ã"/><glyph d="M499.5 1542q-67.5 0 -115.5 48t-48 120q0 68 48 116t115.5 48t116 -47t48.5 -117q0 -72 -48.5 -120t-116 -48zM983 1542q-68 0 -116 48t-48 120q0 70 48 117t116 47t116 -48t48 -116q0 -72 -48 -120t-116 -48zM1395 35q14 -35 -25 -35h-301q-27 0 -35 25l-63 200h-477 l-64 -200q-8 -25 -35 -25h-301q-39 0 -24 35l493 1374q10 25 35 25h262q31 0 39 -25zM584 508h295l-148 463z" glyph-name="Adieresis" horiz-adv-x="1462" unicode="Ä"/><glyph d="M743 1511q-98 0 -165.5 68t-67.5 160q0 94 67.5 161.5t165.5 67.5q92 0 160 -67.5t68 -161.5q0 -92 -68 -160t-160 -68zM741.5 1788q-18.5 0 -32 -14.5t-13.5 -33t13.5 -31.5t32 -13t31.5 13t13 31.5t-13 33t-31.5 14.5zM1395 35q14 -35 -25 -35h-301q-27 0 -35 25 l-63 200h-477l-64 -200q-8 -25 -35 -25h-301q-39 0 -24 35l493 1374q10 25 35 25h262q31 0 39 -25zM584 508h295l-148 463z" glyph-name="Aring" horiz-adv-x="1462" unicode="Å"/><glyph d="M1638 307q31 0 31 -31v-245q0 -31 -31 -31h-782q-31 0 -31 31v233h-317l-88 -239q-10 -25 -35 -25h-303q-35 0 -25 35l557 1374q6 25 33 25h989q31 0 31 -31v-246q0 -31 -31 -31h-460v-245h432q31 0 30 -31v-246q0 -31 -30 -31h-432v-266h462zM614 559h211v578z" glyph-name="AE" horiz-adv-x="1781" unicode="Æ"/><glyph d="M1176 422l178 -193q16 -25 0 -43q-176 -186 -447 -211l-47 -38q78 -6 135.5 -52.5t57.5 -122.5q0 -133 -114 -185t-273 -28q-18 4 -19 23v115q0 20 23 20q164 -18 164 41q0 14 -20.5 24.5t-56.5 12.5t-85 -14q-25 -10 -25 14v125q0 14 10 24l58 50q-266 45 -441.5 248.5 t-175.5 478.5q0 311 218.5 525t527.5 214q313 0 510 -213q18 -18 0 -43l-178 -193q-16 -25 -43 -2q-125 109 -293 109q-162 0 -271.5 -113.5t-109.5 -283.5q0 -168 109.5 -281t271.5 -113q172 0 293 109q25 21 43 -4z" glyph-name="Ccedilla" horiz-adv-x="1449" unicode="Ç"/><glyph d="M281 1860h251q25 0 35 -25l123 -258q16 -35 -24 -35h-252q-25 0 -35 25l-123 258q-16 35 25 35zM952 307q31 0 31 -31v-245q0 -31 -31 -31h-782q-31 0 -31 31v1372q0 31 31 31h780q31 0 31 -31v-246q0 -31 -31 -31h-461v-245h433q31 0 30 -31v-246q0 -31 -30 -31h-433 v-266h463z" glyph-name="Egrave" horiz-adv-x="1116" unicode="È"/><glyph d="M836 1860q41 0 24 -35l-123 -258q-10 -25 -35 -25h-251q-41 0 -25 35l123 258q10 25 35 25h252zM952 307q31 0 31 -31v-245q0 -31 -31 -31h-782q-31 0 -31 31v1372q0 31 31 31h780q31 0 31 -31v-246q0 -31 -31 -31h-461v-245h433q31 0 30 -31v-246q0 -31 -30 -31h-433 v-266h463z" glyph-name="Eacute" horiz-adv-x="1116" unicode="É"/><glyph d="M666 1860q23 0 36 -17l205 -229q12 -12 7 -24.5t-25 -12.5h-172q-23 0 -37 16l-111 131l-110 -131q-14 -16 -37 -16h-172q-20 0 -26.5 12.5t5.5 24.5l207 229q14 16 37 17h193zM952 307q31 0 31 -31v-245q0 -31 -31 -31h-782q-31 0 -31 31v1372q0 31 31 31h780 q31 0 31 -31v-246q0 -31 -31 -31h-461v-245h433q31 0 30 -31v-246q0 -31 -30 -31h-433v-266h463z" glyph-name="Ecircumflex" horiz-adv-x="1116" unicode="Ê"/><glyph d="M327.5 1542q-67.5 0 -115.5 48t-48 120q0 68 48 116t115.5 48t116 -47t48.5 -117q0 -72 -48.5 -120t-116 -48zM811 1542q-68 0 -116 48t-48 120q0 70 48 117t116 47t116 -48t48 -116q0 -72 -48 -120t-116 -48zM952 307q31 0 31 -31v-245q0 -31 -31 -31h-782q-31 0 -31 31 v1372q0 31 31 31h780q31 0 31 -31v-246q0 -31 -31 -31h-461v-245h433q31 0 30 -31v-246q0 -31 -30 -31h-433v-266h463z" glyph-name="Edieresis" horiz-adv-x="1116" unicode="Ë"/><glyph d="M25 1860h251q25 0 35 -25l123 -258q16 -35 -24 -35h-252q-25 0 -35 25l-123 258q-16 35 25 35zM139 1403q0 31 31 31h289q31 0 30 -31v-1372q0 -31 -30 -31h-289q-31 0 -31 31v1372z" glyph-name="Igrave" horiz-adv-x="626" unicode="Ì"/><glyph d="M580 1860q41 0 24 -35l-123 -258q-10 -25 -35 -25h-251q-41 0 -25 35l123 258q10 25 35 25h252zM139 1403q0 31 31 31h289q31 0 30 -31v-1372q0 -31 -30 -31h-289q-31 0 -31 31v1372z" glyph-name="Iacute" horiz-adv-x="626" unicode="Í"/><glyph d="M410 1860q23 0 36 -17l205 -229q12 -12 7 -24.5t-25 -12.5h-172q-23 0 -37 16l-111 131l-110 -131q-14 -16 -37 -16h-172q-20 0 -26.5 12.5t5.5 24.5l207 229q14 16 37 17h193zM139 1403q0 31 31 31h289q31 0 30 -31v-1372q0 -31 -30 -31h-289q-31 0 -31 31v1372z" glyph-name="Icircumflex" horiz-adv-x="626" unicode="Î"/><glyph d="M71.5 1542q-67.5 0 -115.5 48t-48 120q0 68 48 116t115.5 48t116 -47t48.5 -117q0 -72 -48.5 -120t-116 -48zM555 1542q-68 0 -116 48t-48 120q0 70 48 117t116 47t116 -48t48 -116q0 -72 -48 -120t-116 -48zM139 1403q0 31 31 31h289q31 0 30 -31v-1372q0 -31 -30 -31 h-289q-31 0 -31 31v1372z" glyph-name="Idieresis" horiz-adv-x="626" unicode="Ï"/><glyph d="M637 1434q354 0 553 -203t199 -514q0 -309 -200 -513t-552 -204h-451q-31 0 -30 31v540h-74q-31 0 -31 31v197q0 31 31 30h74v574q0 31 30 31h451zM637 307q197 0 297 105.5t100 304t-100 304t-297 105.5h-131v-297h225q31 0 31 -30v-197q0 -31 -31 -31h-225v-264h131z " glyph-name="Eth" horiz-adv-x="1476" unicode="Ð"/><glyph d="M354 1651q-20 0 -20 26q8 115 72.5 173.5t166.5 58.5q74 0 138.5 -37t119 -74t99.5 -37q74 0 98 56q8 14 23 14h75q20 0 21 -21q-4 -117 -69.5 -177t-172.5 -60q-72 0 -137.5 37t-118.5 73.5t-98 36.5q-72 0 -98 -55q-6 -14 -23 -14h-76zM1313 1434q31 0 30 -31v-1372 q0 -31 -30 -31h-322q-25 0 -37 20l-465 840v-829q0 -31 -30 -31h-289q-31 0 -31 31v1372q0 31 31 31h322q25 0 36 -21l465 -842v832q0 31 31 31h289z" glyph-name="Ntilde" horiz-adv-x="1480" unicode="Ñ"/><glyph d="M549 1860h252q25 0 35 -25l122 -258q16 -35 -24 -35h-252q-25 0 -35 25l-123 258q-16 35 25 35zM837.5 -27q-305.5 0 -522.5 215t-217 522.5t217 523.5t522.5 216t522.5 -216t217 -523.5t-217 -522.5t-522.5 -215zM837.5 317q163.5 0 273.5 113t110 281t-110 282.5 t-273.5 114.5t-273 -114.5t-109.5 -282.5t109.5 -281t273 -113z" glyph-name="Ograve" horiz-adv-x="1675" unicode="Ò"/><glyph d="M1104 1860q41 0 24 -35l-122 -258q-10 -25 -35 -25h-252q-41 0 -25 35l123 258q10 25 35 25h252zM837.5 -27q-305.5 0 -522.5 215t-217 522.5t217 523.5t522.5 216t522.5 -216t217 -523.5t-217 -522.5t-522.5 -215zM837.5 317q163.5 0 273.5 113t110 281t-110 282.5 t-273.5 114.5t-273 -114.5t-109.5 -282.5t109.5 -281t273 -113z" glyph-name="Oacute" horiz-adv-x="1675" unicode="Ó"/><glyph d="M934 1860q23 0 37 -17l205 -229q12 -12 7 -24.5t-26 -12.5h-172q-23 0 -37 16l-110 131l-111 -131q-14 -16 -37 -16h-172q-20 0 -26.5 12.5t6.5 24.5l207 229q14 16 36 17h193zM837.5 -27q-305.5 0 -522.5 215t-217 522.5t217 523.5t522.5 216t522.5 -216t217 -523.5 t-217 -522.5t-522.5 -215zM837.5 317q163.5 0 273.5 113t110 281t-110 282.5t-273.5 114.5t-273 -114.5t-109.5 -282.5t109.5 -281t273 -113z" glyph-name="Ocircumflex" horiz-adv-x="1675" unicode="Ô"/><glyph d="M670 1909q74 0 138 -37t118.5 -74t99.5 -37q74 0 98 56q6 14 23 14h76q20 0 20 -21q-4 -117 -69.5 -177t-172.5 -60q-72 0 -137 37t-118.5 73.5t-98.5 36.5q-70 0 -98 -55q-8 -14 -23 -14h-75q-20 0 -21 26q8 115 73 173.5t167 58.5zM837.5 -27q-305.5 0 -522.5 215 t-217 522.5t217 523.5t522.5 216t522.5 -216t217 -523.5t-217 -522.5t-522.5 -215zM837.5 317q163.5 0 273.5 113t110 281t-110 282.5t-273.5 114.5t-273 -114.5t-109.5 -282.5t109.5 -281t273 -113z" glyph-name="Otilde" horiz-adv-x="1675" unicode="Õ"/><glyph d="M596 1542q-68 0 -116 48t-48 120q0 68 48 116t116 48t116 -47t48 -117q0 -72 -48 -120t-116 -48zM1079.5 1542q-67.5 0 -116 48t-48.5 120q0 70 48.5 117t116 47t115.5 -48t48 -116q0 -72 -48 -120t-115.5 -48zM837.5 -27q-305.5 0 -522.5 215t-217 522.5t217 523.5 t522.5 216t522.5 -216t217 -523.5t-217 -522.5t-522.5 -215zM837.5 317q163.5 0 273.5 113t110 281t-110 282.5t-273.5 114.5t-273 -114.5t-109.5 -282.5t109.5 -281t273 -113z" glyph-name="Odieresis" horiz-adv-x="1675" unicode="Ö"/><glyph d="M817 420q23 -23 0 -43l-127 -127q-23 -23 -45 0l-166 166l-166 -166q-20 -20 -43 0l-127 129q-20 20 0 43l166 164l-166 166q-20 23 0 43l127 127q23 23 43 0l166 -166l166 166q23 25 43 0l127 -127q20 -20 0 -43l-166 -166z" glyph-name="multiply" horiz-adv-x="958" unicode="×"/><glyph d="M1274 1307q141 -102 222 -258t81 -338q0 -307 -217 -522.5t-522 -215.5q-88 0 -183 23l-34 -76q-10 -23 -35 -22h-271q-39 0 -22 36l92 195q-133 102 -210 255t-77 327q0 307 217 523t523 216q84 0 163 -18l33 71q10 23 35 23h268q39 0 23 -37zM455 711q0 -143 86 -252 l307 649h-10q-164 0 -273.5 -114.5t-109.5 -282.5zM838 317q164 0 273.5 113t109.5 281q0 160 -101 272l-311 -664q9 -2 29 -2z" glyph-name="Oslash" horiz-adv-x="1654" unicode="Ø"/><glyph d="M399 1860h252q25 0 35 -25l123 -258q16 -35 -25 -35h-252q-25 0 -34 25l-123 258q-17 35 24 35zM1219 1434q31 0 30 -31v-844q0 -276 -155.5 -431t-405.5 -155t-404.5 155t-154.5 431v844q0 31 31 31h289q31 0 30 -31v-844q0 -240 209 -240q211 0 211 240v844q0 31 31 31 h289z" glyph-name="Ugrave" horiz-adv-x="1376" unicode="Ù"/><glyph d="M954 1860q41 0 25 -35l-123 -258q-10 -25 -35 -25h-252q-41 0 -24 35l123 258q10 25 34 25h252zM1219 1434q31 0 30 -31v-844q0 -276 -155.5 -431t-405.5 -155t-404.5 155t-154.5 431v844q0 31 31 31h289q31 0 30 -31v-844q0 -240 209 -240q211 0 211 240v844q0 31 31 31 h289z" glyph-name="Uacute" horiz-adv-x="1376" unicode="Ú"/><glyph d="M784 1860q23 0 37 -17l205 -229q12 -12 7 -24.5t-25 -12.5h-172q-23 0 -37 16l-111 131l-110 -131q-14 -16 -37 -16h-172q-20 0 -26.5 12.5t5.5 24.5l207 229q14 16 37 17h192zM1219 1434q31 0 30 -31v-844q0 -276 -155.5 -431t-405.5 -155t-404.5 155t-154.5 431v844 q0 31 31 31h289q31 0 30 -31v-844q0 -240 209 -240q211 0 211 240v844q0 31 31 31h289z" glyph-name="Ucircumflex" horiz-adv-x="1376" unicode="Û"/><glyph d="M446.5 1542q-67.5 0 -115.5 48t-48 120q0 68 48 116t115.5 48t115.5 -47t48 -117q0 -72 -48 -120t-115.5 -48zM929.5 1542q-67.5 0 -115.5 48t-48 120q0 70 48 117t115.5 47t116 -48t48.5 -116q0 -72 -48.5 -120t-116 -48zM1219 1434q31 0 30 -31v-844 q0 -276 -155.5 -431t-405.5 -155t-404.5 155t-154.5 431v844q0 31 31 31h289q31 0 30 -31v-844q0 -240 209 -240q211 0 211 240v844q0 31 31 31h289z" glyph-name="Udieresis" horiz-adv-x="1376" unicode="Ü"/><glyph d="M567 1542q-41 0 -24 35l123 258q10 25 34 25h252q41 0 25 -35l-123 -258q-10 -25 -35 -25h-252zM1260 1434q39 0 20 -37l-418 -742v-624q0 -31 -31 -31h-288q-31 0 -31 31v628l-418 738q-18 37 21 37h303q25 0 37 -21l231 -428l232 428q12 20 36 21h306z" glyph-name="Yacute" horiz-adv-x="1372" unicode="Ý"/><glyph d="M623 1198q264 0 405 -123t141 -358q0 -233 -141 -357t-405 -124h-134v-205q0 -31 -30 -31h-289q-31 0 -31 31v1372q0 31 31 31h289q31 0 30 -31v-205h134zM600 543q119 0 177.5 35.5t58.5 138t-58.5 138.5t-177.5 36h-111v-348h111z" glyph-name="Thorn" horiz-adv-x="1236" unicode="Þ"/><glyph d="M932 731q129 -12 226 -95t97 -228q0 -221 -140 -314.5t-441 -93.5h-76q-31 0 -31 31v196q0 31 31 31h76q131 0 193.5 37t62.5 125q0 90 -67.5 115.5t-229.5 25.5h-35q-31 0 -31 31v194q0 31 31 31h35q129 0 172 48t43 124q0 66 -52.5 101.5t-133.5 35.5 q-94 0 -144.5 -30.5t-50.5 -118.5v-946q0 -31 -31 -31h-276q-31 0 -31 31v946q0 227 152.5 342t380.5 115q215 0 363.5 -103.5t148.5 -292.5q0 -143 -79 -227t-163 -80z" glyph-name="germandbls" horiz-adv-x="1323" unicode="ß"/><glyph d="M422 1137l-123 258q-16 35 25 35h251q25 0 35 -25l123 -258q16 -35 -24 -35h-252q-25 0 -35 25zM1122 1004q31 0 31 -31v-942q0 -31 -31 -31h-233q-27 0 -31 31l-10 78q-102 -123 -275 -123q-209 0 -347 148.5t-138 365.5q0 221 138.5 372.5t346.5 151.5q168 0 275 -135 l10 84q4 31 31 31h233zM612 295q92 0 146.5 57.5t54.5 149.5t-55.5 153.5t-145.5 61.5q-86 0 -142 -60.5t-56 -154.5q0 -92 56 -149.5t142 -57.5z" glyph-name="agrave" unicode="à"/><glyph d="M494 1112q-41 0 -25 35l123 258q10 25 35 25h252q41 0 24 -35l-123 -258q-10 -25 -35 -25h-251zM1122 1004q31 0 31 -31v-942q0 -31 -31 -31h-233q-27 0 -31 31l-10 78q-102 -123 -275 -123q-209 0 -347 148.5t-138 365.5q0 221 138.5 372.5t346.5 151.5q168 0 275 -135 l10 84q4 31 31 31h233zM612 295q92 0 146.5 57.5t54.5 149.5t-55.5 153.5t-145.5 61.5q-86 0 -142 -60.5t-56 -154.5q0 -92 56 -149.5t142 -57.5z" glyph-name="aacute" unicode="á"/><glyph d="M293 1147q-20 0 -26.5 12t5.5 25l207 229q14 16 37 17h193q23 0 36 -17l205 -229q12 -12 7 -24.5t-25 -12.5h-172q-23 0 -37 16l-111 131l-110 -131q-14 -16 -37 -16h-172zM1122 1004q31 0 31 -31v-942q0 -31 -31 -31h-233q-27 0 -31 31l-10 78q-102 -123 -275 -123 q-209 0 -347 148.5t-138 365.5q0 221 138.5 372.5t346.5 151.5q168 0 275 -135l10 84q4 31 31 31h233zM612 295q92 0 146.5 57.5t54.5 149.5t-55.5 153.5t-145.5 61.5q-86 0 -142 -60.5t-56 -154.5q0 -92 56 -149.5t142 -57.5z" glyph-name="acircumflex" unicode="â"/><glyph d="M225 1221q-20 0 -20 26q8 115 72.5 173.5t166.5 58.5q74 0 138.5 -37t119 -74t99.5 -37q74 0 98 55q6 14 23 15h75q20 0 21 -21q-4 -117 -69.5 -177t-172.5 -60q-72 0 -137.5 37t-118.5 73.5t-98 36.5q-70 0 -98 -55q-8 -14 -23 -14h-76zM1122 1004q31 0 31 -31v-942 q0 -31 -31 -31h-233q-27 0 -31 31l-10 78q-102 -123 -275 -123q-209 0 -347 148.5t-138 365.5q0 221 138.5 372.5t346.5 151.5q168 0 275 -135l10 84q4 31 31 31h233zM612 295q92 0 146.5 57.5t54.5 149.5t-55.5 153.5t-145.5 61.5q-86 0 -142 -60.5t-56 -154.5 q0 -92 56 -149.5t142 -57.5z" glyph-name="atilde" unicode="ã"/><glyph d="M370.5 1112q-67.5 0 -115.5 48t-48 120q0 68 48 116t115.5 48t116 -47t48.5 -117q0 -72 -48.5 -120t-116 -48zM854 1112q-68 0 -116 48t-48 120q0 70 48 117t116 47t116 -48t48 -116q0 -72 -48 -120t-116 -48zM1122 1004q31 0 31 -31v-942q0 -31 -31 -31h-233 q-27 0 -31 31l-10 78q-102 -123 -275 -123q-209 0 -347 148.5t-138 365.5q0 221 138.5 372.5t346.5 151.5q168 0 275 -135l10 84q4 31 31 31h233zM612 295q92 0 146.5 57.5t54.5 149.5t-55.5 153.5t-145.5 61.5q-86 0 -142 -60.5t-56 -154.5q0 -92 56 -149.5t142 -57.5z" glyph-name="adieresis" unicode="ä"/><glyph d="M614 1081q-98 0 -165.5 68t-67.5 160q0 94 67.5 161.5t165.5 67.5q92 0 160 -67.5t68 -161.5q0 -92 -68 -160t-160 -68zM612.5 1358q-18.5 0 -32 -14.5t-13.5 -33t13.5 -31.5t32 -13t31.5 13t13 31.5t-13 33t-31.5 14.5zM1122 1004q31 0 31 -31v-942q0 -31 -31 -31h-233 q-27 0 -31 31l-10 78q-102 -123 -275 -123q-209 0 -347 148.5t-138 365.5q0 221 138.5 372.5t346.5 151.5q168 0 275 -135l10 84q4 31 31 31h233zM612 295q92 0 146.5 57.5t54.5 149.5t-55.5 153.5t-145.5 61.5q-86 0 -142 -60.5t-56 -154.5q0 -92 56 -149.5t142 -57.5z" glyph-name="aring" unicode="å"/><glyph d="M1821 520q0 -72 -15.5 -102.5t-62.5 -30.5h-578q43 -135 232 -135q92 0 180 53q27 16 45 -4l119 -117q20 -20 -4 -45q-158 -154 -371 -153q-113 0 -213 39q-6 -25 -31 -25h-233q-27 0 -31 31l-10 78q-102 -123 -275 -123q-209 0 -347 148.5t-138 365.5q0 221 138.5 372.5 t346.5 151.5q168 0 275 -135l10 84q4 31 31 31h233q20 0 27 -15q92 35 190 35q215 0 348.5 -146.5t133.5 -357.5zM1343 739q-154 0 -184 -141h361q-32 141 -177 141zM612 295q92 0 146.5 57.5t54.5 149.5t-55.5 153.5t-145.5 61.5q-86 0 -142 -60.5t-56 -154.5 q0 -92 56 -149.5t142 -57.5z" glyph-name="ae" horiz-adv-x="1886" unicode="æ"/><glyph d="M997 207q20 -20 2 -43q-141 -160 -354 -176l-61 -51q78 -6 135 -52.5t57 -122.5q0 -133 -113.5 -185t-273.5 -28q-18 4 -18 23v115q0 20 22 20q164 -18 164 41q0 14 -20.5 24.5t-56.5 12.5t-85 -14q-25 -10 -24 14v125q0 14 10 24l76 66h24q-172 41 -282.5 182.5 t-110.5 327.5q0 215 149.5 364.5t366.5 149.5q233 0 389 -178q18 -23 -2 -43l-168 -164q-18 -18 -45 4q-78 68 -166 68q-86 0 -142 -58.5t-56 -142.5q0 -88 56 -148.5t142 -60.5q92 0 172 68q27 18 45 0z" glyph-name="ccedilla" horiz-adv-x="1187" unicode="ç"/><glyph d="M397 1137l-123 258q-16 35 25 35h252q25 0 35 -25l123 -258q16 -35 -25 -35h-252q-25 0 -35 25zM1081 520q0 -72 -15 -102.5t-62 -30.5h-578q43 -135 231 -135q92 0 181 53q27 16 45 -4l118 -117q20 -20 -4 -45q-158 -154 -370 -153q-238 0 -388.5 149.5t-150.5 370.5 q0 217 147.5 367.5t364.5 150.5q215 0 348 -146.5t133 -357.5zM604 739q-154 0 -184 -141h360q-31 141 -176 141z" glyph-name="egrave" horiz-adv-x="1167" unicode="è"/><glyph d="M469 1112q-41 0 -25 35l123 258q10 25 35 25h252q41 0 25 -35l-123 -258q-10 -25 -35 -25h-252zM1081 520q0 -72 -15 -102.5t-62 -30.5h-578q43 -135 231 -135q92 0 181 53q27 16 45 -4l118 -117q20 -20 -4 -45q-158 -154 -370 -153q-238 0 -388.5 149.5t-150.5 370.5 q0 217 147.5 367.5t364.5 150.5q215 0 348 -146.5t133 -357.5zM604 739q-154 0 -184 -141h360q-31 141 -176 141z" glyph-name="eacute" horiz-adv-x="1167" unicode="é"/><glyph d="M268 1147q-20 0 -26 12t6 25l207 229q14 16 37 17h192q23 0 37 -17l205 -229q12 -12 7 -24.5t-26 -12.5h-172q-23 0 -37 16l-110 131l-111 -131q-14 -16 -37 -16h-172zM1081 520q0 -72 -15 -102.5t-62 -30.5h-578q43 -135 231 -135q92 0 181 53q27 16 45 -4l118 -117 q20 -20 -4 -45q-158 -154 -370 -153q-238 0 -388.5 149.5t-150.5 370.5q0 217 147.5 367.5t364.5 150.5q215 0 348 -146.5t133 -357.5zM604 739q-154 0 -184 -141h360q-31 141 -176 141z" glyph-name="ecircumflex" horiz-adv-x="1167" unicode="ê"/><glyph d="M346.5 1112q-67.5 0 -116 48t-48.5 120q0 68 48.5 116t116 48t115.5 -47t48 -117q0 -72 -48 -120t-115.5 -48zM829.5 1112q-67.5 0 -115.5 48t-48 120q0 70 48 117t115.5 47t115.5 -48t48 -116q0 -72 -48 -120t-115.5 -48zM1081 520q0 -72 -15 -102.5t-62 -30.5h-578 q43 -135 231 -135q92 0 181 53q27 16 45 -4l118 -117q20 -20 -4 -45q-158 -154 -370 -153q-238 0 -388.5 149.5t-150.5 370.5q0 217 147.5 367.5t364.5 150.5q215 0 348 -146.5t133 -357.5zM604 739q-154 0 -184 -141h360q-31 141 -176 141z" glyph-name="edieresis" horiz-adv-x="1167" unicode="ë"/><glyph d="M-10 1430h252q25 0 34 -25l123 -258q16 -35 -24 -35h-252q-25 0 -35 25l-123 258q-16 35 25 35zM109 973q0 31 30 31h277q31 0 30 -31v-942q0 -31 -30 -31h-277q-31 0 -30 31v942z" glyph-name="igrave" horiz-adv-x="552" unicode="ì"/><glyph d="M545 1430q41 0 24 -35l-123 -258q-10 -25 -34 -25h-252q-41 0 -25 35l123 258q10 25 35 25h252zM109 973q0 31 30 31h277q31 0 30 -31v-942q0 -31 -30 -31h-277q-31 0 -30 31v942z" glyph-name="iacute" horiz-adv-x="552" unicode="í"/><glyph d="M375 1430q23 0 37 -17l204 -229q12 -12 7 -24.5t-25 -12.5h-172q-23 0 -37 16l-110 131l-111 -131q-14 -16 -37 -16h-172q-20 0 -26.5 12t6.5 25l206 229q14 16 37 17h193zM109 973q0 31 30 31h277q31 0 30 -31v-942q0 -31 -30 -31h-277q-31 0 -30 31v942z" glyph-name="icircumflex" horiz-adv-x="552" unicode="î"/><glyph d="M36.5 1112q-67.5 0 -115.5 48t-48 120q0 68 48 116t115.5 48t116 -47t48.5 -117q0 -72 -48.5 -120t-116 -48zM520.5 1112q-67.5 0 -116 48t-48.5 120q0 70 48.5 117t116 47t115.5 -48t48 -116q0 -72 -48 -120t-115.5 -48zM109 973q0 31 30 31h277q31 0 30 -31v-942 q0 -31 -30 -31h-277q-31 0 -30 31v942z" glyph-name="idieresis" horiz-adv-x="552" unicode="ï"/><glyph d="M1157 1356q33 4 33 -29v-172q0 -29 -29 -33h-8v-1091q0 -31 -31 -31h-233q-27 0 -31 31l-10 78q-102 -123 -275 -123q-209 0 -347 148.5t-138 365.5q0 221 138.5 372.5t346.5 151.5q139 0 242 -98v157l-137 -16q-33 -4 -33 29v172q0 29 29 32l141 17v147q0 31 31 31h276 q31 0 31 -31v-108h4zM612 295q92 0 146.5 57.5t54.5 149.5t-55.5 153.5t-145.5 61.5q-86 0 -142 -60.5t-56 -154.5q0 -92 56 -149.5t142 -57.5z" glyph-name="eth" horiz-adv-x="1220" unicode="ð"/><glyph d="M236 1221q-20 0 -21 26q8 115 72.5 173.5t167.5 58.5q74 0 138 -37t118.5 -74t99.5 -37q74 0 98 55q8 14 23 15h76q20 0 20 -21q-4 -117 -69.5 -177t-172.5 -60q-72 0 -137 37t-118.5 73.5t-98.5 36.5q-72 0 -98 -55q-6 -14 -23 -14h-75zM760 1026q156 0 261 -121 t105 -317v-557q0 -31 -30 -31h-277q-31 0 -31 31v485q0 109 -47 152t-112 43q-82 0 -127 -60.5t-45 -111.5v-508q0 -31 -31 -31h-276q-31 0 -31 31v942q0 31 31 31h268q27 0 31 -31l8 -123q106 176 303 176z" glyph-name="ntilde" horiz-adv-x="1245" unicode="ñ"/><glyph d="M326 1430h252q25 0 34 -25l123 -258q16 -35 -24 -35h-252q-25 0 -35 25l-123 258q-16 35 25 35zM614 -20q-219 0 -372.5 152.5t-153.5 369.5q0 219 153.5 371.5t372.5 152.5q217 0 372 -152.5t155 -371.5q0 -217 -155 -369.5t-372 -152.5zM614 295q84 0 142.5 59.5 t58.5 147.5q0 90 -58.5 150.5t-142.5 60.5t-142 -60.5t-58 -150.5q0 -88 58 -147.5t142 -59.5z" glyph-name="ograve" horiz-adv-x="1226" unicode="ò"/><glyph d="M881 1430q41 0 24 -35l-123 -258q-10 -25 -34 -25h-252q-41 0 -25 35l123 258q10 25 35 25h252zM614 -20q-219 0 -372.5 152.5t-153.5 369.5q0 219 153.5 371.5t372.5 152.5q217 0 372 -152.5t155 -371.5q0 -217 -155 -369.5t-372 -152.5zM614 295q84 0 142.5 59.5 t58.5 147.5q0 90 -58.5 150.5t-142.5 60.5t-142 -60.5t-58 -150.5q0 -88 58 -147.5t142 -59.5z" glyph-name="oacute" horiz-adv-x="1226" unicode="ó"/><glyph d="M711 1430q23 0 37 -17l204 -229q12 -12 7 -24.5t-25 -12.5h-172q-23 0 -37 16l-111 131l-110 -131q-14 -16 -37 -16h-172q-20 0 -26.5 12t5.5 25l207 229q14 16 37 17h193zM614 -20q-219 0 -372.5 152.5t-153.5 369.5q0 219 153.5 371.5t372.5 152.5q217 0 372 -152.5 t155 -371.5q0 -217 -155 -369.5t-372 -152.5zM614 295q84 0 142.5 59.5t58.5 147.5q0 90 -58.5 150.5t-142.5 60.5t-142 -60.5t-58 -150.5q0 -88 58 -147.5t142 -59.5z" glyph-name="ocircumflex" horiz-adv-x="1226" unicode="ô"/><glyph d="M446 1479q74 0 138.5 -37t119 -74t99.5 -37q74 0 98 55q8 14 23 15h75q20 0 21 -21q-4 -117 -69.5 -177t-172.5 -60q-72 0 -137.5 37t-118.5 73.5t-98 36.5q-72 0 -98 -55q-6 -14 -23 -14h-76q-20 0 -20 26q8 115 72.5 173.5t166.5 58.5zM614 -20q-219 0 -372.5 152.5 t-153.5 369.5q0 219 153.5 371.5t372.5 152.5q217 0 372 -152.5t155 -371.5q0 -217 -155 -369.5t-372 -152.5zM614 295q84 0 142.5 59.5t58.5 147.5q0 90 -58.5 150.5t-142.5 60.5t-142 -60.5t-58 -150.5q0 -88 58 -147.5t142 -59.5z" glyph-name="otilde" horiz-adv-x="1226" unicode="õ"/><glyph d="M372.5 1112q-67.5 0 -115.5 48t-48 120q0 68 48 116t115.5 48t116 -47t48.5 -117q0 -72 -48.5 -120t-116 -48zM856 1112q-68 0 -116 48t-48 120q0 70 48 117t116 47t116 -48t48 -116q0 -72 -48 -120t-116 -48zM614 -20q-219 0 -372.5 152.5t-153.5 369.5 q0 219 153.5 371.5t372.5 152.5q217 0 372 -152.5t155 -371.5q0 -217 -155 -369.5t-372 -152.5zM614 295q84 0 142.5 59.5t58.5 147.5q0 90 -58.5 150.5t-142.5 60.5t-142 -60.5t-58 -150.5q0 -88 58 -147.5t142 -59.5z" glyph-name="odieresis" horiz-adv-x="1226" unicode="ö"/><glyph d="M538.5 752q-73.5 0 -126 52t-52.5 126t52.5 126t126 52t126 -52t52.5 -126t-52.5 -126t-126 -52zM915 707q31 0 31 -31v-180q0 -31 -31 -31h-751q-31 0 -31 31v180q0 31 31 31h751zM538.5 31q-73.5 0 -126 52t-52.5 126t52.5 126t126 52t126 -52t52.5 -126t-52.5 -126 t-126 -52z" glyph-name="divide" horiz-adv-x="1079" unicode="÷"/><glyph d="M930 922q98 -72 154.5 -182.5t56.5 -237.5q0 -217 -155 -369.5t-372 -152.5q-37 0 -98 8l-49 -109q-8 -23 -35 -22h-211q-39 0 -22 37l88 198q-92 74 -145.5 180.5t-53.5 229.5q0 219 153.5 371.5t372.5 152.5q45 0 84 -6l45 100q8 23 35 23h211q39 0 23 -37zM414 502 q0 -43 16 -86l129 289q-63 -16 -104 -71.5t-41 -131.5zM653 299q70 14 116 69.5t46 133.5q0 59 -24 104z" glyph-name="oslash" horiz-adv-x="1206" unicode="ø"/><glyph d="M422 1137l-123 258q-16 35 25 35h251q25 0 35 -25l123 -258q16 -35 -24 -35h-252q-25 0 -35 25zM1085 1004q31 0 31 -31v-942q0 -31 -31 -31h-268q-27 0 -31 31l-8 108q-115 -166 -284.5 -166t-277 120t-107.5 319v561q0 31 30 31h277q31 0 30 -31v-490q0 -106 49.5 -149 t112.5 -43q82 0 126 49t44 115v518q0 31 31 31h276z" glyph-name="ugrave" horiz-adv-x="1234" unicode="ù"/><glyph d="M494 1112q-41 0 -25 35l123 258q10 25 35 25h252q41 0 24 -35l-123 -258q-10 -25 -35 -25h-251zM1085 1004q31 0 31 -31v-942q0 -31 -31 -31h-268q-27 0 -31 31l-8 108q-115 -166 -284.5 -166t-277 120t-107.5 319v561q0 31 30 31h277q31 0 30 -31v-490q0 -106 49.5 -149 t112.5 -43q82 0 126 49t44 115v518q0 31 31 31h276z" glyph-name="uacute" horiz-adv-x="1234" unicode="ú"/><glyph d="M293 1147q-20 0 -26.5 12t5.5 25l207 229q14 16 37 17h193q23 0 36 -17l205 -229q12 -12 7 -24.5t-25 -12.5h-172q-23 0 -37 16l-111 131l-110 -131q-14 -16 -37 -16h-172zM1085 1004q31 0 31 -31v-942q0 -31 -31 -31h-268q-27 0 -31 31l-8 108q-115 -166 -284.5 -166 t-277 120t-107.5 319v561q0 31 30 31h277q31 0 30 -31v-490q0 -106 49.5 -149t112.5 -43q82 0 126 49t44 115v518q0 31 31 31h276z" glyph-name="ucircumflex" horiz-adv-x="1234" unicode="û"/><glyph d="M370.5 1112q-67.5 0 -115.5 48t-48 120q0 68 48 116t115.5 48t116 -47t48.5 -117q0 -72 -48.5 -120t-116 -48zM854 1112q-68 0 -116 48t-48 120q0 70 48 117t116 47t116 -48t48 -116q0 -72 -48 -120t-116 -48zM1085 1004q31 0 31 -31v-942q0 -31 -31 -31h-268 q-27 0 -31 31l-8 108q-115 -166 -284.5 -166t-277 120t-107.5 319v561q0 31 30 31h277q31 0 30 -31v-490q0 -106 49.5 -149t112.5 -43q82 0 126 49t44 115v518q0 31 31 31h276z" glyph-name="udieresis" horiz-adv-x="1234" unicode="ü"/><glyph d="M887 1430q41 0 24 -35l-123 -258q-10 -25 -34 -25h-252q-41 0 -25 35l123 258q10 25 35 25h252zM1149 1004q37 0 25 -35l-531 -1334q-8 -25 -37 -24h-270q-41 0 -25 35l148 352l-387 971q-12 35 24 35h279q27 0 37 -25l209 -580l208 580q10 25 37 25h283z" glyph-name="yacute" horiz-adv-x="1245" unicode="ý"/><glyph d="M705 1024q209 0 347 -151.5t138 -372.5q0 -217 -138.5 -365.5t-346.5 -148.5h-3h-4q-141 0 -235 84v-428q0 -31 -31 -31h-276q-31 0 -31 31v368q-6 10 -6 21v1433q0 31 31 31h276q31 0 31 -31v-538q102 98 241 98h4h3zM465 502q0 -90 53 -147.5t144 -59.5q86 2 141 58.5 t55 148.5q0 94 -55 153.5t-141 61.5q-88 -2 -142.5 -63.5t-54.5 -151.5z" glyph-name="thorn" horiz-adv-x="1263" unicode="þ"/><glyph d="M378.5 1112q-67.5 0 -115.5 48t-48 120q0 68 48 116t115.5 48t116 -47t48.5 -117q0 -72 -48.5 -120t-116 -48zM862.5 1112q-67.5 0 -116 48t-48.5 120q0 70 48.5 117t116 47t115.5 -48t48 -116q0 -72 -48 -120t-115.5 -48zM1149 1004q37 0 25 -35l-531 -1334 q-8 -25 -37 -24h-270q-41 0 -25 35l148 352l-387 971q-12 35 24 35h279q27 0 37 -25l209 -580l208 580q10 25 37 25h283z" glyph-name="ydieresis" horiz-adv-x="1245" unicode="ÿ"/><glyph d="M416 1602q-31 0 -31 30v197q0 31 31 31h649q31 0 31 -31v-197q0 -31 -31 -30h-649zM1395 35q14 -35 -25 -35h-301q-27 0 -35 25l-63 200h-477l-64 -200q-8 -25 -35 -25h-301q-39 0 -24 35l493 1374q10 25 35 25h262q31 0 39 -25zM584 508h295l-148 463z" glyph-name="Amacron" horiz-adv-x="1462" unicode="Ā"/><glyph d="M287 1171q-31 0 -31 31v197q0 31 31 31h649q31 0 31 -31v-197q0 -31 -31 -31h-649zM1122 1004q31 0 31 -31v-942q0 -31 -31 -31h-233q-27 0 -31 31l-10 78q-102 -123 -275 -123q-209 0 -347 148.5t-138 365.5q0 221 138.5 372.5t346.5 151.5q168 0 275 -135l10 84 q4 31 31 31h233zM612 295q92 0 146.5 57.5t54.5 149.5t-55.5 153.5t-145.5 61.5q-86 0 -142 -60.5t-56 -154.5q0 -92 56 -149.5t142 -57.5z" glyph-name="amacron" unicode="ā"/><glyph d="M741.5 1559q-147.5 0 -237.5 77.5t-103 194.5q-4 31 29 31h137q27 0 33 -29q12 -37 48 -63.5t93.5 -26.5t93 26.5t46.5 63.5q6 29 32 29h138q31 0 28 -31q-12 -117 -101 -194.5t-236.5 -77.5zM1395 35q14 -35 -25 -35h-301q-27 0 -35 25l-63 200h-477l-64 -200 q-8 -25 -35 -25h-301q-39 0 -24 35l493 1374q10 25 35 25h262q31 0 39 -25zM584 508h295l-148 463z" glyph-name="Abreve" horiz-adv-x="1462" unicode="Ă"/><glyph d="M612.5 1128q-147.5 0 -237.5 78t-103 195q-2 31 29 31h137q27 0 33 -29q12 -37 48 -63.5t93.5 -26.5t93 26.5t46.5 63.5q6 29 32 29h138q33 0 28 -31q-12 -117 -101 -195t-236.5 -78zM1122 1004q31 0 31 -31v-942q0 -31 -31 -31h-233q-27 0 -31 31l-10 78 q-102 -123 -275 -123q-209 0 -347 148.5t-138 365.5q0 221 138.5 372.5t346.5 151.5q168 0 275 -135l10 84q4 31 31 31h233zM612 295q92 0 146.5 57.5t54.5 149.5t-55.5 153.5t-145.5 61.5q-86 0 -142 -60.5t-56 -154.5q0 -92 56 -149.5t142 -57.5z" glyph-name="abreve" unicode="ă"/><glyph d="M1395 35q14 -35 -25 -35h-6q-78 0 -120 -43t-42 -98q0 -31 26.5 -52.5t88.5 -9.5v-203q-49 -20 -114.5 -21t-126 17.5t-102.5 71.5t-42 131q0 121 115 213q-10 6 -13 19l-63 200h-477l-64 -200q-8 -25 -35 -25h-301q-39 0 -24 35l493 1374q10 25 35 25h262q31 0 39 -25 l463 -1286h2v-2zM584 508h295l-148 463z" glyph-name="Aogonek" horiz-adv-x="1462" unicode="Ą"/><glyph d="M1122 1004q31 0 31 -31v-942q0 -31 -31 -31h-47q-74 0 -118 -44t-44 -97q0 -31 27 -52.5t88 -9.5v-203q-49 -20 -114.5 -21t-126 17.5t-102.5 71.5t-42 131q0 170 209 273l-4 43q-102 -123 -275 -123q-209 0 -347 148.5t-138 365.5q0 221 138.5 372.5t346.5 151.5 q168 0 275 -135l10 84q4 31 31 31h233zM612 295q92 0 146.5 57.5t54.5 149.5t-55.5 153.5t-145.5 61.5q-86 0 -142 -60.5t-56 -154.5q0 -92 56 -149.5t142 -57.5z" glyph-name="aogonek" horiz-adv-x="1255" unicode="ą"/><glyph d="M1096 1860q41 0 24 -35l-123 -258q-10 -25 -34 -25h-252q-41 0 -25 35l123 258q10 25 35 25h252zM1176 422l178 -193q16 -25 0 -43q-201 -213 -510 -213t-527.5 215t-218.5 523q0 311 218.5 525t527.5 214q313 0 510 -213q18 -18 0 -43l-178 -193q-16 -25 -43 -2 q-125 109 -293 109q-162 0 -271.5 -113.5t-109.5 -283.5q0 -168 109.5 -281t271.5 -113q172 0 293 109q25 21 43 -4z" glyph-name="Cacute" horiz-adv-x="1449" unicode="Ć"/><glyph d="M915 1491q41 0 25 -35l-123 -258q-10 -25 -35 -24h-252q-41 0 -24 34l123 258q10 25 35 25h251zM612 301q92 0 172 68q27 18 45 0l168 -162q20 -20 2 -43q-156 -178 -395 -178q-217 0 -366.5 152.5t-149.5 371.5q0 215 149.5 364.5t366.5 149.5q233 0 389 -178 q18 -23 -2 -43l-168 -164q-18 -18 -45 4q-78 68 -166 68q-86 0 -142 -58.5t-56 -142.5q0 -88 56 -148.5t142 -60.5z" glyph-name="cacute" horiz-adv-x="1187" unicode="ć"/><glyph d="M829.5 1542q-67.5 0 -115.5 48t-48 120q0 68 48 116t115.5 48t115.5 -47t48 -117q0 -72 -48 -120t-115.5 -48zM1176 422l178 -193q16 -25 0 -43q-201 -213 -510 -213t-527.5 215t-218.5 523q0 311 218.5 525t527.5 214q313 0 510 -213q18 -18 0 -43l-178 -193 q-16 -25 -43 -2q-125 109 -293 109q-162 0 -271.5 -113.5t-109.5 -283.5q0 -168 109.5 -281t271.5 -113q172 0 293 109q25 21 43 -4z" glyph-name="Cdotaccent" horiz-adv-x="1449" unicode="Ċ"/><glyph d="M622.5 1112q-67.5 0 -115.5 48t-48 120q0 68 48 116t115.5 48t115.5 -47t48 -117q0 -72 -48 -120t-115.5 -48zM612 301q92 0 172 68q27 18 45 0l168 -162q20 -20 2 -43q-156 -178 -395 -178q-217 0 -366.5 152.5t-149.5 371.5q0 215 149.5 364.5t366.5 149.5 q233 0 389 -178q18 -23 -2 -43l-168 -164q-18 -18 -45 4q-78 68 -166 68q-86 0 -142 -58.5t-56 -142.5q0 -88 56 -148.5t142 -60.5z" glyph-name="cdotaccent" horiz-adv-x="1187" unicode="ċ"/><glyph d="M926 1577h-193q-23 0 -37 16l-207 230q-12 12 -6 24.5t27 12.5h172q23 0 37 -17l110 -131l111 131q14 16 37 17h172q20 0 25.5 -12.5t-7.5 -24.5l-204 -230q-14 -16 -37 -16zM1176 422l178 -193q16 -25 0 -43q-201 -213 -510 -213t-527.5 215t-218.5 523q0 311 218.5 525 t527.5 214q313 0 510 -213q18 -18 0 -43l-178 -193q-16 -25 -43 -2q-125 109 -293 109q-162 0 -271.5 -113.5t-109.5 -283.5q0 -168 109.5 -281t271.5 -113q172 0 293 109q25 21 43 -4z" glyph-name="Ccaron" horiz-adv-x="1449" unicode="Č"/><glyph d="M651 1151h-192q-23 0 -37 16l-207 230q-12 12 -6 24.5t27 12.5h172q23 0 36 -17l111 -131l111 131q14 16 36 17h172q20 0 25.5 -12.5t-6.5 -24.5l-205 -230q-14 -16 -37 -16zM612 301q92 0 172 68q27 18 45 0l168 -162q20 -20 2 -43q-156 -178 -395 -178 q-217 0 -366.5 152.5t-149.5 371.5q0 215 149.5 364.5t366.5 149.5q233 0 389 -178q18 -23 -2 -43l-168 -164q-18 -18 -45 4q-78 68 -166 68q-86 0 -142 -58.5t-56 -142.5q0 -88 56 -148.5t142 -60.5z" glyph-name="ccaron" horiz-adv-x="1187" unicode="č"/><glyph d="M575 1593l-206 230q-12 12 -6 24.5t26 12.5h172q23 0 37 -17l111 -131l110 131q14 16 37 17h172q20 0 25.5 -12.5t-6.5 -24.5l-205 -230q-14 -16 -37 -16h-193q-23 0 -37 16zM621 1434q354 0 552.5 -203t198.5 -514q0 -309 -199.5 -513t-551.5 -204h-451q-31 0 -31 31 v1372q0 31 31 31h451zM621 307q197 0 297 105.5t100 304t-100.5 304t-296.5 105.5h-132v-819h132z" glyph-name="Dcaron" horiz-adv-x="1460" unicode="Ď"/><glyph d="M1122 1495q31 0 31 -31v-1433q0 -31 -31 -31h-233q-27 0 -31 31l-10 78q-102 -123 -275 -123q-209 0 -347 148.5t-138 365.5q0 221 138.5 372.5t346.5 151.5q139 0 242 -98v538q0 31 31 31h276zM1634 1495q41 0 25 -35l-123 -258q-10 -25 -35 -24h-252q-41 0 -24 34 l123 258q10 25 34 25h252zM612 295q92 0 146.5 57.5t54.5 149.5t-55.5 153.5t-145.5 61.5q-86 0 -142 -60.5t-56 -154.5q0 -92 56 -149.5t142 -57.5z" glyph-name="dcaron" horiz-adv-x="1660" unicode="ď"/><glyph d="M637 1434q354 0 553 -203t199 -514q0 -309 -200 -513t-552 -204h-451q-31 0 -30 31v540h-74q-31 0 -31 31v197q0 31 31 30h74v574q0 31 30 31h451zM637 307q197 0 297 105.5t100 304t-100 304t-297 105.5h-131v-297h225q31 0 31 -30v-197q0 -31 -31 -31h-225v-264h131z " glyph-name="Dcroat" horiz-adv-x="1476" unicode="Đ"/><glyph d="M1214 1333q31 0 31 -30v-197q0 -31 -31 -31h-61v-1044q0 -31 -31 -31h-233q-27 0 -31 31l-10 78q-102 -123 -275 -123q-209 0 -347 148.5t-138 365.5q0 221 138.5 372.5t346.5 151.5q139 0 242 -98v149h-250q-31 0 -30 31v197q0 31 30 30h250v131q0 31 31 31h276 q31 0 31 -31v-131h61zM612 295q92 0 146.5 57.5t54.5 149.5t-55.5 153.5t-145.5 61.5q-86 0 -142 -60.5t-56 -154.5q0 -92 56 -149.5t142 -57.5z" glyph-name="dcroat" horiz-adv-x="1275" unicode="đ"/><glyph d="M893 1860q31 0 31 -31v-197q0 -31 -31 -30h-649q-31 0 -31 30v197q0 31 31 31h649zM952 307q31 0 31 -31v-245q0 -31 -31 -31h-782q-31 0 -31 31v1372q0 31 31 31h780q31 0 31 -31v-246q0 -31 -31 -31h-461v-245h433q31 0 30 -31v-246q0 -31 -30 -31h-433v-266h463z" glyph-name="Emacron" horiz-adv-x="1116" unicode="Ē"/><glyph d="M262 1171q-31 0 -31 31v197q0 31 31 31h649q31 0 31 -31v-197q0 -31 -31 -31h-649zM1081 520q0 -72 -15 -102.5t-62 -30.5h-578q43 -135 231 -135q92 0 181 53q27 16 45 -4l118 -117q20 -20 -4 -45q-158 -154 -370 -153q-238 0 -388.5 149.5t-150.5 370.5 q0 217 147.5 367.5t364.5 150.5q215 0 348 -146.5t133 -357.5zM604 739q-154 0 -184 -141h360q-31 141 -176 141z" glyph-name="emacron" horiz-adv-x="1167" unicode="ē"/><glyph d="M569.5 1542q-67.5 0 -115.5 48t-48 120q0 68 48 116t115.5 48t115.5 -47t48 -117q0 -72 -48 -120t-115.5 -48zM952 307q31 0 31 -31v-245q0 -31 -31 -31h-782q-31 0 -31 31v1372q0 31 31 31h780q31 0 31 -31v-246q0 -31 -31 -31h-461v-245h433q31 0 30 -31v-246 q0 -31 -30 -31h-433v-266h463z" glyph-name="Edotaccent" horiz-adv-x="1116" unicode="Ė"/><glyph d="M587.5 1112q-67.5 0 -115.5 48t-48 120q0 68 48 116t115.5 48t116 -47t48.5 -117q0 -72 -48.5 -120t-116 -48zM1081 520q0 -72 -15 -102.5t-62 -30.5h-578q43 -135 231 -135q92 0 181 53q27 16 45 -4l118 -117q20 -20 -4 -45q-158 -154 -370 -153q-238 0 -388.5 149.5 t-150.5 370.5q0 217 147.5 367.5t364.5 150.5q215 0 348 -146.5t133 -357.5zM604 739q-154 0 -184 -141h360q-31 141 -176 141z" glyph-name="edotaccent" horiz-adv-x="1167" unicode="ė"/><glyph d="M952 307q31 0 31 -31v-245q0 -31 -31 -31h-71q-74 -39 -74 -121q0 -31 26.5 -52.5t88.5 -8.5v-203q-49 -20 -115 -21.5t-126 17t-102 72t-42 131.5q0 102 84 186h-451q-31 0 -31 31v1372q0 31 31 31h780q31 0 31 -31v-246q0 -31 -31 -31h-461v-245h433q31 0 30 -31v-246 q0 -31 -30 -31h-433v-266h463z" glyph-name="Eogonek" horiz-adv-x="1116" unicode="Ę"/><glyph d="M1081 520q0 -72 -15 -102.5t-62 -30.5h-578q43 -135 231 -135q92 0 181 53q27 16 45 -4l118 -117q20 -20 -4 -45q-94 -92 -217 -131v-8q-182 -45 -182 -147q0 -33 26.5 -55.5t88.5 -10.5v-203q-49 -20 -115 -21t-126 17.5t-102 71.5t-42 131q0 133 137 223 q-172 47 -274.5 183.5t-102.5 316.5q0 217 147.5 367.5t364.5 150.5q215 0 348 -146.5t133 -357.5zM604 739q-154 0 -184 -141h360q-31 141 -176 141z" glyph-name="eogonek" horiz-adv-x="1146" unicode="ę"/><glyph d="M666 1577h-193q-23 0 -37 16l-207 230q-12 12 -6 24.5t27 12.5h172q23 0 37 -17l110 -131l111 131q14 16 37 17h172q20 0 25.5 -12.5t-7.5 -24.5l-205 -230q-13 -16 -36 -16zM952 307q31 0 31 -31v-245q0 -31 -31 -31h-782q-31 0 -31 31v1372q0 31 31 31h780q31 0 31 -31 v-246q0 -31 -31 -31h-461v-245h433q31 0 30 -31v-246q0 -31 -30 -31h-433v-266h463z" glyph-name="Ecaron" horiz-adv-x="1116" unicode="Ě"/><glyph d="M455 1163l-207 230q-12 12 -6 24.5t26 12.5h172q23 0 37 -17l111 -131l110 131q14 16 37 17h172q20 0 25.5 -12.5t-6.5 -24.5l-205 -230q-14 -16 -37 -16h-192q-23 0 -37 16zM1081 520q0 -72 -15 -102.5t-62 -30.5h-578q43 -135 231 -135q92 0 181 53q27 16 45 -4 l118 -117q20 -20 -4 -45q-158 -154 -370 -153q-238 0 -388.5 149.5t-150.5 370.5q0 217 147.5 367.5t364.5 150.5q215 0 348 -146.5t133 -357.5zM604 739q-154 0 -184 -141h360q-31 141 -176 141z" glyph-name="ecaron" horiz-adv-x="1167" unicode="ě"/><glyph d="M839.5 1559q-147.5 0 -237.5 77.5t-102 194.5q-4 31 28 31h138q27 0 32 -29q12 -37 48 -63.5t93.5 -26.5t93.5 26.5t46 63.5q6 29 33 29h137q31 0 29 -31q-12 -117 -101.5 -194.5t-237 -77.5zM1479 836q31 0 30 -31v-152q0 -289 -179 -484.5t-476 -195.5 q-315 0 -535.5 217.5t-220.5 526.5q0 307 218.5 520t527.5 213q313 0 510 -213q18 -18 0 -43l-178 -193q-16 -25 -43 -2q-125 109 -293 109q-162 0 -271.5 -112.5t-109.5 -278.5q0 -172 107.5 -286t285.5 -114q145 0 229 68t90 164h-315q-31 0 -31 31v225q0 31 31 31h623z " glyph-name="Gbreve" horiz-adv-x="1597" unicode="Ğ"/><glyph d="M641 1128q-147 0 -237.5 78t-102.5 195q-2 31 29 31h137q27 0 33 -29q12 -37 48 -63.5t93 -26.5t93 26.5t46 63.5q6 29 33 29h137q33 0 29 -31q-12 -117 -101.5 -195t-236.5 -78zM1130 1004q31 0 31 -31v-967q0 -117 -51 -201t-135 -128t-171 -63.5t-181 -19.5 q-270 0 -461 138q-18 16 -6 41l90 159q16 27 41 13q135 -78 307 -78q96 0 177 39t81 133v80q-121 -127 -283 -127q-205 0 -343 151.5t-138 366.5t138.5 366.5t342.5 151.5q156 0 277 -125l4 70q4 31 31 31h249zM612 301q86 0 143.5 63.5t57.5 147.5q0 82 -57.5 144.5 t-143.5 62.5t-142 -60.5t-56 -146.5q0 -88 57 -149.5t141 -61.5z" glyph-name="gbreve" horiz-adv-x="1277" unicode="ğ"/><glyph d="M839.5 1542q-67.5 0 -115.5 48t-48 120q0 68 48 116t115.5 48t116 -47t48.5 -117q0 -72 -48.5 -120t-116 -48zM1479 836q31 0 30 -31v-152q0 -289 -179 -484.5t-476 -195.5q-315 0 -535.5 217.5t-220.5 526.5q0 307 218.5 520t527.5 213q313 0 510 -213q18 -18 0 -43 l-178 -193q-16 -25 -43 -2q-125 109 -293 109q-162 0 -271.5 -112.5t-109.5 -278.5q0 -172 107.5 -286t285.5 -114q145 0 229 68t90 164h-315q-31 0 -31 31v225q0 31 31 31h623z" glyph-name="Gdotaccent" horiz-adv-x="1597" unicode="Ġ"/><glyph d="M641 1112q-68 0 -116 48t-48 120q0 68 48 116t116 48t116 -47t48 -117q0 -72 -48 -120t-116 -48zM1130 1004q31 0 31 -31v-967q0 -117 -51 -201t-135 -128t-171 -63.5t-181 -19.5q-270 0 -461 138q-18 16 -6 41l90 159q16 27 41 13q135 -78 307 -78q96 0 177 39t81 133 v80q-121 -127 -283 -127q-205 0 -343 151.5t-138 366.5t138.5 366.5t342.5 151.5q156 0 277 -125l4 70q4 31 31 31h249zM612 301q86 0 143.5 63.5t57.5 147.5q0 82 -57.5 144.5t-143.5 62.5t-142 -60.5t-56 -146.5q0 -88 57 -149.5t141 -61.5z" glyph-name="gdotaccent" horiz-adv-x="1277" unicode="ġ"/><glyph d="M1479 836q31 0 30 -31v-152q0 -289 -179 -484.5t-476 -195.5q-315 0 -535.5 217.5t-220.5 526.5q0 307 218.5 520t527.5 213q313 0 510 -213q18 -18 0 -43l-178 -193q-16 -25 -43 -2q-125 109 -293 109q-162 0 -271.5 -112.5t-109.5 -278.5q0 -172 107.5 -286t285.5 -114 q145 0 229 68t90 164h-315q-31 0 -31 31v225q0 31 31 31h623zM813 -78q78 0 128 -57.5t50 -155.5q0 -225 -223 -448l-80 47q78 117 90 256q-63 12 -107 62t-44 116q0 74 55 127t131 53z" glyph-name="Gcommaaccent" horiz-adv-x="1597" unicode="Ģ"/><glyph d="M614 1118q-78 0 -128 57.5t-50 155.5q0 225 223 449l80 -47q-78 -117 -90 -256q63 -12 107.5 -62.5t44.5 -116.5q0 -74 -55.5 -127t-131.5 -53zM1130 1004q31 0 31 -31v-967q0 -117 -51 -201t-135 -128t-171 -63.5t-181 -19.5q-270 0 -461 138q-18 16 -6 41l90 159 q16 27 41 13q135 -78 307 -78q96 0 177 39t81 133v80q-121 -127 -283 -127q-205 0 -343 151.5t-138 366.5t138.5 366.5t342.5 151.5q156 0 277 -125l4 70q4 31 31 31h249zM612 301q86 0 143.5 63.5t57.5 147.5q0 82 -57.5 144.5t-143.5 62.5t-142 -60.5t-56 -146.5 q0 -88 57 -149.5t141 -61.5z" glyph-name="gcommaaccent" horiz-adv-x="1257" unicode="ģ"/><glyph d="M1274 1434q31 0 31 -31v-1372q0 -31 -31 -31h-289q-31 0 -31 31v516h-465v-516q0 -31 -30 -31h-289q-31 0 -31 31v1372q0 31 31 31h289q31 0 30 -31v-172h465v172q0 31 31 31h289zM489 854h465v98h-465v-98z" glyph-name="Hbar" horiz-adv-x="1441" unicode="Ħ"/><glyph d="M786 1026q156 0 261.5 -121t105.5 -317v-557q0 -31 -31 -31h-276q-31 0 -31 31v485q0 109 -47 152t-113 43q-82 0 -127 -60.5t-45 -111.5v-508q0 -31 -30 -31h-277q-31 0 -31 31v1011h-84q-31 0 -30 31v197q0 31 30 30h84v164q0 31 31 31h277q31 0 30 -31v-164h228 q31 0 30 -30v-197q0 -31 -30 -31h-228v-192q106 176 303 176z" glyph-name="hbar" horiz-adv-x="1249" unicode="ħ"/><glyph d="M637 1860q31 0 31 -31v-197q0 -31 -31 -30h-649q-31 0 -31 30v197q0 31 31 31h649zM139 1403q0 31 31 31h289q31 0 30 -31v-1372q0 -31 -30 -31h-289q-31 0 -31 31v1372z" glyph-name="Imacron" horiz-adv-x="626" unicode="Ī"/><glyph d="M602 1430q31 0 31 -31v-197q0 -31 -31 -31h-649q-31 0 -31 31v197q0 31 31 31h649zM109 973q0 31 30 31h277q31 0 30 -31v-942q0 -31 -30 -31h-277q-31 0 -30 31v942z" glyph-name="imacron" horiz-adv-x="552" unicode="ī"/><glyph d="M278.5 1112q-67.5 0 -115.5 48t-48 120q0 68 48 116t115.5 48t115.5 -47t48 -117q0 -72 -48 -120t-115.5 -48zM416 1004q31 0 30 -31v-942q0 -31 -30 -31q-78 0 -120 -43t-42 -98q0 -31 26.5 -52.5t88.5 -9.5v-203q-49 -20 -115 -21t-126 17.5t-102 71.5t-42 131 q0 129 127 223q0 2 -1 6.5t-1 8.5v942q0 31 30 31h277z" glyph-name="iogonek" horiz-adv-x="552" unicode="į"/><glyph d="M313.5 1542q-67.5 0 -115.5 48t-48 120q0 68 48 116t115.5 48t115.5 -47t48 -117q0 -72 -48 -120t-115.5 -48zM139 1403q0 31 31 31h289q31 0 30 -31v-1372q0 -31 -30 -31h-289q-31 0 -31 31v1372z" glyph-name="Idotaccent" horiz-adv-x="626" unicode="İ"/><glyph d="M109 973q0 31 30 31h277q31 0 30 -31v-942q0 -31 -30 -31h-277q-31 0 -30 31v942z" glyph-name="dotlessi" horiz-adv-x="552" unicode="ı"/><glyph d="M139 1403q0 31 31 31h289q31 0 30 -31v-1372q0 -31 -30 -31h-289q-31 0 -31 31v1372zM877 385q12 20 45 4q6 -2 24.5 -14.5t31.5 -19.5t35.5 -15t47 -13t53.5 -5q190 0 191 241v840q0 31 30 31h289q31 0 31 -31v-852q0 -291 -142.5 -430t-388.5 -139q-262 0 -395 155 q-16 18 2 43z" glyph-name="IJ" horiz-adv-x="1792" unicode="Ĳ"/><glyph d="M297 1167q-76 0 -127 52.5t-51 126t51 126t127 52.5q74 0 125 -52.5t51 -126t-51 -126t-125 -52.5zM964.5 1167q-73.5 0 -126 52.5t-52.5 126t52.5 126t126 52.5t126 -52.5t52.5 -126t-52.5 -126t-126 -52.5zM127 973q0 31 31 31h276q31 0 31 -31v-942q0 -31 -31 -31 h-276q-31 0 -31 31v942zM829 1004h277q31 0 31 -31v-946q0 -207 -123 -316.5t-328 -116.5q-25 0 -27 15l-88 280q-8 23 15 23q84 8 148.5 51t64.5 135v875q-1 31 30 31z" glyph-name="ij" horiz-adv-x="1259" unicode="ĳ"/><glyph d="M1358 37q10 -16 5 -26.5t-24 -10.5h-340q-25 0 -36 18l-373 527l-101 -117v-397q0 -31 -30 -31h-289q-31 0 -31 31v1372q0 31 31 31h289q31 0 30 -31v-510l422 524q14 16 37 17h357q20 0 24 -11.5t-8 -25.5l-498 -580zM827 -78q78 0 128.5 -57.5t50.5 -155.5 q0 -225 -224 -448l-80 47q78 117 91 256q-63 12 -107.5 62t-44.5 116q0 74 55 127t131 53z" glyph-name="Kcommaaccent" horiz-adv-x="1628" unicode="Ķ"/><glyph d="M1176 37q10 -16 5 -26.5t-24 -10.5h-295q-25 0 -37 18l-264 351l-104 -113v-225q0 -31 -31 -31h-276q-31 0 -31 31v1433q0 31 31 31h276q31 0 31 -31v-798l293 321q14 16 36 17h314q20 0 25 -11.5t-9 -25.5l-348 -375zM637 -78q78 0 128 -57.5t50 -155.5 q0 -225 -223 -448l-80 47q78 117 90 256q-63 12 -107 62t-44 116q0 74 55 127t131 53z" glyph-name="kcommaaccent" horiz-adv-x="1245" unicode="ķ"/><glyph d="M227 1538q-41 0 -24 35l123 258q10 25 34 24h252q41 0 25 -34l-123 -258q-10 -25 -35 -25h-252zM911 307q31 0 31 -31v-245q0 -31 -31 -31h-741q-31 0 -31 31v1372q0 31 31 31h289q31 0 30 -31v-1096h422z" glyph-name="Lacute" horiz-adv-x="1019" unicode="Ĺ"/><glyph d="M555 1921q41 0 25 -35l-123 -258q-10 -25 -35 -24h-252q-41 0 -25 34l123 258q10 25 35 25h252zM119 1464q0 31 31 31h276q31 0 31 -31v-1433q0 -31 -31 -31h-276q-31 0 -31 31v1433z" glyph-name="lacute" horiz-adv-x="573" unicode="ĺ"/><glyph d="M911 307q31 0 31 -31v-245q0 -31 -31 -31h-741q-31 0 -31 31v1372q0 31 31 31h289q31 0 30 -31v-1096h422zM522 -78q78 0 128 -57.5t50 -155.5q0 -225 -223 -448l-80 47q78 117 90 256q-63 12 -107 62t-44 116q0 74 55 127t131 53z" glyph-name="Lcommaaccent" horiz-adv-x="1040" unicode="Ļ"/><glyph d="M150 0q-31 0 -31 31v1433q0 31 31 31h276q31 0 31 -31v-1433q0 -31 -31 -31h-276zM295 -78q78 0 128 -57.5t50 -155.5q0 -225 -223 -448l-80 47q78 117 90 256q-63 12 -107 62t-44 116q0 74 55 127t131 53z" glyph-name="lcommaaccent" horiz-adv-x="573" unicode="ļ"/><glyph d="M774 1186q-63 12 -107 62t-44 116q0 74 55 127t131 53q78 0 128 -57t50 -156q0 -225 -223 -448l-80 47q78 117 90 256zM911 307q31 0 31 -31v-245q0 -31 -31 -31h-741q-31 0 -31 31v1372q0 31 31 31h289q31 0 30 -31v-1096h422z" glyph-name="Lcaron" horiz-adv-x="1019" unicode="Ľ"/><glyph d="M748 1532q78 0 128 -57.5t50 -155.5q0 -225 -224 -449l-79 48q78 117 90 256q-63 12 -107.5 62t-44.5 116q0 74 55.5 127t131.5 53zM426 1495q31 0 31 -31v-1433q0 -31 -31 -31h-276q-31 0 -31 31v1433q0 31 31 31h276z" glyph-name="lcaron" horiz-adv-x="970" unicode="ľ"/><glyph d="M911 307q31 0 31 -31v-245q0 -31 -31 -31h-741q-31 0 -31 31v1372q0 31 31 31h289q31 0 30 -31v-1096h422zM872.5 926q73.5 0 126 -52.5t52.5 -126t-52.5 -126t-126 -52.5t-126 52.5t-52.5 126t52.5 126t126 52.5z" glyph-name="Ldot" horiz-adv-x="1077" unicode="Ŀ"/><glyph d="M119 1464q0 31 31 31h276q31 0 31 -31v-1433q0 -31 -31 -31h-276q-31 0 -31 31v1433zM714.5 565q-73.5 0 -125.5 52.5t-52 126t52 126t125.5 52.5t126 -52.5t52.5 -126t-52.5 -126t-126 -52.5z" glyph-name="ldot" horiz-adv-x="958" unicode="ŀ"/><glyph d="M961 307q31 0 30 -31v-245q0 -31 -30 -31h-742q-31 0 -31 31v370l-90 -88q-16 -14 -26.5 -9t-10.5 26v223q0 23 17 39l110 108v703q0 31 31 31h289q31 0 31 -31v-359l172 168q14 14 25.5 9.5t11.5 -25.5v-221q0 -23 -17 -39l-192 -188v-441h422z" glyph-name="Lslash" horiz-adv-x="1067" unicode="Ł"/><glyph d="M627 1157v-287l-111 -116v-723q0 -31 -31 -31h-276q-31 0 -31 31v366l-86 -90v289l86 90v778q0 31 31 31h276q31 0 31 -31v-422l109 115h2z" glyph-name="lslash" horiz-adv-x="718" unicode="ł"/><glyph d="M623 1542q-41 0 -25 35l123 258q10 25 35 25h252q41 0 24 -35l-123 -258q-10 -25 -35 -25h-251zM1313 1434q31 0 30 -31v-1372q0 -31 -30 -31h-322q-25 0 -37 20l-465 840v-829q0 -31 -30 -31h-289q-31 0 -31 31v1372q0 31 31 31h322q25 0 36 -21l465 -842v832 q0 31 31 31h289z" glyph-name="Nacute" horiz-adv-x="1480" unicode="Ń"/><glyph d="M504 1112q-41 0 -25 35l123 258q10 25 35 25h252q41 0 24 -35l-122 -258q-10 -25 -35 -25h-252zM760 1026q156 0 261 -121t105 -317v-557q0 -31 -30 -31h-277q-31 0 -31 31v485q0 109 -47 152t-112 43q-82 0 -127 -60.5t-45 -111.5v-508q0 -31 -31 -31h-276q-31 0 -31 31 v942q0 31 31 31h268q27 0 31 -31l8 -123q106 176 303 176z" glyph-name="nacute" horiz-adv-x="1245" unicode="ń"/><glyph d="M1313 1434q31 0 30 -31v-1372q0 -31 -30 -31h-322q-25 0 -37 20l-465 840v-829q0 -31 -30 -31h-289q-31 0 -31 31v1372q0 31 31 31h322q25 0 36 -21l465 -842v832q0 31 31 31h289zM748 -78q78 0 128 -57.5t50 -155.5q0 -225 -224 -448l-79 47q78 117 90 256 q-63 12 -107.5 62t-44.5 116q0 74 55.5 127t131.5 53z" glyph-name="Ncommaaccent" horiz-adv-x="1480" unicode="Ņ"/><glyph d="M760 1026q156 0 261 -121t105 -317v-557q0 -31 -30 -31h-277q-31 0 -31 31v485q0 109 -47 152t-112 43q-82 0 -127 -60.5t-45 -111.5v-508q0 -31 -31 -31h-276q-31 0 -31 31v942q0 31 31 31h268q27 0 31 -31l8 -123q106 176 303 176zM629 -78q78 0 128 -57.5t50 -155.5 q0 -225 -223 -448l-80 47q78 117 90 256q-63 12 -107.5 62t-44.5 116q0 74 55.5 127t131.5 53z" glyph-name="ncommaaccent" horiz-adv-x="1245" unicode="ņ"/><glyph d="M608 1593l-207 230q-12 12 -6 24.5t27 12.5h172q23 0 37 -17l110 -131l111 131q14 16 37 17h172q20 0 25.5 -12.5t-7.5 -24.5l-205 -230q-14 -16 -36 -16h-193q-23 0 -37 16zM1313 1434q31 0 30 -31v-1372q0 -31 -30 -31h-322q-25 0 -37 20l-465 840v-829q0 -31 -30 -31 h-289q-31 0 -31 31v1372q0 31 31 31h322q25 0 36 -21l465 -842v832q0 31 31 31h289z" glyph-name="Ncaron" horiz-adv-x="1480" unicode="Ň"/><glyph d="M489 1163l-206 230q-12 12 -6 24.5t26 12.5h172q23 0 37 -17l111 -131l110 131q14 16 37 17h172q20 0 25.5 -12.5t-6.5 -24.5l-205 -230q-14 -16 -37 -16h-193q-23 0 -37 16zM760 1026q156 0 261 -121t105 -317v-557q0 -31 -30 -31h-277q-31 0 -31 31v485q0 109 -47 152 t-112 43q-82 0 -127 -60.5t-45 -111.5v-508q0 -31 -31 -31h-276q-31 0 -31 31v942q0 31 31 31h268q27 0 31 -31l8 -123q106 176 303 176z" glyph-name="ncaron" horiz-adv-x="1245" unicode="ň"/><glyph d="M1313 1434q31 0 30 -31v-1372q0 -16 -10 -23q-33 -221 -170 -326.5t-350 -105.5q-262 0 -395 156q-16 18 2 43l145 205q12 20 45 4q6 -2 24.5 -14.5t32 -19.5t36 -15.5t47 -13.5t53.5 -5q119 0 162 92q-8 4 -11 12l-465 840v-829q0 -31 -30 -31h-289q-31 0 -31 31v1372 q0 31 31 31h322q25 0 36 -21l465 -842v832q0 31 31 31h289z" glyph-name="Eng" horiz-adv-x="1460" unicode="Ŋ"/><glyph d="M760 1026q156 0 261 -121t105 -317v-557q0 -14 -10 -25q-6 -197 -129 -304.5t-321 -107.5q-18 0 -27 15l-88 280q-8 23 14 23q78 0 145.5 46t67.5 140v113h10v305q0 109 -47 152t-112 43q-82 0 -127 -60.5t-45 -111.5v-508q0 -31 -31 -31h-276q-31 0 -31 31v942 q0 31 31 31h268q27 0 31 -31l8 -123q106 176 303 176z" glyph-name="eng" horiz-adv-x="1224" unicode="ŋ"/><glyph d="M1161 1860q31 0 31 -31v-197q0 -31 -31 -30h-649q-31 0 -31 30v197q0 31 31 31h649zM837.5 -27q-305.5 0 -522.5 215t-217 522.5t217 523.5t522.5 216t522.5 -216t217 -523.5t-217 -522.5t-522.5 -215zM837.5 317q163.5 0 273.5 113t110 281t-110 282.5t-273.5 114.5 t-273 -114.5t-109.5 -282.5t109.5 -281t273 -113z" glyph-name="Omacron" horiz-adv-x="1675" unicode="Ō"/><glyph d="M938 1430q31 0 31 -31v-197q0 -31 -31 -31h-649q-31 0 -31 31v197q0 31 31 31h649zM614 -20q-219 0 -372.5 152.5t-153.5 369.5q0 219 153.5 371.5t372.5 152.5q217 0 372 -152.5t155 -371.5q0 -217 -155 -369.5t-372 -152.5zM614 295q84 0 142.5 59.5t58.5 147.5 q0 90 -58.5 150.5t-142.5 60.5t-142 -60.5t-58 -150.5q0 -88 58 -147.5t142 -59.5z" glyph-name="omacron" horiz-adv-x="1226" unicode="ō"/><glyph d="M991 1860q41 0 25 -35l-123 -258q-10 -25 -35 -25h-252q-41 0 -24 35l123 258q10 25 34 25h252zM1411 1860q41 0 25 -35l-123 -258q-10 -25 -35 -25h-252q-41 0 -25 35l123 258q10 25 35 25h252zM837.5 -27q-305.5 0 -522.5 215t-217 522.5t217 523.5t522.5 216 t522.5 -216t217 -523.5t-217 -522.5t-522.5 -215zM837.5 317q163.5 0 273.5 113t110 281t-110 282.5t-273.5 114.5t-273 -114.5t-109.5 -282.5t109.5 -281t273 -113z" glyph-name="Ohungarumlaut" horiz-adv-x="1675" unicode="Ő"/><glyph d="M768 1430q41 0 25 -35l-123 -258q-10 -25 -35 -25h-252q-41 0 -25 35l123 258q10 25 35 25h252zM1188 1430q41 0 24 -35l-122 -258q-10 -25 -35 -25h-252q-41 0 -25 35l123 258q10 25 35 25h252zM614 -20q-219 0 -372.5 152.5t-153.5 369.5q0 219 153.5 371.5 t372.5 152.5q217 0 372 -152.5t155 -371.5q0 -217 -155 -369.5t-372 -152.5zM614 295q84 0 142.5 59.5t58.5 147.5q0 90 -58.5 150.5t-142.5 60.5t-142 -60.5t-58 -150.5q0 -88 58 -147.5t142 -59.5z" glyph-name="ohungarumlaut" horiz-adv-x="1226" unicode="ő"/><glyph d="M2040 307q31 0 31 -31v-245q0 -31 -31 -31h-783q-31 0 -30 31v53q-178 -111 -389 -111q-305 0 -522.5 215t-217.5 522.5t217 523.5t523 216q211 0 389 -111v64q0 31 30 31h781q31 0 30 -31v-246q0 -31 -30 -31h-461v-245h432q31 0 31 -31v-246q0 -31 -31 -31h-432v-266 h463zM837.5 317q163.5 0 273.5 113t110 281t-110 282.5t-273.5 114.5t-273 -114.5t-109.5 -282.5t109.5 -281t273 -113z" glyph-name="OE" horiz-adv-x="2183" unicode="Œ"/><glyph d="M1808 520q0 -72 -15 -102.5t-62 -30.5h-578q43 -135 231 -135q92 0 181 53q27 16 45 -4l119 -117q20 -20 -5 -45q-158 -154 -370 -153q-225 0 -377 139q-152 -145 -363 -145q-219 0 -372.5 152.5t-153.5 369.5q0 219 153.5 371.5t372.5 152.5q209 0 361 -141 q145 139 352 139q215 0 348 -146.5t133 -357.5zM1331 739q-154 0 -184 -141h360q-31 141 -176 141zM614 295q84 0 142.5 59.5t58.5 147.5q0 90 -58.5 150.5t-142.5 60.5t-142 -60.5t-58 -150.5q0 -88 58 -147.5t142 -59.5z" glyph-name="oe" horiz-adv-x="1873" unicode="œ"/><glyph d="M489 1542q-41 0 -24 35l123 258q10 25 35 25h251q41 0 25 -35l-123 -258q-10 -25 -35 -25h-252zM1194 37q23 -37 -20 -37h-306q-25 0 -37 20l-286 451h-56v-440q0 -31 -30 -31h-289q-31 0 -31 31v1372q0 31 31 31h446q258 0 400.5 -131.5t142.5 -350.5 q0 -154 -71.5 -266.5t-206.5 -167.5zM489 1126v-348h121q88 0 151.5 40t63.5 134.5t-62.5 134t-152.5 39.5h-121z" glyph-name="Racute" horiz-adv-x="1296" unicode="Ŕ"/><glyph d="M301 1112q-41 0 -25 35l123 258q10 25 35 25h252q41 0 25 -35l-123 -258q-10 -25 -35 -25h-252zM856 973q23 -23 12 -49l-75 -197q-10 -35 -52 -25q-45 16 -86 17q-94 0 -146 -60.5t-52 -152.5v-475q0 -31 -31 -31h-276q-31 0 -31 31v942q0 31 31 31h266q27 0 30 -31 l9 -123q88 176 260 176q84 0 141 -53z" glyph-name="racute" horiz-adv-x="894" unicode="ŕ"/><glyph d="M1194 37q23 -37 -20 -37h-306q-25 0 -37 20l-286 451h-56v-440q0 -31 -30 -31h-289q-31 0 -31 31v1372q0 31 31 31h446q258 0 400.5 -131.5t142.5 -350.5q0 -154 -71.5 -266.5t-206.5 -167.5zM489 1126v-348h121q88 0 151.5 40t63.5 134.5t-62.5 134t-152.5 39.5h-121z M614 -78q78 0 128.5 -57.5t50.5 -155.5q0 -225 -224 -448l-80 47q78 117 91 256q-63 12 -107.5 62t-44.5 116q0 74 55 127t131 53z" glyph-name="Rcommaaccent" horiz-adv-x="1296" unicode="Ŗ"/><glyph d="M856 973q23 -23 12 -49l-75 -197q-10 -35 -52 -25q-45 16 -86 17q-94 0 -146 -60.5t-52 -152.5v-475q0 -31 -31 -31h-276q-31 0 -31 31v942q0 31 31 31h266q27 0 30 -31l9 -123q88 176 260 176q84 0 141 -53zM291 -78q78 0 128 -57.5t50 -155.5q0 -225 -223 -448l-80 47 q78 117 90 256q-63 12 -107.5 62t-44.5 116q0 74 55.5 127t131.5 53z" glyph-name="rcommaaccent" horiz-adv-x="894" unicode="ŗ"/><glyph d="M475 1593l-207 230q-12 12 -6 24.5t27 12.5h172q23 0 37 -17l110 -131l111 131q14 16 37 17h172q20 0 25 -12.5t-7 -24.5l-205 -230q-14 -16 -36 -16h-193q-23 0 -37 16zM1194 37q23 -37 -20 -37h-306q-25 0 -37 20l-286 451h-56v-440q0 -31 -30 -31h-289q-31 0 -31 31 v1372q0 31 31 31h446q258 0 400.5 -131.5t142.5 -350.5q0 -154 -71.5 -266.5t-206.5 -167.5zM489 1126v-348h121q88 0 151.5 40t63.5 134.5t-62.5 134t-152.5 39.5h-121z" glyph-name="Rcaron" horiz-adv-x="1296" unicode="Ř"/><glyph d="M324 1147q-23 0 -37 16l-207 230q-12 12 -6 24.5t26 12.5h172q23 0 37 -17l111 -131l110 131q14 16 37 17h172q20 0 25.5 -12.5t-6.5 -24.5l-205 -230q-14 -16 -37 -16h-192zM856 973q23 -23 12 -49l-75 -197q-10 -35 -52 -25q-45 16 -86 17q-94 0 -146 -60.5t-52 -152.5 v-475q0 -31 -31 -31h-276q-31 0 -31 31v942q0 31 31 31h266q27 0 30 -31l9 -123q88 176 260 176q84 0 141 -53z" glyph-name="rcaron" horiz-adv-x="894" unicode="ř"/><glyph d="M854 1860q41 0 25 -35l-123 -258q-10 -25 -35 -25h-252q-41 0 -25 35l123 258q10 25 35 25h252zM479 1020q0 -53 65.5 -90t159 -66.5t186.5 -72.5t158.5 -138.5t65.5 -234.5q0 -211 -155.5 -327t-358.5 -116q-154 0 -292 68t-212 160q-16 20 0 43l158 178q20 25 47 4 q152 -123 309 -123q68 0 115 30t47 87q0 53 -65.5 92t-158.5 73t-186.5 80t-159 138t-65.5 223q0 195 139.5 308.5t327.5 113.5q250 0 455 -188q18 -18 4 -43l-150 -187q-18 -25 -43 -8q-82 53 -136 74.5t-118 21.5q-68 0 -102.5 -29.5t-34.5 -70.5z" glyph-name="Sacute" horiz-adv-x="1200" unicode="Ś"/><glyph d="M743 1430q41 0 25 -35l-123 -258q-10 -25 -35 -25h-252q-41 0 -24 35l123 258q10 25 35 25h251zM428 707q0 -33 46 -53.5t111.5 -37t132 -45t113 -96t46.5 -172.5q0 -147 -125 -235t-279 -88q-123 0 -226.5 49t-162.5 118q-14 18 2 43l100 144q12 20 45 2 q129 -76 232 -76q86 0 86 49q0 31 -46 51.5t-111.5 40t-131 49t-112 94t-46.5 158.5q0 150 107.5 237t253.5 87q229 0 358 -152q16 -20 -2 -43l-102 -137q-10 -14 -45 2q-113 63 -172 64q-39 0 -55.5 -17.5t-16.5 -35.5z" glyph-name="sacute" horiz-adv-x="954" unicode="ś"/><glyph d="M1114 418q0 -190 -130 -304t-314 -134l-52 -43q78 -6 135.5 -52.5t57.5 -122.5q0 -133 -113.5 -185t-273.5 -28q-18 4 -18 23v115q0 20 22 20q164 -18 164 41q0 14 -20.5 24.5t-56.5 12.5t-85 -14q-25 -10 -24 14v125q0 14 10 24l61 54q-119 23 -221 82t-160 133 q-16 20 0 43l158 178q20 25 47 4q152 -123 309 -123q68 0 115 30t47 87q0 53 -65.5 92t-158.5 73t-186.5 80t-159 138t-65.5 223q0 195 139.5 308.5t327.5 113.5q250 0 455 -188q18 -18 4 -43l-150 -187q-18 -25 -43 -8q-82 53 -136 74.5t-118 21.5q-68 0 -102.5 -29.5 t-34.5 -70.5q0 -53 65.5 -90t159 -66.5t186.5 -72.5t158.5 -138.5t65.5 -234.5z" glyph-name="Scedilla" horiz-adv-x="1200" unicode="Ş"/><glyph d="M877 303q0 -121 -88.5 -204t-217.5 -109l-63 -53q78 -6 135 -52.5t57 -122.5q0 -133 -113.5 -185t-273.5 -28q-18 4 -18 23v115q0 20 22 20q164 -18 164 41q0 14 -20.5 24.5t-56 12.5t-85.5 -14q-25 -10 -24 14v125q0 14 10 24l64 56q-176 35 -285 157q-14 18 2 43 l100 144q12 20 45 2q129 -76 232 -76q86 0 86 49q0 31 -46 51.5t-111.5 40t-131 49t-112 94t-46.5 158.5q0 150 107.5 237t253.5 87q229 0 358 -152q16 -20 -2 -43l-102 -137q-10 -14 -45 2q-113 63 -172 64q-39 0 -55.5 -17.5t-16.5 -35.5q0 -33 46 -53.5t111.5 -37 t132 -45t113 -96.5t46.5 -172z" glyph-name="scedilla" horiz-adv-x="954" unicode="ş"/><glyph d="M684 1577h-192q-23 0 -37 16l-207 230q-12 12 -6 24.5t26 12.5h172q23 0 37 -17l111 -131l110 131q14 16 37 17h172q20 0 25.5 -12.5t-6.5 -24.5l-205 -230q-14 -16 -37 -16zM479 1020q0 -53 65.5 -90t159 -66.5t186.5 -72.5t158.5 -138.5t65.5 -234.5 q0 -211 -155.5 -327t-358.5 -116q-154 0 -292 68t-212 160q-16 20 0 43l158 178q20 25 47 4q152 -123 309 -123q68 0 115 30t47 87q0 53 -65.5 92t-158.5 73t-186.5 80t-159 138t-65.5 223q0 195 139.5 308.5t327.5 113.5q250 0 455 -188q18 -18 4 -43l-150 -187 q-18 -25 -43 -8q-82 53 -136 74.5t-118 21.5q-68 0 -102.5 -29.5t-34.5 -70.5z" glyph-name="Scaron" horiz-adv-x="1200" unicode="Š"/><glyph d="M573 1147h-192q-23 0 -37 16l-207 230q-12 12 -6 24.5t27 12.5h172q23 0 37 -17l110 -131l111 131q14 16 37 17h172q20 0 25 -12.5t-7 -24.5l-205 -230q-14 -16 -37 -16zM428 707q0 -33 46 -53.5t111.5 -37t132 -45t113 -96t46.5 -172.5q0 -147 -125 -235t-279 -88 q-123 0 -226.5 49t-162.5 118q-14 18 2 43l100 144q12 20 45 2q129 -76 232 -76q86 0 86 49q0 31 -46 51.5t-111.5 40t-131 49t-112 94t-46.5 158.5q0 150 107.5 237t253.5 87q229 0 358 -152q16 -20 -2 -43l-102 -137q-10 -14 -45 2q-113 63 -172 64q-39 0 -55.5 -17.5 t-16.5 -35.5z" glyph-name="scaron" horiz-adv-x="954" unicode="š"/><glyph d="M1081 1434q31 0 31 -31v-246q0 -31 -31 -31h-301v-1095q0 -31 -30 -31h-39l-76 -63q78 -6 135 -52.5t57 -122.5q0 -133 -113.5 -185t-273.5 -28q-18 4 -18 23v115q0 20 22 20q164 -18 164 41q0 14 -20.5 24.5t-56 12.5t-85.5 -14q-25 -10 -24 14v125q0 14 10 24l76 66 h-47q-31 0 -31 31v1095h-301q-31 0 -31 31v246q0 31 31 31h952z" glyph-name="Tcommaaccent" horiz-adv-x="1208" unicode="Ţ"/><glyph d="M764 1004q31 0 31 -31v-211q0 -31 -31 -31h-164v-700q0 -31 -31 -31h-30l-72 -59q78 -6 135 -52.5t57 -121.5q0 -133 -113.5 -185.5t-273.5 -27.5q-18 4 -18 22v115q0 20 22 20q164 -18 164 41q0 14 -20.5 24.5t-56 12.5t-84.5 -14q-25 -10 -25 14v125q0 14 10 25l72 61 h-43q-31 0 -31 31v700h-164q-31 0 -30 31v211q0 31 30 31h164v276q0 31 31 31h276q31 0 31 -31v-276h164z" glyph-name="tcommaaccent" horiz-adv-x="860" unicode="ţ"/><glyph d="M700 1577h-192q-23 0 -37 16l-207 230q-12 12 -6 24.5t27 12.5h172q23 0 37 -17l110 -131l111 131q14 16 37 17h172q20 0 25 -12.5t-7 -24.5l-205 -230q-14 -16 -37 -16zM1081 1434q31 0 31 -31v-246q0 -31 -31 -31h-301v-1095q0 -31 -30 -31h-289q-31 0 -31 31v1095 h-301q-31 0 -31 31v246q0 31 31 31h952z" glyph-name="Tcaron" horiz-adv-x="1208" unicode="Ť"/><glyph d="M1067 1432q41 0 25 -35l-123 -258q-10 -25 -35 -25h-252q-41 0 -25 35l123 258q10 25 35 25h252zM764 1004q31 0 31 -31v-211q0 -31 -31 -31h-164v-700q0 -31 -31 -31h-276q-31 0 -31 31v700h-164q-31 0 -30 31v211q0 31 30 31h164v276q0 31 31 31h276q31 0 31 -31v-276 h164z" glyph-name="tcaron" horiz-adv-x="1126" unicode="ť"/><glyph d="M1081 1434q31 0 31 -31v-246q0 -31 -31 -31h-301v-122h140q31 0 30 -31v-197q0 -31 -30 -31h-140v-714q0 -31 -30 -31h-289q-31 0 -31 31v714h-160q-31 0 -30 31v197q0 31 30 31h160v122h-301q-31 0 -31 31v246q0 31 31 31h952z" glyph-name="Tbar" horiz-adv-x="1187" unicode="Ŧ"/><glyph d="M764 1004q31 0 31 -31v-211q0 -31 -31 -31h-164v-72h123q31 0 31 -30v-211q0 -31 -31 -31h-123v-356q0 -31 -31 -31h-276q-31 0 -31 31v356h-164q-31 0 -30 31v211q0 31 30 30h164v72h-164q-31 0 -30 31v211q0 31 30 31h164v276q0 31 31 31h276q31 0 31 -31v-276h164z " glyph-name="tbar" horiz-adv-x="819" unicode="ŧ"/><glyph d="M1012 1860q31 0 30 -31v-197q0 -31 -30 -30h-650q-31 0 -30 30v197q0 31 30 31h650zM1219 1434q31 0 30 -31v-844q0 -276 -155.5 -431t-405.5 -155t-404.5 155t-154.5 431v844q0 31 31 31h289q31 0 30 -31v-844q0 -240 209 -240q211 0 211 240v844q0 31 31 31h289z" glyph-name="Umacron" horiz-adv-x="1376" unicode="Ū"/><glyph d="M287 1171q-31 0 -31 31v197q0 31 31 31h649q31 0 31 -31v-197q0 -31 -31 -31h-649zM1085 1004q31 0 31 -31v-942q0 -31 -31 -31h-268q-27 0 -31 31l-8 108q-115 -166 -284.5 -166t-277 120t-107.5 319v561q0 31 30 31h277q31 0 30 -31v-490q0 -106 49.5 -149t112.5 -43 q82 0 126 49t44 115v518q0 31 31 31h276z" glyph-name="umacron" horiz-adv-x="1234" unicode="ū"/><glyph d="M827 1833q6 29 33 29h137q31 0 29 -31q-12 -117 -101 -194.5t-236.5 -77.5t-238 77.5t-102.5 194.5q-4 31 29 31h137q27 0 33 -29q12 -37 48 -63.5t93 -26.5t93 26.5t46 63.5zM1219 1434q31 0 30 -31v-844q0 -276 -155.5 -431t-405.5 -155t-404.5 155t-154.5 431v844 q0 31 31 31h289q31 0 30 -31v-844q0 -240 209 -240q211 0 211 240v844q0 31 31 31h289z" glyph-name="Ubreve" horiz-adv-x="1376" unicode="Ŭ"/><glyph d="M612.5 1128q-147.5 0 -237.5 78t-103 195q-2 31 29 31h137q27 0 33 -29q12 -37 48 -63.5t93.5 -26.5t93 26.5t46.5 63.5q6 29 32 29h138q33 0 28 -31q-12 -117 -101 -195t-236.5 -78zM1085 1004q31 0 31 -31v-942q0 -31 -31 -31h-268q-27 0 -31 31l-8 108 q-115 -166 -284.5 -166t-277 120t-107.5 319v561q0 31 30 31h277q31 0 30 -31v-490q0 -106 49.5 -149t112.5 -43q82 0 126 49t44 115v518q0 31 31 31h276z" glyph-name="ubreve" horiz-adv-x="1234" unicode="ŭ"/><glyph d="M690 1968q92 0 160 -67.5t68 -161.5q0 -92 -68 -160t-160 -68q-98 0 -165.5 68t-67.5 160q0 94 67.5 161.5t165.5 67.5zM688.5 1696q18.5 0 31.5 13t13 31.5t-13 33t-31.5 14.5t-32 -14.5t-13.5 -33t13.5 -31.5t32 -13zM1219 1434q31 0 30 -31v-844q0 -276 -155.5 -431 t-405.5 -155t-404.5 155t-154.5 431v844q0 31 31 31h289q31 0 30 -31v-844q0 -240 209 -240q211 0 211 240v844q0 31 31 31h289z" glyph-name="Uring" horiz-adv-x="1376" unicode="Ů"/><glyph d="M614 1081q-98 0 -165.5 68t-67.5 160q0 94 67.5 161.5t165.5 67.5q92 0 160 -67.5t68 -161.5q0 -92 -68 -160t-160 -68zM612.5 1358q-18.5 0 -32 -14.5t-13.5 -33t13.5 -31.5t32 -13t31.5 13t13 31.5t-13 33t-31.5 14.5zM1085 1004q31 0 31 -31v-942q0 -31 -31 -31h-268 q-27 0 -31 31l-8 108q-115 -166 -284.5 -166t-277 120t-107.5 319v561q0 31 30 31h277q31 0 30 -31v-490q0 -106 49.5 -149t112.5 -43q82 0 126 49t44 115v518q0 31 31 31h276z" glyph-name="uring" horiz-adv-x="1234" unicode="ů"/><glyph d="M842 1860q41 0 24 -35l-123 -258q-10 -25 -34 -25h-252q-41 0 -25 35l123 258q10 25 35 25h252zM1262 1860q41 0 24 -35l-123 -258q-10 -25 -35 -25h-251q-41 0 -25 35l123 258q10 25 35 25h252zM1219 1434q31 0 30 -31v-844q0 -276 -155.5 -431t-405.5 -155t-404.5 155 t-154.5 431v844q0 31 31 31h289q31 0 30 -31v-844q0 -240 209 -240q211 0 211 240v844q0 31 31 31h289z" glyph-name="Uhungarumlaut" horiz-adv-x="1376" unicode="Ű"/><glyph d="M381 1112q-41 0 -25 35l123 258q10 25 35 25h252q41 0 25 -35l-123 -258q-10 -25 -35 -25h-252zM1186 1430q41 0 24 -35l-123 -258q-10 -25 -34 -25h-252q-41 0 -25 35l123 258q10 25 35 25h252zM1085 1004q31 0 31 -31v-942q0 -31 -31 -31h-268q-27 0 -31 31l-8 108 q-115 -166 -284.5 -166t-277 120t-107.5 319v561q0 31 30 31h277q31 0 30 -31v-490q0 -106 49.5 -149t112.5 -43q82 0 126 49t44 115v518q0 31 31 31h276z" glyph-name="uhungarumlaut" horiz-adv-x="1234" unicode="ű"/><glyph d="M1219 1434q31 0 30 -31v-844q0 -221 -103.5 -366.5t-279.5 -196.5q-135 -55 -135 -133q0 -33 26.5 -55.5t88.5 -10.5v-203q-49 -20 -113.5 -21t-125 17.5t-102.5 71.5t-42 131q0 111 96 193q-197 39 -313.5 187.5t-116.5 385.5v844q0 31 31 31h289q31 0 30 -31v-844 q0 -240 209 -240q211 0 211 240v844q0 31 31 31h289z" glyph-name="Uogonek" horiz-adv-x="1355" unicode="Ų"/><glyph d="M1085 1004q31 0 31 -31v-942q0 -31 -31 -31h-2q-76 0 -119.5 -44t-43.5 -97q0 -31 26.5 -52.5t87.5 -9.5v-203q-49 -20 -113.5 -21t-125 17.5t-102.5 71.5t-42 131q0 135 137 230q-2 4 -2 8l-8 108q-115 -166 -284.5 -166t-277 120t-107.5 319v561q0 31 30 31h277 q31 0 30 -31v-490q0 -106 49.5 -149t112.5 -43q82 0 126 49t44 115v518q0 31 31 31h276z" glyph-name="uogonek" horiz-adv-x="1214" unicode="ų"/><glyph d="M844 1577q-20 0 -26.5 12.5t5.5 24.5l207 229q14 16 37 17h193q23 0 36 -17l205 -229q12 -12 7 -24.5t-25 -12.5h-172q-23 0 -37 16l-111 131l-110 -131q-14 -16 -37 -16h-172zM2210 1434q35 0 24 -35l-432 -1374q-8 -25 -39 -25h-278q-27 0 -33 25l-291 882l-293 -882 q-8 -25 -34 -25h-277q-35 0 -41 25l-426 1374q-14 35 25 35h301q27 0 35 -25l249 -940l289 940q2 16 19 23q4 2 14 2h276q10 0 19 -4q8 -6 14 -21l287 -940l256 940q6 25 35 25h301z" glyph-name="Wcircumflex" horiz-adv-x="2322" unicode="Ŵ"/><glyph d="M643 1147q-20 0 -26.5 12t6.5 25l206 229q14 16 37 17h193q23 0 37 -17l204 -229q12 -12 7.5 -24.5t-25.5 -12.5h-172q-23 0 -37 16l-110 131l-111 -131q-14 -16 -37 -16h-172zM1827 1004q37 0 24 -35l-348 -944q-8 -25 -37 -25h-262q-29 0 -37 25l-206 540l-205 -540 q-10 -25 -37 -25h-264q-29 0 -37 25l-346 944q-12 35 24 35h271q29 0 36 -25l195 -582l197 582q6 18 20 20q8 4 16 5h259q8 0 16 -5q14 -2 20 -20l201 -582l191 582q10 25 36 25h273z" glyph-name="wcircumflex" horiz-adv-x="1921" unicode="ŵ"/><glyph d="M367 1577q-20 0 -26.5 12.5t5.5 24.5l207 229q14 16 37 17h192q23 0 37 -17l205 -229q12 -12 7 -24.5t-25 -12.5h-172q-23 0 -37 16l-111 131l-111 -131q-14 -16 -36 -16h-172zM1260 1434q39 0 20 -37l-418 -742v-624q0 -31 -31 -31h-288q-31 0 -31 31v628l-418 738 q-18 37 21 37h303q25 0 37 -21l231 -428l232 428q12 20 36 21h306z" glyph-name="Ycircumflex" horiz-adv-x="1372" unicode="Ŷ"/><glyph d="M717 1430q23 0 37 -17l204 -229q12 -12 7.5 -24.5t-25.5 -12.5h-172q-23 0 -37 16l-110 131l-111 -131q-14 -16 -37 -16h-172q-20 0 -26.5 12t6.5 25l206 229q14 16 37 17h193zM1149 1004q37 0 25 -35l-531 -1334q-8 -25 -37 -24h-270q-41 0 -25 35l148 352l-387 971 q-12 35 24 35h279q27 0 37 -25l209 -580l208 580q10 25 37 25h283z" glyph-name="ycircumflex" horiz-adv-x="1245" unicode="ŷ"/><glyph d="M444.5 1542q-67.5 0 -115.5 48t-48 120q0 68 48 116t115.5 48t115.5 -47t48 -117q0 -72 -48 -120t-115.5 -48zM927.5 1542q-67.5 0 -115.5 48t-48 120q0 70 48 117t115.5 47t116 -48t48.5 -116q0 -72 -48.5 -120t-116 -48zM1260 1434q39 0 20 -37l-418 -742v-624 q0 -31 -31 -31h-288q-31 0 -31 31v628l-418 738q-18 37 21 37h303q25 0 37 -21l231 -428l232 428q12 20 36 21h306z" glyph-name="Ydieresis" horiz-adv-x="1372" unicode="Ÿ"/><glyph d="M897 1860q41 0 25 -35l-123 -258q-10 -25 -35 -25h-252q-41 0 -25 35l123 258q10 25 35 25h252zM1118 307q31 0 31 -31v-245q0 -31 -31 -31h-979q-31 0 -30 31v256q0 18 12 37l631 802h-592q-31 0 -31 31v246q0 31 31 31h938q31 0 30 -31v-256q0 -18 -12 -37l-631 -803 h633z" glyph-name="Zacute" horiz-adv-x="1257" unicode="Ź"/><glyph d="M780 1430q41 0 25 -35l-123 -258q-10 -25 -35 -25h-252q-41 0 -24 35l123 258q10 25 34 25h252zM948 973v-219q0 -25 -14 -39l-449 -443h433q31 0 30 -30v-211q0 -31 -30 -31h-809q-31 0 -31 31v219q0 25 14 39l449 442h-432q-31 0 -31 31v211q0 31 31 31h809 q30 0 30 -31z" glyph-name="zacute" horiz-adv-x="1024" unicode="ź"/><glyph d="M630.5 1542q-67.5 0 -115.5 48t-48 120q0 68 48 116t115.5 48t116 -47t48.5 -117q0 -72 -48.5 -120t-116 -48zM1118 307q31 0 31 -31v-245q0 -31 -31 -31h-979q-31 0 -30 31v256q0 18 12 37l631 802h-592q-31 0 -31 31v246q0 31 31 31h938q31 0 30 -31v-256 q0 -18 -12 -37l-631 -803h633z" glyph-name="Zdotaccent" horiz-adv-x="1257" unicode="Ż"/><glyph d="M514 1112q-68 0 -116 48t-48 120q0 68 48 116t116 48t116 -47t48 -117q0 -72 -48 -120t-116 -48zM948 973v-219q0 -25 -14 -39l-449 -443h433q31 0 30 -30v-211q0 -31 -30 -31h-809q-31 0 -31 31v219q0 25 14 39l449 442h-432q-31 0 -31 31v211q0 31 31 31h809 q30 0 30 -31z" glyph-name="zdotaccent" horiz-adv-x="1024" unicode="ż"/><glyph d="M727 1577h-192q-23 0 -37 16l-207 230q-12 12 -6 24.5t26 12.5h172q23 0 37 -17l111 -131l110 131q14 16 37 17h172q20 0 25.5 -12.5t-6.5 -24.5l-205 -230q-14 -16 -37 -16zM1118 307q31 0 31 -31v-245q0 -31 -31 -31h-979q-31 0 -30 31v256q0 18 12 37l631 802h-592 q-31 0 -31 31v246q0 31 31 31h938q31 0 30 -31v-256q0 -18 -12 -37l-631 -803h633z" glyph-name="Zcaron" horiz-adv-x="1257" unicode="Ž"/><glyph d="M610 1147h-192q-23 0 -37 16l-207 230q-12 12 -6 24.5t27 12.5h172q23 0 36 -17l111 -131l111 131q14 16 37 17h172q20 0 25 -12.5t-7 -24.5l-205 -230q-14 -16 -37 -16zM948 973v-219q0 -25 -14 -39l-449 -443h433q31 0 30 -30v-211q0 -31 -30 -31h-809q-31 0 -31 31 v219q0 25 14 39l449 442h-432q-31 0 -31 31v211q0 31 31 31h809q30 0 30 -31z" glyph-name="zcaron" horiz-adv-x="1024" unicode="ž"/><glyph d="M811 1432q20 -12 20 -37v-244q0 -18 -10 -25.5t-26 0.5q-61 37 -121 37q-45 0 -67.5 -17.5t-27 -38t-4.5 -58.5v-45h213q31 0 31 -31v-211q0 -31 -31 -31h-213v-749q0 -184 -105 -277.5t-282 -93.5q-127 0 -188 35q-20 12 -20 37v243q0 18 10 25.5t26 -0.5 q61 -37 123 -37q63 0 81 28.5t18 88.5v700h-119q-31 0 -31 31v211q0 31 31 31h119v92q0 184 105.5 277t281.5 93q127 1 186 -34z" glyph-name="florin" horiz-adv-x="811" unicode="ƒ"/><glyph d="M608 1593l-207 230q-12 12 -6 24.5t27 12.5h172q23 0 37 -17l110 -131l111 131q14 16 37 17h172q20 0 25.5 -12.5t-7.5 -24.5l-205 -230q-14 -16 -36 -16h-193q-23 0 -37 16zM1395 35q14 -35 -25 -35h-301q-27 0 -35 25l-63 200h-477l-64 -200q-8 -25 -35 -25h-301 q-39 0 -24 35l493 1374q10 25 35 25h262q31 0 39 -25zM584 508h295l-148 463z" glyph-name="uni01CD" horiz-adv-x="1462" unicode="Ǎ"/><glyph d="M479 1163l-207 230q-12 12 -6 24.5t27 12.5h172q23 0 37 -17l110 -131l111 131q14 16 37 17h172q20 0 25.5 -12.5t-7.5 -24.5l-205 -230q-14 -16 -36 -16h-193q-23 0 -37 16zM1122 1004q31 0 31 -31v-942q0 -31 -31 -31h-233q-27 0 -31 31l-10 78q-102 -123 -275 -123 q-209 0 -347 148.5t-138 365.5q0 221 138.5 372.5t346.5 151.5q168 0 275 -135l10 84q4 31 31 31h233zM612 295q92 0 146.5 57.5t54.5 149.5t-55.5 153.5t-145.5 61.5q-86 0 -142 -60.5t-56 -154.5q0 -92 56 -149.5t142 -57.5z" glyph-name="uni01CE" unicode="ǎ"/><glyph d="M410 1577h-193q-23 0 -37 16l-207 230q-12 12 -6 24.5t27 12.5h172q23 0 37 -17l110 -131l111 131q14 16 37 17h172q20 0 25.5 -12.5t-7.5 -24.5l-205 -230q-13 -16 -36 -16zM139 1403q0 31 31 31h289q31 0 30 -31v-1372q0 -31 -30 -31h-289q-31 0 -31 31v1372z" glyph-name="uni01CF" horiz-adv-x="626" unicode="Ǐ"/><glyph d="M375 1147h-193q-23 0 -37 16l-206 230q-12 12 -6 24.5t26 12.5h172q23 0 37 -17l111 -131l110 131q14 16 37 17h172q20 0 25.5 -12.5t-7.5 -24.5l-204 -230q-14 -16 -37 -16zM109 973q0 31 30 31h277q31 0 30 -31v-942q0 -31 -30 -31h-277q-31 0 -30 31v942z" glyph-name="uni01D0" horiz-adv-x="552" unicode="ǐ"/><glyph d="M934 1577h-193q-23 0 -36 16l-207 230q-12 12 -6 24.5t26 12.5h172q23 0 37 -17l111 -131l110 131q14 16 37 17h172q20 0 25.5 -12.5t-6.5 -24.5l-205 -230q-14 -16 -37 -16zM837.5 -27q-305.5 0 -522.5 215t-217 522.5t217 523.5t522.5 216t522.5 -216t217 -523.5 t-217 -522.5t-522.5 -215zM837.5 317q163.5 0 273.5 113t110 281t-110 282.5t-273.5 114.5t-273 -114.5t-109.5 -282.5t109.5 -281t273 -113z" glyph-name="uni01D1" horiz-adv-x="1675" unicode="Ǒ"/><glyph d="M711 1147h-193q-23 0 -37 16l-207 230q-12 12 -6 24.5t27 12.5h172q23 0 37 -17l110 -131l111 131q14 16 37 17h172q20 0 25.5 -12.5t-7.5 -24.5l-204 -230q-14 -16 -37 -16zM614 -20q-219 0 -372.5 152.5t-153.5 369.5q0 219 153.5 371.5t372.5 152.5q217 0 372 -152.5 t155 -371.5q0 -217 -155 -369.5t-372 -152.5zM614 295q84 0 142.5 59.5t58.5 147.5q0 90 -58.5 150.5t-142.5 60.5t-142 -60.5t-58 -150.5q0 -88 58 -147.5t142 -59.5z" glyph-name="uni01D2" horiz-adv-x="1226" unicode="ǒ"/><glyph d="M784 1577h-192q-23 0 -37 16l-207 230q-12 12 -6 24.5t27 12.5h172q23 0 37 -17l110 -131l111 131q14 16 37 17h172q20 0 25 -12.5t-7 -24.5l-205 -230q-14 -16 -37 -16zM1219 1434q31 0 30 -31v-844q0 -276 -155.5 -431t-405.5 -155t-404.5 155t-154.5 431v844 q0 31 31 31h289q31 0 30 -31v-844q0 -240 209 -240q211 0 211 240v844q0 31 31 31h289z" glyph-name="uni01D3" horiz-adv-x="1376" unicode="Ǔ"/><glyph d="M479 1163l-207 230q-12 12 -6 24.5t27 12.5h172q23 0 37 -17l110 -131l111 131q14 16 37 17h172q20 0 25.5 -12.5t-7.5 -24.5l-205 -230q-14 -16 -36 -16h-193q-23 0 -37 16zM1085 1004q31 0 31 -31v-942q0 -31 -31 -31h-268q-27 0 -31 31l-8 108q-115 -166 -284.5 -166 t-277 120t-107.5 319v561q0 31 30 31h277q31 0 30 -31v-490q0 -106 49.5 -149t112.5 -43q82 0 126 49t44 115v518q0 31 31 31h276z" glyph-name="uni01D4" horiz-adv-x="1234" unicode="ǔ"/><glyph d="M837.5 1450q305.5 0 522.5 -216t217 -523.5t-217 -522.5t-522 -215q-43 0 -66 2q-68 -39 -67 -116q0 -31 26.5 -52.5t87.5 -9.5v-203q-49 -20 -114.5 -21t-126 17.5t-102.5 71.5t-42 131q0 135 137 230q-211 82 -342 268t-131 420q0 307 217 523t522.5 216zM837.5 317 q163.5 0 273.5 113t110 281t-110 282.5t-273.5 114.5t-273 -114.5t-109.5 -282.5t109.5 -281t273 -113z" glyph-name="uni01EA" horiz-adv-x="1654" unicode="Ǫ"/><glyph d="M692 -14q-104 -45 -104 -123q0 -33 26.5 -55.5t87.5 -10.5v-203q-49 -20 -113.5 -21t-125 17.5t-102.5 71.5t-42 131q0 127 123 215q-158 53 -256 188.5t-98 305.5q0 219 153.5 371.5t372.5 152.5q217 0 372 -152.5t155 -371.5q0 -195 -129.5 -341t-319.5 -175zM614 713 q-84 0 -142 -60.5t-58 -150.5q0 -88 58 -147.5t142 -59.5t142.5 59.5t58.5 147.5q0 90 -58.5 150.5t-142.5 60.5z" glyph-name="uni01EB" horiz-adv-x="1206" unicode="ǫ"/><glyph d="M479 1020q0 -53 65.5 -90t159 -66.5t186.5 -72.5t158.5 -138.5t65.5 -234.5q0 -211 -155.5 -327t-358.5 -116q-154 0 -292 68t-212 160q-16 20 0 43l158 178q20 25 47 4q152 -123 309 -123q68 0 115 30t47 87q0 53 -65.5 92t-158.5 73t-186.5 80t-159 138t-65.5 223 q0 195 139.5 308.5t327.5 113.5q250 0 455 -188q18 -18 4 -43l-150 -187q-18 -25 -43 -8q-82 53 -136 74.5t-118 21.5q-68 0 -102.5 -29.5t-34.5 -70.5zM594 -78q78 0 128 -57.5t50 -155.5q0 -225 -223 -448l-80 47q78 117 90 256q-63 12 -107 62t-44 116q0 74 55 127 t131 53z" glyph-name="Scommaaccent" horiz-adv-x="1200" unicode="Ș"/><glyph d="M428 707q0 -33 46 -53.5t111.5 -37t132 -45t113 -96t46.5 -172.5q0 -147 -125 -235t-279 -88q-123 0 -226.5 49t-162.5 118q-14 18 2 43l100 144q12 20 45 2q129 -76 232 -76q86 0 86 49q0 31 -46 51.5t-111.5 40t-131 49t-112 94t-46.5 158.5q0 150 107.5 237t253.5 87 q229 0 358 -152q16 -20 -2 -43l-102 -137q-10 -14 -45 2q-113 63 -172 64q-39 0 -55.5 -17.5t-16.5 -35.5zM483 -78q78 0 128.5 -57.5t50.5 -155.5q0 -225 -224 -448l-80 47q78 117 91 256q-63 12 -107.5 62t-44.5 116q0 74 55 127t131 53z" glyph-name="scommaaccent" horiz-adv-x="954" unicode="ș"/><glyph d="M1081 1434q31 0 31 -31v-246q0 -31 -31 -31h-301v-1095q0 -31 -30 -31h-289q-31 0 -31 31v1095h-301q-31 0 -31 31v246q0 31 31 31h952zM610 -78q78 0 128 -57.5t50 -155.5q0 -225 -223 -448l-80 47q78 117 90 256q-63 12 -107 62t-44 116q0 74 55 127t131 53z" glyph-name="uni021A" horiz-adv-x="1208" unicode="Ț"/><glyph d="M764 1004q31 0 31 -31v-211q0 -31 -31 -31h-164v-700q0 -31 -31 -31h-276q-31 0 -31 31v700h-164q-31 0 -30 31v211q0 31 30 31h164v276q0 31 31 31h276q31 0 31 -31v-276h164zM442 -74q78 0 128.5 -57t50.5 -156q0 -225 -224 -448l-80 47q78 117 91 256 q-63 12 -107.5 62.5t-44.5 115.5q0 74 55 127t131 53z" glyph-name="uni021B" horiz-adv-x="860" unicode="ț"/><glyph d="M291 1004h276q31 0 31 -31v-946q0 -207 -123 -316.5t-328 -116.5q-25 0 -26 15l-88 280q-8 23 14 23q84 8 148.5 51t64.5 135v875q0 31 31 31z" glyph-name="uni0237" horiz-adv-x="702" unicode="ȷ"/><glyph d="M477 1434q23 0 37 -17l205 -229q12 -12 7 -24.5t-26 -12.5h-172q-23 0 -36 16l-111 131l-111 -131q-14 -16 -37 -16h-172q-20 0 -26 12.5t6 24.5l207 229q14 16 37 17h192z" glyph-name="circumflex" horiz-adv-x="759" unicode="ˆ"/><glyph d="M477 1151h-192q-23 0 -37 16l-207 230q-12 12 -6 24.5t26 12.5h172q23 0 37 -17l111 -131l111 131q14 16 36 17h172q20 0 25.5 -12.5t-6.5 -24.5l-205 -230q-14 -16 -37 -16z" glyph-name="caron" horiz-adv-x="759" unicode="ˇ"/><glyph d="M512 1405q6 29 33 29h137q31 0 29 -31q-12 -117 -101.5 -195t-237 -78t-237.5 78t-102 195q-4 31 28 31h138q27 0 32 -29q12 -37 48 -63.5t93.5 -26.5t93.5 26.5t46 63.5z" glyph-name="breve" horiz-adv-x="743" unicode="˘"/><glyph d="M194.5 1112q-67.5 0 -115.5 48t-48 120q0 68 48 116t115.5 48t115.5 -47t48 -117q0 -72 -48 -120t-115.5 -48z" glyph-name="dotaccent" horiz-adv-x="389" unicode="˙"/><glyph d="M264 1538q92 0 160 -67.5t68 -161.5q0 -92 -68 -160t-160 -68q-98 0 -165.5 68t-67.5 160q0 94 67.5 161.5t165.5 67.5zM262.5 1266q18.5 0 31.5 13t13 31.5t-13 33t-31.5 14.5t-32 -14.5t-13.5 -33t13.5 -31.5t32 -13z" glyph-name="ring" horiz-adv-x="522" unicode="˚"/><glyph d="M463 0q-78 0 -120 -43t-42 -98q0 -31 26.5 -52.5t88.5 -9.5v-203q-49 -20 -114.5 -21t-126 17.5t-102.5 71.5t-42 131q0 102 83 182t178 114t171 34v-123z" glyph-name="ogonek" horiz-adv-x="493" unicode="˛"/><glyph d="M270 1483q74 0 138.5 -37t119 -74t99.5 -37q74 0 98 56q8 14 23 14h75q20 0 21 -21q-4 -117 -69.5 -177t-172.5 -60q-72 0 -137.5 37t-118.5 73.5t-98 36.5q-72 0 -98 -55q-6 -14 -23 -14h-76q-20 0 -20 26q8 115 72.5 173.5t166.5 58.5z" glyph-name="tilde" horiz-adv-x="874" unicode="˜"/><glyph d="M444 1491q41 0 25 -35l-123 -258q-10 -25 -35 -24h-252q-41 0 -24 34l123 258q10 25 35 25h251zM864 1491q41 0 25 -35l-123 -258q-10 -25 -35 -24h-252q-41 0 -24 34l123 258q10 25 34 25h252z" glyph-name="hungarumlaut" horiz-adv-x="970" unicode="˝"/><glyph d="M-203 -78q78 0 128 -57.5t50 -155.5q0 -225 -223 -448l-80 47q78 117 90 256q-63 12 -107 62t-44 116q0 74 55 127t131 53z" glyph-name="uni0326" horiz-adv-x="0" unicode="̦"/><glyph d="M1397 35q14 -35 -25 -35h-1276q-39 0 -24 35l493 1374q8 25 35 25h262q31 0 39 -25zM733 971l-221 -699h444z" glyph-name="Delta" horiz-adv-x="1445" unicode="Δ"/><glyph d="M1567 743q0 -121 -50.5 -251t-158.5 -220h209v-272h-594v360q111 49 176 149.5t65 233.5q0 162 -111.5 264.5t-275.5 102.5q-166 0 -276.5 -102.5t-110.5 -264.5q0 -133 65.5 -233t176.5 -150v-360h-594v272h209q-111 90 -160 219.5t-49 251.5q0 301 216 504t523.5 203 t523.5 -203t216 -504z" glyph-name="Omega" horiz-adv-x="1652" unicode="Ω"/><glyph d="M1085 1004q31 0 31 -31v-942q0 -31 -31 -31h-268q-27 0 -31 31l-8 108q-115 -166 -284 -166q-20 0 -58 4v-335q0 -31 -30 -31h-277q-31 0 -31 31v1167h11v164q0 31 30 31h277q31 0 30 -31v-490q0 -106 49.5 -149t112.5 -43q82 0 126 49t44 115v518q0 31 31 31h276z" glyph-name="mu" horiz-adv-x="1214" unicode="μ"/><glyph d="M1436 295q37 6 37 -29v-217q0 -63 -199 -63q-135 0 -230.5 77.5t-95.5 247.5v420h-280v-700q0 -31 -31 -31h-277q-31 0 -30 31v700h-170q-31 0 -31 31v211q0 31 31 31h1222q31 0 31 -31v-211q0 -31 -31 -31h-96v-352q0 -88 80 -88q45 0 70 4z" glyph-name="pi" horiz-adv-x="1533" unicode="π"/><glyph d="M327.5 1542q-67.5 0 -115.5 48t-48 120q0 68 48 116t115.5 48t116 -47t48.5 -117q0 -72 -48.5 -120t-116 -48zM811 1542q-68 0 -116 48t-48 120q0 70 48 117t116 47t116 -48t48 -116q0 -72 -48 -120t-116 -48zM952 307q31 0 31 -31v-245q0 -31 -31 -31h-782q-31 0 -31 31 v1372q0 31 31 31h780q31 0 31 -31v-246q0 -31 -31 -31h-461v-245h433q31 0 30 -31v-246q0 -31 -30 -31h-433v-266h463z" glyph-name="afii10023" horiz-adv-x="1116" unicode="Ё"/><glyph d="M414 1542q-41 0 -25 35l123 258q10 25 35 25h252q41 0 24 -35l-123 -258q-10 -25 -34 -25h-252zM950 1434q31 0 31 -31v-246q0 -31 -31 -31h-461v-1095q0 -31 -30 -31h-289q-31 0 -31 31v1372q0 31 31 31h780z" glyph-name="afii10052" horiz-adv-x="1048" unicode="Ѓ"/><glyph d="M1176 422l178 -193q16 -25 0 -43q-201 -213 -510 -213t-527.5 215t-218.5 523q0 311 218.5 525t527.5 214q313 0 510 -213q18 -18 0 -43l-178 -193q-16 -25 -43 -2q-125 109 -293 109q-119 0 -213.5 -64.5t-137.5 -173.5h404q31 0 31 -30v-246q0 -31 -31 -31h-408 q41 -113 137.5 -179.5t217.5 -66.5q172 0 293 109q25 21 43 -4z" glyph-name="afii10053" horiz-adv-x="1429" unicode="Є"/><glyph d="M139 1403q0 31 31 31h289q31 0 30 -31v-1372q0 -31 -30 -31h-289q-31 0 -31 31v1372z" glyph-name="afii10055" horiz-adv-x="626" unicode="І"/><glyph d="M71.5 1542q-67.5 0 -115.5 48t-48 120q0 68 48 116t115.5 48t116 -47t48.5 -117q0 -72 -48.5 -120t-116 -48zM555 1542q-68 0 -116 48t-48 120q0 70 48 117t116 47t116 -48t48 -116q0 -72 -48 -120t-116 -48zM139 1403q0 31 31 31h289q31 0 30 -31v-1372q0 -31 -30 -31 h-289q-31 0 -31 31v1372z" glyph-name="afii10056" horiz-adv-x="626" unicode="Ї"/><glyph d="M588 1542q-41 0 -25 35l123 258q10 25 35 25h252q41 0 24 -35l-123 -258q-10 -25 -34 -25h-252zM1358 37q10 -16 5 -26.5t-24 -10.5h-340q-25 0 -36 18l-373 527l-101 -117v-397q0 -31 -30 -31h-289q-31 0 -31 31v1372q0 31 31 31h289q31 0 30 -31v-510l422 524 q14 16 37 17h357q20 0 24 -11.5t-8 -25.5l-498 -580z" glyph-name="afii10061" horiz-adv-x="1431" unicode="Ќ"/><glyph d="M755.5 1559q-147.5 0 -237.5 77.5t-102 194.5q-2 31 28 31h138q27 0 32 -29q12 -37 48 -63.5t93.5 -26.5t93.5 26.5t46 63.5q6 29 33 29h137q33 0 29 -31q-12 -117 -101.5 -194.5t-237 -77.5zM1409 1434q18 0 24.5 -10.5t-3.5 -26.5l-832 -1377q-12 -20 -37 -20h-303 q-41 0 -20 37l333 553l-487 807q-10 16 -4 26.5t24 10.5h304q25 0 36 -21l314 -514l311 514q12 20 37 21h303z" glyph-name="afii10062" horiz-adv-x="1513" unicode="Ў"/><glyph d="M1395 35q14 -35 -25 -35h-301q-27 0 -35 25l-63 200h-477l-64 -200q-8 -25 -35 -25h-301q-39 0 -24 35l493 1374q10 25 35 25h262q31 0 39 -25zM584 508h295l-148 463z" glyph-name="afii10017" horiz-adv-x="1462" unicode="А"/><glyph d="M616 963q258 0 400.5 -131.5t142.5 -350.5t-142.5 -350t-400.5 -131h-446q-31 0 -31 31v1372q0 31 31 31h780q31 0 31 -31v-246q0 -31 -31 -31h-461v-163h127zM610 307q90 0 152.5 40t62.5 134t-63.5 134t-151.5 40h-121v-348h121z" glyph-name="afii10018" horiz-adv-x="1216" unicode="Б"/><glyph d="M950 764q111 -31 195 -125t84 -227q0 -412 -541 -412h-518q-31 0 -31 31v1372q0 31 31 31h516q201 0 315.5 -105.5t114.5 -269.5q0 -106 -49 -185t-117 -110zM793 1012q0 115 -140 114h-164v-237h164q140 0 140 123zM702 307q82 0 130.5 39t48.5 113q0 143 -179 143h-213 v-295h213z" glyph-name="afii10019" horiz-adv-x="1304" unicode="В"/><glyph d="M950 1434q31 0 31 -31v-246q0 -31 -31 -31h-461v-1095q0 -31 -30 -31h-289q-31 0 -31 31v1372q0 31 31 31h780z" glyph-name="afii10020" horiz-adv-x="1048" unicode="Г"/><glyph d="M1659 307q31 0 31 -31v-387q0 -31 -31 -30h-289q-31 0 -31 30v111h-907v-111q0 -31 -31 -30h-288q-31 0 -31 30v387q0 6 4 19q0 14 16 14q78 0 145.5 46t67.5 139v909q0 31 31 31h1114q31 0 31 -31v-1096h168zM666 422q0 -61 -13 -115h488v819h-475v-704z" glyph-name="afii10021" horiz-adv-x="1771" unicode="Д"/><glyph d="M952 307q31 0 31 -31v-245q0 -31 -31 -31h-782q-31 0 -31 31v1372q0 31 31 31h780q31 0 31 -31v-246q0 -31 -31 -31h-461v-245h433q31 0 30 -31v-246q0 -31 -30 -31h-433v-266h463z" glyph-name="afii10022" horiz-adv-x="1116" unicode="Е"/><glyph d="M2177 37q10 -16 5 -26.5t-23 -10.5h-340q-25 0 -37 18l-373 527l-100 -117v-397q0 -31 -31 -31h-311q-31 0 -31 31v397l-100 117l-373 -527q-12 -18 -37 -18h-340q-18 0 -23.5 10t5.5 27l534 780l-498 580q-12 14 -8 25.5t25 11.5h356q23 0 37 -17l422 -524v510 q0 31 31 31h311q31 0 31 -31v-510l422 524q14 16 36 17h357q20 0 24 -11.5t-8 -25.5l-498 -580z" glyph-name="afii10024" horiz-adv-x="2230" unicode="Ж"/><glyph d="M834 756q98 -41 167.5 -128t69.5 -200q0 -188 -147.5 -316t-380.5 -128q-137 0 -254 48t-189 130q-18 23 2 43l183 174q18 18 45 0q80 -63 194 -64q94 0 141.5 38t47.5 102q0 20 -9.5 40.5t-34 46t-81 41t-137.5 17.5q-31 0 -31 31v205q0 31 35 30q82 2 132 13.5t69.5 34 t24.5 39t5 44.5q0 59 -46 91t-95 32q-98 0 -170 -57q-27 -18 -45 0l-178 168q-20 20 -2 43q68 80 178 128t231 48q190 0 329.5 -109.5t139.5 -287.5q0 -100 -56 -181t-138 -116z" glyph-name="afii10025" horiz-adv-x="1163" unicode="З"/><glyph d="M1290 1434q31 0 31 -31v-1372q0 -31 -31 -31h-289q-31 0 -30 31v829l-465 -840q-12 -20 -37 -20h-322q-31 0 -30 31v1372q0 31 30 31h289q31 0 31 -31v-832l465 842q12 20 37 21h321z" glyph-name="afii10026" horiz-adv-x="1460" unicode="И"/><glyph d="M731.5 1559q-147.5 0 -238 77.5t-102.5 194.5q-2 31 29 31h137q27 0 33 -29q12 -37 48 -63.5t93 -26.5t93 26.5t46 63.5q6 29 33 29h137q33 0 29 -31q-12 -117 -101 -194.5t-236.5 -77.5zM1290 1434q31 0 31 -31v-1372q0 -31 -31 -31h-289q-31 0 -30 31v829l-465 -840 q-12 -20 -37 -20h-322q-31 0 -30 31v1372q0 31 30 31h289q31 0 31 -31v-832l465 842q12 20 37 21h321z" glyph-name="afii10027" horiz-adv-x="1460" unicode="Й"/><glyph d="M1358 37q10 -16 5 -26.5t-24 -10.5h-340q-25 0 -36 18l-373 527l-101 -117v-397q0 -31 -30 -31h-289q-31 0 -31 31v1372q0 31 31 31h289q31 0 30 -31v-510l422 524q14 16 37 17h357q20 0 24 -11.5t-8 -25.5l-498 -580z" glyph-name="afii10028" horiz-adv-x="1431" unicode="К"/><glyph d="M1415 1434q31 0 31 -31v-1372q0 -31 -31 -31h-289q-31 0 -30 31v1095h-475v-704q0 -207 -129.5 -319.5t-333.5 -112.5q-20 0 -27 16l-88 281q-8 23 14 22q78 0 145.5 46t67.5 139v909q0 31 31 31h1114z" glyph-name="afii10029" horiz-adv-x="1562" unicode="Л"/><glyph d="M1667 1434q31 0 31 -31v-1372q0 -31 -31 -31h-289q-31 0 -30 31v741l-25 -94l-242 -651q-10 -27 -39 -27h-249q-27 0 -37 27l-242 651l-25 94v-741q0 -31 -30 -31h-289q-31 0 -31 31v1372q0 31 31 31h311q29 0 37 -21l400 -1007l397 1007q8 20 37 21h315z" glyph-name="afii10030" horiz-adv-x="1835" unicode="М"/><glyph d="M1274 1434q31 0 31 -31v-1372q0 -31 -31 -31h-289q-31 0 -31 31v516h-465v-516q0 -31 -30 -31h-289q-31 0 -31 31v1372q0 31 31 31h289q31 0 30 -31v-549h465v549q0 31 31 31h289z" glyph-name="afii10031" horiz-adv-x="1441" unicode="Н"/><glyph d="M837.5 -27q-305.5 0 -522.5 215t-217 522.5t217 523.5t522.5 216t522.5 -216t217 -523.5t-217 -522.5t-522.5 -215zM837.5 317q163.5 0 273.5 113t110 281t-110 282.5t-273.5 114.5t-273 -114.5t-109.5 -282.5t109.5 -281t273 -113z" glyph-name="afii10032" horiz-adv-x="1675" unicode="О"/><glyph d="M1274 1434q31 0 31 -31v-1372q0 -31 -31 -31h-289q-31 0 -31 31v1095h-465v-1095q0 -31 -30 -31h-289q-31 0 -31 31v1372q0 31 31 31h1104z" glyph-name="afii10033" horiz-adv-x="1421" unicode="П"/><glyph d="M616 1434q258 0 400.5 -131.5t142.5 -350.5t-142.5 -350t-400.5 -131h-127v-440q0 -31 -30 -31h-289q-31 0 -31 31v1372q0 31 31 31h446zM610 778q88 0 151.5 40t63.5 134.5t-62.5 134t-152.5 39.5h-121v-348h121z" glyph-name="afii10034" horiz-adv-x="1236" unicode="Р"/><glyph d="M1176 422l178 -193q16 -25 0 -43q-201 -213 -510 -213t-527.5 215t-218.5 523q0 311 218.5 525t527.5 214q313 0 510 -213q18 -18 0 -43l-178 -193q-16 -25 -43 -2q-125 109 -293 109q-162 0 -271.5 -113.5t-109.5 -283.5q0 -168 109.5 -281t271.5 -113q172 0 293 109 q25 21 43 -4z" glyph-name="afii10035" horiz-adv-x="1449" unicode="С"/><glyph d="M1081 1434q31 0 31 -31v-246q0 -31 -31 -31h-301v-1095q0 -31 -30 -31h-289q-31 0 -31 31v1095h-301q-31 0 -31 31v246q0 31 31 31h952z" glyph-name="afii10036" horiz-adv-x="1208" unicode="Т"/><glyph d="M1409 1434q18 0 24.5 -10.5t-3.5 -26.5l-832 -1377q-12 -20 -37 -20h-303q-41 0 -20 37l333 553l-487 807q-10 16 -4 26.5t24 10.5h304q25 0 36 -21l314 -514l311 514q12 20 37 21h303z" glyph-name="afii10037" horiz-adv-x="1513" unicode="У"/><glyph d="M1210 1311q299 0 480.5 -179.5t181.5 -414.5q0 -111 -45 -216.5t-128 -190.5t-210 -136t-279 -51h-49v-92q0 -31 -31 -31h-288q-31 0 -31 31v92h-74q-297 0 -478 179t-181 414.5t181 415t478 179.5h74v92q0 31 31 31h288q31 0 31 -31v-92h49zM737 430h74v574h-74 q-141 0 -223 -81t-82 -206q0 -123 82 -205t223 -82zM1210 430q141 0 223.5 82t82.5 205q0 125 -82 206t-224 81h-49v-574h49z" glyph-name="afii10038" horiz-adv-x="1947" unicode="Ф"/><glyph d="M1290 37q20 -37 -20 -37h-305q-25 0 -37 20l-236 400l-237 -400q-12 -20 -37 -20h-303q-41 0 -21 37l412 696l-391 664q-18 37 20 37h303q25 0 37 -21l217 -364l215 364q12 20 37 21h305q39 0 21 -37l-393 -664z" glyph-name="afii10039" horiz-adv-x="1382" unicode="Х"/><glyph d="M1479 307q31 0 30 -31v-387q0 -31 -30 -30h-289q-31 0 -31 30v111h-989q-31 0 -31 31v1372q0 31 31 31h289q31 0 30 -31v-1096h465v1096q0 31 31 31h289q31 0 31 -31v-1096h174z" glyph-name="afii10040" horiz-adv-x="1591" unicode="Ц"/><glyph d="M1225 1434q31 0 30 -31v-1372q0 -31 -30 -31h-289q-31 0 -31 31v567q-141 -186 -399 -186q-170 0 -297 133t-127 329v529q0 31 31 31h288q31 0 31 -31v-457q0 -104 61.5 -146t129.5 -42q113 0 197.5 55t84.5 100v490q0 31 31 31h289z" glyph-name="afii10041" horiz-adv-x="1382" unicode="Ч"/><glyph d="M2089 1434q31 0 31 -31v-1372q0 -31 -31 -31h-1919q-31 0 -31 31v1372q0 31 31 31h289q31 0 30 -31v-1096h465v1096q0 31 31 31h289q31 0 31 -31v-1096h464v1096q0 31 31 31h289z" glyph-name="afii10042" horiz-adv-x="2234" unicode="Ш"/><glyph d="M2294 307q31 0 30 -31v-387q0 -31 -30 -30h-289q-31 0 -31 30v111h-1804q-31 0 -31 31v1372q0 31 31 31h289q31 0 30 -31v-1096h465v1096q0 31 31 31h289q31 0 31 -31v-1096h464v1096q0 31 31 31h289q31 0 31 -31v-1096h174z" glyph-name="afii10043" horiz-adv-x="2406" unicode="Щ"/><glyph d="M791 963q258 0 400 -131.5t142 -350.5t-142 -350t-400 -131h-447q-31 0 -31 31v1095h-231q-31 0 -31 31v246q0 31 31 31h551q31 0 31 -31v-440h127zM784 307q88 0 151.5 40t63.5 134t-63.5 134t-151.5 40h-120v-348h120z" glyph-name="afii10044" horiz-adv-x="1388" unicode="Ъ"/><glyph d="M616 0h-446q-31 0 -31 31v1372q0 31 31 31h289q31 0 30 -31v-440h127q258 0 400.5 -131.5t142.5 -350.5t-142.5 -350t-400.5 -131zM1401 1403q0 31 31 31h288q31 0 31 -31v-1372q0 -31 -31 -31h-288q-31 0 -31 31v1372zM610 655h-121v-348h121q90 0 152.5 40t62.5 134 t-63.5 134t-151.5 40z" glyph-name="afii10045" horiz-adv-x="1867" unicode="Ы"/><glyph d="M616 0h-446q-31 0 -31 31v1372q0 31 31 31h289q31 0 30 -31v-440h127q258 0 400.5 -131.5t142.5 -350.5t-142.5 -350t-400.5 -131zM610 655h-121v-348h121q90 0 152.5 40t62.5 134t-63.5 134t-151.5 40z" glyph-name="afii10046" horiz-adv-x="1216" unicode="Ь"/><glyph d="M596 1450q309 0 527 -214t218 -525q0 -307 -218 -522.5t-527 -215.5t-510 213q-16 18 0 43l178 193q18 25 43 4q121 -109 293 -109q121 0 217 67t137 179h-407q-31 0 -31 31v246q0 31 31 30h403q-43 109 -137 173.5t-213 64.5q-168 0 -293 -109q-27 -23 -43 2l-178 193 q-18 25 0 43q197 213 510 213z" glyph-name="afii10047" horiz-adv-x="1429" unicode="Э"/><glyph d="M1311 1450q305 0 522 -216t217 -523.5t-217 -522.5t-522 -215q-266 0 -469 167t-256 423h-97v-532q0 -31 -30 -31h-289q-31 0 -31 31v1372q0 31 31 31h289q31 0 30 -31v-533h99q55 252 258 416t465 164zM1311 317q164 0 273.5 113t109.5 281t-109.5 282.5t-273.5 114.5 t-273.5 -114.5t-109.5 -282.5t109.5 -281t273.5 -113z" glyph-name="afii10048" horiz-adv-x="2127" unicode="Ю"/><glyph d="M1126 1434q31 0 31 -31v-1372q0 -31 -31 -31h-288q-31 0 -31 31v440h-55l-287 -451q-12 -20 -37 -20h-305q-43 0 -21 37l314 481q-135 55 -207 168t-72 266q0 219 142.5 350.5t400.5 131.5h446zM686 1126q-88 0 -151.5 -39.5t-63.5 -134t63.5 -134.5t151.5 -40h121v348 h-121z" glyph-name="afii10049" horiz-adv-x="1296" unicode="Я"/><glyph d="M1122 1004q31 0 31 -31v-942q0 -31 -31 -31h-233q-27 0 -31 31l-10 78q-102 -123 -275 -123q-209 0 -347 148.5t-138 365.5q0 221 138.5 372.5t346.5 151.5q168 0 275 -135l10 84q4 31 31 31h233zM612 295q92 0 146.5 57.5t54.5 149.5t-55.5 153.5t-145.5 61.5 q-86 0 -142 -60.5t-56 -154.5q0 -92 56 -149.5t142 -57.5z" glyph-name="afii10065" unicode="а"/><glyph d="M698 1028q207 0 345.5 -153.5t138.5 -374.5t-138.5 -375t-345.5 -154q-158 0 -272 121l-6 -61q-4 -31 -31 -31h-250q-31 0 -30 31v1024q0 379 333 379h238q111 0 156 41h249q2 -184 -107.5 -260t-299.5 -76h-143q-57 0 -78 -29t-21 -82l2 -115q115 115 260 115zM655 281 q86 0 143.5 63.5t57.5 157.5t-56.5 155.5t-144.5 61.5q-84 0 -142 -64.5t-58 -152.5q0 -90 58 -155.5t142 -65.5z" glyph-name="afii10066" horiz-adv-x="1257" unicode="б"/><glyph d="M965 522q90 -27 146 -89t56 -144q0 -104 -66.5 -171t-168 -92.5t-238.5 -25.5h-555q-31 0 -30 31v942q0 31 30 31h555q172 0 287 -77t115 -218q0 -130 -131 -187zM793 676q0 55 -113 55h-234v-115h244q49 0 73.5 13.5t27 22t2.5 24.5zM680 272q104 0 134 15.5t30 50.5 q0 29 -28 40t-126 11h-244v-117h234z" glyph-name="afii10067" horiz-adv-x="1234" unicode="в"/><glyph d="M825 1004q31 0 31 -31v-211q0 -31 -31 -31h-379v-700q0 -31 -30 -31h-277q-31 0 -30 31v942q0 31 30 31h686z" glyph-name="afii10068" horiz-adv-x="921" unicode="г"/><glyph d="M1495 272q31 0 31 -30v-322q0 -31 -31 -31h-276q-31 0 -31 31v80h-768v-80q0 -31 -31 -31h-276q-31 0 -31 31v371q0 6 4 14q4 4 12 4q78 0 145.5 46t67.5 139v479q0 31 31 31h918q31 0 30 -31v-701h205zM649 731v-309q0 -86 -20 -150h323v459h-303z" glyph-name="afii10069" horiz-adv-x="1607" unicode="д"/><glyph d="M1081 520q0 -72 -15 -102.5t-62 -30.5h-578q43 -135 231 -135q92 0 181 53q27 16 45 -4l118 -117q20 -20 -4 -45q-158 -154 -370 -153q-238 0 -388.5 149.5t-150.5 370.5q0 217 147.5 367.5t364.5 150.5q215 0 348 -146.5t133 -357.5zM604 739q-154 0 -184 -141h360 q-31 141 -176 141z" glyph-name="afii10070" horiz-adv-x="1167" unicode="е"/><glyph d="M1964 37q12 -16 7 -26.5t-25 -10.5h-330q-23 0 -37 16l-293 330l-100 -104v-211q0 -31 -31 -31h-278q-31 0 -31 31v211l-101 104l-292 -330q-14 -16 -37 -16h-330q-20 0 -25.5 10t7.5 27l467 526l-390 404q-14 16 -9 26.5t26 10.5h327q25 0 39 -17l318 -334v320 q0 31 31 31h278q31 0 31 -31v-320l317 334q14 16 39 17h328q20 0 25.5 -10.5t-9.5 -26.5l-389 -404z" glyph-name="afii10072" horiz-adv-x="2031" unicode="ж"/><glyph d="M692 535q152 -80 152 -242q0 -145 -114 -227t-259 -82q-262 0 -367 129q-25 31 5 63l124 129q23 23 56 -2q63 -41 139 -41q119 0 119 76q0 78 -168 78q-49 0 -49 47v117q0 47 49 47q131 0 131 63q0 51 -92 51q-33 0 -103 -20q-55 -27 -79 2l-99 106q-31 31 -4 62 q47 53 136 89t200 36q133 0 240.5 -72t107.5 -196q0 -127 -125 -213z" glyph-name="afii10073" horiz-adv-x="935" unicode="з"/><glyph d="M1108 1004q31 0 31 -31v-942q0 -31 -31 -31h-277q-31 0 -30 31v518l-355 -529v-2l-2 -2q-10 -16 -28 -16h-283q-25 4 -24 31v942q0 31 30 31h277q31 0 30 -31v-506l347 516q14 20 38 21h277z" glyph-name="afii10074" horiz-adv-x="1245" unicode="и"/><glyph d="M657.5 1128q-147.5 0 -237.5 78t-103 195q-2 31 29 31h137q27 0 33 -29q12 -37 48 -63.5t93.5 -26.5t93 26.5t46.5 63.5q6 29 32 29h138q33 0 28 -31q-12 -117 -101 -195t-236.5 -78zM1108 1004q31 0 31 -31v-942q0 -31 -31 -31h-277q-31 0 -30 31v518l-355 -529v-2 l-2 -2q-10 -16 -28 -16h-283q-25 4 -24 31v942q0 31 30 31h277q31 0 30 -31v-506l347 516q14 20 38 21h277z" glyph-name="afii10075" horiz-adv-x="1245" unicode="й"/><glyph d="M1225 37q12 -16 7 -26.5t-26 -10.5h-329q-23 0 -37 16l-293 330l-101 -104v-211q0 -31 -30 -31h-277q-31 0 -30 31v942q0 31 30 31h277q31 0 30 -31v-320l318 334q14 16 39 17h327q20 0 25.5 -10.5t-8.5 -26.5l-389 -404z" glyph-name="afii10076" horiz-adv-x="1292" unicode="к"/><glyph d="M1208 1004q31 0 31 -31v-942q0 -31 -31 -31h-276q-31 0 -31 31v700h-303v-309q0 -207 -124 -319.5t-327 -112.5q-18 0 -26 16l-88 281q-8 23 14 22q78 0 145.5 46t67.5 139v479q0 31 31 31h917z" glyph-name="afii10077" horiz-adv-x="1345" unicode="л"/><glyph d="M1468 1004q31 0 31 -31v-942q0 -31 -31 -31h-276q-31 0 -31 31v377l-178 -385q-6 -23 -35 -23h-289q-29 0 -34 23l-179 385v-377q0 -31 -30 -31h-277q-31 0 -30 31v942q0 31 30 31h324q23 0 35 -23l307 -631l305 631q12 23 35 23h323z" glyph-name="afii10078" horiz-adv-x="1605" unicode="м"/><glyph d="M1128 1004q31 0 31 -31v-942q0 -31 -31 -31h-276q-31 0 -31 31v336h-375v-336q0 -31 -30 -31h-277q-31 0 -30 31v942q0 31 30 31h277q31 0 30 -31v-334h375v334q0 31 31 31h276z" glyph-name="afii10079" horiz-adv-x="1265" unicode="н"/><glyph d="M614 -20q-219 0 -372.5 152.5t-153.5 369.5q0 219 153.5 371.5t372.5 152.5q217 0 372 -152.5t155 -371.5q0 -217 -155 -369.5t-372 -152.5zM614 295q84 0 142.5 59.5t58.5 147.5q0 90 -58.5 150.5t-142.5 60.5t-142 -60.5t-58 -150.5q0 -88 58 -147.5t142 -59.5z" glyph-name="afii10080" horiz-adv-x="1226" unicode="о"/><glyph d="M1128 1004q31 0 31 -31v-942q0 -31 -31 -31h-276q-31 0 -31 31v700h-375v-700q0 -31 -30 -31h-277q-31 0 -30 31v942q0 31 30 31h989z" glyph-name="afii10081" horiz-adv-x="1265" unicode="п"/><glyph d="M698 1024q209 0 347.5 -151.5t138.5 -372.5q0 -217 -138.5 -365.5t-347.5 -148.5q-143 0 -241 88v-432q0 -31 -31 -31h-276q-31 0 -31 31v1331q0 31 31 31h233q27 0 31 -31l10 -84q106 135 274 135zM659 295q86 0 142.5 57.5t56.5 149.5q0 94 -56.5 154.5t-142.5 60.5 q-90 0 -145 -61.5t-55 -153.5t54 -149.5t146 -57.5z" glyph-name="afii10082" unicode="р"/><glyph d="M612 301q92 0 172 68q27 18 45 0l168 -162q20 -20 2 -43q-156 -178 -395 -178q-217 0 -366.5 152.5t-149.5 371.5q0 215 149.5 364.5t366.5 149.5q233 0 389 -178q18 -23 -2 -43l-168 -164q-18 -18 -45 4q-78 68 -166 68q-86 0 -142 -58.5t-56 -142.5q0 -88 56 -148.5 t142 -60.5z" glyph-name="afii10083" horiz-adv-x="1083" unicode="с"/><glyph d="M877 1004q31 0 30 -31v-211q0 -31 -30 -31h-215v-700q0 -31 -31 -31h-277q-31 0 -30 31v700h-215q-31 0 -31 31v211q0 31 31 31h768z" glyph-name="afii10084" horiz-adv-x="983" unicode="т"/><glyph d="M1149 1004q37 0 25 -35l-531 -1334q-8 -25 -37 -24h-270q-41 0 -25 35l148 352l-387 971q-12 35 24 35h279q27 0 37 -25l209 -580l208 580q10 25 37 25h283z" glyph-name="afii10085" horiz-adv-x="1224" unicode="у"/><glyph d="M1384 1028q207 0 345.5 -153.5t138.5 -374.5t-138.5 -375t-345.5 -154q-137 0 -243 92v-421q0 -31 -31 -31h-276q-31 0 -31 31v436q-106 -100 -244 -101q-205 0 -343 154t-138 375t138 374.5t343 153.5q137 0 244 -92v422q0 31 31 31h276q31 0 31 -31v-436 q106 100 243 100zM602 287q86 0 143.5 63.5t57.5 153.5t-57.5 155.5t-143.5 65.5t-142.5 -62.5t-56.5 -158.5q0 -92 56.5 -154.5t142.5 -62.5zM1341 281q86 0 143.5 63.5t57.5 157.5t-56 155.5t-145 61.5q-84 0 -142 -64.5t-58 -152.5q0 -90 58 -155.5t142 -65.5z" glyph-name="afii10086" horiz-adv-x="1943" unicode="ф"/><glyph d="M1157 37q10 -16 4 -26.5t-24 -10.5h-314q-18 0 -37 20l-157 242l-158 -242q-14 -20 -37 -20h-313q-18 0 -24.5 10t3.5 27l332 479l-313 451q-12 16 -5 26.5t25 10.5h314q23 0 36 -21l140 -215l141 215q14 20 37 21h313q18 0 24.5 -10.5t-3.5 -26.5l-314 -451z" glyph-name="afii10087" horiz-adv-x="1257" unicode="х"/><glyph d="M1290 272q31 0 31 -30v-322q0 -31 -31 -31h-276q-31 0 -31 31v80h-844q-31 0 -30 31v942q0 31 30 31h277q31 0 30 -31v-701h375v701q0 31 31 31h276q31 0 31 -31v-701h131z" glyph-name="afii10088" horiz-adv-x="1402" unicode="ц"/><glyph d="M1128 1004q31 0 31 -31v-942q0 -31 -31 -31h-276q-31 0 -31 31v325q-115 -123 -295 -123q-205 0 -326.5 116t-121.5 343v281q0 31 31 31h276q31 0 31 -31v-289q0 -88 42 -154.5t138 -66.5q125 0 225 141v369q0 31 31 31h276z" glyph-name="afii10089" horiz-adv-x="1265" unicode="ч"/><glyph d="M1542 1004q31 0 31 -31v-942q0 -31 -31 -31h-1403q-31 0 -30 31v942q0 31 30 31h277q31 0 30 -31v-701h226v701q0 31 30 31h277q31 0 31 -31v-701h225v701q0 31 31 31h276z" glyph-name="afii10090" horiz-adv-x="1679" unicode="ш"/><glyph d="M1731 272q31 0 30 -30v-322q0 -31 -30 -31h-277q-31 0 -31 31v80h-1284q-31 0 -30 31v942q0 31 30 31h277q31 0 30 -31v-701h226v701q0 31 30 31h277q31 0 31 -31v-701h225v701q0 31 31 31h276q31 0 31 -31v-701h158z" glyph-name="afii10091" horiz-adv-x="1843" unicode="щ"/><glyph d="M737 668q209 0 327 -76t118 -258t-118 -258t-327 -76h-512q-31 0 -30 31v700h-103q-31 0 -31 31v211q0 31 31 31h410q31 0 30 -31v-305h205zM741 242q59 0 87 18.5t28 73.5t-27.5 74.5t-87.5 19.5h-209v-186h209z" glyph-name="afii10092" horiz-adv-x="1249" unicode="ъ"/><glyph d="M651 668q209 0 327 -76t118 -258t-118 -258t-327 -76h-512q-31 0 -30 31v942q0 31 30 31h277q31 0 30 -31v-305h205zM1554 1004q31 0 31 -31v-942q0 -31 -31 -31h-276q-31 0 -31 31v942q0 31 31 31h276zM655 242q59 0 87 18.5t28 73.5t-27.5 74.5t-87.5 19.5h-209v-186 h209z" glyph-name="afii10093" horiz-adv-x="1691" unicode="ы"/><glyph d="M651 668q209 0 327 -76t118 -258t-118 -258t-327 -76h-512q-31 0 -30 31v942q0 31 30 31h277q31 0 30 -31v-305h205zM655 242q59 0 87 18.5t28 73.5t-27.5 74.5t-87.5 19.5h-209v-186h209z" glyph-name="afii10094" horiz-adv-x="1163" unicode="ь"/><glyph d="M469 1024q217 0 366.5 -149.5t149.5 -364.5q0 -219 -149.5 -371.5t-366.5 -152.5q-240 0 -395 178q-18 23 2 43l168 162q18 18 45 0q80 -68 172 -68q100 0 160 80h-215q-31 0 -31 31v178q0 31 31 31h223q-59 90 -168 90q-88 0 -166 -68q-27 -23 -45 -4l-168 164 q-20 20 -2 43q156 178 389 178z" glyph-name="afii10095" horiz-adv-x="1062" unicode="э"/><glyph d="M1114 1026q217 0 371.5 -152.5t154.5 -371.5q0 -217 -154.5 -369.5t-371.5 -152.5q-180 0 -320.5 107.5t-187.5 274.5h-160v-333q0 -31 -30 -31h-277q-31 0 -30 31v942q0 31 30 30h277q31 0 30 -30v-334h158q45 170 186.5 279.5t323.5 109.5zM1114 295q84 0 142.5 59.5 t58.5 147.5q0 90 -58.5 150.5t-142.5 60.5t-142.5 -60.5t-58.5 -150.5q0 -88 58.5 -147.5t142.5 -59.5z" glyph-name="afii10096" horiz-adv-x="1705" unicode="ю"/><glyph d="M1094 1004q31 0 30 -31v-942q0 -31 -30 -31h-277q-31 0 -31 31v305h-71l-287 -320q-14 -16 -37 -16h-282q-20 0 -25.5 11.5t8.5 25.5l287 309q-301 45 -301 324q0 334 444 334h572zM518 764q-115 0 -115 -94q0 -92 115 -92h268v186h-268z" glyph-name="afii10097" horiz-adv-x="1230" unicode="я"/><glyph d="M368.5 1174q-67.5 0 -115.5 48t-48 119q0 68 48 116t115.5 48t115.5 -47t48 -117q0 -72 -48 -119.5t-115.5 -47.5zM852 1174q-68 0 -116 48t-48 119q0 70 48 117t116 47t116 -48t48 -116q0 -72 -48 -119.5t-116 -47.5zM1081 520q0 -72 -15 -102.5t-62 -30.5h-578 q43 -135 231 -135q92 0 181 53q27 16 45 -4l118 -117q20 -20 -4 -45q-158 -154 -370 -153q-238 0 -388.5 149.5t-150.5 370.5q0 217 147.5 367.5t364.5 150.5q215 0 348 -146.5t133 -357.5zM604 739q-154 0 -184 -141h360q-31 141 -176 141z" glyph-name="afii10071" horiz-adv-x="1167" unicode="ё"/><glyph d="M338 1112q-41 0 -25 35l123 258q10 25 35 25h252q41 0 25 -35l-123 -258q-10 -25 -35 -25h-252zM825 1004q31 0 31 -31v-211q0 -31 -31 -31h-379v-700q0 -31 -30 -31h-277q-31 0 -30 31v942q0 31 30 31h686z" glyph-name="afii10100" horiz-adv-x="921" unicode="ѓ"/><glyph d="M997 207q20 -20 2 -43q-156 -178 -395 -178q-217 0 -366.5 152.5t-149.5 371.5q0 215 149.5 364.5t366.5 149.5q233 0 389 -178q18 -23 -2 -43l-168 -164q-18 -18 -45 4q-78 68 -166 68q-109 0 -168 -90h224q31 0 30 -31v-178q0 -31 -30 -31h-215q59 -80 159 -80 q92 0 172 68q27 18 45 0z" glyph-name="afii10101" horiz-adv-x="1062" unicode="є"/><glyph d="M36.5 1112q-67.5 0 -115.5 48t-48 120q0 68 48 116t115.5 48t116 -47t48.5 -117q0 -72 -48.5 -120t-116 -48zM520.5 1112q-67.5 0 -116 48t-48.5 120q0 70 48.5 117t116 47t115.5 -48t48 -116q0 -72 -48 -120t-115.5 -48zM109 973q0 31 30 31h277q31 0 30 -31v-942 q0 -31 -30 -31h-277q-31 0 -30 31v942z" glyph-name="afii10104" horiz-adv-x="552" unicode="ї"/><glyph d="M528 1112q-41 0 -24 35l123 258q10 25 35 25h251q41 0 25 -35l-123 -258q-10 -25 -35 -25h-252zM1225 37q12 -16 7 -26.5t-26 -10.5h-329q-23 0 -37 16l-293 330l-101 -104v-211q0 -31 -30 -31h-277q-31 0 -30 31v942q0 31 30 31h277q31 0 30 -31v-320l318 334 q14 16 39 17h327q20 0 25.5 -10.5t-8.5 -26.5l-389 -404z" glyph-name="afii10109" horiz-adv-x="1292" unicode="ќ"/><glyph d="M760 1403q6 29 33 29h137q33 0 28 -31q-12 -117 -101 -195t-236.5 -78t-237.5 78t-102 195q-2 31 28 31h137q27 0 33 -29q12 -37 48 -63.5t93.5 -26.5t93.5 26.5t46 63.5zM1149 1004q37 0 25 -35l-531 -1334q-8 -25 -37 -24h-270q-41 0 -25 35l148 352l-387 971 q-12 35 24 35h279q27 0 37 -25l209 -580l208 580q10 25 37 25h283z" glyph-name="afii10110" horiz-adv-x="1224" unicode="ў"/><glyph d="M950 1538q31 0 31 -31v-350q0 -31 -31 -31h-461v-1095q0 -31 -30 -31h-289q-31 0 -31 31v1372q0 31 31 31h504v73q0 31 31 31h245z" glyph-name="afii10050" horiz-adv-x="1048" unicode="Ґ"/><glyph d="M825 1130q31 0 31 -30v-338q0 -31 -31 -31h-379v-700q0 -31 -30 -31h-277q-31 0 -30 31v942q0 31 30 31h379v96q0 31 31 30h276z" glyph-name="afii10098" horiz-adv-x="921" unicode="ґ"/><glyph d="M973 1567l-123 258q-16 35 24 35h252q25 0 35 -25l123 -258q16 -35 -24 -35h-252q-25 0 -35 25zM2210 1434q35 0 24 -35l-432 -1374q-8 -25 -39 -25h-278q-27 0 -33 25l-291 882l-293 -882q-8 -25 -34 -25h-277q-35 0 -41 25l-426 1374q-14 35 25 35h301q27 0 35 -25 l249 -940l289 940q2 16 19 23q4 2 14 2h276q10 0 19 -4q8 -6 14 -21l287 -940l256 940q6 25 35 25h301z" glyph-name="Wgrave" horiz-adv-x="2322" unicode="Ẁ"/><glyph d="M772 1137l-123 258q-16 35 25 35h252q25 0 35 -25l122 -258q16 -35 -24 -35h-252q-25 0 -35 25zM1827 1004q37 0 24 -35l-348 -944q-8 -25 -37 -25h-262q-29 0 -37 25l-206 540l-205 -540q-10 -25 -37 -25h-264q-29 0 -37 25l-346 944q-12 35 24 35h271q29 0 36 -25 l195 -582l197 582q6 18 20 20q8 4 16 5h259q8 0 16 -5q14 -2 20 -20l201 -582l191 582q10 25 36 25h273z" glyph-name="wgrave" horiz-adv-x="1921" unicode="ẁ"/><glyph d="M1044 1542q-41 0 -24 35l123 258q10 25 35 25h252q41 0 24 -35l-123 -258q-10 -25 -35 -25h-252zM2210 1434q35 0 24 -35l-432 -1374q-8 -25 -39 -25h-278q-27 0 -33 25l-291 882l-293 -882q-8 -25 -34 -25h-277q-35 0 -41 25l-426 1374q-14 35 25 35h301q27 0 35 -25 l249 -940l289 940q2 16 19 23q4 2 14 2h276q10 0 19 -4q8 -6 14 -21l287 -940l256 940q6 25 35 25h301z" glyph-name="Wacute" horiz-adv-x="2322" unicode="Ẃ"/><glyph d="M844 1112q-41 0 -25 35l123 258q10 25 35 25h252q41 0 24 -35l-123 -258q-10 -25 -34 -25h-252zM1827 1004q37 0 24 -35l-348 -944q-8 -25 -37 -25h-262q-29 0 -37 25l-206 540l-205 -540q-10 -25 -37 -25h-264q-29 0 -37 25l-346 944q-12 35 24 35h271q29 0 36 -25 l195 -582l197 582q6 18 20 20q8 4 16 5h259q8 0 16 -5q14 -2 20 -20l201 -582l191 582q10 25 36 25h273z" glyph-name="wacute" horiz-adv-x="1921" unicode="ẃ"/><glyph d="M921.5 1542q-67.5 0 -115.5 48t-48 120q0 68 48 116t115.5 48t115.5 -47t48 -117q0 -72 -48 -120t-115.5 -48zM1405 1542q-68 0 -116 48t-48 120q0 70 48 117t116 47t116 -48t48 -116q0 -72 -48 -120t-116 -48zM2210 1434q35 0 24 -35l-432 -1374q-8 -25 -39 -25h-278 q-27 0 -33 25l-291 882l-293 -882q-8 -25 -34 -25h-277q-35 0 -41 25l-426 1374q-14 35 25 35h301q27 0 35 -25l249 -940l289 940q2 16 19 23q4 2 14 2h276q10 0 19 -4q8 -6 14 -21l287 -940l256 940q6 25 35 25h301z" glyph-name="Wdieresis" horiz-adv-x="2322" unicode="Ẅ"/><glyph d="M720.5 1112q-67.5 0 -115.5 48t-48 120q0 68 48 116t115.5 48t116 -47t48.5 -117q0 -72 -48.5 -120t-116 -48zM1204.5 1112q-67.5 0 -116 48t-48.5 120q0 70 48.5 117t116 47t115.5 -48t48 -116q0 -72 -48 -120t-115.5 -48zM1827 1004q37 0 24 -35l-348 -944 q-8 -25 -37 -25h-262q-29 0 -37 25l-206 540l-205 -540q-10 -25 -37 -25h-264q-29 0 -37 25l-346 944q-12 35 24 35h271q29 0 36 -25l195 -582l197 582q6 18 20 20q8 4 16 5h259q8 0 16 -5q14 -2 20 -20l201 -582l191 582q10 25 36 25h273z" glyph-name="wdieresis" horiz-adv-x="1921" unicode="ẅ"/><glyph d="M496 1567l-123 258q-16 35 24 35h252q25 0 35 -25l123 -258q16 -35 -25 -35h-252q-24 0 -34 25zM1260 1434q39 0 20 -37l-418 -742v-624q0 -31 -31 -31h-288q-31 0 -31 31v628l-418 738q-18 37 21 37h303q25 0 37 -21l231 -428l232 428q12 20 36 21h306z" glyph-name="Ygrave" horiz-adv-x="1372" unicode="Ỳ"/><glyph d="M332 1430h252q25 0 34 -25l123 -258q16 -35 -24 -35h-252q-25 0 -35 25l-123 258q-16 35 25 35zM1149 1004q37 0 25 -35l-531 -1334q-8 -25 -37 -24h-270q-41 0 -25 35l148 352l-387 971q-12 35 24 35h279q27 0 37 -25l209 -580l208 580q10 25 37 25h283z" glyph-name="ygrave" horiz-adv-x="1245" unicode="ỳ"/><glyph d="M1137 698q31 0 30 -30v-211q0 -31 -30 -31h-983q-31 0 -31 31v211q0 31 31 30h983z" glyph-name="endash" horiz-adv-x="1290" unicode="–"/><glyph d="M1260 698q31 0 30 -30v-211q0 -31 -30 -31h-1106q-31 0 -31 31v211q0 31 31 30h1106z" glyph-name="emdash" horiz-adv-x="1413" unicode="—"/><glyph d="M295 1167q63 -12 107 -62t44 -116q0 -74 -55 -127t-131 -53q-78 0 -128 57.5t-50 155.5q0 225 223 448l80 -47q-78 -117 -90 -256z" glyph-name="quoteleft" horiz-adv-x="528" unicode="‘"/><glyph d="M268 1466q78 0 128 -57t50 -156q0 -225 -223 -448l-80 47q78 117 90 256q-63 12 -107 62.5t-44 115.5q0 74 55 127t131 53z" glyph-name="quoteright" horiz-adv-x="528" unicode="’"/><glyph d="M268 330q78 0 128 -57.5t50 -155.5q0 -225 -223 -449l-80 47q78 117 90 256q-63 12 -107 62.5t-44 116.5q0 74 55 127t131 53z" glyph-name="quotesinglbase" horiz-adv-x="522" unicode="‚"/><glyph d="M295 1167q63 -12 107 -62t44 -116q0 -74 -55 -127t-131 -53q-78 0 -128 57.5t-50 155.5q0 225 223 448l80 -47q-78 -117 -90 -256zM731 1167q63 -12 107.5 -62t44.5 -116q0 -74 -55.5 -127t-131.5 -53q-78 0 -128 57.5t-50 155.5q0 225 223 448l80 -47q-78 -117 -90 -256 z" glyph-name="quotedblleft" horiz-adv-x="964" unicode="“"/><glyph d="M268 1466q78 0 128 -57t50 -156q0 -225 -223 -448l-80 47q78 117 90 256q-63 12 -107 62.5t-44 115.5q0 74 55 127t131 53zM705 1466q78 0 128 -57t50 -156q0 -225 -224 -448l-79 47q78 117 90 256q-63 12 -107.5 62.5t-44.5 115.5q0 74 55.5 127t131.5 53z" glyph-name="quotedblright" horiz-adv-x="964" unicode="”"/><glyph d="M268 330q78 0 128 -57.5t50 -155.5q0 -225 -223 -449l-80 47q78 117 90 256q-63 12 -107 62.5t-44 116.5q0 74 55 127t131 53zM723 330q78 0 128 -57.5t50 -155.5q0 -225 -223 -449l-80 47q78 117 90 256q-63 12 -107 62.5t-44 116.5q0 74 55 127t131 53z" glyph-name="quotedblbase" horiz-adv-x="983" unicode="„"/><glyph d="M874 1169q31 0 31 -30v-181q0 -31 -31 -30h-235v-234q0 -31 -31 -30h-180q-31 0 -31 30v234h-233q-31 0 -31 30v181q0 31 31 30h233v234q0 31 31 31h180q31 0 31 -31v-234h235z" glyph-name="dagger" horiz-adv-x="1038" unicode="†"/><glyph d="M874 1169q31 0 31 -30v-181q0 -31 -31 -30h-235v-234q0 -31 -31 -30h-180q-31 0 -31 30v234h-233q-31 0 -31 30v181q0 31 31 30h233v234q0 31 31 31h180q31 0 31 -31v-234h235zM874 274q31 0 31 -30v-181q0 -31 -31 -30h-235v-234q0 -31 -31 -30h-180q-31 0 -31 30v234 h-233q-31 0 -31 30v181q0 31 31 30h233v234q0 31 31 31h180q31 0 31 -31v-234h235z" glyph-name="daggerdbl" horiz-adv-x="1038" unicode="‡"/><glyph d="M370.5 326q-98.5 0 -168 70.5t-69.5 166.5q0 98 69.5 168t168 70t168 -69.5t69.5 -168.5q0 -96 -69.5 -166.5t-168 -70.5z" glyph-name="bullet" horiz-adv-x="741" unicode="•"/><glyph d="M270.5 -27q-73.5 0 -126 52.5t-52.5 126t52.5 126t126 52.5t126 -52.5t52.5 -126t-52.5 -126t-126 -52.5zM776 -27q-74 0 -126 52.5t-52 126t52 126t126 52.5t126 -52.5t52 -126t-52 -126t-126 -52.5zM1282 -27q-74 0 -126 52.5t-52 126t52 126t126 52.5t126 -52.5 t52 -126t-52 -126t-126 -52.5z" glyph-name="ellipsis" horiz-adv-x="1552" unicode="…"/><glyph d="M381 1444q119 0 200 -80t81 -196.5t-81 -197.5t-200 -81t-199 81t-80 197.5t80 196.5t199 80zM1087 1421l187 -114l-868 -1293l-187 115zM381 1233q-25 0 -44.5 -18.5t-19.5 -47.5q0 -27 19.5 -46t44.5 -19q29 0 47 18.5t18 47t-18 47t-47 18.5zM1110 545q119 0 199 -81 t80 -197.5t-80 -196.5t-199 -80q-117 0 -199 80t-82 196.5t82 197.5t199 81zM1833 545q119 0 198.5 -81t79.5 -197.5t-79.5 -196.5t-198.5 -80q-117 0 -199 80t-82 196.5t82 197.5t199 81zM1110 334q-27 0 -46.5 -20.5t-19.5 -47t19.5 -45t46.5 -18.5t45.5 18.5t18.5 44.5 q0 29 -18.5 48.5t-45.5 19.5zM1833 334q-27 0 -46.5 -20.5t-19.5 -47t19.5 -45t46.5 -18.5t45 18.5t18 44.5q0 29 -18 48.5t-45 19.5z" glyph-name="perthousand" horiz-adv-x="2213" unicode="‰"/><glyph d="M92 647q0 23 17 37l229 205q12 12 24.5 7t12.5 -26v-172q0 -23 -17 -36l-131 -111l131 -111q16 -14 17 -37v-172q0 -20 -12.5 -26t-24.5 6l-229 207q-16 14 -17 37v192z" glyph-name="guilsinglleft" horiz-adv-x="466" unicode="‹"/><glyph d="M375 772v-192q0 -23 -17 -37l-229 -207q-12 -12 -24.5 -6t-12.5 26v172q0 23 17 37l131 111l-131 110q-16 14 -17 37v172q0 20 12.5 25.5t24.5 -6.5l229 -205q17 -14 17 -37z" glyph-name="guilsinglright" horiz-adv-x="466" unicode="›"/><glyph d="M641 1434l-881 -1434h-98l893 1434h86z" glyph-name="fraction" horiz-adv-x="303" unicode="⁄"/><glyph d="M1247 422l178 -193q16 -25 0 -43q-201 -213 -510 -213q-229 0 -414.5 123t-271.5 326h-116q-31 0 -31 31v180q0 31 31 31h59q-2 16 -2 47v34h-57q-31 0 -31 31v180q0 31 31 31h110q82 207 270.5 335t421.5 128q313 0 510 -213q18 -18 0 -43l-178 -193q-16 -25 -43 -2 q-125 109 -293 109t-278 -121h149q31 0 31 -31v-180q0 -31 -31 -31h-250q-2 -12 -2 -34q0 -31 2 -47h250q31 0 31 -31v-180q0 -31 -31 -31h-133q109 -104 262 -105q172 0 293 109q25 21 43 -4z" glyph-name="Euro" horiz-adv-x="1501" unicode="€"/><glyph d="M1208 745h-178q-49 -47 -117 -81h295q35 0 31 -31v-180q4 -31 -31 -31h-178l156 -176q16 -23 0 -43q-74 -92 -212 -160t-292 -68q-203 0 -358.5 116t-155.5 327v4h-62q-31 0 -30 31v180q0 31 30 31h134q37 49 82 81h-216q-31 0 -30 31v180q0 31 30 31h691q6 16 6 33 q0 41 -35 70.5t-102 29.5q-63 0 -117.5 -21.5t-136.5 -74.5q-25 -16 -43 8l-150 187q-14 25 4 43q205 188 455 188q188 0 327.5 -113.5t139.5 -308.5q0 -29 -2 -41h65q35 0 31 -31v-180q4 -31 -31 -31zM672 305q156 0 301 117h-463q0 -57 47 -87t115 -30z" glyph-name="uni20B4" horiz-adv-x="1316" unicode="₴"/><glyph d="M479 1434q10 0 10 -11v-71q0 -10 -10 -11h-112v-266q0 -10 -11 -10h-90q-10 0 -10 10v266h-113q-10 0 -10 11v71q0 10 10 11h336zM1057 1434q10 0 10 -11v-348q0 -10 -10 -10h-84q-10 0 -10 10v178l-107 -182q-4 -6 -12 -6h-58q-8 0 -12 6l-108 182v-178q0 -10 -11 -10 h-84q-10 0 -10 10v348q0 10 10 11h93q10 0 12 -4l137 -226l141 226q2 4 13 4h90z" glyph-name="trademark" horiz-adv-x="1200" unicode="™"/><glyph d="M213 1436v-535h-76v461h-55v74h131zM1075 1434l-880 -1434h-99l893 1434h86zM924 539q74 0 117.5 -41t43.5 -97q0 -70 -61 -108q88 -43 88 -135q0 -70 -55.5 -116t-132.5 -46q-76 0 -131.5 46t-55.5 116q0 92 88 135q-61 39 -61 108q0 53 44 95.5t116 42.5zM924 475 q-41 0 -62.5 -21.5t-21.5 -52t25.5 -55t58.5 -24.5q35 0 59.5 23.5t24.5 55.5q0 74 -84 74zM924 258q-45 0 -78 -28.5t-33 -71.5q0 -41 33 -70t78 -29q49 0 79.5 27t30.5 72t-30.5 72.5t-79.5 27.5z" glyph-name="oneeighth" horiz-adv-x="1193" unicode="⅛"/><glyph d="M268 1440q66 0 115 -42t49 -98q0 -66 -61 -108q86 -37 86 -135q0 -70 -56.5 -117t-132.5 -47q-84 0 -139 56.5t-47 129.5h78q-14 -47 21.5 -84t86.5 -37q45 0 78 28t33 71q0 57 -41 80.5t-111 9.5v65q129 8 129 88q0 31 -25.5 53.5t-62.5 22.5q-45 0 -72.5 -32.5 t-19.5 -86.5h-80q-8 78 44 130.5t128 52.5zM1122 1434l-880 -1434h-99l893 1434h86zM967 539q74 0 117.5 -41t43.5 -97q0 -70 -61 -108q88 -43 88 -135q0 -70 -55.5 -116t-132.5 -46q-76 0 -131.5 46t-55.5 116q0 92 88 135q-61 39 -61 108q0 53 44 95.5t116 42.5zM967 475 q-41 0 -62.5 -21.5t-21.5 -52t25.5 -55t58.5 -24.5q37 0 60.5 23.5t23.5 55.5q0 74 -84 74zM967 258q-45 0 -78 -28.5t-33 -71.5q0 -41 33 -70t78 -29q49 0 79.5 27t30.5 72t-30.5 72.5t-79.5 27.5z" glyph-name="threeeighths" horiz-adv-x="1236" unicode="⅜"/><glyph d="M412 1436v-66h-213l-17 -119q45 20 92 21q72 0 129.5 -54.5t57.5 -134t-57.5 -135t-137.5 -55.5q-68 0 -120 38t-64 89l68 39q4 -41 35.5 -71t80.5 -30q47 0 82 36t35 89q0 51 -34 87t-75 36q-72 0 -116 -59l-66 16l37 273h283zM1122 1434l-880 -1434h-99l893 1434h86z M971 539q74 0 118 -41t44 -97q0 -70 -62 -108q88 -43 88 -135q0 -70 -55 -116t-133 -46q-76 0 -131.5 46t-55.5 116q0 92 88 135q-61 39 -61 108q0 53 44 95.5t116 42.5zM971 475q-41 0 -62.5 -21.5t-21.5 -52t25.5 -55t58.5 -24.5q37 0 60.5 23.5t23.5 55.5q0 74 -84 74z M971 258q-45 0 -78 -28.5t-33 -71.5q0 -41 33 -70t78 -29q49 0 79.5 27t30.5 72t-30.5 72.5t-79.5 27.5z" glyph-name="fiveeighths" horiz-adv-x="1241" unicode="⅝"/><glyph d="M436 1436l-209 -535h-80l183 469h-248v66h354zM1077 1434l-880 -1434h-99l893 1434h86zM926 539q74 0 117.5 -41t43.5 -97q0 -70 -61 -108q88 -43 88 -135q0 -70 -55 -116t-133 -46q-76 0 -131.5 46t-55.5 116q0 92 88 135q-61 39 -61 108q0 53 44 95.5t116 42.5z M926 475q-41 0 -62.5 -21.5t-21.5 -52t25.5 -55t58.5 -24.5q37 0 60.5 23.5t23.5 55.5q0 74 -84 74zM926 258q-45 0 -78 -28.5t-33 -71.5q0 -41 33 -70t78 -29q49 0 79.5 27t30.5 72t-30.5 72.5t-79.5 27.5z" glyph-name="seveneighths" horiz-adv-x="1196" unicode="⅞"/><glyph d="M907 934q195 -236 195 -455t-151.5 -362.5t-375.5 -143.5q-221 0 -372.5 143.5t-151.5 362.5q0 190 118 320.5t302 171.5l-248 286q-16 20 6 43l193 164q23 18 43 -6zM575.5 289q83.5 0 142 55t58.5 135q0 88 -58.5 147.5t-142 59.5t-141 -59.5t-57.5 -147.5 q0 -80 57.5 -135t141 -55z" glyph-name="partialdiff" horiz-adv-x="1183" unicode="∂"/><glyph d="M123 1608q0 31 31 30h1265q31 0 31 -30v-1966q0 -31 -31 -31h-241q-31 0 -31 31v1689h-719v-1689q0 -31 -31 -31h-243q-31 0 -31 31v1966z" glyph-name="product" horiz-adv-x="1572" unicode="∏"/><glyph d="M1327 1638q31 0 31 -30v-248q0 -31 -31 -31h-809l549 -680q16 -23 0 -47l-549 -682h809q31 0 31 -31v-247q0 -31 -31 -31h-1173q-31 0 -31 31v258q0 18 12 37l551 688l-551 688q-12 18 -12 37v258q0 31 31 30h1173z" glyph-name="summation" horiz-adv-x="1480" unicode="∑"/><glyph d="M915 707q31 0 31 -31v-180q0 -31 -31 -31h-751q-31 0 -31 31v180q0 31 31 31h751z" glyph-name="minus" horiz-adv-x="1079" unicode="−"/><glyph d="M1522 1638q39 0 26 -34l-555 -1966q-6 -27 -32 -27h-281q-29 0 -35 22l-272 861h-219q-31 0 -31 30v248q0 31 31 31h393q29 0 35 -27l233 -796l461 1632q6 27 33 26h213z" glyph-name="radical" horiz-adv-x="1673" unicode="√"/><glyph d="M1249 881q158 0 270.5 -95.5t112.5 -246.5q0 -160 -112.5 -256.5t-270.5 -96.5q-207 0 -389 176q-182 -176 -387 -176q-162 0 -273.5 96.5t-111.5 256.5q0 152 112.5 247t272.5 95q203 0 387 -174q184 174 389 174zM485 406q72 0 121 24.5t111 104.5q-63 78 -111.5 102.5 t-120.5 24.5q-63 0 -102 -40t-39 -87q0 -51 39 -90t102 -39zM1233 406q63 0 102 38.5t39 90.5q0 47 -40 87t-101 40q-72 0 -120 -25t-109 -102q61 -80 109 -104.5t120 -24.5z" glyph-name="infinity" horiz-adv-x="1718" unicode="∞"/><glyph d="M899 1604q20 -12 21 -37v-244q0 -18 -11.5 -25.5t-25.5 0.5q-61 37 -123 37q-63 0 -80.5 -28.5t-17.5 -85.5v-1239q0 -184 -105.5 -277.5t-282.5 -93.5q-127 0 -186 35q-20 12 -20 37v243q0 18 11 25.5t25 -0.5q61 -37 121 -37q45 0 67.5 17.5t27 38t4.5 61.5v1237 q0 184 105.5 277t281.5 93q127 1 188 -34z" glyph-name="integral" horiz-adv-x="899" unicode="∫"/><glyph d="M385 905q82 0 153.5 -41t131 -81t110.5 -40q37 0 67 17.5t40 42.5q10 18 24 18h84q18 0 23 -22q6 -129 -70 -195.5t-196 -66.5q-102 0 -219 81.5t-171 81.5q-82 -4 -108 -61q-4 -20 -25 -16h-82q-10 -2 -18 7t-6 21q31 254 262 254zM385 578q82 0 153.5 -41t131 -81 t110.5 -40q37 0 67 17.5t40 41.5q10 18 24 19h84q18 0 23 -23q6 -129 -70 -195.5t-196 -66.5q-102 0 -219 82t-171 82q-82 -4 -108 -62q-4 -20 -25 -16h-82q-10 -2 -18 7t-6 22q31 254 262 254z" glyph-name="approxequal" horiz-adv-x="1140" unicode="≈"/><glyph d="M915 643h-206l-45 -117h251q31 0 31 -30v-181q0 -31 -31 -30h-346l-100 -260q-10 -25 -37 -25h-217q-37 0 -25 35l97 250h-123q-31 0 -31 30v181q0 31 31 30h217l45 117h-262q-31 0 -31 31v180q0 31 31 31h356l92 239q10 25 37 25h217q37 0 25 -35l-88 -229h112 q31 0 31 -31v-180q0 -31 -31 -31z" glyph-name="notequal" horiz-adv-x="1079" unicode="≠"/><glyph d="M852 1214q16 8 26.5 2t10.5 -22v-201q0 -23 -23 -28l-454 -181l454 -178q23 -10 23 -33v-200q0 -35 -37 -21l-713 328q-20 14 -20 31v145q0 18 20 33zM903 264q31 0 31 -31v-180q0 -31 -31 -30h-751q-31 0 -31 30v180q0 31 31 31h751z" glyph-name="lessequal" horiz-adv-x="1015" unicode="≤"/><glyph d="M211 1214l713 -325q20 -14 20 -33v-145q0 -16 -20 -31l-713 -328q-37 -14 -37 21v200q0 23 23 33l454 178l-454 181q-23 6 -23 28v201q0 16 11.5 22t25.5 -2zM160 264h751q31 0 31 -31v-180q0 -31 -31 -30h-751q-31 0 -31 30v180q0 31 31 31z" glyph-name="greaterequal" horiz-adv-x="1077" unicode="≥"/><glyph d="M840 1434q27 0 34 -23l300 -674q8 -20 0 -41l-300 -673q-8 -23 -34 -23h-375q-27 0 -35 23l-299 673q-8 20 0 41l299 674q8 23 35 23h375zM653 201l228 516l-228 516l-229 -516z" glyph-name="lozenge" horiz-adv-x="1304" unicode="◊"/><glyph d="M1614 1190q23 -23 0 -45l-969 -969q-23 -23 -45 0l-524 524q-23 20 0 43l174 175q23 20 43 0l299 -300l774 775q23 23 45 0z" glyph-name="uni2713" horiz-adv-x="1691" unicode="✓"/><glyph d="M278.5 1112q-67.5 0 -115.5 48t-48 120q0 68 48 116t115.5 48t115.5 -47t48 -117q0 -72 -48 -120t-115.5 -48zM109 973q0 31 30 31h277q31 0 30 -31v-942q0 -31 -30 -31h-277q-31 0 -30 31v942z" glyph-name="i.aalt" horiz-adv-x="552"/><glyph d="M791 1473q20 -12 20 -37v-244q0 -18 -10 -24.5t-27 3.5q-55 33 -121 33q-45 0 -67.5 -17.5t-26.5 -38t-4 -58.5v-86h213q31 0 31 -31v-211q0 -31 -31 -31h-213v-700q0 -31 -31 -31h-276q-31 0 -31 31v700h-119q-31 0 -30 31v211q0 31 30 31h119v133q0 184 105.5 277 t281.5 93q126 1 187 -34z" glyph-name="f.aalt" horiz-adv-x="892"/><glyph d="M1063 264q27 -14 27 -35v-200q0 -33 -25 -35q-266 -35 -346 108q-113 -129 -291 -129q-166 0 -258 76t-92 227q0 143 88 210t285 102l96 16q113 18 139 49q-14 94 -111 95q-98 0 -129 -84q-4 -18 -26 -19h-260q-33 0 -31 31q18 350 453 350q209 0 326.5 -102.5 t117.5 -315.5v-260q0 -66 37 -84zM412 322q0 -68 86 -68q109 0 190 74v133q-25 -33 -145 -58l-64 -14q-67 -14 -67 -67z" glyph-name="a.salt" horiz-adv-x="1157"/><glyph d="M469 1112q-41 0 -25 35l123 258q10 25 35 25h252q41 0 25 -35l-123 -258q-10 -25 -35 -25h-252zM1063 264q27 -14 27 -35v-200q0 -33 -25 -35q-266 -35 -346 108q-113 -129 -291 -129q-166 0 -258 76t-92 227q0 143 88 210t285 102l96 16q113 18 139 49q-14 94 -111 95 q-98 0 -129 -84q-4 -18 -26 -19h-260q-33 0 -31 31q18 350 453 350q209 0 326.5 -102.5t117.5 -315.5v-260q0 -66 37 -84zM412 322q0 -68 86 -68q109 0 190 74v133q-25 -33 -145 -58l-64 -14q-67 -14 -67 -67z" glyph-name="aacute.aalt" horiz-adv-x="1157"/><glyph d="M587.5 1128q-147.5 0 -237.5 78t-102 195q-2 31 28 31h138q27 0 32 -29q12 -37 48 -63.5t93.5 -26.5t93.5 26.5t46 63.5q6 29 33 29h137q33 0 29 -31q-12 -117 -101.5 -195t-237 -78zM1063 264q27 -14 27 -35v-200q0 -33 -25 -35q-266 -35 -346 108q-113 -129 -291 -129 q-166 0 -258 76t-92 227q0 143 88 210t285 102l96 16q113 18 139 49q-14 94 -111 95q-98 0 -129 -84q-4 -18 -26 -19h-260q-33 0 -31 31q18 350 453 350q209 0 326.5 -102.5t117.5 -315.5v-260q0 -66 37 -84zM412 322q0 -68 86 -68q109 0 190 74v133q-25 -33 -145 -58 l-64 -14q-67 -14 -67 -67z" glyph-name="abreve.aalt" horiz-adv-x="1157"/><glyph d="M455 1163l-207 230q-12 12 -6 24.5t26 12.5h172q23 0 37 -17l111 -131l110 131q14 16 37 17h172q20 0 25.5 -12.5t-6.5 -24.5l-205 -230q-14 -16 -37 -16h-192q-23 0 -37 16zM1063 264q27 -14 27 -35v-200q0 -33 -25 -35q-266 -35 -346 108q-113 -129 -291 -129 q-166 0 -258 76t-92 227q0 143 88 210t285 102l96 16q113 18 139 49q-14 94 -111 95q-98 0 -129 -84q-4 -18 -26 -19h-260q-33 0 -31 31q18 350 453 350q209 0 326.5 -102.5t117.5 -315.5v-260q0 -66 37 -84zM412 322q0 -68 86 -68q109 0 190 74v133q-25 -33 -145 -58 l-64 -14q-67 -14 -67 -67z" glyph-name="uni01CE.aalt" horiz-adv-x="1157"/><glyph d="M268 1147q-20 0 -26 12t6 25l207 229q14 16 37 17h192q23 0 37 -17l205 -229q12 -12 7 -24.5t-26 -12.5h-172q-23 0 -37 16l-110 131l-111 -131q-14 -16 -37 -16h-172zM1063 264q27 -14 27 -35v-200q0 -33 -25 -35q-266 -35 -346 108q-113 -129 -291 -129q-166 0 -258 76 t-92 227q0 143 88 210t285 102l96 16q113 18 139 49q-14 94 -111 95q-98 0 -129 -84q-4 -18 -26 -19h-260q-33 0 -31 31q18 350 453 350q209 0 326.5 -102.5t117.5 -315.5v-260q0 -66 37 -84zM412 322q0 -68 86 -68q109 0 190 74v133q-25 -33 -145 -58l-64 -14 q-67 -14 -67 -67z" glyph-name="acircumflex.aalt" horiz-adv-x="1157"/><glyph d="M346.5 1112q-67.5 0 -116 48t-48.5 120q0 68 48.5 116t116 48t115.5 -47t48 -117q0 -72 -48 -120t-115.5 -48zM829.5 1112q-67.5 0 -115.5 48t-48 120q0 70 48 117t115.5 47t115.5 -48t48 -116q0 -72 -48 -120t-115.5 -48zM1063 264q27 -14 27 -35v-200q0 -33 -25 -35 q-266 -35 -346 108q-113 -129 -291 -129q-166 0 -258 76t-92 227q0 143 88 210t285 102l96 16q113 18 139 49q-14 94 -111 95q-98 0 -129 -84q-4 -18 -26 -19h-260q-33 0 -31 31q18 350 453 350q209 0 326.5 -102.5t117.5 -315.5v-260q0 -66 37 -84zM412 322q0 -68 86 -68 q109 0 190 74v133q-25 -33 -145 -58l-64 -14q-67 -14 -67 -67z" glyph-name="adieresis.aalt" horiz-adv-x="1157"/><glyph d="M397 1137l-123 258q-16 35 25 35h252q25 0 35 -25l123 -258q16 -35 -25 -35h-252q-25 0 -35 25zM1063 264q27 -14 27 -35v-200q0 -33 -25 -35q-266 -35 -346 108q-113 -129 -291 -129q-166 0 -258 76t-92 227q0 143 88 210t285 102l96 16q113 18 139 49q-14 94 -111 95 q-98 0 -129 -84q-4 -18 -26 -19h-260q-33 0 -31 31q18 350 453 350q209 0 326.5 -102.5t117.5 -315.5v-260q0 -66 37 -84zM412 322q0 -68 86 -68q109 0 190 74v133q-25 -33 -145 -58l-64 -14q-67 -14 -67 -67z" glyph-name="agrave.aalt" horiz-adv-x="1157"/><glyph d="M262 1171q-31 0 -31 31v197q0 31 31 31h649q31 0 31 -31v-197q0 -31 -31 -31h-649zM1063 264q27 -14 27 -35v-200q0 -33 -25 -35q-266 -35 -346 108q-113 -129 -291 -129q-166 0 -258 76t-92 227q0 143 88 210t285 102l96 16q113 18 139 49q-14 94 -111 95 q-98 0 -129 -84q-4 -18 -26 -19h-260q-33 0 -31 31q18 350 453 350q209 0 326.5 -102.5t117.5 -315.5v-260q0 -66 37 -84zM412 322q0 -68 86 -68q109 0 190 74v133q-25 -33 -145 -58l-64 -14q-67 -14 -67 -67z" glyph-name="amacron.aalt" horiz-adv-x="1157"/><glyph d="M1063 264q27 -14 27 -35v-200q0 -33 -25 -35l-53 -6q-57 -2 -90 -32t-33 -77q0 -31 26.5 -52.5t88.5 -8.5v-203q-49 -20 -114 -21.5t-125 17t-102 72t-42 131.5q0 158 151 229q-33 23 -53 59q-113 -129 -291 -129q-166 0 -258 76t-92 227q0 143 88 210t285 102l96 16 q113 18 139 49q-14 94 -111 95q-98 0 -129 -84q-4 -18 -26 -19h-260q-33 0 -31 31q18 350 453 350q209 0 326.5 -102.5t117.5 -315.5v-260q0 -66 37 -84zM412 322q0 -68 86 -68q109 0 190 74v133q-25 -33 -145 -58l-64 -14q-67 -14 -67 -67z" glyph-name="aogonek.aalt" horiz-adv-x="1146"/><glyph d="M590 1081q-98 0 -166 68t-68 160q0 94 68 161.5t166 67.5q92 0 159.5 -67.5t67.5 -161.5q0 -92 -67.5 -160t-159.5 -68zM587.5 1358q-18.5 0 -31.5 -14.5t-13 -33t13 -31.5t31.5 -13t32 13t13.5 31.5t-13.5 33t-32 14.5zM1063 264q27 -14 27 -35v-200q0 -33 -25 -35 q-266 -35 -346 108q-113 -129 -291 -129q-166 0 -258 76t-92 227q0 143 88 210t285 102l96 16q113 18 139 49q-14 94 -111 95q-98 0 -129 -84q-4 -18 -26 -19h-260q-33 0 -31 31q18 350 453 350q209 0 326.5 -102.5t117.5 -315.5v-260q0 -66 37 -84zM412 322q0 -68 86 -68 q109 0 190 74v133q-25 -33 -145 -58l-64 -14q-67 -14 -67 -67z" glyph-name="aring.aalt" horiz-adv-x="1157"/><glyph d="M201 1221q-20 0 -21 26q8 115 72.5 173.5t167.5 58.5q74 0 138.5 -37t118.5 -74t99 -37q74 0 98 55q6 14 23 15h76q20 0 20 -21q-4 -117 -69.5 -177t-171.5 -60q-72 0 -137.5 37t-119 73.5t-98.5 36.5q-70 0 -98 -55q-8 -14 -23 -14h-75zM1063 264q27 -14 27 -35v-200 q0 -33 -25 -35q-266 -35 -346 108q-113 -129 -291 -129q-166 0 -258 76t-92 227q0 143 88 210t285 102l96 16q113 18 139 49q-14 94 -111 95q-98 0 -129 -84q-4 -18 -26 -19h-260q-33 0 -31 31q18 350 453 350q209 0 326.5 -102.5t117.5 -315.5v-260q0 -66 37 -84zM412 322 q0 -68 86 -68q109 0 190 74v133q-25 -33 -145 -58l-64 -14q-67 -14 -67 -67z" glyph-name="atilde.aalt" horiz-adv-x="1157"/><glyph d="M776 154q166 0 243 -78t77 -193q0 -287 -537 -286q-481 0 -481 219q0 98 117 139q-92 82 -93 188q0 137 123 201q-102 113 -102 274q0 182 128 295t335 113q145 0 256 -57l198 35q12 2 21.5 -7.5t9.5 -23.5v-162q0 -31 -31 -31h-20q31 -74 31 -162q0 -184 -128 -297.5 t-337 -113.5q-115 0 -213 39q-41 0 -41 -35q0 -57 223 -57h221zM585.5 756q-57.5 0 -97 -39t-39.5 -99q0 -61 39.5 -100t97 -39t98.5 39t41 100q0 59 -41 98.5t-98.5 39.5zM559 -203q119 0 177.5 7.5t58.5 36t-86 28.5h-295h-2q-80 0 -80 -27q0 -45 227 -45z" glyph-name="g.aalt" horiz-adv-x="1171"/><glyph d="M602.5 1128q-147.5 0 -238 78t-102.5 195q-4 31 29 31h137q27 0 33 -29q12 -37 48 -63.5t93 -26.5t93 26.5t46 63.5q6 29 33 29h137q31 0 29 -31q-12 -117 -101 -195t-236.5 -78zM776 154q166 0 243 -78t77 -193q0 -287 -537 -286q-481 0 -481 219q0 98 117 139 q-92 82 -93 188q0 137 123 201q-102 113 -102 274q0 182 128 295t335 113q145 0 256 -57l198 35q12 2 21.5 -7.5t9.5 -23.5v-162q0 -31 -31 -31h-20q31 -74 31 -162q0 -184 -128 -297.5t-337 -113.5q-115 0 -213 39q-41 0 -41 -35q0 -57 223 -57h221zM585.5 756 q-57.5 0 -97 -39t-39.5 -99q0 -61 39.5 -100t97 -39t98.5 39t41 100q0 59 -41 98.5t-98.5 39.5zM559 -203q119 0 177.5 7.5t58.5 36t-86 28.5h-295h-2q-80 0 -80 -27q0 -45 227 -45z" glyph-name="gbreve.aalt" horiz-adv-x="1171"/><glyph d="M586 1137q-78 0 -128 57t-50 156q0 225 223 448l80 -47q-78 -117 -90 -256q63 -12 107 -62.5t44 -115.5q0 -74 -55 -127t-131 -53zM776 154q166 0 243 -78t77 -193q0 -287 -537 -286q-481 0 -481 219q0 98 117 139q-92 82 -93 188q0 137 123 201q-102 113 -102 274 q0 182 128 295t335 113q145 0 256 -57l198 35q12 2 21.5 -7.5t9.5 -23.5v-162q0 -31 -31 -31h-20q31 -74 31 -162q0 -184 -128 -297.5t-337 -113.5q-115 0 -213 39q-41 0 -41 -35q0 -57 223 -57h221zM585.5 756q-57.5 0 -97 -39t-39.5 -99q0 -61 39.5 -100t97 -39t98.5 39 t41 100q0 59 -41 98.5t-98.5 39.5zM559 -203q119 0 177.5 7.5t58.5 36t-86 28.5h-295h-2q-80 0 -80 -27q0 -45 227 -45z" glyph-name="gcommaaccent.aalt" horiz-adv-x="1202"/><glyph d="M602.5 1112q-67.5 0 -116 48t-48.5 120q0 68 48.5 116t116 48t115.5 -47t48 -117q0 -72 -48 -120t-115.5 -48zM776 154q166 0 243 -78t77 -193q0 -287 -537 -286q-481 0 -481 219q0 98 117 139q-92 82 -93 188q0 137 123 201q-102 113 -102 274q0 182 128 295t335 113 q145 0 256 -57l198 35q12 2 21.5 -7.5t9.5 -23.5v-162q0 -31 -31 -31h-20q31 -74 31 -162q0 -184 -128 -297.5t-337 -113.5q-115 0 -213 39q-41 0 -41 -35q0 -57 223 -57h221zM585.5 756q-57.5 0 -97 -39t-39.5 -99q0 -61 39.5 -100t97 -39t98.5 39t41 100q0 59 -41 98.5 t-98.5 39.5zM559 -203q119 0 177.5 7.5t58.5 36t-86 28.5h-295h-2q-80 0 -80 -27q0 -45 227 -45z" glyph-name="gdotaccent.aalt" horiz-adv-x="1171"/><glyph d="M713 297q37 6 37 -29v-217q0 -63 -199 -63q-135 0 -230.5 77.5t-95.5 247.5v418h-127q-31 0 -30 31v211q0 31 30 31h127v235q0 31 31 31h276q31 0 31 -31v-235h154q31 0 31 -31v-211q0 -31 -31 -31h-154v-350q0 -88 80 -88q45 0 70 4z" glyph-name="t.aalt" horiz-adv-x="823"/><glyph d="M760 1450q242 0 420 -193.5t178 -545.5q0 -180 -52.5 -325.5t-138.5 -232.5t-190.5 -133.5t-216.5 -46.5q-240 0 -419 192.5t-179 545t179 546t419 193.5zM760 1137q-92 0 -156.5 -66.5t-90.5 -159t-26 -201t26 -199.5t90.5 -156.5t156.5 -65.5t156.5 65.5t90 156.5 t25.5 199.5t-25.5 201t-90 159t-156.5 66.5z" glyph-name="zero.tnum" horiz-adv-x="1495"/><glyph d="M1075 1434q31 0 31 -31v-1372q0 -31 -31 -31h-276q-31 0 -31 31v1132h-244q-33 0 -32 31v209q0 31 32 31h551z" glyph-name="one.tnum" horiz-adv-x="1495"/><glyph d="M1241 272q31 0 31 -30v-211q0 -31 -31 -31h-864q-31 0 -31 31v241l172 185q66 70 146.5 149.5t120.5 120.5t81 88t56.5 84t15.5 78q0 76 -54.5 123t-125.5 47q-63 0 -128 -37t-108 -94q-18 -29 -45 -2l-166 162q-18 18 -2 43q66 98 186.5 164.5t274.5 66.5 q207 0 349.5 -131t142.5 -328q0 -66 -19.5 -124t-69 -123.5t-92.5 -112.5t-130 -137.5t-144 -151.5l-59 -70h493z" glyph-name="two.tnum" horiz-adv-x="1495"/><glyph d="M1038 750q209 -115 209 -330q0 -190 -137 -318.5t-371 -128.5q-143 0 -271 57.5t-196 159.5q-14 27 2 43l168 160q27 27 45 0q96 -111 228 -110q98 0 148 47t50 116q0 23 -8 44.5t-29.5 48t-70.5 43t-119 18.5q-31 0 -31 31v192q0 29 33 29q217 6 217 154q0 61 -52 98 t-112 37q-131 0 -209 -107q-20 -25 -45 0l-170 162q-18 18 -2 43q68 96 189 153.5t252 57.5q186 0 315 -113.5t129 -292.5q0 -165 -162 -294z" glyph-name="three.tnum" horiz-adv-x="1495"/><glyph d="M1262 522q31 0 30 -30v-209q0 -31 -30 -31h-119v-221q0 -31 -31 -31h-276q-31 0 -31 31v221h-567q-31 0 -31 31v219q0 20 10 39l576 872q8 20 36 21h283q31 0 31 -31v-881h119zM805 522v418l-273 -418h273z" glyph-name="four.tnum" horiz-adv-x="1495"/><glyph d="M731 979q207 0 342 -143.5t135 -341.5q0 -238 -145 -378.5t-381 -140.5q-150 0 -263.5 69t-162.5 161q-14 23 8 37l201 139q25 18 45 -4q66 -92 170 -92q90 0 145.5 63.5t55.5 145.5q0 76 -55.5 138t-145.5 62q-82 0 -141 -55q-20 -20 -41 -14l-217 65q-27 6 -21 35 l178 682q6 27 33 27h633q31 0 31 -31v-211q0 -31 -31 -31h-428l-51 -194h14q49 12 92 12z" glyph-name="five.tnum" horiz-adv-x="1495"/><glyph d="M868 971q184 -41 302 -171t118 -321q0 -219 -151.5 -362.5t-372.5 -143.5q-223 0 -374.5 143.5t-151.5 362.5t194 455l442 524q20 25 44 6l192 -164q23 -23 6 -43zM764 289q84 0 141.5 55t57.5 135q0 88 -57.5 147.5t-141.5 59.5t-142.5 -59.5t-58.5 -147.5 q0 -80 58.5 -135t142.5 -55z" glyph-name="six.tnum" horiz-adv-x="1495"/><glyph d="M1204 1434q14 0 21.5 -8.5t3.5 -22.5l-531 -1372q-6 -31 -32 -31h-271q-14 0 -24.5 9t-3.5 22l446 1132h-516q-31 0 -31 31v209q0 31 31 31h907z" glyph-name="seven.tnum" horiz-adv-x="1495"/><glyph d="M760 -27q-201 0 -360.5 127t-159.5 344q0 127 60 224.5t165 152.5q-127 102 -127 264q0 152 114.5 258.5t307 106.5t308.5 -106.5t116 -258.5q0 -164 -129 -264q225 -117 225 -377q0 -217 -158.5 -344t-361.5 -127zM760 938q55 0 90 36t35 85q2 53 -36 89t-89 36t-88 -36 t-37 -89q2 -49 37 -85t88 -36zM760 283q78 0 130 46t52 126q0 82 -54 129t-128 47t-128 -47t-54 -129t52 -127t130 -45z" glyph-name="eight.tnum" horiz-adv-x="1495"/><glyph d="M793 1450q223 0 374.5 -143.5t151.5 -362.5t-195 -455l-442 -524q-20 -25 -43 -6l-193 164q-23 23 -6 43l248 287q-184 41 -302 171t-118 320q0 219 152 362.5t373 143.5zM793 737q84 0 142 59.5t58 147.5q0 80 -58 135.5t-142 55.5t-141.5 -55.5t-57.5 -135.5 q0 -88 57.5 -147.5t141.5 -59.5z" glyph-name="nine.tnum" horiz-adv-x="1495"/><glyph d="M297 539q96 0 155.5 -72t59.5 -186v-27q0 -115 -59.5 -186.5t-155.5 -71.5q-92 0 -153.5 71.5t-61.5 186.5v27q0 115 61.5 186.5t153.5 71.5zM297 475q-59 0 -99 -52t-40 -142v-27q0 -90 40 -142.5t99 -52.5q63 0 101 51.5t38 143.5v27q0 92 -38 143t-101 51z" glyph-name="zero.dnom" horiz-adv-x="593"/><glyph d="M213 535v-535h-76v461h-55v74h131z" glyph-name="one.dnom" horiz-adv-x="294"/><glyph d="M254 541q70 0 121 -46t51 -108q0 -53 -29.5 -96t-109.5 -125l-97 -100h242v-66h-344v66l139 141q57 59 74.5 78.5t32 46t14.5 55.5q0 37 -28.5 63.5t-65.5 26.5q-39 0 -67.5 -26.5t-28.5 -75.5v-29h-76v29q0 72 50 119t122 47z" glyph-name="two.dnom" horiz-adv-x="514"/><glyph d="M268 539q66 0 115 -42t49 -98q0 -66 -61 -108q86 -37 86 -135q0 -70 -56.5 -117t-132.5 -47q-84 0 -139 56t-47 130h78q-14 -47 21.5 -84t86.5 -37q45 0 78 28t33 71q0 57 -41 80.5t-111 9.5v65q129 8 129 88q0 31 -25.5 53.5t-62.5 22.5q-45 0 -72.5 -32.5t-19.5 -86.5 h-80q-8 78 44 130.5t128 52.5z" glyph-name="three.dnom" horiz-adv-x="538"/><glyph d="M428 535v-316h55v-63h-55v-156h-76v156h-270l270 379h76zM352 424l-143 -205h143v205z" glyph-name="four.dnom" horiz-adv-x="565"/><glyph d="M412 535v-66h-213l-17 -119q45 20 92 21q72 0 129.5 -54.5t57.5 -134.5t-57.5 -135t-137.5 -55q-68 0 -120 38t-64 89l68 39q4 -41 35.5 -71t80.5 -30q47 0 82 36t35 89q0 51 -34 87t-75 36q-72 0 -116 -59l-66 16l37 273h283z" glyph-name="five.dnom" horiz-adv-x="542"/><glyph d="M387 535l-139 -197h12q70 0 123 -51t53 -121q0 -72 -53 -123t-123 -51t-124 51t-54 123q0 33 11 64.5t20.5 47t37 51.5t33.5 44l117 162h86zM260 272q-45 0 -73.5 -28.5t-28.5 -77.5q0 -47 31.5 -78t70.5 -31q37 0 68.5 31t31.5 78t-30.5 76.5t-69.5 29.5z" glyph-name="six.dnom" horiz-adv-x="518"/><glyph d="M436 535l-209 -535h-80l183 469h-248v66h354z" glyph-name="seven.dnom" horiz-adv-x="518"/><glyph d="M268 539q74 0 118 -41t44 -97q0 -70 -61 -108q88 -43 88 -135q0 -70 -55.5 -116t-133.5 -46q-76 0 -131 46t-55 116q0 92 88 135q-61 39 -61 108q0 53 43.5 95.5t115.5 42.5zM268 475q-41 0 -62.5 -21.5t-21.5 -52t26 -55t58 -24.5q35 0 59.5 23.5t24.5 55.5q0 74 -84 74 zM268 258q-45 0 -77.5 -28.5t-32.5 -71.5q0 -41 32.5 -70t77.5 -29q49 0 80 27t31 72t-31 72.5t-80 27.5z" glyph-name="eight.dnom" horiz-adv-x="538"/><glyph d="M260 541q70 0 124 -50.5t54 -121.5q0 -27 -5 -49.5t-18.5 -46t-21.5 -37t-29.5 -40t-29.5 -36.5l-115 -160h-88l139 195h-10q-72 0 -125 52t-53 122q0 72 54 122t124 50zM260 475q-39 0 -70.5 -30.5t-31.5 -75.5q0 -47 31.5 -78t70.5 -31q45 0 72.5 29.5t27.5 79.5 q0 45 -31.5 75.5t-68.5 30.5z" glyph-name="nine.dnom" horiz-adv-x="520"/><glyph d="M297 1440q96 0 155.5 -72t59.5 -186v-27q0 -115 -59.5 -186.5t-155.5 -71.5q-92 0 -153.5 71.5t-61.5 186.5v27q0 115 61.5 186.5t153.5 71.5zM297 1376q-59 0 -99 -52t-40 -142v-27q0 -90 40 -142t99 -52q63 0 101 51t38 143v27q0 92 -38 143t-101 51z" glyph-name="zero.numr" horiz-adv-x="593"/><glyph d="M213 1436v-535h-76v461h-55v74h131z" glyph-name="one.numr" horiz-adv-x="294"/><glyph d="M254 1442q70 0 121 -46t51 -108q0 -53 -29.5 -96t-109.5 -125l-97 -100h242v-66h-344v66l139 141q57 59 74.5 78.5t32 46.5t14.5 55q0 37 -28.5 63.5t-65.5 26.5q-39 0 -67.5 -26.5t-28.5 -75.5v-29h-76v29q0 72 50 119t122 47z" glyph-name="two.numr" horiz-adv-x="514"/><glyph d="M268 1440q66 0 115 -42t49 -98q0 -66 -61 -108q86 -37 86 -135q0 -70 -56.5 -117t-132.5 -47q-84 0 -139 56.5t-47 129.5h78q-14 -47 21.5 -84t86.5 -37q45 0 78 28t33 71q0 57 -41 80.5t-111 9.5v65q129 8 129 88q0 31 -25.5 53.5t-62.5 22.5q-45 0 -72.5 -32.5 t-19.5 -86.5h-80q-8 78 44 130.5t128 52.5z" glyph-name="three.numr" horiz-adv-x="538"/><glyph d="M428 1436v-316h55v-63h-55v-156h-76v156h-270l270 379h76zM352 1325l-143 -205h143v205z" glyph-name="four.numr" horiz-adv-x="565"/><glyph d="M412 1436v-66h-213l-17 -119q45 20 92 21q72 0 129.5 -54.5t57.5 -134t-57.5 -135t-137.5 -55.5q-68 0 -120 38t-64 89l68 39q4 -41 35.5 -71t80.5 -30q47 0 82 36t35 89q0 51 -34 87t-75 36q-72 0 -116 -59l-66 16l37 273h283z" glyph-name="five.numr" horiz-adv-x="542"/><glyph d="M387 1436l-139 -197h12q70 0 123 -51t53 -121q0 -72 -53 -123t-123 -51t-124 51t-54 123q0 33 11 64.5t20.5 47t37 51.5t33.5 44l117 162h86zM260 1174q-45 0 -73.5 -29t-28.5 -78q0 -47 31.5 -78t70.5 -31q37 0 68.5 31t31.5 78t-30.5 77t-69.5 30z" glyph-name="six.numr" horiz-adv-x="518"/><glyph d="M436 1436l-209 -535h-80l183 469h-248v66h354z" glyph-name="seven.numr" horiz-adv-x="518"/><glyph d="M268 1440q74 0 118 -41t44 -96q0 -70 -61 -109q88 -43 88 -135q0 -70 -55.5 -116t-133.5 -46q-76 0 -131 46t-55 116q0 92 88 135q-61 39 -61 109q0 53 43.5 95t115.5 42zM268 1376q-41 0 -62.5 -21.5t-21.5 -52t26 -55t58 -24.5q35 0 59.5 23.5t24.5 56.5q0 73 -84 73z M268 1159q-45 0 -77.5 -28.5t-32.5 -71.5q0 -41 32.5 -69.5t77.5 -28.5q49 0 80 26.5t31 71.5t-31 72.5t-80 27.5z" glyph-name="eight.numr" horiz-adv-x="538"/><glyph d="M260 1442q70 0 124 -50.5t54 -121.5q0 -27 -5 -49.5t-18.5 -46t-21.5 -37t-29.5 -40t-29.5 -36.5l-115 -160h-88l139 195h-10q-72 0 -125 52t-53 122q0 72 54 122t124 50zM260 1376q-39 0 -70.5 -30.5t-31.5 -75.5q0 -47 31.5 -78t70.5 -31q45 0 72.5 30t27.5 79 q0 45 -31.5 75.5t-68.5 30.5z" glyph-name="nine.numr" horiz-adv-x="520"/><glyph d="M623 1542q-41 0 -25 35l123 258q10 25 35 25h252q41 0 24 -35l-123 -258q-10 -25 -35 -25h-251zM1395 35q14 -35 -25 -35h-301q-27 0 -35 25l-63 200h-477l-64 -200q-8 -25 -35 -25h-301q-39 0 -24 35l493 1374q10 25 35 25h262q31 0 39 -25zM584 508h295l-148 463z" glyph-name="glyph499" horiz-adv-x="1462"/><glyph d="M836 1860q41 0 24 -35l-123 -258q-10 -25 -35 -25h-251q-41 0 -25 35l123 258q10 25 35 25h252zM952 307q31 0 31 -31v-245q0 -31 -31 -31h-782q-31 0 -31 31v1372q0 31 31 31h780q31 0 31 -31v-246q0 -31 -31 -31h-461v-245h433q31 0 30 -31v-246q0 -31 -30 -31h-433 v-266h463z" glyph-name="glyph500" horiz-adv-x="1116"/><glyph d="M612 1542q-41 0 -24 35l123 258q10 25 34 25h252q41 0 25 -35l-123 -258q-10 -25 -35 -25h-252zM1290 1434q31 0 31 -31v-1372q0 -31 -31 -31h-289q-31 0 -30 31v829l-465 -840q-12 -20 -37 -20h-322q-31 0 -30 31v1372q0 31 30 31h289q31 0 31 -31v-832l465 842 q12 20 37 21h321z" glyph-name="glyph501" horiz-adv-x="1460"/><glyph d="M1104 1860q41 0 24 -35l-122 -258q-10 -25 -35 -25h-252q-41 0 -25 35l123 258q10 25 35 25h252zM837.5 -27q-305.5 0 -522.5 215t-217 522.5t217 523.5t522.5 216t522.5 -216t217 -523.5t-217 -522.5t-522.5 -215zM837.5 317q163.5 0 273.5 113t110 281t-110 282.5 t-273.5 114.5t-273 -114.5t-109.5 -282.5t109.5 -281t273 -113z" glyph-name="glyph502" horiz-adv-x="1675"/><glyph d="M637 1542q-41 0 -25 35l123 258q10 25 35 25h252q41 0 25 -35l-123 -258q-10 -25 -35 -25h-252zM1409 1434q18 0 24.5 -10.5t-3.5 -26.5l-832 -1377q-12 -20 -37 -20h-303q-41 0 -20 37l333 553l-487 807q-10 16 -4 26.5t24 10.5h304q25 0 36 -21l314 -514l311 514 q12 20 37 21h303z" glyph-name="glyph503" horiz-adv-x="1513"/><glyph d="M1200 1860q41 0 25 -35l-123 -258q-10 -25 -35 -25h-252q-41 0 -24 35l122 258q10 25 35 25h252zM616 0h-446q-31 0 -31 31v1372q0 31 31 31h289q31 0 30 -31v-440h127q258 0 400.5 -131.5t142.5 -350.5t-142.5 -350t-400.5 -131zM1401 1403q0 31 31 31h288q31 0 31 -31 v-1372q0 -31 -31 -31h-288q-31 0 -31 31v1372zM610 655h-121v-348h121q90 0 152.5 40t62.5 134t-63.5 134t-151.5 40z" glyph-name="glyph504" horiz-adv-x="1867"/><glyph d="M598 1542q-41 0 -25 35l123 258q10 25 35 25h252q41 0 25 -35l-123 -258q-10 -25 -35 -25h-252zM596 1450q309 0 527 -214t218 -525q0 -307 -218 -522.5t-527 -215.5t-510 213q-16 18 0 43l178 193q18 25 43 4q121 -109 293 -109q121 0 217 67t137 179h-407q-31 0 -31 31 v246q0 31 31 30h403q-43 109 -137 173.5t-213 64.5q-168 0 -293 -109q-27 -23 -43 2l-178 193q-18 25 0 43q197 213 510 213z" glyph-name="glyph505" horiz-adv-x="1429"/><glyph d="M944 1542q-41 0 -24 35l122 258q10 25 35 25h252q41 0 25 -35l-123 -258q-10 -25 -35 -25h-252zM1311 1450q305 0 522 -216t217 -523.5t-217 -522.5t-522 -215q-266 0 -469 167t-256 423h-97v-532q0 -31 -30 -31h-289q-31 0 -31 31v1372q0 31 31 31h289q31 0 30 -31v-533 h99q55 252 258 416t465 164zM1311 317q164 0 273.5 113t109.5 281t-109.5 282.5t-273.5 114.5t-273.5 -114.5t-109.5 -282.5t109.5 -281t273.5 -113z" glyph-name="glyph506" horiz-adv-x="2127"/><glyph d="M569 1542q-41 0 -24 35l123 258q10 25 34 25h252q41 0 25 -35l-123 -258q-10 -25 -35 -25h-252zM1126 1434q31 0 31 -31v-1372q0 -31 -31 -31h-288q-31 0 -31 31v440h-55l-287 -451q-12 -20 -37 -20h-305q-43 0 -21 37l314 481q-135 55 -207 168t-72 266 q0 219 142.5 350.5t400.5 131.5h446zM686 1126q-88 0 -151.5 -39.5t-63.5 -134t63.5 -134.5t151.5 -40h121v348h-121z" glyph-name="glyph507" horiz-adv-x="1296"/><glyph d="M494 1112q-41 0 -25 35l123 258q10 25 35 25h252q41 0 24 -35l-123 -258q-10 -25 -35 -25h-251zM1122 1004q31 0 31 -31v-942q0 -31 -31 -31h-233q-27 0 -31 31l-10 78q-102 -123 -275 -123q-209 0 -347 148.5t-138 365.5q0 221 138.5 372.5t346.5 151.5q168 0 275 -135 l10 84q4 31 31 31h233zM612 295q92 0 146.5 57.5t54.5 149.5t-55.5 153.5t-145.5 61.5q-86 0 -142 -60.5t-56 -154.5q0 -92 56 -149.5t142 -57.5z" glyph-name="glyph508"/><glyph d="M492 1174q-41 0 -25 34l123 258q10 25 35 25h252q41 0 24 -35l-123 -258q-10 -25 -35 -24h-251zM1081 520q0 -72 -15 -102.5t-62 -30.5h-578q43 -135 231 -135q92 0 181 53q27 16 45 -4l118 -117q20 -20 -4 -45q-158 -154 -370 -153q-238 0 -388.5 149.5t-150.5 370.5 q0 217 147.5 367.5t364.5 150.5q215 0 348 -146.5t133 -357.5zM604 739q-154 0 -184 -141h360q-31 141 -176 141z" glyph-name="glyph509" horiz-adv-x="1167"/><glyph d="M539 1112q-41 0 -25 35l123 258q10 25 35 25h252q41 0 24 -35l-123 -258q-10 -25 -34 -25h-252zM1108 1004q31 0 31 -31v-942q0 -31 -31 -31h-277q-31 0 -30 31v518l-355 -529v-2l-2 -2q-10 -16 -28 -16h-283q-25 4 -24 31v942q0 31 30 31h277q31 0 30 -31v-506l347 516 q14 20 38 21h277z" glyph-name="glyph510" horiz-adv-x="1245"/><glyph d="M881 1430q41 0 24 -35l-123 -258q-10 -25 -34 -25h-252q-41 0 -25 35l123 258q10 25 35 25h252zM614 -20q-219 0 -372.5 152.5t-153.5 369.5q0 219 153.5 371.5t372.5 152.5q217 0 372 -152.5t155 -371.5q0 -217 -155 -369.5t-372 -152.5zM614 295q84 0 142.5 59.5 t58.5 147.5q0 90 -58.5 150.5t-142.5 60.5t-142 -60.5t-58 -150.5q0 -88 58 -147.5t142 -59.5z" glyph-name="glyph511" horiz-adv-x="1226"/><glyph d="M887 1430q41 0 24 -35l-123 -258q-10 -25 -34 -25h-252q-41 0 -25 35l123 258q10 25 35 25h252zM1149 1004q37 0 25 -35l-531 -1334q-8 -25 -37 -24h-270q-41 0 -25 35l148 352l-387 971q-12 35 24 35h279q27 0 37 -25l209 -580l208 580q10 25 37 25h283z" glyph-name="glyph512" horiz-adv-x="1224"/><glyph d="M1112 1430q41 0 25 -35l-123 -258q-10 -25 -35 -25h-252q-41 0 -25 35l123 258q10 25 35 25h252zM651 668q209 0 327 -76t118 -258t-118 -258t-327 -76h-512q-31 0 -30 31v942q0 31 30 31h277q31 0 30 -31v-305h205zM1554 1004q31 0 31 -31v-942q0 -31 -31 -31h-276 q-31 0 -31 31v942q0 31 31 31h276zM655 242q59 0 87 18.5t28 73.5t-27.5 74.5t-87.5 19.5h-209v-186h209z" glyph-name="glyph513" horiz-adv-x="1691"/><glyph d="M414 1112q-41 0 -25 35l123 258q10 25 35 25h252q41 0 24 -35l-123 -258q-10 -25 -34 -25h-252zM469 1024q217 0 366.5 -149.5t149.5 -364.5q0 -219 -149.5 -371.5t-366.5 -152.5q-240 0 -395 178q-18 23 2 43l168 162q18 18 45 0q80 -68 172 -68q100 0 160 80h-215 q-31 0 -31 31v178q0 31 31 31h223q-59 90 -168 90q-88 0 -166 -68q-27 -23 -45 -4l-168 164q-20 20 -2 43q156 178 389 178z" glyph-name="glyph514" horiz-adv-x="1062"/><glyph d="M735 1112q-41 0 -24 35l123 258q10 25 34 25h252q41 0 25 -35l-123 -258q-10 -25 -35 -25h-252zM1114 1026q217 0 371.5 -152.5t154.5 -371.5q0 -217 -154.5 -369.5t-371.5 -152.5q-180 0 -320.5 107.5t-187.5 274.5h-160v-333q0 -31 -30 -31h-277q-31 0 -30 31v942 q0 31 30 30h277q31 0 30 -30v-334h158q45 170 186.5 279.5t323.5 109.5zM1114 295q84 0 142.5 59.5t58.5 147.5q0 90 -58.5 150.5t-142.5 60.5t-142.5 -60.5t-58.5 -150.5q0 -88 58.5 -147.5t142.5 -59.5z" glyph-name="glyph515" horiz-adv-x="1705"/><glyph d="M498 1112q-41 0 -25 35l123 258q10 25 35 25h252q41 0 24 -35l-123 -258q-10 -25 -34 -25h-252zM1094 1004q31 0 30 -31v-942q0 -31 -30 -31h-277q-31 0 -31 31v305h-71l-287 -320q-14 -16 -37 -16h-282q-20 0 -25.5 11.5t8.5 25.5l287 309q-301 45 -301 324 q0 334 444 334h572zM518 764q-115 0 -115 -94q0 -92 115 -92h268v186h-268z" glyph-name="glyph516" horiz-adv-x="1230"/></font>
</defs>
</svg>
