<?xml version="1.0" encoding="UTF-8" standalone="no"?>
<svg version="1.1" xmlns="http://www.w3.org/2000/svg" xmlns:xlink="http://www.w3.org/1999/xlink">
  <defs></defs>
  <symbol viewBox="0 0 16 16" id="home">
    <title>Home</title>
    <polyline points="6.4 14.6 6.4 9.8 9.6 9.8 9.6 14.6 13.6 14.6 13.6 8.2 16 8.2 8 1 0 8.2 2.4 8.2 2.4 14.6 6.4 14.6"></polyline>
  </symbol>
  <symbol viewBox="0 0 16 16" id="settings">
    <title>Settings</title>
    <path transform="translate(-32.000000, 0.000000)" d="M40.1199182,10.6307395 C38.6361397,10.6307395 37.433395,9.42821751 37.433395,7.94421634 C37.433395,6.46066055 38.6361397,5.25769322 40.1199182,5.25769322 C41.603474,5.25769322 42.8064413,6.46066055 42.8064413,7.94421634 C42.8064413,9.42821751 41.603474,10.6307395 40.1199182,10.6307395 M47.9452184,6.2007822 L46.1169397,6.2007822 C45.1413381,6.2007822 44.9075144,5.63626494 45.597183,4.94681902 C46.2868516,4.25692772 46.8689613,3.6752634 46.8901168,3.65388523 C46.9114949,3.63228437 46.9114949,3.59776754 46.8901168,3.57616668 C46.8689613,3.5550112 46.313797,2.9998469 45.656641,2.34269092 C44.9997077,1.68598032 44.4445434,1.13103871 44.4233879,1.10943785 C44.4020098,1.08805968 44.3670476,1.08805968 44.3458921,1.10943785 C44.3245139,1.13103871 43.7430723,1.71270303 43.053181,2.40237164 C42.3632897,3.09181756 41.7992178,2.85843923 41.7992178,1.88306031 L41.7992178,0.0547815558 C41.7992178,0.0244958176 41.7744993,0 41.7444362,0 L40.0001113,0 L38.2557864,0 C38.2257234,0 38.2010049,0.0244958176 38.2010049,0.0547815558 L38.2010049,1.88306031 C38.2010049,2.85843923 37.636933,3.09181756 36.9470417,2.40237164 C36.2571504,1.71270303 35.6754861,1.13103871 35.6541079,1.10943785 C35.6327298,1.08805968 35.5977675,1.08805968 35.5766121,1.10943785 C35.5554566,1.13103871 35.0002923,1.68598032 34.3431363,2.34269092 C33.686203,2.9998469 33.1310387,3.5550112 33.1096605,3.57616668 C33.0885051,3.59776754 33.0885051,3.63228437 33.1096605,3.65388523 C33.1310387,3.6752634 33.7129257,4.25692772 34.4025943,4.94681902 C35.0924856,5.63626494 34.8586619,6.2007822 33.883283,6.2007822 L32.0547816,6.2007822 C32.0244958,6.2007822 32,6.2255007 32,6.25578644 L32,7.99988866 L32,9.74421356 C32,9.77427661 32.0244958,9.79899511 32.0547816,9.79899511 L33.8828376,9.79899511 C34.8584392,9.79899511 35.0920403,10.3632897 34.4025943,11.0527356 C33.7129257,11.7426269 33.1310387,12.3240685 33.1096605,12.3454467 C33.0885051,12.3670476 33.0885051,12.4015644 33.1096605,12.4231652 C33.1310387,12.4445434 33.6859803,12.999485 34.3431363,13.656641 C35.0002923,14.3135743 35.5552339,14.8685159 35.5766121,14.8901168 C35.5977675,14.9114949 35.6327298,14.9114949 35.6538852,14.8901168 C35.6752634,14.8685159 36.2571504,14.2868516 36.946819,13.597183 C37.636933,12.9075144 38.2010049,13.1411154 38.2010049,14.1164943 L38.2010049,15.9449958 C38.2010049,15.9752815 38.2257234,15.9997773 38.2557864,15.9997773 L40.0001113,15.9997773 L41.7444362,15.9997773 C41.7744993,15.9997773 41.7992178,15.9752815 41.7992178,15.9449958 L41.7992178,14.1164943 C41.7992178,13.1411154 42.3632897,12.9075144 43.053181,13.5969603 C43.7430723,14.2866289 44.3247366,14.8682932 44.3458921,14.8898941 C44.3672702,14.9112723 44.4022325,14.9112723 44.4236106,14.8898941 C44.4447661,14.8682932 44.9999304,14.3133516 45.6568637,13.6564183 C46.313797,12.999485 46.8689613,12.4445434 46.8901168,12.4231652 C46.9114949,12.4015644 46.9114949,12.3670476 46.8901168,12.3454467 C46.8689613,12.3240685 46.287297,11.7426269 45.5976284,11.0527356 C44.9079597,10.3632897 45.1417835,9.79899511 46.1171624,9.79899511 L47.9452184,9.79899511 C47.9752815,9.79899511 48,9.77427661 48,9.74421356 L48,7.99988866 L48,6.25578644 C48,6.2255007 47.9752815,6.2007822 47.9452184,6.2007822"></path>
  </symbol>
  <symbol viewBox="0 0 16 16" id="search">
    <title>Search</title>
    <path transform="translate(-64.000000, 0.000000)" d="M75.4351058,10.0628931 L74.7124071,10.0628931 L74.4562607,9.8158948 C75.352773,8.77301315 75.89251,7.41909663 75.89251,5.946255 C75.89251,2.66209262 73.2304174,0 69.946255,0 C66.6620926,0 64,2.66209262 64,5.946255 C64,9.23041738 66.6620926,11.8920526 69.946255,11.8920526 C71.4190966,11.8920526 72.7730132,11.352773 73.8158948,10.4558033 L74.0628931,10.7124071 L74.0628931,11.4351058 L78.6369354,15.9995426 L80,14.636478 L75.4351058,10.0628931 L75.4351058,10.0628931 Z M69.946255,10.0628931 C67.6683819,10.0628931 65.8296169,8.22412807 65.8296169,5.946255 C65.8296169,3.66838193 67.6683819,1.82961692 69.946255,1.82961692 C72.2241281,1.82961692 74.0628931,3.66838193 74.0628931,5.946255 C74.0628931,8.22412807 72.2241281,10.0628931 69.946255,10.0628931 L69.946255,10.0628931 Z"></path>
  </symbol>
  <symbol viewBox="0 0 16 16" id="view">
    <title>View</title>
    <path transform="translate(-96.000000, 0.000000)" d="M103.999812,2 C100.363739,2 97.2580047,4.26155183 96,7.45448566 C97.2580047,10.6470436 100.363739,12.9089713 103.999812,12.9089713 C107.636261,12.9089713 110.741619,10.6470436 112,7.45448566 C110.741619,4.26155183 107.636261,2 103.999812,2 L103.999812,2 Z M103.999812,11.0905589 C101.992718,11.0905589 100.363739,9.46158002 100.363739,7.45448566 C100.363739,5.44701543 101.992718,3.8180366 103.999812,3.8180366 C106.007282,3.8180366 107.636261,5.44701543 107.636261,7.45448566 C107.636261,9.46158002 106.007282,11.0905589 103.999812,11.0905589 L103.999812,11.0905589 Z M103.999812,5.27261622 C102.792549,5.27261622 101.817943,6.24722216 101.817943,7.45448566 C101.817943,8.66174916 102.792549,9.63635509 103.999812,9.63635509 C105.207076,9.63635509 106.181682,8.66174916 106.181682,7.45448566 C106.181682,6.24722216 105.207076,5.27261622 103.999812,5.27261622 L103.999812,5.27261622 Z"></path>
  </symbol>
  <symbol viewBox="0 0 16 16" id="comment">
    <title>Comment</title>
    <path transform="translate(-128.000000, 0.000000)" d="M143.992,1.6 C143.992,0.72 143.28,0 142.4,0 L129.6,0 C128.72,0 128,0.72 128,1.6 L128,11.2 C128,12.08 128.72,12.8 129.6,12.8 L140.8,12.8 L144,16 L143.992,1.6 L143.992,1.6 Z"></path>
  </symbol>
  <symbol viewBox="0 0 20 16" id="history">
    <title>History</title>
    <path transform="translate(-157.500000, 0.000000)" d="M168.33337,0 C163.91547,0 160.333148,3.58232173 160.333148,8.00022223 L157.666407,8.00022223 L161.124281,11.4580961 L161.186505,11.5820995 L164.777716,8.00022223 L162.110975,8.00022223 C162.110975,4.56012667 164.893275,1.77782716 168.33337,1.77782716 C171.773466,1.77782716 174.555765,4.56012667 174.555765,8.00022223 C174.555765,11.4403178 171.773466,14.2221728 168.33337,14.2221728 C166.617767,14.2221728 165.062168,13.5203756 163.942137,12.3914553 L162.67988,13.6537126 C164.128809,15.1021973 166.119976,16 168.33337,16 C172.751271,16 176.333593,12.4181227 176.333593,8.00022223 C176.333593,3.58232173 172.751271,0 168.33337,0 L168.33337,0 Z M167.444457,4.4445679 L167.444457,8.88913581 L171.249007,11.1465318 L171.889025,10.0713909 L168.777827,8.22245062 L168.777827,4.4445679 L167.444457,4.4445679 L167.444457,4.4445679 Z"></path>
  </symbol>
  <symbol viewBox="0 0 18 16" id="warning">
    <title>Warning</title>
    <path transform="translate(-190.000000, -1.000000)" d="M190.333593,16 L208.859908,16 L199.59675,0 L190.333593,16 L190.333593,16 Z M198.754645,11.7894737 L200.438856,11.7894737 L200.438856,13.4736842 L198.754645,13.4736842 L198.754645,11.7894737 Z M198.754645,6.73684211 L200.438856,6.73684211 L200.438856,10.1052632 L198.754645,10.1052632 L198.754645,6.73684211 Z"></path>
  </symbol>
  <symbol viewBox="0 0 16 16" id="alert">
    <title>Alert</title>
    <path transform="translate(-224.000000, 0.000000)" d="M232,0 C227.5844,0 224,3.584 224,8 C224,12.416 227.5844,16 232,16 C236.416,16 240,12.416 240,8 C240,3.584 236.416,0 232,0 L232,0 Z M231.2,10.4 L232.8,10.4 L232.8,12 L231.2,12 L231.2,10.4 Z M231.2,4 L232.8,4 L232.8,8.8 L231.2,8.8 L231.2,4 Z"></path>
  </symbol>
  <symbol viewBox="0 0 16 16" id="check_circle">
    <title>Check (circle)</title>
    <path transform="translate(-256.000000, 0.000000)" d="M264,0 C259.584,0 256,3.584 256,8 C256,12.416 259.584,16 264,16 C268.416,16 272,12.416 272,8 C272,3.584 268.416,0 264,0 L264,0 Z M262.4,12 L258.4,8 L259.528,6.872 L262.4,9.736 L268.472,3.664 L269.6,4.8 L262.4,12 L262.4,12 Z"></path>
  </symbol>
  <symbol viewBox="0 0 16 16" id="info_outline">
    <title>Info (outline)</title>
    <path transform="translate(-288.000000, 0.000000)" d="M295.19978,12.0003 L296.79982,12.0003 L296.79982,7.20018 L295.19978,7.20018 L295.19978,12.0003 Z M295.9998,0 C291.58409,0 288,3.5840896 288,8.00020001 C288,12.4163104 291.58409,16.0004 295.9998,16.0004 C300.41591,16.0004 304,12.4163104 304,8.00020001 C304,3.5840896 300.41591,0 295.9998,0 L295.9998,0 Z M295.9998,14.40036 C292.471712,14.40036 289.60004,11.5282882 289.60004,8.00020001 C289.60004,4.4721118 292.471712,1.60004 295.9998,1.60004 C299.527888,1.60004 302.39996,4.4721118 302.39996,8.00020001 C302.39996,11.5282882 299.527888,14.40036 295.9998,14.40036 L295.9998,14.40036 Z M295.19978,5.60014 L296.79982,5.60014 L296.79982,4.0001 L295.19978,4.0001 L295.19978,5.60014 Z"></path>
  </symbol>
  <symbol viewBox="0 0 16 16" id="question_outline">
    <title>Question (outline)</title>
    <path transform="translate(-320.000000, 0.000000)" d="M327.2,12.8 L328.8,12.8 L328.8,11.2 L327.2,11.2 L327.2,12.8 L327.2,12.8 Z M328,0 C323.584,0 320,3.584 320,8 C320,12.416 323.584,16 328,16 C332.416,16 336,12.416 336,8 C336,3.584 332.416,0 328,0 L328,0 Z M328,14.4 C324.472,14.4 321.6,11.528 321.6,8 C321.6,4.472 324.472,1.6 328,1.6 C331.528,1.6 334.4,4.472 334.4,8 C334.4,11.528 331.528,14.4 328,14.4 L328,14.4 Z M328,3.2 C326.232,3.2 324.8,4.632 324.8,6.4 L326.4,6.4 C326.4,5.52 327.12,4.8 328,4.8 C328.88,4.8 329.6,5.52 329.6,6.4 C329.6,8 327.2,7.8 327.2,10.4 L328.8,10.4 C328.8,8.6 331.2,8.4 331.2,6.4 C331.2,4.632 329.768,3.2 328,3.2 L328,3.2 Z"></path>
  </symbol>
  <symbol viewBox="0 0 16 16" id="edit">
    <title>Edit</title>
    <path transform="translate(-352.000000, 0.000000)" d="M352,12.6670601 L352,16 L355.33294,16 L365.16289,6.17049376 L361.829951,2.8375539 L352,12.6670601 L352,12.6670601 Z M367.740364,3.59257588 C368.08699,3.24639452 368.08699,2.68646063 367.740364,2.33983488 L365.66061,0.259636015 C365.313984,-0.0865453384 364.75405,-0.0865453384 364.407424,0.259636015 L362.780949,1.88611067 L366.113889,5.21905053 L367.740364,3.59257588 L367.740364,3.59257588 Z"></path>
  </symbol>
  <symbol viewBox="0 0 16 16" id="download">
    <title>Download</title>
    <path transform="translate(-384.000000, 0.000000)" d="M398.176471,5.64705882 L394.411765,5.64705882 L394.411765,0 L388.764706,0 L388.764706,5.64705882 L385,5.64705882 L391.588235,12.2352941 L398.176471,5.64705882 L398.176471,5.64705882 Z M385,14.1176471 L385,16 L398.176471,16 L398.176471,14.1176471 L385,14.1176471 L385,14.1176471 Z"></path>
  </symbol>
  <symbol viewBox="0 0 16 16" id="user">
    <title>User</title>
    <path transform="translate(-416.000000, 0.000000)" d="M424,8.0005 C426.21,8.0005 428,6.2105 428,4 C428,1.79 426.21,0 424,0 C421.7895,0 420,1.79 420,4 C420,6.2105 421.7895,8.0005 424,8.0005 L424,8.0005 Z M424,10 C421.33,10 416,11.3405 416,14.0005 L416,16 L432,16 L432,14.0005 C432,11.3405 426.6695,10 424,10 L424,10 Z"></path>
  </symbol>
  <symbol viewBox="0 0 16 16" id="question">
    <title>Question</title>
    <path transform="translate(-448.000000, 0.000000)" d="M456,0 C451.584,0 448,3.584 448,8 C448,12.416 451.584,16 456,16 C460.416,16 464,12.416 464,8 C464,3.584 460.416,0 456,0 L456,0 Z M455.2,12 L456.8,12 L456.8,13.6 L455.2,13.6 L455.2,12 Z M458.456,7.4 L457.736,8.136 C457.16,8.72 456.8,9.2 456.8,10.4 L455.2,10.4 L455.2,10 C455.2,9.12 455.56,8.32 456.136,7.736 L457.128,6.728 C457.424,6.44 457.6,6.04 457.6,5.6 C457.6,4.72 456.88,4 456,4 C455.12,4 454.4,4.72 454.4,5.6 L452.8,5.6 C452.8,3.832 454.232,2.4 456,2.4 C457.768,2.4 459.2,3.832 459.2,5.6 C459.2,6.304 458.912,6.944 458.456,7.4 L458.456,7.4 Z"></path>
  </symbol>
  <symbol viewBox="0 0 16 16" id="info">
    <title>Info</title>
    <path transform="translate(-480.000000, 0.000000)" d="M488,0 C483.584,0 480,3.584 480,8 C480,12.416 483.584,16 488,16 C492.416,16 496,12.416 496,8 C496,3.584 492.416,0 488,0 L488,0 Z M487.2,7.2 L488.8,7.2 L488.8,12 L487.2,12 L487.2,7.2 Z M487.2,4 L488.8,4 L488.8,5.6 L487.2,5.6 L487.2,4 Z"></path>
  </symbol>
  <symbol viewBox="0 0 16 16" id="business">
    <title>Business</title>
    <path transform="translate(-512.000000, -1.000000)" d="M526.4,4.20040599 L523.2,4.20040599 L523.2,2.6 C523.2,1.71210353 522.487896,1 521.6,1 L518.4,1 C517.512104,1 516.8,1.71210353 516.8,2.6 L516.8,4.20040599 L513.6,4.20040599 C512.711698,4.20040599 512.007714,4.91210353 512.007714,5.80040599 L512,14.600203 C512,15.4880995 512.711698,16.200203 513.6,16.200203 L526.4,16.200203 C527.287896,16.200203 528,15.4880995 528,14.600203 L528,5.80040599 C528,4.91210353 527.287896,4.20040599 526.4,4.20040599 L526.4,4.20040599 Z M518.4,2.6 L521.6,2.6 L521.6,4.2 L518.4,4.2 L518.4,2.6 Z"></path>
  </symbol>
  <symbol viewBox="0 0 12 16" id="location">
    <title>Location</title>
    <path transform="translate(-546.000000, 0.000000)" d="M551.6,0 C548.504,0 546,2.504 546,5.6 C546,9.8 551.6,16 551.6,16 C551.6,16 557.2,9.8 557.2,5.6 C557.2,2.504 554.696,0 551.6,0 L551.6,0 Z M551.6,7.6 C550.496,7.6 549.6,6.704 549.6,5.6 C549.6,4.496 550.496,3.6 551.6,3.6 C552.704,3.6 553.6,4.496 553.6,5.6 C553.6,6.704 552.704,7.6 551.6,7.6 L551.6,7.6 Z"></path>
  </symbol>
  <symbol viewBox="0 0 16 16" id="org">
    <title>Org</title>
    <path transform="translate(-576.000000, -1.000000)" d="M584,4.2 L584,1 L576,1 L576,15.4 L592,15.4 L592,4.2 L584,4.2 L584,4.2 Z M577.6,12.2 L579.2,12.2 L579.2,13.8 L577.6,13.8 L577.6,12.2 Z M577.6,9 L579.2,9 L579.2,10.6 L577.6,10.6 L577.6,9 Z M577.6,5.8 L579.2,5.8 L579.2,7.4 L577.6,7.4 L577.6,5.8 Z M577.6,2.6 L579.2,2.6 L579.2,4.2 L577.6,4.2 L577.6,2.6 Z M580.8,12.2 L582.4,12.2 L582.4,13.8 L580.8,13.8 L580.8,12.2 Z M580.8,9 L582.4,9 L582.4,10.6 L580.8,10.6 L580.8,9 Z M580.8,5.8 L582.4,5.8 L582.4,7.4 L580.8,7.4 L580.8,5.8 Z M580.8,2.6 L582.4,2.6 L582.4,4.2 L580.8,4.2 L580.8,2.6 Z M590.4,13.8 L584,13.8 L584,12.2 L585.6,12.2 L585.6,10.6 L584,10.6 L584,9 L585.6,9 L585.6,7.4 L584,7.4 L584,5.8 L590.4,5.8 L590.4,13.8 L590.4,13.8 Z M587.2,9 L588.8,9 L588.8,7.4 L587.2,7.4 L587.2,9 Z M587.2,12.2 L588.8,12.2 L588.8,10.6 L587.2,10.6 L587.2,12.2 Z"></path>
  </symbol>
  <symbol viewBox="0 0 16 16" id="building">
    <title>Building</title>
    <path transform="translate(0.000000, -31.000000)" d="M2.52366412,44.190458 L4.80954198,44.190458 L4.80954198,38.8572519 L2.52366412,38.8572519 L2.52366412,44.190458 Z M7.09503817,44.190458 L9.38053435,44.190458 L9.38053435,38.8572519 L7.09503817,38.8572519 L7.09503817,44.190458 Z M1,48 L15.4759542,48 L15.4759542,45.7141221 L1,45.7141221 L1,48 Z M11.6664122,44.190458 L13.9519084,44.190458 L13.9519084,38.8572519 L11.6664122,38.8572519 L11.6664122,44.190458 Z M8.23778626,32 L1,35.809542 L1,37.3335878 L15.4759542,37.3335878 L15.4759542,35.809542 L8.23778626,32 L8.23778626,32 Z"></path>
  </symbol>
  <symbol viewBox="0 0 16 16" id="close">
    <title>Close</title>
    <polygon transform="translate(-32.000000, -32.000000)" points="46.3885714 32 40 38.3885714 33.6114286 32 32 33.6114286 38.3885714 40 32 46.3885714 33.6114286 48 40 41.6114286 46.3885714 48 48 46.3885714 41.6114286 40 48 33.6114286"></polygon>
  </symbol>
  <symbol viewBox="0 0 22 16" id="check">
    <title>Check</title>
    <polygon transform="translate(-61.000000, -32.000000)" points="63.694258 39.6474273 62 41.3297539 68.6696495 48 82.9867263 33.6823266 81.3043997 32 68.6696495 44.6234154"></polygon>
  </symbol>
  <symbol viewBox="0 0 16 16" id="plus">
    <title>Plus</title>
    <path transform="translate(-96.000000, -32.000000)" d="M104,32 C99.584,32 96,35.584 96,40 C96,44.416 99.584,48 104,48 C108.416,48 112,44.416 112,40 C112,35.584 108.416,32 104,32 L104,32 Z M108,40.8 L104.8,40.8 L104.8,44 L103.2,44 L103.2,40.8 L100,40.8 L100,39.2 L103.2,39.2 L103.2,36 L104.8,36 L104.8,39.2 L108,39.2 L108,40.8 L108,40.8 Z"></path>
  </symbol>
  <symbol viewBox="0 0 16 9" id="down-arrow">
    <title>Down Arrow</title>
    <polyline transform="translate(-128.000000, -35.000000)" points="129.88 35 136 41.1066667 142.12 35 144 36.88 136 44.88 128 36.88 129.88 35"></polyline>
  </symbol>
  <symbol viewBox="0 0 16 9" id="up-arrow">
    <title>Up Arrow</title>
    <polyline transform="translate(-160.000000, -35.000000) translate(168.000000, 39.000000) scale(1, -1) translate(-168.000000, -39.940000)" points="161.88 35 168 41.1066667 174.12 35 176 36.88 168 44.88 160 36.88 161.88 35"></polyline>
  </symbol>
  <symbol viewBox="0 0 12 16" id="left-arrow">
    <title>Left Arrow</title>
    <polyline transform="translate(-194.000000, -32.000000) translate(199.000000, 39.940000) scale(1, -1) rotate(90.000000) translate(-199.000000, -39.940000)" points="192.88 35 199 41.1066667 205.12 35 207 36.88 199 44.88 191 36.88 192.88 35"></polyline>
  </symbol>
  <symbol viewBox="0 0 12 16" id="right-arrow">
    <title>Right Arrow</title>
    <polyline transform="translate(-192.000000, -32.000000) translate(199.000000, 39.940000) rotate(270.000000) translate(-199.000000, -39.940000)" points="192.88 35 199 41.1066667 205.12 35 207 36.88 199 44.88 191 36.88 192.88 35"></polyline>
  </symbol>
  <symbol viewBox="0 0 16 16" id="smiley">
    <title>Smiley</title>
    <path transform="translate(-256.000000, -32.000000)" d="M263.992,32 C259.576,32 256,35.5836 256,39.9996 C256,44.416 259.576,47.9996 263.992,47.9996 C268.416,47.9996 272,44.416 272,39.9996 C272,35.5836 268.416,32 263.992,32 L263.992,32 Z M264,46.4 C260.464,46.4 257.6,43.536 257.6,39.9996 C257.6,36.464 260.464,33.5996 264,33.5996 C267.536,33.5996 270.4,36.464 270.4,39.9996 C270.4,43.536 267.536,46.4 264,46.4 L264,46.4 Z M266.8,39.2 C267.464,39.2 268,38.664 268,38 C268,37.336 267.464,36.8 266.8,36.8 C266.136,36.8 265.6,37.336 265.6,38 C265.6,38.664 266.136,39.2 266.8,39.2 L266.8,39.2 Z M261.2,39.2 C261.864,39.2 262.4,38.664 262.4,38 C262.4,37.336 261.864,36.8 261.2,36.8 C260.536,36.8 260,37.336 260,38 C260,38.664 260.536,39.2 261.2,39.2 L261.2,39.2 Z M264,44.3996 C265.864,44.3996 267.448,43.2316 268.088,41.6 L259.912,41.6 C260.552,43.2316 262.136,44.3996 264,44.3996 L264,44.3996 Z"></path>
  </symbol>
  <symbol viewBox="0 0 16 20" id="send">
    <title>Send</title>
    <polyline transform="translate(-288.000000, -30.000000)" points="288.008889 48 306.666667 40 288.008889 32 288 38.2222222 301.333333 40 288 41.7777778 288.008889 48"></polyline>
  </symbol>
  <symbol viewBox="0 0 17 15" id="delete">
    <title>Delete</title>
    <path transform="translate(-320.000000, -33.000000)" d="M322.888889,46.2222222 C322.888889,47.2 323.688889,48 324.666667,48 L331.777778,48 C332.755556,48 333.555556,47.2 333.555556,46.2222222 L333.555556,35.5555556 L322.888889,35.5555556 L322.888889,46.2222222 L322.888889,46.2222222 Z M334.444444,32.8888889 L331.333333,32.8888889 L330.444444,32 L326,32 L325.111111,32.8888889 L322,32.8888889 L322,34.6666667 L334.444444,34.6666667 L334.444444,32.8888889 L334.444444,32.8888889 Z"></path>
  </symbol>
  <symbol viewBox="0 0 16 16" id="upload">
    <title>Upload</title>
    <path transform="translate(-352.000000, -32.000000)" d="M356.764706,44.2352941 L362.411765,44.2352941 L362.411765,38.5882353 L366.176471,38.5882353 L359.588235,32 L353,38.5882353 L356.764706,38.5882353 L356.764706,44.2352941 Z M353,46.1176471 L366.176471,46.1176471 L366.176471,48 L353,48 L353,46.1176471 Z"></path>
  </symbol>
  <symbol viewBox="0 0 28 16" id="cloud">
    <title>Cloud</title>
    <path transform="translate(-377.000000, -32.000000)" d="M398.938235,38.04 C398.258235,34.59 395.228235,32 391.588235,32 C388.698235,32 386.188235,33.64 384.938235,36.04 C381.928235,36.36 379.588235,38.91 379.588235,42 C379.588235,45.31 382.278235,48 385.588235,48 L398.588235,48 C401.348235,48 403.588235,45.76 403.588235,43 C403.588235,40.36 401.538235,38.22 398.938235,38.04 L398.938235,38.04 Z M396.588235,41 L391.588235,46 L386.588235,41 L389.588235,41 L389.588235,37 L393.588235,37 L393.588235,41 L396.588235,41 L396.588235,41 Z"></path>
  </symbol>
  <symbol viewBox="0 0 12 16" id="file">
    <title>File</title>
    <path transform="translate(-418.000000, -32.000000)" d="M419.6,32 C418.72,32 418.008,32.72 418.008,33.6 L418,46.4 C418,47.28 418.712,48 419.592,48 L429.2,48 C430.08,48 430.8,47.28 430.8,46.4 L430.8,36.8 L426,32 L419.6,32 L419.6,32 Z M425.2,37.6 L425.2,33.2 L429.6,37.6 L425.2,37.6 L425.2,37.6 Z"></path>
  </symbol>
  <symbol viewBox="0 0 14 18" id="d_logo">
    <title>Dow Jones D Logo</title>
    <path d="M11.0928,6.2432 C11.064,5.9136 11.0496,5.768 10.9856,5.5456 C10.656,4.4064 9.6048,3.5728 8.3584,3.5728 L3.0896,3.5728 L3.0896,14.248 L5.7632,14.248 L5.7632,16.92 L0.4208,16.92 L0.4208,0.904 L8.3952,0.904 C11.088,0.904 13.3152,2.864 13.6976,5.4528 C13.7344,5.704 13.76,5.9632 13.76,6.2464 L11.0928,6.2432"></path>
    <path d="M13.76,8.2416 L13.76,11.5552 C13.76,14.5136 11.2736,16.92 8.3168,16.92 L7.7584,16.92 L7.7584,14.248 L8.2928,14.248 C9.7984,14.248 11.0928,13.0208 11.0928,11.5136 L11.0928,8.2416 L13.76,8.2416"></path>
  </symbol>
  <symbol viewBox="0 0 15 16" id="calendar" title="Calendar">
    <title>Calendar</title>
    <desc>Calendar</desc>
    <path transform="translate(-481.000000, -32.000000)" d="M485.805333,39.2 L484.203556,39.2 L484.203556,40.8 L485.805333,40.8 L485.805333,39.2 L485.805333,39.2 Z M489.008889,39.2 L487.407111,39.2 L487.407111,40.8 L489.008889,40.8 L489.008889,39.2 L489.008889,39.2 Z M492.212444,39.2 L490.610667,39.2 L490.610667,40.8 L492.212444,40.8 L492.212444,39.2 L492.212444,39.2 Z M493.814222,33.6 L493.013333,33.6 L493.013333,32 L491.411556,32 L491.411556,33.6 L485.004444,33.6 L485.004444,32 L483.402667,32 L483.402667,33.6 L482.601778,33.6 C481.712791,33.6 481.008009,34.32 481.008009,35.2 L481,46.4 C481,47.28 481.712791,48 482.601778,48 L493.814222,48 C494.6952,48 495.416,47.28 495.416,46.4 L495.416,35.2 C495.416,34.32 494.6952,33.6 493.814222,33.6 L493.814222,33.6 Z M493.814222,46.4 L482.601778,46.4 L482.601778,37.6 L493.814222,37.6 L493.814222,46.4 L493.814222,46.4 Z"></path>
  </symbol>
  <symbol viewBox="0 0 16 16" id="share">
    <title>Share</title>
    <path transform="translate(-513.000000, -32.000000)" d="M525.048193,43.3092369 C524.437751,43.3092369 523.891566,43.5502008 523.473896,43.9277108 L517.746988,40.5943775 C517.787149,40.4096386 517.819277,40.2248996 517.819277,40.0321285 C517.819277,39.8393574 517.787149,39.6546185 517.746988,39.4698795 L523.409639,36.1686747 C523.843373,36.5702811 524.413655,36.8192771 525.048193,36.8192771 C526.381526,36.8192771 527.457831,35.7429719 527.457831,34.4096386 C527.457831,33.0763052 526.381526,32 525.048193,32 C523.714859,32 522.638554,33.0763052 522.638554,34.4096386 C522.638554,34.6024096 522.670683,34.7871486 522.710843,34.9718876 L517.048193,38.2730924 C516.614458,37.8714859 516.044177,37.62249 515.409639,37.62249 C514.076305,37.62249 513,38.6987952 513,40.0321285 C513,41.3654618 514.076305,42.4417671 515.409639,42.4417671 C516.044177,42.4417671 516.614458,42.1927711 517.048193,41.7911647 L522.767068,45.1325301 C522.726908,45.3012048 522.702811,45.4779116 522.702811,45.6546185 C522.702811,46.9477912 523.75502,48 525.048193,48 C526.341365,48 527.393574,46.9477912 527.393574,45.6546185 C527.393574,44.3614458 526.341365,43.3092369 525.048193,43.3092369"></path>
  </symbol>
  <symbol viewBox="0 0 16 18" id="print">
    <title>Print</title>
    <path transform="translate(-544.000000, -31.000000)" d="M557.933333,36.4444444 L545.488889,36.4444444 C544.013778,36.4444444 542.822222,37.6355556 542.822222,39.1111111 L542.822222,44.4444444 L546.377778,44.4444444 L546.377778,48 L557.044444,48 L557.044444,44.4444444 L560.6,44.4444444 L560.6,39.1111111 C560.6,37.6355556 559.408889,36.4444444 557.933333,36.4444444 L557.933333,36.4444444 Z M548.155556,41.7777778 L555.266667,41.7777778 L555.266667,46.2222222 L548.155556,46.2222222 L548.155556,41.7777778 Z M557.933333,40 C557.444444,40 557.044444,39.6 557.044444,39.1111111 C557.044444,38.6222222 557.444444,38.2222222 557.933333,38.2222222 C558.422222,38.2222222 558.822222,38.6222222 558.822222,39.1111111 C558.822222,39.6 558.422222,40 557.933333,40 L557.933333,40 Z M546.377778,35.5555556 L557.044444,35.5555556 L557.044444,32 L546.377778,32 L546.377778,35.5555556 Z"></path>
  </symbol>
  <symbol viewBox="0 0 16 14" id="new_alert">
    <title>New Alert</title>
    <path transform="translate(-577.000000, -32.000000)" d="M583.340952,46.4838095 C583.340952,47.3219048 584.019048,48 584.857143,48 C585.695238,48 586.373333,47.3219048 586.373333,46.4838095 L583.340952,46.4838095 L583.340952,46.4838095 Z M590.099048,43.2914286 L590.099048,38.8571429 C590.099048,36.3809524 588.384762,34.3085714 586.068571,33.76 L586.068571,33.2114286 C586.068571,32.5409524 585.527619,32 584.857143,32 C584.186667,32 583.645714,32.5409524 583.645714,33.2114286 L583.645714,33.76 C581.329524,34.3085714 579.615238,36.3809524 579.615238,38.8571429 L579.615238,43.2914286 L578,44.9066667 L578,45.7142857 L591.714286,45.7142857 L591.714286,44.9066667 L590.099048,43.2914286 L590.099048,43.2914286 Z M587.904762,40.3885714 L585.619048,40.3885714 L585.619048,42.6742857 L584.095238,42.6742857 L584.095238,40.3885714 L581.809524,40.3885714 L581.809524,38.8571429 L584.095238,38.8571429 L584.095238,36.5714286 L585.619048,36.5714286 L585.619048,38.8571429 L587.904762,38.8571429 L587.904762,40.3885714 L587.904762,40.3885714 Z"></path>
  </symbol>
</svg>