<?xml version="1.0" encoding="UTF-8"?>
<svg width="305px" height="50px" viewBox="0 0 305 50" version="1.1" xmlns="http://www.w3.org/2000/svg" xmlns:xlink="http://www.w3.org/1999/xlink">
    <!-- Generator: Sketch 40.3 (33839) - http://www.bohemiancoding.com/sketch -->
    <title>Artboard</title>
    <desc>Created with Sketch.</desc>
    <defs>
        <polygon id="path-1" points="0 48.7031 304.274 48.7031 304.274 0.0001 0 0.0001"></polygon>
    </defs>
    <g id="Page-1" stroke="none" stroke-width="1" fill="none" fill-rule="evenodd">
        <g id="Artboard">
            <g id="Page-1" transform="translate(0.000000, 1.000000)">
                <path d="M41.0972,6.0078 C39.8232,6.0078 38.7852,7.0448 38.7852,8.3198 C38.7852,9.5938 39.8232,10.6308 41.0972,10.6308 C42.3712,10.6308 43.4092,9.5938 43.4092,8.3198 C43.4092,7.0448 42.3712,6.0078 41.0972,6.0078 L41.0972,6.0078 Z M41.0972,11.3808 C39.4092,11.3808 38.0352,10.0078 38.0352,8.3198 C38.0352,6.6318 39.4092,5.2578 41.0972,5.2578 C42.7852,5.2578 44.1592,6.6318 44.1592,8.3198 C44.1592,10.0078 42.7852,11.3808 41.0972,11.3808 L41.0972,11.3808 Z" id="Fill-1" fill="#FFFFFF"></path>
                <path d="M36.3677,14.998 L36.3627,15.003 L36.3677,14.998 Z M39.5537,16 L42.4017,16 L42.4017,14.492 C42.4017,13.637 42.7767,13.354 43.0007,13.261 C43.2257,13.167 43.6917,13.103 44.2957,13.707 C44.7317,14.143 45.1247,14.536 45.3617,14.773 C45.4507,14.685 45.5617,14.573 45.6887,14.446 L47.3757,12.759 L46.3097,11.693 C45.7047,11.089 45.7707,10.623 45.8637,10.399 C45.9557,10.175 46.2397,9.799 47.0947,9.799 L48.6017,9.799 L48.6017,6.951 L47.0947,6.951 C46.2397,6.951 45.9557,6.575 45.8637,6.351 C45.7707,6.127 45.7047,5.661 46.3087,5.057 L47.3757,3.99 L46.3687,2.983 C45.9587,2.573 45.5877,2.203 45.3617,1.976 C45.1267,2.211 44.7327,2.605 44.2957,3.042 C43.6917,3.646 43.2257,3.582 43.0007,3.488 C42.7767,3.395 42.4017,3.112 42.4017,2.258 L42.4017,0.75 L39.5537,0.75 L39.5537,2.258 C39.5537,3.112 39.1777,3.395 38.9537,3.488 C38.7297,3.582 38.2637,3.646 37.6597,3.042 C37.2217,2.606 36.8287,2.212 36.5927,1.976 C36.3667,2.203 35.9957,2.573 35.5857,2.983 L34.5777,3.99 L35.6447,5.057 C36.2487,5.661 36.1837,6.126 36.0907,6.351 C35.9977,6.575 35.7147,6.951 34.8607,6.951 L33.3517,6.951 L33.3517,9.799 L34.8597,9.799 C35.7147,9.799 35.9977,10.175 36.0907,10.398 C36.1827,10.623 36.2487,11.089 35.6447,11.693 L34.5777,12.759 L36.5927,14.773 L37.6587,13.707 C38.2627,13.103 38.7297,13.167 38.9537,13.261 C39.1777,13.354 39.5537,13.637 39.5537,14.492 L39.5537,16 Z M42.7217,16.75 L38.8577,16.75 L38.8037,16.32 L38.8037,14.492 C38.8037,14.092 38.6957,13.966 38.6667,13.954 C38.6367,13.942 38.4707,13.957 38.1887,14.237 L36.7857,15.64 L36.4347,15.656 L36.2857,15.527 L33.5597,12.801 L33.8187,12.458 L35.1147,11.163 C35.3967,10.88 35.4097,10.715 35.3977,10.686 C35.3857,10.657 35.2597,10.549 34.8597,10.549 L32.6567,10.549 L32.6017,10.119 L32.6017,6.256 L33.0317,6.201 L34.8607,6.201 C35.2597,6.201 35.3857,6.093 35.3977,6.064 C35.4097,6.035 35.3967,5.869 35.1147,5.587 L33.5597,4.026 L33.8217,3.686 L35.0557,2.453 C35.7067,1.802 36.2577,1.25 36.2857,1.222 L36.3947,1.111 L36.7467,1.092 L36.8967,1.219 C36.9277,1.251 37.5057,1.829 38.1897,2.512 C38.4707,2.793 38.6327,2.808 38.6667,2.795 C38.6957,2.784 38.8037,2.657 38.8037,2.258 L38.8037,0.055 L39.2327,0 L43.0967,0 L43.1517,0.43 L43.1517,2.258 C43.1517,2.657 43.2597,2.784 43.2877,2.795 C43.3157,2.812 43.4817,2.796 43.7647,2.512 C44.4497,1.829 45.0267,1.251 45.0547,1.222 L45.3197,0.952 L45.6657,1.219 C45.6967,1.25 46.2477,1.802 46.8987,2.453 L48.3977,3.951 L48.1327,4.294 L46.8397,5.587 C46.5567,5.869 46.5437,6.035 46.5557,6.064 C46.5677,6.093 46.6947,6.201 47.0947,6.201 L49.2977,6.201 L49.3517,6.631 L49.3517,10.494 L48.9227,10.549 L47.0947,10.549 C46.6947,10.549 46.5687,10.657 46.5557,10.686 C46.5447,10.715 46.5577,10.88 46.8397,11.163 L48.1067,12.429 C48.3007,12.627 48.3007,12.892 48.1357,13.061 L46.2197,14.977 L45.6707,15.525 L45.4087,15.794 L45.0607,15.533 C45.0167,15.489 44.4437,14.915 43.7647,14.237 C43.4807,13.955 43.3157,13.943 43.2877,13.954 C43.2597,13.966 43.1517,14.092 43.1517,14.492 L43.1517,16.695 L42.7217,16.75 Z" id="Fill-3" fill="#FFFFFF"></path>
                <path d="M143.377,0.3749 L130.577,0.3749 C129.697,0.3749 128.977,1.0949 128.977,1.9749 L128.977,11.5749 C128.977,12.4549 129.697,13.1749 130.577,13.1749 L141.777,13.1749 L144.977,16.3749 L144.969,1.9749 C144.969,1.0949 144.257,0.3749 143.377,0.3749 M143.377,1.1249 C143.841,1.1249 144.219,1.5059 144.219,1.9749 L144.226,14.5629 L142.307,12.6449 L142.088,12.4249 L141.777,12.4249 L130.577,12.4249 C130.108,12.4249 129.727,12.0439 129.727,11.5749 L129.727,1.9749 C129.727,1.5059 130.108,1.1249 130.577,1.1249 L143.377,1.1249" id="Fill-6" fill="#FFFFFF"></path>
                <path d="M10.9521,14.4897 L14.2021,14.4897 L14.2021,8.0897 L16.0001,8.0897 L8.9771,1.7687 L1.9541,8.0897 L3.7521,8.0897 L3.7521,14.4897 L7.0021,14.4897 L7.0021,9.6897 L10.9521,9.6897 L10.9521,14.4897 Z M14.9521,15.2397 L10.2021,15.2397 L10.2021,10.4397 L7.7521,10.4397 L7.7521,15.2397 L3.0021,15.2397 L3.0021,8.8397 L0.0001,8.8397 L8.9771,0.7607 L17.9541,8.8397 L14.9521,8.8397 L14.9521,15.2397 Z" id="Fill-8" fill="#FFFFFF"></path>
                <path d="M294.873,39.9882 C293.769,39.9882 292.873,39.0922 292.873,37.9882 C292.873,36.8842 293.769,35.9882 294.873,35.9882 C295.977,35.9882 296.873,36.8842 296.873,37.9882 C296.873,39.0922 295.977,39.9882 294.873,39.9882 M294.873,32.3882 C291.777,32.3882 289.273,34.8922 289.273,37.9882 C289.273,42.1882 294.873,48.3882 294.873,48.3882 C294.873,48.3882 300.473,42.1882 300.473,37.9882 C300.473,34.8922 297.969,32.3882 294.873,32.3882 M294.873,40.7382 C296.389,40.7382 297.623,39.5042 297.623,37.9882 C297.623,36.4722 296.389,35.2382 294.873,35.2382 C293.357,35.2382 292.123,36.4722 292.123,37.9882 C292.123,39.5042 293.357,40.7382 294.873,40.7382 M294.873,33.1382 C297.547,33.1382 299.723,35.3142 299.723,37.9882 C299.723,41.0972 296.253,45.5772 294.873,47.2362 C293.492,45.5772 290.023,41.1012 290.023,37.9882 C290.023,35.3142 292.199,33.1382 294.873,33.1382" id="Fill-10" fill="#FFFFFF"></path>
                <path d="M200.5527,0.3749 L191.2897,16.3749 L209.8157,16.3749 L200.5527,0.3749 Z M200.5527,1.8719 L208.5147,15.6249 L192.5907,15.6249 L200.5527,1.8719 Z" id="Fill-12" fill="#FFFFFF"></path>
                <mask id="mask-2" fill="white">
                    <use xlink:href="#path-1"></use>
                </mask>
                <g id="Clip-15"></g>
                <polygon id="Fill-14" fill="#FFFFFF" mask="url(#mask-2)" points="199.878 10.5241 201.228 10.5241 201.228 6.3341 199.878 6.3341"></polygon>
                <polygon id="Fill-16" fill="#FFFFFF" mask="url(#mask-2)" points="199.878 13.7241 201.228 13.7241 201.228 12.3741 199.878 12.3741"></polygon>
                <path d="M104.9769,1.625 C101.1129,1.625 97.6989,3.952 96.2789,7.555 L96.1709,7.829 L96.2789,8.104 C97.6989,11.706 101.1129,14.034 104.9769,14.034 C108.8409,14.034 112.2549,11.706 113.6749,8.104 L113.7829,7.829 L113.6749,7.554 C112.2549,3.952 108.8409,1.625 104.9769,1.625 M104.9769,2.375 C108.6129,2.375 111.7189,4.637 112.9769,7.829 C111.7189,11.022 108.6129,13.284 104.9769,13.284 C101.3409,13.284 98.2349,11.022 96.9769,7.829 C98.2349,4.637 101.3409,2.375 104.9769,2.375" id="Fill-17" fill="#FFFFFF" mask="url(#mask-2)"></path>
                <path d="M104.9771,4.5678 C103.1791,4.5678 101.7161,6.0308 101.7161,7.8298 C101.7161,9.6278 103.1791,11.0898 104.9771,11.0898 C106.7751,11.0898 108.2381,9.6278 108.2381,7.8298 C108.2381,6.0308 106.7751,4.5678 104.9771,4.5678 M104.9771,11.8398 C102.7651,11.8398 100.9661,10.0408 100.9661,7.8298 C100.9661,5.6178 102.7651,3.8178 104.9771,3.8178 C107.1891,3.8178 108.9881,5.6178 108.9881,7.8298 C108.9881,10.0408 107.1891,11.8398 104.9771,11.8398" id="Fill-18" fill="#FFFFFF" mask="url(#mask-2)"></path>
                <path d="M104.9771,6.0224 C103.9801,6.0224 103.1701,6.8334 103.1701,7.8294 C103.1701,8.8254 103.9801,9.6364 104.9771,9.6364 C105.9731,9.6364 106.7841,8.8254 106.7841,7.8294 C106.7841,6.8334 105.9731,6.0224 104.9771,6.0224 M104.9771,10.3864 C103.5671,10.3864 102.4201,9.2394 102.4201,7.8294 C102.4201,6.4194 103.5671,5.2724 104.9771,5.2724 C106.3871,5.2724 107.5341,6.4194 107.5341,7.8294 C107.5341,9.2394 106.3871,10.3864 104.9771,10.3864" id="Fill-19" fill="#FFFFFF" mask="url(#mask-2)"></path>
                <path d="M232.977,0.3749 C228.561,0.3749 224.977,3.9589 224.977,8.3749 C224.977,12.7909 228.561,16.3749 232.977,16.3749 C237.393,16.3749 240.977,12.7909 240.977,8.3749 C240.977,3.9589 237.393,0.3749 232.977,0.3749 M232.977,1.1249 C236.975,1.1249 240.227,4.3769 240.227,8.3749 C240.227,12.3729 236.975,15.6249 232.977,15.6249 C228.979,15.6249 225.727,12.3729 225.727,8.3749 C225.727,4.3769 228.979,1.1249 232.977,1.1249" id="Fill-20" fill="#FFFFFF" mask="url(#mask-2)"></path>
                <polygon id="Fill-21" fill="#FFFFFF" mask="url(#mask-2)" points="232.302 8.9931 233.652 8.9931 233.652 4.8031 232.302 4.8031"></polygon>
                <polygon id="Fill-22" fill="#FFFFFF" mask="url(#mask-2)" points="232.302 12.1931 233.652 12.1931 233.652 10.8431 232.302 10.8431"></polygon>
                <path d="M264.9771,0.3749 C260.5611,0.3749 256.9771,3.9589 256.9771,8.3749 C256.9771,12.7909 260.5611,16.3749 264.9771,16.3749 C269.3931,16.3749 272.9771,12.7909 272.9771,8.3749 C272.9771,3.9589 269.3931,0.3749 264.9771,0.3749 M264.9771,1.1249 C268.9751,1.1249 272.2271,4.3769 272.2271,8.3749 C272.2271,12.3729 268.9751,15.6249 264.9771,15.6249 C260.9791,15.6249 257.7271,12.3729 257.7271,8.3749 C257.7271,4.3769 260.9791,1.1249 264.9771,1.1249" id="Fill-23" fill="#FFFFFF" mask="url(#mask-2)"></path>
                <polygon id="Fill-24" fill="#FFFFFF" mask="url(#mask-2)" points="269.4484 4.3932 270.2244 5.1742 263.3774 12.0212 259.7304 8.3752 260.5054 7.6002 263.2004 10.2882 263.3774 10.4642 263.5534 10.2882"></polygon>
                <path d="M296.5837,0.6249 C294.3237,0.6249 292.4927,2.3519 292.4927,4.4819 C292.4927,6.6129 294.3237,8.3389 296.5837,8.3389 C298.8437,8.3389 300.6747,6.6129 300.6747,4.4819 C300.6747,2.3519 298.8437,0.6249 296.5837,0.6249 M296.5837,1.3749 C298.4257,1.3749 299.9247,2.7689 299.9247,4.4819 C299.9247,6.1959 298.4257,7.5889 296.5837,7.5889 C294.7417,7.5889 293.2427,6.1959 293.2427,4.4819 C293.2427,2.7689 294.7417,1.3749 296.5837,1.3749" id="Fill-25" fill="#FFFFFF" mask="url(#mask-2)"></path>
                <path d="M304.2739,16.5 L303.5239,16.5 L303.5239,14.556 C303.5239,12.135 301.5089,10.166 299.0329,10.166 L294.1349,10.166 C291.6579,10.166 289.6439,12.135 289.6439,14.556 L289.6439,16.5 L288.8939,16.5 L288.8939,14.556 C288.8939,11.721 291.2449,9.416 294.1349,9.416 L299.0329,9.416 C301.9219,9.416 304.2739,11.721 304.2739,14.556 L304.2739,16.5 Z" id="Fill-26" fill="#FFFFFF" mask="url(#mask-2)"></path>
                <path d="M72.0835,3.1137 C69.6175,3.1137 67.6105,5.1197 67.6105,7.5857 C67.6105,10.0517 69.6175,12.0587 72.0835,12.0587 C74.5455,12.0567 76.5525,10.0517 76.5565,7.5887 C76.5565,5.1197 74.5495,3.1137 72.0835,3.1137 L72.0835,3.1137 Z M72.0835,12.8087 L72.0835,12.8087 C69.2035,12.8087 66.8605,10.4657 66.8605,7.5857 C66.8605,4.7067 69.2035,2.3637 72.0835,2.3637 C74.9635,2.3637 77.3065,4.7067 77.3065,7.5857 C77.3015,10.4657 74.9585,12.8067 72.0835,12.8087 L72.0835,12.8087 Z M76.2755,12.4407 L76.5905,12.7807 L79.8305,16.0967 L80.6945,15.2677 L77.1075,11.5867 L77.3545,11.2367 C78.3475,9.8237 78.7315,8.1097 78.4355,6.4077 C78.1395,4.7067 77.1985,3.2227 75.7865,2.2297 C74.3755,1.2367 72.6615,0.8537 70.9585,1.1477 C69.2575,1.4447 67.7735,2.3847 66.7795,3.7977 C65.7865,5.2097 65.4025,6.9247 65.6985,8.6247 C65.9945,10.3257 66.9355,11.8097 68.3475,12.8037 C70.6255,14.4067 73.6635,14.3737 75.9055,12.7177 L76.2755,12.4407 Z M79.8135,17.1527 L76.1865,13.4397 C73.6995,15.1687 70.4025,15.1657 67.9165,13.4167 C64.6625,11.1287 63.8775,6.6187 66.1665,3.3657 C67.2755,1.7897 68.9315,0.7397 70.8305,0.4087 C72.7305,0.0797 74.6425,0.5077 76.2185,1.6157 C79.4185,3.8667 80.2295,8.2667 78.0775,11.5067 L81.7595,15.2847 L79.8135,17.1527 Z" id="Fill-27" fill="#FFFFFF" mask="url(#mask-2)"></path>
                <path d="M257.3521,47.9531 L260.1541,47.9531 L269.6091,38.4981 L266.8071,35.6961 L257.3521,45.1501 L257.3521,47.9531 Z M260.4651,48.7031 L256.6021,48.7031 L256.6021,44.8401 L266.8071,34.6361 L270.6701,38.4981 L260.4651,48.7031 Z" id="Fill-28" fill="#FFFFFF" mask="url(#mask-2)"></path>
                <path d="M268.2881,34.2143 L271.0911,37.0173 L272.4521,35.6553 C272.5491,35.5593 272.6021,35.4303 272.6021,35.2943 C272.6021,35.1583 272.5491,35.0293 272.4521,34.9333 L270.3721,32.8533 C270.1731,32.6533 269.8491,32.6543 269.6491,32.8533 L268.2881,34.2143 Z M271.0911,38.0773 L267.2271,34.2143 L269.1191,32.3223 C269.6101,31.8313 270.4101,31.8303 270.9031,32.3223 L272.9821,34.4023 C273.2211,34.6413 273.3521,34.9583 273.3521,35.2943 C273.3521,35.6313 273.2211,35.9473 272.9821,36.1863 L271.0911,38.0773 Z" id="Fill-29" fill="#FFFFFF" mask="url(#mask-2)"></path>
                <path d="M104.977,32.3883 C100.561,32.3883 96.977,35.9723 96.977,40.3883 C96.977,44.8043 100.561,48.3883 104.977,48.3883 C109.393,48.3883 112.977,44.8043 112.977,40.3883 C112.977,35.9723 109.393,32.3883 104.977,32.3883 M104.977,33.1383 C108.975,33.1383 112.227,36.3903 112.227,40.3883 C112.227,44.3863 108.975,47.6383 104.977,47.6383 C100.979,47.6383 97.727,44.3863 97.727,40.3883 C97.727,36.3903 100.979,33.1383 104.977,33.1383" id="Fill-30" fill="#FFFFFF" mask="url(#mask-2)"></path>
                <polygon id="Fill-31" fill="#FFFFFF" mask="url(#mask-2)" points="104.3521 44.2134 105.6021 44.2134 105.6021 41.0134 108.8021 41.0134 108.8021 39.7634 105.6021 39.7634 105.6021 36.5634 104.3521 36.5634 104.3521 39.7634 101.1521 39.7634 101.1521 41.0134 104.3521 41.0134"></polygon>
                <path d="M169.3104,0.725 C173.5284,0.725 176.9604,4.157 176.9604,8.375 C176.9604,12.593 173.5284,16.025 169.3104,16.025 C167.3884,16.025 165.5714,15.317 164.1574,14.023 L164.9244,13.256 C166.1294,14.349 167.6734,14.947 169.3104,14.947 C172.9344,14.947 175.8824,11.999 175.8824,8.375 C175.8824,4.751 172.9344,1.803 169.3104,1.803 C165.6864,1.803 162.7384,4.751 162.7384,8.375 L162.7384,8.725 L163.0884,8.725 L164.9084,8.725 L162.1944,11.432 L159.4884,8.725 L161.3104,8.725 L161.6604,8.725 L161.6604,8.375 C161.6604,4.157 165.0924,0.725 169.3104,0.725" id="Fill-32" fill="#FFFFFF" mask="url(#mask-2)"></path>
                <polygon id="Fill-33" fill="#FFFFFF" mask="url(#mask-2)" points="169.6049 4.9695 169.6049 8.5975 169.6049 8.6825 169.6779 8.7265 172.6599 10.4985 172.1739 11.3165 168.5719 9.1785 168.5719 4.9695"></polygon>
                <polygon id="Fill-34" fill="#FFFFFF" mask="url(#mask-2)" points="229.5859 46.4477 230.5829 47.4447 237.6989 40.3287 230.5829 33.2127 229.5859 34.2087 235.6919 40.3287"></polygon>
                <polygon id="Fill-35" fill="#FFFFFF" mask="url(#mask-2)" points="195.9785 40.3286 203.0945 47.4446 204.0915 46.4476 197.9855 40.3286 204.0915 34.2086 203.0945 33.2126"></polygon>
                <polygon id="Fill-36" fill="#FFFFFF" mask="url(#mask-2)" points="168.8604 38.2793 174.9794 44.3853 175.9764 43.3883 168.8604 36.2723 161.7444 43.3883 162.7404 44.3853"></polygon>
                <polygon id="Fill-37" fill="#FFFFFF" mask="url(#mask-2)" points="129.8608 37.268 136.9768 44.384 144.0928 37.268 143.0968 36.271 136.9768 42.378 130.8578 36.271"></polygon>
                <polygon id="Fill-38" fill="#FFFFFF" mask="url(#mask-2)" points="66.4312 41.2768 70.8132 45.4888 80.5102 36.1678 79.5942 35.2868 70.8132 43.7188 67.3552 40.3948"></polygon>
                <polygon id="Fill-39" fill="#FFFFFF" mask="url(#mask-2)" points="40.9771 41.3169 46.8011 47.0909 47.7371 46.1619 41.9131 40.3879 47.7371 34.6139 46.8011 33.6859 40.9771 39.4599 35.1531 33.6859 34.2171 34.6139 40.0401 40.3879 34.2171 46.1619 35.1531 47.0909"></polygon>
                <path d="M5.3442,41.9629 L11.2872,45.4359 L11.2572,45.5619 C11.2182,45.7279 11.1972,45.8899 11.1972,46.0429 C11.1972,47.2399 12.1712,48.2129 13.3682,48.2129 C14.5652,48.2129 15.5382,47.2399 15.5382,46.0429 C15.5382,44.8459 14.5652,43.8719 13.3682,43.8719 C12.8382,43.8719 12.3202,44.0759 11.9112,44.4459 L11.8162,44.5309 L5.8692,41.0699 L5.8962,40.9449 C5.9312,40.7819 5.9642,40.6049 5.9642,40.4209 C5.9642,40.2359 5.9312,40.0589 5.8962,39.8949 L5.8692,39.7709 L11.7532,36.3409 L11.8482,36.4289 C12.2692,36.8179 12.8082,37.0329 13.3682,37.0329 C14.6002,37.0329 15.6032,36.0299 15.6032,34.7979 C15.6032,33.5659 14.6002,32.5629 13.3682,32.5629 C12.1362,32.5629 11.1332,33.5659 11.1332,34.7979 C11.1332,34.9859 11.1682,35.1689 11.2012,35.3229 L11.2292,35.4469 L5.3442,38.8779 L5.2492,38.7899 C4.8282,38.3999 4.2882,38.1859 3.7292,38.1859 C2.4972,38.1859 1.4942,39.1879 1.4942,40.4209 C1.4942,41.6529 2.4972,42.6549 3.7292,42.6549 C4.2882,42.6549 4.8282,42.4409 5.2492,42.0509 L5.3442,41.9629 Z" id="Fill-40" fill="#FFFFFF" mask="url(#mask-2)"></path>
            </g>
        </g>
    </g>
</svg>