<?xml version="1.0" encoding="UTF-8" standalone="no"?>
<svg version="1.1" xmlns="http://www.w3.org/2000/svg" xmlns:xlink="http://www.w3.org/1999/xlink">
  <defs></defs>
  <!-- Navigation -->
  <symbol id="home" viewBox="0 0 16 16">
    <title>Home</title>
    <path transform="translate(0.000000, 0.000000)" d="M9.76015347,13.9955223 L12.656444,13.9955223 L12.656444,8.29205791 L14.258761,8.29205791 L8.0001,2.65899564 L1.74143898,8.29205791 L3.34375601,8.29205791 L3.34375601,13.9955223 L6.24004653,13.9955223 L6.24004653,9.71792402 L9.76015347,9.71792402 L9.76015347,13.9955223 Z M13.3248187,14.6638971 L9.09177873,14.6638971 L9.09177873,10.3862988 L6.90842127,10.3862988 L6.90842127,14.6638971 L2.67538127,14.6638971 L2.67538127,8.96043265 L0.0001,8.96043265 L8.0001,1.7607 L16.0001,8.96043265 L13.3248187,8.96043265 L13.3248187,14.6638971 Z"></path>
  </symbol>
  <symbol id="arrow-left" viewBox="0 0 16 16">
    <title>Arrow - Left</title>
    <polygon transform="translate(-192.000000, -32.000000)" points="195.439573 40 203.439573 48 204.560427 46.8791456 197.695897 40 204.560427 33.1197302 203.439573 32"></polygon>
  </symbol>
  <symbol id="arrow-right" viewBox="0 0 16 16">
    <title>Arrow - Right</title>
    <polygon transform="translate(-224.000000, -32.000000)" points="228 46.8791456 229.120854 48 237.120854 40 229.120854 32 228 33.1197302 234.864531 40"></polygon>
  </symbol>
  <symbol id="arrow-up" viewBox="0 0 16 16">
    <title>Arrow - Up</title>
    <polygon transform="translate(-160.000000, -32.000000)" points="168 38.2563238 174.879146 45.1208544 176 44 168 36 160 44 161.11973 45.1208544"></polygon>
  </symbol>
  <symbol id="arrow-down" viewBox="0 0 16 16">
    <title>Arrow - Down</title>
    <polygon transform="translate(-128.000000, -32.000000)" points="128 37.1208544 136 45.1208544 144 37.1208544 142.88027 36 136 42.8656549 129.120854 36"></polygon>
  </symbol>
  <symbol id="search" viewBox="0 0 16 16">
    <title>Search</title>
    <path transform="translate(-64.000000, 0.000000)" d="M70.8746287,12.7430232 C67.6918573,12.7430232 65.103244,10.1464378 65.103244,6.95386451 C65.103244,3.76231349 67.6918573,1.1657281 70.8746287,1.1657281 C74.0574,1.1657281 76.6460133,3.76231349 76.6460133,6.95386451 C76.6409176,10.1443933 74.0523043,12.7420009 70.8746287,12.7430232 L70.8746287,12.7430232 Z M75.419989,12.0437852 L75.8388551,12.4986988 L79.2488945,16 L80,15.2772497 L76.1405203,11.3046785 L76.4646065,10.8385198 C78.6414876,7.73488468 77.8954778,3.43518462 74.8023907,1.2526217 C73.3073136,0.19865338 71.4881504,-0.209235428 69.6801977,0.101536997 C67.8773406,0.416398533 66.3027707,1.41823069 65.2479618,2.92097893 C64.1951911,4.42168261 63.7895738,6.24644833 64.1034686,8.05792444 C64.4183826,9.87042283 65.4151006,11.4498419 66.9111968,12.5058548 C69.3285947,14.211014 72.5511125,14.174212 74.9287639,12.4148721 L75.419989,12.0437852 Z"></path>
  </symbol>
  <symbol id="view" viewBox="0 0 16 16">
    <title>View</title>
    <path transform="translate(-96.000000, 0.000000)" d="M104,2 C100.489666,2 97.3881444,4.11401317 96.0981149,7.38723598 L96,7.63615717 L96.0981149,7.88598683 C97.3881444,11.1583012 100.489666,13.2732228 104,13.2732228 C107.510334,13.2732228 110.611856,11.1583012 111.901885,7.88598683 L112,7.63615717 L111.901885,7.3863275 C110.611856,4.11401317 107.510334,2 104,2 M104,2.68135362 C107.303202,2.68135362 110.124915,4.73631615 111.267772,7.63615717 C110.124915,10.5369067 107.303202,12.5918692 104,12.5918692 C100.696798,12.5918692 97.8750852,10.5369067 96.732228,7.63615717 C97.8750852,4.73631615 100.696798,2.68135362 104,2.68135362 Z M104.000182,4.67344992 C102.36675,4.67344992 101.037656,6.00254372 101.037656,7.63688394 C101.037656,9.27031569 102.36675,10.598501 104.000182,10.598501 C105.633613,10.598501 106.962707,9.27031569 106.962707,7.63688394 C106.962707,6.00254372 105.633613,4.67344992 104.000182,4.67344992 Z M104.000182,11.2798546 C101.990643,11.2798546 100.356303,9.64551442 100.356303,7.63688394 C100.356303,5.62734499 101.990643,3.9920963 104.000182,3.9920963 C106.009721,3.9920963 107.644061,5.62734499 107.644061,7.63688394 C107.644061,9.64551442 106.009721,11.2798546 104.000182,11.2798546 Z M104.000182,5.99491256 C103.094436,5.99491256 102.358574,6.73168294 102.358574,7.63652055 C102.358574,8.54135816 103.094436,9.27812855 104.000182,9.27812855 C104.905019,9.27812855 105.64179,8.54135816 105.64179,7.63652055 C105.64179,6.73168294 104.905019,5.99491256 104.000182,5.99491256 Z M104.000182,9.95948217 C102.719237,9.95948217 101.67722,8.91746536 101.67722,7.63652055 C101.67722,6.35557574 102.719237,5.31355894 104.000182,5.31355894 C105.281127,5.31355894 106.323143,6.35557574 106.323143,7.63652055 C106.323143,8.91746536 105.281127,9.95948217 104.000182,9.95948217 Z"></path>
  </symbol>
  <symbol id="settings" viewBox="0 0 16 16">
    <title>Settings</title>
    <path transform="translate(-32.000000, 0.000000)" d="M40.1152885,5.72355769 C38.8902885,5.72355769 37.8922115,6.72067308 37.8922115,7.94663462 C37.8922115,9.17163462 38.8902885,10.16875 40.1152885,10.16875 C41.3402885,10.16875 42.3383654,9.17163462 42.3383654,7.94663462 C42.3383654,6.72067308 41.3402885,5.72355769 40.1152885,5.72355769 M41.7298077,16 L38.2701923,16 C38.0711538,16 37.9096154,15.8384615 37.9096154,15.6394231 L37.9096154,13.8807692 C37.9096154,13.4971154 37.8057692,13.3759615 37.7778846,13.3644231 C37.7461538,13.3519231 37.5894231,13.3663462 37.3192308,13.6365385 L36.0759615,14.8798077 C35.9346154,15.0211538 35.7057692,15.0201923 35.5653846,14.8798077 L33.1201923,12.4336538 C32.9788462,12.2923077 32.9788462,12.0644231 33.1201923,11.9230769 L34.3625,10.6807692 C34.6336538,10.4096154 34.6461538,10.25 34.6346154,10.2221154 C34.6240385,10.1942308 34.5019231,10.0903846 34.1182692,10.0903846 L32.3605769,10.0903846 C32.1605769,10.0903846 32,9.92884615 32,9.72980769 L32,6.27019231 C32,6.07115385 32.1605769,5.90961538 32.3605769,5.90961538 L34.1182692,5.90961538 C34.5028846,5.90961538 34.6240385,5.80576923 34.6355769,5.77788462 C34.6461538,5.75 34.6346154,5.59038462 34.3625,5.31923077 L33.1201923,4.07596154 C32.9788462,3.93557692 32.9788462,3.70673077 33.1201923,3.56634615 L35.5663462,1.11923077 C35.7067308,0.978846154 35.9355769,0.978846154 36.0759615,1.11923077 L37.3192308,2.3625 C37.5894231,2.63269231 37.7461538,2.64711538 37.7778846,2.63557692 C37.8057692,2.62403846 37.9096154,2.50192308 37.9096154,2.11826923 L37.9096154,0.360576923 C37.9096154,0.161538462 38.0711538,0 38.2701923,0 L41.7298077,0 C41.9288462,0 42.0903846,0.161538462 42.0903846,0.360576923 L42.0903846,2.11826923 C42.0903846,2.50192308 42.1942308,2.62403846 42.2221154,2.63557692 C42.2490385,2.64903846 42.4086538,2.63557692 42.6807692,2.3625 L43.9230769,1.11923077 C44.0586538,0.984615385 44.2980769,0.984615385 44.4336538,1.11923077 L46.8798077,3.56634615 C46.9471154,3.63365385 46.9855769,3.725 46.9855769,3.82115385 C46.9855769,3.91730769 46.9471154,4.00865385 46.8798077,4.07596154 L45.6365385,5.31923077 C45.3653846,5.59038462 45.3528846,5.75 45.3644231,5.77788462 C45.3759615,5.80576923 45.4971154,5.90961538 45.8817308,5.90961538 L47.6394231,5.90961538 C47.8384615,5.90961538 48,6.07115385 48,6.27019231 L48,9.72980769 C48,9.92884615 47.8384615,10.0903846 47.6394231,10.0903846 L45.8817308,10.0903846 C45.4980769,10.0903846 45.3759615,10.1942308 45.3644231,10.2221154 C45.3528846,10.25 45.3653846,10.4096154 45.6375,10.6807692 L46.8798077,11.9230769 C47.0211538,12.0644231 47.0211538,12.2923077 46.8798077,12.4336538 L44.4336538,14.8798077 C44.3653846,14.9471154 44.2740385,14.9855769 44.1788462,14.9855769 C44.0826923,14.9855769 43.9903846,14.9471154 43.9230769,14.8798077 L42.6807692,13.6365385 C42.4076923,13.3644231 42.2480769,13.3519231 42.2221154,13.3644231 C42.1942308,13.3759615 42.0903846,13.4971154 42.0903846,13.8807692 L42.0903846,15.6394231 C42.0903846,15.8384615 41.9288462,16 41.7298077,16 Z M38.6307692,15.2788462 L41.3692308,15.2788462 L41.3692308,13.8807692 C41.3692308,13.0596154 41.7307692,12.7875 41.9461538,12.6980769 C42.1615385,12.6086538 42.6105769,12.5451923 43.1903846,13.1269231 L44.1788462,14.1153846 L46.1153846,12.1778846 L45.1269231,11.1903846 C44.5461538,10.6096154 44.6086538,10.1615385 44.6980769,9.94615385 C44.7875,9.73076923 45.0596154,9.36923077 45.8817308,9.36923077 L47.2788462,9.36923077 L47.2788462,6.63076923 L45.8817308,6.63076923 C45.0596154,6.63076923 44.7875,6.26923077 44.6980769,6.05384615 C44.6086538,5.83846154 44.5461538,5.39038462 45.1269231,4.80961538 L46.1153846,3.82115385 L44.1788462,1.88461538 L43.1903846,2.87307692 C42.6105769,3.45384615 42.1615385,3.39230769 41.9461538,3.30096154 C41.7307692,3.2125 41.3692308,2.93942308 41.3692308,2.11826923 L41.3692308,0.721153846 L38.6307692,0.721153846 L38.6307692,2.11826923 C38.6307692,2.93942308 38.2692308,3.2125 38.0538462,3.30096154 C37.8384615,3.39230769 37.3903846,3.45384615 36.8096154,2.87307692 L35.8211538,1.88461538 L33.8846154,3.82115385 L34.8721154,4.80961538 C35.4538462,5.39038462 35.3903846,5.83846154 35.3019231,6.05384615 C35.2125,6.26923077 34.9403846,6.63076923 34.1182692,6.63076923 L32.7211538,6.63076923 L32.7211538,9.36923077 L34.1182692,9.36923077 C34.9394231,9.36923077 35.2115385,9.73076923 35.3009615,9.94615385 C35.3903846,10.1615385 35.4528846,10.6096154 34.8721154,11.1903846 L33.8846154,12.1778846 L35.8211538,14.1153846 L36.8086538,13.1269231 C37.3894231,12.5451923 37.8384615,12.6086538 38.0538462,12.6980769 C38.2692308,12.7875 38.6307692,13.0596154 38.6307692,13.8807692 L38.6307692,15.2788462 Z M40.1152885,10.8899038 C38.4922115,10.8899038 37.1710577,9.56971154 37.1710577,7.94663462 C37.1710577,6.32355769 38.4922115,5.00240385 40.1152885,5.00240385 C41.7383654,5.00240385 43.0595192,6.32355769 43.0595192,7.94663462 C43.0595192,9.56971154 41.7383654,10.8899038 40.1152885,10.8899038 Z"></path>
  </symbol>
  <symbol id="warning" viewBox="0 0 16 16">
    <title>Warning</title>
    <path transform="translate(-192.000000, 0.000000)" d="M200,1 L192,14.8184174 L208,14.8184174 L200,1 Z M200,2.29288567 L206.87639,14.170679 L193.12361,14.170679 L200,2.29288567 Z M199.417295,9.76536759 L200.583224,9.76536759 L200.583224,6.14666955 L199.417295,6.14666955 L199.417295,9.76536759 Z M199.417295,12.5290511 L200.583224,12.5290511 L200.583224,11.3631221 L199.417295,11.3631221 L199.417295,12.5290511 Z"></path>
    </symbol>
  <symbol viewBox="0 0 16 16" id="comment">
    <title>Comment</title>
    <path transform="translate(-128.000000, 0.000000)" d="M142.4,0 L129.6,0 C128.72,0 128,0.72 128,1.6 L128,11.2 C128,12.08 128.72,12.8 129.6,12.8 L140.8,12.8 L144,16 L143.992,1.6 C143.992,0.72 143.28,0 142.4,0 M142.4,0.75 C142.864,0.75 143.242,1.131 143.242,1.6 L143.249,14.188 L141.33,12.27 L141.111,12.05 L140.8,12.05 L129.6,12.05 C129.131,12.05 128.75,11.669 128.75,11.2 L128.75,1.6 C128.75,1.131 129.131,0.75 129.6,0.75 L142.4,0.75"></path>
  </symbol>
  <symbol viewBox="0 0 16 16" id="location">
    <title>Location</title>
      <path transform="translate(-287.000000, -32.000000)" d="M296.002686,39.6 C294.898686,39.6 294.002686,38.704 294.002686,37.6 C294.002686,36.496 294.898686,35.6 296.002686,35.6 C297.106686,35.6 298.002686,36.496 298.002686,37.6 C298.002686,38.704 297.106686,39.6 296.002686,39.6 M296.002686,32 C292.906686,32 290.402686,34.504 290.402686,37.6 C290.402686,41.8 296.002686,48 296.002686,48 C296.002686,48 301.602686,41.8 301.602686,37.6 C301.602686,34.504 299.098686,32 296.002686,32 M296.002686,40.35 C297.518686,40.35 298.752686,39.116 298.752686,37.6 C298.752686,36.084 297.518686,34.85 296.002686,34.85 C294.486686,34.85 293.252686,36.084 293.252686,37.6 C293.252686,39.116 294.486686,40.35 296.002686,40.35 M296.002686,32.75 C298.676686,32.75 300.852686,34.926 300.852686,37.6 C300.852686,40.709 297.382686,45.189 296.002686,46.848 C294.621686,45.189 291.152686,40.713 291.152686,37.6 C291.152686,34.926 293.328686,32.75 296.002686,32.75"></path>
    </symbol>
  <symbol id="info" viewBox="0 0 16 16">
    <title>Info</title>
    <path transform="translate(-224.000000, 0.000000)" d="M232,16 C227.584,16 224,12.416 224,8 C224,3.584 227.584,0 232,0 C236.416,0 240,3.584 240,8 C240,12.416 236.416,16 232,16 M239.25,8 C239.25,4.002 235.998,0.75 232,0.75 C228.002,0.75 224.75,4.002 224.75,8 C224.75,11.998 228.002,15.25 232,15.25 C235.998,15.25 239.25,11.998 239.25,8 Z M231.325,7.2218 L232.675,7.2218 L232.675,11.7218 L231.325,11.7218 L231.325,7.2218 Z M231.325,4.6251 L232.675,4.6251 L232.675,5.9751 L231.325,5.9751 L231.325,4.6251 Z"></path>
  </symbol>
  <symbol id="edit" viewBox="0 0 16 16">
    <path transform="translate(-256.000000, -32.000000)" d="M256.716418,47.2830329 L259.392955,47.2830329 L268.424597,38.2513911 L265.74806,35.5748538 L256.716418,44.6055404 L256.716418,47.2830329 Z M259.69003,47.9994508 L256,47.9994508 L256,44.309421 L265.74806,34.5623165 L269.43809,38.2513911 L259.69003,47.9994508 Z M269.840239,37.8494329 L266.149254,34.1594031 L267.956537,32.3521195 C268.425552,31.8831046 269.189731,31.8821493 269.660657,32.3521195 L271.646567,34.3389852 C271.874866,34.5672837 272,34.8700896 272,35.1910449 C272,35.5129553 271.874866,35.8148061 271.646567,36.0431046 L269.840239,37.8494329 Z M267.162746,34.1594031 L269.840239,36.8368956 L271.140299,35.5358807 C271.232955,35.4441792 271.283582,35.3209553 271.283582,35.1910449 C271.283582,35.0611344 271.232955,34.9379105 271.140299,34.846209 L269.153433,32.8593434 C268.963343,32.6682986 268.653851,32.6692538 268.462806,32.8593434 L267.162746,34.1594031 Z"></path>
</symbol>
      <path d="M264,0 C259.584,0 256,3.584 256,8 C256,12.416 259.584,16 264,16 C268.416,16 272,12.416 272,8 C272,3.584 268.416,0 264,0 M264,0.75 C267.998,0.75 271.25,4.002 271.25,8 C271.25,11.998 267.998,15.25 264,15.25 C260.002,15.25 256.75,11.998 256.75,8 C256.75,4.002 260.002,0.75 264,0.75 Z M268.4713,4.0183 L269.2473,4.7993 L262.4003,11.6463 L258.7533,8.0003 L259.5283,7.2253 L262.2233,9.9133 L262.4003,10.0893 L262.5763,9.9133 L268.4713,4.0183 Z" id="Check---Circle"></path>
      <path d="M295.999792,0 C293.648687,0 291.743875,1.79661899 291.743875,4.01248375 C291.743875,6.22938882 293.648687,8.02496749 295.999792,8.02496749 C298.350897,8.02496749 300.255709,6.22938882 300.255709,4.01248375 C300.255709,1.79661899 298.350897,0 295.999792,0 M295.999792,0.78023407 C297.916047,0.78023407 299.475475,2.23042913 299.475475,4.01248375 C299.475475,5.79557867 297.916047,7.24473342 295.999792,7.24473342 C294.083537,7.24473342 292.524109,5.79557867 292.524109,4.01248375 C292.524109,2.23042913 294.083537,0.78023407 295.999792,0.78023407 Z M304.005371,16.0158691 L303.225137,16.0158691 L303.219766,14.4926918 C303.219766,11.9740962 301.123537,9.92572172 298.547724,9.92572172 L293.452276,9.92572172 C290.875423,9.92572172 288.780234,11.9740962 288.780234,14.4926918 L288.785605,16.0158691 L288.005371,16.0158691 L288,14.4926918 C288,11.543407 290.445774,9.14548765 293.452276,9.14548765 L298.547724,9.14548765 C301.553186,9.14548765 304,11.543407 304,14.4926918 L304.005371,16.0158691 Z" id="Combined-Shape"></path>
      
      <path d="M104,32 C99.584,32 96,35.584 96,40 C96,44.416 99.584,48 104,48 C108.416,48 112,44.416 112,40 C112,35.584 108.416,32 104,32 M104,32.75 C107.998,32.75 111.25,36.002 111.25,40 C111.25,43.998 107.998,47.25 104,47.25 C100.002,47.25 96.75,43.998 96.75,40 C96.75,36.002 100.002,32.75 104,32.75 Z M103.3751,43.8251 L104.6251,43.8251 L104.6251,40.6251 L107.8251,40.6251 L107.8251,39.3751 L104.6251,39.3751 L104.6251,36.1751 L103.3751,36.1751 L103.3751,39.3751 L100.1751,39.3751 L100.1751,40.6251 L103.3751,40.6251 L103.3751,43.8251 Z" id="Add"></path>
      <path d="M168.994505,1 C172.857143,1 176,4.14285714 176,8.00549451 C176,11.8681319 172.857143,15.010989 168.994505,15.010989 C167.234432,15.010989 165.570513,14.3626374 164.275641,13.1776557 L164.978022,12.4752747 C166.081502,13.4761905 167.495421,14.0238095 168.994505,14.0238095 C172.313187,14.0238095 175.012821,11.3241758 175.012821,8.00549451 C175.012821,4.68681319 172.313187,1.98717949 168.994505,1.98717949 C165.675824,1.98717949 162.97619,4.68681319 162.97619,8.00549451 L162.97619,8.32600733 L163.296703,8.32600733 L164.96337,8.32600733 L162.478022,10.8049451 L160,8.32600733 L161.668498,8.32600733 L161.989011,8.32600733 L161.989011,8.00549451 C161.989011,4.14285714 165.131868,1 168.994505,1 Z M169.264194,4.88690476 L169.264194,8.20924908 L169.264194,8.28708791 L169.331044,8.32738095 L172.061813,9.95009158 L171.616758,10.6991758 L168.318223,8.74130037 L168.318223,4.88690476 L169.264194,4.88690476 Z" id="History"></path>
      <polygon id="Check" points="64 41.8073017 68.9798991 46.5940053 80 36.0012075 78.959017 35 68.9798991 44.5824988 65.0500746 40.8049577"></polygon>
      <polygon id="Close" points="40 41.1082432 46.8923077 48 48 46.89116 41.1076923 39.9994032 48 33.1076464 46.8923077 32 40 38.8917568 33.1076923 32 32 33.1076464 38.8911243 39.9994032 32 46.89116 33.1076923 48"></polygon>
      <path d="M4.93610224,41.6102236 L11.0120128,45.1608946 L10.9813419,45.2897125 C10.9414696,45.4594249 10.92,45.6250479 10.92,45.7814696 C10.92,47.0052396 11.9157827,48 13.1395527,48 C14.3633227,48 15.3580831,47.0052396 15.3580831,45.7814696 C15.3580831,44.5576997 14.3633227,43.5619169 13.1395527,43.5619169 C12.5976997,43.5619169 12.068115,43.7704792 11.6499681,44.148754 L11.5528435,44.235655 L5.47284345,40.6972524 L5.50044728,40.5694569 C5.53623003,40.4028115 5.56996805,40.221853 5.56996805,40.033738 C5.56996805,39.8446006 5.53623003,39.6636422 5.50044728,39.4959744 L5.47284345,39.3692013 L11.4884345,35.862492 L11.5855591,35.9524601 C12.0159744,36.3501597 12.5670288,36.5699681 13.1395527,36.5699681 C14.3991054,36.5699681 15.4245367,35.5445367 15.4245367,34.284984 C15.4245367,33.0254313 14.3991054,32 13.1395527,32 C11.88,32 10.8545687,33.0254313 10.8545687,34.284984 C10.8545687,34.4771885 10.8903514,34.6642812 10.9240895,34.8217252 L10.9527157,34.9484984 L4.93610224,38.45623 L4.83897764,38.366262 C4.4085623,37.9675399 3.85648562,37.748754 3.28498403,37.748754 C2.02543131,37.748754 1,38.7731629 1,40.033738 C1,41.2932907 2.02543131,42.3176997 3.28498403,42.3176997 C3.85648562,42.3176997 4.4085623,42.0989137 4.83897764,41.7001917 L4.93610224,41.6102236 Z" id="Share"></path>
      
  </symbol>
</svg>