<?xml version="1.0" encoding="UTF-8" standalone="no"?>
<svg width="73px" height="15px" viewBox="0 0 73 15" version="1.1" xmlns="http://www.w3.org/2000/svg" xmlns:xlink="http://www.w3.org/1999/xlink">
    <!-- Generator: Sketch 40 (33762) - http://www.bohemiancoding.com/sketch -->
    <title>Powered By - Stacked</title>
    <desc>Created with Sketch.</desc>
    <defs></defs>
    <symbol id="Powered-By-Stacked" fill="#8D9CA9">
        <path d="M19.414066,14.6662677 L19.414066,8.27691429 L21.9554961,8.27691429 C23.573166,8.27691429 24.4973051,9.22601203 24.4973051,10.6409594 L24.4973051,12.3022226 C24.4973051,13.7169744 23.573166,14.6662677 21.9554961,14.6662677 L19.414066,14.6662677 Z M23.2074517,10.6409594 C23.2074517,9.90181654 22.6586907,9.49070376 21.9554961,9.49070376 L20.7042984,9.49070376 L20.7042984,13.4522827 L21.9554961,13.4522827 C22.6586907,13.4522827 23.2074517,13.0415609 23.2074517,12.3022226 L23.2074517,10.6409594 Z" id="Fill-1"></path>
        <path d="M28.4846141,14.7574241 C26.8673232,14.7574241 25.943184,13.8083263 25.943184,12.3933789 L25.943184,10.5497248 C25.943184,9.13477744 26.8673232,8.18548421 28.4846141,8.18548421 C30.1020944,8.18548421 31.0260441,9.13477744 31.0260441,10.5497248 L31.0260441,12.3933789 C31.0260441,13.8083263 30.1020944,14.7574241 28.4846141,14.7574241 L28.4846141,14.7574241 Z M29.7363802,10.5497248 C29.7363802,9.81019098 29.1876192,9.39946917 28.4846141,9.39946917 C27.7817984,9.39946917 27.2330375,9.81019098 27.2330375,10.5497248 L27.2330375,12.3933789 C27.2330375,13.1327173 27.7817984,13.5436346 28.4846141,13.5436346 C29.1876192,13.5436346 29.7363802,13.1327173 29.7363802,12.3933789 L29.7363802,10.5497248 Z" id="Fill-3"></path>
        <polygon id="Fill-5" points="35.9669578 11.087788 34.8747417 14.6664045 33.4787742 14.6664045 32.2368616 8.27705113 33.5365685 8.27705113 34.3163168 12.6032165 35.5671355 8.27705113 36.3671591 8.27705113 37.6175988 12.6032165 38.3973472 8.27705113 39.697054 8.27705113 38.4551414 14.6664045 37.0591739 14.6664045"></polygon>
        <path d="M46.5005335,8.27691429 L47.7905765,8.27691429 L47.7905765,12.840794 C47.7905765,14.1093203 47.0492944,14.7575609 45.7880539,14.7575609 C44.5270028,14.7575609 43.7855313,14.1093203 43.7855313,12.840794 L45.0852382,12.840794 C45.123515,13.2970647 45.3738303,13.5435759 45.7880539,13.5435759 C46.2886845,13.5435759 46.5005335,13.2241474 46.5005335,12.8040421 L46.5005335,8.27691429 Z" id="Fill-7"></path>
        <path d="M51.9040095,14.7574241 C50.2867186,14.7574241 49.3625794,13.8083263 49.3625794,12.3933789 L49.3625794,10.5497248 C49.3625794,9.13477744 50.2867186,8.18548421 51.9040095,8.18548421 C53.5214899,8.18548421 54.4454395,9.13477744 54.4454395,10.5497248 L54.4454395,12.3933789 C54.4454395,13.8083263 53.5214899,14.7574241 51.9040095,14.7574241 L51.9040095,14.7574241 Z M53.1557756,10.5497248 C53.1557756,9.81019098 52.6070147,9.39946917 51.9040095,9.39946917 C51.2011938,9.39946917 50.6524329,9.81019098 50.6524329,10.5497248 L50.6524329,12.3933789 C50.6524329,13.1327173 51.2011938,13.5436346 51.9040095,13.5436346 C52.6070147,13.5436346 53.1557756,13.1327173 53.1557756,12.3933789 L53.1557756,10.5497248 Z" id="Fill-9"></path>
        <polygon id="Fill-11" points="61.1044145 14.6662677 59.8143716 14.6662677 57.3114078 10.5496662 57.3114078 14.6662677 56.0211754 14.6662677 56.0211754 8.27691429 57.3114078 8.27691429 59.8143716 12.3935158 59.8143716 8.27691429 61.1044145 8.27691429"></polygon>
        <polygon id="Fill-13" points="64.103158 10.8326361 66.6165436 10.8326361 66.6165436 12.0466211 64.103158 12.0466211 64.103158 13.4523805 66.9144207 13.4523805 66.9144207 14.6663654 62.8129255 14.6663654 62.8129255 8.27701203 66.9144207 8.27701203 66.9144207 9.4908015 64.103158 9.4908015"></polygon>
        <path d="M68.2701217,12.6490586 L69.5984415,12.6490586 C69.6755636,13.1876301 70.1185895,13.543615 70.763611,13.543615 C71.3316998,13.543615 71.7262164,13.3428481 71.7262164,12.9047579 C71.7262164,12.5485774 71.5047035,12.347615 71.0330647,12.2289534 L69.8970765,11.9370887 C68.8670129,11.672397 68.3567183,10.9877955 68.3567183,10.0476902 C68.3567183,8.76958496 69.4157738,8.18546466 70.5902283,8.18546466 C71.9382549,8.18546466 72.7757975,8.93418647 72.9201883,10.0201263 L71.5914896,10.0201263 C71.4760906,9.59141955 71.0044518,9.39944962 70.5710899,9.39944962 C70.0319929,9.39944962 69.6467612,9.60041203 69.6467612,10.0476902 C69.6467612,10.4218556 69.9550603,10.5860662 70.3207745,10.6775549 L71.4182964,10.9604271 C72.458024,11.2251188 73.0162594,11.827615 73.0162594,12.9047579 C73.0162594,14.0546226 72.2270366,14.7574045 70.763611,14.7574045 C69.2905214,14.7574045 68.3373904,13.917585 68.2701217,12.6490586" id="Fill-15"></path>
        <path d="M19.8610902,6.14960602 L19.414085,6.14960602 L19.414085,0.279275188 L21.2509939,0.279275188 C22.1535313,0.279275188 22.909404,0.857726316 22.909404,1.98159098 C22.909404,3.10545564 22.1535313,3.69250827 21.2509939,3.69250827 L19.8610902,3.69250827 L19.8610902,6.14960602 Z M22.4622093,1.98159098 C22.4622093,1.15975639 21.9015106,0.732222556 21.2509939,0.732222556 L19.8610902,0.732222556 L19.8610902,3.2395609 L21.2509939,3.2395609 C21.9015106,3.2395609 22.4622093,2.80362105 22.4622093,1.98159098 L22.4622093,1.98159098 Z" id="Fill-17"></path>
        <path d="M26.5419132,6.23347068 C25.5095757,6.23347068 24.7453655,5.47888421 24.7453655,4.24593684 L24.7453655,2.18294436 C24.7453655,0.950192481 25.5095757,0.195410526 26.5419132,0.195410526 C27.5742508,0.195410526 28.338461,0.950192481 28.338461,2.18294436 L28.338461,4.24593684 C28.338461,5.47888421 27.5742508,6.23347068 26.5419132,6.23347068 M26.5419132,5.78052331 C27.2816793,5.78052331 27.8912663,5.28593684 27.8912663,4.24593684 L27.8912663,2.18294436 C27.8912663,1.14313985 27.2816793,0.648162406 26.5419132,0.648162406 C25.8021472,0.648162406 25.1925602,1.14313985 25.1925602,2.18294436 L25.1925602,4.24593684 C25.1925602,5.28593684 25.8021472,5.78052331 26.5419132,5.78052331" id="Fill-19"></path>
        <polygon id="Fill-21" points="31.676845 6.14960602 31.2459464 6.14960602 30.1973128 0.279275188 30.6363594 0.279275188 31.5142632 5.23550075 32.6441877 1.1179218 33.0506422 1.1179218 34.1803772 5.23550075 35.058281 0.279275188 35.4973276 0.279275188 34.448694 6.14960602 34.0179849 6.14960602 32.8473202 1.88091429"></polygon>
        <polygon id="Fill-23" points="40.785613 5.69671729 40.785613 6.14966466 37.6397122 6.14966466 37.6397122 0.279333835 40.785613 0.279333835 40.785613 0.732085714 38.0867174 0.732085714 38.0867174 2.9544015 40.785613 2.9544015 40.785613 3.39913835 38.0867174 3.39913835 38.0867174 5.69671729"></polygon>
        <path d="M43.7320764,6.14960602 L43.2850712,6.14960602 L43.2850712,0.279275188 L45.2197566,0.279275188 C46.1626552,0.279275188 46.7803902,0.950192481 46.7803902,1.84748571 C46.7803902,2.68613233 46.2356086,3.31482406 45.390297,3.3904782 L46.9674161,6.14960602 L46.4554161,6.14960602 L44.886445,3.3990797 L43.7320764,3.3990797 L43.7320764,6.14960602 Z M46.3331956,1.84748571 C46.3331956,1.12632782 45.821385,0.732222556 45.2197566,0.732222556 L43.7320764,0.732222556 L43.7320764,2.95453835 L45.2197566,2.95453835 C45.821385,2.95453835 46.3331956,2.5688391 46.3331956,1.84748571 L46.3331956,1.84748571 Z" id="Fill-25"></path>
        <polygon id="Fill-27" points="52.3282191 5.69671729 52.3282191 6.14966466 49.1823183 6.14966466 49.1823183 0.279333835 52.3282191 0.279333835 52.3282191 0.732085714 49.6293235 0.732085714 49.6293235 2.9544015 52.3282191 2.9544015 52.3282191 3.39913835 49.6293235 3.39913835 49.6293235 5.69671729"></polygon>
        <path d="M56.6241682,6.14960602 L54.8276204,6.14960602 L54.8276204,0.279275188 L56.6241682,0.279275188 C57.6565057,0.279275188 58.4205264,1.03405714 58.4205264,2.26680902 L58.4205264,4.16207218 C58.4205264,5.39501955 57.6565057,6.14960602 56.6241682,6.14960602 L56.6241682,6.14960602 Z M56.6241682,5.69665865 C57.3639343,5.69665865 57.9735212,5.20187669 57.9735212,4.16207218 L57.9735212,2.26680902 C57.9735212,1.22680902 57.3639343,0.732222556 56.6241682,0.732222556 L55.2748151,0.732222556 L55.2748151,5.69665865 L56.6241682,5.69665865 Z" id="Fill-29"></path>
        <path d="M67.561375,4.54779098 C67.561375,5.42827218 66.9923387,6.14962556 66.0086999,6.14962556 L63.968469,6.14962556 L63.968469,0.279490226 L65.8626037,0.279490226 C66.8055023,0.279490226 67.4232373,0.95021203 67.4232373,1.84730977 C67.4232373,2.42615188 67.1223283,2.92093383 66.6834712,3.13909925 C67.1628791,3.32344511 67.561375,3.86846767 67.561375,4.54779098 L67.561375,4.54779098 Z M66.9762321,1.84730977 C66.9762321,1.12634737 66.4638531,0.732046617 65.8626037,0.732046617 L64.4154742,0.732046617 L64.4154742,2.95436241 L65.8626037,2.95436241 C66.4638531,2.95436241 66.9762321,2.56885865 66.9762321,1.84730977 L66.9762321,1.84730977 Z M64.4154742,5.6966782 L66.0086999,5.6966782 C66.6508791,5.6966782 67.1143698,5.25233233 67.1143698,4.54779098 C67.1143698,3.84324962 66.6508791,3.39890376 66.0086999,3.39890376 L64.4154742,3.39890376 L64.4154742,5.6966782 Z" id="Fill-31"></path>
        <polygon id="Fill-33" points="71.1264829 6.14960602 70.6794777 6.14960602 70.6794777 3.70912481 68.7608989 0.279275188 69.2567923 0.279275188 70.9070543 3.23115489 72.5491683 0.279275188 73.0448722 0.279275188 71.1264829 3.70912481"></polygon>
        <path d="M11.6466925,6.88863158 L11.6466925,9.87354887 C11.6466925,12.5384511 9.47590348,14.706812 6.89373323,14.706812 L6.40636684,14.706812 L6.40636684,12.2997594 L6.87251044,12.2997594 C8.1885134,12.2997594 9.31805892,11.1942707 9.31805892,9.83679699 L9.31805892,6.88863158 L11.6466925,6.88863158 Z M9.31766099,5.08913835 C9.29321688,4.79121353 9.28071058,4.66082256 9.22462176,4.46083759 C8.93716654,3.43373985 8.01890155,2.68267218 6.93104367,2.68267218 L2.3296758,2.68267218 L2.3296758,12.2997398 L4.66475204,12.2997398 L4.66475204,14.7067925 L-9.47446338e-05,14.7067925 L-9.47446338e-05,0.279333835 L6.96193042,0.279333835 C9.31443967,0.279333835 11.2585996,2.04537895 11.5926691,4.37638647 C11.6250718,4.60217594 11.6464841,4.83598045 11.6464841,5.09089774 L9.31766099,5.08913835 Z" id="D"></path>
    </symbol>
</svg>