<?xml version="1.0" encoding="UTF-8"?>
<svg width="61px" height="13px" viewBox="0 0 61 13" version="1.1" xmlns="http://www.w3.org/2000/svg" xmlns:xlink="http://www.w3.org/1999/xlink">
    <!-- Generator: Sketch 44.1 (41455) - http://www.bohemiancoding.com/sketch -->
    <title>Barron's</title>
    <desc>Created with Sketch.</desc>
    <defs></defs>
    <g id="Pattern-Library-16-col" stroke="none" stroke-width="1" fill="none" fill-rule="evenodd">
        <g id="DJ-Pattern-Library---16-column" transform="translate(-761.000000, -496.000000)" fill="#FFFFFF">
            <g id="DJ-Mast-Head-Dropdown" transform="translate(120.000000, 337.000000)">
                <g id="News-and-Information" transform="translate(640.000000, 71.000000)">
                    <g id="Barron's" transform="translate(1.000000, 88.000000)">
                        <path d="M55.1632628,3.23947907 C55.1632628,1.93947907 56.1609372,1.39529302 57.2795419,1.39529302 C58.4888442,1.39529302 59.4865186,2.18133953 59.8493093,3.1487814 C59.9097744,3.26971163 59.9702395,3.57203721 60.1214023,3.57203721 C60.2725651,3.57203721 60.2423326,3.48133953 60.2121,3.3604093 L60.0004721,1.36506047 C60.0004721,1.21389767 59.9097744,1.15343256 59.8190767,1.15343256 C59.667914,1.15343256 59.6074488,1.39529302 59.3353558,1.36506047 C59.1539605,1.33482791 58.8214023,0.941804651 57.3702395,0.941804651 C55.767914,0.941804651 54.4074488,1.90924651 54.4074488,3.7232 C54.4074488,7.29064186 59.6074488,5.93017674 59.6376814,8.5604093 C59.6376814,10.0418047 58.7004721,10.8278512 57.3702395,10.8278512 C55.4655884,10.8278512 54.6190767,9.34645581 54.4376814,8.68133953 C54.3772163,8.37901395 54.3469837,8.22785116 54.1958209,8.25808372 C54.0446581,8.28831628 54.0748907,8.43947907 54.1353558,8.71157209 C54.1655884,8.65110698 54.3469837,9.25575814 54.3772163,10.4348279 C54.4376814,10.6766884 55.5865186,11.1906419 56.6144256,11.1906419 C59.7586116,11.1906419 60.5144256,9.46738605 60.5144256,8.28831628 C60.5144256,4.50924651 55.1632628,5.89994419 55.1632628,3.23947907" id="Fill-4"></path>
                        <path d="M53.2284093,0.00456511628 C53.047014,0.0650302326 52.7749209,0.306890698 52.6539907,0.367355814 C52.5330605,0.458053488 52.5330605,0.609216279 52.5935256,0.76037907 C52.9260837,1.39526279 53.2586419,2.45340233 52.4423628,3.75340233 C52.3214326,3.96503023 52.1098047,4.02549535 52.2005023,4.11619302 C52.3214326,4.2068907 52.6842233,3.96503023 52.8656186,3.78363488 C53.7725953,2.9068907 54.0749209,1.39526279 53.5609674,0.306890698 C53.4400372,0.0952627907 53.3795721,-0.0256674419 53.2284093,0.00456511628" id="Fill-1"></path>
                        <path d="M52.3214326,1.30456512 C52.3214326,1.21386744 52.2609674,1.18363488 52.2005023,1.18363488 C51.8679442,1.18363488 50.9609674,1.27433256 50.5074791,1.27433256 C50.0842233,1.27433256 49.8423628,1.21386744 49.419107,1.21386744 C49.3284093,1.21386744 49.2679442,1.2441 49.2679442,1.36503023 C49.2679442,1.75805349 50.719107,1.09293721 50.6586419,3.14875116 L50.6586419,9.07433256 C50.6586419,9.19526279 50.6586419,9.4068907 50.447014,9.07433256 L44.5516651,1.51619302 C44.4609674,1.42549535 44.3400372,1.18363488 44.219107,1.18363488 C44.0074791,1.18363488 43.3725953,1.2441 43.1609674,1.2441 C42.9493395,1.2441 42.7377116,1.18363488 42.5260837,1.18363488 C42.4656186,1.18363488 42.3144558,1.2441 42.3144558,1.33479767 C42.3749209,1.84875116 43.947014,1.2441 43.9772465,3.57200698 C43.9772465,3.57200698 44.0074791,8.86270465 43.947014,9.46735581 C43.7958512,10.8278209 43.463293,10.7975884 43.0400372,10.9185186 C42.647014,11.0092163 42.7981767,11.2510767 43.0400372,11.2208442 C43.1307349,11.2208442 43.8260837,11.1301465 44.2795721,11.1301465 C44.9446884,11.1301465 45.519107,11.1906116 45.8516651,11.1906116 C45.9725953,11.1906116 46.1539907,11.0092163 45.8516651,10.9185186 C45.4888744,10.8278209 44.5516651,10.9185186 44.4609674,9.28596047 C44.4005023,8.07665814 44.4912,3.99526279 44.4912,3.99526279 C44.4912,3.72316977 44.5214326,3.66270465 44.5818977,3.66270465 C44.6725953,3.66270465 44.763293,3.81386744 44.8539907,3.93479767 L50.5377116,11.1906116 C51.1423628,11.8859605 51.1725953,11.6743326 51.1725953,10.9789837 C51.1423628,8.71154186 51.2028279,2.42316977 51.2028279,2.42316977 C51.2330605,1.18363488 52.3214326,1.69758837 52.3214326,1.30456512" id="Fill-7"></path>
                        <path d="M38.1423326,10.9789837 C35.3307047,10.9789837 33.6981465,8.43944884 33.6981465,5.74875116 C33.667914,3.45107674 35.1190767,1.54642558 37.5074488,1.54642558 C40.2888442,1.54642558 41.9516349,4.02549535 41.9516349,6.65572791 C41.9516349,9.34642558 40.1981465,10.9789837 38.1423326,10.9789837 M37.8702395,0.941774419 C34.967914,0.941774419 32.6702395,3.1185186 32.6702395,6.14177442 C32.640007,9.22549535 34.5446581,11.4627047 37.6283791,11.4627047 C40.8027977,11.4627047 43.0097744,9.34642558 43.0097744,6.0813093 C43.0097744,3.08828605 40.7725651,0.941774419 37.8702395,0.941774419" id="Fill-9"></path>
                        <path d="M27.8935256,5.89991395 C27.2888744,5.89991395 26.5028279,5.96037907 26.5028279,5.68828605 L26.5028279,1.99991395 C26.5028279,1.45572791 26.8051535,1.51619302 27.2586419,1.51619302 C28.5284093,1.51619302 29.7981767,2.15107674 29.7981767,3.87433256 C29.7981767,5.62782093 28.4679442,5.89991395 27.8935256,5.89991395 M19.7609674,5.93014651 C19.1563163,5.93014651 18.219107,6.02084419 18.219107,5.74875116 L18.219107,2.03014651 C18.219107,1.48596047 18.4912,1.51619302 18.9749209,1.51619302 C20.335386,1.45572791 21.5749209,2.12084419 21.5749209,3.8441 C21.5749209,5.59758837 20.335386,5.93014651 19.7609674,5.93014651 M12.7772465,6.68596047 L10.0260837,6.68596047 C9.84468837,6.68596047 9.7539907,6.62549535 9.84468837,6.41386744 L11.4167814,2.66503023 C11.5074791,2.48363488 11.5679442,2.48363488 11.6284093,2.66503023 L12.9888744,6.38363488 C13.0493395,6.56503023 13.0795721,6.68596047 12.7772465,6.68596047 M33.547014,10.7371233 C31.7330605,9.28596047 29.4958512,6.56503023 29.163293,6.11154186 C29.163293,6.0813093 29.1935256,6.05107674 29.1935256,6.02084419 C30.1005023,5.62782093 30.947014,4.72084419 30.947014,3.60223953 C30.947014,0.851076744 27.9842233,1.00223953 27.7725953,1.00223953 C27.1074791,1.00223953 26.2307349,1.12316977 25.5051535,1.12316977 C24.8400372,1.12316977 24.5679442,1.06270465 24.3260837,1.06270465 C24.1749209,1.06270465 24.0539907,1.15340233 24.0539907,1.2441 C24.0539907,1.72782093 25.535386,1.00223953 25.5051535,2.5441 L25.5051535,9.79991395 C25.5051535,10.512193 25.1816651,10.7186814 24.9156186,10.8108907 C24.8772233,10.8114953 24.8267349,10.8160302 24.7493395,10.8278209 C24.447014,10.888286 23.8423628,10.6464256 23.2074791,9.6185186 L20.8493395,6.11154186 C20.819107,6.0813093 20.8795721,6.02084419 20.8795721,6.02084419 C21.7865488,5.62782093 22.7539907,4.69061163 22.7539907,3.57200698 C22.7539907,0.820844186 19.5795721,1.03247209 19.3679442,1.03247209 C18.6725953,1.03247209 17.9167814,1.15340233 17.1609674,1.15340233 C16.4958512,1.15340233 16.2842233,1.09293721 16.0423628,1.09293721 C15.8912,1.09293721 15.7702698,1.18363488 15.7702698,1.27433256 C15.7702698,1.66735581 17.1912,1.03247209 17.1912,2.5441 L17.1912,9.79991395 C17.1912,10.5974488 16.7921302,10.8099837 16.464107,10.8671233 C16.2373628,10.8329605 15.8878744,10.7434721 15.6493395,10.3138674 C15.347014,9.79991395 15.1656186,9.19526279 14.9539907,8.65107674 L12.1423628,1.12316977 C12.1121302,1.00223953 12.0214326,0.578983721 11.8702698,0.578983721 C11.6888744,0.578983721 11.6586419,0.820844186 10.8725953,2.66503023 L7.7284093,10.1324721 C7.39585116,10.9789837 6.67026977,10.7068907 6.67026977,11.0092163 C6.67026977,11.099914 6.7912,11.1906116 6.88189767,11.1906116 C7.21445581,11.1906116 7.60747907,11.099914 7.97026977,11.099914 C8.33306047,11.099914 8.69585116,11.099914 9.17957209,11.1906116 C9.51213023,11.2510767 9.57259535,10.9789837 9.30050233,10.888286 C8.93771163,10.7975884 8.36329302,10.6464256 8.4539907,9.9813093 C8.57492093,9.10456512 9.33073488,7.59293721 9.33073488,7.59293721 C9.45166512,7.29061163 9.78422326,7.1696814 10.0260837,7.1696814 L12.9284093,7.1696814 C13.2912,7.1696814 13.3818977,7.32084419 13.5028279,7.65340233 L13.8958512,8.89293721 C14.0167814,9.28596047 14.1377116,9.73944884 14.2586419,10.0417744 C14.5307349,10.6766581 13.835386,10.9185186 13.5935256,10.888286 C13.3818977,10.8580535 13.4423628,11.2510767 13.8051535,11.1906116 C14.1679442,11.1301465 14.5912,11.099914 14.9539907,11.099914 C15.438014,11.099914 15.8534093,11.1685419 16.3214093,11.1842628 C16.331386,11.1878907 16.3398512,11.1906116 16.3446884,11.1906116 C16.3664558,11.1906116 16.3848977,11.1878907 16.4063628,11.187286 C16.4365953,11.1878907 16.465014,11.1906116 16.4958512,11.1906116 C16.5064326,11.1906116 16.5200372,11.1866814 16.5345488,11.1806349 C16.9511535,11.1567512 17.2888512,11.0696814 17.735386,11.0696814 C18.8237581,11.0696814 19.5493395,11.1906116 19.6702698,11.1906116 C19.9725953,11.2510767 20.0330605,11.0092163 19.7307349,10.9487512 C19.247014,10.8278209 18.219107,10.8580535 18.1888744,9.67898372 L18.1888744,6.8068907 C18.1888744,6.65572791 18.0981767,6.41386744 18.5214326,6.41386744 C20.0028279,6.41386744 19.8818977,6.35340233 20.3656186,7.13944884 L21.9981767,9.64875116 C22.5121302,10.4650302 22.9958512,11.1906116 23.963293,11.1906116 C24.0467349,11.1906116 24.5029442,11.2048209 24.7689907,11.1546349 C25.1910372,11.1410302 25.6405953,11.099914 26.0493395,11.099914 C27.1074791,11.099914 27.7725953,11.1603791 27.8935256,11.1906116 C28.0749209,11.2510767 28.1656186,11.0092163 27.9539907,10.9185186 C27.6818977,10.8278209 26.5330605,10.9789837 26.5330605,9.79991395 L26.5330605,6.8068907 C26.5330605,6.65572791 26.4423628,6.41386744 26.8656186,6.41386744 C28.1656186,6.38363488 28.135386,6.29293721 28.347014,6.62549535 C28.347014,6.62549535 30.8260837,9.64875116 32.1563163,10.9185186 C33.335386,12.0371233 34.7865488,12.7929372 35.7237581,12.8534023 C36.9935256,12.9138674 37.6586419,12.7022395 37.6586419,12.5208442 C37.6586419,12.188286 36.5702698,13.1254953 33.547014,10.7371233" id="Fill-11"></path>
                        <path d="M3.97954186,10.9185186 C2.01442558,10.9487512 2.13535581,10.5254953 2.13535581,9.49758837 L2.13535581,6.23247209 L2.16558837,6.23247209 C2.16558837,6.11154186 2.10512326,5.89991395 3.16326279,5.89991395 C6.36791395,5.89991395 6.39814651,7.77433256 6.39814651,8.71154186 C6.39814651,9.55805349 6.12605349,10.888286 3.97954186,10.9185186 M2.98186744,1.57665814 C4.64465814,1.54642558 5.82372791,2.48363488 5.79349535,4.02549535 C5.76326279,4.87200698 5.21907674,5.59758837 3.40512326,5.56735581 C2.16558837,5.53712326 2.16558837,5.47665814 2.16558837,5.02316977 L2.16558837,2.63479767 C2.16558837,1.8185186 2.10512326,1.6068907 2.98186744,1.57665814 M7.60744884,8.19758837 C7.60744884,6.17200698 5.43070465,5.8696814 5.43070465,5.65805349 C5.43070465,5.56735581 6.79116977,5.02316977 6.79116977,3.57200698 C6.79116977,2.51386744 6.12605349,1.15340233 3.67721628,1.15340233 C2.52837907,1.09293721 2.2865186,1.21386744 1.74233256,1.21386744 C1.19814651,1.21386744 0.4121,1.06270465 0.140006977,1.06270465 C-0.011155814,1.06270465 -0.101853488,1.2441 0.200472093,1.36503023 C0.442332558,1.48596047 1.16791395,1.45572791 1.16791395,2.5441 L1.16791395,9.52782093 C1.16791395,10.6464256 0.684193023,10.7673558 0.533030233,10.8278209 C0.291169767,10.9185186 0.0190767442,10.8278209 0.0493093023,11.099914 C0.0493093023,11.2208442 0.381867442,11.2208442 0.472565116,11.2208442 C1.10744884,11.2208442 1.50047209,11.1906116 2.16558837,11.1906116 C2.6493093,11.1906116 3.79814651,11.3115419 4.3121,11.3115419 C7.03303023,11.3115419 7.60744884,9.25572791 7.60744884,8.19758837" id="Fill-13"></path>
                    </g>
                </g>
            </g>
        </g>
    </g>
</svg>