<?xml version="1.0" encoding="UTF-8"?>
<svg width="138px" height="12px" viewBox="0 0 138 12" version="1.1" xmlns="http://www.w3.org/2000/svg" xmlns:xlink="http://www.w3.org/1999/xlink">
    <!-- Generator: Sketch 44.1 (41455) - http://www.bohemiancoding.com/sketch -->
    <title>WSJ</title>
    <desc>Created with Sketch.</desc>
    <defs></defs>
    <g id="Pattern-Library-16-col" stroke="none" stroke-width="1" fill="none" fill-rule="evenodd">
        <g id="DJ-Pattern-Library---16-column" transform="translate(-761.000000, -443.000000)" fill="#FFFFFF">
            <g id="DJ-Mast-Head-Dropdown" transform="translate(120.000000, 337.000000)">
                <g id="News-and-Information" transform="translate(640.000000, 71.000000)">
                    <path d="M4.8111864,45.8326634 C4.8111864,46.3646491 4.96554496,46.4680142 5.30917652,46.5539221 L5.84116228,46.6738257 L5.84116228,46.9140921 L2.30469737,46.9140921 L2.30469737,46.6738257 L2.75123464,46.5709199 C3.0944068,46.4850121 3.24876536,46.3131963 3.24876536,45.8326634 L3.24876536,35.4290801 L2.87113816,35.4290801 C1.80670725,35.4290801 1.3776272,37.1633169 1.25772367,39 L1,39 L1,35.0859079 L7.05995176,35.0859079 L7.05995176,39 L6.80268749,39 C6.68232457,37.1633169 6.25324452,35.4290801 5.1888136,35.4290801 L4.8111864,35.4290801 L4.8111864,45.8326634 Z M7.43803836,46.6738257 L7.81520616,46.5709199 C8.15883772,46.4850121 8.31319628,46.3131963 8.31319628,45.8326634 L8.31319628,36.1503388 C8.31319628,35.6698059 8.15883772,35.5149879 7.81520616,35.4290801 L7.43803836,35.3261743 L7.43803836,35.0859079 L10.7852303,35.0859079 L10.7852303,35.3261743 L10.3906053,35.4290801 C10.0644309,35.5149879 9.87561732,35.6523487 9.87561732,36.1328816 L9.87561732,40.6483289 L12.4680142,40.6483289 L12.4680142,36.1328816 C12.4680142,35.6523487 12.2792006,35.5149879 11.9530263,35.4290801 L11.5579419,35.3261743 L11.5579419,35.0859079 L14.9055932,35.0859079 L14.9055932,35.3261743 L14.527966,35.4290801 C14.1847938,35.5149879 14.0299759,35.6698059 14.0299759,36.1503388 L14.0299759,45.8156656 C14.0299759,46.2961985 14.1847938,46.4850121 14.527966,46.5709199 L14.9055932,46.6738257 L14.9055932,46.9140921 L11.5579419,46.9140921 L11.5579419,46.6738257 L11.9530263,46.5879178 C12.2792006,46.5020099 12.4680142,46.3131963 12.4680142,45.8326634 L12.4680142,41.0429539 L9.87561732,41.0429539 L9.87561732,45.8326634 C9.87561732,46.3131963 10.0644309,46.5020099 10.3906053,46.5879178 L10.7852303,46.6738257 L10.7852303,46.9140921 L7.43803836,46.9140921 L7.43803836,46.6738257 Z M17.7212588,46.5709199 L18.9055932,46.5709199 C20.450557,46.5709199 20.7427357,44.8196853 20.9485471,43.0004594 L21.2062708,43.0004594 L21.2062708,46.9140921 L15.2832204,46.9140921 L15.2832204,46.6738257 L15.6608476,46.5709199 C16.0044792,46.4850121 16.1588377,46.3131963 16.1588377,45.8326634 L16.1588377,36.1673366 C16.1588377,35.6868037 16.0044792,35.5149879 15.6608476,35.4290801 L15.2832204,35.3261743 L15.2832204,35.0859079 L21.034455,35.0859079 L21.034455,39 L20.7767314,39 C20.5879178,37.1633169 20.2277478,35.4290801 18.9055932,35.4290801 L17.7212588,35.4290801 L17.7212588,40.5964167 L18.2707017,40.5794189 C19.0084989,40.527966 19.2832204,39.8926151 19.472034,38.3991042 L19.7297577,38.3991042 L19.7297577,43.1718158 L19.472034,43.1718158 C19.3176754,41.3006776 19.0259561,41.0084989 18.2532445,40.9570461 L17.7212588,40.9400482 L17.7212588,46.5709199 Z M24.8768807,36.6653267 C24.653612,35.6523487 24.5162513,35.4979901 24.1900769,35.4120822 L23.8639026,35.3261743 L23.8639026,35.0859079 L27.0741932,35.0859079 L27.0741932,35.3261743 L26.8164695,35.3776272 C26.2674859,35.4979901 26.3189388,36.0474331 26.4732973,36.7856897 L27.8294476,43.5149879 L28.8254278,38.1588377 L28.4647984,36.3216952 C28.3274377,35.6698059 28.2759848,35.4635351 27.9328127,35.3776272 L27.709544,35.3261743 L27.709544,35.0859079 L30.8509245,35.0859079 L30.8509245,35.3261743 L30.4732973,35.3950844 C29.9068566,35.4979901 29.9927644,36.1158838 30.1301252,36.7856897 L31.4348226,43.5149879 L32.7220627,37.1458597 C32.9627886,35.8241645 32.8424256,35.4979901 32.3274377,35.3950844 L31.9668083,35.3261743 L31.9668083,35.0859079 L34.3189388,35.0859079 L34.3189388,35.3261743 L33.9927644,35.4120822 C33.5806822,35.5149879 33.4777765,35.8411623 33.23751,36.9915011 L31.1426438,46.9830022 L30.696566,46.9830022 L29.0826921,39.1888136 L27.6236362,46.9830022 L27.0571954,46.9830022 L24.8768807,36.6653267 Z M41.6665901,46.5709199 L42.3533938,46.5709199 C43.8124498,46.5709199 44.2415298,44.8371425 44.4133456,43.0004594 L44.6710693,43.0004594 L44.6710693,46.9140921 L35.8983576,46.9140921 L35.8983576,46.6738257 L36.258987,46.605375 C36.9972436,46.4680142 36.9972436,46.2622028 36.8079706,45.2317675 L36.4817963,43.6868037 L34.3703916,43.6868037 L34.147123,44.8541403 C33.8898587,46.1758355 34.0272195,46.5020099 34.5422074,46.605375 L34.9023774,46.6738257 L34.9023774,46.9140921 L32.5162513,46.9140921 L32.5162513,46.6738257 L32.8079706,46.5879178 C33.2715057,46.450557 33.3918686,46.1758355 33.6321351,45.0089583 L35.7265419,35.0169978 L36.2415298,35.0169978 L38.4393017,45.3346733 C38.6621109,46.3995636 38.7650167,46.6223728 39.3833697,46.6223728 C39.9153555,46.6223728 40.1041691,46.3476513 40.1041691,45.8326634 L40.1041691,36.1503388 C40.1041691,35.6698059 39.9498105,35.5149879 39.6066383,35.4290801 L39.2290111,35.3261743 L39.2290111,35.0859079 L42.6281153,35.0859079 L42.6281153,35.3431722 L42.1641208,35.4465373 C41.8209487,35.5149879 41.6665901,35.6698059 41.6665901,36.1503388 L41.6665901,46.5709199 Z M34.4388423,43.2917193 L36.3958884,43.2917193 L35.4003675,38.4165614 L34.4388423,43.2917193 Z M47.4862754,46.5709199 L48.1730791,46.5709199 C49.6325945,46.5709199 50.0616745,44.8371425 50.2330309,43.0004594 L50.4907546,43.0004594 L50.4907546,46.9140921 L45.0486965,46.9140921 L45.0486965,46.6738257 L45.4263236,46.5709199 C45.7694958,46.4850121 45.9243138,46.3131963 45.9243138,45.8326634 L45.9243138,36.1503388 C45.9243138,35.6698059 45.7694958,35.5149879 45.4263236,35.4290801 L45.0486965,35.3261743 L45.0486965,35.0859079 L48.4478006,35.0859079 L48.4478006,35.3431722 L47.9842655,35.4465373 C47.640634,35.5149879 47.4862754,35.6698059 47.4862754,36.1503388 L47.4862754,46.5709199 Z M56.0885494,46.9830022 C55.0930286,46.9830022 54.749397,46.2961985 54.4232227,46.2961985 C54.2344091,46.2961985 54.0111405,46.3476513 53.8397841,46.9140921 L53.6335133,46.9140921 L53.6335133,43.0004594 L53.8912369,43.0004594 C54.0970484,45.2147697 54.9212128,46.605375 56.0715516,46.605375 C56.8438038,46.605375 57.376249,45.901114 57.376249,44.6313311 C57.376249,41.9530263 53.5476054,40.8026875 53.5476054,37.8326634 C53.5476054,36.2362467 54.3717698,35.0169978 55.8308258,35.0169978 C56.7753532,35.0169978 56.9811646,35.6353509 57.376249,35.6353509 C57.5990582,35.6353509 57.7538762,35.4635351 57.8397841,35.0859079 L58.0455955,35.0859079 L58.0455955,39 L57.7883312,39 C57.5820604,37.0259561 57.0500747,35.3950844 55.813828,35.3950844 C54.9556679,35.3950844 54.7838521,36.2532445 54.7838521,36.8371425 C54.7838521,39.3950844 58.6120363,40.2707017 58.6120363,43.8411623 C58.6120363,45.661307 57.6165154,46.9830022 56.0885494,46.9830022 L56.0885494,46.9830022 Z M62.4062249,45.8326634 C62.4062249,46.3131963 62.5605834,46.4850121 62.904215,46.5709199 L63.3502929,46.6738257 L63.3502929,46.9140921 L59.8997358,46.9140921 L59.8997358,46.6738257 L60.3462731,46.5709199 C60.6894453,46.4850121 60.8438038,46.3131963 60.8438038,45.8326634 L60.8438038,35.4290801 L60.4661766,35.4290801 C59.4017457,35.4290801 58.9726657,37.1633169 58.8523027,39 L58.5950385,39 L58.5950385,35.0859079 L64.6554496,35.0859079 L64.6554496,39 L64.397726,39 C64.277363,37.1633169 63.848283,35.4290801 62.7838521,35.4290801 L62.4062249,35.4290801 L62.4062249,45.8326634 Z M65.0326174,46.6738257 L65.410704,46.5709199 C65.7538762,46.4850121 65.9082348,46.3131963 65.9082348,45.8326634 L65.9082348,36.1503388 C65.9082348,35.6698059 65.7538762,35.5149879 65.410704,35.4290801 L65.0326174,35.3261743 L65.0326174,35.0859079 L68.3118181,35.0859079 C69.7713334,35.0859079 71.1274836,36.0129781 71.1274836,37.9525669 C71.1274836,39.4465373 70.4232227,40.493511 68.9986218,40.8711382 C70.5605834,41.1633169 70.5605834,41.9015734 70.7154014,43.8756173 L70.8183071,45.3861261 C70.86976,46.2277478 70.904215,46.4165614 71.1444815,46.4165614 C71.4022051,46.4165614 71.5051108,45.8326634 71.5051108,45.2662226 L71.5051108,44.9745033 L71.7968301,44.9745033 L71.7968301,45.3691283 C71.7968301,46.3131963 71.5905593,46.9830022 70.6124957,46.9830022 C69.6509705,46.9830022 69.2044332,46.4335592 69.1359825,44.4595153 L69.0500747,42.2622028 C69.0156196,41.2147697 68.7583553,41.0599518 68.2603652,41.0599518 L67.453658,41.0599518 L67.453658,45.8326634 C67.453658,46.3131963 67.6080165,46.5020099 67.9511887,46.5879178 L68.3288159,46.6738257 L68.3288159,46.9140921 L65.0326174,46.9140921 L65.0326174,46.6738257 Z M67.453658,40.7167796 L68.0200988,40.7167796 C68.981624,40.7167796 69.4621569,40.4595153 69.4621569,38.1758355 C69.4621569,35.8926151 68.826806,35.4290801 68.1400023,35.4290801 L67.453658,35.4290801 L67.453658,40.7167796 Z M74.3373148,46.5709199 L75.5221086,46.5709199 C77.0670725,46.5709199 77.3587918,44.8196853 77.5650626,43.0004594 L77.8227863,43.0004594 L77.8227863,46.9140921 L71.8997358,46.9140921 L71.8997358,46.6738257 L72.2778224,46.5709199 C72.6209946,46.4850121 72.7753532,46.3131963 72.7753532,45.8326634 L72.7753532,36.1673366 C72.7753532,35.6868037 72.6209946,35.5149879 72.2778224,35.4290801 L71.8997358,35.3261743 L71.8997358,35.0859079 L77.6509705,35.0859079 L77.6509705,39 L77.3932468,39 C77.2048926,37.1633169 76.8438038,35.4290801 75.5221086,35.4290801 L74.3373148,35.4290801 L74.3373148,40.5964167 L74.8867578,40.5794189 C75.6250144,40.527966 75.8997358,39.8926151 76.0890088,38.3991042 L76.3462731,38.3991042 L76.3462731,43.1718158 L76.0890088,43.1718158 C75.9341909,41.3006776 75.6424716,41.0084989 74.86976,40.9570461 L74.3373148,40.9400482 L74.3373148,46.5709199 Z M80.7069025,46.5709199 L81.8912369,46.5709199 C83.4362008,46.5709199 83.7283795,44.8196853 83.9341909,43.0004594 L84.1914552,43.0004594 L84.1914552,46.9140921 L78.2688641,46.9140921 L78.2688641,46.6738257 L78.6464913,46.5709199 C78.9896635,46.4850121 79.1444815,46.3131963 79.1444815,45.8326634 L79.1444815,36.1673366 C79.1444815,35.6868037 78.9896635,35.5149879 78.6464913,35.4290801 L78.2688641,35.3261743 L78.2688641,35.0859079 L84.0200988,35.0859079 L84.0200988,39 L83.7628345,39 C83.5735615,37.1633169 83.2133915,35.4290801 81.8912369,35.4290801 L80.7069025,35.4290801 L80.7069025,40.5964167 L81.2563455,40.5794189 C81.9941426,40.527966 82.2688641,39.8926151 82.4581371,38.3991042 L82.7154014,38.3991042 L82.7154014,43.1718158 L82.4581371,43.1718158 C82.3033192,41.3006776 82.0115999,41.0084989 81.2388883,40.9570461 L80.7069025,40.9400482 L80.7069025,46.5709199 Z M88.3807281,45.8326634 C88.3807281,46.3646491 88.5350867,46.4680142 88.8782589,46.5539221 L89.410704,46.6738257 L89.410704,46.9140921 L85.8742391,46.9140921 L85.8742391,46.6738257 L86.320317,46.5709199 C86.6639485,46.4850121 86.8187665,46.3131963 86.8187665,45.8326634 L86.8187665,35.4290801 L86.4406799,35.4290801 C85.376249,35.4290801 84.9471689,37.1633169 84.826806,39 L84.5695417,39 L84.5695417,35.0859079 L90.6294935,35.0859079 L90.6294935,39 L90.3722292,39 C90.2518663,37.1633169 89.8227863,35.4290801 88.7583553,35.4290801 L88.3807281,35.4290801 L88.3807281,45.8326634 Z M97.8071666,44.1847938 C97.8071666,46.021477 96.8796371,46.9830022 95.4550362,46.9830022 C94.1673366,46.9830022 93.4120822,45.9355691 93.4290801,44.7856897 C93.4465373,43.8930745 94.098886,43.4465373 94.6308717,43.5149879 C95.0084989,43.5664408 95.3861261,43.8411623 95.3346733,44.4420581 C95.2832204,45.3006776 94.3561502,45.2662226 94.3216952,45.7982083 C94.2876996,46.1243827 94.7167796,46.605375 95.2662226,46.605375 C96.2277478,46.605375 96.2277478,45.3861261 96.2277478,44.4595153 L96.2277478,36.1328816 C96.2277478,35.6523487 96.0729298,35.5149879 95.6953026,35.4290801 L95.2662226,35.3261743 L95.2662226,35.0859079 L98.6483289,35.0859079 L98.6483289,35.3261743 L98.2702423,35.4290801 C97.9270702,35.5149879 97.8071666,35.6698059 97.8071666,36.1503388 L97.8071666,44.1847938 Z M101.807167,47 C99.7986677,47 98.8196853,44.2876996 98.8196853,40.9915011 C98.8196853,37.7123004 99.7642127,35 101.807167,35 C103.832663,35 104.811186,37.7123004 104.811186,40.9915011 C104.811186,44.2876996 103.884116,47 101.807167,47 L101.807167,47 Z M101.807167,35.3950844 C100.948547,35.3950844 100.519467,36.0814287 100.519467,40.922591 C100.519467,45.9185713 100.914092,46.6223728 101.807167,46.6223728 C102.699782,46.6223728 103.111405,45.9185713 103.111405,40.8885954 C103.111405,36.0814287 102.699782,35.3950844 101.807167,35.3950844 L101.807167,35.3950844 Z M111.609854,46.6738257 L111.987022,46.5709199 C112.330653,46.4850121 112.485012,46.3131963 112.485012,45.8326634 L112.485012,36.1503388 C112.485012,35.583898 112.227748,35.3776272 111.626852,35.3776272 C110.871598,35.3776272 110.682784,35.7212588 110.682784,36.6997818 L110.682784,44.1503388 C110.682784,46.0044792 110.029976,47 108.433559,47 C106.78523,47 105.824164,46.0044792 105.824164,44.2017917 L105.824164,36.1503388 C105.824164,35.6698059 105.703802,35.5149879 105.360629,35.4290801 L104.983002,35.3261743 L104.983002,35.0859079 L108.399104,35.0859079 L108.399104,35.3261743 L107.935569,35.4290801 C107.557942,35.5149879 107.403583,35.6523487 107.403583,36.1328816 L107.403583,44.3221546 C107.403583,45.9870219 107.884116,46.4165614 108.759734,46.4165614 C109.789709,46.4165614 110.219249,45.8326634 110.219249,44.1503388 L110.219249,37.3176754 C110.219249,35.8756173 110.201792,35.5324452 109.583898,35.3950844 L109.257724,35.3261743 L109.257724,35.0859079 L114.888595,35.0859079 C116.347651,35.0859079 117.704261,36.0129781 117.704261,37.9525669 C117.704261,39.4465373 117,40.493511 115.575399,40.8711382 C117.137361,41.1633169 117.137361,41.9015734 117.292179,43.8756173 L117.395084,45.3861261 C117.446537,46.2277478 117.480992,46.4165614 117.721259,46.4165614 C117.978523,46.4165614 118.081888,45.8326634 118.081888,45.2662226 L118.081888,44.9745033 L118.373607,44.9745033 L118.373607,45.3691283 C118.373607,46.3131963 118.167337,46.9830022 117.189273,46.9830022 C116.227748,46.9830022 115.781211,46.4335592 115.71276,44.4595153 L115.626852,42.2622028 C115.592397,41.2147697 115.335133,41.0599518 114.837143,41.0599518 L114.029976,41.0599518 L114.029976,45.8326634 C114.029976,46.3131963 114.184334,46.5020099 114.527966,46.5879178 L114.906053,46.6738257 L114.906053,46.9140921 L111.609854,46.9140921 L111.609854,46.6738257 Z M114.029976,40.7167796 L114.596876,40.7167796 C115.557942,40.7167796 116.038475,40.4595153 116.038475,38.1758355 C116.038475,35.8926151 115.403583,35.4290801 114.71678,35.4290801 L114.029976,35.4290801 L114.029976,40.7167796 Z M118.682784,35.3950844 L118.442518,35.3261743 L118.442518,35.0859079 L120.691283,35.0859079 L123.764213,42.8796371 L123.764213,37.2662226 C123.764213,35.9955208 123.798208,35.549443 122.888595,35.3950844 L122.596876,35.3261743 L122.596876,35.0859079 L125.137361,35.0859079 L125.137361,35.3261743 L124.897094,35.3950844 C124.159297,35.5664408 124.21075,36.1673366 124.21075,37.3691283 L124.21075,46.9140921 L123.661307,46.9140921 L119.815666,37.4550362 L119.815666,44.7337774 C119.815666,46.1243827 119.815666,46.5194671 120.914552,46.6738257 L120.914552,46.9140921 L118.442518,46.9140921 L118.442518,46.6738257 L118.751235,46.6223728 C119.386586,46.5020099 119.369128,45.8841162 119.369128,44.6313311 L119.369128,36.4250603 C119.077409,35.8241645 118.957505,35.4979901 118.682784,35.3950844 L118.682784,35.3950844 Z M133.789709,46.5709199 L134.476513,46.5709199 C135.936028,46.5709199 136.365109,44.8371425 136.536924,43.0004594 L136.794189,43.0004594 L136.794189,46.9140921 L128.038934,46.9140921 L128.038934,46.6738257 L128.399104,46.605375 C129.13782,46.4680142 129.154818,46.2622028 128.948547,45.2317675 L128.622832,43.6868037 L126.510968,43.6868037 L126.2877,44.8541403 C126.029976,46.1758355 126.167796,46.5020099 126.682784,46.605375 L127.043413,46.6738257 L127.043413,46.9140921 L124.656828,46.9140921 L124.656828,46.6738257 L124.948547,46.5879178 C125.412542,46.450557 125.532445,46.1758355 125.772712,45.0089583 L127.867118,35.0169978 L128.382106,35.0169978 L130.579878,45.3346733 C130.803147,46.3995636 130.888595,46.6223728 131.506489,46.6223728 C132.038934,46.6223728 132.227748,46.3476513 132.227748,45.8326634 L132.227748,36.1503388 C132.227748,35.6698059 132.073389,35.5149879 131.729758,35.4290801 L131.35213,35.3261743 L131.35213,35.0859079 L134.751235,35.0859079 L134.751235,35.3431722 L134.2877,35.4465373 C133.944527,35.5149879 133.789709,35.6698059 133.789709,36.1503388 L133.789709,46.5709199 Z M126.579419,43.2917193 L128.536465,43.2917193 L127.541403,38.4165614 L126.579419,43.2917193 Z M138.820145,46.1588377 C138.820145,46.6223728 138.476973,46.9660044 138.06489,46.9660044 C137.652808,46.9660044 137.309177,46.6223728 137.309177,46.1588377 C137.309177,45.6953026 137.652808,45.3521305 138.06489,45.3521305 C138.476973,45.3521305 138.820145,45.6953026 138.820145,46.1588377 L138.820145,46.1588377 Z" id="WSJ"></path>
                </g>
            </g>
        </g>
    </g>
</svg>