<svg xmlns="http://www.w3.org/2000/svg" xmlns:xlink="http://www.w3.org/1999/xlink" width="200" height="24.2" viewBox="0 0 200 24.2"><style>.st0{clip-path:url(#SVGID_2_);fill:#FFFFFF;} .st1{fill:#FFFFFF;} .st2{clip-path:url(#SVGID_4_);fill:#FFFFFF;} .st3{clip-path:url(#SVGID_6_);fill:#FFFFFF;} .st4{fill:#00A2D4;} .st5{clip-path:url(#SVGID_8_);fill:#FFFFFF;} .st6{clip-path:url(#SVGID_10_);fill:#FFFFFF;} .st7{clip-path:url(#SVGID_12_);fill:#FFFFFF;}</style><defs><path id="SVGID_1_" d="M0 0h200v24.2H0z"/></defs><clipPath id="SVGID_2_"><use xlink:href="#SVGID_1_" overflow="visible"/></clipPath><path class="st0" d="M74 10.1c0-1.8-1.4-2.8-3.2-2.8h-3.2V17h3.2c1.8 0 3.2-1 3.2-2.8v-4.1zm-9.6 9.8V4.3h6.4c4.1 0 6.4 2.3 6.4 5.8v4.1c0 3.5-2.3 5.8-6.4 5.8h-6.4zM90.5 9.8C90.5 8 89.1 7 87.3 7c-1.8 0-3.2 1-3.2 2.8v4.5c0 1.8 1.4 2.8 3.2 2.8 1.8 0 3.2-1 3.2-2.8V9.8zm-3.2 10.4c-4.1 0-6.4-2.3-6.4-5.8V9.8c0-3.5 2.3-5.8 6.4-5.8 4.1 0 6.4 2.3 6.4 5.8v4.5c.1 3.5-2.3 5.9-6.4 5.9"/><path class="st1" d="M106.3 11.2l-2.8 8.7H100L96.8 4.3h3.3l2 10.6 3.1-10.6h2.1l3.1 10.6 2-10.6h3.3l-3.1 15.6H109"/><defs><path id="SVGID_3_" d="M0 0h200v24.2H0z"/></defs><clipPath id="SVGID_4_"><use xlink:href="#SVGID_3_" overflow="visible"/></clipPath><path class="st2" d="M132.9 4.3h3.3v11.2c0 3.1-1.9 4.7-5.1 4.7s-5.1-1.6-5.1-4.7h3.3c.1 1.1.7 1.7 1.8 1.7 1.3 0 1.8-.8 1.8-1.8V4.3zM149.7 9.8c0-1.8-1.4-2.8-3.2-2.8-1.8 0-3.2 1-3.2 2.8v4.5c0 1.8 1.4 2.8 3.2 2.8 1.8 0 3.2-1 3.2-2.8V9.8zm-3.1 10.4c-4.1 0-6.4-2.3-6.4-5.8V9.8c0-3.5 2.3-5.8 6.4-5.8 4.1 0 6.4 2.3 6.4 5.8v4.5c0 3.5-2.3 5.9-6.4 5.9"/><path class="st1" d="M169.9 19.9h-3.3l-6.3-10.1v10.1H157V4.3h3.3l6.3 10.1V4.3h3.3M177.4 10.5h6.4v3h-6.4V17h7.2v2.9h-10.4V4.3h10.4v2.9h-7.2"/><g><defs><path id="SVGID_5_" d="M0 0h200v24.2H0z"/></defs><clipPath id="SVGID_6_"><use xlink:href="#SVGID_5_" overflow="visible"/></clipPath><path class="st3" d="M188 15h3.4c.2 1.3 1.3 2.2 2.9 2.2 1.4 0 2.4-.5 2.4-1.6 0-.9-.6-1.4-1.8-1.7l-2.9-.7c-2.6-.6-3.9-2.3-3.9-4.6 0-3.1 2.7-4.6 5.7-4.6 3.4 0 5.5 1.8 5.9 4.5h-3.4c-.3-1.1-1.5-1.5-2.6-1.5-1.4 0-2.3.5-2.3 1.6 0 .9.8 1.3 1.7 1.5l2.8.7c2.6.6 4 2.1 4 4.8 0 2.8-2 4.5-5.7 4.5-3.6.1-6-2-6.2-5.1M16.1 8.1c-.1-.5-.1-.8-.2-1.1-.5-1.7-2.1-3-4-3H4v16.1h4v4H0V0h12c4.1 0 7.4 3 8 6.9.1.4.1.8.1 1.2h-4z"/><path class="st3" d="M20.1 11.1v5c0 4.5-3.7 8.1-8.2 8.1h-.8v-4h.8c2.3 0 4.2-1.9 4.2-4.1v-4.9h4z"/></g><path class="st4" d="M42.3 0h.8v24.2h-.8z"/></svg>