<?xml version="1.0" encoding="UTF-8"?>
<svg width="177px" height="14px" viewBox="0 0 177 14" version="1.1" xmlns="http://www.w3.org/2000/svg" xmlns:xlink="http://www.w3.org/1999/xlink">
    <!-- Generator: Sketch 46 (44423) - http://www.bohemiancoding.com/sketch -->
    <title>Powered By Logo</title>
    <desc>Created with Sketch.</desc>
    <defs></defs>
    <g id="Page-1" stroke="none" stroke-width="1" fill="none" fill-rule="evenodd">
        <g id="Factiva---Login-(Language-dropdown)" transform="translate(-631.000000, -791.000000)">
            <g id="Group">
                <g id="FOOTER" transform="translate(0.000000, 760.000000)">
                    <g id="Powered-By-Logo" transform="translate(631.000000, 31.000000)">
                        <path d="M9.32795859,4.66729899 C9.30348771,4.37820113 9.29096772,4.2516734 9.23481748,4.05761361 C8.94704751,3.06094686 8.02777703,2.33213192 6.93872795,2.33213192 L2.33232162,2.33213192 L2.33232162,11.6642638 L4.66995474,11.6642638 L4.66995474,14 L0,14 L0,0 L6.96964852,0 C9.32473375,0 11.2710225,1.7137205 11.6054578,3.97566462 C11.637896,4.19476437 11.6593317,4.42164169 11.6593317,4.66900626 L9.32795859,4.66729899 Z M11.6595404,6.41345763 L11.6595404,9.3099374 C11.6595404,11.8958836 9.48637435,14 6.90137666,14 L6.4134766,14 L6.4134766,11.6642638 L6.88013062,11.6642638 C8.19757459,11.6642638 9.32835696,10.5915287 9.32835696,9.27427441 L9.32835696,6.41345763 L11.6595404,6.41345763 Z" id="D-logo" fill="#02A3D5"></path>
                        <g id="Dow-Jones" transform="translate(101.500000, 3.500000)" fill="#0C2A31">
                            <path d="M0,8.70290909 L0,0 L3.57127273,0 C5.84436364,0 7.14381818,1.29309091 7.14381818,3.22 L7.14381818,5.48290909 C7.14381818,7.40981818 5.84436364,8.70290909 3.57127273,8.70290909 L0,8.70290909 Z M5.33018182,3.22 C5.33018182,2.21327273 4.56018182,1.65327273 3.57127273,1.65327273 L1.81363636,1.65327273 L1.81363636,7.04963636 L3.57127273,7.04963636 C4.56018182,7.04963636 5.33018182,6.48963636 5.33018182,5.48290909 L5.33018182,3.22 Z" id="logo_D"></path>
                            <path d="M12.9046061,8.95109091 C10.6315152,8.95109091 9.33333333,7.658 9.33333333,5.73109091 L9.33333333,3.22 C9.33333333,1.29309091 10.6315152,0 12.9046061,0 C15.177697,0 16.4758788,1.29309091 16.4758788,3.22 L16.4758788,5.73109091 C16.4758788,7.658 15.177697,8.95109091 12.9046061,8.95109091 L12.9046061,8.95109091 Z M14.6635152,3.22 C14.6635152,2.212 13.8922424,1.65327273 12.9046061,1.65327273 C11.9169697,1.65327273 11.145697,2.212 11.145697,3.22 L11.145697,5.73109091 C11.145697,6.73781818 11.9169697,7.29781818 12.9046061,7.29781818 C13.8922424,7.29781818 14.6635152,6.73781818 14.6635152,5.73109091 L14.6635152,3.22 Z" id="logo_O"></path>
                            <polygon id="logo_W" points="22.7410909 3.82836364 21.2061818 8.70290909 19.2449091 8.70290909 17.5 0 19.3250909 0 20.4221818 5.89272727 22.1785455 0 23.3036364 0 25.06 5.89272727 26.1558182 0 27.9821818 0 26.2372727 8.70290909 24.276 8.70290909"></polygon>
                            <path d="M37.6489697,0 L39.4613333,0 L39.4613333,6.216 C39.4613333,7.94436364 38.4202424,8.82763636 36.6473333,8.82763636 C34.875697,8.82763636 33.8333333,7.94436364 33.8333333,6.216 L35.6609697,6.216 C35.7144242,6.83836364 36.065697,7.17436364 36.6473333,7.17436364 C37.3511515,7.17436364 37.6489697,6.73909091 37.6489697,6.16636364 L37.6489697,0 Z" id="logo_J"></path>
                            <path d="M45.5712727,8.95109091 C43.2981818,8.95109091 42,7.658 42,5.73109091 L42,3.22 C42,1.29309091 43.2981818,0 45.5712727,0 C47.8443636,0 49.1425455,1.29309091 49.1425455,3.22 L49.1425455,5.73109091 C49.1425455,7.658 47.8443636,8.95109091 45.5712727,8.95109091 L45.5712727,8.95109091 Z M47.3301818,3.22 C47.3301818,2.212 46.5589091,1.65327273 45.5712727,1.65327273 C44.5836364,1.65327273 43.8123636,2.212 43.8123636,3.22 L43.8123636,5.73109091 C43.8123636,6.73781818 44.5836364,7.29781818 45.5712727,7.29781818 C46.5589091,7.29781818 47.3301818,6.73781818 47.3301818,5.73109091 L47.3301818,3.22 Z" id="logo_O"></path>
                            <polygon id="logo_N" points="58.4771515 8.70290909 56.6647879 8.70290909 53.1469697 3.09654545 53.1469697 8.70290909 51.3333333 8.70290909 51.3333333 0 53.1469697 0 56.6647879 5.60763636 56.6647879 0 58.4771515 0"></polygon>
                            <polygon id="logo_E" points="62.480303 3.48090909 66.0121212 3.48090909 66.0121212 5.13418182 62.480303 5.13418182 62.480303 7.04836364 66.4308485 7.04836364 66.4308485 8.70290909 60.6666667 8.70290909 60.6666667 0 66.4308485 0 66.4308485 1.65327273 62.480303 1.65327273"></polygon>
                            <path d="M68.8333333,6.07981818 L70.7004242,6.07981818 C70.8086061,6.81290909 71.4309697,7.29781818 72.3371515,7.29781818 C73.1351515,7.29781818 73.6900606,7.02418182 73.6900606,6.42727273 C73.6900606,5.94363636 73.3795152,5.66872727 72.7164242,5.50836364 L71.1204242,5.11 C69.6720606,4.74981818 68.9542424,3.81690909 68.9542424,2.53654545 C68.9542424,0.795454545 70.4433333,0 72.0940606,0 C73.9878788,0 75.1651515,1.01945455 75.3675152,2.49963636 L73.5004242,2.49963636 C73.3387879,1.91545455 72.675697,1.65454545 72.0673333,1.65454545 C71.3087879,1.65454545 70.7678788,1.92690909 70.7678788,2.53654545 C70.7678788,3.04563636 71.2006061,3.26963636 71.7147879,3.39436364 L73.2573333,3.78 C74.7184242,4.14018182 75.5024242,4.96109091 75.5024242,6.42727273 C75.5024242,7.994 74.3938788,8.95109091 72.3371515,8.95109091 C70.267697,8.95109091 68.9275152,7.80818182 68.8333333,6.07981818" id="logo_S"></path>
                        </g>
                        <g id="Powered-By" transform="translate(23.333333, 3.500000)" fill="#0C2A31">
                            <path d="M0.684727273,8.71181818 L0,8.71181818 L0,0 L2.81272727,0 C4.19363636,0 5.35181818,0.859090909 5.35181818,2.52636364 C5.35181818,4.19363636 4.19363636,5.06545455 2.81272727,5.06545455 L0.684727273,5.06545455 L0.684727273,8.71181818 Z M4.66709091,2.52636364 C4.66709091,1.30709091 3.808,0.672 2.81272727,0.672 L0.684727273,0.672 L0.684727273,4.39345455 L2.81272727,4.39345455 C3.808,4.39345455 4.66709091,3.74563636 4.66709091,2.52636364 L4.66709091,2.52636364 Z" id="Fill-22"></path>
                            <path d="M10.1736869,8.96 C8.5929596,8.96 7.42332323,7.84 7.42332323,6.00981818 L7.42332323,2.94890909 C7.42332323,1.12 8.5929596,0 10.1736869,0 C11.7544141,0 12.9240505,1.12 12.9240505,2.94890909 L12.9240505,6.00981818 C12.9240505,7.84 11.7544141,8.96 10.1736869,8.96 M10.1736869,8.288 C11.3064141,8.288 12.2393232,7.55363636 12.2393232,6.00981818 L12.2393232,2.94890909 C12.2393232,1.40636364 11.3064141,0.672 10.1736869,0.672 C9.0409596,0.672 8.10805051,1.40636364 8.10805051,2.94890909 L8.10805051,6.00981818 C8.10805051,7.55363636 9.0409596,8.288 10.1736869,8.288" id="Fill-24"></path>
                            <polygon id="Fill-26" points="17.2610101 8.71181818 16.6017374 8.71181818 14.9955556 0 15.6675556 0 17.0115556 7.35509091 18.7424646 1.24472727 19.3648283 1.24472727 21.0944646 7.35509091 22.4384646 0 23.1104646 0 21.5042828 8.71181818 20.8450101 8.71181818 19.0530101 2.37745455"></polygon>
                            <polygon id="Fill-28" points="29.9979697 8.03981818 29.9979697 8.71181818 25.1819697 8.71181818 25.1819697 0 29.9979697 0 29.9979697 0.672 25.8654242 0.672 25.8654242 3.97090909 29.9979697 3.97090909 29.9979697 4.63018182 25.8654242 4.63018182 25.8654242 8.03981818"></polygon>
                            <path d="M32.754202,8.71181818 L32.0694747,8.71181818 L32.0694747,0 L35.0311111,0 C36.4756566,0 37.4212929,0.995272727 37.4212929,2.32781818 C37.4212929,3.57254545 36.5876566,4.50545455 35.2932929,4.61745455 L37.7076566,8.71181818 L36.9236566,8.71181818 L34.5207475,4.63018182 L32.754202,4.63018182 L32.754202,8.71181818 Z M36.7365657,2.32781818 C36.7365657,1.25745455 35.9525657,0.672 35.0311111,0.672 L32.754202,0.672 L32.754202,3.97090909 L35.0311111,3.97090909 C35.9525657,3.97090909 36.7365657,3.39818182 36.7365657,2.32781818 L36.7365657,2.32781818 Z" id="Fill-30"></path>
                            <polygon id="Fill-32" points="44.5951616 8.03981818 44.5951616 8.71181818 39.7791616 8.71181818 39.7791616 0 44.5951616 0 44.5951616 0.672 40.4626162 0.672 40.4626162 3.97090909 44.5951616 3.97090909 44.5951616 4.63018182 40.4626162 4.63018182 40.4626162 8.03981818"></polygon>
                            <path d="M49.4170303,8.71181818 L46.6666667,8.71181818 L46.6666667,0 L49.4170303,0 C50.9977576,0 52.1673939,1.12 52.1673939,2.95018182 L52.1673939,5.76163636 C52.1673939,7.59181818 50.9977576,8.71181818 49.4170303,8.71181818 L49.4170303,8.71181818 Z M49.4170303,8.03981818 C50.5497576,8.03981818 51.4826667,7.30545455 51.4826667,5.76163636 L51.4826667,2.95018182 C51.4826667,1.40636364 50.5497576,0.672 49.4170303,0.672 L47.3513939,0.672 L47.3513939,8.03981818 L49.4170303,8.03981818 Z" id="Fill-34"></path>
                            <path d="M65.0007273,6.33436364 C65.0007273,7.64145455 64.1301818,8.71181818 62.6232727,8.71181818 L59.5,8.71181818 L59.5,0 L62.3992727,0 C63.8438182,0 64.7894545,0.995272727 64.7894545,2.32654545 C64.7894545,3.18563636 64.3287273,3.92 63.6567273,4.24327273 C64.3910909,4.51818182 65.0007273,5.32636364 65.0007273,6.33436364 L65.0007273,6.33436364 Z M64.1047273,2.32654545 C64.1047273,1.25618182 63.3207273,0.672 62.3992727,0.672 L60.1847273,0.672 L60.1847273,3.96963636 L62.3992727,3.96963636 C63.3207273,3.96963636 64.1047273,3.39690909 64.1047273,2.32654545 L64.1047273,2.32654545 Z M60.1847273,8.03981818 L62.6232727,8.03981818 C63.6070909,8.03981818 64.316,7.38054545 64.316,6.33436364 C64.316,5.28818182 63.6070909,4.62890909 62.6232727,4.62890909 L60.1847273,4.62890909 L60.1847273,8.03981818 Z" id="Fill-36"></path>
                            <polygon id="Fill-38" points="68.9555152 8.71181818 68.2707879 8.71181818 68.2707879 5.08963636 65.3333333 0 66.0931515 0 68.6195152 4.38072727 71.1331515 0 71.8929697 0 68.9555152 5.08963636"></polygon>
                        </g>
                    </g>
                </g>
            </g>
        </g>
    </g>
</svg>