<?xml version="1.0" encoding="UTF-8"?>
<svg width="117px" height="23px" viewBox="0 0 117 23" version="1.1" xmlns="http://www.w3.org/2000/svg" xmlns:xlink="http://www.w3.org/1999/xlink">
    <!-- Generator: Sketch 47 (45396) - http://www.bohemiancoding.com/sketch -->
    <title>Powered By - Stacked</title>
    <desc>Created with Sketch.</desc>
    <defs>
        <polygon id="path-1" points="4.1088935e-20 0.272520215 4.1088935e-20 21.7076016 18.6343745 21.7076016 18.6343745 0.272520215 0 0.272520215"></polygon>
    </defs>
    <g id="Prototype" stroke="none" stroke-width="1" fill="none" fill-rule="evenodd">
        <g id="Trade_Compliance-Search_2searches" transform="translate(-21.000000, -1356.000000)">
            <g id="Footer" transform="translate(0.000000, 1277.000000)">
                <g id="Powered-By---Stacked" transform="translate(21.000000, 79.571429)">
                    <path d="M31.0625056,21.7898834 L31.0625056,12.2971298 L35.1287937,12.2971298 C37.7170655,12.2971298 39.1956882,13.7072179 39.1956882,15.8094254 L39.1956882,18.2775878 C39.1956882,20.3795049 37.7170655,21.7898834 35.1287937,21.7898834 L31.0625056,21.7898834 Z M37.1319227,15.8094254 C37.1319227,14.7112703 36.2539052,14.1004742 35.1287937,14.1004742 L33.1268775,14.1004742 L33.1268775,19.9862486 L35.1287937,19.9862486 C36.2539052,19.9862486 37.1319227,19.3760333 37.1319227,18.2775878 L37.1319227,15.8094254 Z" id="Fill-1" fill="#8D9CA9"></path>
                    <path d="M45.5753825,21.9253157 C42.9877171,21.9253157 41.5090944,20.5152277 41.5090944,18.4130202 L41.5090944,15.6738769 C41.5090944,13.5716693 42.9877171,12.1612908 45.5753825,12.1612908 C48.1633511,12.1612908 49.6416706,13.5716693 49.6416706,15.6738769 L49.6416706,18.4130202 C49.6416706,20.5152277 48.1633511,21.9253157 45.5753825,21.9253157 L45.5753825,21.9253157 Z M47.5782083,15.6738769 C47.5782083,14.5751409 46.7001908,13.9649256 45.5753825,13.9649256 C44.4508774,13.9649256 43.5728599,14.5751409 43.5728599,15.6738769 L43.5728599,18.4130202 C43.5728599,19.5114657 44.4508774,20.1219714 45.5753825,20.1219714 C46.7001908,20.1219714 47.5782083,19.5114657 47.5782083,18.4130202 L47.5782083,15.6738769 Z" id="Fill-3" fill="#8D9CA9"></path>
                    <polygon id="Fill-5" fill="#8D9CA9" points="57.5471325 16.473285 55.7995867 21.7900867 53.5660388 21.7900867 51.5789785 12.2973331 53.6585095 12.2973331 54.9061069 18.7247789 56.9074167 12.2973331 58.1874546 12.2973331 60.1881581 18.7247789 61.4357554 12.2973331 63.5152865 12.2973331 61.5282262 21.7900867 59.2946783 21.7900867"></polygon>
                    <path d="M74.4008536,12.2971298 L76.4649223,12.2971298 L76.4649223,19.0777511 C76.4649223,20.9624187 75.2788711,21.9255191 73.2608862,21.9255191 C71.2432045,21.9255191 70.0568501,20.9624187 70.0568501,19.0777511 L72.1363811,19.0777511 C72.197624,19.7556389 72.5981286,20.1218843 73.2608862,20.1218843 C74.0618952,20.1218843 74.4008536,19.6473047 74.4008536,19.0231483 L74.4008536,12.2971298 Z" id="Fill-7" fill="#8D9CA9"></path>
                    <path d="M83.0464152,21.9253157 C80.4587497,21.9253157 78.9801271,20.5152277 78.9801271,18.4130202 L78.9801271,15.6738769 C78.9801271,13.5716693 80.4587497,12.1612908 83.0464152,12.1612908 C85.6343838,12.1612908 87.1127032,13.5716693 87.1127032,15.6738769 L87.1127032,18.4130202 C87.1127032,20.5152277 85.6343838,21.9253157 83.0464152,21.9253157 L83.0464152,21.9253157 Z M85.0492409,15.6738769 C85.0492409,14.5751409 84.1712234,13.9649256 83.0464152,13.9649256 C81.9219101,13.9649256 81.0438926,14.5751409 81.0438926,15.6738769 L81.0438926,18.4130202 C81.0438926,19.5114657 81.9219101,20.1219714 83.0464152,20.1219714 C84.1712234,20.1219714 85.0492409,19.5114657 85.0492409,18.4130202 L85.0492409,15.6738769 Z" id="Fill-9" fill="#8D9CA9"></path>
                    <polygon id="Fill-11" fill="#8D9CA9" points="97.7670632 21.7898834 95.7029945 21.7898834 91.6982526 15.6737897 91.6982526 21.7898834 89.6338807 21.7898834 89.6338807 12.2971298 91.6982526 12.2971298 95.7029945 18.4132235 95.7029945 12.2971298 97.7670632 12.2971298"></polygon>
                    <polygon id="Fill-13" fill="#8D9CA9" points="102.565053 16.0942022 106.58647 16.0942022 106.58647 17.897837 102.565053 17.897837 102.565053 19.9863938 107.063073 19.9863938 107.063073 21.7900286 100.500681 21.7900286 100.500681 12.297275 107.063073 12.297275 107.063073 14.1006194 102.565053 14.1006194"></polygon>
                    <path d="M109.232195,18.7928871 L111.357506,18.7928871 C111.480902,19.5930504 112.189743,20.1219423 113.221778,20.1219423 C114.13072,20.1219423 114.761946,19.8236601 114.761946,19.1727832 C114.761946,18.6436008 114.407526,18.3450281 113.652904,18.1687307 L111.835322,17.7351032 C110.187221,17.341847 109.370749,16.3247247 109.370749,14.9279969 C109.370749,13.0290977 111.065238,12.1612618 112.944365,12.1612618 C115.101208,12.1612618 116.441276,13.2736485 116.672301,14.8870448 L114.546383,14.8870448 C114.361745,14.250109 113.607123,13.9648966 112.913744,13.9648966 C112.051189,13.9648966 111.434818,14.2634693 111.434818,14.9279969 C111.434818,15.4838998 111.928096,15.7278697 112.513239,15.8637958 L114.269274,16.2840631 C115.932838,16.6773194 116.826015,17.5724566 116.826015,19.1727832 C116.826015,20.8811535 115.563259,21.9252867 113.221778,21.9252867 C110.864834,21.9252867 109.339825,20.6775548 109.232195,18.7928871" id="Fill-15" fill="#8D9CA9"></path>
                    <path d="M31.7777442,9.13655751 L31.062536,9.13655751 L31.062536,0.414923136 L34.0015903,0.414923136 C35.4456501,0.414923136 36.6550464,1.27433624 36.6550464,2.94407802 C36.6550464,4.61381981 35.4456501,5.48601229 34.0015903,5.48601229 L31.7777442,5.48601229 L31.7777442,9.13655751 Z M35.9395349,2.94407802 C35.9395349,1.72306664 35.0424169,1.08787351 34.0015903,1.08787351 L31.7777442,1.08787351 L31.7777442,4.81306191 L34.0015903,4.81306191 C35.0424169,4.81306191 35.9395349,4.16537985 35.9395349,2.94407802 L35.9395349,2.94407802 Z" id="Fill-17" fill="#8D9CA9"></path>
                    <path d="M42.4670612,9.26115643 C40.8153212,9.26115643 39.5925848,8.14005654 39.5925848,6.30824902 L39.5925848,3.24323162 C39.5925848,1.41171454 40.8153212,0.290324211 42.4670612,0.290324211 C44.1188012,0.290324211 45.3415376,1.41171454 45.3415376,3.24323162 L45.3415376,6.30824902 C45.3415376,8.14005654 44.1188012,9.26115643 42.4670612,9.26115643 M42.4670612,8.58820606 C43.650687,8.58820606 44.6260261,7.85339188 44.6260261,6.30824902 L44.6260261,3.24323162 C44.6260261,1.69837921 43.650687,0.962984146 42.4670612,0.962984146 C41.2834354,0.962984146 40.3080963,1.69837921 40.3080963,3.24323162 L40.3080963,6.30824902 C40.3080963,7.85339188 41.2834354,8.58820606 42.4670612,8.58820606" id="Fill-19" fill="#8D9CA9"></path>
                    <polygon id="Fill-21" fill="#8D9CA9" points="50.682952 9.13655751 49.9935143 9.13655751 48.3157005 0.414923136 49.0181751 0.414923136 50.4228211 7.77845826 52.2307003 1.6609124 52.8810275 1.6609124 54.6886035 7.77845826 56.0932496 0.414923136 56.7957242 0.414923136 55.1179104 9.13655751 54.4287758 9.13655751 52.5557123 2.79450122"></polygon>
                    <polygon id="Fill-23" fill="#8D9CA9" points="65.2569808 8.46369426 65.2569808 9.13664464 60.2235395 9.13664464 60.2235395 0.415010269 65.2569808 0.415010269 65.2569808 1.0876702 60.9387478 1.0876702 60.9387478 4.38939652 65.2569808 4.38939652 65.2569808 5.0501484 60.9387478 5.0501484 60.9387478 8.46369426"></polygon>
                    <path d="M69.9713222,9.13655751 L69.2561139,9.13655751 L69.2561139,0.414923136 L72.3516106,0.414923136 C73.8602483,0.414923136 74.8486244,1.41171454 74.8486244,2.74483592 C74.8486244,3.99082518 73.9769737,4.92488146 72.6244751,5.03728189 L75.1478658,9.13655751 L74.3286658,9.13655751 L71.818312,5.05006127 L69.9713222,5.05006127 L69.9713222,9.13655751 Z M74.1331129,2.74483592 C74.1331129,1.67340133 73.3142161,1.08787351 72.3516106,1.08787351 L69.9713222,1.08787351 L69.9713222,4.38959983 L72.3516106,4.38959983 C73.3142161,4.38959983 74.1331129,3.81656095 74.1331129,2.74483592 L74.1331129,2.74483592 Z" id="Fill-25" fill="#8D9CA9"></path>
                    <polygon id="Fill-27" fill="#8D9CA9" points="83.7251506 8.46369426 83.7251506 9.13664464 78.6917093 9.13664464 78.6917093 0.415010269 83.7251506 0.415010269 83.7251506 1.0876702 79.4069175 1.0876702 79.4069175 4.38939652 83.7251506 4.38939652 83.7251506 5.0501484 79.4069175 5.0501484 79.4069175 8.46369426"></polygon>
                    <path d="M90.5986691,9.13655751 L87.7241927,9.13655751 L87.7241927,0.414923136 L90.5986691,0.414923136 C92.2504091,0.414923136 93.4728423,1.53631347 93.4728423,3.36783055 L93.4728423,6.1836501 C93.4728423,8.01545762 92.2504091,9.13655751 90.5986691,9.13655751 L90.5986691,9.13655751 Z M90.5986691,8.46360713 C91.7822948,8.46360713 92.757634,7.72850251 92.757634,6.1836501 L92.757634,3.36783055 C92.757634,1.82268769 91.7822948,1.08787351 90.5986691,1.08787351 L88.4397042,1.08787351 L88.4397042,8.46360713 L90.5986691,8.46360713 Z" id="Fill-29" fill="#8D9CA9"></path>
                    <path d="M108.0982,6.75671802 C108.0982,8.06486153 107.187742,9.13658655 105.61392,9.13658655 L102.34955,9.13658655 L102.34955,0.415242621 L105.380166,0.415242621 C106.888804,0.415242621 107.87718,1.41174359 107.87718,2.74457452 C107.87718,3.60456851 107.395725,4.33967313 106.693554,4.6638046 C107.460606,4.93768988 108.0982,5.74743768 108.0982,6.75671802 L108.0982,6.75671802 Z M107.161971,2.74457452 C107.161971,1.67343038 106.342165,1.08761212 105.380166,1.08761212 L103.064759,1.08761212 L103.064759,4.38933843 L105.380166,4.38933843 C106.342165,4.38933843 107.161971,3.81658999 107.161971,2.74457452 L107.161971,2.74457452 Z M103.064759,8.46363618 L105.61392,8.46363618 C106.641406,8.46363618 107.382992,7.80346518 107.382992,6.75671802 C107.382992,5.70997087 106.641406,5.04979987 105.61392,5.04979987 L103.064759,5.04979987 L103.064759,8.46363618 Z" id="Fill-31" fill="#8D9CA9"></path>
                    <polygon id="Fill-33" fill="#8D9CA9" points="113.802373 9.13655751 113.087164 9.13655751 113.087164 5.51069972 110.017438 0.414923136 110.810868 0.414923136 113.451287 4.80057298 116.078669 0.414923136 116.871796 0.414923136 113.802373 5.51069972"></polygon>
                    <g id="Group-37" transform="translate(0.000000, 0.142490)">
                        <mask id="mask-2" fill="white">
                            <use xlink:href="#path-1"></use>
                        </mask>
                        <g id="Clip-36"></g>
                        <path d="M14.9082576,7.41851549 C14.869147,6.97588434 14.8491369,6.7821606 14.7593948,6.48504009 C14.2994665,4.95906629 12.8302425,3.84319433 11.0896699,3.84319433 L3.72748127,3.84319433 L3.72748127,18.1314092 L7.46360326,18.1314092 L7.46360326,21.7076016 L-0.000151591414,21.7076016 L-0.000151591414,0.272520215 L11.1390887,0.272520215 C14.9031035,0.272520215 18.0137593,2.89635867 18.5482706,6.35956984 C18.6001149,6.69502849 18.6343745,7.04239519 18.6343745,7.42112945 L14.9082576,7.41851549 Z" id="Fill-35" fill="#8D9CA9" mask="url(#mask-2)"></path>
                    </g>
                    <path d="M18.634708,10.2345383 L18.634708,14.6692726 C18.634708,18.628556 15.1614456,21.8501207 11.0299732,21.8501207 L10.2501869,21.8501207 L10.2501869,18.2739282 L10.9960167,18.2739282 C13.1016214,18.2739282 14.9088943,16.6314879 14.9088943,14.6146698 L14.9088943,10.2345383 L18.634708,10.2345383 Z" id="Fill-38" fill="#8D9CA9"></path>
                </g>
            </g>
        </g>
    </g>
</svg>