<?xml version="1.0" encoding="UTF-8"?>
<svg width="50px" height="50px" viewBox="0 0 50 50" version="1.1" xmlns="http://www.w3.org/2000/svg" xmlns:xlink="http://www.w3.org/1999/xlink">
    <!-- Generator: Sketch 49.1 (51147) - http://www.bohemiancoding.com/sketch -->
    <title>WSJ</title>
    <desc>Created with Sketch.</desc>
    <defs></defs>
    <g id="Brand-Switching" stroke="none" stroke-width="1" fill="none" fill-rule="evenodd">
        <g id="Tool---Switch-(MW)" transform="translate(-1180.000000, -225.000000)">
            <g id="USER-SETTINGS" transform="translate(1160.000000, 40.000000)">
                <g id="Brand-Dropdown-List" transform="translate(0.000000, 124.000000)">
                    <g id="List-Item" transform="translate(0.000000, 52.000000)">
                        <g id="WSJ" transform="translate(20.000000, 9.000000)">
                            <rect id="Rectangle" fill="#FFFFFF" x="0" y="0" width="50" height="50"></rect>
                            <path d="M39.1326758,15.625 L45.3125,15.625 L45.3125,16.1527195 L44.6555495,16.328724 C44.0590563,16.4753454 43.8501491,16.7392051 43.8501491,17.5595798 L43.8501491,31.1595228 C43.8501491,34.296163 41.9391563,35.9375 39.460702,35.9375 C37.2213836,35.9375 35.9077819,34.1492477 35.9380106,32.1855788 C35.9682394,30.6611863 37.1025639,29.8995777 38.0279813,30.0168161 C38.6547031,30.1046714 39.341583,30.5442418 39.2517948,31.599387 C39.1326758,33.0650134 37.5796387,33.0062473 37.4907483,33.9150648 C37.4605197,34.4424905 38.1770297,35.1753037 39.1326758,35.1753037 C40.6252553,35.1753037 40.8048318,33.5924391 40.8048318,31.6290638 L40.8048318,17.5301967 C40.8048318,16.680439 40.4759076,16.4753454 39.8785166,16.328724 L39.1326758,16.1527195 L39.1326758,15.625 Z M29.3644207,16.3828114 C27.8277526,16.3828114 27.4589154,17.7818702 27.4589154,18.7140892 C27.4589154,23.0564594 34.375,24.6299259 34.375,30.6041906 C34.375,33.693572 32.284922,35.9375 29.5486853,35.9375 C27.7664338,35.9375 27.1517049,34.7715689 26.5671733,34.7715689 C26.2294577,34.7715689 25.830115,34.8592109 25.5225966,35.8206439 L25.1537592,35.8206439 L25.1537592,29.1762099 L25.7376746,29.1762099 C26.106512,32.8773325 27.4589154,35.1793964 29.518488,35.1793964 C30.9017049,35.1793964 31.9157765,34.0137575 31.9157765,31.9448214 C31.9157765,27.3985375 25,25.3298935 25,20.4044118 C25,17.6945203 26.7825596,15.625 29.3955423,15.625 C31.0859697,15.625 31.4544987,16.674075 32.1619763,16.674075 C32.5610107,16.674075 32.8374075,16.3828114 32.9917831,15.7415639 L33.3606203,15.7415639 L33.3606203,22.3862901 L32.7767051,22.3862901 C32.4078677,19.0932871 31.5774445,16.3828114 29.3644207,16.3828114 Z M19.2342441,16.154243 L19.2342441,15.625 L23.4375,15.625 L23.4375,16.154243 L22.87093,16.3012877 C22.1555458,16.4778003 21.9469668,17.0948575 21.5593923,18.8882723 L17.9227063,35.9375 L16.8493311,35.9375 L14.0272388,22.5125261 L11.4540668,35.9375 L10.2318773,35.9375 L6.44637707,18.3292668 C6.08868494,16.7129539 5.79015993,16.4483324 5.25377116,16.3012877 L4.6875,16.154243 L4.6875,15.625 L10.5599859,15.625 L10.5599859,16.154243 L10.1123478,16.2426466 C9.15850215,16.4185698 9.24814931,17.3300112 9.51619428,18.5355419 L11.7923354,29.6181144 L13.5386619,20.5337584 L12.9744825,17.8592542 C12.7360211,16.7424218 12.6466727,16.389102 12.0499215,16.2426466 L11.6626459,16.154243 L11.6626459,15.625 L17.4159011,15.625 L17.4159011,16.154243 L16.7602816,16.2718198 C15.7762547,16.4483324 15.925069,17.3886522 16.1638292,18.5355419 L18.3733326,29.7012138 L20.5457819,19.1525991 C20.9629399,16.9772807 20.7543609,16.4483324 19.8605788,16.2718198 L19.2342441,16.154243 Z" id="Combined-Shape" fill="#0C2A31" fill-rule="nonzero"></path>
                        </g>
                    </g>
                </g>
            </g>
        </g>
    </g>
</svg>