<?xml version="1.0" standalone="no"?>
<!DOCTYPE svg PUBLIC "-//W3C//DTD SVG 1.1//EN" "http://www.w3.org/Graphics/SVG/1.1/DTD/svg11.dtd" >
<svg xmlns="http://www.w3.org/2000/svg">
<metadata></metadata>
<defs>
<font id="simplon_normlight_italic" horiz-adv-x="1155" >
<font-face units-per-em="2048" ascent="1651" descent="-397" />
<missing-glyph horiz-adv-x="471" />
<glyph horiz-adv-x="0" />
<glyph horiz-adv-x="682" />
<glyph unicode=" "  horiz-adv-x="471" />
<glyph unicode="&#x09;" horiz-adv-x="471" />
<glyph unicode="&#xa0;" horiz-adv-x="471" />
<glyph unicode="!" horiz-adv-x="540" d="M72 0l37 172h172l-37 -172h-172zM195 430l213 1004h108l-213 -1004h-108z" />
<glyph unicode="&#x22;" horiz-adv-x="729" d="M317 975v459h109v-459h-109zM590 975v459h108v-459h-108z" />
<glyph unicode="#" horiz-adv-x="1433" d="M229 442v93h168l90 364h-165v92h188l111 443h96l-111 -443h432l111 443h96l-110 -443h147v-92h-170l-90 -364h168v-93h-191l-108 -442h-96l108 442h-432l-109 -442h-96l109 442h-146zM494 535h432l90 364h-432z" />
<glyph unicode="$" horiz-adv-x="1034" d="M61 369q0 27 2 41h107q-2 -20 -2 -35q0 -110 59 -182t158 -99l123 584l-31 12q-123 46 -189.5 142.5t-66.5 214.5q0 193 114 300t306 107q21 0 33 -2l39 186h88l-43 -200q114 -33 188 -117.5t74 -206.5q0 -13 -2 -29h-105v9q0 91 -48.5 154t-127.5 89l-125 -583l47 -17 q118 -43 184 -132t66 -208q0 -85 -26 -158.5t-77.5 -132.5t-136.5 -92.5t-194 -33.5q-4 0 -13 1t-13 1l-39 -187h-88l40 199q-133 30 -217 126.5t-84 248.5zM332 1065q0 -204 184 -274l14 -7l121 568h-14q-143 0 -224 -80t-81 -207zM471 82h23q127 0 216 82.5t89 226.5 q0 179 -191 250l-18 6z" />
<glyph unicode="%" horiz-adv-x="1652" d="M215 784q0 71 80 426q28 122 94.5 179t177.5 57q99 0 152 -59t53 -136q0 -71 -80 -426q-27 -122 -94 -178.5t-178 -56.5q-99 0 -152 58.5t-53 135.5zM299 797q0 -56 35.5 -89.5t99.5 -33.5q61 0 108.5 39t61.5 110q3 13 28 125t40.5 190.5t15.5 100.5q0 56 -35.5 89.5 t-99.5 33.5q-61 0 -108 -39.5t-62 -110.5q-6 -30 -28 -129t-39 -181.5t-17 -104.5zM326 0l985 1434h98l-985 -1434h-98zM963 182q0 76 79 426q27 122 94.5 179t178.5 57q99 0 152 -59t53 -136q0 -71 -80 -426q-27 -122 -94 -178.5t-179 -56.5q-98 0 -151 58.5t-53 135.5z M1047 195q0 -56 35.5 -89.5t99.5 -33.5q61 0 108.5 39t61.5 110q3 13 28 125t40.5 190.5t15.5 100.5q0 56 -36 89.5t-100 33.5q-61 0 -108 -39.5t-62 -110.5q-5 -29 -27 -128.5t-39 -182t-17 -104.5z" />
<glyph unicode="&#x26;" horiz-adv-x="1218" d="M80 346q0 303 276 404q-65 40 -101 114t-36 154q0 110 36 192t101.5 130t148.5 71t185 23h326l-23 -103h-317q-159 0 -254.5 -75.5t-95.5 -217.5q0 -106 62.5 -185t170.5 -79h318l34 166h109l-37 -166h262l-22 -100h-260l-144 -674h-416q-102 0 -176.5 48.5t-110.5 126 t-36 171.5zM186 360q0 -49 13 -93t40 -82t75 -60.5t112 -22.5h307l121 572h-307q-163 0 -262 -77.5t-99 -236.5z" />
<glyph unicode="'" horiz-adv-x="456" d="M317 975v459h109v-459h-109z" />
<glyph unicode="(" horiz-adv-x="534" d="M92 -29q0 18 10 68t79 372q94 439 173 812q27 129 80 170t184 41h21l-18 -84h-21q-80 0 -111.5 -26t-46.5 -101q-71 -333 -160 -750q-76 -355 -89 -419.5t-13 -86.5q0 -40 23 -55.5t88 -15.5h20l-18 -84h-21q-180 0 -180 159z" />
<glyph unicode=")" horiz-adv-x="534" d="M-63 -188l18 84h20q80 0 111.5 26t46.5 101q74 348 165 774q72 336 84.5 397.5t12.5 83.5q0 40 -22.5 56t-87.5 16h-21l19 84h20q180 0 180 -160q0 -24 -84 -416q-95 -446 -178 -835q-27 -129 -80 -170t-184 -41h-20z" />
<glyph unicode="*" horiz-adv-x="927" d="M281 1178l43 77l223 -79l57 258h92l-55 -256l260 79l8 -83l-260 -80l109 -207l-74 -47l-106 207l-205 -216l-66 56l201 209z" />
<glyph unicode="+" horiz-adv-x="1142" d="M176 528v93h361v358h92v-358h358v-93h-358v-360h-92v360h-361z" />
<glyph unicode="," horiz-adv-x="540" d="M45 -172l100 172h-71l35 172h172l-35 -172l-101 -172h-100z" />
<glyph unicode="-" horiz-adv-x="839" d="M125 528l18 93h594l-18 -93h-594z" />
<glyph unicode="." horiz-adv-x="540" d="M74 0l35 172h172l-35 -172h-172z" />
<glyph unicode="/" horiz-adv-x="679" d="M0 0l580 1434h100l-580 -1434h-100z" />
<glyph unicode="0" horiz-adv-x="1093" d="M109 297q0 24 4 59.5t13 87t17.5 97.5t24 119t26 122t29.5 136t29 133q86 403 463 403q48 0 95.5 -10.5t93.5 -35t81 -60t56.5 -90t21.5 -121.5q0 -24 -4 -59.5t-13 -87t-17.5 -97.5t-24 -119t-26 -122t-29.5 -136t-29 -133q-86 -403 -463 -403q-48 0 -95.5 10.5 t-93.5 35t-81 60t-56.5 90t-21.5 121.5zM215 315q0 -118 68.5 -175.5t191.5 -57.5q122 0 214 80.5t122 220.5q14 67 39.5 181.5t41 185t32 152.5t24.5 135t8 81q0 118 -68.5 176t-191.5 58q-122 0 -214 -80.5t-122 -220.5q-14 -66 -39.5 -181.5t-40.5 -185.5t-32 -152.5 t-25 -135.5t-8 -81z" />
<glyph unicode="1" horiz-adv-x="673" d="M217 1051l31 147l325 236h109l-305 -1434h-109l273 1284z" />
<glyph unicode="2" horiz-adv-x="1038" d="M-8 0l22 104l691 635q217 200 217 379q0 118 -68.5 176t-191.5 58q-137 0 -231.5 -96.5t-113.5 -241.5h-108q11 75 33.5 139t61.5 120t91 96t125 62.5t160 22.5q48 0 95.5 -10.5t93.5 -35t81 -60t56.5 -90t21.5 -121.5q0 -242 -246 -467l-618 -568h659l-22 -102h-809z " />
<glyph unicode="3" horiz-adv-x="1042" d="M74 297q0 49 10 113h106q-10 -68 -10 -95q0 -117 68 -175t184 -58q144 0 248 99t104 259q0 98 -59 166t-168 68h-100l22 102h105q147 0 244.5 100t97.5 242q0 118 -68.5 176t-191.5 58q-139 0 -227.5 -92t-114.5 -236h-109q39 223 161.5 326.5t307.5 103.5 q48 0 95.5 -10.5t93.5 -35t81 -60t56.5 -90t21.5 -121.5q0 -155 -75.5 -266.5t-198.5 -159.5q68 -43 100.5 -112.5t32.5 -143.5q0 -221 -132.5 -348t-344.5 -127q-62 0 -121 19.5t-108.5 56.5t-80 99.5t-30.5 141.5z" />
<glyph unicode="4" horiz-adv-x="1040" d="M18 410l19 98l870 926h109l-199 -926h150l-19 -98h-149l-88 -410h-109l88 410h-672zM178 508h531l157 733z" />
<glyph unicode="5" horiz-adv-x="1052" d="M115 297q0 43 12 113h104q-10 -68 -10 -95q0 -118 68.5 -175.5t191.5 -57.5q122 0 214 80.5t122 220.5q29 133 29 176q0 118 -68.5 176t-191.5 58q-83 0 -154.5 -38.5t-118.5 -109.5h-125l168 789h738l-23 -103h-629l-116 -549q37 45 114 79t164 34q48 0 95.5 -10.5 t93.5 -35t81 -60t56.5 -90t21.5 -121.5q0 -72 -26 -195q-86 -403 -463 -403q-48 0 -95.5 10.5t-93.5 35t-81 60t-56.5 90t-21.5 121.5z" />
<glyph unicode="6" horiz-adv-x="1069" d="M109 297q0 24 4 59.5t13 87t17.5 97.5t24 119t26 122t29.5 136t29 133q86 403 463 403q48 0 95.5 -10.5t93.5 -35t81 -60t56.5 -90t21.5 -121.5q0 -43 -12 -113h-105q10 68 10 94q0 118 -68.5 176t-191.5 58q-122 0 -214 -80.5t-122 -220.5l-65 -299q45 57 124.5 93 t174.5 36q61 0 120 -18t111.5 -54t84.5 -99.5t32 -146.5q0 -85 -22 -180q-49 -213 -165.5 -308t-297.5 -95q-48 0 -95.5 10.5t-93.5 35t-81 60t-56.5 90t-21.5 121.5zM215 315q0 -118 68.5 -175.5t191.5 -57.5t214.5 80.5t121.5 220.5q25 121 25 162q0 118 -69 175.5 t-192 57.5q-122 0 -214 -80.5t-121 -220.5q-25 -132 -25 -162z" />
<glyph unicode="7" horiz-adv-x="905" d="M125 0l768 1331h-676l23 103h798l-22 -103l-768 -1331h-123z" />
<glyph unicode="8" horiz-adv-x="1019" d="M68 297q0 97 27.5 183t89.5 157t153 106q-117 91 -117 254q0 93 30 174.5t86 145t144.5 100.5t198.5 37q62 0 121 -19.5t109 -57t80 -101.5t30 -146q0 -144 -69.5 -258t-198.5 -165q131 -88 131 -246q0 -94 -27 -178.5t-81 -153t-144.5 -109t-206.5 -40.5 q-62 0 -123.5 20t-114 57.5t-85.5 100t-33 139.5zM174 324q0 -107 68.5 -174.5t191.5 -67.5q144 0 243 100t99 252q0 107 -68.5 173.5t-191.5 66.5q-144 0 -243 -99t-99 -251zM328 1024q0 -131 68 -189.5t175 -58.5q138 0 240 93t102 235q0 131 -68 189.5t-175 58.5 q-138 0 -240 -93t-102 -235z" />
<glyph unicode="9" horiz-adv-x="1069" d="M86 297q0 43 12 113h105q-10 -68 -10 -95q0 -118 68.5 -175.5t191.5 -57.5q122 0 213.5 80.5t121.5 220.5l66 299q-45 -57 -124.5 -93t-174.5 -36q-48 0 -95.5 10.5t-93.5 35t-81 60t-56.5 90t-21.5 121.5q0 86 22 181q49 213 165.5 308t297.5 95q48 0 95.5 -10.5 t93.5 -35t81 -60t56.5 -90t21.5 -121.5q0 -24 -4 -59.5t-13 -87t-17.5 -97.5t-24 -119t-26 -122t-29.5 -136t-29 -133q-86 -403 -463 -403q-48 0 -95.5 10.5t-93.5 35t-81 60t-56.5 90t-21.5 121.5zM313 889q0 -118 68.5 -176t191.5 -58q122 0 214.5 80.5t121.5 220.5 q25 132 25 162q0 118 -68.5 176t-191.5 58t-214.5 -80.5t-121.5 -220.5q-25 -121 -25 -162z" />
<glyph unicode=":" horiz-adv-x="540" d="M74 0l35 172h172l-35 -172h-172zM264 885l35 172h172l-35 -172h-172z" />
<glyph unicode=";" horiz-adv-x="540" d="M45 -172l100 172h-71l35 172h172l-35 -172l-101 -172h-100zM264 885l35 172h172l-35 -172h-172z" />
<glyph unicode="&#x3c;" horiz-adv-x="1142" d="M176 479v103l811 489v-104l-723 -437l723 -436v-104z" />
<glyph unicode="=" horiz-adv-x="1142" d="M176 317v93h811v-93h-811zM176 717v92h811v-92h-811z" />
<glyph unicode="&#x3e;" horiz-adv-x="1142" d="M176 -10v104l723 436l-723 437v104l811 -489v-103z" />
<glyph unicode="?" horiz-adv-x="1034" d="M211 1024q79 430 469 430q48 0 95.5 -10.5t93.5 -35t81 -60t56.5 -90t21.5 -121.5q0 -118 -63 -224.5t-168 -187.5l-146 -113q-54 -42 -74.5 -69t-29.5 -68l-8 -45h-109l8 45q13 62 48 115.5t106 107.5l147 113q183 138 183 307q0 118 -68.5 176t-191.5 58 q-139 0 -229.5 -94t-113.5 -234h-108zM301 0l37 172h172l-37 -172h-172z" />
<glyph unicode="@" horiz-adv-x="1765" d="M154 256v545q0 72 18 146t54 148t96.5 138t138.5 114t186.5 78.5t235.5 28.5t235.5 -28.5t186.5 -78.5t138.5 -114t96.5 -138t54 -148t18 -146v-588q0 -117 -54.5 -175t-154.5 -58q-91 0 -147 43t-76 106q-103 -149 -353 -149q-165 0 -258.5 89.5t-93.5 221.5 q0 109 56 188.5t174 114.5q130 40 475 59v19q0 141 -83 225t-214 84q-115 0 -193.5 -65.5t-97.5 -178.5h-111q10 92 49.5 161.5t97 109t122 58.5t133.5 19q75 0 144 -22t129 -68.5t96 -129.5t36 -193v-475q0 -52 29.5 -90.5t89.5 -38.5q59 0 88 38.5t29 90.5v604 q0 77 -22 154t-72.5 152t-123 132.5t-182 93t-241.5 35.5t-241.5 -35.5t-182 -93t-123 -132.5t-72.5 -152t-22 -154v-545q0 -77 22 -154t72.5 -152t123 -132.5t182 -93t241.5 -35.5q243 0 411 121l52 -74q-188 -133 -463 -133q-127 0 -235.5 28.5t-186.5 78.5t-138.5 114 t-96.5 138t-54 148t-18 146zM584 299q0 -94 64.5 -154.5t203.5 -60.5q143 0 235.5 85.5t92.5 223.5v164q-194 -12 -300.5 -25.5t-162.5 -39.5q-72 -32 -102.5 -79.5t-30.5 -113.5z" />
<glyph unicode="A" d="M-72 0l791 1434h102l183 -1434h-107l-57 446h-545l-246 -446h-121zM350 547h477l-90 702z" />
<glyph unicode="B" horiz-adv-x="1185" d="M61 0l306 1434h454q156 0 250 -91t94 -229q0 -140 -68 -240.5t-182 -152.5q66 -35 105 -106.5t39 -155.5q0 -193 -134.5 -326t-340.5 -133h-523zM199 109h403q136 0 240 97.5t104 237.5q0 100 -63 165t-164 65h-402zM340 778h365q150 0 249 91t99 233q0 104 -68 164.5 t-188 60.5h-340z" />
<glyph unicode="C" horiz-adv-x="1144" d="M106 352q0 16 1 28.5t2 26t5.5 38.5t9.5 49t16 75t21.5 99.5t29.5 139.5t38 179q98 467 521 467q164 0 277.5 -102.5t113.5 -270.5q0 -33 -4 -57h-111q2 20 2 43q0 134 -83.5 207.5t-209.5 73.5q-145 0 -250 -88.5t-143 -272.5q-25 -118 -48 -226t-34.5 -160t-21 -97.5 t-13 -65.5t-5 -36t-1.5 -35q0 -134 83.5 -207.5t209.5 -73.5q139 0 241 79.5t144 244.5h113q-53 -209 -177 -319.5t-335 -110.5q-164 0 -278 102t-114 270z" />
<glyph unicode="D" horiz-adv-x="1208" d="M61 0l306 1434h421q164 0 278 -102.5t114 -270.5q0 -15 -1.5 -31.5t-3.5 -33t-7.5 -46t-10.5 -54.5t-15.5 -74.5t-19.5 -91t-26 -119t-31 -144.5q-49 -227 -174.5 -347t-345.5 -120h-484zM197 106h362q145 0 250 88.5t143 272.5q25 119 47.5 223.5t33 152.5t19 87.5 t11 56t3.5 28.5t1 32q0 134 -83.5 207t-209.5 73h-317z" />
<glyph unicode="E" horiz-adv-x="1107" d="M59 0l306 1434h792l-22 -107h-680l-117 -549h680l-23 -104h-680l-120 -568h679l-22 -106h-793z" />
<glyph unicode="F" horiz-adv-x="1087" d="M61 0l306 1434h792l-22 -107h-680l-117 -549h680l-23 -104h-680l-143 -674h-113z" />
<glyph unicode="G" horiz-adv-x="1159" d="M106 352q0 16 1 28.5t2 26t5.5 38.5t9.5 49t16 75t21.5 99.5t29.5 139.5t38 179q98 467 521 467q164 0 277.5 -102.5t113.5 -270.5q0 -33 -4 -57h-111q2 18 2 43q0 134 -83.5 207.5t-209.5 73.5q-145 0 -250 -88.5t-143 -272.5q-25 -118 -48 -226t-34.5 -160t-21 -97.5 t-13 -65.5t-5 -36t-1.5 -35q0 -134 83.5 -207.5t209.5 -73.5q146 0 250.5 88t142.5 272q20 104 39 187h-338l23 104h450q-5 -24 -16 -77t-22 -106.5t-23 -107.5q-48 -227 -174 -346.5t-346 -119.5q-164 0 -278 102t-114 270z" />
<glyph unicode="H" horiz-adv-x="1253" d="M61 0l306 1434h112l-139 -656h680l139 656h113l-305 -1434h-113l143 674h-680l-143 -674h-113z" />
<glyph unicode="I" horiz-adv-x="460" d="M61 0l306 1434h112l-305 -1434h-113z" />
<glyph unicode="J" horiz-adv-x="956" d="M0 299q0 53 16 111h111q-14 -55 -14 -91q0 -99 69 -166t189 -67q222 0 282 276l228 1072h112l-227 -1072q-20 -94 -50 -161t-79 -118.5t-121.5 -77t-171.5 -25.5q-142 0 -243 93.5t-101 225.5z" />
<glyph unicode="K" horiz-adv-x="1222" d="M61 0l306 1434h112l-176 -832l885 832h151l-630 -592l378 -842h-118l-344 762l-361 -340l-90 -422h-113z" />
<glyph unicode="L" horiz-adv-x="1009" d="M61 0l306 1434h112l-280 -1328h680l-25 -106h-793z" />
<glyph unicode="M" horiz-adv-x="1445" d="M61 0l306 1434h118l224 -934l637 934h118l-305 -1434h-108l252 1186l-547 -801h-127l-199 836l-260 -1221h-109z" />
<glyph unicode="N" horiz-adv-x="1253" d="M61 0l306 1434h112l418 -1239l262 1239h113l-305 -1434h-113l-418 1239l-262 -1239h-113z" />
<glyph unicode="O" horiz-adv-x="1165" d="M106 352q0 16 1 28.5t2 26t5.5 38.5t9.5 49t16 75t21.5 99.5t29.5 139.5t38 179q98 467 521 467q164 0 277.5 -102.5t113.5 -270.5q0 -16 -1 -28.5t-2 -26t-5.5 -38.5t-9.5 -49t-16 -75t-21.5 -99.5t-29.5 -139.5t-38 -179q-48 -227 -174 -346.5t-346 -119.5 q-164 0 -278 102t-114 270zM219 367q0 -134 83.5 -207.5t209.5 -73.5q146 0 250.5 88t142.5 272q25 118 48 226.5t34.5 160t21 97.5t13 65.5t5 36t1.5 35.5q0 134 -83.5 207.5t-209.5 73.5q-145 0 -250 -88.5t-143 -272.5q-25 -118 -48 -226t-34.5 -160t-21 -97.5t-13 -65.5 t-5 -36t-1.5 -35z" />
<glyph unicode="P" horiz-adv-x="1122" d="M61 0l306 1434h421q94 0 169 -31t120.5 -83.5t69.5 -118t24 -138.5q0 -63 -17.5 -126t-56.5 -124t-95 -107.5t-139.5 -75t-182.5 -28.5h-379l-127 -602h-113zM326 709h368q107 0 192.5 51t129 129t43.5 164q0 52 -14.5 97.5t-46 86.5t-91.5 65.5t-143 24.5h-307z" />
<glyph unicode="Q" horiz-adv-x="1165" d="M106 352q0 16 1 28.5t2 26t5.5 38.5t9.5 49t16 75t21.5 99.5t29.5 139.5t38 179q98 467 521 467q164 0 277.5 -102.5t113.5 -270.5q0 -16 -1 -28.5t-2 -26t-5.5 -38.5t-9.5 -49t-16 -75t-21.5 -99.5t-29.5 -139.5t-38 -179q-45 -212 -156 -329l113 -142l-82 -67l-113 143 q-115 -71 -282 -71q-164 0 -278 102t-114 270zM219 367q0 -134 83.5 -207.5t209.5 -73.5q118 0 199 51l-123 158l80 67l125 -159q78 87 112 243q25 118 48 226.5t34.5 160t21 97.5t13 65.5t5 36t1.5 35.5q0 134 -83.5 207.5t-209.5 73.5q-145 0 -250 -88.5t-143 -272.5 q-25 -118 -48 -226t-34.5 -160t-21 -97.5t-13 -65.5t-5 -36t-1.5 -35z" />
<glyph unicode="R" horiz-adv-x="1171" d="M61 0l306 1434h462q156 0 250.5 -91t94.5 -229q0 -196 -125 -311.5t-314 -128.5l254 -674h-119l-252 674h-301l-143 -674h-113zM340 778h375q150 5 248 94.5t98 229.5q0 104 -68 164.5t-188 60.5h-348z" />
<glyph unicode="S" horiz-adv-x="1054" d="M53 369q0 27 2 41h113q-2 -12 -2 -35q0 -79 29 -137t78.5 -90t105.5 -47t119 -15q136 0 226.5 78.5t90.5 220.5q0 77 -40.5 143t-119.5 95l-213 79q-119 45 -176 138.5t-57 206.5q0 195 119 301t319 106q160 0 270.5 -103t110.5 -257q0 -7 -2 -23h-113v8q0 124 -81 196.5 t-191 72.5q-148 0 -233.5 -77.5t-85.5 -205.5q0 -196 165 -258l213 -80q107 -41 167.5 -130t60.5 -200q0 -86 -27 -160t-80.5 -132.5t-141 -91.5t-200.5 -33q-66 0 -127 15t-115.5 46.5t-95.5 76.5t-64.5 109.5t-23.5 141.5z" />
<glyph unicode="T" horiz-adv-x="985" d="M209 1327l22 107h908l-23 -107h-397l-283 -1327h-112l282 1327h-397z" />
<glyph unicode="U" horiz-adv-x="1216" d="M129 352q0 41 11 99t74 349q76 351 136 634h113q-57 -268 -131 -609q-64 -294 -76 -356.5t-12 -101.5q0 -134 83.5 -207.5t209.5 -73.5q95 0 171 35t135.5 117.5t86.5 207.5l211 988h112l-211 -988q-48 -227 -174 -346.5t-346 -119.5q-164 0 -278.5 102t-114.5 270z" />
<glyph unicode="V" d="M231 1434h109l158 -1246l688 1246h123l-793 -1434h-102z" />
<glyph unicode="W" horiz-adv-x="1464" d="M217 0l41 1434h109l-35 -1186l485 981h117l67 -993l476 1198h116l-569 -1434h-109l-73 1042l-516 -1042h-109z" />
<glyph unicode="X" d="M-66 0l615 741l-281 693h117l244 -603l499 603h140l-586 -705l297 -729h-117l-258 641l-532 -641h-138z" />
<glyph unicode="Y" horiz-adv-x="1112" d="M209 1434h115l264 -717l563 717h137l-661 -838l-127 -596h-113l127 596z" />
<glyph unicode="Z" horiz-adv-x="1099" d="M-18 0l22 106l1024 1221h-756l23 107h895l-23 -107l-1024 -1221h775l-23 -106h-913z" />
<glyph unicode="[" horiz-adv-x="536" d="M53 -188l346 1622h240l-18 -84h-152l-309 -1454h151l-18 -84h-240z" />
<glyph unicode="\" horiz-adv-x="759" d="M80 1434h100l580 -1434h-101z" />
<glyph unicode="]" horiz-adv-x="536" d="M-61 -188l18 84h149l310 1454h-152l19 84h239l-346 -1622h-237z" />
<glyph unicode="^" horiz-adv-x="1241" d="M195 614l428 820h98l428 -820h-105l-372 713l-373 -713h-104z" />
<glyph unicode="_" horiz-adv-x="831" d="M-154 -233l19 92h811l-19 -92h-811z" />
<glyph unicode="`" horiz-adv-x="610" d="M315 1434h162l119 -265h-94z" />
<glyph unicode="a" horiz-adv-x="1079" d="M63 264q0 258 256 330q149 42 529 59q14 64 14 101q0 107 -66 168t-190 61q-112 0 -201.5 -65.5t-130.5 -180.5h-108q102 348 459 348q61 0 120 -18.5t110 -54.5t82.5 -100t31.5 -146q0 -44 -9 -94t-61 -289l-82 -383h-108l30 135q-111 -155 -342 -155 q-147 0 -240.5 82.5t-93.5 201.5zM172 272q0 -81 62.5 -135.5t185.5 -54.5q140 0 242 85.5t131 225.5l34 162q-370 -16 -499 -61q-78 -27 -117 -86.5t-39 -135.5z" />
<glyph unicode="b" horiz-adv-x="1112" d="M51 0l305 1434h109l-107 -498q44 66 124.5 107.5t187.5 41.5q61 0 120 -18.5t110 -54.5t82.5 -100t31.5 -146q0 -44 -9 -94t-61 -289q-86 -403 -473 -403q-108 0 -182.5 52.5t-98.5 117.5l-30 -150h-109zM233 311q0 -107 66 -168t190 -61q126 0 221.5 80.5t125.5 220.5 q8 39 17.5 83t15 69t12 53.5t9.5 43.5t6.5 32t4.5 26t3 19t2 16.5t0.5 13.5t0.5 15q0 107 -66 168t-190 61q-125 0 -220.5 -80.5t-125.5 -220.5q-11 -50 -22 -101.5t-17 -79.5t-12.5 -57.5t-9.5 -44t-5.5 -29.5t-3.5 -23.5t-1.5 -17t-0.5 -18.5z" />
<glyph unicode="c" horiz-adv-x="1056" d="M98 299q0 44 9 94t61 289q86 403 473 403q61 0 120 -18.5t110 -54.5t82.5 -100t31.5 -146v-29h-106v17q0 107 -66 168t-190 61q-126 0 -221.5 -80.5t-125.5 -220.5q-8 -39 -17.5 -83t-15 -69t-12 -53.5t-9.5 -43.5t-6.5 -32t-4.5 -26t-3 -19t-2 -16.5t-0.5 -13.5 t-0.5 -15q0 -107 66 -168t190 -61q112 0 201.5 65.5t130.5 180.5h108q-102 -348 -459 -348q-61 0 -120 18.5t-110 54.5t-82.5 100t-31.5 146z" />
<glyph unicode="d" horiz-adv-x="1110" d="M98 299q0 44 9 94t61 289q86 403 473 403q108 0 182.5 -52.5t98.5 -117.5l108 519h109l-305 -1434h-109l29 129q-44 -66 -124.5 -107.5t-187.5 -41.5q-61 0 -120 18.5t-110 54.5t-82.5 100t-31.5 146zM205 311q0 -107 66 -168t190 -61q125 0 220.5 80.5t125.5 220.5 q11 50 22 101.5t17 79.5t12.5 57.5t9.5 44t5.5 29.5t3.5 23.5t1.5 17t0.5 18.5q0 107 -66 168t-190 61q-126 0 -221.5 -80.5t-125.5 -220.5q-8 -39 -17.5 -83t-15 -69t-12 -53.5t-9.5 -43.5t-6.5 -32t-4.5 -26t-3 -19t-2 -16.5t-0.5 -13.5t-0.5 -15z" />
<glyph unicode="e" horiz-adv-x="1071" d="M98 299q0 44 9 94t61 289q86 403 473 403q61 0 120 -18.5t110 -54.5t82.5 -100t31.5 -146q0 -37 -6 -74.5t-35 -173.5h-702q-26 -117 -31.5 -148t-5.5 -59q0 -107 66 -168t190 -61q112 0 200.5 65t129.5 181h110q-102 -348 -459 -348q-61 0 -120 18.5t-110 54.5 t-82.5 100t-31.5 146zM264 621h594q21 98 21 133q0 107 -66 168t-190 61q-142 0 -239.5 -98t-119.5 -264z" />
<glyph unicode="f" horiz-adv-x="624" d="M104 0l203 954h-149l22 103h150l35 166q10 47 19 74.5t27 57.5t44 44.5t69.5 24.5t104.5 10h149l-22 -103h-150q-63 0 -92 -24.5t-41 -83.5l-35 -166h260l-22 -103h-260l-203 -954h-109z" />
<glyph unicode="g" horiz-adv-x="1107" d="M16 -49h107v-17q0 -107 66 -168t190 -61q125 0 220.5 80.5t125.5 220.5l33 152q-44 -66 -124.5 -108t-187.5 -42q-61 0 -120 18.5t-110 55t-82.5 100.5t-31.5 146q0 36 9 85t44 216q7 34 11 53q86 403 473 403q108 0 182.5 -52.5t98.5 -117.5l28 142h109l-223 -1051 q-86 -403 -474 -403q-61 0 -120 18.5t-110 54.5t-82.5 100t-31.5 146v29zM209 340q0 -107 66 -168t190 -61q125 0 219 80t127 221q66 277 66 342q0 107 -66 168t-190 61q-126 0 -221.5 -80.5t-125.5 -220.5q-6 -26 -14 -64t-12.5 -57t-10.5 -47.5t-9 -43t-7 -34.5t-5.5 -31 t-3.5 -24.5t-2.5 -23t-0.5 -17.5z" />
<glyph unicode="h" horiz-adv-x="1124" d="M51 0l305 1434h109l-107 -498q44 66 124.5 107.5t187.5 41.5q61 0 120 -18.5t110 -54.5t82.5 -100t31.5 -146q0 -44 -9 -94t-61 -289l-82 -383h-108l82 383q8 39 17.5 83t15 69t12 53.5t9.5 43.5t6.5 32t4.5 26t3 19t2 16.5t0.5 13.5t0.5 15q0 107 -66 168t-190 61 q-125 0 -220.5 -80.5t-125.5 -220.5l-145 -682h-109z" />
<glyph unicode="i" horiz-adv-x="436" d="M51 0l225 1057h109l-225 -1057h-109zM317 1255l39 179h109l-39 -179h-109z" />
<glyph unicode="j" horiz-adv-x="436" d="M-158 -377l23 103h18q63 0 92 24.5t41 83.5l260 1223h109l-260 -1223q-10 -47 -19 -74.5t-27 -57.5t-44 -44.5t-69.5 -24.5t-104.5 -10h-19zM317 1255l39 179h109l-39 -179h-109z" />
<glyph unicode="k" horiz-adv-x="1001" d="M51 0l305 1434h109l-195 -918l613 541h149l-473 -418l299 -639h-115l-266 567l-241 -213l-76 -354h-109z" />
<glyph unicode="l" horiz-adv-x="495" d="M90 156q0 13 2.5 33t11.5 66t20.5 100t34 160.5t47 219.5t65.5 306t83 393h109q-256 -1202 -262 -1241q-4 -22 -4 -33q0 -58 73 -58h41l-22 -102h-13q-93 0 -139.5 41t-46.5 115z" />
<glyph unicode="m" horiz-adv-x="1744" d="M51 0l225 1057h109l-27 -121q38 61 114 105t173 44q88 0 174.5 -46.5t126.5 -137.5q57 86 153.5 135t207.5 49q54 0 108.5 -18.5t105 -54.5t82 -100t31.5 -146q0 -45 -9.5 -98t-59.5 -285l-82 -383h-109l82 383q11 50 22 101.5t17 79.5t12.5 57.5t9.5 44t5.5 29.5 t3.5 23.5t1.5 17t0.5 18.5q0 106 -65 167.5t-175 61.5q-105 0 -198 -82t-123 -219l-146 -682h-108l82 383q8 39 17.5 83t15 69t12 53.5t9.5 43.5t6.5 32t4.5 26t3 19t2 16.5t0.5 13.5t0.5 15q0 106 -64.5 167.5t-174.5 61.5q-105 0 -198.5 -82t-123.5 -219l-145 -682h-109z " />
<glyph unicode="n" horiz-adv-x="1124" d="M51 0l225 1057h109l-27 -121q44 66 124.5 107.5t187.5 41.5q61 0 120 -18.5t110 -54.5t82.5 -100t31.5 -146q0 -44 -9 -94t-61 -289l-82 -383h-108l82 383q8 39 17.5 83t15 69t12 53.5t9.5 43.5t6.5 32t4.5 26t3 19t2 16.5t0.5 13.5t0.5 15q0 107 -66 168t-190 61 q-125 0 -220.5 -80.5t-125.5 -220.5l-145 -682h-109z" />
<glyph unicode="o" horiz-adv-x="1083" d="M98 299q0 44 9 94t61 289q86 403 473 403q61 0 120 -18.5t110 -54.5t82.5 -100t31.5 -146q0 -44 -9 -94t-61 -289q-86 -403 -473 -403q-61 0 -120 18.5t-110 54.5t-82.5 100t-31.5 146zM205 311q0 -107 66 -168t190 -61q125 0 220.5 80.5t125.5 220.5q11 50 22 101.5 t17 79.5t12.5 57.5t9.5 44t5.5 29.5t3.5 23.5t1.5 17t0.5 18.5q0 107 -66 168t-190 61q-126 0 -221.5 -80.5t-125.5 -220.5q-8 -39 -17.5 -83t-15 -69t-12 -53.5t-9.5 -43.5t-6.5 -32t-4.5 -26t-3 -19t-2 -16.5t-0.5 -13.5t-0.5 -15z" />
<glyph unicode="p" horiz-adv-x="1112" d="M-29 -377l305 1434h109l-27 -121q44 66 124.5 107.5t187.5 41.5q61 0 120 -18.5t110 -54.5t82.5 -100t31.5 -146q0 -44 -9 -94t-61 -289q-86 -403 -473 -403q-108 0 -182.5 52.5t-98.5 117.5l-110 -527h-109zM233 311q0 -107 66 -168t190 -61q126 0 221.5 80.5 t125.5 220.5q8 39 17.5 83t15 69t12 53.5t9.5 43.5t6.5 32t4.5 26t3 19t2 16.5t0.5 13.5t0.5 15q0 107 -66 168t-190 61q-125 0 -220.5 -80.5t-125.5 -220.5q-11 -50 -22 -101.5t-17 -79.5t-12.5 -57.5t-9.5 -44t-5.5 -29.5t-3.5 -23.5t-1.5 -17t-0.5 -18.5z" />
<glyph unicode="q" horiz-adv-x="1110" d="M98 299q0 44 9 94t61 289q86 403 473 403q108 0 182.5 -52.5t98.5 -117.5l28 142h109l-305 -1434h-109l109 506q-44 -66 -124.5 -107.5t-187.5 -41.5q-61 0 -120 18.5t-110 54.5t-82.5 100t-31.5 146zM205 311q0 -107 66 -168t190 -61q125 0 220.5 80.5t125.5 220.5 q11 50 22 101.5t17 79.5t12.5 57.5t9.5 44t5.5 29.5t3.5 23.5t1.5 17t0.5 18.5q0 107 -66 168t-190 61q-126 0 -221.5 -80.5t-125.5 -220.5q-8 -39 -17.5 -83t-15 -69t-12 -53.5t-9.5 -43.5t-6.5 -32t-4.5 -26t-3 -19t-2 -16.5t-0.5 -13.5t-0.5 -15z" />
<glyph unicode="r" horiz-adv-x="645" d="M51 0l225 1057h109l-29 -131q44 66 124.5 107.5t187.5 41.5h49l-23 -102h-45q-125 0 -220.5 -80.5t-125.5 -220.5l-143 -672h-109z" />
<glyph unicode="s" horiz-adv-x="991" d="M49 303v27h107v-23q0 -76 41.5 -128t107 -74.5t150.5 -22.5q74 0 136 21t104 69.5t42 116.5q0 129 -153 172l-205 61q-95 22 -154 93t-59 165q0 74 31.5 133.5t84 96t117.5 56t136 19.5q70 0 135.5 -19t119.5 -55.5t86.5 -96t32.5 -134.5v-26h-106v16q0 102 -78.5 157.5 t-187.5 55.5q-105 0 -185 -52t-80 -138q0 -72 37.5 -111t126.5 -66l191 -57q100 -30 158.5 -96.5t58.5 -159.5q0 -161 -108.5 -242t-299.5 -81q-76 0 -144 20t-123 58.5t-87.5 101.5t-32.5 143z" />
<glyph unicode="t" horiz-adv-x="673" d="M143 156q0 38 88 450q44 209 74 348h-149l22 103h150l51 239h108l-51 -239h260l-22 -103h-260q-164 -761 -164 -794q0 -58 74 -58h170l-23 -102h-141q-93 0 -140 41t-47 115z" />
<glyph unicode="u" horiz-adv-x="1110" d="M113 299q0 40 10.5 98t56.5 277l82 383h109l-82 -383q-10 -47 -21.5 -100.5t-17.5 -80t-12.5 -57.5t-9 -45.5t-5.5 -31t-3.5 -27t-0.5 -21.5q0 -106 65 -167.5t185 -61.5q118 0 213 81t125 220l143 674h109l-225 -1057h-109l29 129q-37 -59 -119 -104t-178 -45 q-61 0 -120 19t-110 55.5t-82.5 100t-31.5 144.5z" />
<glyph unicode="v" horiz-adv-x="925" d="M135 1057h107l135 -910l516 910h123l-604 -1057h-119z" />
<glyph unicode="w" horiz-adv-x="1384" d="M150 1057h106l41 -901l434 901h141l50 -903l421 903h117l-502 -1057h-129l-51 915l-444 -915h-129z" />
<glyph unicode="x" horiz-adv-x="942" d="M-70 0l473 541l-235 516h117l196 -439l381 439h133l-460 -527l239 -530h-117l-202 453l-392 -453h-133z" />
<glyph unicode="y" horiz-adv-x="925" d="M-8 -377l22 103h56q20 0 37.5 7t29 14.5t26 27.5t21.5 31t23 40l86 152l-158 1059h107l135 -910l516 910h123l-701 -1223q-22 -39 -29 -50.5t-27 -42.5t-31 -41.5t-33 -30t-41.5 -26.5t-48 -13.5t-60.5 -6.5h-53z" />
<glyph unicode="z" horiz-adv-x="976" d="M-20 0l22 102l819 852h-628l22 103h770l-22 -103l-820 -852h656l-23 -102h-796z" />
<glyph unicode="{" horiz-adv-x="602" d="M131 580l19 86h20q78 0 111 29t47 96l92 432q27 129 80 170t184 41h21l-19 -84h-20q-80 0 -111.5 -26t-46.5 -101l-92 -432q-16 -72 -40 -115.5t-65 -65.5q39 -34 39 -102q0 -31 -52 -269.5t-52 -271.5q0 -40 22.5 -55.5t87.5 -15.5h21l-19 -84h-20q-180 0 -180 159 q0 30 52 269t52 266q0 38 -24.5 56t-85.5 18h-21z" />
<glyph unicode="|" horiz-adv-x="436" d="M174 -205v1639h88v-1639h-88z" />
<glyph unicode="}" horiz-adv-x="602" d="M-61 -188l18 84h20q80 0 111.5 26t46.5 101l92 432q16 72 40 115t65 65q-39 34 -39 102q0 31 52 269.5t52 271.5q0 40 -22.5 56t-87.5 16h-21l19 84h20q180 0 180 -160q0 -30 -52 -269t-52 -266q0 -38 25 -55.5t86 -17.5h20l-18 -86h-21q-78 0 -111 -29t-47 -96l-92 -432 q-27 -129 -80 -170t-184 -41h-20z" />
<glyph unicode="~" horiz-adv-x="1079" d="M145 549q47 52 115 85.5t127 33.5q53 0 115 -24t118.5 -47.5t94.5 -23.5q33 0 81 23t99 72l61 -68q-47 -52 -114.5 -85.5t-126.5 -33.5q-53 0 -115 23.5t-118.5 47t-94.5 23.5q-33 0 -81.5 -22.5t-98.5 -71.5z" />
<glyph unicode="&#xa1;" horiz-adv-x="479" d="M-6 -377l213 1004h108l-213 -1004h-108zM229 885l37 172h172l-37 -172h-172z" />
<glyph unicode="&#xa2;" horiz-adv-x="1077" d="M109 299q0 45 9.5 98t59.5 285q86 403 473 403q61 0 120 -18.5t110 -54.5t82.5 -100t31.5 -146v-29h-106v17q0 107 -66 168t-190 61q-125 0 -220.5 -80.5t-125.5 -220.5q-11 -50 -22 -101.5t-17 -79.5t-12.5 -57.5t-9.5 -44t-5.5 -29.5t-3.5 -23.5t-1.5 -17t-0.5 -18.5 q0 -107 66 -168t190 -61q112 0 201.5 65.5t130.5 180.5h108q-102 -348 -458 -348q-61 0 -120 18.5t-110 54.5t-82.5 100t-31.5 146zM352 -205l314 1475h88l-314 -1475h-88z" />
<glyph unicode="&#xa3;" horiz-adv-x="1208" d="M33 0l20 102h33q42 0 75.5 28.5t45.5 80.5l98 465h-131l19 86h131l63 289q86 403 463 403q48 0 95.5 -10.5t93.5 -35t81 -60t56.5 -90t21.5 -121.5q0 -45 -8 -97h-107q9 56 9 78q0 118 -69 176t-192 58q-122 0 -213.5 -80.5t-121.5 -220.5l-64 -289h594l-18 -86h-594 l-99 -465q-17 -87 -51 -109h731l-22 -102h-940z" />
<glyph unicode="&#xa4;" horiz-adv-x="1474" d="M176 164l172 174q-131 153 -131 358q0 206 131 359l-172 174l64 61l172 -174q152 133 358 133t358 -133l172 174l64 -61l-174 -174q133 -152 133 -359q0 -206 -133 -358l174 -174l-64 -62l-172 172q-153 -131 -358 -131t-358 131l-172 -172zM322 696q0 -186 131 -317 t317 -131t317.5 131t131.5 317t-131.5 317.5t-317.5 131.5t-317 -131.5t-131 -317.5z" />
<glyph unicode="&#xa5;" horiz-adv-x="1200" d="M145 299l19 88h350l45 209h-350l18 88h299l-274 750h110l265 -721l573 721h133l-596 -750h299l-18 -88h-350l-45 -209h350l-19 -88h-350l-63 -299h-109l64 299h-351z" />
<glyph unicode="&#xa6;" horiz-adv-x="436" d="M174 -205v694h88v-694h-88zM174 739v695h88v-695h-88z" />
<glyph unicode="&#xa7;" horiz-adv-x="1134" d="M68 -94q0 29 4 49h92l-2 -37q0 -101 74 -165t186 -64q120 0 205.5 71.5t85.5 188.5q0 73 -37 133t-96 82l-224 82q-221 83 -221 274q0 269 289 338q-98 95 -98 238q0 163 109 260.5t284 97.5q153 0 249.5 -86t96.5 -217q0 -11 -2 -29h-92v17q0 101 -74 165t-186 64 q-120 0 -205.5 -71.5t-85.5 -188.5q0 -73 37 -133t96 -82l223 -82q221 -83 221 -274q0 -267 -290 -340q45 -42 72.5 -103.5t27.5 -132.5q0 -163 -109 -260.5t-284 -97.5q-153 0 -249.5 86t-96.5 217zM229 541q0 -75 45.5 -128t120.5 -79l172 -64q134 2 235 68t101 178 q0 75 -45.5 128t-120.5 79l-174 63q-134 -2 -234 -67.5t-100 -177.5z" />
<glyph unicode="&#xa8;" horiz-adv-x="839" d="M291 1212l39 179h108l-39 -179h-108zM727 1212l39 179h108l-38 -179h-109z" />
<glyph unicode="&#xa9;" horiz-adv-x="1679" d="M141 717q0 150 58.5 286.5t157 235.5t235.5 157t287 58t286.5 -58t235.5 -157t157 -235.5t58 -286.5t-58 -286.5t-157 -235.5t-235.5 -157t-286.5 -58t-287 58t-235.5 157t-157 235.5t-58.5 286.5zM229 717q0 -132 51.5 -252.5t138 -207.5t207 -139t253.5 -52 q177 0 326.5 87.5t236 237.5t86.5 326t-86.5 326t-236 237.5t-326.5 87.5q-133 0 -253.5 -52t-207 -139t-138 -207.5t-51.5 -252.5zM592 559v313q0 139 79.5 221.5t207.5 82.5q121 0 198 -73.5t86 -201.5h-88q-7 91 -61.5 140t-134.5 49q-87 0 -143 -57t-56 -161v-313 q0 -105 56 -161t143 -56q80 0 134.5 49t61.5 139h88q-9 -128 -86 -201t-198 -73q-128 0 -207.5 82t-79.5 221z" />
<glyph unicode="&#xaa;" horiz-adv-x="638" d="M164 973q0 80 35.5 124t122.5 70q74 23 284 35q8 50 8 62q0 51 -37.5 77.5t-89.5 26.5q-130 0 -174 -121h-88q30 107 97.5 155t175.5 48q84 0 144 -46.5t60 -127.5q0 -19 -5.5 -53t-18 -93.5t-16.5 -80.5q-3 -15 -8.5 -38.5t-16 -74t-18 -83.5t-7.5 -32h-88l15 66 q-25 -36 -73 -57t-106 -21q-90 0 -143 49t-53 115zM252 981q0 -39 32.5 -63.5t94.5 -24.5q73 0 126 40.5t68 115.5l17 73q-111 -6 -164 -14t-100 -27q-74 -28 -74 -100z" />
<glyph unicode="&#xab;" horiz-adv-x="944" d="M117 504l22 110l396 293l-29 -133l-303 -225l207 -225l-25 -113zM459 504l22 110l396 293l-29 -133l-303 -225l207 -225l-25 -113z" />
<glyph unicode="&#xac;" horiz-adv-x="1142" d="M176 528v93h811v-453h-92v360h-719z" />
<glyph unicode="&#xad;" horiz-adv-x="839" d="M125 528l18 93h594l-18 -93h-594z" />
<glyph unicode="&#xae;" horiz-adv-x="1679" d="M141 717q0 150 58.5 286.5t157 235.5t235.5 157t287 58t286.5 -58t235.5 -157t157 -235.5t58 -286.5t-58 -286.5t-157 -235.5t-235.5 -157t-286.5 -58t-287 58t-235.5 157t-157 235.5t-58.5 286.5zM229 717q0 -132 51.5 -252.5t138 -207.5t207 -139t253.5 -52 q177 0 326.5 87.5t236 237.5t86.5 326t-86.5 326t-236 237.5t-326.5 87.5q-133 0 -253.5 -52t-207 -139t-138 -207.5t-51.5 -252.5zM631 268v895h305q123 0 187.5 -70.5t64.5 -172.5q0 -93 -54.5 -161t-158.5 -79l244 -412h-103l-242 410h-155v-410h-88zM719 764h217 q74 0 119 43t45 113t-45 112.5t-119 42.5h-217v-311z" />
<glyph unicode="&#xaf;" horiz-adv-x="874" d="M295 1255l18 93h592l-18 -93h-592z" />
<glyph unicode="&#xb0;" horiz-adv-x="870" d="M236 1124q0 132 93.5 226t225.5 94t225.5 -94t93.5 -226t-93.5 -225.5t-225.5 -93.5t-225.5 93.5t-93.5 225.5zM328 1124q0 -95 66 -162t161 -67t161 67t66 162q0 96 -66 163t-161 67t-161 -67t-66 -163z" />
<glyph unicode="&#xb1;" horiz-adv-x="1142" d="M176 0v92h811v-92h-811zM176 649v92h361v316h92v-316h358v-92h-358v-315h-92v315h-361z" />
<glyph unicode="&#xb2;" horiz-adv-x="612" d="M125 821l18 84l365 328q39 35 64.5 63t49 73t23.5 89q0 57 -35 90t-98 33q-68 0 -117 -47t-59 -131h-88q26 135 92.5 198.5t183.5 63.5q100 0 153.5 -59t53.5 -136q0 -51 -12.5 -94.5t-39.5 -81t-50.5 -62.5t-63.5 -61l-295 -266h351l-17 -84h-479z" />
<glyph unicode="&#xb3;" horiz-adv-x="614" d="M176 1004q0 39 6 55h84q-6 -27 -6 -43q0 -56 35.5 -89.5t97.5 -33.5q74 0 125 56t51 128q0 51 -33 86t-90 35h-59l19 84h59q76 0 130 54.5t54 121.5q0 56 -35.5 89.5t-99.5 33.5q-68 0 -116 -47t-60 -131h-88q26 136 92.5 199t185.5 63q99 0 152 -59t53 -136 q0 -88 -42 -149.5t-109 -91.5q34 -23 53.5 -61.5t19.5 -82.5q0 -120 -71.5 -198t-202.5 -78q-99 0 -152 59t-53 136z" />
<glyph unicode="&#xb4;" horiz-adv-x="610" d="M309 1169l174 265h172l-241 -265h-105z" />
<glyph unicode="&#xb6;" horiz-adv-x="1091" d="M174 975q0 201 140.5 330t363.5 129h422l-342 -1612h-88l323 1526h-225l-324 -1526h-88l168 792h-20q-143 0 -236.5 106.5t-93.5 254.5z" />
<glyph unicode="&#xb7;" horiz-adv-x="561" d="M193 508l34 172h172l-34 -172h-172z" />
<glyph unicode="&#xb8;" horiz-adv-x="509" d="M-51 -324l119 324h100l-78 -324h-141z" />
<glyph unicode="&#xb9;" horiz-adv-x="417" d="M246 1395l24 121l191 137h88l-178 -832h-88l153 711z" />
<glyph unicode="&#xba;" horiz-adv-x="638" d="M182 985q0 18 6 52.5t18.5 93t16.5 79.5q27 128 96.5 184t186.5 56q83 0 144 -46.5t61 -127.5q0 -15 -4.5 -44t-9.5 -52t-15 -68.5t-14 -62.5q-27 -127 -96 -183.5t-185 -56.5q-84 0 -144.5 47.5t-60.5 128.5zM270 997q0 -52 37 -78t90 -26q71 0 118.5 40t64.5 116 q41 185 41 215q0 51 -36.5 77.5t-90.5 26.5q-70 0 -118 -40t-65 -116q-4 -23 -16 -75.5t-18.5 -88t-6.5 -51.5z" />
<glyph unicode="&#xbb;" horiz-adv-x="944" d="M68 211l28 133l303 225l-206 226l24 112l268 -293l-22 -110zM410 211l28 133l303 225l-206 226l24 112l268 -293l-22 -110z" />
<glyph unicode="&#xbc;" horiz-adv-x="1392" d="M170 0l985 1434h98l-985 -1434h-98zM283 1176l24 120l191 138h88l-178 -832h-89l154 711zM692 225l17 80l493 526h88l-112 -526h86l-17 -80h-88l-47 -225h-88l47 225h-379zM819 305h271l79 375z" />
<glyph unicode="&#xbd;" horiz-adv-x="1468" d="M170 0l985 1434h98l-985 -1434h-98zM283 1176l24 120l191 138h88l-178 -832h-89l154 711zM754 0l18 84l365 328q39 35 64.5 63t49 73t23.5 89q0 57 -35 90t-98 33q-68 0 -117 -47t-59 -131h-88q26 135 92.5 198.5t183.5 63.5q100 0 153.5 -59t53.5 -136 q0 -51 -12.5 -94.5t-39.5 -81t-50.5 -62.5t-63.5 -61l-295 -266h350l-16 -84h-479z" />
<glyph unicode="&#xbe;" horiz-adv-x="1507" d="M172 784q0 40 6 56h84q-6 -27 -6 -43q0 -56 35.5 -89.5t97.5 -33.5q74 0 125 56t51 128q0 51 -33 86t-90 35h-59l18 84h60q76 0 130 54.5t54 121.5q0 56 -35.5 89.5t-99.5 33.5q-68 0 -116 -47t-60 -131h-88q26 136 92.5 199t185.5 63q99 0 152 -59t53 -136 q0 -88 -42 -149.5t-109 -91.5q34 -23 53.5 -61.5t19.5 -82.5q0 -120 -71.5 -198t-202.5 -78q-99 0 -152 58.5t-53 135.5zM285 0l985 1434h98l-985 -1434h-98zM809 225l16 80l494 526h88l-113 -526h86l-16 -80h-88l-47 -225h-88l47 225h-379zM936 305h270l80 375z" />
<glyph unicode="&#xbf;" horiz-adv-x="997" d="M-10 -80q0 118 63 224.5t168 187.5l146 112q54 42 74.5 69.5t29.5 68.5l8 45h109l-8 -45q-27 -127 -154 -224l-147 -112q-183 -138 -183 -307q0 -118 68.5 -176t191.5 -58q139 0 229 94t113 234h109q-79 -430 -469 -430q-48 0 -95.5 10.5t-93.5 35t-81 60t-56.5 90 t-21.5 121.5zM508 885l37 172h172l-37 -172h-172z" />
<glyph unicode="&#xc0;" d="M-72 0l791 1434h102l183 -1434h-107l-57 446h-545l-246 -446h-121zM350 547h477l-90 702zM557 1749h166l158 -223h-109z" />
<glyph unicode="&#xc1;" d="M-72 0l791 1434h102l183 -1434h-107l-57 446h-545l-246 -446h-121zM350 547h477l-90 702zM662 1526l204 223h176l-262 -223h-118z" />
<glyph unicode="&#xc2;" d="M-72 0l791 1434h102l183 -1434h-107l-57 446h-545l-246 -446h-121zM350 547h477l-90 702zM479 1526l303 223h107l209 -223h-137l-136 129l-188 -129h-158z" />
<glyph unicode="&#xc3;" d="M-72 0l791 1434h102l183 -1434h-107l-57 446h-545l-246 -446h-121zM350 547h477l-90 702zM500 1550q55 181 209 181q46 0 92 -25l67 -35q40 -20 60 -20q55 0 90 75h115q-17 -57 -42.5 -95t-55.5 -55.5t-55.5 -23.5t-55.5 -6q-47 0 -93 25l-67 35q-40 20 -59 20 q-55 0 -91 -76h-114z" />
<glyph unicode="&#xc4;" d="M-72 0l791 1434h102l183 -1434h-107l-57 446h-545l-246 -446h-121zM350 547h477l-90 702zM522 1548l39 178h113l-39 -178h-113zM954 1548l39 178h113l-39 -178h-113z" />
<glyph unicode="&#xc5;" d="M-72 0l791 1434h102l183 -1434h-107l-57 446h-545l-246 -446h-121zM350 547h477l-90 702zM662 1636q0 63 44 108.5t107 45.5t108.5 -45.5t45.5 -108.5t-45.5 -107t-108.5 -44t-107 44t-44 107zM754 1636q0 -25 17 -42t42 -17t43 17t18 42t-18 43.5t-43 18.5 q-24 0 -41.5 -18.5t-17.5 -43.5z" />
<glyph unicode="&#xc6;" horiz-adv-x="1687" d="M-88 0l962 1434h863l-23 -107h-680l-116 -549h679l-22 -104h-680l-121 -568h680l-22 -106h-793l94 446h-391l-299 -446h-131zM410 547h346l159 751z" />
<glyph unicode="&#xc7;" horiz-adv-x="1144" d="M106 352q0 16 1 28.5t2 26t5.5 38.5t9.5 49t16 75t21.5 99.5t29.5 139.5t38 179q98 467 521 467q164 0 277.5 -102.5t113.5 -270.5q0 -33 -4 -57h-111q2 20 2 43q0 134 -83.5 207.5t-209.5 73.5q-145 0 -250 -88.5t-143 -272.5q-25 -118 -48 -226t-34.5 -160t-21 -97.5 t-13 -65.5t-5 -36t-1.5 -35q0 -134 83.5 -207.5t209.5 -73.5q139 0 241 79.5t144 244.5h113q-51 -200 -165 -309t-306 -119l-72 -306h-145l102 310q-139 21 -228.5 119t-89.5 247z" />
<glyph unicode="&#xc8;" horiz-adv-x="1107" d="M59 0l306 1434h792l-22 -107h-680l-117 -549h680l-23 -104h-680l-120 -568h679l-22 -106h-793zM547 1749h166l157 -223h-108z" />
<glyph unicode="&#xc9;" horiz-adv-x="1107" d="M59 0l306 1434h792l-22 -107h-680l-117 -549h680l-23 -104h-680l-120 -568h679l-22 -106h-793zM651 1526l205 223h176l-262 -223h-119z" />
<glyph unicode="&#xca;" horiz-adv-x="1107" d="M59 0l306 1434h792l-22 -107h-680l-117 -549h680l-23 -104h-680l-120 -568h679l-22 -106h-793zM469 1526l303 223h107l208 -223h-137l-135 129l-188 -129h-158z" />
<glyph unicode="&#xcb;" horiz-adv-x="1107" d="M59 0l306 1434h792l-22 -107h-680l-117 -549h680l-23 -104h-680l-120 -568h679l-22 -106h-793zM512 1548l39 178h113l-39 -178h-113zM944 1548l39 178h113l-39 -178h-113z" />
<glyph unicode="&#xcc;" horiz-adv-x="460" d="M61 0l306 1434h112l-305 -1434h-113zM209 1749h166l157 -223h-108z" />
<glyph unicode="&#xcd;" horiz-adv-x="460" d="M61 0l306 1434h112l-305 -1434h-113zM313 1526l205 223h176l-262 -223h-119z" />
<glyph unicode="&#xce;" horiz-adv-x="460" d="M61 0l306 1434h112l-305 -1434h-113zM131 1526l303 223h107l209 -223h-138l-135 129l-188 -129h-158z" />
<glyph unicode="&#xcf;" horiz-adv-x="460" d="M61 0l306 1434h112l-305 -1434h-113zM174 1548l39 178h113l-39 -178h-113zM606 1548l39 178h113l-39 -178h-113z" />
<glyph unicode="&#xd0;" horiz-adv-x="1230" d="M84 0l143 672h-143l18 92h144l143 670h422q164 0 277.5 -102.5t113.5 -270.5q0 -15 -1.5 -31.5t-3.5 -33t-7.5 -46t-10.5 -54.5t-15.5 -74.5t-19.5 -91t-26 -119t-31 -144.5q-49 -227 -174.5 -347t-345.5 -120h-483zM219 106h363q145 0 250 88.5t143 272.5 q25 119 47.5 223.5t33 152.5t19 87.5t11 56t3.5 28.5t1 32q0 134 -83.5 207t-209.5 73h-318l-121 -563h340l-18 -92h-340z" />
<glyph unicode="&#xd1;" horiz-adv-x="1253" d="M61 0l306 1434h112l418 -1239l262 1239h113l-305 -1434h-113l-418 1239l-262 -1239h-113zM549 1550q55 181 209 181q46 0 92 -25l68 -35q40 -20 59 -20q55 0 90 75h115q-17 -57 -42.5 -95t-55.5 -55.5t-55.5 -23.5t-55.5 -6q-46 0 -92 25l-68 35q-40 20 -59 20 q-54 0 -90 -76h-115z" />
<glyph unicode="&#xd2;" horiz-adv-x="1165" d="M106 352q0 16 1 28.5t2 26t5.5 38.5t9.5 49t16 75t21.5 99.5t29.5 139.5t38 179q98 467 521 467q164 0 277.5 -102.5t113.5 -270.5q0 -16 -1 -28.5t-2 -26t-5.5 -38.5t-9.5 -49t-16 -75t-21.5 -99.5t-29.5 -139.5t-38 -179q-48 -227 -174 -346.5t-346 -119.5 q-164 0 -278 102t-114 270zM219 367q0 -134 83.5 -207.5t209.5 -73.5q146 0 250.5 88t142.5 272q25 118 48 226.5t34.5 160t21 97.5t13 65.5t5 36t1.5 35.5q0 134 -83.5 207.5t-209.5 73.5q-145 0 -250 -88.5t-143 -272.5q-25 -118 -48 -226t-34.5 -160t-21 -97.5t-13 -65.5 t-5 -36t-1.5 -35zM565 1749h166l158 -223h-109z" />
<glyph unicode="&#xd3;" horiz-adv-x="1165" d="M106 352q0 16 1 28.5t2 26t5.5 38.5t9.5 49t16 75t21.5 99.5t29.5 139.5t38 179q98 467 521 467q164 0 277.5 -102.5t113.5 -270.5q0 -16 -1 -28.5t-2 -26t-5.5 -38.5t-9.5 -49t-16 -75t-21.5 -99.5t-29.5 -139.5t-38 -179q-48 -227 -174 -346.5t-346 -119.5 q-164 0 -278 102t-114 270zM219 367q0 -134 83.5 -207.5t209.5 -73.5q146 0 250.5 88t142.5 272q25 118 48 226.5t34.5 160t21 97.5t13 65.5t5 36t1.5 35.5q0 134 -83.5 207.5t-209.5 73.5q-145 0 -250 -88.5t-143 -272.5q-25 -118 -48 -226t-34.5 -160t-21 -97.5t-13 -65.5 t-5 -36t-1.5 -35zM670 1526l204 223h177l-263 -223h-118z" />
<glyph unicode="&#xd4;" horiz-adv-x="1165" d="M106 352q0 16 1 28.5t2 26t5.5 38.5t9.5 49t16 75t21.5 99.5t29.5 139.5t38 179q98 467 521 467q164 0 277.5 -102.5t113.5 -270.5q0 -16 -1 -28.5t-2 -26t-5.5 -38.5t-9.5 -49t-16 -75t-21.5 -99.5t-29.5 -139.5t-38 -179q-48 -227 -174 -346.5t-346 -119.5 q-164 0 -278 102t-114 270zM219 367q0 -134 83.5 -207.5t209.5 -73.5q146 0 250.5 88t142.5 272q25 118 48 226.5t34.5 160t21 97.5t13 65.5t5 36t1.5 35.5q0 134 -83.5 207.5t-209.5 73.5q-145 0 -250 -88.5t-143 -272.5q-25 -118 -48 -226t-34.5 -160t-21 -97.5t-13 -65.5 t-5 -36t-1.5 -35zM487 1526l304 223h106l209 -223h-137l-135 129l-189 -129h-158z" />
<glyph unicode="&#xd5;" horiz-adv-x="1165" d="M106 352q0 16 1 28.5t2 26t5.5 38.5t9.5 49t16 75t21.5 99.5t29.5 139.5t38 179q98 467 521 467q164 0 277.5 -102.5t113.5 -270.5q0 -16 -1 -28.5t-2 -26t-5.5 -38.5t-9.5 -49t-16 -75t-21.5 -99.5t-29.5 -139.5t-38 -179q-48 -227 -174 -346.5t-346 -119.5 q-164 0 -278 102t-114 270zM219 367q0 -134 83.5 -207.5t209.5 -73.5q146 0 250.5 88t142.5 272q25 118 48 226.5t34.5 160t21 97.5t13 65.5t5 36t1.5 35.5q0 134 -83.5 207.5t-209.5 73.5q-145 0 -250 -88.5t-143 -272.5q-25 -118 -48 -226t-34.5 -160t-21 -97.5t-13 -65.5 t-5 -36t-1.5 -35zM506 1550q55 181 209 181q46 0 92 -25l67 -35q40 -20 60 -20q55 0 90 75h115q-17 -57 -42.5 -95t-55.5 -55.5t-55.5 -23.5t-55.5 -6q-46 0 -92 25l-68 35q-40 20 -59 20q-54 0 -90 -76h-115z" />
<glyph unicode="&#xd6;" horiz-adv-x="1165" d="M106 352q0 16 1 28.5t2 26t5.5 38.5t9.5 49t16 75t21.5 99.5t29.5 139.5t38 179q98 467 521 467q164 0 277.5 -102.5t113.5 -270.5q0 -16 -1 -28.5t-2 -26t-5.5 -38.5t-9.5 -49t-16 -75t-21.5 -99.5t-29.5 -139.5t-38 -179q-48 -227 -174 -346.5t-346 -119.5 q-164 0 -278 102t-114 270zM219 367q0 -134 83.5 -207.5t209.5 -73.5q146 0 250.5 88t142.5 272q25 118 48 226.5t34.5 160t21 97.5t13 65.5t5 36t1.5 35.5q0 134 -83.5 207.5t-209.5 73.5q-145 0 -250 -88.5t-143 -272.5q-25 -118 -48 -226t-34.5 -160t-21 -97.5t-13 -65.5 t-5 -36t-1.5 -35zM528 1548l39 178h113l-39 -178h-113zM961 1548l38 178h113l-39 -178h-112z" />
<glyph unicode="&#xd7;" horiz-adv-x="1142" d="M166 227l348 346l-348 349l65 65l349 -348l350 348l65 -65l-350 -349l350 -346l-65 -65l-350 346l-349 -346z" />
<glyph unicode="&#xd8;" horiz-adv-x="1177" d="M27 10l127 166q-41 74 -41 176q0 16 1 28.5t2 26t5.5 38.5t9.5 49t16 75t21.5 99.5t29.5 139.5t38 179q98 467 520 467q86 0 162.5 -31t130.5 -88l108 140l78 -52l-129 -168q41 -80 41 -174q0 -16 -1 -28.5t-2 -26t-5.5 -38.5t-9.5 -49t-16 -75t-21.5 -99.5t-29.5 -139.5 t-38 -179q-48 -227 -174 -346.5t-346 -119.5q-182 0 -295 116l-105 -135zM225 367q0 -52 11 -86l743 962q-39 51 -101.5 78t-136.5 27q-145 0 -250 -88.5t-143 -272.5q-25 -118 -48 -226t-34.5 -160t-21 -97.5t-13 -65.5t-5 -36t-1.5 -35zM281 188q80 -102 237 -102 q146 0 250.5 88t142.5 272q25 118 48 226.5t34.5 160t21 97.5t13 65.5t5 36t1.5 35.5q0 39 -10 84z" />
<glyph unicode="&#xd9;" horiz-adv-x="1216" d="M129 352q0 41 11 99t74 349q76 351 136 634h113q-57 -268 -131 -609q-64 -294 -76 -356.5t-12 -101.5q0 -134 83.5 -207.5t209.5 -73.5q95 0 171 35t135.5 117.5t86.5 207.5l211 988h112l-211 -988q-48 -227 -174 -346.5t-346 -119.5q-164 0 -278.5 102t-114.5 270z M584 1749h166l157 -223h-108z" />
<glyph unicode="&#xda;" horiz-adv-x="1216" d="M129 352q0 41 11 99t74 349q76 351 136 634h113q-57 -268 -131 -609q-64 -294 -76 -356.5t-12 -101.5q0 -134 83.5 -207.5t209.5 -73.5q95 0 171 35t135.5 117.5t86.5 207.5l211 988h112l-211 -988q-48 -227 -174 -346.5t-346 -119.5q-164 0 -278.5 102t-114.5 270z M692 1526l205 223h176l-262 -223h-119z" />
<glyph unicode="&#xdb;" horiz-adv-x="1216" d="M129 352q0 41 11 99t74 349q76 351 136 634h113q-57 -268 -131 -609q-64 -294 -76 -356.5t-12 -101.5q0 -134 83.5 -207.5t209.5 -73.5q95 0 171 35t135.5 117.5t86.5 207.5l211 988h112l-211 -988q-48 -227 -174 -346.5t-346 -119.5q-164 0 -278.5 102t-114.5 270z M510 1526l303 223h107l208 -223h-137l-135 129l-188 -129h-158z" />
<glyph unicode="&#xdc;" horiz-adv-x="1216" d="M129 352q0 41 11 99t74 349q76 351 136 634h113q-57 -268 -131 -609q-64 -294 -76 -356.5t-12 -101.5q0 -134 83.5 -207.5t209.5 -73.5q95 0 171 35t135.5 117.5t86.5 207.5l211 988h112l-211 -988q-48 -227 -174 -346.5t-346 -119.5q-164 0 -278.5 102t-114.5 270z M553 1548l39 178h113l-39 -178h-113zM985 1548l39 178h113l-39 -178h-113z" />
<glyph unicode="&#xdd;" horiz-adv-x="1112" d="M209 1434h115l264 -717l563 717h137l-661 -838l-127 -596h-113l127 596zM639 1526l205 223h176l-262 -223h-119z" />
<glyph unicode="&#xde;" horiz-adv-x="1103" d="M61 0l306 1434h112l-63 -299h309q94 0 169 -31t120.5 -83.5t69.5 -118t24 -138.5q0 -63 -17.5 -126t-57 -124t-95.5 -107.5t-139.5 -75t-182.5 -28.5h-378l-64 -303h-113zM262 410h369q107 0 192 51t128.5 129t43.5 164q0 52 -14.5 97.5t-46 86.5t-91.5 65.5t-143 24.5 h-307z" />
<glyph unicode="&#xdf;" horiz-adv-x="1083" d="M51 0l234 1098q13 62 31 110.5t50 96.5t74.5 79t107 50.5t146.5 19.5q131 0 218 -88t87 -211q0 -117 -49.5 -219.5t-156.5 -161.5q76 -38 119.5 -121.5t43.5 -185.5q0 -66 -14.5 -130.5t-50.5 -130t-90 -115t-141.5 -80.5t-196.5 -31q-63 0 -115 12l25 110 q52 -20 112 -20q161 0 263 108.5t102 268.5q0 118 -71 192t-204 74h-71l22 102h56q135 0 222 89.5t87 228.5q0 93 -57 150t-162 57q-113 0 -183.5 -70t-95.5 -184l-233 -1098h-109z" />
<glyph unicode="&#xe0;" horiz-adv-x="1079" d="M63 264q0 258 256 330q149 42 529 59q14 64 14 101q0 107 -66 168t-190 61q-112 0 -201.5 -65.5t-130.5 -180.5h-108q102 348 459 348q61 0 120 -18.5t110 -54.5t82.5 -100t31.5 -146q0 -44 -9 -94t-61 -289l-82 -383h-108l30 135q-111 -155 -342 -155 q-147 0 -240.5 82.5t-93.5 201.5zM172 272q0 -81 62.5 -135.5t185.5 -54.5q140 0 242 85.5t131 225.5l34 162q-370 -16 -499 -61q-78 -27 -117 -86.5t-39 -135.5zM459 1434h162l118 -265h-94z" />
<glyph unicode="&#xe1;" horiz-adv-x="1079" d="M63 264q0 258 256 330q149 42 529 59q14 64 14 101q0 107 -66 168t-190 61q-112 0 -201.5 -65.5t-130.5 -180.5h-108q102 348 459 348q61 0 120 -18.5t110 -54.5t82.5 -100t31.5 -146q0 -44 -9 -94t-61 -289l-82 -383h-108l30 135q-111 -155 -342 -155 q-147 0 -240.5 82.5t-93.5 201.5zM172 272q0 -81 62.5 -135.5t185.5 -54.5q140 0 242 85.5t131 225.5l34 162q-370 -16 -499 -61q-78 -27 -117 -86.5t-39 -135.5zM545 1169l174 265h172l-242 -265h-104z" />
<glyph unicode="&#xe2;" horiz-adv-x="1079" d="M63 264q0 258 256 330q149 42 529 59q14 64 14 101q0 107 -66 168t-190 61q-112 0 -201.5 -65.5t-130.5 -180.5h-108q102 348 459 348q61 0 120 -18.5t110 -54.5t82.5 -100t31.5 -146q0 -44 -9 -94t-61 -289l-82 -383h-108l30 135q-111 -155 -342 -155 q-147 0 -240.5 82.5t-93.5 201.5zM172 272q0 -81 62.5 -135.5t185.5 -54.5q140 0 242 85.5t131 225.5l34 162q-370 -16 -499 -61q-78 -27 -117 -86.5t-39 -135.5zM360 1169l312 265h106l201 -265h-121l-143 170l-213 -170h-142z" />
<glyph unicode="&#xe3;" horiz-adv-x="1079" d="M63 264q0 258 256 330q149 42 529 59q14 64 14 101q0 107 -66 168t-190 61q-112 0 -201.5 -65.5t-130.5 -180.5h-108q102 348 459 348q61 0 120 -18.5t110 -54.5t82.5 -100t31.5 -146q0 -44 -9 -94t-61 -289l-82 -383h-108l30 135q-111 -155 -342 -155 q-147 0 -240.5 82.5t-93.5 201.5zM172 272q0 -81 62.5 -135.5t185.5 -54.5q140 0 242 85.5t131 225.5l34 162q-370 -16 -499 -61q-78 -27 -117 -86.5t-39 -135.5zM383 1214q55 181 209 181q46 0 92 -25l68 -39q35 -20 67 -20q59 0 96 80h101q-55 -181 -209 -181 q-46 0 -92 25l-68 39q-35 20 -67 20q-60 0 -97 -80h-100z" />
<glyph unicode="&#xe4;" horiz-adv-x="1079" d="M63 264q0 258 256 330q149 42 529 59q14 64 14 101q0 107 -66 168t-190 61q-112 0 -201.5 -65.5t-130.5 -180.5h-108q102 348 459 348q61 0 120 -18.5t110 -54.5t82.5 -100t31.5 -146q0 -44 -9 -94t-61 -289l-82 -383h-108l30 135q-111 -155 -342 -155 q-147 0 -240.5 82.5t-93.5 201.5zM172 272q0 -81 62.5 -135.5t185.5 -54.5q140 0 242 85.5t131 225.5l34 162q-370 -16 -499 -61q-78 -27 -117 -86.5t-39 -135.5zM406 1212l38 179h109l-39 -179h-108zM842 1212l39 179h108l-39 -179h-108z" />
<glyph unicode="&#xe5;" horiz-adv-x="1079" d="M63 264q0 258 256 330q149 42 529 59q14 64 14 101q0 107 -66 168t-190 61q-112 0 -201.5 -65.5t-130.5 -180.5h-108q102 348 459 348q61 0 120 -18.5t110 -54.5t82.5 -100t31.5 -146q0 -44 -9 -94t-61 -289l-82 -383h-108l30 135q-111 -155 -342 -155 q-147 0 -240.5 82.5t-93.5 201.5zM172 272q0 -81 62.5 -135.5t185.5 -54.5q140 0 242 85.5t131 225.5l34 162q-370 -16 -499 -61q-78 -27 -117 -86.5t-39 -135.5zM545 1300q0 63 44 108.5t107 45.5t108.5 -45.5t45.5 -108.5t-45.5 -107t-108.5 -44t-107 44t-44 107z M633 1300q0 -26 18.5 -44.5t44.5 -18.5q27 0 46.5 18.5t19.5 44.5t-20 46t-46 20t-44.5 -19.5t-18.5 -46.5z" />
<glyph unicode="&#xe6;" horiz-adv-x="1753" d="M59 264q0 258 256 330q149 42 529 59q14 64 14 101q0 107 -66 168t-190 61q-112 0 -201.5 -65.5t-130.5 -180.5h-108q102 348 459 348q71 0 132 -19.5t111.5 -65.5t75.5 -115q139 200 383 200q61 0 120 -18.5t110 -54.5t82.5 -100t31.5 -146q0 -37 -6 -74.5t-35 -173.5 h-702q-26 -117 -31.5 -148t-5.5 -59q0 -107 66 -168t190 -61q112 0 200.5 65t129.5 181h110q-102 -348 -459 -348q-68 0 -131 20.5t-118 70.5t-78 122q-22 -37 -51.5 -69.5t-77.5 -67.5t-119 -55.5t-156 -20.5q-147 0 -240.5 82.5t-93.5 201.5zM168 272q0 -81 62.5 -135.5 t185.5 -54.5q140 0 241.5 85.5t130.5 225.5l35 162q-370 -16 -499 -61q-78 -27 -117 -86.5t-39 -135.5zM946 621h594q21 98 21 133q0 107 -66 168t-190 61q-142 0 -239.5 -98t-119.5 -264z" />
<glyph unicode="&#xe7;" horiz-adv-x="1056" d="M98 299q0 44 9 94t61 289q86 403 473 403q61 0 120 -18.5t110 -54.5t82.5 -100t31.5 -146v-29h-106v17q0 107 -66 168t-190 61q-126 0 -221.5 -80.5t-125.5 -220.5q-8 -39 -17.5 -83t-15 -69t-12 -53.5t-9.5 -43.5t-6.5 -32t-4.5 -26t-3 -19t-2 -16.5t-0.5 -13.5 t-0.5 -15q0 -107 66 -168t190 -61q112 0 201.5 65.5t130.5 180.5h108q-93 -320 -407 -346l-74 -306h-141l112 308q-56 6 -106.5 27.5t-93 58.5t-68 96t-25.5 133z" />
<glyph unicode="&#xe8;" horiz-adv-x="1071" d="M98 299q0 44 9 94t61 289q86 403 473 403q61 0 120 -18.5t110 -54.5t82.5 -100t31.5 -146q0 -37 -6 -74.5t-35 -173.5h-702q-26 -117 -31.5 -148t-5.5 -59q0 -107 66 -168t190 -61q112 0 200.5 65t129.5 181h110q-102 -348 -459 -348q-61 0 -120 18.5t-110 54.5 t-82.5 100t-31.5 146zM264 621h594q21 98 21 133q0 107 -66 168t-190 61q-142 0 -239.5 -98t-119.5 -264zM477 1434h162l119 -265h-94z" />
<glyph unicode="&#xe9;" horiz-adv-x="1071" d="M98 299q0 44 9 94t61 289q86 403 473 403q61 0 120 -18.5t110 -54.5t82.5 -100t31.5 -146q0 -37 -6 -74.5t-35 -173.5h-702q-26 -117 -31.5 -148t-5.5 -59q0 -107 66 -168t190 -61q112 0 200.5 65t129.5 181h110q-102 -348 -459 -348q-61 0 -120 18.5t-110 54.5 t-82.5 100t-31.5 146zM264 621h594q21 98 21 133q0 107 -66 168t-190 61q-142 0 -239.5 -98t-119.5 -264zM563 1169l174 265h172l-241 -265h-105z" />
<glyph unicode="&#xea;" horiz-adv-x="1071" d="M98 299q0 44 9 94t61 289q86 403 473 403q61 0 120 -18.5t110 -54.5t82.5 -100t31.5 -146q0 -37 -6 -74.5t-35 -173.5h-702q-26 -117 -31.5 -148t-5.5 -59q0 -107 66 -168t190 -61q112 0 200.5 65t129.5 181h110q-102 -348 -459 -348q-61 0 -120 18.5t-110 54.5 t-82.5 100t-31.5 146zM264 621h594q21 98 21 133q0 107 -66 168t-190 61q-142 0 -239.5 -98t-119.5 -264zM369 1169l311 265h106l201 -265h-121l-143 170l-213 -170h-141z" />
<glyph unicode="&#xeb;" horiz-adv-x="1071" d="M98 299q0 44 9 94t61 289q86 403 473 403q61 0 120 -18.5t110 -54.5t82.5 -100t31.5 -146q0 -37 -6 -74.5t-35 -173.5h-702q-26 -117 -31.5 -148t-5.5 -59q0 -107 66 -168t190 -61q112 0 200.5 65t129.5 181h110q-102 -348 -459 -348q-61 0 -120 18.5t-110 54.5 t-82.5 100t-31.5 146zM264 621h594q21 98 21 133q0 107 -66 168t-190 61q-142 0 -239.5 -98t-119.5 -264zM414 1212l39 179h108l-39 -179h-108zM850 1212l39 179h108l-39 -179h-108z" />
<glyph unicode="&#xec;" horiz-adv-x="436" d="M53 0l223 1057h109l-223 -1057h-109zM152 1434h161l119 -265h-94z" />
<glyph unicode="&#xed;" horiz-adv-x="436" d="M53 0l223 1057h109l-223 -1057h-109zM238 1169l174 265h172l-242 -265h-104z" />
<glyph unicode="&#xee;" horiz-adv-x="436" d="M43 1169l311 265h107l201 -265h-121l-144 170l-213 -170h-141zM53 0l223 1057h109l-223 -1057h-109z" />
<glyph unicode="&#xef;" horiz-adv-x="436" d="M53 0l223 1057h109l-223 -1057h-109zM90 1212l39 179h109l-39 -179h-109zM526 1212l39 179h109l-39 -179h-109z" />
<glyph unicode="&#xf0;" horiz-adv-x="1083" d="M98 299q0 44 9 94t61 289q86 403 473 403q57 0 109 -14l-66 127h-264l18 88h203l-74 148h121l74 -148h172l-19 -88h-110l127 -250q17 -34 26.5 -55t18 -56t8.5 -71q0 -44 -9 -94t-61 -289q-86 -403 -473 -403q-61 0 -120 18.5t-110 54.5t-82.5 100t-31.5 146zM205 311 q0 -107 66 -168t190 -61q125 0 220.5 80.5t125.5 220.5q11 50 22 101.5t17 79.5t12.5 57.5t9.5 44t5.5 29.5t3.5 23.5t1.5 17t0.5 18.5q0 107 -66 168t-190 61q-126 0 -221.5 -80.5t-125.5 -220.5q-8 -39 -17.5 -83t-15 -69t-12 -53.5t-9.5 -43.5t-6.5 -32t-4.5 -26t-3 -19 t-2 -16.5t-0.5 -13.5t-0.5 -15z" />
<glyph unicode="&#xf1;" horiz-adv-x="1124" d="M51 0l225 1057h109l-27 -121q44 66 124.5 107.5t187.5 41.5q61 0 120 -18.5t110 -54.5t82.5 -100t31.5 -146q0 -44 -9 -94t-61 -289l-82 -383h-108l82 383q8 39 17.5 83t15 69t12 53.5t9.5 43.5t6.5 32t4.5 26t3 19t2 16.5t0.5 13.5t0.5 15q0 107 -66 168t-190 61 q-125 0 -220.5 -80.5t-125.5 -220.5l-145 -682h-109zM418 1214q55 181 209 181q46 0 92 -25l67 -39q35 -20 68 -20q59 0 96 80h101q-55 -181 -209 -181q-46 0 -92 25l-68 39q-35 20 -68 20q-59 0 -96 -80h-100z" />
<glyph unicode="&#xf2;" horiz-adv-x="1083" d="M98 299q0 44 9 94t61 289q86 403 473 403q61 0 120 -18.5t110 -54.5t82.5 -100t31.5 -146q0 -44 -9 -94t-61 -289q-86 -403 -473 -403q-61 0 -120 18.5t-110 54.5t-82.5 100t-31.5 146zM205 311q0 -107 66 -168t190 -61q125 0 220.5 80.5t125.5 220.5q11 50 22 101.5 t17 79.5t12.5 57.5t9.5 44t5.5 29.5t3.5 23.5t1.5 17t0.5 18.5q0 107 -66 168t-190 61q-126 0 -221.5 -80.5t-125.5 -220.5q-8 -39 -17.5 -83t-15 -69t-12 -53.5t-9.5 -43.5t-6.5 -32t-4.5 -26t-3 -19t-2 -16.5t-0.5 -13.5t-0.5 -15zM477 1434h162l119 -265h-94z" />
<glyph unicode="&#xf3;" horiz-adv-x="1083" d="M98 299q0 44 9 94t61 289q86 403 473 403q61 0 120 -18.5t110 -54.5t82.5 -100t31.5 -146q0 -44 -9 -94t-61 -289q-86 -403 -473 -403q-61 0 -120 18.5t-110 54.5t-82.5 100t-31.5 146zM205 311q0 -107 66 -168t190 -61q125 0 220.5 80.5t125.5 220.5q11 50 22 101.5 t17 79.5t12.5 57.5t9.5 44t5.5 29.5t3.5 23.5t1.5 17t0.5 18.5q0 107 -66 168t-190 61q-126 0 -221.5 -80.5t-125.5 -220.5q-8 -39 -17.5 -83t-15 -69t-12 -53.5t-9.5 -43.5t-6.5 -32t-4.5 -26t-3 -19t-2 -16.5t-0.5 -13.5t-0.5 -15zM563 1169l174 265h172l-241 -265h-105z " />
<glyph unicode="&#xf4;" horiz-adv-x="1083" d="M98 299q0 44 9 94t61 289q86 403 473 403q61 0 120 -18.5t110 -54.5t82.5 -100t31.5 -146q0 -44 -9 -94t-61 -289q-86 -403 -473 -403q-61 0 -120 18.5t-110 54.5t-82.5 100t-31.5 146zM205 311q0 -107 66 -168t190 -61q125 0 220.5 80.5t125.5 220.5q11 50 22 101.5 t17 79.5t12.5 57.5t9.5 44t5.5 29.5t3.5 23.5t1.5 17t0.5 18.5q0 107 -66 168t-190 61q-126 0 -221.5 -80.5t-125.5 -220.5q-8 -39 -17.5 -83t-15 -69t-12 -53.5t-9.5 -43.5t-6.5 -32t-4.5 -26t-3 -19t-2 -16.5t-0.5 -13.5t-0.5 -15zM369 1169l311 265h106l201 -265h-121 l-143 170l-213 -170h-141z" />
<glyph unicode="&#xf5;" horiz-adv-x="1083" d="M98 299q0 44 9 94t61 289q86 403 473 403q61 0 120 -18.5t110 -54.5t82.5 -100t31.5 -146q0 -44 -9 -94t-61 -289q-86 -403 -473 -403q-61 0 -120 18.5t-110 54.5t-82.5 100t-31.5 146zM205 311q0 -107 66 -168t190 -61q125 0 220.5 80.5t125.5 220.5q11 50 22 101.5 t17 79.5t12.5 57.5t9.5 44t5.5 29.5t3.5 23.5t1.5 17t0.5 18.5q0 107 -66 168t-190 61q-126 0 -221.5 -80.5t-125.5 -220.5q-8 -39 -17.5 -83t-15 -69t-12 -53.5t-9.5 -43.5t-6.5 -32t-4.5 -26t-3 -19t-2 -16.5t-0.5 -13.5t-0.5 -15zM389 1214q55 181 209 181q46 0 92 -25 l68 -39q35 -20 67 -20q60 0 97 80h100q-55 -181 -209 -181q-46 0 -92 25l-68 39q-35 20 -67 20q-60 0 -97 -80h-100z" />
<glyph unicode="&#xf6;" horiz-adv-x="1083" d="M98 299q0 44 9 94t61 289q86 403 473 403q61 0 120 -18.5t110 -54.5t82.5 -100t31.5 -146q0 -44 -9 -94t-61 -289q-86 -403 -473 -403q-61 0 -120 18.5t-110 54.5t-82.5 100t-31.5 146zM205 311q0 -107 66 -168t190 -61q125 0 220.5 80.5t125.5 220.5q11 50 22 101.5 t17 79.5t12.5 57.5t9.5 44t5.5 29.5t3.5 23.5t1.5 17t0.5 18.5q0 107 -66 168t-190 61q-126 0 -221.5 -80.5t-125.5 -220.5q-8 -39 -17.5 -83t-15 -69t-12 -53.5t-9.5 -43.5t-6.5 -32t-4.5 -26t-3 -19t-2 -16.5t-0.5 -13.5t-0.5 -15zM414 1212l39 179h108l-39 -179h-108z M850 1212l39 179h108l-39 -179h-108z" />
<glyph unicode="&#xf7;" horiz-adv-x="1142" d="M176 528v93h811v-93h-811zM498 168q0 35 25.5 60.5t60.5 25.5t60.5 -25.5t25.5 -60.5t-25.5 -60.5t-60.5 -25.5t-60.5 25.5t-25.5 60.5zM498 981q0 35 25.5 60.5t60.5 25.5t60.5 -25.5t25.5 -60.5t-25.5 -60.5t-60.5 -25.5t-60.5 25.5t-25.5 60.5z" />
<glyph unicode="&#xf8;" horiz-adv-x="1095" d="M31 10l112 127q-39 67 -39 162q0 44 9 94t61 289q86 403 473 403q67 0 133 -22.5t115 -67.5l100 115l70 -55l-113 -129q39 -67 39 -160q0 -45 -9.5 -98t-59.5 -285q-86 -403 -473 -403q-153 0 -250 90l-101 -115zM211 311q0 -47 12 -84l602 688q-68 68 -196 68 q-125 0 -220.5 -80.5t-125.5 -220.5q-11 -50 -22 -101.5t-17 -79.5t-12.5 -57.5t-9.5 -44t-5.5 -29.5t-3.5 -23.5t-1.5 -17t-0.5 -18.5zM268 150q68 -68 199 -68q125 0 220.5 80.5t125.5 220.5q11 50 22 101.5t17 79.5t12.5 57.5t9.5 44t5.5 29.5t3.5 23.5t1.5 17t0.5 18.5 q0 41 -13 82z" />
<glyph unicode="&#xf9;" horiz-adv-x="1107" d="M111 299q0 40 10.5 98t56.5 277l82 383h109l-82 -383q-10 -47 -21.5 -100.5t-17.5 -80t-12.5 -57.5t-9 -45.5t-5.5 -31t-3.5 -27t-0.5 -21.5q0 -106 65 -167.5t185 -61.5q118 0 213 81t125 220l143 674h109l-226 -1057h-108l29 129q-37 -59 -119 -104t-178 -45 q-61 0 -120 19t-110 55.5t-82.5 100t-31.5 144.5zM481 1434h162l119 -265h-94z" />
<glyph unicode="&#xfa;" horiz-adv-x="1110" d="M113 299q0 40 10.5 98t56.5 277l82 383h109l-82 -383q-10 -47 -21.5 -100.5t-17.5 -80t-12.5 -57.5t-9 -45.5t-5.5 -31t-3.5 -27t-0.5 -21.5q0 -106 65 -167.5t185 -61.5q118 0 213 81t125 220l143 674h109l-225 -1057h-109l29 129q-37 -59 -119 -104t-178 -45 q-61 0 -120 19t-110 55.5t-82.5 100t-31.5 144.5zM569 1169l174 265h172l-241 -265h-105z" />
<glyph unicode="&#xfb;" horiz-adv-x="1107" d="M111 299q0 40 10.5 98t56.5 277l82 383h109l-82 -383q-10 -47 -21.5 -100.5t-17.5 -80t-12.5 -57.5t-9 -45.5t-5.5 -31t-3.5 -27t-0.5 -21.5q0 -106 65 -167.5t185 -61.5q118 0 213 81t125 220l143 674h109l-226 -1057h-108l29 129q-37 -59 -119 -104t-178 -45 q-61 0 -120 19t-110 55.5t-82.5 100t-31.5 144.5zM373 1169l311 265h107l200 -265h-121l-143 170l-213 -170h-141z" />
<glyph unicode="&#xfc;" horiz-adv-x="1107" d="M111 299q0 40 10.5 98t56.5 277l82 383h109l-82 -383q-10 -47 -21.5 -100.5t-17.5 -80t-12.5 -57.5t-9 -45.5t-5.5 -31t-3.5 -27t-0.5 -21.5q0 -106 65 -167.5t185 -61.5q118 0 213 81t125 220l143 674h109l-226 -1057h-108l29 129q-37 -59 -119 -104t-178 -45 q-61 0 -120 19t-110 55.5t-82.5 100t-31.5 144.5zM418 1212l39 179h108l-39 -179h-108zM854 1212l39 179h108l-38 -179h-109z" />
<glyph unicode="&#xfd;" horiz-adv-x="925" d="M-8 -377l22 103h56q20 0 37.5 7t29 14.5t26 27.5t21.5 31t23 40l86 152l-158 1059h107l135 -910l516 910h123l-701 -1223q-22 -39 -29 -50.5t-27 -42.5t-31 -41.5t-33 -30t-41.5 -26.5t-48 -13.5t-60.5 -6.5h-53zM485 1169l174 265h172l-241 -265h-105z" />
<glyph unicode="&#xfe;" horiz-adv-x="1114" d="M-27 -377l383 1811h109l-105 -498q44 66 124.5 107.5t187.5 41.5q61 0 120 -18.5t110 -54.5t82.5 -100t31.5 -146q0 -44 -9 -94t-61 -289q-86 -403 -473 -403q-108 0 -182 52.5t-98 117.5l-111 -527h-109zM236 311q0 -107 66 -168t190 -61q125 0 220.5 80.5t125.5 220.5 q8 39 17.5 83t15 69t12 53.5t9.5 43.5t6.5 32t4.5 26t3 19t2 16.5t0.5 13.5t0.5 15q0 107 -66 168t-190 61q-125 0 -220.5 -80.5t-125.5 -220.5q-8 -39 -17.5 -83t-15 -69t-12 -53.5t-9.5 -43.5t-6.5 -32t-4.5 -26t-3 -19t-2 -16.5t-0.5 -13.5t-0.5 -15z" />
<glyph unicode="&#xff;" horiz-adv-x="925" d="M-8 -377l22 103h56q20 0 37.5 7t29 14.5t26 27.5t21.5 31t23 40l86 152l-158 1059h107l135 -910l516 910h123l-701 -1223q-22 -39 -29 -50.5t-27 -42.5t-31 -41.5t-33 -30t-41.5 -26.5t-48 -13.5t-60.5 -6.5h-53zM336 1212l39 179h108l-39 -179h-108zM772 1212l39 179 h109l-39 -179h-109z" />
<glyph unicode="&#x152;" horiz-adv-x="1859" d="M106 352q0 16 1 28.5t2 26t5.5 38.5t9.5 49t16 75t21.5 99.5t29.5 139.5t38 179q98 467 521 467q129 0 214.5 -62t112.5 -141l39 183h793l-23 -107h-680l-116 -549h679l-22 -104h-680l-121 -568h680l-22 -106h-793l27 121q-113 -141 -340 -141q-164 0 -278 102t-114 270z M219 367q0 -134 83.5 -207.5t209.5 -73.5q146 0 250.5 88t142.5 272q25 118 48 226.5t34.5 160t21 97.5t13 65.5t5 36t1.5 35.5q0 134 -83.5 207.5t-209.5 73.5q-145 0 -250 -88.5t-143 -272.5q-25 -118 -48 -226t-34.5 -160t-21 -97.5t-13 -65.5t-5 -36t-1.5 -35z" />
<glyph unicode="&#x153;" horiz-adv-x="1773" d="M98 299q0 44 9 94t61 289q86 403 473 403q72 0 133 -19.5t111.5 -65.5t75.5 -115q139 200 382 200q61 0 120 -18.5t110.5 -54.5t83 -100t31.5 -146q0 -37 -6 -74.5t-35 -173.5h-703q-26 -117 -31.5 -148t-5.5 -59q0 -107 66 -168t190 -61q112 0 200.5 65t129.5 181h111 q-102 -348 -459 -348q-72 0 -133 19.5t-111.5 65.5t-75.5 115q-139 -200 -383 -200q-61 0 -120 18.5t-110 54.5t-82.5 100t-31.5 146zM205 311q0 -107 66 -168t190 -61q125 0 220.5 80.5t125.5 220.5q11 50 22 101.5t17 79.5t12.5 57.5t9.5 44t5.5 29.5t3.5 23.5t1.5 17 t0.5 18.5q0 107 -66 168t-190 61q-126 0 -221.5 -80.5t-125.5 -220.5q-8 -39 -17.5 -83t-15 -69t-12 -53.5t-9.5 -43.5t-6.5 -32t-4.5 -26t-3 -19t-2 -16.5t-0.5 -13.5t-0.5 -15zM967 621h594q20 93 20 133q0 107 -66 168t-190 61q-142 0 -239 -97.5t-119 -264.5z" />
<glyph unicode="&#x178;" horiz-adv-x="1112" d="M209 1434h115l264 -717l563 717h137l-661 -838l-127 -596h-113l127 596zM500 1548l39 178h112l-39 -178h-112zM932 1548l39 178h112l-39 -178h-112z" />
<glyph unicode="&#x2c6;" horiz-adv-x="876" d="M264 1169l311 265h107l201 -265h-121l-144 170l-212 -170h-142z" />
<glyph unicode="&#x2dc;" horiz-adv-x="903" d="M299 1214q55 181 209 181q46 0 92 -25l68 -39q35 -20 67 -20q59 0 96 80h101q-55 -181 -209 -181q-46 0 -92 25l-68 39q-35 20 -67 20q-60 0 -97 -80h-100z" />
<glyph unicode="&#x2000;" horiz-adv-x="895" />
<glyph unicode="&#x2001;" horiz-adv-x="1790" />
<glyph unicode="&#x2002;" horiz-adv-x="895" />
<glyph unicode="&#x2003;" horiz-adv-x="1790" />
<glyph unicode="&#x2004;" horiz-adv-x="596" />
<glyph unicode="&#x2005;" horiz-adv-x="447" />
<glyph unicode="&#x2006;" horiz-adv-x="298" />
<glyph unicode="&#x2007;" horiz-adv-x="298" />
<glyph unicode="&#x2008;" horiz-adv-x="223" />
<glyph unicode="&#x2009;" horiz-adv-x="358" />
<glyph unicode="&#x200a;" horiz-adv-x="99" />
<glyph unicode="&#x2010;" horiz-adv-x="839" d="M125 528l18 93h594l-18 -93h-594z" />
<glyph unicode="&#x2011;" horiz-adv-x="839" d="M125 528l18 93h594l-18 -93h-594z" />
<glyph unicode="&#x2012;" horiz-adv-x="839" d="M125 528l18 93h594l-18 -93h-594z" />
<glyph unicode="&#x2013;" horiz-adv-x="1056" d="M125 528l18 93h811l-18 -93h-811z" />
<glyph unicode="&#x2014;" horiz-adv-x="1677" d="M125 528l18 93h1432l-19 -93h-1431z" />
<glyph unicode="&#x2018;" horiz-adv-x="471" d="M268 1090l37 172l98 172h101l-101 -172h74l-37 -172h-172z" />
<glyph unicode="&#x2019;" horiz-adv-x="471" d="M279 1090l98 172h-70l35 172h172l-35 -172l-100 -172h-100z" />
<glyph unicode="&#x201a;" horiz-adv-x="471" d="M10 -172l99 172h-70l35 172h172l-35 -172l-100 -172h-101z" />
<glyph unicode="&#x201c;" horiz-adv-x="772" d="M268 1090l37 172l98 172h101l-101 -172h74l-37 -172h-172zM569 1090l37 172l99 172h100l-100 -172h73l-37 -172h-172z" />
<glyph unicode="&#x201d;" horiz-adv-x="772" d="M279 1090l98 172h-70l35 172h172l-35 -172l-100 -172h-100zM580 1090l98 172h-70l35 172h172l-35 -172l-100 -172h-100z" />
<glyph unicode="&#x201e;" horiz-adv-x="772" d="M10 -172l99 172h-70l35 172h172l-35 -172l-100 -172h-101zM311 -172l99 172h-70l35 172h172l-35 -172l-100 -172h-101z" />
<glyph unicode="&#x2022;" horiz-adv-x="1638" d="M514 610q0 142 101 243t243 101t243 -101t101 -243t-101 -243t-243 -101t-243 101t-101 243z" />
<glyph unicode="&#x2026;" horiz-adv-x="1536" d="M80 0l35 172h172l-35 -172h-172zM592 0l35 172h172l-35 -172h-172zM1104 0l35 172h172l-35 -172h-172z" />
<glyph unicode="&#x202f;" horiz-adv-x="358" />
<glyph unicode="&#x2039;" horiz-adv-x="602" d="M117 504l22 110l396 293l-29 -133l-303 -225l207 -225l-25 -113z" />
<glyph unicode="&#x203a;" horiz-adv-x="602" d="M68 211l28 133l303 225l-206 226l24 112l268 -293l-22 -110z" />
<glyph unicode="&#x205f;" horiz-adv-x="447" />
<glyph unicode="&#x20ac;" horiz-adv-x="1181" d="M90 563l47 88h129l29 133h-156l45 88h131l21 97q53 246 178 365.5t363 119.5q101 0 187.5 -40t137.5 -111l-90 -64q-77 113 -258 113q-328 0 -410 -383l-20 -97h618l-45 -88h-594l-28 -133h555l-47 -88h-527q-15 -67 -21.5 -104.5t-7.5 -50.5t-1 -39q0 -131 78 -209 t196 -78q155 0 281 123l73 -74q-83 -80 -160 -115.5t-196 -35.5q-162 0 -270.5 108t-108.5 274q0 61 29 201h-158z" />
<glyph unicode="&#x2122;" horiz-adv-x="1445" d="M158 1348v86h534v-86h-223v-746h-88v746h-223zM819 602v832h88l242 -508l242 508h88v-832h-88v645l-201 -422h-84l-201 422v-645h-86z" />
<glyph unicode="&#x25fc;" horiz-adv-x="1054" d="M0 0v1055h1055v-1055h-1055z" />
<glyph unicode="&#xfb01;" horiz-adv-x="1060" d="M104 0l203 954h-149l22 103h150l35 166q10 47 19 74.5t27 57.5t44 44.5t69.5 24.5t104.5 10h149l-22 -103h-150q-63 0 -92 -24.5t-41 -83.5l-35 -166h260l-22 -103h-260l-203 -954h-109zM676 0l225 1057h109l-226 -1057h-108zM942 1255l39 179h109l-39 -179h-109z" />
<glyph unicode="&#xfb02;" horiz-adv-x="1120" d="M104 0l203 954h-149l22 103h150l35 166q10 47 19 74.5t27 57.5t44 44.5t69.5 24.5t104.5 10h149l-22 -103h-150q-63 0 -92 -24.5t-41 -83.5l-35 -166h260l-22 -103h-260l-203 -954h-109zM715 156q0 13 2.5 33t11.5 66t20.5 100t34 160.5t47 219.5t65.5 306t83 393h108 q-256 -1202 -262 -1241q-4 -22 -4 -33q0 -58 74 -58h41l-23 -102h-12q-93 0 -139.5 41t-46.5 115z" />
<glyph unicode="&#xfb03;" horiz-adv-x="1685" d="M104 0l203 954h-149l22 103h150l35 166q10 47 19 74.5t27 57.5t44 44.5t69.5 24.5t104.5 10h149l-22 -103h-150q-63 0 -92 -24.5t-41 -83.5l-35 -166h260l-22 -103h-260l-203 -954h-109zM729 0l203 954h-150l23 103h149l35 166q10 47 19 74.5t27 57.5t44 44.5t69.5 24.5 t104.5 10h150l-23 -103h-149q-63 0 -92 -24.5t-41 -83.5l-35 -166h260l-23 -103h-260l-202 -954h-109zM1300 0l226 1057h108l-225 -1057h-109zM1567 1255l39 179h108l-39 -179h-108z" />
<glyph unicode="&#xfb04;" horiz-adv-x="1744" d="M104 0l203 954h-149l22 103h150l35 166q10 47 19 74.5t27 57.5t44 44.5t69.5 24.5t104.5 10h149l-22 -103h-150q-63 0 -92 -24.5t-41 -83.5l-35 -166h260l-22 -103h-260l-203 -954h-109zM729 0l203 954h-150l23 103h149l35 166q10 47 19 74.5t27 57.5t44 44.5t69.5 24.5 t104.5 10h150l-23 -103h-149q-63 0 -92 -24.5t-41 -83.5l-35 -166h260l-23 -103h-260l-202 -954h-109zM1339 156q0 13 3 33.5t11.5 66t20 100t34.5 160t47.5 220t65.5 306t83 392.5h108q-256 -1202 -262 -1241q-4 -22 -4 -33q0 -58 74 -58h41l-23 -102h-12q-93 0 -140 41 t-47 115z" />
</font>
</defs>
</svg>
