<?xml version="1.0" encoding="UTF-8"?>
<svg width="205px" height="58px" viewBox="0 0 205 58" version="1.1" xmlns="http://www.w3.org/2000/svg" xmlns:xlink="http://www.w3.org/1999/xlink">
    <!-- Generator: Sketch 51.3 (57544) - http://www.bohemiancoding.com/sketch -->
    <title>Horizontal Solo</title>
    <desc>Created with Sketch.</desc>
    <defs>
        <path d="M57.0133,29.6772 C57.0133,13.9572 44.2263,1.1682 28.5063,1.1682 C12.7863,1.1682 0.0003,13.9572 0.0003,29.6772 C0.0003,45.3932 12.7863,58.1822 28.5063,58.1822 C44.2263,58.1822 57.0133,45.3932 57.0133,29.6772 Z M56.2683,29.6772 C56.2683,44.9872 43.8143,57.4382 28.5063,57.4382 C13.1993,57.4382 0.7453,44.9872 0.7453,29.6772 C0.7453,14.3692 13.1993,1.9132 28.5063,1.9132 C43.8143,1.9132 56.2683,14.3692 56.2683,29.6772 Z M54.8803,29.2172 L53.3713,28.4702 L54.7883,27.5792 L54.7193,26.3502 L52.2953,27.9832 L50.6713,28.0732 L50.7313,29.1212 L52.3553,29.0282 L54.9413,30.3562 L54.8803,29.2172 Z M53.6073,25.1372 L54.4723,24.9242 L53.7013,21.7912 L52.8323,22.0042 L53.0943,23.0602 L49.9453,23.8332 L50.1953,24.8562 L53.3453,24.0782 L53.6073,25.1372 Z M49.2503,21.7012 L53.0793,20.1402 L52.6813,19.1692 L48.8543,20.7322 L49.2503,21.7012 Z M50.8023,17.6512 L51.6613,17.2622 L51.6403,17.1482 C51.5783,16.8542 51.4593,16.5622 51.2793,16.2532 C50.8283,15.4952 50.0893,15.2502 49.3983,15.6582 C48.6893,16.0772 48.7923,16.7492 48.8673,17.2382 C48.9323,17.6252 48.9583,17.8532 48.7773,17.9582 C48.5733,18.0782 48.3203,17.8742 48.2043,17.6812 C48.0753,17.4602 48.0003,17.1852 47.9913,16.8882 L47.9833,16.6712 L47.0383,17.1092 L47.1043,17.3202 C47.1973,17.6402 47.2553,17.8332 47.4563,18.1732 C47.7913,18.7422 48.2403,19.0552 48.7153,19.0552 C48.9363,19.0552 49.1573,18.9912 49.3783,18.8552 C50.1113,18.4242 49.9973,17.7372 49.9133,17.2342 C49.8553,16.8802 49.8273,16.6592 49.9753,16.5702 C50.0483,16.5302 50.1173,16.5082 50.1823,16.5082 C50.3733,16.5082 50.4973,16.6892 50.5453,16.7642 C50.6653,16.9682 50.7423,17.2102 50.7763,17.4572 L50.8023,17.6512 Z M48.3603,14.0962 C49.2503,13.3132 48.5393,12.5012 48.0193,11.9082 L47.3383,11.1352 L44.2293,13.8622 L44.9223,14.6482 L46.1233,13.5942 L46.1893,13.6712 C46.3443,13.8472 46.3483,13.9232 46.2223,14.1672 L45.5713,15.3942 L46.3373,16.2632 L47.1643,14.6162 C47.1923,14.5562 47.2523,14.4272 47.2723,14.2812 C47.6263,14.4362 48.0513,14.3652 48.3603,14.0962 Z M47.7143,13.1152 C47.7123,13.1882 47.6713,13.2572 47.5923,13.3252 C47.5143,13.3942 47.4413,13.4292 47.3643,13.4292 C47.1883,13.4292 47.0033,13.2462 46.8643,13.0872 L46.7953,13.0082 L47.3553,12.5122 L47.4283,12.5932 C47.5743,12.7652 47.7293,12.9562 47.7143,13.1152 Z M45.1973,10.3512 L45.7493,9.6492 L43.7583,8.0922 L41.2113,11.3502 L43.2113,12.9132 L43.7633,12.2112 L42.5863,11.2942 L43.0753,10.6652 L44.1413,11.5002 L44.6923,10.7982 L43.6253,9.9622 L44.0313,9.4412 L45.1973,10.3512 Z M39.0833,10.0722 L42.1763,7.0012 L41.2313,6.5242 L39.2363,8.5562 L39.6783,5.7422 L38.6793,5.2342 L38.0653,9.5612 L39.0833,10.0722 Z M35.7523,8.6222 L36.9913,4.6772 L35.9933,4.3592 L34.7513,8.3092 L35.7523,8.6222 Z M33.3323,7.8902 L33.8863,3.7902 L32.8813,3.6552 L32.5543,6.0732 L31.6613,3.4922 L30.5103,3.3352 L29.9563,7.4372 L30.9613,7.5722 L31.2873,5.1522 L32.1813,7.7352 L33.3323,7.8902 Z M28.5063,8.8332 C17.0133,8.8332 7.6643,18.1812 7.6643,29.6752 C7.6643,41.1712 17.0133,50.5212 28.5063,50.5212 C40.0003,50.5212 49.3483,41.1712 49.3483,29.6752 C49.3483,18.1812 40.0003,8.8332 28.5063,8.8332 Z M48.6293,29.6752 C48.6293,40.7692 39.6013,49.7972 28.5063,49.7972 C17.4103,49.7972 8.3843,40.7692 8.3843,29.6752 C8.3843,18.5832 17.4103,9.5542 28.5063,9.5542 C39.6013,9.5542 48.6293,18.5832 48.6293,29.6752 Z M42.0983,33.6092 L42.0943,15.6062 L15.1253,15.6082 L15.1253,33.2982 C15.1253,37.4002 17.4313,41.3882 21.7973,44.8342 C25.0443,47.3942 28.2443,48.7492 28.3803,48.8052 L28.6273,48.9082 L28.8743,48.8032 C29.0113,48.7432 32.1983,47.3712 35.4343,44.8392 C39.7943,41.4282 42.0983,37.5462 42.0983,33.6092 Z M29.1053,30.8712 C29.1683,30.8432 29.2413,30.8132 29.3423,30.7892 C29.3483,30.7872 29.8683,30.6822 30.4413,30.7512 C30.7853,30.7792 31.1033,30.8112 31.3993,30.8452 C31.9363,30.9012 32.4003,30.9502 32.8233,30.9632 C33.2503,30.9722 33.6023,30.9722 33.9013,30.9722 L34.1573,30.9722 L34.1593,39.4382 C33.9143,39.4422 33.5923,39.4462 33.2333,39.4382 C32.4513,39.4202 31.9193,39.3712 31.4063,39.3262 C30.8793,39.2772 30.4073,39.2312 29.7093,39.2342 C29.4623,39.2342 29.2693,39.2872 29.1053,39.3582 L29.1053,30.8712 Z M16.4013,27.2912 L28.0123,27.2912 L28.0123,29.8382 C27.8233,29.8042 27.2913,29.7262 26.7073,29.7952 C26.3613,29.8252 26.0413,29.8602 25.7383,29.8922 C25.2213,29.9482 24.7743,29.9952 24.3893,30.0032 C23.9003,30.0162 23.5113,30.0162 23.1893,30.0162 C22.9573,30.0162 22.7593,30.0162 22.5883,30.0182 L22.1203,30.0292 L22.1203,32.4902 L20.9733,32.4902 L20.9733,33.8262 L22.1203,33.8262 L22.1203,36.2852 L20.9733,36.2852 L20.9733,37.6192 L22.1203,37.6192 L22.1203,40.3552 L22.5703,40.3782 C22.5983,40.3802 23.2213,40.4132 24.0273,40.3952 C24.8403,40.3782 25.4123,40.3252 25.9163,40.2792 C26.4363,40.2322 26.8853,40.1912 27.4993,40.1912 C27.7403,40.1872 27.8193,40.2622 27.9503,40.4282 C27.9673,40.4492 27.9913,40.4752 28.0123,40.4992 L28.0123,47.2252 C25.1973,45.8422 16.4013,40.9042 16.4013,33.2982 L16.4013,27.2912 Z M27.5293,39.2342 L27.4993,39.2342 C26.8423,39.2342 26.3523,39.2792 25.8303,39.3242 C25.3173,39.3712 24.7853,39.4202 24.0033,39.4382 C23.6443,39.4462 23.3223,39.4422 23.0773,39.4382 L23.0773,30.9722 L23.1893,30.9722 C23.5133,30.9742 23.9133,30.9722 24.4133,30.9632 C24.8363,30.9502 25.3003,30.9012 25.8393,30.8432 C26.1353,30.8112 26.4513,30.7792 26.8033,30.7492 C27.3643,30.6862 27.8793,30.7872 27.8793,30.7872 C27.9333,30.8002 27.9693,30.8152 28.0123,30.8302 L28.0123,39.3172 C27.8733,39.2682 27.7203,39.2342 27.5293,39.2342 Z M40.8183,26.0112 L16.4033,26.0112 L16.4033,16.8862 L40.8183,16.8842 L40.8183,26.0112 Z M40.8203,33.6092 C40.8203,40.9802 31.7713,45.9752 29.1053,47.2852 L29.1053,40.5802 C29.1573,40.5312 29.2023,40.4832 29.2393,40.4412 C29.3723,40.2862 29.4563,40.1912 29.7113,40.1912 C30.3273,40.2002 30.7913,40.2302 31.3203,40.2792 C31.8243,40.3252 32.3963,40.3782 33.2093,40.3952 C34.0133,40.4152 34.6383,40.3802 34.6633,40.3782 L35.1173,40.3552 L35.1173,37.8512 L36.1773,37.8512 L36.1773,36.5132 L35.1173,36.5132 L35.1173,34.0882 L36.1773,34.0882 L36.1773,32.7542 L35.1143,32.7542 L35.1143,30.0292 L34.6483,30.0182 C34.4773,30.0142 34.2793,30.0142 34.0473,30.0162 C33.7233,30.0122 33.3363,30.0162 32.8473,30.0032 C32.4643,29.9952 32.0183,29.9482 31.5003,29.8922 C31.1993,29.8602 30.8753,29.8252 30.5383,29.7952 C29.8143,29.7132 29.1743,29.8442 29.1363,29.8532 C29.1253,29.8572 29.1163,29.8602 29.1053,29.8642 L29.1053,27.2912 L40.8203,27.2912 L40.8203,33.6092 Z M19.7813,18.2782 C19.7793,19.7662 19.7773,22.2832 19.7873,22.3992 C19.8193,22.9142 20.1613,23.3802 20.8293,23.8252 C21.6513,24.3772 22.8783,25.0962 22.9293,25.1262 L23.1633,25.2642 L23.3993,25.1332 C23.4553,25.1032 24.7783,24.3812 25.6053,23.8252 C26.5713,23.1812 26.5893,22.5942 26.5953,22.3992 C26.6043,22.2922 26.6013,20.0992 26.5953,18.2782 L26.5953,17.8012 L19.7813,17.8012 L19.7813,18.2782 Z M25.6413,19.9982 L20.7393,19.9982 C20.7393,19.5812 20.7413,19.1562 20.7413,18.7572 L25.6393,18.7572 C25.6413,19.1542 25.6413,19.5812 25.6413,19.9982 Z M20.7393,20.9562 L25.6413,20.9562 C25.6413,21.7012 25.6413,22.2812 25.6373,22.3712 C25.6313,22.6092 25.3263,22.8612 25.0723,23.0302 C24.4843,23.4252 23.5993,23.9282 23.1803,24.1622 C22.7813,23.9242 21.9523,23.4252 21.3643,23.0282 C20.9793,22.7752 20.7543,22.5212 20.7413,22.3352 C20.7393,22.2662 20.7393,21.6972 20.7393,20.9562 Z M31.2253,18.0762 C31.2233,19.9462 31.2233,22.1952 31.2323,22.3112 C31.2703,22.8312 31.6183,23.3072 32.2973,23.7602 C33.1393,24.3252 34.3953,25.0622 34.4493,25.0942 L34.6833,25.2322 L34.9193,25.1012 C34.9753,25.0702 36.3343,24.3322 37.1853,23.7602 C38.1753,23.0992 38.1903,22.5002 38.1923,22.3002 C38.2003,22.1952 38.1983,19.9442 38.1943,18.0762 L38.1923,17.5972 L31.2253,17.5972 L31.2253,18.0762 Z M32.1853,21.9892 L34.5993,20.2452 L37.2383,22.0042 C37.2383,22.1502 37.2363,22.2462 37.2343,22.2812 C37.2303,22.5282 36.9163,22.7882 36.6523,22.9682 C36.0443,23.3722 35.1273,23.8892 34.7003,24.1302 C34.2923,23.8872 33.4373,23.3722 32.8323,22.9682 C32.6453,22.8412 32.2073,22.5192 32.1873,22.2402 C32.1853,22.2142 32.1853,22.1242 32.1853,21.9892 Z M32.1833,18.5552 L37.2343,18.5552 C37.2383,19.3042 37.2403,20.1552 37.2403,20.8552 L34.5773,19.0772 L32.1813,20.8082 C32.1813,20.1202 32.1813,19.2912 32.1833,18.5552 Z M27.0703,35.4002 L27.1133,34.4422 C27.0143,34.4382 26.9003,34.4422 26.7783,34.4532 L26.3073,34.5002 C26.0303,34.5302 25.7883,34.5582 25.5773,34.5632 L24.1703,34.5992 L24.1923,35.5592 L25.5993,35.5202 C25.8353,35.5162 26.1013,35.4862 26.4103,35.4522 L26.8593,35.4072 C26.9323,35.4002 27.0033,35.3962 27.0703,35.4002 Z M27.0783,32.7462 L27.0913,31.7882 C26.9923,31.7882 26.8833,31.7922 26.7713,31.8032 C26.6013,31.8162 26.4453,31.8352 26.2993,31.8522 C26.0223,31.8802 25.7833,31.9082 25.5713,31.9102 L24.1623,31.9472 L24.1853,32.9072 L25.5923,32.8702 C25.8243,32.8662 26.0923,32.8362 26.4023,32.8022 C26.5463,32.7872 26.6983,32.7722 26.8593,32.7542 C26.9343,32.7502 27.0123,32.7442 27.0783,32.7462 Z M25.5323,37.2132 C25.0853,37.2242 24.3813,37.2472 24.1733,37.2512 L24.1903,38.2072 C24.3983,38.2032 25.1093,38.1832 25.6013,38.1712 C25.8353,38.1642 26.1013,38.1342 26.4123,38.1022 L26.8763,38.0552 C26.9473,38.0462 27.0183,38.0462 27.0833,38.0462 L27.0983,37.0902 C26.9973,37.0882 26.8853,37.0902 26.7803,37.1012 L26.3073,37.1482 C26.0303,37.1812 25.7903,37.2082 25.5323,37.2132 Z M30.4413,31.8162 C30.3173,31.8032 30.1963,31.8012 30.0893,31.8052 L30.1303,32.7612 C30.1963,32.7572 30.2693,32.7612 30.3493,32.7672 L30.8043,32.8152 C31.1133,32.8492 31.3823,32.8752 31.6163,32.8812 L33.0253,32.9222 L33.0463,31.9622 L31.6373,31.9232 C31.4273,31.9192 31.1863,31.8932 30.9073,31.8632 L30.4413,31.8162 Z M33.0313,35.5682 L33.0553,34.6142 L32.6883,34.6012 C32.3703,34.5952 31.9383,34.5822 31.6463,34.5782 C31.4443,34.5712 31.2143,34.5452 30.9523,34.5182 C30.7933,34.5002 30.6243,34.4832 30.4543,34.4682 C30.3323,34.4552 30.2163,34.4532 30.1083,34.4552 L30.1233,35.4132 C30.1923,35.4112 30.2693,35.4132 30.3583,35.4222 C30.5343,35.4392 30.6973,35.4542 30.8493,35.4712 C31.1443,35.5012 31.3993,35.5292 31.6253,35.5362 C31.9173,35.5382 32.3463,35.5532 32.6643,35.5592 L33.0313,35.5682 Z M30.4563,37.1162 C30.3273,37.1032 30.2123,37.0992 30.1043,37.1032 L30.1323,38.0592 C30.1963,38.0592 30.2723,38.0592 30.3583,38.0702 C30.5273,38.0852 30.6883,38.1042 30.8363,38.1172 C31.1353,38.1512 31.3953,38.1772 31.6223,38.1862 L32.0203,38.1942 C32.4263,38.2052 32.8773,38.2162 33.0333,38.2202 L33.0533,37.2602 C32.8943,37.2582 32.4453,37.2492 32.0463,37.2362 L31.6463,37.2282 C31.4423,37.2212 31.2083,37.1962 30.9403,37.1662 C30.7833,37.1482 30.6203,37.1312 30.4563,37.1162 Z M28.0573,7.0762 C28.3043,6.7842 28.4083,6.3782 28.3623,5.8762 L28.1503,3.2792 L27.1043,3.3652 L27.2993,5.7252 C27.3683,6.5592 27.0333,6.6922 26.7353,6.7202 C26.7093,6.7202 26.6833,6.7242 26.6593,6.7242 C26.4153,6.7242 26.0803,6.6322 26.0133,5.8312 L25.8203,3.4732 L24.7743,3.5582 L24.9893,6.1552 C25.0683,7.1132 25.6073,7.6222 26.5523,7.6222 C26.6363,7.6222 26.7203,7.6172 26.8053,7.6092 C27.3793,7.5592 27.7983,7.3812 28.0573,7.0762 Z M20.0153,9.1662 L22.3903,8.3072 L22.0833,7.4652 L20.7003,7.9672 L19.5963,4.9202 L18.6103,5.2792 L20.0153,9.1662 Z M18.9173,9.6362 L18.4753,8.8542 L17.1953,9.5762 L15.6043,6.7522 L14.6893,7.2692 L16.7163,10.8712 L18.9173,9.6362 Z M13.2633,11.3152 L14.3173,10.4612 L13.7483,9.7672 L12.7003,10.6222 L12.2843,10.1082 L13.4303,9.1762 L12.8663,8.4832 L10.9073,10.0782 L13.5163,13.2872 L15.4843,11.6872 L14.9213,10.9912 L13.7663,11.9322 L13.2633,11.3152 Z M12.4083,14.3132 L9.2263,11.6722 L8.5793,12.4582 L10.4543,14.0132 L7.7973,13.3992 L7.0503,14.2982 L10.2353,16.9382 L10.8833,16.1562 L9.0073,14.6012 L11.6673,15.2072 L12.4083,14.3132 Z M6.8653,16.7342 C6.6593,16.6262 6.4603,16.5702 6.2753,16.5702 C5.6053,16.5702 5.2503,17.2432 4.9373,17.8402 L4.4583,18.7372 L8.1093,20.6832 L8.6033,19.7552 L7.1923,18.9992 L7.2373,18.9132 C7.3703,18.6602 7.4713,18.6822 7.6903,18.7092 L9.0673,18.8862 L9.6103,17.8592 L7.7803,17.6682 C7.6583,17.6592 7.5253,17.6642 7.4243,17.6872 C7.4393,17.2982 7.2373,16.9312 6.8653,16.7342 Z M6.6013,17.9172 C6.6533,18.0842 6.5393,18.3232 6.4533,18.4882 L6.3993,18.5832 L5.7383,18.2282 L5.7873,18.1362 C5.9553,17.8272 6.1333,17.5712 6.4173,17.7222 C6.5183,17.7752 6.5753,17.8402 6.6013,17.9172 Z M4.8363,21.1642 C3.9213,21.1642 3.2473,21.6952 2.9853,22.6182 C2.6453,23.8082 3.2193,24.7682 4.4773,25.1282 C4.7413,25.2012 5.0013,25.2402 5.2443,25.2402 C6.1523,25.2402 6.8273,24.7102 7.0913,23.7842 C7.2483,23.2322 7.2033,22.7082 6.9603,22.2772 C6.6963,21.7982 6.2153,21.4542 5.5753,21.2712 C5.3193,21.2012 5.0703,21.1642 4.8363,21.1642 Z M4.7693,22.2382 C4.9303,22.2382 5.1073,22.2642 5.2813,22.3112 C5.6993,22.4312 6.0263,22.6502 6.1723,22.9142 C6.2773,23.0992 6.2943,23.3092 6.2323,23.5392 C6.0823,24.0572 5.6523,24.1662 5.3153,24.1662 C5.1453,24.1662 4.9633,24.1382 4.7723,24.0852 C4.2263,23.9282 3.6573,23.5162 3.8443,22.8612 C3.9883,22.3452 4.4283,22.2382 4.7693,22.2382 Z M3.3263,26.6082 L2.3513,26.4662 L2.3063,26.5632 C2.1823,26.8272 2.0983,27.1642 2.0793,27.4612 C1.9953,28.8522 2.7613,29.7352 4.1363,29.8232 C4.1983,29.8252 4.2603,29.8272 4.3213,29.8272 C5.5173,29.8272 6.2513,29.0632 6.3413,27.7312 C6.3543,27.4692 6.3353,27.1822 6.2713,26.8252 L6.2473,26.7072 L5.2593,26.6982 L5.3513,26.9022 C5.4223,27.0592 5.4653,27.3942 5.4483,27.6732 C5.4033,28.3672 4.8833,28.7902 4.1493,28.7392 C3.4043,28.6912 2.9293,28.2082 2.9703,27.5342 C2.9833,27.3152 3.0213,27.0722 3.2043,26.7992 L3.3263,26.6082 Z M6.8253,34.5992 L2.8473,35.7462 L3.1443,36.7572 L4.7653,36.2892 L5.1263,37.5392 L5.9833,37.2922 L5.6243,36.0442 L6.2563,35.8622 L6.6383,37.1742 L7.4953,36.9232 L6.8253,34.5992 Z M4.6773,39.7832 C4.5143,40.2562 4.5703,40.7862 4.8303,41.3152 C5.1953,42.0562 5.8023,42.4642 6.5483,42.4642 C6.9023,42.4642 7.2733,42.3692 7.6453,42.1872 C8.2333,41.8972 8.6353,41.4782 8.8093,40.9692 C8.9703,40.4922 8.9213,39.9622 8.6563,39.4332 C8.2913,38.6882 7.6863,38.2782 6.9583,38.2782 C6.6083,38.2782 6.2383,38.3702 5.8633,38.5552 C5.2593,38.8512 4.8473,39.2772 4.6773,39.7832 Z M5.5753,40.2842 C5.6713,40.0002 5.9513,39.7252 6.3443,39.5342 C6.5883,39.4142 6.8403,39.3502 7.0673,39.3502 C7.4353,39.3502 7.7033,39.5112 7.8553,39.8282 C7.9633,40.0452 7.9803,40.2602 7.9093,40.4682 C7.8103,40.7562 7.5383,41.0292 7.1643,41.2092 C6.9023,41.3382 6.6423,41.4072 6.4103,41.4072 C6.0513,41.4072 5.7923,41.2422 5.6313,40.9222 C5.5233,40.7032 5.5043,40.4882 5.5753,40.2842 Z M8.1543,43.9412 C7.7293,44.2782 7.5033,44.6562 7.4863,45.0662 C7.4673,45.4472 7.6283,45.8552 7.9673,46.2752 C8.3693,46.7822 8.7983,47.0362 9.2513,47.0362 C9.5863,47.0362 9.9303,46.8962 10.2803,46.6212 L12.3183,45.0002 L11.6593,44.1732 L9.8083,45.6462 C9.3093,46.0462 8.9513,46.0822 8.6653,45.7192 C8.5473,45.5712 8.4983,45.4272 8.5153,45.2852 C8.5413,45.0792 8.7023,44.8582 9.0003,44.6222 L10.8493,43.1512 L10.1903,42.3242 L8.1543,43.9412 Z M13.3063,46.0072 L10.6843,49.2092 L11.4783,49.8532 L13.0273,47.9632 L12.4453,50.6462 L13.3473,51.3872 L15.9693,48.1852 L15.1763,47.5382 L13.6303,49.4262 L14.2213,46.7522 L13.3063,46.0072 Z M17.1673,48.9602 L15.3073,52.6582 L16.3733,53.1882 C16.8843,53.4482 17.3333,53.5712 17.7433,53.5712 C18.4583,53.5712 19.0213,53.1802 19.4113,52.4052 C20.0263,51.1782 19.6303,50.1992 18.2323,49.4952 L17.1673,48.9602 Z M16.6543,52.3342 L17.7083,50.2312 L17.9643,50.3602 C18.2303,50.4952 18.4343,50.7272 18.5273,51.0042 C18.6193,51.2922 18.5893,51.6062 18.4363,51.9112 C18.2223,52.3402 17.8523,52.5832 17.4193,52.5832 C17.2423,52.5832 17.0663,52.5402 16.9103,52.4582 L16.6543,52.3342 Z M21.5783,50.9552 L20.5133,54.9542 L22.9893,55.6112 L23.2193,54.7502 L21.7633,54.3612 L21.9673,53.5942 L23.2883,53.9472 L23.5223,53.0852 L22.1993,52.7312 L22.3663,52.0912 L23.8103,52.4752 L24.0443,51.6142 L21.5783,50.9552 Z M25.4203,51.8662 L25.1913,55.9972 L26.3783,56.0662 C26.4703,56.0702 26.5613,56.0732 26.6513,56.0732 C28.0363,56.0732 28.7773,55.4202 28.8523,54.1332 C28.8863,53.4962 28.7433,52.9892 28.4163,52.6262 C28.0423,52.2092 27.4523,51.9822 26.6163,51.9342 L25.4203,51.8662 Z M26.2943,55.1662 L26.4303,52.8212 L26.7093,52.8362 C27.2673,52.8662 27.8063,53.3022 27.7653,54.0692 C27.7183,54.8662 27.1173,55.2092 26.5783,55.1792 L26.2943,55.1662 Z M32.4923,51.6232 L31.7903,56.0022 L32.8723,55.7682 L33.0143,54.8402 L34.3433,54.5502 L34.8483,55.3472 L35.9823,55.1002 L33.5343,51.4002 L32.4923,51.6232 Z M33.1453,53.8972 L33.2763,52.8172 L33.8413,53.7472 L33.1453,53.8972 Z M37.4143,53.3992 L36.4243,53.7602 L36.7833,54.7542 L37.7773,54.3952 L37.4143,53.3992 Z M37.3893,50.1412 L39.3623,53.7792 L40.4083,53.2102 C41.7853,52.4672 42.1503,51.4772 41.4973,50.2702 C40.8503,49.0722 39.8113,48.8272 38.4393,49.5742 L37.3893,50.1412 Z M38.7463,50.4272 L38.9973,50.2912 C39.1633,50.1992 39.3493,50.1502 39.5383,50.1502 C39.9553,50.1502 40.3223,50.3862 40.5393,50.7852 C40.9043,51.4622 40.6013,52.0892 40.1143,52.3532 L39.8653,52.4882 L38.7463,50.4272 Z M43.1573,50.2722 L42.2853,50.8782 L42.8933,51.7472 L43.7603,51.1442 L43.1573,50.2722 Z M43.7543,47.2052 L44.6603,47.3302 L44.7353,46.6532 L46.7113,48.6552 L47.4633,47.9122 L44.5593,44.9652 L43.9373,45.5822 L43.7543,47.2052 Z M47.3533,44.7792 C47.3283,45.2302 47.4743,45.5692 47.7943,45.8032 C48.0253,45.9752 48.2663,46.0612 48.5153,46.0612 C48.9303,46.0612 49.3443,45.8072 49.6903,45.3462 C49.9783,44.9532 50.1043,44.5552 50.0513,44.2012 C50.0033,43.8962 49.8343,43.6342 49.5423,43.4172 C49.1963,43.1642 48.8093,43.1212 48.3803,43.2882 C48.3863,42.8802 48.1763,42.5322 47.9253,42.3432 C47.4093,41.9652 46.7203,42.1802 46.2173,42.8612 C45.7173,43.5352 45.7623,44.2202 46.3373,44.6482 C46.6233,44.8582 46.9953,44.9072 47.3533,44.7792 Z M48.2383,44.3752 C48.5373,44.1792 48.7513,44.1492 48.9383,44.2872 C49.0263,44.3512 49.0733,44.4312 49.0893,44.5232 C49.1043,44.6222 49.0693,44.7312 48.9943,44.8342 C48.8543,45.0232 48.5903,45.0792 48.4123,44.9462 C48.2493,44.8242 48.1953,44.6562 48.2383,44.3752 Z M47.5743,43.7182 C47.4283,43.8122 47.2743,43.8922 47.1393,43.8922 C47.0723,43.8922 47.0163,43.8742 46.9653,43.8382 C46.7613,43.6852 46.8613,43.4342 46.9543,43.3122 C47.0233,43.2152 47.1083,43.1702 47.2053,43.1702 C47.2743,43.1702 47.3513,43.1962 47.4243,43.2502 C47.5493,43.3442 47.6023,43.5592 47.5743,43.7182 Z M49.7743,41.7532 C50.2353,41.9872 50.6283,42.0982 50.9743,42.0982 C51.4983,42.0982 51.8933,41.8392 52.1513,41.3232 C52.5533,40.5222 52.2823,39.8092 51.4163,39.3712 C50.6993,39.0152 50.0183,39.2272 49.6753,39.9172 C49.5783,40.1102 49.5373,40.2992 49.5573,40.4832 C49.2993,40.2732 49.0673,39.9442 49.2693,39.5412 C49.3703,39.3352 49.5053,39.1972 49.6713,39.0532 L49.8103,38.9332 L49.0503,38.3872 L48.9643,38.4712 C48.7513,38.6772 48.5863,38.9072 48.4553,39.1692 C48.2513,39.5822 48.2103,39.9812 48.3413,40.3652 C48.5623,41.0332 49.2453,41.4912 49.7743,41.7532 Z M50.3433,40.6902 C50.3173,40.6152 50.3263,40.5392 50.3663,40.4532 C50.4293,40.3312 50.5303,40.2712 50.6783,40.2712 C50.7893,40.2712 50.9203,40.3052 51.0543,40.3722 C51.2303,40.4622 51.3583,40.5842 51.3993,40.7112 C51.4253,40.7862 51.4163,40.8612 51.3803,40.9392 C51.3133,41.0742 51.2103,41.1412 51.0623,41.1412 C50.9613,41.1412 50.8453,41.1082 50.7253,41.0462 C50.5213,40.9452 50.3833,40.8192 50.3433,40.6902 Z M52.5373,37.6642 C52.6753,37.4962 52.8403,37.2942 52.9243,37.0152 C52.9673,36.8632 53.0743,36.3582 52.6043,36.2142 C52.1623,36.0832 51.9493,36.5732 51.8913,36.7702 C51.8293,36.9832 51.7993,37.1932 51.8013,37.4172 L51.8013,37.6172 L49.5093,36.8862 L50.2183,34.5002 L51.0433,34.7432 L50.6223,36.1652 L51.1053,36.3192 C51.1143,36.2592 51.1313,36.1932 51.1543,36.1182 C51.3893,35.3212 52.0543,34.9492 52.8813,35.1962 C53.2723,35.3122 53.5793,35.5592 53.7493,35.8922 C53.9293,36.2512 53.9483,36.6952 53.8023,37.1812 C53.7293,37.4362 53.5903,37.7582 53.4313,38.0372 L53.3713,38.1432 L52.4063,37.8252 L52.5373,37.6642 Z M75.6125,25.3081 C72.9925,25.3081 70.8445,24.3681 69.1675,22.6901 C66.7495,20.2731 66.8145,17.2841 66.8145,13.1551 C66.8145,9.0241 66.7495,6.0371 69.1675,3.6201 C70.8445,1.9401 72.9925,1.0001 75.6125,1.0001 C80.0765,1.0001 83.5695,3.5521 84.4075,8.5541 L79.6745,8.5541 C79.2045,6.6401 77.9965,5.1651 75.6465,5.1651 C74.3715,5.1651 73.3295,5.6331 72.6575,6.4061 C71.7515,7.4141 71.4835,8.5541 71.4835,13.1551 C71.4835,17.7541 71.7515,18.8961 72.6575,19.9021 C73.3295,20.6751 74.3715,21.1451 75.6465,21.1451 C77.9965,21.1451 79.2045,19.6681 79.6745,17.7541 L84.4075,17.7541 C83.5695,22.7581 80.0445,25.3081 75.6125,25.3081 Z M102.1499,22.6895 C100.4719,24.3695 98.4239,25.3075 95.7049,25.3075 C92.9839,25.3075 90.9029,24.3695 89.2229,22.6895 C86.8059,20.2715 86.8729,17.2835 86.8729,13.1545 C86.8729,9.0255 86.8059,6.0365 89.2229,3.6195 C90.9029,1.9415 92.9839,1.0015 95.7049,1.0015 C98.4239,1.0015 100.4719,1.9415 102.1499,3.6195 C104.5679,6.0365 104.5339,9.0255 104.5339,13.1545 C104.5339,17.2835 104.5679,20.2715 102.1499,22.6895 Z M98.6909,6.4395 C98.0209,5.6675 96.9799,5.1635 95.7049,5.1635 C94.4269,5.1635 93.3549,5.6675 92.6819,6.4395 C91.7759,7.4465 91.5399,8.5555 91.5399,13.1545 C91.5399,17.7535 91.7759,18.8615 92.6819,19.8695 C93.3549,20.6405 94.4269,21.1445 95.7049,21.1445 C96.9799,21.1445 98.0209,20.6405 98.6909,19.8695 C99.5979,18.8615 99.8669,17.7535 99.8669,13.1545 C99.8669,8.5555 99.5979,7.4465 98.6909,6.4395 Z M120.4475,25.1068 L115.7815,15.5718 L112.4235,15.5718 L112.4235,25.1068 L107.7575,25.1068 L107.7575,1.2008 L117.1235,1.2008 C121.9925,1.2008 124.8775,4.5248 124.8775,8.5218 C124.8775,11.8788 122.8315,13.9588 120.5145,14.7998 L125.8535,25.1068 L120.4475,25.1068 Z M116.8205,5.3638 L112.4235,5.3638 L112.4235,11.6768 L116.8205,11.6768 C118.8685,11.6768 120.2115,10.3678 120.2115,8.5218 C120.2115,6.6748 118.8685,5.3638 116.8205,5.3638 Z M147.1011,1.2017 L147.1011,25.1077 L142.9361,25.1077 L133.4701,10.4337 L133.4701,25.1077 L128.8041,25.1077 L128.8041,1.2017 L132.9671,1.2017 L142.4351,15.8397 L142.4351,1.2017 L147.1011,1.2017 Z M167.0483,20.943 L167.0483,25.106 L151.3013,25.106 L151.3013,1.202 L167.0483,1.202 L167.0483,5.365 L155.9683,5.365 L155.9683,10.974 L165.4043,10.974 L165.4043,15.134 L155.9683,15.134 L155.9683,20.943 L167.0483,20.943 Z M186.268,20.943 L186.268,25.106 L170.757,25.106 L170.757,1.202 L175.424,1.202 L175.424,20.943 L186.268,20.943 Z M204.4526,20.943 L204.4526,25.106 L188.9416,25.106 L188.9416,1.202 L193.6086,1.202 L193.6086,20.943 L204.4526,20.943 Z M84.41,34.066 L84.41,38.229 L78.165,38.229 L78.165,57.972 L73.496,57.972 L73.496,38.229 L67.251,38.229 L67.251,34.066 L84.41,34.066 Z M103.2355,53.8073 L103.2355,57.9703 L87.4885,57.9703 L87.4885,34.0663 L103.2355,34.0663 L103.2355,38.2273 L92.1555,38.2273 L92.1555,43.8353 L101.5915,43.8353 L101.5915,47.9983 L92.1555,47.9983 L92.1555,53.8073 L103.2355,53.8073 Z M114.6691,58.172 C112.0491,58.172 109.9011,57.232 108.2241,55.554 C105.8061,53.137 105.8711,50.148 105.8711,46.019 C105.8711,41.888 105.8061,38.901 108.2241,36.484 C109.9011,34.804 112.0491,33.864 114.6691,33.864 C119.1331,33.864 122.6261,36.416 123.4641,41.418 L118.7311,41.418 C118.2611,39.504 117.0531,38.027 114.7031,38.027 C113.4281,38.027 112.3861,38.497 111.7141,39.27 C110.8081,40.278 110.5401,41.418 110.5401,46.019 C110.5401,50.618 110.8081,51.76 111.7141,52.766 C112.3861,53.539 113.4281,54.009 114.7031,54.009 C117.0531,54.009 118.2611,52.532 118.7311,50.618 L123.4641,50.618 C122.6261,55.622 119.1011,58.172 114.6691,58.172 Z M144.1124,34.066 L144.1124,57.972 L139.4464,57.972 L139.4464,47.964 L131.3544,47.964 L131.3544,57.972 L126.6884,57.972 L126.6884,34.066 L131.3544,34.066 L131.3544,43.835 L139.4464,43.835 L139.4464,34.066 L144.1124,34.066 Z" id="path-1"></path>
    </defs>
    <g id="Lockups" stroke="none" stroke-width="1" fill="none" fill-rule="evenodd">
        <g id="Lockups/Horizontal/Cornell-Tech-Solo" transform="translate(0.000000, -1.000000)">
            <mask id="mask-2" fill="white">
                <use xlink:href="#path-1"></use>
            </mask>
            <use id="Horizontal-Solo" fill="#231F20" xlink:href="#path-1"></use>
        </g>
    </g>
</svg>