<?xml version="1.0" encoding="UTF-8"?>
<svg width="150px" height="41px" viewBox="0 0 150 41" version="1.1" xmlns="http://www.w3.org/2000/svg" xmlns:xlink="http://www.w3.org/1999/xlink">
    <!-- Generator: Sketch 45.1 (43504) - http://www.bohemiancoding.com/sketch -->
    <title>Group</title>
    <desc>Created with Sketch.</desc>
    <defs></defs>
    <g id="Page-1" stroke="none" stroke-width="1" fill="none" fill-rule="evenodd">
        <g id="Group" fill="#8D9CA9">
            <path d="M4.12878527,39.7353853 C4.12878527,40.3117032 4.29600704,40.4236821 4.66827457,40.516749 L5.24459247,40.6466445 L5.24459247,40.9069331 L1.41342215,40.9069331 L1.41342215,40.6466445 L1.89717086,40.5351633 C2.2689407,40.4420964 2.43616247,40.2559626 2.43616247,39.7353853 L2.43616247,28.4648367 L2.02706635,28.4648367 C0.873932851,28.4648367 0.40909613,30.3435933 0.279200643,32.3333333 L0,32.3333333 L0,28.0930669 L6.56494774,28.0930669 L6.56494774,32.3333333 L6.28624478,32.3333333 C6.15585161,30.3435933 5.69101489,28.4648367 4.5378814,28.4648367 L4.12878527,28.4648367 L4.12878527,39.7353853 Z M6.97454156,40.6466445 L7.38314,40.5351633 C7.75540753,40.4420964 7.9226293,40.2559626 7.9226293,39.7353853 L7.9226293,29.2462004 C7.9226293,28.7256231 7.75540753,28.5579036 7.38314,28.4648367 L6.97454156,28.3533555 L6.97454156,28.0930669 L10.6006661,28.0930669 L10.6006661,28.3533555 L10.1731557,28.4648367 C9.81980016,28.5579036 9.6152521,28.7067111 9.6152521,29.2272884 L9.6152521,34.119023 L12.4236821,34.119023 L12.4236821,29.2272884 C12.4236821,28.7067111 12.219134,28.5579036 11.8657785,28.4648367 L11.4377704,28.3533555 L11.4377704,28.0930669 L15.0643926,28.0930669 L15.0643926,28.3533555 L14.6552965,28.4648367 C14.2835267,28.5579036 14.1158072,28.7256231 14.1158072,29.2462004 L14.1158072,39.716971 C14.1158072,40.2375483 14.2835267,40.4420964 14.6552965,40.5351633 L15.0643926,40.6466445 L15.0643926,40.9069331 L11.4377704,40.9069331 L11.4377704,40.6466445 L11.8657785,40.5535776 C12.219134,40.4605107 12.4236821,40.2559626 12.4236821,39.7353853 L12.4236821,34.5465334 L9.6152521,34.5465334 L9.6152521,39.7353853 C9.6152521,40.2559626 9.81980016,40.4605107 10.1731557,40.5535776 L10.6006661,40.6466445 L10.6006661,40.9069331 L6.97454156,40.9069331 L6.97454156,40.6466445 Z M18.114697,40.5351633 L19.397726,40.5351633 C21.0714368,40.5351633 21.3879637,38.6379924 21.6109261,36.6671644 L21.8901267,36.6671644 L21.8901267,40.9069331 L15.4734888,40.9069331 L15.4734888,40.6466445 L15.8825849,40.5351633 C16.2548524,40.4420964 16.4220742,40.2559626 16.4220742,39.7353853 L16.4220742,29.2646147 C16.4220742,28.7440374 16.2548524,28.5579036 15.8825849,28.4648367 L15.4734888,28.3533555 L15.4734888,28.0930669 L21.703993,28.0930669 L21.703993,32.3333333 L21.4247923,32.3333333 C21.2202442,30.3435933 20.8300601,28.4648367 19.397726,28.4648367 L18.114697,28.4648367 L18.114697,34.0627847 L18.7099269,34.0443704 C19.5092072,33.9886298 19.8068221,33.3003331 20.0113702,31.6823628 L20.2905708,31.6823628 L20.2905708,36.8528004 L20.0113702,36.8528004 C19.8441484,34.8257341 19.5281191,34.5092072 18.6910149,34.4534666 L18.114697,34.4350523 L18.114697,40.5351633 Z M25.8666207,29.804104 C25.6247464,28.7067111 25.4759389,28.5394893 25.1225834,28.4464224 L24.7692278,28.3533555 L24.7692278,28.0930669 L28.2470426,28.0930669 L28.2470426,28.3533555 L27.967842,28.4090961 C27.3731098,28.5394893 27.4288504,29.1347192 27.5960721,29.9344971 L29.0652349,37.2245703 L30.1442135,31.4220742 L29.7535316,29.4318365 C29.6047242,28.7256231 29.5489836,28.502163 29.1772137,28.4090961 L28.9353394,28.3533555 L28.9353394,28.0930669 L32.3385016,28.0930669 L32.3385016,28.3533555 L31.9294055,28.4280081 C31.3157613,28.5394893 31.4088281,29.2088741 31.5576356,29.9344971 L32.9710578,37.2245703 L34.3655679,30.3246813 C34.6263543,28.8928448 34.4959611,28.5394893 33.9380575,28.4280081 L33.5473757,28.3533555 L33.5473757,28.0930669 L36.095517,28.0930669 L36.095517,28.3533555 L35.7421615,28.4464224 C35.2957391,28.5579036 35.1842579,28.9112591 34.9239692,30.1574595 L32.6545308,40.9815857 L32.1712798,40.9815857 L30.4229164,32.5378814 L28.8422725,40.9815857 L28.2286283,40.9815857 L25.8666207,29.804104 Z M44.0554726,40.5351633 L44.79951,40.5351633 C46.3801539,40.5351633 46.8449906,38.6569044 47.0311244,36.6671644 L47.310325,36.6671644 L47.310325,40.9069331 L37.8065541,40.9069331 L37.8065541,40.6466445 L38.1972359,40.5724896 C38.9970139,40.4236821 38.9970139,40.2007197 38.7919681,39.0844148 L38.4386126,37.410704 L36.1512576,37.410704 L35.9093833,38.6753187 C35.6306803,40.1071552 35.7794878,40.4605107 36.3373914,40.5724896 L36.7275755,40.6466445 L36.7275755,40.9069331 L34.1426056,40.9069331 L34.1426056,40.6466445 L34.4586348,40.5535776 C34.9607978,40.4047701 35.091191,40.1071552 35.3514797,38.8430382 L37.6204204,28.0184143 L38.178324,28.0184143 L40.5592435,39.195896 C40.8006202,40.3495272 40.9121014,40.5909039 41.5819838,40.5909039 C42.1583017,40.5909039 42.3628498,40.2932889 42.3628498,39.7353853 L42.3628498,29.2462004 C42.3628498,28.7256231 42.195628,28.5579036 41.8238582,28.4648367 L41.4147621,28.3533555 L41.4147621,28.0930669 L45.0971249,28.0930669 L45.0971249,28.3717698 L44.5944642,28.4837487 C44.2226944,28.5579036 44.0554726,28.7256231 44.0554726,29.2462004 L44.0554726,40.5351633 Z M36.2254125,36.9826959 L38.3455457,36.9826959 L37.2670648,31.7012748 L36.2254125,36.9826959 Z M50.3601317,40.5351633 L51.1041691,40.5351633 C52.6853107,40.5351633 53.1501474,38.6569044 53.3357835,36.6671644 L53.6149841,36.6671644 L53.6149841,40.9069331 L47.7194212,40.9069331 L47.7194212,40.6466445 L48.1285173,40.5351633 C48.5002871,40.4420964 48.6680066,40.2559626 48.6680066,39.7353853 L48.6680066,29.2462004 C48.6680066,28.7256231 48.5002871,28.5579036 48.1285173,28.4648367 L47.7194212,28.3533555 L47.7194212,28.0930669 L51.401784,28.0930669 L51.401784,28.3717698 L50.899621,28.4837487 C50.5273535,28.5579036 50.3601317,28.7256231 50.3601317,29.2462004 L50.3601317,40.5351633 Z M59.6792619,40.9815857 C58.600781,40.9815857 58.2285135,40.2375483 57.8751579,40.2375483 C57.6706099,40.2375483 57.4287355,40.2932889 57.2430994,40.9069331 L57.0196394,40.9069331 L57.0196394,36.6671644 L57.29884,36.6671644 C57.5218024,39.0660005 58.4146472,40.5724896 59.6608476,40.5724896 C60.4974542,40.5724896 61.0742697,39.8095402 61.0742697,38.433942 C61.0742697,35.5324452 56.9265725,34.2862448 56.9265725,31.0687187 C56.9265725,29.3392673 57.8194173,28.0184143 59.4000613,28.0184143 C60.4232993,28.0184143 60.6462616,28.6882968 61.0742697,28.6882968 C61.3156464,28.6882968 61.4833659,28.502163 61.5764328,28.0930669 L61.7993951,28.0930669 L61.7993951,32.3333333 L61.5206922,32.3333333 C61.2972321,30.1947858 60.7209142,28.4280081 59.381647,28.4280081 C58.4519735,28.4280081 58.2658397,29.3576816 58.2658397,29.9902377 C58.2658397,32.7613414 62.4130393,33.7099269 62.4130393,37.5779258 C62.4130393,39.5497492 61.3345584,40.9815857 59.6792619,40.9815857 L59.6792619,40.9815857 Z M66.5234103,39.7353853 C66.5234103,40.2559626 66.6906321,40.4420964 67.0628996,40.5351633 L67.5461506,40.6466445 L67.5461506,40.9069331 L63.8080472,40.9069331 L63.8080472,40.6466445 L64.2917959,40.5351633 C64.6635657,40.4420964 64.8307875,40.2559626 64.8307875,39.7353853 L64.8307875,28.4648367 L64.4216914,28.4648367 C63.2685579,28.4648367 62.8037211,30.3435933 62.673328,32.3333333 L62.394625,32.3333333 L62.394625,28.0930669 L68.9600704,28.0930669 L68.9600704,32.3333333 L68.6808698,32.3333333 C68.5504766,30.3435933 68.0856399,28.4648367 66.9325064,28.4648367 L66.5234103,28.4648367 L66.5234103,39.7353853 Z M69.3686689,40.6466445 L69.7782627,40.5351633 C70.1500325,40.4420964 70.3172543,40.2559626 70.3172543,39.7353853 L70.3172543,29.2462004 C70.3172543,28.7256231 70.1500325,28.5579036 69.7782627,28.4648367 L69.3686689,28.3533555 L69.3686689,28.0930669 L72.9211363,28.0930669 C74.5022779,28.0930669 75.9714406,29.0973929 75.9714406,31.1986141 C75.9714406,32.817082 75.2084913,33.9513035 73.6651736,34.3603997 C75.3572987,34.6769266 75.3572987,35.4767046 75.5250182,37.6152521 L75.6364994,39.2516366 C75.69224,40.1633934 75.7295662,40.3679415 75.9898549,40.3679415 C76.2690555,40.3679415 76.3805367,39.7353853 76.3805367,39.1217411 L76.3805367,38.8057119 L76.696566,38.8057119 L76.696566,39.2332223 C76.696566,40.2559626 76.4731059,40.9815857 75.413537,40.9815857 C74.3718847,40.9815857 73.888136,40.3863558 73.8139811,38.2478083 L73.7209142,35.8673864 C73.6835879,34.7326672 73.404885,34.5649477 72.8653957,34.5649477 L71.9914628,34.5649477 L71.9914628,39.7353853 C71.9914628,40.2559626 72.1586846,40.4605107 72.5304544,40.5535776 L72.9395506,40.6466445 L72.9395506,40.9069331 L69.3686689,40.9069331 L69.3686689,40.6466445 Z M71.9914628,34.1931779 L72.605107,34.1931779 C73.6467593,34.1931779 74.1673366,33.9144749 74.1673366,31.4404885 C74.1673366,28.9669997 73.4790399,28.4648367 72.7350025,28.4648367 L71.9914628,28.4648367 L71.9914628,34.1931779 Z M79.4487577,40.5351633 L80.7322844,40.5351633 C82.4059952,40.5351633 82.7220244,38.6379924 82.9454845,36.6671644 L83.2246851,36.6671644 L83.2246851,40.9069331 L76.8080472,40.9069331 L76.8080472,40.6466445 L77.217641,40.5351633 C77.5894108,40.4420964 77.7566326,40.2559626 77.7566326,39.7353853 L77.7566326,29.2646147 C77.7566326,28.7440374 77.5894108,28.5579036 77.217641,28.4648367 L76.8080472,28.3533555 L76.8080472,28.0930669 L83.0385514,28.0930669 L83.0385514,32.3333333 L82.7593507,32.3333333 C82.5553003,30.3435933 82.1641208,28.4648367 80.7322844,28.4648367 L79.4487577,28.4648367 L79.4487577,34.0627847 L80.0439876,34.0443704 C80.8437656,33.9886298 81.1413805,33.3003331 81.3464262,31.6823628 L81.6251292,31.6823628 L81.6251292,36.8528004 L81.3464262,36.8528004 C81.1787068,34.8257341 80.8626775,34.5092072 80.0255733,34.4534666 L79.4487577,34.4350523 L79.4487577,40.5351633 Z M86.3491444,40.5351633 L87.6321733,40.5351633 C89.3058842,40.5351633 89.6224111,38.6379924 89.8453735,36.6671644 L90.1240764,36.6671644 L90.1240764,40.9069331 L83.7079361,40.9069331 L83.7079361,40.6466445 L84.1170323,40.5351633 C84.4888021,40.4420964 84.6565216,40.2559626 84.6565216,39.7353853 L84.6565216,29.2646147 C84.6565216,28.7440374 84.4888021,28.5579036 84.1170323,28.4648367 L83.7079361,28.3533555 L83.7079361,28.0930669 L89.9384403,28.0930669 L89.9384403,32.3333333 L89.6597374,32.3333333 C89.4546916,30.3435933 89.0645075,28.4648367 87.6321733,28.4648367 L86.3491444,28.4648367 L86.3491444,34.0627847 L86.9443743,34.0443704 C87.7436545,33.9886298 88.0412695,33.3003331 88.2463152,31.6823628 L88.5250182,31.6823628 L88.5250182,36.8528004 L88.2463152,36.8528004 C88.0785958,34.8257341 87.7625665,34.5092072 86.9254623,34.4534666 L86.3491444,34.4350523 L86.3491444,40.5351633 Z M94.6624555,39.7353853 C94.6624555,40.3117032 94.8296773,40.4236821 95.2014471,40.516749 L95.7782627,40.6466445 L95.7782627,40.9069331 L91.9470924,40.9069331 L91.9470924,40.6466445 L92.4303434,40.5351633 C92.8026109,40.4420964 92.9703304,40.2559626 92.9703304,39.7353853 L92.9703304,28.4648367 L92.5607366,28.4648367 C91.4076031,28.4648367 90.9427664,30.3435933 90.8123732,32.3333333 L90.5336702,32.3333333 L90.5336702,28.0930669 L97.098618,28.0930669 L97.098618,32.3333333 L96.819915,32.3333333 C96.6895218,30.3435933 96.2246851,28.4648367 95.0715516,28.4648367 L94.6624555,28.4648367 L94.6624555,39.7353853 Z M104.874431,37.9501933 C104.874431,39.9399334 103.869607,40.9815857 102.326289,40.9815857 C100.931281,40.9815857 100.113089,39.8468665 100.131503,38.6011638 C100.150415,37.6341641 100.857126,37.1504154 101.433444,37.2245703 C101.84254,37.2803109 102.251637,37.5779258 102.195896,38.2288963 C102.140155,39.1590674 101.135829,39.1217411 101.098503,39.698059 C101.061675,40.0514146 101.526511,40.5724896 102.121741,40.5724896 C103.163393,40.5724896 103.163393,39.2516366 103.163393,38.2478083 L103.163393,29.2272884 C103.163393,28.7067111 102.995674,28.5579036 102.586578,28.4648367 L102.121741,28.3533555 L102.121741,28.0930669 L105.78569,28.0930669 L105.78569,28.3533555 L105.376096,28.4648367 C105.004326,28.5579036 104.874431,28.7256231 104.874431,29.2462004 L104.874431,37.9501933 Z M109.207764,41 C107.03189,41 105.971326,38.0616745 105.971326,34.4907928 C105.971326,30.9383255 106.994564,28 109.207764,28 C111.402052,28 112.462119,30.9383255 112.462119,34.4907928 C112.462119,38.0616745 111.457793,41 109.207764,41 L109.207764,41 Z M109.207764,28.4280081 C108.277593,28.4280081 107.812756,29.1715478 107.812756,34.4161403 C107.812756,39.8284522 108.240266,40.5909039 109.207764,40.5909039 C110.174764,40.5909039 110.620688,39.8284522 110.620688,34.3793117 C110.620688,29.1715478 110.174764,28.4280081 109.207764,28.4280081 L109.207764,28.4280081 Z M119.827342,40.6466445 L120.23594,40.5351633 C120.608208,40.4420964 120.77543,40.2559626 120.77543,39.7353853 L120.77543,29.2462004 C120.77543,28.6325562 120.496727,28.4090961 119.845756,28.4090961 C119.027564,28.4090961 118.823016,28.7813637 118.823016,29.8414303 L118.823016,37.912867 C118.823016,39.9215191 118.115807,41 116.386356,41 C114.600666,41 113.559512,39.9215191 113.559512,37.9686076 L113.559512,29.2462004 C113.559512,28.7256231 113.429118,28.5579036 113.057348,28.4648367 L112.648252,28.3533555 L112.648252,28.0930669 L116.34903,28.0930669 L116.34903,28.3533555 L115.846867,28.4648367 C115.43777,28.5579036 115.270549,28.7067111 115.270549,29.2272884 L115.270549,38.0990008 C115.270549,39.9026071 115.791126,40.3679415 116.739711,40.3679415 C117.855519,40.3679415 118.320853,39.7353853 118.320853,37.912867 L118.320853,30.5108151 C118.320853,28.9485854 118.301941,28.5768156 117.632556,28.4280081 L117.279201,28.3533555 L117.279201,28.0930669 L123.379312,28.0930669 C124.959956,28.0930669 126.429616,29.0973929 126.429616,31.1986141 C126.429616,32.817082 125.666667,33.9513035 124.123349,34.3603997 C125.815474,34.6769266 125.815474,35.4767046 125.983194,37.6152521 L126.094675,39.2516366 C126.150415,40.1633934 126.187742,40.3679415 126.44803,40.3679415 C126.726733,40.3679415 126.838712,39.7353853 126.838712,39.1217411 L126.838712,38.8057119 L127.154741,38.8057119 L127.154741,39.2332223 C127.154741,40.2559626 126.931281,40.9815857 125.871712,40.9815857 C124.83006,40.9815857 124.346311,40.3863558 124.272157,38.2478083 L124.17909,35.8673864 C124.141763,34.7326672 123.86306,34.5649477 123.323571,34.5649477 L122.449141,34.5649477 L122.449141,39.7353853 C122.449141,40.2559626 122.616362,40.4605107 122.98863,40.5535776 L123.398224,40.6466445 L123.398224,40.9069331 L119.827342,40.9069331 L119.827342,40.6466445 Z M122.449141,34.1931779 L123.063282,34.1931779 C124.104437,34.1931779 124.625014,33.9144749 124.625014,31.4404885 C124.625014,28.9669997 123.937215,28.4648367 123.193178,28.4648367 L122.449141,28.4648367 L122.449141,34.1931779 Z M127.489683,28.4280081 L127.229394,28.3533555 L127.229394,28.0930669 L129.665556,28.0930669 L132.994564,36.5362735 L132.994564,30.4550745 C132.994564,29.0784809 133.031392,28.5952299 132.045978,28.4280081 L131.729949,28.3533555 L131.729949,28.0930669 L134.482141,28.0930669 L134.482141,28.3533555 L134.221852,28.4280081 C133.422572,28.6136442 133.478312,29.2646147 133.478312,30.5665556 L133.478312,40.9069331 L132.883083,40.9069331 L128.716971,30.6596225 L128.716971,38.5449255 C128.716971,40.0514146 128.716971,40.4794227 129.907431,40.6466445 L129.907431,40.9069331 L127.229394,40.9069331 L127.229394,40.6466445 L127.563838,40.5909039 C128.252134,40.4605107 128.233222,39.7911259 128.233222,38.433942 L128.233222,29.5438153 C127.917193,28.8928448 127.787298,28.5394893 127.489683,28.4280081 L127.489683,28.4280081 Z M143.855519,40.5351633 L144.599556,40.5351633 C146.180698,40.5351633 146.645534,38.6569044 146.831668,36.6671644 L147.110371,36.6671644 L147.110371,40.9069331 L137.625512,40.9069331 L137.625512,40.6466445 L138.015696,40.5724896 C138.815972,40.4236821 138.834386,40.2007197 138.610926,39.0844148 L138.258068,37.410704 L135.970216,37.410704 L135.728341,38.6753187 C135.449141,40.1071552 135.598446,40.4605107 136.156349,40.5724896 L136.547031,40.6466445 L136.547031,40.9069331 L133.961563,40.9069331 L133.961563,40.6466445 L134.277593,40.5535776 C134.780253,40.4047701 134.910149,40.1071552 135.170438,38.8430382 L137.439378,28.0184143 L137.997282,28.0184143 L140.378201,39.195896 C140.620076,40.3495272 140.712645,40.5909039 141.38203,40.5909039 C141.958845,40.5909039 142.163393,40.2932889 142.163393,39.7353853 L142.163393,29.2462004 C142.163393,28.7256231 141.996172,28.5579036 141.623904,28.4648367 L141.214808,28.3533555 L141.214808,28.0930669 L144.897171,28.0930669 L144.897171,28.3717698 L144.395008,28.4837487 C144.023238,28.5579036 143.855519,28.7256231 143.855519,29.2462004 L143.855519,40.5351633 Z M136.04437,36.9826959 L138.164504,36.9826959 L137.08652,31.7012748 L136.04437,36.9826959 Z M149.305157,40.0887409 C149.305157,40.5909039 148.933387,40.9631714 148.486965,40.9631714 C148.040542,40.9631714 147.668275,40.5909039 147.668275,40.0887409 C147.668275,39.5865778 148.040542,39.214808 148.486965,39.214808 C148.933387,39.214808 149.305157,39.5865778 149.305157,40.0887409 L149.305157,40.0887409 Z" id="WSJ"></path>
            <g id="Dow-Jones-Logo-Copy-3" transform="translate(22.000000, 0.000000)">
                <path d="M39.1545455,5.54272727 C39.1545455,4.58563636 38.4214545,4.05490909 37.4834545,4.05490909 L35.8123636,4.05490909 L35.8123636,9.17890909 L37.4834545,9.17890909 C38.4214545,9.17890909 39.1545455,8.64818182 39.1545455,7.69109091 L39.1545455,5.54272727 L39.1545455,5.54272727 Z M34.0903636,10.7507273 L34.0903636,2.48436364 L37.4834545,2.48436364 C39.642,2.48436364 40.8752727,3.71127273 40.8752727,5.54272727 L40.8752727,7.69109091 C40.8752727,9.52127273 39.642,10.7507273 37.4834545,10.7507273 L34.0903636,10.7507273 L34.0903636,10.7507273 Z" id="Fill-59"></path>
                <path d="M47.8689091,5.42436364 C47.8689091,4.46727273 47.1358182,3.93654545 46.1978182,3.93654545 C45.2598182,3.93654545 44.5267273,4.46727273 44.5267273,5.42436364 L44.5267273,7.80945455 C44.5267273,8.76654545 45.2598182,9.29727273 46.1978182,9.29727273 C47.1358182,9.29727273 47.8689091,8.76654545 47.8689091,7.80945455 L47.8689091,5.42436364 L47.8689091,5.42436364 Z M46.1978182,10.8678182 C44.0392727,10.8678182 42.8047273,9.63963636 42.8047273,7.80945455 L42.8047273,5.42436364 C42.8047273,3.59418182 44.0392727,2.366 46.1978182,2.366 C48.3563636,2.366 49.5896364,3.59418182 49.5896364,5.42436364 L49.5896364,7.80945455 C49.5896364,9.63963636 48.3563636,10.8678182 46.1978182,10.8678182 L46.1978182,10.8678182 Z" id="Fill-60"></path>
                <polyline id="Fill-61" points="56.1849091 6.12054545 54.7263636 10.7507273 52.8630909 10.7507273 51.206 2.48436364 52.9407273 2.48436364 53.9818182 8.08054545 55.6503636 2.48436364 56.7181818 2.48436364 58.388 8.08054545 59.4278182 2.48436364 61.1625455 2.48436364 59.5054545 10.7507273 57.6421818 10.7507273 56.1849091 6.12054545"></polyline>
                <path d="M70.2434545,2.48436364 L71.9654545,2.48436364 L71.9654545,8.38854545 C71.9654545,10.0290909 70.9765455,10.8678182 69.2927273,10.8678182 C67.6089091,10.8678182 66.62,10.0290909 66.62,8.38854545 L68.3547273,8.38854545 C68.4056364,8.97909091 68.7403636,9.29727273 69.2927273,9.29727273 C69.9609091,9.29727273 70.2434545,8.88490909 70.2434545,8.34145455 L70.2434545,2.48436364" id="Fill-62"></path>
                <path d="M79.1270909,5.42436364 C79.1270909,4.46727273 78.394,3.93654545 77.456,3.93654545 C76.518,3.93654545 75.7849091,4.46727273 75.7849091,5.42436364 L75.7849091,7.80945455 C75.7849091,8.76654545 76.518,9.29727273 77.456,9.29727273 C78.394,9.29727273 79.1270909,8.76654545 79.1270909,7.80945455 L79.1270909,5.42436364 L79.1270909,5.42436364 Z M77.456,10.8678182 C75.2974545,10.8678182 74.0641818,9.63963636 74.0641818,7.80945455 L74.0641818,5.42436364 C74.0641818,3.59418182 75.2974545,2.366 77.456,2.366 C79.6145455,2.366 80.8478182,3.59418182 80.8478182,5.42436364 L80.8478182,7.80945455 C80.8478182,9.63963636 79.6145455,10.8678182 77.456,10.8678182 L77.456,10.8678182 Z" id="Fill-63"></path>
                <polyline id="Fill-64" points="89.7365455 10.7507273 88.0145455 10.7507273 84.6736364 5.42436364 84.6736364 10.7507273 82.9516364 10.7507273 82.9516364 2.48436364 84.6736364 2.48436364 88.0145455 7.80945455 88.0145455 2.48436364 89.7365455 2.48436364 89.7365455 10.7507273"></polyline>
                <polyline id="Fill-65" points="93.738 5.79090909 97.0929091 5.79090909 97.0929091 7.36145455 93.738 7.36145455 93.738 9.17890909 97.4912727 9.17890909 97.4912727 10.7507273 92.016 10.7507273 92.016 2.48436364 97.4912727 2.48436364 97.4912727 4.05490909 93.738 4.05490909 93.738 5.79090909"></polyline>
                <path d="M99.2998182,8.14036364 L101.074,8.14036364 C101.175818,8.83654545 101.767636,9.29727273 102.628,9.29727273 C103.386545,9.29727273 103.913455,9.03763636 103.913455,8.47127273 C103.913455,8.01054545 103.618182,7.75090909 102.988182,7.59690909 L101.472364,7.21890909 C100.096545,6.87654545 99.4156364,5.99072727 99.4156364,4.77527273 C99.4156364,3.122 100.829636,2.366 102.397636,2.366 C104.196,2.366 105.314727,3.33454545 105.506909,4.73963636 L103.732727,4.73963636 C103.578727,4.18472727 102.95,3.93654545 102.370909,3.93654545 C101.651818,3.93654545 101.137636,4.19618182 101.137636,4.77527273 C101.137636,5.25890909 101.548727,5.47145455 102.037455,5.58981818 L103.502364,5.95509091 C104.889636,6.29745455 105.635455,7.07763636 105.635455,8.47127273 C105.635455,9.95909091 104.581636,10.8678182 102.628,10.8678182 C100.662909,10.8678182 99.3901818,9.78218182 99.2998182,8.14036364" id="Fill-66"></path>
                <path d="M8.61927273,4.48254545 C8.59636364,4.22036364 8.58490909,4.10454545 8.534,3.92763636 C8.27181818,3.02145455 7.43563636,2.35836364 6.44418182,2.35836364 L2.25309091,2.35836364 L2.25309091,10.85 L4.37981818,10.85 L4.37981818,12.9754545 L0.130181818,12.9754545 L0.130181818,0.235454545 L6.47345455,0.235454545 C8.61545455,0.235454545 10.3870909,1.79454545 10.6912727,3.85381818 C10.7205455,4.05363636 10.7409091,4.25981818 10.7409091,4.48509091 L8.61927273,4.48254545" id="Fill-67"></path>
                <path d="M10.7409091,6.07218182 L10.7409091,8.708 C10.7409091,11.0612727 8.76309091,12.9754545 6.41109091,12.9754545 L5.96690909,12.9754545 L5.96690909,10.85 L6.392,10.85 C7.58963636,10.85 8.61927273,9.87381818 8.61927273,8.67490909 L8.61927273,6.07218182 L10.7409091,6.07218182" id="Fill-68"></path>
                <polygon id="Fill-69" points="21.9383636 0.235454545 22.8941818 0.235454545 22.8941818 12.9754545 21.9383636 12.9754545"></polygon>
            </g>
        </g>
    </g>
</svg>