<?xml version="1.0" encoding="utf-8"?>
<!-- Generator: Adobe Illustrator 24.0.1, SVG Export Plug-In . SVG Version: 6.00 Build 0)  -->
<svg version="1.1" id="Layer_1" xmlns="http://www.w3.org/2000/svg" xmlns:xlink="http://www.w3.org/1999/xlink" x="0px" y="0px"
	 viewBox="0 0 540 396.6" style="enable-background:new 0 0 540 396.6;" xml:space="preserve">
<style type="text/css">
	.st0{fill:#EE5525;}
	.st1{fill:#FFFFFF;stroke:#EE5525;stroke-width:2;stroke-linecap:round;stroke-miterlimit:10;}
	.st2{fill:#162B54;stroke:#EE5525;stroke-width:3;stroke-linecap:round;stroke-miterlimit:10;}
	.st3{fill:#162B54;stroke:#EE5525;stroke-width:2;stroke-linecap:round;stroke-miterlimit:10;}
	.st4{fill:#FFFFFF;stroke:#EE5525;stroke-width:0.5;stroke-miterlimit:10;}
	.st5{fill:#FFFFFF;stroke:#FFFFFF;stroke-width:0.5;stroke-linecap:round;stroke-linejoin:round;}
	.st6{fill:#162B54;stroke:#162B54;stroke-width:0.5;stroke-linecap:round;stroke-linejoin:round;}
	.st7{fill-rule:evenodd;clip-rule:evenodd;fill:#FFFFFF;}
	.st8{clip-path:url(#SVGID_2_);}
	.st9{fill:#FFFFFF;}
	.st10{clip-path:url(#SVGID_4_);}
	.st11{clip-path:url(#SVGID_6_);}
	.st12{clip-path:url(#SVGID_8_);}
	.st13{clip-path:url(#SVGID_10_);}
	.st14{clip-path:url(#SVGID_12_);}
	.st15{clip-path:url(#SVGID_14_);}
	.st16{clip-path:url(#SVGID_16_);}
	.st17{clip-path:url(#SVGID_18_);}
	.st18{clip-path:url(#SVGID_20_);}
	.st19{clip-path:url(#SVGID_22_);}
	.st20{clip-path:url(#SVGID_24_);}
</style>
<title>thankyou_2</title>
<g id="Layer_2_1_">
	<g id="Layer_2-2">
		<rect class="st0" width="540" height="396.6"/>
		<path class="st1" d="M274.3,64.4c0.7-0.7,1.1-1.6,1.1-2.5l0.2-17.6c0-1.9-1.5-3.5-3.4-3.5c0,0-0.1,0-0.1,0c-2,0-3.6,1.6-3.6,3.6
			L268.2,62c0,1.9,1.5,3.5,3.4,3.5c0,0,0.1,0,0.1,0C272.7,65.5,273.6,65.1,274.3,64.4z"/>
		<path class="st1" d="M205.2,84.1c0.3-0.2,0.5-0.4,0.8-0.6c1.2-1.1,1.4-2.9,0.6-4.3L198,64.1c-1-1.7-3.1-2.2-4.8-1.3c0,0,0,0-0.1,0
			c-1.7,1-2.3,3.2-1.4,4.9l8.6,15.1C201.4,84.6,203.5,85.1,205.2,84.1C205.2,84.1,205.2,84.1,205.2,84.1z"/>
		<path class="st1" d="M151.1,134.7c1.4,0.8,3.2,0.5,4.3-0.6c0.2-0.2,0.4-0.5,0.6-0.8c1-1.7,0.5-3.8-1.2-4.8c0,0,0,0,0,0l-15.1-8.6
			c-1.7-1-3.9-0.3-4.9,1.4c-1,1.7-0.5,3.8,1.2,4.8c0,0,0,0,0,0L151.1,134.7z"/>
		<path class="st1" d="M133.8,203.5c1,0,1.9-0.4,2.5-1.1c0.7-0.7,1.1-1.6,1.1-2.5c0-1.9-1.5-3.5-3.4-3.5c0,0-0.1,0-0.1,0l-17.6,0.2
			c-2,0-3.6,1.6-3.6,3.6c0,1.9,1.5,3.5,3.4,3.5c0,0,0.1,0,0.1,0L133.8,203.5z"/>
		<path class="st1" d="M137.5,279.8l15.4-9c0.3-0.2,0.5-0.4,0.7-0.6c1.2-1.1,1.4-2.9,0.6-4.3c-1-1.7-3.1-2.3-4.8-1.3c0,0,0,0-0.1,0
			l-15.4,9c-1.7,1-2.3,3.2-1.4,4.9C133.7,280.3,135.8,280.8,137.5,279.8C137.5,279.8,137.5,279.8,137.5,279.8z"/>
		<path class="st1" d="M388.9,261.5c-1.7-0.9-3.9-0.3-4.9,1.4c-1,1.7-0.5,3.8,1.2,4.8c0,0,0,0,0.1,0l15.1,8.6
			c1.4,0.8,3.2,0.5,4.3-0.6c0.2-0.2,0.4-0.5,0.6-0.8c1-1.7,0.5-3.8-1.2-4.8c0,0,0,0-0.1,0L388.9,261.5z"/>
		<path class="st1" d="M406.2,192.8c-2,0-3.6,1.6-3.6,3.6c0,1.9,1.5,3.5,3.4,3.5c0.1,0,0.1,0,0.2,0l17.6-0.2c2,0,3.6-1.6,3.6-3.6
			c0-1.9-1.5-3.5-3.4-3.5c0,0-0.1,0-0.1,0L406.2,192.8z"/>
		<path class="st1" d="M402.5,116.4l-15.4,9c-1.7,1-2.3,3.2-1.4,4.9c1,1.7,3.1,2.2,4.8,1.3c0,0,0,0,0,0l15.4-9
			c0.3-0.2,0.5-0.3,0.7-0.6c1.2-1.1,1.4-2.9,0.6-4.3C406.3,116,404.2,115.4,402.5,116.4C402.5,116.4,402.5,116.4,402.5,116.4z"/>
		<path class="st1" d="M342.1,81.8c0.2-0.2,0.4-0.5,0.6-0.8l9-15.3c1-1.7,0.5-3.8-1.2-4.8c0,0,0,0-0.1,0c-1.7-1-3.9-0.3-4.9,1.4
			l-9,15.4c-1,1.7-0.5,3.8,1.2,4.8c0,0,0,0,0,0C339.3,83.2,341,82.9,342.1,81.8z"/>
		<path class="st1" d="M265.7,331.8c-0.7,0.7-1.1,1.6-1.1,2.5l-0.2,17.6c0,1.9,1.5,3.5,3.4,3.5c0,0,0.1,0,0.1,0c2,0,3.6-1.6,3.6-3.6
			l0.2-17.6c0-1.9-1.5-3.5-3.4-3.5c0,0-0.1,0-0.1,0C267.3,330.8,266.4,331.2,265.7,331.8z"/>
		<path class="st1" d="M334.8,312.1c-1.7,1-2.3,3.2-1.4,4.9l8.6,15.1c1,1.7,3.1,2.3,4.8,1.3c0,0,0,0,0.1,0c1.7-1,2.3-3.2,1.4-4.9
			l-8.6-15.1C338.7,311.7,336.5,311.1,334.8,312.1C334.8,312.1,334.8,312.1,334.8,312.1z"/>
		<path class="st1" d="M388.9,261.5c-1.4-0.8-3.2-0.5-4.3,0.6c-0.2,0.2-0.4,0.5-0.6,0.8c-1,1.7-0.5,3.8,1.2,4.8c0,0,0,0,0,0
			l15.1,8.6c1.7,1,3.9,0.3,4.9-1.4c1-1.7,0.5-3.8-1.2-4.8c0,0,0,0-0.1,0L388.9,261.5z"/>
		<path class="st1" d="M406.2,192.8c-2,0-3.6,1.6-3.6,3.6c0,1.9,1.5,3.5,3.4,3.5c0,0,0.1,0,0.1,0l17.6-0.2c2,0,3.6-1.6,3.6-3.6
			c0-1.9-1.5-3.5-3.4-3.5c0,0-0.1,0-0.1,0L406.2,192.8z"/>
		<path class="st1" d="M402.5,116.4l-15.4,9c-0.3,0.2-0.5,0.3-0.7,0.6c-1.2,1.1-1.4,2.9-0.6,4.3c1,1.7,3.1,2.2,4.8,1.3
			c0,0,0,0,0.1,0l15.4-9c1.7-1,2.3-3.2,1.4-4.9C406.3,115.9,404.2,115.4,402.5,116.4C402.5,116.4,402.5,116.4,402.5,116.4z"/>
		<path class="st1" d="M151.1,134.7c1.7,0.9,3.9,0.3,4.9-1.4c1-1.7,0.5-3.8-1.2-4.8c0,0,0,0-0.1,0l-15.1-8.6
			c-1.4-0.8-3.2-0.5-4.3,0.6c-0.2,0.2-0.4,0.5-0.6,0.8c-1,1.7-0.5,3.8,1.2,4.8c0,0,0,0,0.1,0L151.1,134.7z"/>
		<path class="st1" d="M133.8,203.5c2,0,3.6-1.6,3.6-3.6c0-1.9-1.5-3.5-3.4-3.5c0,0-0.1,0-0.1,0l-17.6,0.2c-1,0-1.9,0.4-2.6,1.1
			c-0.7,0.7-1.1,1.6-1.1,2.5c0,1.9,1.5,3.5,3.4,3.5c0.1,0,0.1,0,0.2,0L133.8,203.5z"/>
		<path class="st1" d="M137.5,279.8l15.4-9c1.7-1,2.3-3.2,1.4-4.9c-1-1.7-3.1-2.2-4.8-1.3c0,0,0,0-0.1,0l-15.4,9
			c-0.3,0.2-0.5,0.4-0.7,0.6c-1.2,1.1-1.4,2.9-0.6,4.3C133.7,280.3,135.8,280.8,137.5,279.8C137.5,279.8,137.5,279.8,137.5,279.8z"
			/>
		<path class="st1" d="M197.9,314.5c-0.2,0.2-0.4,0.5-0.6,0.8l-9,15.4c-1,1.7-0.5,3.8,1.2,4.8c0,0,0,0,0.1,0
			c1.7,0.9,3.9,0.3,4.9-1.4l9-15.4c1-1.7,0.5-3.8-1.2-4.8c0,0,0,0,0,0C200.7,313.1,199,313.3,197.9,314.5z"/>
		<path class="st2" d="M358.7,114.9c0.9,0,1.7-0.3,2.3-0.9l11.5-11.2c1.3-1.2,1.3-3.2,0.1-4.5c0,0-0.1-0.1-0.1-0.1
			c-1.3-1.3-3.4-1.3-4.7,0l-11.5,11.2c-1.3,1.2-1.3,3.2-0.1,4.5c0,0,0.1,0.1,0.1,0.1C357,114.6,357.9,114.9,358.7,114.9z"/>
		<path class="st2" d="M301.6,83.2c0.3,0.1,0.6,0.1,0.9,0.1c1.5,0,2.8-1,3.2-2.4l4.2-15.2c0.5-1.7-0.6-3.5-2.3-3.9c0,0,0,0-0.1,0
			c-1.7-0.4-3.5,0.6-4,2.3l-4.2,15.3C298.9,80.9,299.9,82.7,301.6,83.2C301.6,83.1,301.6,83.1,301.6,83.2z"/>
		<path class="st2" d="M234.3,80.9c0.4,1.4,1.7,2.4,3.2,2.4c0.3,0,0.6,0,0.9-0.1c1.7-0.4,2.8-2.1,2.3-3.9c0,0,0,0,0-0.1L236.5,64
			c-0.5-1.7-2.3-2.7-4-2.3c-1.7,0.4-2.8,2.2-2.3,3.9c0,0,0,0,0,0.1L234.3,80.9z"/>
		<path class="st2" d="M178.9,114c0.6,0.6,1.5,0.9,2.3,0.9c0.9,0,1.7-0.3,2.3-0.9c1.3-1.2,1.3-3.2,0.1-4.4c0,0-0.1-0.1-0.1-0.1
			l-11.5-11.2c-1.3-1.3-3.4-1.3-4.6,0c-1.3,1.2-1.3,3.2-0.1,4.4c0,0,0.1,0.1,0.1,0.1L178.9,114z"/>
		<path class="st2" d="M132.3,165.5l15.6,4.1c0.3,0.1,0.6,0.1,0.9,0.1c1.5,0,2.8-1,3.2-2.4c0.5-1.7-0.6-3.5-2.3-3.9c0,0,0,0-0.1,0
			l-15.6-4.1c-1.7-0.4-3.5,0.6-4,2.3C129.5,163.3,130.5,165,132.3,165.5C132.3,165.5,132.3,165.5,132.3,165.5z"/>
		<path class="st2" d="M305.6,315.3c-0.5-1.7-2.3-2.7-4-2.3c-1.7,0.4-2.8,2.1-2.4,3.8c0,0,0,0.1,0,0.1l4.2,15.2
			c0.4,1.4,1.7,2.4,3.2,2.4c0.3,0,0.6,0,0.9-0.1c1.7-0.4,2.8-2.2,2.3-3.9c0,0,0,0,0-0.1L305.6,315.3z"/>
		<path class="st2" d="M361.1,282.3c-1.3-1.3-3.4-1.3-4.7,0c-1.3,1.2-1.3,3.2-0.1,4.4c0,0,0.1,0.1,0.1,0.1l11.5,11.2
			c0.6,0.6,1.5,0.9,2.3,0.9c0.9,0,1.7-0.3,2.3-0.9c1.3-1.2,1.3-3.2,0.1-4.4c0,0-0.1-0.1-0.1-0.1L361.1,282.3z"/>
		<path class="st2" d="M407.7,230.7l-15.6-4.1c-1.7-0.5-3.5,0.5-4,2.3c-0.5,1.7,0.6,3.5,2.3,3.9c0,0,0,0,0.1,0l15.6,4.1
			c0.3,0.1,0.6,0.1,0.9,0.1c1.5,0,2.8-1,3.2-2.4C410.5,233,409.5,231.2,407.7,230.7C407.8,230.7,407.7,230.7,407.7,230.7z"/>
		<path class="st2" d="M391.2,169.7c0.3,0,0.6,0,0.9-0.1l15.6-4.1c1.7-0.4,2.8-2.1,2.3-3.9c0,0,0,0,0-0.1c-0.5-1.7-2.3-2.7-4-2.3
			l-15.7,4.1c-1.7,0.4-2.8,2.1-2.3,3.9c0,0,0,0,0,0.1C388.5,168.7,389.8,169.7,391.2,169.7z"/>
		<path class="st2" d="M181.3,281.3c-0.9,0-1.7,0.3-2.3,0.9l-11.5,11.2c-1.3,1.2-1.3,3.2-0.1,4.5c0,0,0.1,0.1,0.1,0.1
			c1.3,1.2,3.4,1.2,4.7,0l11.5-11.2c1.3-1.2,1.3-3.2,0.1-4.4c0,0-0.1-0.1-0.1-0.1C183,281.7,182.1,281.3,181.3,281.3z"/>
		<path class="st2" d="M238.4,313.1c-0.3-0.1-0.6-0.1-0.9-0.1c-1.5,0-2.8,1-3.2,2.4l-4.2,15.2c-0.5,1.7,0.6,3.5,2.3,3.9
			c0,0,0,0,0.1,0c1.7,0.4,3.5-0.6,4-2.3l4.2-15.2C241.2,315.3,240.1,313.6,238.4,313.1C238.4,313.1,238.4,313.1,238.4,313.1z"/>
		<path class="st2" d="M305.7,315.3c-0.4-1.4-1.7-2.4-3.2-2.4c-0.3,0-0.6,0-0.9,0.1c-1.7,0.4-2.8,2.2-2.3,3.9c0,0,0,0,0,0.1
			l4.2,15.2c0.5,1.7,2.3,2.7,4,2.3c1.7-0.4,2.8-2.1,2.3-3.9c0,0,0,0,0-0.1L305.7,315.3z"/>
		<path class="st2" d="M361.1,282.3c-0.6-0.6-1.5-0.9-2.3-0.9c-0.9,0-1.7,0.3-2.3,0.9c-1.3,1.2-1.3,3.2-0.1,4.4c0,0,0.1,0.1,0.1,0.1
			l11.5,11.2c1.3,1.3,3.4,1.3,4.6,0c1.3-1.2,1.3-3.2,0.1-4.4c0,0-0.1-0.1-0.1-0.1L361.1,282.3z"/>
		<path class="st2" d="M407.7,230.7l-15.6-4.1c-0.3-0.1-0.6-0.1-0.9-0.1c-1.5,0-2.8,1-3.2,2.4c-0.5,1.7,0.6,3.5,2.3,3.9
			c0,0,0,0,0.1,0l15.6,4.1c1.7,0.5,3.5-0.5,4-2.3C410.5,233,409.5,231.2,407.7,230.7C407.7,230.7,407.7,230.7,407.7,230.7z"/>
		<path class="st2" d="M234.4,80.9c0.5,1.7,2.3,2.7,4,2.3c1.7-0.4,2.8-2.2,2.3-3.9c0,0,0,0,0-0.1L236.5,64c-0.4-1.4-1.7-2.4-3.2-2.4
			c-1.8,0-3.3,1.4-3.3,3.2c0,0.3,0,0.5,0.1,0.8L234.4,80.9z"/>
		<path class="st2" d="M178.9,114c1.3,1.3,3.4,1.3,4.7,0c1.3-1.2,1.3-3.2,0.1-4.5c0,0,0,0-0.1-0.1l-11.5-11.2
			c-1.3-1.3-3.4-1.3-4.6,0c-1.3,1.2-1.3,3.2-0.1,4.5c0,0,0.1,0.1,0.1,0.1L178.9,114z"/>
		<path class="st2" d="M132.3,165.5l15.6,4.1c1.7,0.5,3.5-0.5,4-2.3c0.5-1.7-0.6-3.5-2.3-3.9c0,0,0,0-0.1,0l-15.6-4.1
			c-0.3-0.1-0.6-0.1-0.9-0.1c-1.5,0-2.8,1-3.2,2.4C129.5,163.3,130.5,165,132.3,165.5C132.3,165.5,132.3,165.5,132.3,165.5z"/>
		<path class="st2" d="M148.8,226.5c-0.3,0-0.6,0-0.9,0.1l-15.6,4.1c-1.7,0.4-2.8,2.2-2.3,3.9c0,0,0,0,0,0.1c0.5,1.7,2.3,2.7,4,2.3
			l15.7-4.1c1.7-0.4,2.8-2.2,2.3-3.9c0,0,0,0,0-0.1C151.5,227.5,150.2,226.5,148.8,226.5z"/>
		<path class="st3" d="M273.5,90.6c0.5-0.5,0.8-1.2,0.9-2l0.2-14.2c0-1.5-1.2-2.8-2.7-2.8c0,0-0.1,0-0.1,0c-1.6,0-2.9,1.3-2.9,2.9
			l-0.2,14.1c0,1.5,1.2,2.8,2.7,2.8c0,0,0.1,0,0.1,0C272.2,91.5,272.9,91.2,273.5,90.6z"/>
		<path class="st3" d="M217.9,106.5c0.2-0.1,0.4-0.3,0.6-0.5c0.9-0.9,1.1-2.3,0.5-3.5l-6.9-12.2c-0.8-1.3-2.5-1.8-3.9-1c0,0,0,0,0,0
			c-1.4,0.8-1.9,2.5-1.1,3.9l6.9,12.2C214.8,106.8,216.5,107.3,217.9,106.5C217.9,106.5,217.9,106.5,217.9,106.5z"/>
		<path class="st3" d="M174.4,147.1c1.1,0.6,2.6,0.4,3.5-0.5c0.2-0.2,0.3-0.4,0.5-0.6c0.8-1.3,0.4-3.1-1-3.9c0,0,0,0,0,0l-12.2-6.9
			c-1.4-0.8-3.1-0.3-3.9,1.1c-0.8,1.3-0.4,3.1,0.9,3.9c0,0,0,0,0.1,0L174.4,147.1z"/>
		<path class="st3" d="M160.5,202.4c0.8,0,1.5-0.3,2-0.9c0.5-0.5,0.8-1.2,0.9-2c0-1.5-1.2-2.8-2.7-2.8c0,0-0.1,0-0.1,0l-14.1,0.2
			c-1.6,0-2.9,1.3-2.9,2.9c0,1.5,1.2,2.8,2.7,2.8c0,0,0.1,0,0.1,0L160.5,202.4z"/>
		<path class="st3" d="M163.5,263.8l12.4-7.2c0.2-0.1,0.4-0.3,0.6-0.5c0.9-0.9,1.1-2.3,0.5-3.5c-0.8-1.4-2.5-1.8-3.9-1c0,0,0,0,0,0
			l-12.4,7.2c-1.4,0.8-1.9,2.5-1.1,3.9C160.4,264.2,162.1,264.6,163.5,263.8C163.5,263.8,163.5,263.8,163.5,263.8z"/>
		<path class="st3" d="M365.6,249.1c-1.4-0.8-3.1-0.3-3.9,1.1c-0.8,1.3-0.4,3.1,1,3.9c0,0,0,0,0,0l12.2,6.9c1.1,0.6,2.6,0.4,3.5-0.5
			c0.2-0.2,0.3-0.4,0.5-0.6c0.8-1.3,0.4-3.1-0.9-3.9c0,0,0,0-0.1,0L365.6,249.1z"/>
		<path class="st3" d="M379.5,193.8c-1.6,0.1-2.9,1.3-2.9,2.9c0,1.5,1.2,2.8,2.7,2.8c0,0,0.1,0,0.1,0l14.1-0.2
			c1.6,0,2.9-1.3,2.9-2.9c0-1.5-1.2-2.8-2.7-2.8c0,0-0.1,0-0.1,0L379.5,193.8z"/>
		<path class="st3" d="M376.5,132.4l-12.3,7.2c-1.4,0.8-1.9,2.5-1.1,3.9c0.8,1.4,2.5,1.8,3.9,1c0,0,0,0,0,0l12.3-7.2
			c0.2-0.1,0.4-0.3,0.6-0.5c0.9-0.9,1.1-2.3,0.5-3.5C379.6,132.1,377.9,131.6,376.5,132.4C376.5,132.4,376.5,132.4,376.5,132.4z"/>
		<path class="st3" d="M328,104.6c0.2-0.2,0.3-0.4,0.5-0.6l7.2-12.3c0.8-1.3,0.4-3.1-1-3.9c0,0,0,0,0,0c-1.4-0.8-3.1-0.3-3.9,1.1
			l-7.2,12.3c-0.8,1.3-0.4,3.1,1,3.9c0,0,0,0,0,0C325.7,105.7,327.1,105.5,328,104.6z"/>
		<path class="st3" d="M266.5,305.6c-0.5,0.5-0.8,1.2-0.9,2l-0.2,14.1c0,1.5,1.2,2.8,2.7,2.8c0,0,0.1,0,0.1,0c1.6,0,2.9-1.3,2.9-2.9
			l0.2-14.1c0-1.5-1.2-2.8-2.7-2.8c0,0-0.1,0-0.1,0C267.8,304.7,267.1,305.1,266.5,305.6z"/>
		<path class="st3" d="M322.1,289.8c-0.2,0.1-0.4,0.3-0.6,0.5c-0.9,0.9-1.1,2.3-0.5,3.5l6.9,12.2c0.8,1.3,2.5,1.8,3.9,1c0,0,0,0,0,0
			c1.4-0.8,1.9-2.5,1.1-3.9l-6.9-12.2C325.2,289.4,323.5,289,322.1,289.8C322.1,289.7,322.1,289.8,322.1,289.8z"/>
		<path class="st3" d="M365.6,249.1c-1.1-0.6-2.6-0.4-3.5,0.5c-0.2,0.2-0.3,0.4-0.5,0.6c-0.8,1.3-0.4,3.1,1,3.9c0,0,0,0,0,0
			l12.2,6.9c1.4,0.8,3.1,0.3,3.9-1.1c0.8-1.3,0.4-3.1-0.9-3.9c0,0,0,0-0.1,0L365.6,249.1z"/>
		<path class="st3" d="M379.5,193.8c-1.6,0-2.9,1.3-2.9,2.9c0,1.5,1.2,2.8,2.7,2.8c0,0,0.1,0,0.1,0l14.1-0.2c1.6,0,2.9-1.3,2.9-2.9
			c0-1.5-1.2-2.8-2.7-2.8c0,0-0.1,0-0.1,0L379.5,193.8z"/>
		<path class="st3" d="M376.5,132.4l-12.4,7.2c-0.2,0.1-0.4,0.3-0.6,0.5c-0.9,0.9-1.1,2.3-0.5,3.5c0.8,1.4,2.5,1.8,3.9,1
			c0,0,0,0,0,0l12.4-7.2c1.4-0.8,1.9-2.5,1.1-3.9C379.6,132.1,377.9,131.6,376.5,132.4C376.5,132.4,376.5,132.4,376.5,132.4z"/>
		<path class="st3" d="M174.4,147.1c1.4,0.8,3.1,0.3,3.9-1.1c0.8-1.3,0.4-3.1-1-3.9c0,0,0,0,0,0l-12.2-6.9c-1.1-0.6-2.6-0.4-3.5,0.5
			c-0.2,0.2-0.3,0.4-0.5,0.6c-0.8,1.3-0.4,3.1,1,3.9c0,0,0,0,0,0L174.4,147.1z"/>
		<path class="st3" d="M160.5,202.4c1.6-0.1,2.9-1.3,2.9-2.9c0-1.5-1.2-2.8-2.7-2.8c0,0-0.1,0-0.1,0l-14.1,0.2
			c-1.6,0-2.9,1.3-2.9,2.9c0,1.5,1.2,2.8,2.7,2.8c0,0,0.1,0,0.1,0L160.5,202.4z"/>
		<path class="st3" d="M163.5,263.8l12.3-7.2c1.4-0.8,1.9-2.5,1.1-3.9c-0.8-1.4-2.5-1.8-3.9-1c0,0,0,0,0,0l-12.3,7.2
			c-0.2,0.1-0.4,0.3-0.6,0.5c-0.9,0.9-1.1,2.3-0.5,3.5C160.4,264.2,162.1,264.6,163.5,263.8C163.5,263.8,163.5,263.8,163.5,263.8z"
			/>
		<path class="st3" d="M212,291.7c-0.2,0.2-0.3,0.4-0.5,0.6l-7.2,12.3c-0.8,1.3-0.4,3.1,1,3.9c0,0,0,0,0,0c1.4,0.8,3.1,0.3,3.9-1.1
			l7.2-12.4c0.8-1.3,0.4-3.1-1-3.9c0,0,0,0,0,0C214.3,290.5,212.9,290.7,212,291.7z"/>
		<path class="st4" d="M341.8,130.7c0.7,0,1.4-0.3,1.9-0.8l9.3-9c1-1,1-2.6,0.1-3.6c0,0,0,0-0.1-0.1c-1.1-1-2.7-1-3.8,0l-9.3,9
			c-1,1-1,2.6-0.1,3.6c0,0,0,0,0.1,0.1C340.5,130.5,341.1,130.7,341.8,130.7z"/>
		<path class="st4" d="M295.6,105c0.2,0.1,0.5,0.1,0.7,0.1c1.2,0,2.2-0.8,2.6-1.9l3.4-12.3c0.4-1.4-0.5-2.8-1.9-3.2c0,0,0,0,0,0
			c-1.4-0.4-2.9,0.4-3.3,1.8l-3.4,12.3C293.4,103.2,294.2,104.6,295.6,105C295.6,105,295.6,105,295.6,105z"/>
		<path class="st4" d="M241.1,103.2c0.3,1.1,1.4,1.9,2.6,1.9c0.2,0,0.5,0,0.7-0.1c1.4-0.3,2.2-1.7,1.9-3.1c0,0,0,0,0-0.1l-3.4-12.3
			c-0.4-1.4-1.9-2.2-3.3-1.8c-1.4,0.3-2.2,1.7-1.9,3.1c0,0,0,0,0,0L241.1,103.2z"/>
		<path class="st4" d="M196.3,130c1,1,2.7,1,3.8,0c1-1,1-2.6,0.1-3.6c0,0,0,0-0.1-0.1l-9.3-9c-1.1-1-2.7-1-3.8,0c-1,1-1,2.6,0,3.6
			c0,0,0,0,0,0L196.3,130z"/>
		<path class="st4" d="M158.5,171.7l12.7,3.3c0.2,0.1,0.5,0.1,0.7,0.1c1.2,0,2.2-0.8,2.6-1.9c0.4-1.4-0.4-2.8-1.8-3.2c0,0,0,0-0.1,0
			l-12.7-3.3c-1.4-0.4-2.9,0.4-3.3,1.8C156.2,169.9,157.1,171.3,158.5,171.7C158.5,171.7,158.5,171.7,158.5,171.7z"/>
		<path class="st4" d="M298.9,293c-0.4-1.4-1.9-2.2-3.3-1.8c-1.4,0.3-2.2,1.7-1.9,3.1c0,0,0,0,0,0l3.4,12.3c0.3,1.1,1.4,1.9,2.6,1.9
			c0.2,0,0.5,0,0.7-0.1c1.4-0.3,2.2-1.7,1.9-3.1c0,0,0,0,0,0L298.9,293z"/>
		<path class="st4" d="M343.7,266.2c-1.1-1-2.7-1-3.8,0c-1,1-1,2.6,0,3.6c0,0,0,0,0,0l9.3,9c0.5,0.5,1.2,0.8,1.9,0.8
			c0.7,0,1.4-0.2,1.9-0.7c1-1,1.1-2.6,0.1-3.6c0,0-0.1-0.1-0.1-0.1L343.7,266.2z"/>
		<path class="st4" d="M381.5,224.5l-12.7-3.3c-1.4-0.4-2.9,0.4-3.3,1.8c-0.4,1.4,0.5,2.8,1.9,3.2c0,0,0,0,0,0l12.7,3.3
			c0.2,0.1,0.5,0.1,0.7,0.1c1.2,0,2.2-0.8,2.6-1.9C383.8,226.3,382.9,224.9,381.5,224.5C381.5,224.5,381.5,224.5,381.5,224.5z"/>
		<path class="st4" d="M368.1,175.1c0.2,0,0.5,0,0.7-0.1l12.7-3.3c1.4-0.3,2.2-1.7,1.9-3.1c0,0,0,0,0,0c-0.4-1.4-1.9-2.2-3.3-1.8
			l-12.7,3.3c-1.4,0.3-2.2,1.7-1.9,3.1c0,0,0,0,0,0C365.9,174.3,366.9,175.1,368.1,175.1z"/>
		<path class="st4" d="M198.2,265.5c-0.7,0-1.4,0.3-1.9,0.8l-9.3,9c-1,1-1,2.6-0.1,3.6c0,0,0,0,0.1,0.1c1.1,1,2.7,1,3.8,0l9.3-9
			c1-1,1-2.6,0.1-3.6c0,0,0,0-0.1-0.1C199.5,265.8,198.9,265.5,198.2,265.5z"/>
		<path class="st4" d="M244.4,291.2c-0.2-0.1-0.5-0.1-0.7-0.1c-1.2,0-2.2,0.8-2.6,1.9l-3.4,12.3c-0.4,1.4,0.5,2.8,1.9,3.2
			c0,0,0,0,0,0c1.4,0.4,2.9-0.4,3.3-1.8l3.4-12.3C246.6,293,245.8,291.6,244.4,291.2C244.4,291.2,244.4,291.2,244.4,291.2z"/>
		<path class="st4" d="M298.9,293c-0.3-1.1-1.4-1.9-2.6-1.9c-0.2,0-0.5,0-0.7,0.1c-1.4,0.3-2.2,1.7-1.9,3.1c0,0,0,0,0,0l3.4,12.4
			c0.4,1.4,1.9,2.2,3.3,1.8c1.4-0.3,2.2-1.7,1.9-3.1c0,0,0,0,0-0.1L298.9,293z"/>
		<path class="st4" d="M343.7,266.2c-1-1-2.7-1-3.8,0c-1,1-1,2.6-0.1,3.6c0,0,0,0,0.1,0.1l9.3,9c1.1,1,2.7,1,3.8,0c1-1,1-2.6,0-3.6
			c0,0,0,0,0,0L343.7,266.2z"/>
		<path class="st4" d="M381.5,224.5l-12.7-3.3c-0.2-0.1-0.5-0.1-0.7-0.1c-1.2,0-2.2,0.8-2.6,1.9c-0.4,1.4,0.4,2.8,1.8,3.2
			c0,0,0,0,0.1,0l12.7,3.3c1.4,0.4,2.9-0.4,3.3-1.8C383.8,226.3,382.9,224.9,381.5,224.5C381.5,224.5,381.5,224.5,381.5,224.5z"/>
		<path class="st4" d="M241.1,103.2c0.4,1.4,1.9,2.2,3.3,1.8c1.4-0.3,2.2-1.7,1.9-3.1c0,0,0,0,0-0.1l-3.4-12.3
			c-0.3-1.1-1.4-1.9-2.6-1.9c-0.2,0-0.5,0-0.7,0.1c-1.4,0.3-2.2,1.7-1.9,3.1c0,0,0,0,0,0.1L241.1,103.2z"/>
		<path class="st4" d="M196.3,130c1,1,2.7,1,3.8,0c1-1,1-2.6,0-3.6c0,0,0,0,0,0l-9.3-9c-0.5-0.5-1.2-0.8-1.9-0.8
			c-0.7,0-1.4,0.3-1.9,0.8c-1,1-1.1,2.6-0.1,3.6c0,0,0.1,0.1,0.1,0.1L196.3,130z"/>
		<path class="st4" d="M158.5,171.7l12.7,3.3c1.4,0.4,2.9-0.4,3.3-1.8c0.4-1.4-0.5-2.8-1.9-3.2c0,0,0,0,0,0l-12.7-3.3
			c-0.2-0.1-0.5-0.1-0.7-0.1c-1.2,0-2.2,0.8-2.6,1.9C156.2,169.9,157.1,171.3,158.5,171.7C158.5,171.7,158.5,171.7,158.5,171.7z"/>
		<path class="st4" d="M171.9,221.1c-0.2,0-0.5,0-0.7,0.1l-12.7,3.3c-1.4,0.3-2.2,1.8-1.9,3.1c0,0,0,0,0,0c0.4,1.4,1.9,2.2,3.3,1.8
			l12.7-3.3c1.4-0.4,2.2-1.8,1.9-3.2c0,0,0,0,0,0C174.1,221.9,173.1,221.1,171.9,221.1z"/>
		<polygon class="st0" points="480.6,208.4 425.7,221.4 366.9,209.1 170.5,213 109.4,217.6 59.4,208.4 59.4,153.7 95.5,146 
			180.1,153.7 383.6,153.7 413.6,146 480.6,153.7 		"/>
		<path class="st5" d="M113.8,202.1h-0.2c-0.1,0-0.2-0.1-0.3-0.2c-0.1-0.1-0.1-0.1-0.1-0.2v-28.1c0-0.2-0.1-0.3-0.3-0.3h-9.4
			c-0.1,0-0.2,0-0.2-0.1v-0.1c0,0,0-0.1-0.1-0.1c0-0.1,0-0.2,0-0.3v-7.5c0-0.2,0.1-0.5,0.4-0.6h28.9c0.1,0,0.3,0.1,0.4,0.2
			c0,0,0,0.1,0,0.1c0.1,0.1,0.1,0.2,0.1,0.3v7.5c0,0.2-0.1,0.3-0.2,0.4c-0.1,0.1-0.2,0.1-0.3,0.1h-9.3c-0.1,0-0.2,0-0.2,0.1
			s-0.1,0-0.1,0.1v28.3c0,0.1-0.1,0.3-0.3,0.3c-0.1,0.1-0.2,0.1-0.3,0.1L113.8,202.1z"/>
		<path class="st5" d="M139.4,165.3c0-0.3,0.2-0.5,0.5-0.6c0,0,0,0,0.1,0h8.6c0.3,0,0.5,0.2,0.6,0.5c0,0,0,0,0,0.1v13.3
			c0,0.2,0.1,0.3,0.2,0.3c0,0,0.1,0,0.1,0h10.2c0.2,0,0.3-0.1,0.3-0.2c0,0,0-0.1,0-0.1v-13.3c0-0.3,0.2-0.5,0.5-0.6c0,0,0,0,0.1,0
			h8.6c0.3,0,0.5,0.2,0.6,0.5c0,0,0,0,0,0.1v36.3c0,0.3-0.2,0.5-0.5,0.6c0,0,0,0-0.1,0h-8.6c-0.3,0-0.5-0.2-0.6-0.5c0,0,0,0,0-0.1
			v-13.8c0-0.2-0.1-0.3-0.2-0.3c0,0-0.1,0-0.1,0h-10.2c-0.2,0-0.3,0.1-0.3,0.2c0,0,0,0.1,0,0.1v13.8c0,0.3-0.2,0.5-0.5,0.6
			c0,0,0,0-0.1,0H140c-0.3,0-0.5-0.2-0.6-0.5c0,0,0,0,0-0.1L139.4,165.3z"/>
		<path class="st5" d="M188.9,165.3c0.1-0.3,0.4-0.6,0.7-0.6h9c0.3,0,0.6,0.2,0.7,0.6l12.6,36.3c0.1,0.2,0,0.4-0.2,0.5
			c-0.1,0-0.1,0-0.2,0h-9.1c-0.3,0-0.6-0.2-0.7-0.6l-1.8-5.8h-12.2l-1.8,5.8c-0.1,0.3-0.4,0.6-0.7,0.6h-9c-0.2,0-0.4-0.1-0.4-0.3
			c0-0.1,0-0.2,0-0.2L188.9,165.3z M197.6,187.8l-3.5-11.7h-0.2l-3.6,11.7H197.6z"/>
		<path class="st5" d="M218.2,165.3c0-0.3,0.2-0.5,0.5-0.6c0,0,0,0,0.1,0h8.1c0.4,0,0.8,0.2,0.9,0.6l11.3,21.2h0.2v-21.2
			c0-0.3,0.2-0.5,0.5-0.6c0,0,0,0,0.1,0h7.7c0.3,0,0.5,0.2,0.6,0.5c0,0,0,0,0,0.1v36.3c0,0.3-0.2,0.5-0.5,0.6c0,0,0,0-0.1,0h-8.1
			c-0.4,0-0.8-0.2-0.9-0.6l-11.2-21.1H227v21.1c0,0.3-0.2,0.5-0.5,0.6c0,0,0,0-0.1,0h-7.6c-0.3,0-0.5-0.2-0.6-0.5c0,0,0,0,0-0.1
			V165.3z"/>
		<path class="st5" d="M256.9,165.3c0-0.3,0.2-0.5,0.5-0.6c0,0,0,0,0.1,0h8.5c0.3,0,0.5,0.2,0.5,0.5c0,0,0,0,0,0.1v14.6l10.7-14.7
			c0.2-0.3,0.6-0.5,0.9-0.5h9.7c0.4,0,0.5,0.4,0.3,0.7l-11.1,14.5l11.8,21.6c0.1,0.2,0.1,0.4-0.1,0.5c-0.1,0.1-0.2,0.1-0.3,0.1h-9.9
			c-0.4,0-0.7-0.2-0.9-0.5l-7.3-14.1l-4,5.3v8.7c0,0.3-0.2,0.5-0.5,0.6c0,0,0,0-0.1,0h-8.6c-0.3,0-0.5-0.2-0.5-0.5c0,0,0,0,0-0.1
			L256.9,165.3z"/>
		<path class="st5" d="M319.3,202.1c-0.3,0-0.5-0.2-0.5-0.5c0,0,0,0,0-0.1v-13.9l-11.3-22.3c-0.1-0.2,0-0.5,0.2-0.6
			c0.1,0,0.2,0,0.2,0h8.6c0.4,0,0.7,0.2,0.9,0.6l6.3,12.7h0.2l6.2-12.7c0.1-0.4,0.5-0.6,0.9-0.6h8.5c0.4,0,0.5,0.3,0.4,0.6
			l-11.3,22.3v13.9c0,0.3-0.2,0.5-0.5,0.6c0,0,0,0-0.1,0L319.3,202.1z"/>
		<path class="st5" d="M344.9,193.6c-0.9-2.9-1.1-5.1-1.1-10.2s0.2-7.3,1.1-10.2c2-6.1,7.4-9.2,14-9.2s12,3.1,14,9.2
			c0.9,2.9,1.1,5.1,1.1,10.2s-0.2,7.3-1.1,10.2c-2,6.1-7.4,9.2-14,9.2S346.9,199.7,344.9,193.6z M363.7,190.9c0.4-1.3,0.5-3,0.5-7.4
			s-0.1-6.2-0.5-7.4c-1-2.6-4-4-6.6-3c-1.4,0.5-2.4,1.6-3,3c-0.4,1.3-0.5,3-0.5,7.4s0.1,6.2,0.5,7.4c1,2.6,4,4,6.6,3
			C362.1,193.3,363.2,192.2,363.7,190.9z"/>
		<path class="st5" d="M381.9,187.7v-22.4c0-0.3,0.2-0.5,0.5-0.6c0,0,0,0,0.1,0h8.6c0.3,0,0.5,0.2,0.5,0.5c0,0,0,0,0,0.1v23
			c0,3.7,2.1,5.9,5.2,5.9s5.2-2.1,5.2-5.9v-23c0-0.3,0.2-0.5,0.5-0.6c0,0,0,0,0.1,0h8.6c0.3,0,0.5,0.2,0.5,0.5c0,0,0,0,0,0.1v22.4
			c0,10-5.9,15.1-14.9,15.1C387.7,202.8,381.9,197.6,381.9,187.7z"/>
		<path class="st5" d="M422.6,190l-1.3-24.8c0-0.3,0.2-0.5,0.5-0.6c0,0,0,0,0.1,0h8.4c0.3,0,0.5,0.2,0.5,0.5c0,0,0,0,0,0.1
			l-1.3,24.8c0,0.3-0.2,0.5-0.5,0.6c0,0,0,0-0.1,0h-5.8C422.8,190.6,422.6,190.3,422.6,190C422.6,190,422.6,190,422.6,190z
			 M421.7,194.6c0-0.3,0.2-0.5,0.5-0.6c0,0,0,0,0.1,0h7.6c0.3,0,0.5,0.2,0.5,0.5c0,0,0,0,0,0.1v6.9c0,0.3-0.2,0.5-0.5,0.6
			c0,0,0,0-0.1,0h-7.6c-0.3,0-0.5-0.2-0.5-0.5c0,0,0,0,0-0.1V194.6z"/>
		<path class="st6" d="M251.7,220.5c0-0.1,0.1-0.1,0.1-0.1c0,0,0,0,0,0h6c0.1,0,0.1,0.1,0.1,0.1c0,0,0,0,0,0v1.2
			c0,0.1-0.1,0.1-0.1,0.1l0,0h-4.4c-0.1,0-0.1,0-0.1,0.1v2.4c0,0.1,0,0.1,0.1,0.1h3.7c0.1,0,0.1,0,0.1,0.1c0,0,0,0,0,0v1.2
			c0,0.1,0,0.1-0.1,0.1c0,0,0,0,0,0h-3.7c-0.1,0-0.1,0-0.1,0.1v3.7c0,0.1,0,0.1-0.1,0.1c0,0,0,0,0,0h-1.4c-0.1,0-0.1-0.1-0.1-0.1
			L251.7,220.5z"/>
		<path class="st6" d="M265.7,229.9c-0.1,0-0.2,0-0.2-0.1l-1.8-3.7H262c0,0-0.1,0-0.1,0.1c0,0,0,0,0,0v3.6c0,0.1-0.1,0.1-0.1,0.1
			l0,0h-1.4c-0.1,0-0.1-0.1-0.1-0.1v0v-9.2c0-0.1,0.1-0.1,0.1-0.1c0,0,0,0,0,0h3.7c1.6-0.1,2.9,1.1,3,2.7c0,0.1,0,0.1,0,0.2
			c0,1.2-0.7,2.2-1.8,2.6l2,3.9c0,0,0,0.1,0,0.2c0,0,0,0-0.1,0H265.7z M265.5,223.2c0-0.7-0.6-1.3-1.3-1.4c-0.1,0-0.1,0-0.2,0h-2
			c0,0-0.1,0-0.1,0.1c0,0,0,0,0,0v2.5c0,0.1,0,0.1,0.1,0.1h2c0.7,0.1,1.4-0.5,1.5-1.2C265.5,223.3,265.5,223.3,265.5,223.2z"/>
		<path class="st6" d="M269.6,227.8c-0.3-1.7-0.3-3.5,0-5.2c0.7-1.9,2.8-2.8,4.7-2c0.9,0.4,1.7,1.1,2,2c0.3,1.7,0.3,3.5,0,5.2
			c-0.7,1.9-2.8,2.8-4.7,2C270.7,229.5,269.9,228.7,269.6,227.8z M274.7,227.3c0.2-1.4,0.2-2.9,0-4.4c-0.2-0.8-1-1.3-1.8-1.2
			c-0.8-0.1-1.5,0.5-1.8,1.2c-0.2,1.4-0.2,2.9,0,4.4c0.2,0.8,1,1.3,1.8,1.2C273.8,228.6,274.5,228.1,274.7,227.3z"/>
		<path class="st6" d="M279.1,220.5c0-0.1,0-0.1,0.1-0.1c0,0,0,0,0,0h1.2c0.1,0,0.2,0.1,0.2,0.1l2.6,5.9h0.1l2.6-5.9
			c0-0.1,0.1-0.2,0.2-0.1h1.2c0.1,0,0.1,0,0.1,0.1c0,0,0,0,0,0v9.2c0,0.1,0,0.1-0.1,0.1c0,0,0,0,0,0h-1.2c-0.1,0-0.1,0-0.1-0.1
			c0,0,0,0,0,0V224H286l-2,4.5c0,0.1-0.1,0.2-0.3,0.2h-0.8c-0.1,0-0.2-0.1-0.3-0.2l-2-4.5h-0.1v5.8c0,0.1,0,0.1-0.1,0.1c0,0,0,0,0,0
			h-1.2c-0.1,0-0.1,0-0.1-0.1c0,0,0,0,0,0L279.1,220.5z"/>
		<path class="st5" d="M205.2,247.8c-0.1-1.1,0-2.2,0.3-3.3c0.5-1.9,2.3-3.1,4.2-3c1.8-0.1,3.4,1,4.1,2.6c0,0.1,0,0.2-0.1,0.2
			c0,0,0,0,0,0l-1.5,0.7c-0.1,0-0.2,0-0.2,0c0,0,0,0,0,0c-0.4-1-1.3-1.6-2.3-1.6c-1,0-1.9,0.6-2.2,1.6c-0.3,1.8-0.3,3.7,0,5.6
			c0.3,1,1.2,1.7,2.2,1.6c1,0,1.9-0.6,2.3-1.6c0-0.1,0.1-0.1,0.2-0.1c0,0,0,0,0,0l1.5,0.7c0.1,0,0.1,0.1,0.1,0.2c0,0,0,0,0,0
			c-0.7,1.7-2.3,2.7-4.1,2.6c-1.9,0.1-3.7-1.1-4.2-3C205.3,250,205.2,248.9,205.2,247.8z"/>
		<path class="st5" d="M216.8,251.2c-0.4-2.2-0.4-4.5,0-6.7c0.9-2.4,3.6-3.6,6-2.6c1.2,0.5,2.2,1.4,2.6,2.6c0.4,2.2,0.4,4.5,0,6.7
			c-0.9,2.4-3.6,3.6-6,2.6C218.3,253.3,217.3,252.4,216.8,251.2z M223.4,250.6c0.2-0.9,0.3-1.9,0.2-2.8c0.1-0.9,0-1.9-0.2-2.8
			c-0.3-1-1.2-1.7-2.3-1.6c-1-0.1-2,0.6-2.3,1.6c-0.2,0.9-0.3,1.9-0.2,2.8c-0.1,0.9,0,1.9,0.2,2.8c0.3,1,1.2,1.7,2.3,1.6
			C222.2,252.3,223.1,251.6,223.4,250.6z"/>
		<path class="st5" d="M236,253.9c-0.1,0-0.2-0.1-0.3-0.2l-2.3-4.7h-2.1c-0.1,0-0.1,0-0.1,0.1v4.7c0,0.1-0.1,0.2-0.2,0.2
			c0,0,0,0,0,0h-1.8c-0.1,0-0.2-0.1-0.2-0.2c0,0,0,0,0,0v-11.9c0-0.1,0.1-0.2,0.2-0.2c0,0,0,0,0,0h4.8c2-0.1,3.7,1.4,3.9,3.4
			c0,0.1,0,0.2,0,0.3c0,1.5-0.9,2.9-2.3,3.4l2.6,5c0.1,0.1,0,0.1,0,0.2c0,0-0.1,0-0.1,0L236,253.9z M235.8,245.3
			c0-0.9-0.7-1.7-1.7-1.7c-0.1,0-0.1,0-0.2,0h-2.6c-0.1,0-0.1,0-0.1,0.1v3.3c0,0.1,0,0.1,0.1,0.1h2.6c0.9,0.1,1.8-0.6,1.9-1.5
			C235.8,245.5,235.8,245.4,235.8,245.3z"/>
		<path class="st5" d="M241.1,241.9c0-0.1,0.1-0.2,0.2-0.2c0,0,0,0,0,0h1.7c0.1,0,0.3,0.1,0.3,0.2l5,8.4h0.1v-8.4
			c0-0.1,0.1-0.2,0.2-0.2c0,0,0,0,0,0h1.5c0.1,0,0.2,0.1,0.2,0.2c0,0,0,0,0,0v11.9c0,0.1-0.1,0.2-0.2,0.2c0,0,0,0,0,0h-1.6
			c-0.1,0-0.2-0.1-0.3-0.2l-5-8.4H243v8.4c0,0.1-0.1,0.2-0.2,0.2c0,0,0,0,0,0h-1.6c-0.1,0-0.2-0.1-0.2-0.2c0,0,0,0,0,0L241.1,241.9z
			"/>
		<path class="st5" d="M253.8,241.9c0-0.1,0.1-0.2,0.2-0.2c0,0,0,0,0,0h7.7c0.1,0,0.2,0.1,0.2,0.2c0,0,0,0,0,0v1.5
			c0,0.1-0.1,0.2-0.2,0.2c0,0,0,0,0,0h-5.6c-0.1,0-0.1,0-0.1,0.1v3c0,0.1,0,0.1,0.1,0.1c0,0,0,0,0,0h4.7c0.1,0,0.2,0.1,0.2,0.2
			c0,0,0,0,0,0v1.6c0,0.1-0.1,0.2-0.2,0.2c0,0,0,0,0,0h-4.7c-0.1,0-0.1,0-0.1,0.1c0,0,0,0,0,0v3.1c0,0.1,0,0.1,0.1,0.1c0,0,0,0,0,0
			h5.6c0.1,0,0.2,0.1,0.2,0.2c0,0,0,0,0,0v1.6c0,0.1-0.1,0.2-0.2,0.2c0,0,0,0,0,0H254c-0.1,0-0.2-0.1-0.2-0.2c0,0,0,0,0,0V241.9z"/>
		<path class="st5" d="M265,241.9c0-0.1,0.1-0.2,0.2-0.2c0,0,0,0,0,0h1.8c0.1,0,0.2,0.1,0.2,0.2c0,0,0,0,0,0v10c0,0.1,0,0.1,0.1,0.1
			c0,0,0,0,0,0h5.6c0.1,0,0.2,0.1,0.2,0.2c0,0,0,0,0,0v1.6c0,0.1-0.1,0.2-0.2,0.2c0,0,0,0,0,0h-7.7c-0.1,0-0.2-0.1-0.2-0.2
			c0,0,0,0,0,0L265,241.9z"/>
		<path class="st5" d="M275.7,241.9c0-0.1,0.1-0.2,0.2-0.2c0,0,0,0,0,0h1.8c0.1,0,0.2,0.1,0.2,0.2c0,0,0,0,0,0v10
			c0,0.1,0,0.1,0.1,0.1c0,0,0,0,0,0h5.6c0.1,0,0.2,0.1,0.2,0.2c0,0,0,0,0,0v1.6c0,0.1-0.1,0.2-0.2,0.2c0,0,0,0,0,0h-7.7
			c-0.1,0-0.2-0.1-0.2-0.2c0,0,0,0,0,0L275.7,241.9z"/>
		<path class="st5" d="M294.1,253.9c-0.1,0-0.2-0.1-0.2-0.2c0,0,0,0,0,0v-10.1c0-0.1,0-0.1-0.1-0.1h-3.2c-0.1,0-0.2-0.1-0.2-0.2
			c0,0,0,0,0,0v-1.5c0-0.1,0.1-0.2,0.2-0.2c0,0,0,0,0,0h8.8c0.1,0,0.2,0.1,0.2,0.2c0,0,0,0,0,0v1.5c0,0.1-0.1,0.2-0.2,0.2
			c0,0,0,0,0,0h-3.2c-0.1,0-0.1,0-0.1,0.1v10.1c0,0.1-0.1,0.2-0.2,0.2c0,0,0,0,0,0H294.1z"/>
		<path class="st5" d="M302.1,241.9c0-0.1,0.1-0.2,0.2-0.2c0,0,0,0,0,0h7.7c0.1,0,0.2,0.1,0.2,0.2c0,0,0,0,0,0v1.5
			c0,0.1-0.1,0.2-0.2,0.2c0,0,0,0,0,0h-5.6c-0.1,0-0.1,0-0.1,0.1v3c0,0.1,0,0.1,0.1,0.1c0,0,0,0,0,0h4.7c0.1,0,0.2,0.1,0.2,0.2
			c0,0,0,0,0,0v1.6c0,0.1-0.1,0.2-0.2,0.2c0,0,0,0,0,0h-4.7c-0.1,0-0.1,0-0.1,0.1c0,0,0,0,0,0v3.1c0,0.1,0,0.1,0.1,0.1c0,0,0,0,0,0
			h5.6c0.1,0,0.2,0.1,0.2,0.2c0,0,0,0,0,0v1.6c0,0.1-0.1,0.2-0.2,0.2c0,0,0,0,0,0h-7.7c-0.1,0-0.2-0.1-0.2-0.2c0,0,0,0,0,0V241.9z"
			/>
		<path class="st5" d="M313,247.8c-0.1-1.1,0-2.2,0.3-3.3c0.5-1.9,2.3-3.1,4.2-3c1.8-0.1,3.4,1,4.1,2.6c0,0.1,0,0.2-0.1,0.2
			c0,0,0,0,0,0l-1.5,0.7c-0.1,0-0.2,0-0.2,0c0,0,0,0,0,0c-0.4-1-1.3-1.6-2.3-1.6c-1,0-1.9,0.6-2.2,1.6c-0.3,1.8-0.3,3.7,0,5.6
			c0.3,1,1.2,1.7,2.2,1.6c1,0,1.9-0.6,2.3-1.6c0-0.1,0.1-0.1,0.2-0.1c0,0,0,0,0,0l1.5,0.7c0.1,0,0.1,0.1,0.1,0.2c0,0,0,0,0,0
			c-0.7,1.7-2.3,2.7-4.1,2.6c-1.9,0.1-3.7-1.1-4.2-3C313,250,312.9,248.9,313,247.8z"/>
		<path class="st5" d="M324.6,241.9c0-0.1,0.1-0.2,0.2-0.2c0,0,0,0,0,0h1.8c0.1,0,0.2,0.1,0.2,0.2c0,0,0,0,0,0v4.8
			c0,0.1,0,0.1,0.1,0.1c0,0,0,0,0,0h4.7c0.1,0,0.1,0,0.1-0.1v-4.8c0-0.1,0.1-0.2,0.2-0.2c0,0,0,0,0,0h1.8c0.1,0,0.2,0.1,0.2,0.2
			c0,0,0,0,0,0v11.9c0,0.1-0.1,0.2-0.2,0.2c0,0,0,0,0,0h-1.8c-0.1,0-0.2-0.1-0.2-0.2c0,0,0,0,0,0v-4.9c0-0.1,0-0.1-0.1-0.1h-4.7
			c-0.1,0-0.1,0-0.1,0.1c0,0,0,0,0,0v4.9c0,0.1-0.1,0.2-0.2,0.2c0,0,0,0,0,0h-1.8c-0.1,0-0.2-0.1-0.2-0.2c0,0,0,0,0,0V241.9z"/>
		<path class="st7" d="M38.2,338.7c0,0.1-0.1,0.2-0.1,0.3h0.5c0.1-0.2,0.2-0.3,0.4-0.3l0,0c0.2,0,0.4,0.1,0.6,0.1l0,0l0.2,0.1
			c0.1,0.1,0.3,0.1,0.4,0.1l0,0c0.1,0,0.2,0,0.3,0c0,0,0,0,0.1,0l0,0c0,0,0-0.1,0-0.1c0-0.1,0.1-0.1,0.2-0.1l0,0l0,0l0,0
			c0,0,0,0,0-0.1s0.1-0.1,0.1-0.1c-0.3,0.1-0.6,0.1-0.9,0.1c-0.3,0-0.5-0.1-0.8-0.1c-0.2-0.1-0.4-0.1-0.6-0.1
			C38.6,338.4,38.3,338.5,38.2,338.7z M42.4,342.6L42.4,342.6l-0.5-0.2v-0.1c0-0.1,0-0.1,0-0.2V342v-0.1l0.4-0.2v-0.1l-0.4,0.1v-0.1
			l-0.1-0.1l-0.2,0.5l0,0c0,0.1,0,0.1,0.1,0.2c0,0.1,0.1,0.3,0,0.4c0,0.3-0.1,0.7-0.3,0.9c-0.2,0.3-0.5,0.4-0.9,0.5h-0.4
			c-0.3,0-0.6-0.2-0.9-0.5c-0.2-0.3-0.4-0.6-0.4-0.9c0-0.1,0-0.3,0.1-0.4c0,0,0-0.1,0-0.1l0,0l-0.2-0.5l0,0c0,0-0.1,0.1-0.1,0.1v0.1
			l-0.5-0.1v0.1l0.4,0.2v0.1c0,0,0,0.1,0,0.1v0.2v0.1l-0.5,0.1v0.1l0.5,0.1v0.1c0,0.1,0,0.2,0.1,0.3v0.1l-0.4,0.2v0.1l0.5-0.1v0.1
			c0.1,0.1,0.1,0.2,0.2,0.3v0.1l-0.3,0.4l0.1,0.1L39,344l0.1,0c0.1,0.1,0.2,0.1,0.3,0.2h0.1l-0.1,0.5h0.1l0.2-0.4h0.1
			c0.1,0,0.2,0.1,0.3,0.1h0l0.1,0.5h0.1l0.1-0.5h0.1c0.1,0,0.2,0,0.3-0.1h0.1l0.2,0.4H41l-0.1-0.5H41c0.1-0.1,0.2-0.1,0.3-0.2l0.1,0
			l0.4,0.3l0.1-0.1l-0.3-0.4l0-0.1c0.1-0.1,0.1-0.2,0.2-0.3v-0.1l0.4,0.1v-0.1l-0.4-0.2v-0.1c0-0.1,0-0.2,0.1-0.3v-0.1L42.4,342.6z
			 M42.1,342.2C42.1,342.2,42.1,342.2,42.1,342.2l0.5,0.2v0.5l-0.5,0.1c0,0.1,0,0.1,0,0.2l0.4,0.2l-0.2,0.4l-0.5-0.1
			c0,0.1-0.1,0.1-0.1,0.2l0.3,0.4l-0.3,0.3l-0.4-0.3c-0.1,0-0.1,0.1-0.2,0.1l0.1,0.5l-0.4,0.2l-0.2-0.4h-0.2l-0.1,0.5h-0.5l-0.1-0.5
			h-0.2l-0.2,0.4l-0.4-0.2l0.1-0.5l-0.2-0.1l-0.4,0.3l-0.3-0.3l0.3-0.4l-0.1-0.2l-0.5,0.1l-0.2-0.4l0.4-0.2c0-0.1,0-0.1,0-0.2
			l-0.5-0.1v-0.5l0.5-0.1c0,0,0-0.1,0-0.1V342l-0.4-0.3l0.2-0.4l0.5,0.1l0.2-0.2l-0.2-0.4l0.2-0.1L39,342c-0.1,0.1-0.1,0.1-0.1,0.2
			c0,0.1,0,0.2,0,0.3c0,0.6,0.4,1.1,1,1.2h0.3c0.3,0,0.5-0.2,0.7-0.4c0.2-0.2,0.3-0.5,0.3-0.8c0-0.1,0-0.1,0-0.2v-0.1l0,0
			c0,0,0-0.1-0.1-0.1l-0.1-0.1V342l0.6-1.2l0.2,0.1l-0.2,0.4l0,0c0,0.1,0.1,0.1,0.1,0.2l0.5-0.1l0.2,0.4L42,342L42.1,342.2z
			 M40.5,342.2l1.2-2.6h-2.1l0.2,0.4h1.3l0,0l-1,2.1l-1.2-2.5h-0.5l1.3,2.6l0.4,0.9L40.5,342.2z M39.7,340.2l-0.4-0.8h2.6l0.1,0
			l-1.2,2.7l0,0l-0.6,1.3v0l-0.6-1.3l-1.4-2.8H39l1.1,2.2l0.7-1.5L39.7,340.2z M39,339.2h-1l-0.1-0.1c0-0.2,0-0.3,0.1-0.4
			c0.2-0.3,0.5-0.5,0.9-0.5c0.2,0,0.4,0,0.6,0.1l0,0c0.2,0.1,0.5,0.1,0.7,0.1c0.3,0,0.7-0.1,1-0.2h0.1c0,0,0.1-0.1,0.1,0
			s0,0.1,0,0.1l0,0c0,0.1,0,0.1-0.1,0.1c0,0-0.1,0.1-0.1,0.1c0,0,0,0-0.1,0.1v0.1l0,0v0.1c0,0-0.1,0.1-0.1,0.1c0,0-0.1,0-0.1,0.1
			c0,0,0,0,0,0l0,0l0,0c0,0.1-0.1,0.1-0.2,0.1c-0.1,0.1-0.3,0.1-0.4,0.1l0,0c-0.2,0-0.3,0-0.5-0.1l-0.2-0.1l0,0
			c-0.2-0.1-0.4-0.1-0.6-0.1c-0.1,0-0.2,0-0.2,0.1C39,339,39,339.1,39,339.2L39,339.2z M44.6,340.8c0,0.1,0,0.2-0.1,0.2
			c-0.1,0.1-0.2,0.3-0.3,0.4h0.4l0,0v0.1l0,0h-0.8l0,0l0,0c0.1-0.1,0.4-0.5,0.5-0.6c0,0,0.1-0.1,0.1-0.1c0-0.1-0.1-0.1-0.2-0.1
			c-0.1,0-0.1,0-0.2,0.1h-0.1l-0.1-0.1 M43.7,340.6c0.1-0.1,0.3-0.2,0.4-0.2c0.3,0,0.4,0.2,0.4,0.3L43.7,340.6z M43.3,340.4
			L43.3,340.4v1.1l0,0h-0.2l0,0v-0.8h-0.2l0,0v-0.1l0,0l0.3-0.2L43.3,340.4z M36.8,341c0.1,0,0.2-0.1,0.1-0.2c0-0.1-0.1-0.2-0.2-0.1
			c-0.1,0-0.1,0.1-0.1,0.2C36.6,340.9,36.7,341,36.8,341z M36.8,340.4c0.3,0,0.5,0.2,0.5,0.4c0,0,0,0,0,0.1c0,0.4-0.3,0.7-0.7,0.8
			c0,0,0,0-0.1,0l-0.1-0.1c0,0,0,0,0,0s0.4-0.1,0.4-0.3c-0.1,0-0.1,0-0.2,0c-0.2,0-0.4-0.2-0.4-0.4c0,0,0,0,0,0
			C36.3,340.6,36.5,340.4,36.8,340.4C36.8,340.4,36.8,340.4,36.8,340.4L36.8,340.4z M36,340.4L36,340.4v1.1l0,0h-0.2l0,0v-0.8h-0.2
			l0,0v-0.1l0,0l0.3-0.2L36,340.4z M43.7,338.4C43.7,338.4,43.7,338.4,43.7,338.4l1.4-0.8l0,0l0,0l-0.3,1.2l0,0l0.7-0.4 M45.5,338.5
			l0.1,0.2c0,0,0,0,0,0.1l-1.4,0.7c0,0,0,0,0,0l0,0l0,0l0.4-1.2l0,0l-0.8,0.4L45.5,338.5z M43.1,336.8c-0.2,0.2-0.2,0.4,0,0.6
			c0,0,0,0,0,0c0.2,0.2,0.5,0.2,0.6,0c0.2-0.2,0.2-0.5,0-0.6C43.6,336.6,43.3,336.6,43.1,336.8C43.1,336.8,43.1,336.8,43.1,336.8z
			 M42.9,337.7c-0.3-0.3-0.4-0.8-0.1-1.1c0,0,0,0,0,0c0.3-0.3,0.8-0.4,1.1-0.1c0.3,0.3,0.4,0.8,0.1,1.1
			C43.8,337.9,43.3,338,42.9,337.7C42.9,337.7,42.9,337.7,42.9,337.7z M41.8,336.8l0.7-1.3 M42.5,335.5l0.2,0.1 M42.7,335.7
			l-0.7,1.3l0,0L42.7,335.7z M38.4,336.7L38.4,336.7l-0.3-1.5c0,0,0,0,0,0l0.3,0l0,0l0.1,0.6l0.6-0.1L39,335l0,0l0.3,0h0l0.3,1.5
			 M39.7,336.5h-0.3c0,0,0,0,0,0l-0.1-0.6l-0.6,0.1l0.1,0.6c0,0,0,0,0,0L39.7,336.5z M40.1,336.5L40.1,336.5l0.3-1.5l0,0h0.1l0.7,1
			l0,0l0.1-0.8c0,0,0,0,0,0l0.3,0 M41.6,335.3l-0.3,1.5c0,0,0,0,0,0h0l-0.7-1l0,0l-0.2,0.8l0,0L41.6,335.3z M37.7,337.1
			c-0.4,0.2-0.9,0.1-1.1-0.3c-0.2-0.4-0.1-0.9,0.3-1.1c0,0,0,0,0,0c0.2-0.1,0.4-0.1,0.6-0.1c0,0,0,0,0,0.1v0.2l0,0
			c-0.1,0-0.2,0-0.3,0.1c-0.2,0.1-0.3,0.4-0.1,0.6c0.1,0.2,0.4,0.3,0.6,0.1c0.1-0.1,0.2-0.1,0.2-0.2l0,0l0.2,0.1l0,0
			C38,336.8,37.9,337,37.7,337.1L37.7,337.1z M36.2,338.4l-1.1-1c0,0,0,0,0-0.1l0.6-0.7c0,0,0,0,0.1,0l0.2,0.2 M35.9,336.9l-0.4,0.5
			l0.2,0.2l0.3-0.4 M36.1,337.1l0.2,0.2c0,0,0,0,0,0.1l-0.3,0.4l0.2,0.2l0.4-0.5 M36.7,337.5l0.2,0.2 M36.9,337.7l-0.6,0.7
			c0,0,0,0-0.1,0L36.9,337.7z M35.9,339l-0.1,0.2 M35.7,339.2l-1.1-0.5l-0.1,0.3 M34.4,339l-0.2-0.1 M34.2,338.8l0.4-0.9
			 M34.7,337.9l0.2,0.1 M34.9,338.1l-0.1,0.3L34.9,338.1z M42.9,342.2l-0.1-0.2H45v-1.8h-2.8l0.1-0.2h1.2c-0.6-1.9-2.7-3-4.7-2.4
			c-1.1,0.4-2,1.3-2.4,2.4h1.3l0.1,0.2h-3v1.9h2.2l-0.1,0.2l-1.4,0.2c0.8,2.4,3.5,3.8,5.9,2.9c1.4-0.5,2.5-1.6,2.9-2.9L42.9,342.2z
			 M33.6,340.9c0,0.4,0.1,0.7,0.1,1.1H34v-1.8h-0.3C33.6,340.4,33.6,340.6,33.6,340.9L33.6,340.9z M43.4,345.8l-0.2-0.7l0,0l0.6,0.8
			c0.1-0.1,0.2-0.2,0.3-0.3l-1-1c-0.7,0.6-1.6,1-2.6,1.1l0.1,1.4l0.4-0.1l-0.2-1l0,0l0.4,0.6l0.1,0.3c0.8-0.2,1.5-0.5,2.2-1
			L43.4,345.8z M45.6,343.8c0.2-0.4,0.3-0.8,0.5-1.2l-1.4-0.2c-0.1,0.4-0.3,0.8-0.6,1.2l1.1,0.8c0.1-0.1,0.2-0.2,0.2-0.4l-0.9-0.5
			l0,0l0.7,0.1L45.6,343.8z M44.3,345.5l0.3-0.3l-1.1-0.9l-0.2,0.2L44.3,345.5z M34.2,342h0.4v-1.8h-0.4V342z M40.1,345.9v1.4h0.4
			l-0.2-1.4H40.1z M39.5,345.9l-0.1,1.4c0.1,0,0.3,0,0.4,0v-1.4L39.5,345.9z M34.8,344.7l0.3,0.3l1.1-0.9l-0.2-0.2L34.8,344.7z
			 M35.3,345.2l0.3,0.3l1-1l-0.2-0.2L35.3,345.2z M44.8,345c0.1-0.1,0.2-0.2,0.3-0.3l-1.1-0.9l-0.2,0.2L44.8,345z M45.3,342h0.4
			v-1.8h-0.4V342z M35.3,342.5l-1.4,0.2c0.1,0.4,0.3,0.8,0.5,1.2l0.3-0.1l0.7-0.1l0,0l-0.8,0.5c0.1,0.1,0.1,0.2,0.2,0.4l1.2-0.8
			C35.6,343.3,35.4,342.9,35.3,342.5L35.3,342.5z M38.9,346.2L38.9,346.2l-0.2,1l0.4,0.1l0.1-1.4c-0.9-0.1-1.8-0.5-2.5-1.2l-1,1
			l0.3,0.3l0.6-0.8l0,0l-0.2,0.7l-0.2,0.2c0.6,0.5,1.4,0.8,2.1,1l0.1-0.3L38.9,346.2z M46,342h0.3c0.1-0.4,0.1-0.7,0.1-1.1
			c0-0.3,0-0.5,0-0.8H46V342z M40,334.6c-3.1,0-5.8,2.3-6.3,5.3h2.5c0.6-2.1,2.9-3.3,5-2.7c1.3,0.4,2.3,1.4,2.7,2.7h2.5
			C45.8,336.8,43.1,334.5,40,334.6L40,334.6z M40,334.3c3.7,0,6.7,3,6.7,6.7c0,3.7-3,6.7-6.7,6.7c-3.7,0-6.7-3-6.7-6.7
			C33.3,337.2,36.3,334.2,40,334.3C40,334.2,40,334.2,40,334.3L40,334.3z"/>
		<g>
			<defs>
				<path id="SVGID_1_" d="M38.2,338.7c0,0.1-0.1,0.2-0.1,0.3h0.5c0.1-0.2,0.2-0.3,0.4-0.3l0,0c0.2,0,0.4,0.1,0.6,0.1l0,0l0.2,0.1
					c0.1,0.1,0.3,0.1,0.4,0.1l0,0c0.1,0,0.2,0,0.3,0c0,0,0,0,0.1,0l0,0c0,0,0-0.1,0-0.1c0-0.1,0.1-0.1,0.2-0.1l0,0l0,0l0,0
					c0,0,0,0,0-0.1s0.1-0.1,0.1-0.1c-0.3,0.1-0.6,0.1-0.9,0.1c-0.3,0-0.5-0.1-0.8-0.1c-0.2-0.1-0.4-0.1-0.6-0.1
					C38.6,338.4,38.3,338.5,38.2,338.7z M42.4,342.6L42.4,342.6l-0.5-0.2v-0.1c0-0.1,0-0.1,0-0.2V342v-0.1l0.4-0.2v-0.1l-0.4,0.1
					v-0.1l-0.1-0.1l-0.2,0.5l0,0c0,0.1,0,0.1,0.1,0.2c0,0.1,0.1,0.3,0,0.4c0,0.3-0.1,0.7-0.3,0.9c-0.2,0.3-0.5,0.4-0.9,0.5h-0.4
					c-0.3,0-0.6-0.2-0.9-0.5c-0.2-0.3-0.4-0.6-0.4-0.9c0-0.1,0-0.3,0.1-0.4c0,0,0-0.1,0-0.1l0,0l-0.2-0.5l0,0c0,0-0.1,0.1-0.1,0.1
					v0.1l-0.5-0.1v0.1l0.4,0.2v0.1c0,0,0,0.1,0,0.1v0.2v0.1l-0.5,0.1v0.1l0.5,0.1v0.1c0,0.1,0,0.2,0.1,0.3v0.1l-0.4,0.2v0.1l0.5-0.1
					v0.1c0.1,0.1,0.1,0.2,0.2,0.3v0.1l-0.3,0.4l0.1,0.1L39,344l0.1,0c0.1,0.1,0.2,0.1,0.3,0.2h0.1l-0.1,0.5h0.1l0.2-0.4h0.1
					c0.1,0,0.2,0.1,0.3,0.1h0l0.1,0.5h0.1l0.1-0.5h0.1c0.1,0,0.2,0,0.3-0.1h0.1l0.2,0.4H41l-0.1-0.5H41c0.1-0.1,0.2-0.1,0.3-0.2
					l0.1,0l0.4,0.3l0.1-0.1l-0.3-0.4l0-0.1c0.1-0.1,0.1-0.2,0.2-0.3v-0.1l0.4,0.1v-0.1l-0.4-0.2v-0.1c0-0.1,0-0.2,0.1-0.3v-0.1
					L42.4,342.6z M42.1,342.2C42.1,342.2,42.1,342.2,42.1,342.2l0.5,0.2v0.5l-0.5,0.1c0,0.1,0,0.1,0,0.2l0.4,0.2l-0.2,0.4l-0.5-0.1
					c0,0.1-0.1,0.1-0.1,0.2l0.3,0.4l-0.3,0.3l-0.4-0.3c-0.1,0-0.1,0.1-0.2,0.1l0.1,0.5l-0.4,0.2l-0.2-0.4h-0.2l-0.1,0.5h-0.5
					l-0.1-0.5h-0.2l-0.2,0.4l-0.4-0.2l0.1-0.5l-0.2-0.1l-0.4,0.3l-0.3-0.3l0.3-0.4l-0.1-0.2l-0.5,0.1l-0.2-0.4l0.4-0.2
					c0-0.1,0-0.1,0-0.2l-0.5-0.1v-0.5l0.5-0.1c0,0,0-0.1,0-0.1V342l-0.4-0.3l0.2-0.4l0.5,0.1l0.2-0.2l-0.2-0.4l0.2-0.1L39,342
					c-0.1,0.1-0.1,0.1-0.1,0.2c0,0.1,0,0.2,0,0.3c0,0.6,0.4,1.1,1,1.2h0.3c0.3,0,0.5-0.2,0.7-0.4c0.2-0.2,0.3-0.5,0.3-0.8
					c0-0.1,0-0.1,0-0.2v-0.1l0,0c0,0,0-0.1-0.1-0.1l-0.1-0.1V342l0.6-1.2l0.2,0.1l-0.2,0.4l0,0c0,0.1,0.1,0.1,0.1,0.2l0.5-0.1
					l0.2,0.4L42,342L42.1,342.2z M40.5,342.2l1.2-2.6h-2.1l0.2,0.4h1.3l0,0l-1,2.1l-1.2-2.5h-0.5l1.3,2.6l0.4,0.9L40.5,342.2z
					 M39.7,340.2l-0.4-0.8h2.6l0.1,0l-1.2,2.7l0,0l-0.6,1.3v0l-0.6-1.3l-1.4-2.8H39l1.1,2.2l0.7-1.5L39.7,340.2z M39,339.2h-1
					l-0.1-0.1c0-0.2,0-0.3,0.1-0.4c0.2-0.3,0.5-0.5,0.9-0.5c0.2,0,0.4,0,0.6,0.1l0,0c0.2,0.1,0.5,0.1,0.7,0.1c0.3,0,0.7-0.1,1-0.2
					h0.1c0,0,0.1-0.1,0.1,0s0,0.1,0,0.1l0,0c0,0.1,0,0.1-0.1,0.1c0,0-0.1,0.1-0.1,0.1c0,0,0,0-0.1,0.1v0.1l0,0v0.1
					c0,0-0.1,0.1-0.1,0.1c0,0-0.1,0-0.1,0.1c0,0,0,0,0,0l0,0l0,0c0,0.1-0.1,0.1-0.2,0.1c-0.1,0.1-0.3,0.1-0.4,0.1l0,0
					c-0.2,0-0.3,0-0.5-0.1l-0.2-0.1l0,0c-0.2-0.1-0.4-0.1-0.6-0.1c-0.1,0-0.2,0-0.2,0.1C39,339,39,339.1,39,339.2L39,339.2z
					 M44.6,340.8c0,0.1,0,0.2-0.1,0.2c-0.1,0.1-0.2,0.3-0.3,0.4h0.4l0,0v0.1l0,0h-0.8l0,0l0,0c0.1-0.1,0.4-0.5,0.5-0.6
					c0,0,0.1-0.1,0.1-0.1c0-0.1-0.1-0.1-0.2-0.1c-0.1,0-0.1,0-0.2,0.1h-0.1l-0.1-0.1 M43.7,340.6c0.1-0.1,0.3-0.2,0.4-0.2
					c0.3,0,0.4,0.2,0.4,0.3L43.7,340.6z M43.3,340.4L43.3,340.4v1.1l0,0h-0.2l0,0v-0.8h-0.2l0,0v-0.1l0,0l0.3-0.2L43.3,340.4z
					 M36.8,341c0.1,0,0.2-0.1,0.1-0.2c0-0.1-0.1-0.2-0.2-0.1c-0.1,0-0.1,0.1-0.1,0.2C36.6,340.9,36.7,341,36.8,341z M36.8,340.4
					c0.3,0,0.5,0.2,0.5,0.4c0,0,0,0,0,0.1c0,0.4-0.3,0.7-0.7,0.8c0,0,0,0-0.1,0l-0.1-0.1c0,0,0,0,0,0s0.4-0.1,0.4-0.3
					c-0.1,0-0.1,0-0.2,0c-0.2,0-0.4-0.2-0.4-0.4c0,0,0,0,0,0C36.3,340.6,36.5,340.4,36.8,340.4C36.8,340.4,36.8,340.4,36.8,340.4
					L36.8,340.4z M36,340.4L36,340.4v1.1l0,0h-0.2l0,0v-0.8h-0.2l0,0v-0.1l0,0l0.3-0.2L36,340.4z M43.7,338.4
					C43.7,338.4,43.7,338.4,43.7,338.4l1.4-0.8l0,0l0,0l-0.3,1.2l0,0l0.7-0.4 M45.5,338.5l0.1,0.2c0,0,0,0,0,0.1l-1.4,0.7
					c0,0,0,0,0,0l0,0l0,0l0.4-1.2l0,0l-0.8,0.4L45.5,338.5z M43.1,336.8c-0.2,0.2-0.2,0.4,0,0.6c0,0,0,0,0,0c0.2,0.2,0.5,0.2,0.6,0
					c0.2-0.2,0.2-0.5,0-0.6C43.6,336.6,43.3,336.6,43.1,336.8C43.1,336.8,43.1,336.8,43.1,336.8z M42.9,337.7
					c-0.3-0.3-0.4-0.8-0.1-1.1c0,0,0,0,0,0c0.3-0.3,0.8-0.4,1.1-0.1c0.3,0.3,0.4,0.8,0.1,1.1C43.8,337.9,43.3,338,42.9,337.7
					C42.9,337.7,42.9,337.7,42.9,337.7z M41.8,336.8l0.7-1.3 M42.5,335.5l0.2,0.1 M42.7,335.7l-0.7,1.3l0,0L42.7,335.7z M38.4,336.7
					L38.4,336.7l-0.3-1.5c0,0,0,0,0,0l0.3,0l0,0l0.1,0.6l0.6-0.1L39,335l0,0l0.3,0h0l0.3,1.5 M39.7,336.5h-0.3c0,0,0,0,0,0l-0.1-0.6
					l-0.6,0.1l0.1,0.6c0,0,0,0,0,0L39.7,336.5z M40.1,336.5L40.1,336.5l0.3-1.5l0,0h0.1l0.7,1l0,0l0.1-0.8c0,0,0,0,0,0l0.3,0
					 M41.6,335.3l-0.3,1.5c0,0,0,0,0,0h0l-0.7-1l0,0l-0.2,0.8l0,0L41.6,335.3z M37.7,337.1c-0.4,0.2-0.9,0.1-1.1-0.3
					c-0.2-0.4-0.1-0.9,0.3-1.1c0,0,0,0,0,0c0.2-0.1,0.4-0.1,0.6-0.1c0,0,0,0,0,0.1v0.2l0,0c-0.1,0-0.2,0-0.3,0.1
					c-0.2,0.1-0.3,0.4-0.1,0.6c0.1,0.2,0.4,0.3,0.6,0.1c0.1-0.1,0.2-0.1,0.2-0.2l0,0l0.2,0.1l0,0C38,336.8,37.9,337,37.7,337.1
					L37.7,337.1z M36.2,338.4l-1.1-1c0,0,0,0,0-0.1l0.6-0.7c0,0,0,0,0.1,0l0.2,0.2 M35.9,336.9l-0.4,0.5l0.2,0.2l0.3-0.4
					 M36.1,337.1l0.2,0.2c0,0,0,0,0,0.1l-0.3,0.4l0.2,0.2l0.4-0.5 M36.7,337.5l0.2,0.2 M36.9,337.7l-0.6,0.7c0,0,0,0-0.1,0
					L36.9,337.7z M35.9,339l-0.1,0.2 M35.7,339.2l-1.1-0.5l-0.1,0.3 M34.4,339l-0.2-0.1 M34.2,338.8l0.4-0.9 M34.7,337.9l0.2,0.1
					 M34.9,338.1l-0.1,0.3L34.9,338.1z M42.9,342.2l-0.1-0.2H45v-1.8h-2.8l0.1-0.2h1.2c-0.6-1.9-2.7-3-4.7-2.4
					c-1.1,0.4-2,1.3-2.4,2.4h1.3l0.1,0.2h-3v1.9h2.2l-0.1,0.2l-1.4,0.2c0.8,2.4,3.5,3.8,5.9,2.9c1.4-0.5,2.5-1.6,2.9-2.9L42.9,342.2
					z M33.6,340.9c0,0.4,0.1,0.7,0.1,1.1H34v-1.8h-0.3C33.6,340.4,33.6,340.6,33.6,340.9L33.6,340.9z M43.4,345.8l-0.2-0.7l0,0
					l0.6,0.8c0.1-0.1,0.2-0.2,0.3-0.3l-1-1c-0.7,0.6-1.6,1-2.6,1.1l0.1,1.4l0.4-0.1l-0.2-1l0,0l0.4,0.6l0.1,0.3
					c0.8-0.2,1.5-0.5,2.2-1L43.4,345.8z M45.6,343.8c0.2-0.4,0.3-0.8,0.5-1.2l-1.4-0.2c-0.1,0.4-0.3,0.8-0.6,1.2l1.1,0.8
					c0.1-0.1,0.2-0.2,0.2-0.4l-0.9-0.5l0,0l0.7,0.1L45.6,343.8z M44.3,345.5l0.3-0.3l-1.1-0.9l-0.2,0.2L44.3,345.5z M34.2,342h0.4
					v-1.8h-0.4V342z M40.1,345.9v1.4h0.4l-0.2-1.4H40.1z M39.5,345.9l-0.1,1.4c0.1,0,0.3,0,0.4,0v-1.4L39.5,345.9z M34.8,344.7
					l0.3,0.3l1.1-0.9l-0.2-0.2L34.8,344.7z M35.3,345.2l0.3,0.3l1-1l-0.2-0.2L35.3,345.2z M44.8,345c0.1-0.1,0.2-0.2,0.3-0.3
					l-1.1-0.9l-0.2,0.2L44.8,345z M45.3,342h0.4v-1.8h-0.4V342z M35.3,342.5l-1.4,0.2c0.1,0.4,0.3,0.8,0.5,1.2l0.3-0.1l0.7-0.1l0,0
					l-0.8,0.5c0.1,0.1,0.1,0.2,0.2,0.4l1.2-0.8C35.6,343.3,35.4,342.9,35.3,342.5L35.3,342.5z M38.9,346.2L38.9,346.2l-0.2,1
					l0.4,0.1l0.1-1.4c-0.9-0.1-1.8-0.5-2.5-1.2l-1,1l0.3,0.3l0.6-0.8l0,0l-0.2,0.7l-0.2,0.2c0.6,0.5,1.4,0.8,2.1,1l0.1-0.3
					L38.9,346.2z M46,342h0.3c0.1-0.4,0.1-0.7,0.1-1.1c0-0.3,0-0.5,0-0.8H46V342z M40,334.6c-3.1,0-5.8,2.3-6.3,5.3h2.5
					c0.6-2.1,2.9-3.3,5-2.7c1.3,0.4,2.3,1.4,2.7,2.7h2.5C45.8,336.8,43.1,334.5,40,334.6L40,334.6z M40,334.3c3.7,0,6.7,3,6.7,6.7
					c0,3.7-3,6.7-6.7,6.7c-3.7,0-6.7-3-6.7-6.7C33.3,337.2,36.3,334.2,40,334.3C40,334.2,40,334.2,40,334.3L40,334.3z"/>
			</defs>
			<clipPath id="SVGID_2_">
				<use xlink:href="#SVGID_1_"  style="overflow:visible;"/>
			</clipPath>
			<g class="st8">
				<rect x="32.7" y="287.5" class="st9" width="19.5" height="75.1"/>
				<g>
					<defs>
						<rect id="SVGID_3_" x="32.7" y="287.5" width="19.5" height="75.1"/>
					</defs>
					<clipPath id="SVGID_4_">
						<use xlink:href="#SVGID_3_"  style="overflow:visible;"/>
					</clipPath>
					<g class="st10">
						<rect x="29.5" y="330.5" class="st9" width="20.9" height="20.9"/>
					</g>
				</g>
			</g>
		</g>
		<path class="st7" d="M46.7,355.9c0-3.7-3-6.7-6.7-6.7s-6.7,3-6.7,6.7c0,3.7,3,6.7,6.7,6.7c0,0,0,0,0,0
			C43.7,362.6,46.7,359.6,46.7,355.9z M46.5,355.9c0,3.6-2.9,6.5-6.5,6.6s-6.5-2.9-6.6-6.5c0-3.6,2.9-6.5,6.5-6.6c0,0,0,0,0,0
			C43.6,349.4,46.5,352.3,46.5,355.9z M46.2,355.8l-0.3-0.2l0.3-0.2v-0.3l-0.6,0.4h-0.4v0.2h0.4l0.6,0.3L46.2,355.8z M45.9,354.9
			l0.2,0l-0.2-0.7l-0.2,0l0.1,0.2l-0.7,0.2l0.1,0.2l0.7-0.2L45.9,354.9z M44.9,354l0.9-0.4l-0.1-0.2l-0.9,0.4L44.9,354z M45.2,353
			l0.2-0.1l0,0c0-0.1,0-0.1-0.1-0.2c-0.1-0.2-0.2-0.2-0.4-0.2c0,0,0,0,0,0c-0.1,0.1-0.2,0.2-0.1,0.4c0,0.1,0,0.1,0,0.2
			s-0.1,0-0.1-0.1c0-0.1,0-0.1,0-0.2v-0.1l-0.2,0.1l0,0c0,0.1,0,0.1,0.1,0.2c0.1,0.1,0.2,0.2,0.3,0.2c0.1,0,0.1,0,0.2,0
			c0.1-0.1,0.1-0.2,0.1-0.3c0-0.1,0-0.1,0-0.2l0,0c0,0,0.1,0,0.1,0.1C45.1,352.9,45.1,353,45.2,353L45.2,353z M44.7,352.2
			c0.2-0.2,0-0.4-0.1-0.5l-0.2-0.2l-0.7,0.6l0.2,0.2l0.3-0.2l0,0c0,0,0,0.1,0,0.1l-0.2,0.3l0.2,0.2l0.2-0.4c0,0,0-0.1,0-0.1
			C44.4,352.3,44.5,352.3,44.7,352.2L44.7,352.2z M44.5,352C44.5,352,44.5,352,44.5,352C44.5,352,44.5,352,44.5,352
			c-0.1,0-0.1,0-0.2,0l0,0l0.1-0.1l0,0L44.5,352L44.5,352z M43.9,351.3l0.1-0.2l-0.5-0.4l-0.6,0.8l0.5,0.4l0.1-0.2l-0.3-0.2l0.1-0.1
			l0.2,0.2l0.1-0.2l-0.2-0.2l0.1-0.1L43.9,351.3z M42.5,351.3l0.7-0.7l-0.2-0.1l-0.5,0.5l0.1-0.7l-0.2-0.1l-0.1,1L42.5,351.3z
			 M41.7,350.9L42,350l-0.2-0.1l-0.3,0.9L41.7,350.9z M41.1,350.8l0.1-1H41l-0.1,0.6l-0.2-0.6h-0.3l-0.1,1h0.2l0.1-0.6l0.2,0.6H41.1
			z M40,351c-2.7,0-4.9,2.2-4.9,4.9s2.2,4.9,4.9,4.9c2.7,0,4.9-2.2,4.9-4.9C44.9,353.2,42.7,351,40,351z M44.7,355.9
			c0,2.6-2.1,4.8-4.7,4.8c-2.6,0-4.8-2.1-4.8-4.7c0-2.6,2.1-4.8,4.7-4.8c0,0,0,0,0,0C42.6,351.2,44.7,353.3,44.7,355.9L44.7,355.9z
			 M43.2,356.8v-4.2h-6.4v4.1c0.1,1.1,0.7,2.1,1.6,2.7c0.5,0.4,1,0.7,1.5,0.9l0,0H40c0.5-0.2,1.1-0.6,1.5-0.9
			C42.5,358.9,43.1,357.9,43.2,356.8L43.2,356.8z M40.2,356.2L40.2,356.2c0.1,0,0.2,0,0.3,0h0.2H41h0.3v2h-0.2h-0.4h-0.4
			c0,0-0.1,0-0.1,0V356.2z M37.2,355.3h2.7v0.6c-0.1,0-0.2,0-0.3,0h-0.2L39,356h-0.5v0.6h-0.3v0.3h0.3v0.6h-0.3v0.3h0.3v0.6h0.5
			c0.2,0,0.3,0,0.5,0h0.4c0,0,0.1,0,0.1,0.1l0,0v1.5c-0.7-0.3-2.7-1.5-2.7-3.3L37.2,355.3z M39.8,358.1L39.8,358.1h-0.4H39h-0.2v-2
			H39h0.3h0.2c0.1,0,0.2,0,0.3,0l0,0L39.8,358.1L39.8,358.1z M42.9,355h-5.8v-2.1h5.7L42.9,355z M42.9,356.8c0,1.7-2.1,2.9-2.8,3.2
			v-1.6l0,0c0,0,0.1-0.1,0.1-0.1h0.4c0.1,0,0.3,0,0.4,0h0.5v-0.6h0.2v-0.3h-0.2v-0.6h0.2v-0.3h-0.2V356H41h-0.3h-0.2
			c-0.1,0-0.2,0-0.3,0l0,0v-0.6h2.8L42.9,356.8z M38,353.2c0,0.4,0,0.9,0,1s0.1,0.2,0.2,0.3s0.5,0.3,0.5,0.3h0.1h0.1
			c0,0,0.3-0.2,0.5-0.3c0.1-0.1,0.2-0.2,0.2-0.3v-1.1L38,353.2L38,353.2z M39.3,353.6h-1.2v-0.3h1.1L39.3,353.6z M38.2,353.8h1.1
			v0.3c0,0.1-0.1,0.1-0.1,0.1s-0.3,0.2-0.5,0.3l-0.4-0.3c-0.1-0.1-0.2-0.1-0.2-0.2L38.2,353.8z M40.6,353.2v1c0,0.1,0.1,0.3,0.2,0.3
			c0.2,0.1,0.5,0.3,0.5,0.3h0.1l0,0c0,0,0.3-0.2,0.5-0.3s0.2-0.3,0.2-0.3V353h-1.6L40.6,353.2z M40.9,354.1l0.6-0.4l0.6,0.4
			c0,0,0,0.1,0,0.1s-0.1,0.1-0.1,0.2l-0.5,0.3l-0.4-0.3C41,354.3,40.9,354.2,40.9,354.1L40.9,354.1z M40.9,353.3H42
			c0,0.2,0,0.4,0,0.5l-0.6-0.4l-0.6,0.4L40.9,353.3z M39.7,357.2V357H39v0.2h0.3h0.2L39.7,357.2L39.7,357.2z M39.7,356.6v-0.2H39
			v0.2h0.3h0.2L39.7,356.6L39.7,356.6z M39.3,357.7H39v0.2h0.3h0.2h0.2v-0.2h-0.2L39.3,357.7z M40.4,356.4L40.4,356.4l-0.1,0.2l0,0
			h0.1H41v-0.2h-0.3H40.4L40.4,356.4z M41.1,357.3V357h-0.3h-0.2h-0.2v0.2H41.1L41.1,357.3z M40.4,357.6L40.4,357.6l-0.1,0.2H41
			v-0.2h-0.3H40.4L40.4,357.6z M39.9,350.6c0.1-0.1,0.1-0.2,0.1-0.3v-0.6h-0.2v0.5c0,0.2-0.1,0.2-0.1,0.2l0,0c-0.1,0-0.1,0-0.2-0.2
			v-0.6h-0.2v0.6c0,0.2,0.1,0.3,0.3,0.3c0,0,0,0,0.1,0h0.1C39.7,350.7,39.8,350.7,39.9,350.6L39.9,350.6z M38,351.1l0.6-0.2
			l-0.1-0.2l-0.3,0.1l-0.3-0.7l-0.2,0.1L38,351.1z M37.7,351.2l-0.1-0.2l-0.3,0.2l-0.4-0.7l-0.2,0.1l0.5,0.9L37.7,351.2z
			 M36.4,351.6l0.2-0.2l-0.1-0.2l-0.2,0.2l-0.1-0.1l0.3-0.2l-0.1-0.1l-0.5,0.4l0.6,0.8l0.5-0.4l-0.1-0.2l-0.3,0.2L36.4,351.6z
			 M36.2,352.3l-0.7-0.6l-0.2,0.2l0.4,0.4l-0.6-0.1l-0.2,0.2l0.8,0.6l0.2-0.2l-0.5-0.4l0.6,0.1L36.2,352.3z M34.9,352.9
			c0,0-0.1,0-0.1,0c-0.2,0-0.2,0.2-0.3,0.3l-0.1,0.2l0.8,0.5l0.1-0.2l-0.3-0.2l0,0c0-0.1,0,0,0.1,0h0.3l0.1-0.2h-0.4H35
			C35,353.1,35,352.9,34.9,352.9L34.9,352.9z M34.8,353.2c0,0,0,0.1,0,0.1l0,0l-0.2-0.1l0,0C34.7,353.1,34.8,353.1,34.8,353.2
			C34.8,353.1,34.8,353.1,34.8,353.2L34.8,353.2z M34.4,353.9c-0.2,0-0.4,0.1-0.4,0.3c-0.1,0.2,0.1,0.5,0.3,0.6c0,0,0,0,0,0h0.2
			c0.2,0,0.4-0.1,0.4-0.3c0.1-0.1,0.1-0.2,0-0.4c-0.1-0.1-0.2-0.2-0.3-0.2H34.4z M34.4,354.2c0,0,0.1,0,0.1,0c0.1,0,0.2,0.1,0.2,0.1
			c0,0,0,0.1,0,0.1c0,0.1-0.1,0.2-0.2,0.1h-0.1c-0.1,0-0.3-0.1-0.2-0.3C34.2,354.2,34.3,354.2,34.4,354.2L34.4,354.2z M34.1,355.2
			h-0.2l0,0c0,0.1,0,0.1,0,0.2c0,0.3,0.1,0.5,0.4,0.5c0,0,0.1,0,0.1,0l0,0c0.3,0,0.5-0.2,0.5-0.5c0,0,0,0,0,0c0-0.1,0-0.1,0-0.2l0,0
			h-0.2v0c0,0.1,0,0.1,0,0.2c0,0.1-0.1,0.3-0.3,0.3c0,0,0,0,0,0c-0.1,0-0.3-0.1-0.3-0.2c0,0,0,0,0,0C34,355.4,34,355.3,34.1,355.2
			L34.1,355.2z M34.9,357l-0.9,0.3l0.1,0.2l0.4-0.1l0.1,0.3l0.2-0.1l-0.1-0.3h0.2l0.1,0.3l0.2-0.1L34.9,357z M34.4,358.3
			c0,0.1,0,0.2,0,0.4c0.1,0.2,0.2,0.3,0.4,0.3c0.1,0,0.2,0,0.2-0.1c0.1-0.1,0.2-0.2,0.3-0.3c0-0.1,0-0.2,0-0.4
			c-0.1-0.2-0.2-0.3-0.4-0.3c-0.1,0-0.2,0-0.2,0.1C34.6,358,34.4,358.1,34.4,358.3L34.4,358.3z M34.6,358.4c0-0.1,0.1-0.1,0.2-0.2
			c0.1,0,0.1,0,0.2,0c0.1,0,0.2,0,0.2,0.1c0,0,0,0.1,0,0.1c0,0.1-0.1,0.1-0.2,0.2c-0.1,0-0.1,0-0.2,0c-0.1,0-0.2,0-0.2-0.1
			C34.6,358.5,34.6,358.4,34.6,358.4L34.6,358.4z M35.2,359.2c-0.1,0.1-0.1,0.2-0.2,0.3c0,0.1,0,0.2,0.1,0.3
			c0.1,0.1,0.2,0.2,0.3,0.2c0.1,0,0.2,0,0.2-0.1l0.5-0.4l-0.2-0.2l-0.4,0.3c-0.1,0.1-0.2,0.1-0.3,0c0,0,0-0.1,0-0.1
			c0-0.1,0.1-0.1,0.1-0.2l0.4-0.3l-0.2-0.2L35.2,359.2z M36.4,359.7l-0.6,0.8l0.2,0.1l0.4-0.5l-0.1,0.6l0.2,0.2l0.6-0.8l-0.2-0.2
			l-0.4,0.5l0.1-0.6L36.4,359.7z M37.3,360.4l-0.4,0.9l0.2,0.1c0.1,0.1,0.2,0.1,0.3,0.1c0.2,0,0.3-0.1,0.4-0.3
			c0.1-0.3,0-0.5-0.3-0.7L37.3,360.4z M37.2,361.2l0.2-0.5h0.1c0.1,0,0.1,0.1,0.1,0.2c0,0.1,0,0.1,0,0.2c0,0.1-0.1,0.2-0.2,0.2
			L37.2,361.2L37.2,361.2z M38.4,360.9l-0.2,0.9l0.6,0.1v-0.2l-0.3-0.1v-0.2l0.3,0.1v-0.2l-0.3-0.1v-0.1l0.3,0.1l0.1-0.2L38.4,360.9
			z M39.3,361.1v1h0.3c0.2,0,0.5-0.1,0.5-0.4c0,0,0-0.1,0-0.1c0-0.1,0-0.3-0.1-0.4c-0.1-0.1-0.3-0.2-0.4-0.2L39.3,361.1z
			 M39.5,361.9v-0.5h0.1c0.1,0,0.3,0.1,0.3,0.3c0,0,0,0,0,0C39.8,361.7,39.7,361.9,39.5,361.9C39.6,361.9,39.5,361.9,39.5,361.9
			L39.5,361.9z M40.9,361l-0.2,1l0.2,0v-0.2l0.3-0.1l0.1,0.2l0.3-0.1l-0.6-0.9L40.9,361z M41.1,361.6v-0.2l0.1,0.2L41.1,361.6z
			 M42.1,361.5l-0.2,0.1l0.1,0.2l0.2-0.1L42.1,361.5z M42.1,360.7l0.5,0.9l0.2-0.1c0.3-0.2,0.4-0.4,0.3-0.7s-0.4-0.3-0.7-0.2
			L42.1,360.7z M42.4,360.8L42.4,360.8c0.1,0,0.1,0,0.2,0c0.1,0,0.2,0.1,0.2,0.1c0.1,0.1,0,0.3-0.1,0.4c0,0,0,0,0,0h-0.1L42.4,360.8
			z M43.4,360.8l-0.2,0.1l0.1,0.2l0.2-0.1L43.4,360.8z M43.6,360h0.2v-0.2l0.5,0.5l0.2-0.2l-0.7-0.7l-0.2,0.1L43.6,360z M44.4,359.5
			c0,0.1,0,0.2,0.1,0.2c0,0,0.1,0.1,0.2,0.1c0.1,0,0.2-0.1,0.3-0.2c0.1-0.1,0.1-0.2,0.1-0.3c0-0.1-0.1-0.1-0.1-0.2
			c-0.1-0.1-0.2-0.1-0.3,0c0-0.1,0-0.2-0.1-0.2c-0.1-0.1-0.3,0-0.4,0.1c-0.1,0.1-0.1,0.3,0,0.4c0,0,0,0,0,0
			C44.2,359.5,44.3,359.5,44.4,359.5L44.4,359.5z M44.6,359.4c0.1,0,0.1,0,0.2,0s0,0,0,0.1c0,0,0,0,0,0.1c0,0-0.1,0-0.1,0
			C44.6,359.5,44.6,359.4,44.6,359.4L44.6,359.4z M44.4,359.2C44.4,359.2,44.4,359.2,44.4,359.2L44.4,359.2c-0.1,0-0.1-0.1-0.1-0.1
			c0,0,0,0,0.1,0h0C44.5,359.1,44.5,359.2,44.4,359.2L44.4,359.2z M45,358.8c0.1,0,0.2,0.1,0.3,0.1c0.1,0,0.2-0.1,0.3-0.2
			c0.1-0.2,0-0.3-0.1-0.4c0,0,0,0-0.1,0c-0.1-0.1-0.3,0-0.4,0.1c0,0,0,0,0,0c0,0,0,0.1,0,0.1c-0.1,0-0.1-0.1-0.1-0.2
			c0,0,0.1-0.1,0.1-0.1l0,0l-0.2-0.1l0,0c0,0-0.1,0.1-0.1,0.2c0,0.1,0,0.2,0,0.3C44.8,358.6,44.9,358.7,45,358.8L45,358.8z
			 M45.1,358.5C45.1,358.5,45.1,358.5,45.1,358.5C45.1,358.4,45.1,358.4,45.1,358.5c0.1-0.1,0.1-0.1,0.2-0.1c0,0,0.1,0,0.1,0.1
			c0,0,0,0,0,0.1c0,0,0,0-0.1,0h-0.1C45.1,358.6,45.1,358.5,45.1,358.5L45.1,358.5z M45.6,357.8L45.6,357.8l0.2,0.1l0,0
			c0-0.1,0.1-0.1,0.1-0.2c0-0.1,0-0.2,0-0.3c0-0.1-0.1-0.1-0.2-0.2c-0.2-0.1-0.3,0-0.4,0.2c0,0,0,0,0,0c0,0,0,0,0,0h-0.1l0.1-0.3
			l-0.2-0.1l-0.2,0.6l0.5,0.2l0,0c0,0,0-0.1,0-0.1c0,0,0.1-0.2,0.2-0.1c0.1,0,0.1,0.1,0.1,0.2c0,0,0,0,0,0
			C45.7,357.7,45.7,357.8,45.6,357.8L45.6,357.8z"/>
		<g>
			<defs>
				<path id="SVGID_5_" d="M46.7,355.9c0-3.7-3-6.7-6.7-6.7s-6.7,3-6.7,6.7c0,3.7,3,6.7,6.7,6.7c0,0,0,0,0,0
					C43.7,362.6,46.7,359.6,46.7,355.9z M46.5,355.9c0,3.6-2.9,6.5-6.5,6.6s-6.5-2.9-6.6-6.5c0-3.6,2.9-6.5,6.5-6.6c0,0,0,0,0,0
					C43.6,349.4,46.5,352.3,46.5,355.9z M46.2,355.8l-0.3-0.2l0.3-0.2v-0.3l-0.6,0.4h-0.4v0.2h0.4l0.6,0.3L46.2,355.8z M45.9,354.9
					l0.2,0l-0.2-0.7l-0.2,0l0.1,0.2l-0.7,0.2l0.1,0.2l0.7-0.2L45.9,354.9z M44.9,354l0.9-0.4l-0.1-0.2l-0.9,0.4L44.9,354z M45.2,353
					l0.2-0.1l0,0c0-0.1,0-0.1-0.1-0.2c-0.1-0.2-0.2-0.2-0.4-0.2c0,0,0,0,0,0c-0.1,0.1-0.2,0.2-0.1,0.4c0,0.1,0,0.1,0,0.2
					s-0.1,0-0.1-0.1c0-0.1,0-0.1,0-0.2v-0.1l-0.2,0.1l0,0c0,0.1,0,0.1,0.1,0.2c0.1,0.1,0.2,0.2,0.3,0.2c0.1,0,0.1,0,0.2,0
					c0.1-0.1,0.1-0.2,0.1-0.3c0-0.1,0-0.1,0-0.2l0,0c0,0,0.1,0,0.1,0.1C45.1,352.9,45.1,353,45.2,353L45.2,353z M44.7,352.2
					c0.2-0.2,0-0.4-0.1-0.5l-0.2-0.2l-0.7,0.6l0.2,0.2l0.3-0.2l0,0c0,0,0,0.1,0,0.1l-0.2,0.3l0.2,0.2l0.2-0.4c0,0,0-0.1,0-0.1
					C44.4,352.3,44.5,352.3,44.7,352.2L44.7,352.2z M44.5,352C44.5,352,44.5,352,44.5,352C44.5,352,44.5,352,44.5,352
					c-0.1,0-0.1,0-0.2,0l0,0l0.1-0.1l0,0L44.5,352L44.5,352z M43.9,351.3l0.1-0.2l-0.5-0.4l-0.6,0.8l0.5,0.4l0.1-0.2l-0.3-0.2
					l0.1-0.1l0.2,0.2l0.1-0.2l-0.2-0.2l0.1-0.1L43.9,351.3z M42.5,351.3l0.7-0.7l-0.2-0.1l-0.5,0.5l0.1-0.7l-0.2-0.1l-0.1,1
					L42.5,351.3z M41.7,350.9L42,350l-0.2-0.1l-0.3,0.9L41.7,350.9z M41.1,350.8l0.1-1H41l-0.1,0.6l-0.2-0.6h-0.3l-0.1,1h0.2
					l0.1-0.6l0.2,0.6H41.1z M40,351c-2.7,0-4.9,2.2-4.9,4.9s2.2,4.9,4.9,4.9c2.7,0,4.9-2.2,4.9-4.9C44.9,353.2,42.7,351,40,351z
					 M44.7,355.9c0,2.6-2.1,4.8-4.7,4.8c-2.6,0-4.8-2.1-4.8-4.7c0-2.6,2.1-4.8,4.7-4.8c0,0,0,0,0,0
					C42.6,351.2,44.7,353.3,44.7,355.9L44.7,355.9z M43.2,356.8v-4.2h-6.4v4.1c0.1,1.1,0.7,2.1,1.6,2.7c0.5,0.4,1,0.7,1.5,0.9l0,0
					H40c0.5-0.2,1.1-0.6,1.5-0.9C42.5,358.9,43.1,357.9,43.2,356.8L43.2,356.8z M40.2,356.2L40.2,356.2c0.1,0,0.2,0,0.3,0h0.2H41
					h0.3v2h-0.2h-0.4h-0.4c0,0-0.1,0-0.1,0V356.2z M37.2,355.3h2.7v0.6c-0.1,0-0.2,0-0.3,0h-0.2L39,356h-0.5v0.6h-0.3v0.3h0.3v0.6
					h-0.3v0.3h0.3v0.6h0.5c0.2,0,0.3,0,0.5,0h0.4c0,0,0.1,0,0.1,0.1l0,0v1.5c-0.7-0.3-2.7-1.5-2.7-3.3L37.2,355.3z M39.8,358.1
					L39.8,358.1h-0.4H39h-0.2v-2H39h0.3h0.2c0.1,0,0.2,0,0.3,0l0,0L39.8,358.1L39.8,358.1z M42.9,355h-5.8v-2.1h5.7L42.9,355z
					 M42.9,356.8c0,1.7-2.1,2.9-2.8,3.2v-1.6l0,0c0,0,0.1-0.1,0.1-0.1h0.4c0.1,0,0.3,0,0.4,0h0.5v-0.6h0.2v-0.3h-0.2v-0.6h0.2v-0.3
					h-0.2V356H41h-0.3h-0.2c-0.1,0-0.2,0-0.3,0l0,0v-0.6h2.8L42.9,356.8z M38,353.2c0,0.4,0,0.9,0,1s0.1,0.2,0.2,0.3
					s0.5,0.3,0.5,0.3h0.1h0.1c0,0,0.3-0.2,0.5-0.3c0.1-0.1,0.2-0.2,0.2-0.3v-1.1L38,353.2L38,353.2z M39.3,353.6h-1.2v-0.3h1.1
					L39.3,353.6z M38.2,353.8h1.1v0.3c0,0.1-0.1,0.1-0.1,0.1s-0.3,0.2-0.5,0.3l-0.4-0.3c-0.1-0.1-0.2-0.1-0.2-0.2L38.2,353.8z
					 M40.6,353.2v1c0,0.1,0.1,0.3,0.2,0.3c0.2,0.1,0.5,0.3,0.5,0.3h0.1l0,0c0,0,0.3-0.2,0.5-0.3s0.2-0.3,0.2-0.3V353h-1.6
					L40.6,353.2z M40.9,354.1l0.6-0.4l0.6,0.4c0,0,0,0.1,0,0.1s-0.1,0.1-0.1,0.2l-0.5,0.3l-0.4-0.3C41,354.3,40.9,354.2,40.9,354.1
					L40.9,354.1z M40.9,353.3H42c0,0.2,0,0.4,0,0.5l-0.6-0.4l-0.6,0.4L40.9,353.3z M39.7,357.2V357H39v0.2h0.3h0.2L39.7,357.2
					L39.7,357.2z M39.7,356.6v-0.2H39v0.2h0.3h0.2L39.7,356.6L39.7,356.6z M39.3,357.7H39v0.2h0.3h0.2h0.2v-0.2h-0.2L39.3,357.7z
					 M40.4,356.4L40.4,356.4l-0.1,0.2l0,0h0.1H41v-0.2h-0.3H40.4L40.4,356.4z M41.1,357.3V357h-0.3h-0.2h-0.2v0.2H41.1L41.1,357.3z
					 M40.4,357.6L40.4,357.6l-0.1,0.2H41v-0.2h-0.3H40.4L40.4,357.6z M39.9,350.6c0.1-0.1,0.1-0.2,0.1-0.3v-0.6h-0.2v0.5
					c0,0.2-0.1,0.2-0.1,0.2l0,0c-0.1,0-0.1,0-0.2-0.2v-0.6h-0.2v0.6c0,0.2,0.1,0.3,0.3,0.3c0,0,0,0,0.1,0h0.1
					C39.7,350.7,39.8,350.7,39.9,350.6L39.9,350.6z M38,351.1l0.6-0.2l-0.1-0.2l-0.3,0.1l-0.3-0.7l-0.2,0.1L38,351.1z M37.7,351.2
					l-0.1-0.2l-0.3,0.2l-0.4-0.7l-0.2,0.1l0.5,0.9L37.7,351.2z M36.4,351.6l0.2-0.2l-0.1-0.2l-0.2,0.2l-0.1-0.1l0.3-0.2l-0.1-0.1
					l-0.5,0.4l0.6,0.8l0.5-0.4l-0.1-0.2l-0.3,0.2L36.4,351.6z M36.2,352.3l-0.7-0.6l-0.2,0.2l0.4,0.4l-0.6-0.1l-0.2,0.2l0.8,0.6
					l0.2-0.2l-0.5-0.4l0.6,0.1L36.2,352.3z M34.9,352.9c0,0-0.1,0-0.1,0c-0.2,0-0.2,0.2-0.3,0.3l-0.1,0.2l0.8,0.5l0.1-0.2l-0.3-0.2
					l0,0c0-0.1,0,0,0.1,0h0.3l0.1-0.2h-0.4H35C35,353.1,35,352.9,34.9,352.9L34.9,352.9z M34.8,353.2c0,0,0,0.1,0,0.1l0,0l-0.2-0.1
					l0,0C34.7,353.1,34.8,353.1,34.8,353.2C34.8,353.1,34.8,353.1,34.8,353.2L34.8,353.2z M34.4,353.9c-0.2,0-0.4,0.1-0.4,0.3
					c-0.1,0.2,0.1,0.5,0.3,0.6c0,0,0,0,0,0h0.2c0.2,0,0.4-0.1,0.4-0.3c0.1-0.1,0.1-0.2,0-0.4c-0.1-0.1-0.2-0.2-0.3-0.2H34.4z
					 M34.4,354.2c0,0,0.1,0,0.1,0c0.1,0,0.2,0.1,0.2,0.1c0,0,0,0.1,0,0.1c0,0.1-0.1,0.2-0.2,0.1h-0.1c-0.1,0-0.3-0.1-0.2-0.3
					C34.2,354.2,34.3,354.2,34.4,354.2L34.4,354.2z M34.1,355.2h-0.2l0,0c0,0.1,0,0.1,0,0.2c0,0.3,0.1,0.5,0.4,0.5c0,0,0.1,0,0.1,0
					l0,0c0.3,0,0.5-0.2,0.5-0.5c0,0,0,0,0,0c0-0.1,0-0.1,0-0.2l0,0h-0.2v0c0,0.1,0,0.1,0,0.2c0,0.1-0.1,0.3-0.3,0.3c0,0,0,0,0,0
					c-0.1,0-0.3-0.1-0.3-0.2c0,0,0,0,0,0C34,355.4,34,355.3,34.1,355.2L34.1,355.2z M34.9,357l-0.9,0.3l0.1,0.2l0.4-0.1l0.1,0.3
					l0.2-0.1l-0.1-0.3h0.2l0.1,0.3l0.2-0.1L34.9,357z M34.4,358.3c0,0.1,0,0.2,0,0.4c0.1,0.2,0.2,0.3,0.4,0.3c0.1,0,0.2,0,0.2-0.1
					c0.1-0.1,0.2-0.2,0.3-0.3c0-0.1,0-0.2,0-0.4c-0.1-0.2-0.2-0.3-0.4-0.3c-0.1,0-0.2,0-0.2,0.1C34.6,358,34.4,358.1,34.4,358.3
					L34.4,358.3z M34.6,358.4c0-0.1,0.1-0.1,0.2-0.2c0.1,0,0.1,0,0.2,0c0.1,0,0.2,0,0.2,0.1c0,0,0,0.1,0,0.1c0,0.1-0.1,0.1-0.2,0.2
					c-0.1,0-0.1,0-0.2,0c-0.1,0-0.2,0-0.2-0.1C34.6,358.5,34.6,358.4,34.6,358.4L34.6,358.4z M35.2,359.2c-0.1,0.1-0.1,0.2-0.2,0.3
					c0,0.1,0,0.2,0.1,0.3c0.1,0.1,0.2,0.2,0.3,0.2c0.1,0,0.2,0,0.2-0.1l0.5-0.4l-0.2-0.2l-0.4,0.3c-0.1,0.1-0.2,0.1-0.3,0
					c0,0,0-0.1,0-0.1c0-0.1,0.1-0.1,0.1-0.2l0.4-0.3l-0.2-0.2L35.2,359.2z M36.4,359.7l-0.6,0.8l0.2,0.1l0.4-0.5l-0.1,0.6l0.2,0.2
					l0.6-0.8l-0.2-0.2l-0.4,0.5l0.1-0.6L36.4,359.7z M37.3,360.4l-0.4,0.9l0.2,0.1c0.1,0.1,0.2,0.1,0.3,0.1c0.2,0,0.3-0.1,0.4-0.3
					c0.1-0.3,0-0.5-0.3-0.7L37.3,360.4z M37.2,361.2l0.2-0.5h0.1c0.1,0,0.1,0.1,0.1,0.2c0,0.1,0,0.1,0,0.2c0,0.1-0.1,0.2-0.2,0.2
					L37.2,361.2L37.2,361.2z M38.4,360.9l-0.2,0.9l0.6,0.1v-0.2l-0.3-0.1v-0.2l0.3,0.1v-0.2l-0.3-0.1v-0.1l0.3,0.1l0.1-0.2
					L38.4,360.9z M39.3,361.1v1h0.3c0.2,0,0.5-0.1,0.5-0.4c0,0,0-0.1,0-0.1c0-0.1,0-0.3-0.1-0.4c-0.1-0.1-0.3-0.2-0.4-0.2
					L39.3,361.1z M39.5,361.9v-0.5h0.1c0.1,0,0.3,0.1,0.3,0.3c0,0,0,0,0,0C39.8,361.7,39.7,361.9,39.5,361.9
					C39.6,361.9,39.5,361.9,39.5,361.9L39.5,361.9z M40.9,361l-0.2,1l0.2,0v-0.2l0.3-0.1l0.1,0.2l0.3-0.1l-0.6-0.9L40.9,361z
					 M41.1,361.6v-0.2l0.1,0.2L41.1,361.6z M42.1,361.5l-0.2,0.1l0.1,0.2l0.2-0.1L42.1,361.5z M42.1,360.7l0.5,0.9l0.2-0.1
					c0.3-0.2,0.4-0.4,0.3-0.7s-0.4-0.3-0.7-0.2L42.1,360.7z M42.4,360.8L42.4,360.8c0.1,0,0.1,0,0.2,0c0.1,0,0.2,0.1,0.2,0.1
					c0.1,0.1,0,0.3-0.1,0.4c0,0,0,0,0,0h-0.1L42.4,360.8z M43.4,360.8l-0.2,0.1l0.1,0.2l0.2-0.1L43.4,360.8z M43.6,360h0.2v-0.2
					l0.5,0.5l0.2-0.2l-0.7-0.7l-0.2,0.1L43.6,360z M44.4,359.5c0,0.1,0,0.2,0.1,0.2c0,0,0.1,0.1,0.2,0.1c0.1,0,0.2-0.1,0.3-0.2
					c0.1-0.1,0.1-0.2,0.1-0.3c0-0.1-0.1-0.1-0.1-0.2c-0.1-0.1-0.2-0.1-0.3,0c0-0.1,0-0.2-0.1-0.2c-0.1-0.1-0.3,0-0.4,0.1
					c-0.1,0.1-0.1,0.3,0,0.4c0,0,0,0,0,0C44.2,359.5,44.3,359.5,44.4,359.5L44.4,359.5z M44.6,359.4c0.1,0,0.1,0,0.2,0s0,0,0,0.1
					c0,0,0,0,0,0.1c0,0-0.1,0-0.1,0C44.6,359.5,44.6,359.4,44.6,359.4L44.6,359.4z M44.4,359.2C44.4,359.2,44.4,359.2,44.4,359.2
					L44.4,359.2c-0.1,0-0.1-0.1-0.1-0.1c0,0,0,0,0.1,0h0C44.5,359.1,44.5,359.2,44.4,359.2L44.4,359.2z M45,358.8
					c0.1,0,0.2,0.1,0.3,0.1c0.1,0,0.2-0.1,0.3-0.2c0.1-0.2,0-0.3-0.1-0.4c0,0,0,0-0.1,0c-0.1-0.1-0.3,0-0.4,0.1c0,0,0,0,0,0
					c0,0,0,0.1,0,0.1c-0.1,0-0.1-0.1-0.1-0.2c0,0,0.1-0.1,0.1-0.1l0,0l-0.2-0.1l0,0c0,0-0.1,0.1-0.1,0.2c0,0.1,0,0.2,0,0.3
					C44.8,358.6,44.9,358.7,45,358.8L45,358.8z M45.1,358.5C45.1,358.5,45.1,358.5,45.1,358.5C45.1,358.4,45.1,358.4,45.1,358.5
					c0.1-0.1,0.1-0.1,0.2-0.1c0,0,0.1,0,0.1,0.1c0,0,0,0,0,0.1c0,0,0,0-0.1,0h-0.1C45.1,358.6,45.1,358.5,45.1,358.5L45.1,358.5z
					 M45.6,357.8L45.6,357.8l0.2,0.1l0,0c0-0.1,0.1-0.1,0.1-0.2c0-0.1,0-0.2,0-0.3c0-0.1-0.1-0.1-0.2-0.2c-0.2-0.1-0.3,0-0.4,0.2
					c0,0,0,0,0,0c0,0,0,0,0,0h-0.1l0.1-0.3l-0.2-0.1l-0.2,0.6l0.5,0.2l0,0c0,0,0-0.1,0-0.1c0,0,0.1-0.2,0.2-0.1
					c0.1,0,0.1,0.1,0.1,0.2c0,0,0,0,0,0C45.7,357.7,45.7,357.8,45.6,357.8L45.6,357.8z"/>
			</defs>
			<clipPath id="SVGID_6_">
				<use xlink:href="#SVGID_5_"  style="overflow:visible;"/>
			</clipPath>
			<g class="st11">
				<rect x="32.7" y="287.5" class="st9" width="19.5" height="75.1"/>
				<g>
					<defs>
						<rect id="SVGID_7_" x="32.7" y="287.5" width="19.5" height="75.1"/>
					</defs>
					<clipPath id="SVGID_8_">
						<use xlink:href="#SVGID_7_"  style="overflow:visible;"/>
					</clipPath>
					<g class="st12">
						<rect x="29.5" y="345.5" class="st9" width="20.9" height="20.9"/>
					</g>
				</g>
			</g>
		</g>
		<path class="st7" d="M46.8,327.7c0,0.5-0.4,0.8-1,0.8c-0.4,0-0.7-0.1-1-0.3l0.3-0.3c0.2,0.2,0.4,0.2,0.7,0.2
			c0.3,0,0.5-0.1,0.5-0.3c0-0.1,0-0.2-0.1-0.2c-0.1-0.1-0.2-0.1-0.2-0.1l-0.3,0c-0.2,0-0.4-0.1-0.5-0.2c-0.1-0.1-0.2-0.3-0.2-0.5
			c0-0.5,0.4-0.8,1-0.8c0.3,0,0.6,0.1,0.9,0.3l-0.3,0.3c-0.2-0.1-0.4-0.2-0.6-0.2c-0.3,0-0.4,0.1-0.4,0.3c0,0.1,0,0.1,0.1,0.2
			c0.1,0.1,0.2,0.1,0.2,0.1h0.3c0.2,0,0.4,0.1,0.5,0.2C46.8,327.3,46.8,327.5,46.8,327.7z M43.8,327.7c0-0.2-0.1-0.3-0.4-0.3h-0.6
			v0.6h0.6C43.7,328,43.8,327.9,43.8,327.7L43.8,327.7z M43.8,326.6c0-0.2-0.1-0.3-0.3-0.3H43v0.6h0.5
			C43.7,326.9,43.8,326.8,43.8,326.6L43.8,326.6z M44.4,327.7c0,0.4-0.3,0.7-0.7,0.7c0,0-0.1,0-0.1,0h-1.2v-2.6h1.1
			c0.5,0,0.9,0.3,0.9,0.7c0,0.2-0.1,0.4-0.3,0.5C44.2,327.2,44.4,327.5,44.4,327.7L44.4,327.7z M41.3,327.2c0-0.5,0-0.6-0.1-0.7
			c-0.1-0.1-0.2-0.1-0.3-0.1c-0.1,0-0.3,0-0.4,0.1c-0.1,0.1-0.1,0.2-0.1,0.7s0,0.6,0.1,0.7c0.1,0.1,0.2,0.1,0.4,0.1
			c0.1,0,0.2-0.1,0.3-0.1C41.3,327.8,41.3,327.7,41.3,327.2L41.3,327.2z M41.9,327.2c0,0.5,0,0.8-0.3,1c-0.2,0.2-0.5,0.3-0.7,0.3
			c-0.3,0-0.6-0.1-0.8-0.3c-0.3-0.3-0.3-0.6-0.3-1s0-0.8,0.3-1c0.2-0.2,0.5-0.3,0.8-0.3c0.3,0,0.5,0.1,0.7,0.3
			C41.8,326.4,41.8,326.7,41.9,327.2L41.9,327.2z M39.4,327.7c-0.1,0.5-0.5,0.8-1,0.8c-0.3,0-0.5-0.1-0.8-0.3
			c-0.3-0.3-0.3-0.6-0.3-1s0-0.8,0.3-1c0.2-0.2,0.5-0.3,0.8-0.3c0.5,0,0.9,0.3,1,0.8h-0.5c0-0.2-0.2-0.4-0.5-0.4
			c-0.1,0-0.2,0-0.3,0.1c-0.1,0.1-0.1,0.2-0.1,0.7s0,0.6,0.1,0.7c0.1,0.1,0.2,0.1,0.3,0.1c0.2,0,0.4-0.1,0.5-0.4L39.4,327.7z
			 M36.3,327.6l-0.3-0.9l-0.3,0.9H36.3z M37.2,328.5h-0.6l-0.2-0.5h-1l-0.2,0.5h-0.6l1-2.6h0.4L37.2,328.5z M34.5,327.6
			c0,0.5-0.4,0.9-0.9,0.9c0,0-0.1,0-0.1,0c-0.3,0-0.5-0.1-0.7-0.3l0.4-0.3c0.1,0.1,0.2,0.2,0.3,0.1c0.2,0,0.4-0.1,0.4-0.4
			c0,0,0-0.1,0-0.1v-1.7h0.5L34.5,327.6z M51.7,332h-1.8v-2.6h1.8v0.5h-1.3v0.6h1.1v0.5h-1.1v0.6h1.3V332z M49.4,329.9v-0.5h-2v0.5
			h0.7v2.1h0.5v-2.1H49.4z M47,331.1v-1.7h-0.5v1.7c0,0.3-0.2,0.5-0.5,0.5s-0.5-0.2-0.5-0.5v-1.7H45v1.7c0,0.6,0.4,1,1,1
			S47,331.6,47,331.1z M44.5,329.8v-0.5h-2v0.5h0.7v2.2h0.5v-2.1L44.5,329.8z M41.5,332h0.5v-2.6h-0.5V332z M41.1,329.8v-0.5h-2v0.5
			h0.7v2.2h0.5v-2.1L41.1,329.8z M38.8,331.2c0-0.2-0.1-0.4-0.2-0.5c-0.2-0.1-0.3-0.2-0.5-0.2h-0.3c-0.1,0-0.2,0-0.2-0.1
			c-0.1,0-0.1-0.1-0.1-0.2c0-0.2,0.1-0.3,0.4-0.3c0.2,0,0.4,0.1,0.6,0.2l0.3-0.3c-0.2-0.2-0.6-0.3-0.9-0.3c-0.6,0-1,0.3-1,0.8
			c0,0.2,0.1,0.4,0.2,0.5c0.2,0.1,0.3,0.2,0.5,0.2l0.3,0c0.1,0,0.2,0,0.2,0.1c0.1,0.1,0.1,0.1,0.1,0.2c0,0.2-0.2,0.3-0.5,0.3
			c-0.2,0-0.5-0.1-0.7-0.2l-0.3,0.3c0.3,0.2,0.6,0.4,1,0.4C38.3,332,38.8,331.7,38.8,331.2L38.8,331.2z M36.3,332v-2.6h-0.5v1.6
			l-1.1-1.6h-0.5v2.6h0.5v-1.6l1.1,1.6L36.3,332z M33,332h0.5v-2.6H33V332z"/>
		<g>
			<defs>
				<path id="SVGID_9_" d="M46.8,327.7c0,0.5-0.4,0.8-1,0.8c-0.4,0-0.7-0.1-1-0.3l0.3-0.3c0.2,0.2,0.4,0.2,0.7,0.2
					c0.3,0,0.5-0.1,0.5-0.3c0-0.1,0-0.2-0.1-0.2c-0.1-0.1-0.2-0.1-0.2-0.1l-0.3,0c-0.2,0-0.4-0.1-0.5-0.2c-0.1-0.1-0.2-0.3-0.2-0.5
					c0-0.5,0.4-0.8,1-0.8c0.3,0,0.6,0.1,0.9,0.3l-0.3,0.3c-0.2-0.1-0.4-0.2-0.6-0.2c-0.3,0-0.4,0.1-0.4,0.3c0,0.1,0,0.1,0.1,0.2
					c0.1,0.1,0.2,0.1,0.2,0.1h0.3c0.2,0,0.4,0.1,0.5,0.2C46.8,327.3,46.8,327.5,46.8,327.7z M43.8,327.7c0-0.2-0.1-0.3-0.4-0.3h-0.6
					v0.6h0.6C43.7,328,43.8,327.9,43.8,327.7L43.8,327.7z M43.8,326.6c0-0.2-0.1-0.3-0.3-0.3H43v0.6h0.5
					C43.7,326.9,43.8,326.8,43.8,326.6L43.8,326.6z M44.4,327.7c0,0.4-0.3,0.7-0.7,0.7c0,0-0.1,0-0.1,0h-1.2v-2.6h1.1
					c0.5,0,0.9,0.3,0.9,0.7c0,0.2-0.1,0.4-0.3,0.5C44.2,327.2,44.4,327.5,44.4,327.7L44.4,327.7z M41.3,327.2c0-0.5,0-0.6-0.1-0.7
					c-0.1-0.1-0.2-0.1-0.3-0.1c-0.1,0-0.3,0-0.4,0.1c-0.1,0.1-0.1,0.2-0.1,0.7s0,0.6,0.1,0.7c0.1,0.1,0.2,0.1,0.4,0.1
					c0.1,0,0.2-0.1,0.3-0.1C41.3,327.8,41.3,327.7,41.3,327.2L41.3,327.2z M41.9,327.2c0,0.5,0,0.8-0.3,1c-0.2,0.2-0.5,0.3-0.7,0.3
					c-0.3,0-0.6-0.1-0.8-0.3c-0.3-0.3-0.3-0.6-0.3-1s0-0.8,0.3-1c0.2-0.2,0.5-0.3,0.8-0.3c0.3,0,0.5,0.1,0.7,0.3
					C41.8,326.4,41.8,326.7,41.9,327.2L41.9,327.2z M39.4,327.7c-0.1,0.5-0.5,0.8-1,0.8c-0.3,0-0.5-0.1-0.8-0.3
					c-0.3-0.3-0.3-0.6-0.3-1s0-0.8,0.3-1c0.2-0.2,0.5-0.3,0.8-0.3c0.5,0,0.9,0.3,1,0.8h-0.5c0-0.2-0.2-0.4-0.5-0.4
					c-0.1,0-0.2,0-0.3,0.1c-0.1,0.1-0.1,0.2-0.1,0.7s0,0.6,0.1,0.7c0.1,0.1,0.2,0.1,0.3,0.1c0.2,0,0.4-0.1,0.5-0.4L39.4,327.7z
					 M36.3,327.6l-0.3-0.9l-0.3,0.9H36.3z M37.2,328.5h-0.6l-0.2-0.5h-1l-0.2,0.5h-0.6l1-2.6h0.4L37.2,328.5z M34.5,327.6
					c0,0.5-0.4,0.9-0.9,0.9c0,0-0.1,0-0.1,0c-0.3,0-0.5-0.1-0.7-0.3l0.4-0.3c0.1,0.1,0.2,0.2,0.3,0.1c0.2,0,0.4-0.1,0.4-0.4
					c0,0,0-0.1,0-0.1v-1.7h0.5L34.5,327.6z M51.7,332h-1.8v-2.6h1.8v0.5h-1.3v0.6h1.1v0.5h-1.1v0.6h1.3V332z M49.4,329.9v-0.5h-2
					v0.5h0.7v2.1h0.5v-2.1H49.4z M47,331.1v-1.7h-0.5v1.7c0,0.3-0.2,0.5-0.5,0.5s-0.5-0.2-0.5-0.5v-1.7H45v1.7c0,0.6,0.4,1,1,1
					S47,331.6,47,331.1z M44.5,329.8v-0.5h-2v0.5h0.7v2.2h0.5v-2.1L44.5,329.8z M41.5,332h0.5v-2.6h-0.5V332z M41.1,329.8v-0.5h-2
					v0.5h0.7v2.2h0.5v-2.1L41.1,329.8z M38.8,331.2c0-0.2-0.1-0.4-0.2-0.5c-0.2-0.1-0.3-0.2-0.5-0.2h-0.3c-0.1,0-0.2,0-0.2-0.1
					c-0.1,0-0.1-0.1-0.1-0.2c0-0.2,0.1-0.3,0.4-0.3c0.2,0,0.4,0.1,0.6,0.2l0.3-0.3c-0.2-0.2-0.6-0.3-0.9-0.3c-0.6,0-1,0.3-1,0.8
					c0,0.2,0.1,0.4,0.2,0.5c0.2,0.1,0.3,0.2,0.5,0.2l0.3,0c0.1,0,0.2,0,0.2,0.1c0.1,0.1,0.1,0.1,0.1,0.2c0,0.2-0.2,0.3-0.5,0.3
					c-0.2,0-0.5-0.1-0.7-0.2l-0.3,0.3c0.3,0.2,0.6,0.4,1,0.4C38.3,332,38.8,331.7,38.8,331.2L38.8,331.2z M36.3,332v-2.6h-0.5v1.6
					l-1.1-1.6h-0.5v2.6h0.5v-1.6l1.1,1.6L36.3,332z M33,332h0.5v-2.6H33V332z"/>
			</defs>
			<clipPath id="SVGID_10_">
				<use xlink:href="#SVGID_9_"  style="overflow:visible;"/>
			</clipPath>
			<g class="st13">
				<rect x="32.7" y="287.5" class="st9" width="19.5" height="75.1"/>
				<g>
					<defs>
						<rect id="SVGID_11_" x="32.7" y="287.5" width="19.5" height="75.1"/>
					</defs>
					<clipPath id="SVGID_12_">
						<use xlink:href="#SVGID_11_"  style="overflow:visible;"/>
					</clipPath>
					<g class="st14">
						<rect x="29" y="322.1" class="st9" width="26.5" height="13.6"/>
					</g>
				</g>
			</g>
		</g>
		<rect x="33.3" y="321.4" class="st9" width="13.4" height="0.3"/>
		<g>
			<defs>
				<rect id="SVGID_13_" x="33.3" y="321.4" width="13.4" height="0.3"/>
			</defs>
			<clipPath id="SVGID_14_">
				<use xlink:href="#SVGID_13_"  style="overflow:visible;"/>
			</clipPath>
			<g class="st15">
				<rect x="32.7" y="287.5" class="st9" width="19.5" height="75.1"/>
				<g>
					<defs>
						<rect id="SVGID_15_" x="32.7" y="287.5" width="19.5" height="75.1"/>
					</defs>
					<clipPath id="SVGID_16_">
						<use xlink:href="#SVGID_15_"  style="overflow:visible;"/>
					</clipPath>
					<g class="st16">
						<rect x="29.5" y="317.7" class="st9" width="20.9" height="7.8"/>
					</g>
				</g>
			</g>
		</g>
		<path class="st7" d="M47.2,324.7v-0.1h-0.8V324h0.7v-0.1h-0.7v-0.6h0.8v-0.1h-1v1.6L47.2,324.7z M45.8,324.7v-1.6h-0.1v0.8h-0.8
			v-0.8h-0.1v1.6h0.1V324h0.8v0.8L45.8,324.7z M44.3,323.2v-0.1h-1v0.1h0.5v1.5h0.1v-1.5H44.3z M42.5,323.2v-0.1h-1v1.6h0.1V324h0.7
			v-0.1h-0.7v-0.7L42.5,323.2z M41,323.9c0,0.4,0,0.5-0.1,0.6c-0.2,0.2-0.4,0.2-0.6,0c-0.1-0.1-0.1-0.2-0.1-0.6s0-0.5,0.1-0.6
			c0.2-0.2,0.4-0.2,0.6,0c0,0,0,0,0,0C41,323.4,41,323.6,41,323.9L41,323.9z M41.1,323.9c0-0.4,0-0.5-0.2-0.7
			c-0.2-0.2-0.5-0.2-0.7,0c0,0,0,0,0,0c-0.2,0.1-0.2,0.3-0.2,0.7s0,0.5,0.2,0.7c0.2,0.2,0.5,0.2,0.7,0c0,0,0,0,0,0
			C41.1,324.4,41.1,324.3,41.1,323.9L41.1,323.9z M39.1,324.7v-0.1h-0.8V324H39v-0.1h-0.7v-0.6h0.8v-0.1h-1v1.6L39.1,324.7z
			 M37.6,324.7v-1.6h-0.1l-0.5,1.3l-0.5-1.3h-0.1v1.6h0.1v-1.4l0.5,1.1h0.1l0.5-1.1L37.6,324.7L37.6,324.7z M35.7,323.9
			c0,0.4,0,0.5-0.1,0.6c-0.2,0.2-0.4,0.2-0.6,0c-0.1-0.1-0.1-0.2-0.1-0.6s0-0.5,0.1-0.6c0.2-0.2,0.4-0.2,0.6,0c0,0,0,0,0,0
			C35.8,323.4,35.8,323.6,35.7,323.9L35.7,323.9z M35.8,323.9c0-0.4,0-0.5-0.2-0.7c-0.2-0.2-0.5-0.2-0.7,0c0,0,0,0,0,0
			c-0.2,0.1-0.2,0.3-0.2,0.7s0,0.5,0.2,0.7c0.2,0.2,0.5,0.2,0.7,0c0,0,0,0,0,0C35.9,324.4,35.9,324.3,35.8,323.9L35.8,323.9z
			 M34.3,324.7v-1.6h-0.1v0.8h-0.8v-0.8h-0.1v1.6h0.1V324h0.8L34.3,324.7L34.3,324.7z"/>
		<g>
			<defs>
				<path id="SVGID_17_" d="M47.2,324.7v-0.1h-0.8V324h0.7v-0.1h-0.7v-0.6h0.8v-0.1h-1v1.6L47.2,324.7z M45.8,324.7v-1.6h-0.1v0.8
					h-0.8v-0.8h-0.1v1.6h0.1V324h0.8v0.8L45.8,324.7z M44.3,323.2v-0.1h-1v0.1h0.5v1.5h0.1v-1.5H44.3z M42.5,323.2v-0.1h-1v1.6h0.1
					V324h0.7v-0.1h-0.7v-0.7L42.5,323.2z M41,323.9c0,0.4,0,0.5-0.1,0.6c-0.2,0.2-0.4,0.2-0.6,0c-0.1-0.1-0.1-0.2-0.1-0.6
					s0-0.5,0.1-0.6c0.2-0.2,0.4-0.2,0.6,0c0,0,0,0,0,0C41,323.4,41,323.6,41,323.9L41,323.9z M41.1,323.9c0-0.4,0-0.5-0.2-0.7
					c-0.2-0.2-0.5-0.2-0.7,0c0,0,0,0,0,0c-0.2,0.1-0.2,0.3-0.2,0.7s0,0.5,0.2,0.7c0.2,0.2,0.5,0.2,0.7,0c0,0,0,0,0,0
					C41.1,324.4,41.1,324.3,41.1,323.9L41.1,323.9z M39.1,324.7v-0.1h-0.8V324H39v-0.1h-0.7v-0.6h0.8v-0.1h-1v1.6L39.1,324.7z
					 M37.6,324.7v-1.6h-0.1l-0.5,1.3l-0.5-1.3h-0.1v1.6h0.1v-1.4l0.5,1.1h0.1l0.5-1.1L37.6,324.7L37.6,324.7z M35.7,323.9
					c0,0.4,0,0.5-0.1,0.6c-0.2,0.2-0.4,0.2-0.6,0c-0.1-0.1-0.1-0.2-0.1-0.6s0-0.5,0.1-0.6c0.2-0.2,0.4-0.2,0.6,0c0,0,0,0,0,0
					C35.8,323.4,35.8,323.6,35.7,323.9L35.7,323.9z M35.8,323.9c0-0.4,0-0.5-0.2-0.7c-0.2-0.2-0.5-0.2-0.7,0c0,0,0,0,0,0
					c-0.2,0.1-0.2,0.3-0.2,0.7s0,0.5,0.2,0.7c0.2,0.2,0.5,0.2,0.7,0c0,0,0,0,0,0C35.9,324.4,35.9,324.3,35.8,323.9L35.8,323.9z
					 M34.3,324.7v-1.6h-0.1v0.8h-0.8v-0.8h-0.1v1.6h0.1V324h0.8L34.3,324.7L34.3,324.7z"/>
			</defs>
			<clipPath id="SVGID_18_">
				<use xlink:href="#SVGID_17_"  style="overflow:visible;"/>
			</clipPath>
			<g class="st17">
				<rect x="32.7" y="287.5" class="st9" width="19.5" height="75.1"/>
				<g>
					<defs>
						<rect id="SVGID_19_" x="32.7" y="287.5" width="19.5" height="75.1"/>
					</defs>
					<clipPath id="SVGID_20_">
						<use xlink:href="#SVGID_19_"  style="overflow:visible;"/>
					</clipPath>
					<g class="st18">
						<rect x="29.5" y="319.3" class="st9" width="21.5" height="9.2"/>
					</g>
				</g>
			</g>
		</g>
		<path class="st7" d="M39,317.7c0,0.6-0.2,1.1-0.6,1.5c-0.6,0.6-1.3,0.6-2.2,0.6s-1.7,0-2.2-0.6c-0.4-0.4-0.6-0.9-0.6-1.5
			c0-1,0.7-1.9,1.8-2.1v1.1c-0.5,0.1-0.8,0.5-0.8,0.9c0,0.3,0.1,0.5,0.3,0.7c0.2,0.2,0.5,0.3,1.6,0.3s1.3-0.1,1.6-0.3
			c0.2-0.2,0.3-0.4,0.3-0.7c0-0.5-0.3-0.9-0.8-0.9v-1.1C38.3,315.8,39,316.6,39,317.7z M34.5,312.3c-0.2,0.2-0.3,0.4-0.3,0.7
			c0,0.3,0.1,0.5,0.3,0.7c0.2,0.2,0.5,0.3,1.6,0.3s1.3-0.1,1.6-0.3c0.2-0.2,0.3-0.5,0.3-0.7c0-0.3-0.1-0.5-0.3-0.7
			c-0.2-0.2-0.5-0.3-1.6-0.3S34.8,312.1,34.5,312.3z M38.4,311.5c0.8,0.8,0.8,2.2,0,3c-0.6,0.6-1.3,0.5-2.2,0.5s-1.7,0-2.2-0.5
			c-0.8-0.8-0.8-2.2,0-3c0.6-0.5,1.4-0.7,2.2-0.6C36.9,310.8,37.7,311,38.4,311.5z M34.3,308.1v1h1.5v-1c0-0.4-0.3-0.7-0.7-0.7
			S34.3,307.7,34.3,308.1C34.3,308.1,34.3,308.1,34.3,308.1z M38.9,307.2l-2.2,1.1v0.8h2.2v1.1h-5.6V308c-0.1-0.9,0.6-1.7,1.5-1.8
			c0,0,0.1,0,0.1,0c0.7,0,1.2,0.4,1.5,1l2.4-1.2L38.9,307.2z M33.3,301h5.6v1l-3.4,2.2h3.4v1.1h-5.6v-1l3.4-2.3h-3.4V301z M38,296.3
			h1v3.7h-5.6v-3.7h1v2.6h1.3v-2.2h1v2.2H38V296.3z M38,291.8h1v3.6h-5.6v-1.1H38V291.8z M38,287.5h1v3.6h-5.6V290H38V287.5z
			 M41,315.7h1v1.5h4.6v1.1H42v1.5h-1V315.7z M45.6,311.2h1v3.8H41v-3.7h1v2.6h1.3v-2.2h1v2.2h1.4L45.6,311.2z M46.6,308.6
			c0,0.6-0.2,1.1-0.6,1.5c-0.6,0.6-1.3,0.5-2.2,0.5s-1.7,0-2.2-0.5c-0.4-0.4-0.6-1-0.6-1.5c0-1,0.7-1.9,1.8-2.1v1.1
			c-0.5,0.1-0.8,0.5-0.8,1c0,0.3,0.1,0.5,0.3,0.7c0.2,0.2,0.5,0.3,1.6,0.3s1.3-0.1,1.6-0.3c0.2-0.2,0.3-0.4,0.3-0.7
			c0-0.5-0.3-0.9-0.8-1v-1.1C45.9,306.6,46.7,307.5,46.6,308.6L46.6,308.6z M41,301.6h5.6v1.1h-2.3v1.9h2.3v1.1H41v-1.1h2.3v-1.9H41
			V301.6z"/>
		<g>
			<defs>
				<path id="SVGID_21_" d="M39,317.7c0,0.6-0.2,1.1-0.6,1.5c-0.6,0.6-1.3,0.6-2.2,0.6s-1.7,0-2.2-0.6c-0.4-0.4-0.6-0.9-0.6-1.5
					c0-1,0.7-1.9,1.8-2.1v1.1c-0.5,0.1-0.8,0.5-0.8,0.9c0,0.3,0.1,0.5,0.3,0.7c0.2,0.2,0.5,0.3,1.6,0.3s1.3-0.1,1.6-0.3
					c0.2-0.2,0.3-0.4,0.3-0.7c0-0.5-0.3-0.9-0.8-0.9v-1.1C38.3,315.8,39,316.6,39,317.7z M34.5,312.3c-0.2,0.2-0.3,0.4-0.3,0.7
					c0,0.3,0.1,0.5,0.3,0.7c0.2,0.2,0.5,0.3,1.6,0.3s1.3-0.1,1.6-0.3c0.2-0.2,0.3-0.5,0.3-0.7c0-0.3-0.1-0.5-0.3-0.7
					c-0.2-0.2-0.5-0.3-1.6-0.3S34.8,312.1,34.5,312.3z M38.4,311.5c0.8,0.8,0.8,2.2,0,3c-0.6,0.6-1.3,0.5-2.2,0.5s-1.7,0-2.2-0.5
					c-0.8-0.8-0.8-2.2,0-3c0.6-0.5,1.4-0.7,2.2-0.6C36.9,310.8,37.7,311,38.4,311.5z M34.3,308.1v1h1.5v-1c0-0.4-0.3-0.7-0.7-0.7
					S34.3,307.7,34.3,308.1C34.3,308.1,34.3,308.1,34.3,308.1z M38.9,307.2l-2.2,1.1v0.8h2.2v1.1h-5.6V308c-0.1-0.9,0.6-1.7,1.5-1.8
					c0,0,0.1,0,0.1,0c0.7,0,1.2,0.4,1.5,1l2.4-1.2L38.9,307.2z M33.3,301h5.6v1l-3.4,2.2h3.4v1.1h-5.6v-1l3.4-2.3h-3.4V301z
					 M38,296.3h1v3.7h-5.6v-3.7h1v2.6h1.3v-2.2h1v2.2H38V296.3z M38,291.8h1v3.6h-5.6v-1.1H38V291.8z M38,287.5h1v3.6h-5.6V290H38
					V287.5z M41,315.7h1v1.5h4.6v1.1H42v1.5h-1V315.7z M45.6,311.2h1v3.8H41v-3.7h1v2.6h1.3v-2.2h1v2.2h1.4L45.6,311.2z M46.6,308.6
					c0,0.6-0.2,1.1-0.6,1.5c-0.6,0.6-1.3,0.5-2.2,0.5s-1.7,0-2.2-0.5c-0.4-0.4-0.6-1-0.6-1.5c0-1,0.7-1.9,1.8-2.1v1.1
					c-0.5,0.1-0.8,0.5-0.8,1c0,0.3,0.1,0.5,0.3,0.7c0.2,0.2,0.5,0.3,1.6,0.3s1.3-0.1,1.6-0.3c0.2-0.2,0.3-0.4,0.3-0.7
					c0-0.5-0.3-0.9-0.8-1v-1.1C45.9,306.6,46.7,307.5,46.6,308.6L46.6,308.6z M41,301.6h5.6v1.1h-2.3v1.9h2.3v1.1H41v-1.1h2.3v-1.9
					H41V301.6z"/>
			</defs>
			<clipPath id="SVGID_22_">
				<use xlink:href="#SVGID_21_"  style="overflow:visible;"/>
			</clipPath>
			<g class="st19">
				<rect x="32.7" y="287.5" class="st9" width="19.5" height="75.1"/>
				<g>
					<defs>
						<rect id="SVGID_23_" x="32.7" y="287.5" width="19.5" height="75.1"/>
					</defs>
					<clipPath id="SVGID_24_">
						<use xlink:href="#SVGID_23_"  style="overflow:visible;"/>
					</clipPath>
					<g class="st20">
						<rect x="29.5" y="283.7" class="st9" width="20.9" height="39.8"/>
					</g>
				</g>
			</g>
		</g>
	</g>
</g>
</svg>
