<svg xmlns="http://www.w3.org/2000/svg" xmlns:xlink="http://www.w3.org/1999/xlink" viewBox="0 0 540 396.62"><defs><style>.cls-1,.cls-10,.cls-2,.cls-4,.cls-7,.cls-8{fill:#fff;}.cls-1{clip-rule:evenodd;}.cls-3{fill:#ee5525;}.cls-4,.cls-5,.cls-6,.cls-7{stroke:#ee5525;stroke-miterlimit:10;}.cls-4,.cls-5,.cls-6,.cls-8,.cls-9{stroke-linecap:round;}.cls-4,.cls-6{stroke-width:2px;}.cls-5,.cls-6,.cls-9{fill:#162b54;}.cls-5{stroke-width:3px;}.cls-7,.cls-8,.cls-9{stroke-width:0.5px;}.cls-8{stroke:#fff;}.cls-8,.cls-9{stroke-linejoin:round;}.cls-9{stroke:#162b54;}.cls-10{fill-rule:evenodd;}.cls-11{clip-path:url(#clip-path);}.cls-12{clip-path:url(#clip-path-2);}.cls-13{clip-path:url(#clip-path-3);}.cls-14{clip-path:url(#clip-path-5);}.cls-15{clip-path:url(#clip-path-7);}.cls-16{clip-path:url(#clip-path-9);}.cls-17{clip-path:url(#clip-path-11);}</style><clipPath id="clip-path"><path class="cls-1" d="M38.21,338.67a.88.88,0,0,0-.07.27h.54a.44.44,0,0,1,.4-.28h0a1.66,1.66,0,0,1,.63.15h0l.2.08a1.38,1.38,0,0,0,.42.09h0a.78.78,0,0,0,.32-.05s0,0,.06-.05v0a.93.93,0,0,1,.05-.1.44.44,0,0,1,.18-.14h0l0,0v0s0,0,0-.07.08-.07.09-.09a4.14,4.14,0,0,1-.9.14,3.81,3.81,0,0,1-.75-.13,3.05,3.05,0,0,0-.61-.11A.76.76,0,0,0,38.21,338.67Zm4.18,3.92v-.09l-.46-.07v-.08a.68.68,0,0,0,0-.19l0-.14,0-.08.4-.24,0-.08-.44.11,0-.07-.09-.15-.24.49h0a.91.91,0,0,1,.06.16,1.46,1.46,0,0,1,.05.38,1.4,1.4,0,0,1-.35.94,1.45,1.45,0,0,1-.86.47h-.4a1.39,1.39,0,0,1-.87-.47,1.41,1.41,0,0,1-.36-.94,1.26,1.26,0,0,1,.06-.38.58.58,0,0,1,0-.14.08.08,0,0,1,0,0l-.23-.48,0,0a.64.64,0,0,0-.08.14l0,.07-.45-.11,0,.08.39.24,0,.08a1,1,0,0,0,0,.14l0,.19v.08l-.45.07v.09l.45.07v.08a1.94,1.94,0,0,0,.07.33l0,.08-.39.24,0,.08.45-.11,0,.07a1.26,1.26,0,0,0,.19.28l0,.06-.27.38.06.06.37-.27.06.05a2.2,2.2,0,0,0,.28.18l.08,0-.11.45.08,0,.24-.39.08,0a1.21,1.21,0,0,0,.33.07H40l.07.45h.08l.08-.45h.08a1.3,1.3,0,0,0,.33-.07l.08,0,.24.39.08,0-.11-.45.07,0a1.67,1.67,0,0,0,.28-.18l.07-.05.37.27.06-.06-.27-.38.05-.06a2.75,2.75,0,0,0,.19-.28l0-.07.44.11,0-.08-.4-.24,0-.08a1.91,1.91,0,0,0,.06-.33v-.08Zm-.28-.43s0,.06,0,.09l.47.07v.45l-.47.07a1.6,1.6,0,0,1-.05.21l.41.25-.17.42-.47-.11a1.63,1.63,0,0,1-.11.17l.28.39-.32.32-.39-.29a.88.88,0,0,1-.17.12l.1.47-.41.17-.25-.41-.21,0-.07.48h-.45l-.08-.48-.21,0-.25.41-.41-.17.11-.47-.18-.12-.39.28-.31-.31.28-.39-.12-.18-.47.11-.17-.41.41-.25a1.55,1.55,0,0,1,0-.21l-.48-.07v-.45l.47-.07s0-.06,0-.09l0-.12-.41-.26.17-.41.47.11.15-.21-.18-.37.19-.13L39,342a.43.43,0,0,0-.13.23.94.94,0,0,0,0,.31,1.22,1.22,0,0,0,1,1.2h.33a1.23,1.23,0,0,0,.74-.4,1.22,1.22,0,0,0,.3-.8,1.49,1.49,0,0,0,0-.21l0-.06h0a.57.57,0,0,0-.06-.12l-.08-.08,0-.07.59-1.23.19.13-.19.39,0,0a1.4,1.4,0,0,1,.1.16l.47-.1.17.41-.41.25Zm-1.6,0,1.18-2.6h-2.1l.18.36h1.32l0,0-1,2.11-1.22-2.5h-.45l1.26,2.59.42.87Zm-.86-2-.37-.76h2.58l.12.05-1.24,2.73v0l-.61,1.34,0-.05-.62-1.29-1.36-2.79H39l1.07,2.23.68-1.49Zm-.7-1H38l-.09-.15a1.18,1.18,0,0,1,.11-.44.94.94,0,0,1,.86-.47,2.86,2.86,0,0,1,.64.11h0a3.83,3.83,0,0,0,.72.12,3,3,0,0,0,1-.2h.06s.12-.07.14,0,0,.14,0,.14h0a.37.37,0,0,1-.07.14.29.29,0,0,1-.11.11s0,0-.06.08l0,.07,0,0,0,.06a.38.38,0,0,1-.11.07.26.26,0,0,0-.11.08.08.08,0,0,0,0,.05h0v0a.36.36,0,0,1-.15.15,1,1,0,0,1-.41.07h0a1.75,1.75,0,0,1-.48-.09l-.19-.08,0,0a1.4,1.4,0,0,0-.56-.14.21.21,0,0,0-.2.12A.77.77,0,0,0,39,339.15Zm5.62,1.61a.38.38,0,0,1-.08.23c-.07.11-.24.29-.33.41h.36a0,0,0,0,1,0,0v.15a0,0,0,0,1,0,0h-.83a0,0,0,0,1,0,0v0c.12-.14.43-.49.55-.65a.25.25,0,0,0,.06-.14c0-.06-.07-.12-.19-.12a.31.31,0,0,0-.2.09h-.06l-.13-.11a0,0,0,0,1,0-.05.65.65,0,0,1,.42-.17C44.4,340.41,44.57,340.57,44.57,340.76Zm-1.23-.34a0,0,0,0,1,0,0v1.13a0,0,0,0,1,0,0h-.23a0,0,0,0,1,0,0v-.79h-.2s0,0,0,0v-.11s0,0,0,0l.3-.21ZM36.8,341a.17.17,0,1,0-.2-.17A.19.19,0,0,0,36.8,341Zm0-.58a.46.46,0,0,1,.5.48.87.87,0,0,1-.7.78.09.09,0,0,1-.07,0l-.06-.14s0,0,0-.05.38-.11.42-.29a.65.65,0,0,1-.19,0,.4.4,0,0,1-.42-.39A.45.45,0,0,1,36.8,340.4Zm-.85,0a0,0,0,0,1,0,0v1.13a0,0,0,0,1,0,0h-.23a0,0,0,0,1,0,0v-.79h-.2a0,0,0,0,1,0,0v-.11l0,0,.3-.21Zm7.74-2s0-.05,0-.06l1.36-.71a0,0,0,0,1,0,0l0,0-.35,1.2h0l.71-.38a0,0,0,0,1,.06,0l.12.24s0,.05,0,.06l-1.36.7s0,0-.05,0l0,0s0,0,0,0l.38-1.21h0l-.75.39a0,0,0,0,1-.06,0Zm-.57-1.66a.44.44,0,0,0,0,.63.45.45,0,1,0,0-.63Zm-.2.9a.8.8,0,0,1-.07-1.14.81.81,0,1,1,.07,1.14Zm-1.14-.76a0,0,0,0,1,0-.06l.65-1.34a0,0,0,0,1,.06,0l.25.11a0,0,0,0,1,0,.06L42.08,337a0,0,0,0,1,0,0Zm-3.34-.17a0,0,0,0,1,0,0l-.3-1.47s0,0,0-.05l.27-.05s0,0,0,0l.11.56.64-.13-.12-.56a.05.05,0,0,1,0,0l.26-.05s.05,0,.05,0l.3,1.47a0,0,0,0,1,0,.05l-.27,0s0,0-.05,0l-.12-.58-.63.13.12.58a.05.05,0,0,1,0,.05Zm1.67-.26a0,0,0,0,1,0,0l.26-1.49a.05.05,0,0,1,0,0h.06l.74,1h0l.14-.79s0,0,.05,0l.27.05a0,0,0,0,1,0,.05l-.26,1.5a.05.05,0,0,1-.05,0H41.3l-.72-1h0l-.15.83s0,0,0,0Zm-2.38.67a.83.83,0,0,1-1.13-.26.82.82,0,0,1,.27-1.13.78.78,0,0,1,.57-.11s.05,0,0,.06l0,.24s0,0,0,0a.45.45,0,0,0-.32.07.46.46,0,0,0,.49.78.45.45,0,0,0,.2-.25,0,0,0,0,1,0,0l.25.07s0,0,0,0A.78.78,0,0,1,37.73,337.13Zm-1.52,1.27-1.14-1s0,0,0-.06l.61-.71s0,0,.06,0l.19.16a0,0,0,0,1,0,.06l-.41.47.22.19.33-.39a0,0,0,0,1,.06,0l.19.16a.06.06,0,0,1,0,.07l-.34.39.23.2.41-.48a0,0,0,0,1,.06,0l.19.16a0,0,0,0,1,0,.06l-.61.71S36.22,338.42,36.21,338.4Zm-.29.51a0,0,0,0,1,0,.06l-.12.24a0,0,0,0,1-.06,0l-1.09-.53-.14.29a0,0,0,0,1-.06,0l-.22-.1a0,0,0,0,1,0-.06l.44-.9a0,0,0,0,1,.06,0l.22.1a0,0,0,0,1,0,.06l-.14.29Zm7,3.26-.1-.22H45v-1.84H42.23l.1-.23H43.5a3.71,3.71,0,0,0-7.06,0h1.34l.1.23h-3V342h2.18l-.1.22-1.42.21a4.67,4.67,0,0,0,8.85,0Zm-9.36-1.28A6.15,6.15,0,0,0,33.7,342H34v-1.84h-.32A6.53,6.53,0,0,0,33.61,340.89Zm9.84,4.93-.22-.66h0l.6.77a2.78,2.78,0,0,0,.33-.27l-1-1a5,5,0,0,1-2.57,1.15l.14,1.39.41-.07-.19-1h0l.37.6.08.32a6.47,6.47,0,0,0,2.17-1Zm2.17-2a7.18,7.18,0,0,0,.47-1.19l-1.39-.21a4.87,4.87,0,0,1-.58,1.19l1.14.8c.08-.12.16-.24.23-.36l-.88-.49h0l.69.11Zm-1.25,1.65.3-.3-1.06-.91-.2.2ZM34.25,342h.39v-1.84h-.39Zm5.83,3.88v1.4l.43,0-.15-1.4Zm-.55,0-.14,1.39c.14,0,.28,0,.42,0v-1.41Zm-4.7-1.19.26.33,1.08-.92-.17-.22Zm.44.54.29.3,1-1-.19-.2Zm9.58-.2a2.91,2.91,0,0,0,.26-.33L44,343.84l-.17.22Zm.46-3h.38v-1.84h-.38Zm-10,.47-1.43.21a5.48,5.48,0,0,0,.47,1.18l.28-.14.69-.11h0l-.85.48c.07.12.14.24.22.36l1.17-.82A4.44,4.44,0,0,1,35.29,342.42Zm3.6,3.72h0l-.19,1,.42.07.14-1.4a4.93,4.93,0,0,1-2.52-1.16l-1,1,.32.27.59-.75h0l-.21.67-.17.24a6.3,6.3,0,0,0,2.14,1l.08-.3ZM46,342h.28a7.33,7.33,0,0,0,.09-1.06,6.53,6.53,0,0,0-.05-.78H46Zm-6-7.41a6.38,6.38,0,0,0-6.28,5.34h2.45a4,4,0,0,1,7.65,0h2.47A6.38,6.38,0,0,0,40,334.54Zm0-.33a6.68,6.68,0,1,1-6.69,6.68A6.69,6.69,0,0,1,40,334.21Z"/></clipPath><clipPath id="clip-path-2"><rect class="cls-2" x="32.72" y="287.47" width="19.53" height="75.11"/></clipPath><clipPath id="clip-path-3"><path class="cls-1" d="M46.67,355.91a6.7,6.7,0,1,0-6.7,6.68A6.7,6.7,0,0,0,46.67,355.91Zm-.17,0a6.53,6.53,0,1,1-6.53-6.5A6.52,6.52,0,0,1,46.5,355.91Zm-.33-.11-.35-.17.33-.21,0-.29-.57.38-.38,0,0,.25.38,0,.6.31Zm-.3-.95.2-.05-.18-.74-.2.05.06.25-.74.18.06.24.74-.18Zm-1-.81.9-.36-.1-.23-.9.37Zm.36-1,.2-.09v0a.64.64,0,0,0-.09-.21.3.3,0,0,0-.44-.14.32.32,0,0,0-.12.37c0,.09,0,.14,0,.17s-.11,0-.14-.07a.37.37,0,0,1-.05-.18v-.06l-.22.11v0a.69.69,0,0,0,.09.2.34.34,0,0,0,.29.2.32.32,0,0,0,.16,0A.32.32,0,0,0,45,353c0-.09,0-.14,0-.16h0a.1.1,0,0,1,.08.06.38.38,0,0,1,.06.16Zm-.57-.83c.21-.18,0-.37-.08-.51l-.16-.18-.73.64.16.18.28-.25,0,0a.09.09,0,0,1,0,.12l-.16.29.18.2.2-.39a.29.29,0,0,0,0-.08A.25.25,0,0,0,44.64,352.26Zm-.15-.23s0,0,0,.05a.09.09,0,0,1-.06,0s-.08-.05-.11-.08l0,0,.13-.12,0,0S44.49,352,44.49,352Zm-.59-.65.12-.16-.46-.37-.6.77.47.36.13-.16-.28-.22.12-.14.25.19.13-.16-.25-.2.09-.12Zm-1.44-.06.73-.72-.23-.11-.47.47.11-.66-.24-.11-.14,1Zm-.78-.34.29-.92-.24-.08-.29.93Zm-.57-.17.13-1-.24,0-.07.56-.21-.6-.27,0-.13,1,.23,0,.08-.56.21.6ZM40,351a4.88,4.88,0,1,0,4.9,4.88A4.9,4.9,0,0,0,40,351Zm4.73,4.88A4.73,4.73,0,1,1,40,351.2,4.72,4.72,0,0,1,44.7,355.91Zm-1.53.92v-4.22H36.83v4.14a3.52,3.52,0,0,0,1.57,2.7,6.9,6.9,0,0,0,1.55.93l0,0,.06,0a7.74,7.74,0,0,0,1.54-.93A3.45,3.45,0,0,0,43.17,356.83Zm-3.05-.64.05,0a1.23,1.23,0,0,1,.26,0l.22,0,.34,0h.31v2h-.22l-.42,0-.4,0a.26.26,0,0,0-.14,0Zm-3-.84h2.73v.6a.94.94,0,0,0-.31,0l-.23,0L39,356h-.54v.58h-.26v.31h.26v.58h-.26v.31h.26v.64h.45c.19,0,.33,0,.45,0l.37,0s.07,0,.1.06l0,0V360c-.66-.32-2.73-1.48-2.73-3.26Zm2.62,2.8h0l-.39,0-.43,0H38.7v-2H39l.34,0,.22,0a1.23,1.23,0,0,1,.26,0h0v2Zm3.12-3.1H37.13v-2.14h5.74Zm0,1.78c0,1.73-2.13,2.9-2.75,3.2v-1.57l0,0a.14.14,0,0,1,.11-.06l.38,0a4.13,4.13,0,0,0,.44,0h.45v-.59h.25v-.31h-.25v-.57h.25v-.31h-.25V356H41l-.31,0-.23,0a1.28,1.28,0,0,0-.33,0h0v-.6h2.75Zm-4.94-3.59c0,.35,0,.94,0,1s.08.23.24.33.48.3.49.3l.06,0,.06,0s.32-.18.51-.31a.44.44,0,0,0,.24-.33v-1.08h-1.6Zm1.37.4H38.15v-.29H39.3Zm-1.15.23H39.3v.33c0,.06-.07.11-.13.15s-.35.21-.45.27l-.42-.27c-.09-.06-.15-.12-.15-.16Zm2.46-.68v1a.48.48,0,0,0,.25.33c.2.14.5.31.51.32l.06,0,0,0s.33-.18.53-.32.24-.29.24-.34v-1.1H40.61Zm.23.92.57-.41.62.41s0,.06,0,.07-.07.12-.13.16l-.46.27-.44-.27s-.15-.11-.15-.17Zm0-.8H42c0,.17,0,.37,0,.53l-.63-.41-.56.4Zm-1.2,3.94V357H39v.23h.33l.19,0h.16Zm0-.62v-.22H39v.23h.33l.19,0h.16Zm-.36,1.05H39v.23h.33l.19,0h.16v-.22h-.18Zm1.15-1.27h-.08v.22h0l.1,0H41v-.22h-.33l-.17,0Zm.61.88v-.22h-.33l-.16,0h-.2v.22H41Zm-.61.36h-.08v.22H41v-.22h-.33l-.16,0Zm-.56-7a.37.37,0,0,0,.07-.28l0-.61-.24,0,0,.55c0,.2-.06.23-.13.23h0c-.06,0-.14,0-.15-.2l0-.56-.24,0,0,.61a.33.33,0,0,0,.37.34h.06A.41.41,0,0,0,39.87,350.62Zm-1.89.49.56-.2-.07-.2-.33.12-.26-.72-.23.09Zm-.26.11-.1-.19-.3.17-.38-.66-.21.12.48.85Zm-1.33.39.25-.2-.13-.16-.25.2-.1-.12.27-.22L36.3,351l-.46.37.61.75.47-.37-.14-.17-.27.22Zm-.2.7-.74-.62-.16.19.44.36-.62-.14-.18.21.75.62.16-.19-.45-.36.63.14Zm-1.3.57a.25.25,0,0,0-.14,0c-.15,0-.24.16-.31.3l-.11.21.85.45.12-.21-.33-.18v0c0-.06.05-.05.11-.05l.32,0,.13-.24-.43,0H35A.22.22,0,0,0,34.89,352.88Zm-.06.28s0,.09,0,.13v0l-.15-.08v0c0-.08.08-.13.15-.1A.1.1,0,0,1,34.83,353.16Zm-.41.76a.43.43,0,0,0-.44.34.46.46,0,0,0,.35.59l.18,0a.43.43,0,0,0,.43-.34.42.42,0,0,0,0-.35.5.5,0,0,0-.32-.24Zm0,.25a.25.25,0,0,1,.12,0,.3.3,0,0,1,.21.14.17.17,0,0,1,0,.14.2.2,0,0,1-.21.15l-.13,0c-.13,0-.26-.13-.22-.29A.21.21,0,0,1,34.4,354.17Zm-.34,1-.23,0v0a.5.5,0,0,0,0,.21.47.47,0,0,0,.48.55h0a.47.47,0,0,0,.48-.5.86.86,0,0,0,0-.21v0h-.24l0,.05a.9.9,0,0,1,0,.18.27.27,0,0,1-.31.25.26.26,0,0,1-.27-.28.3.3,0,0,1,.05-.17Zm.82,1.87-.93.27.07.24.38-.11.08.29.2-.06-.08-.29.15,0,.09.31.2-.06Zm-.5,1.22a.46.46,0,0,0,0,.36.46.46,0,0,0,.41.27.59.59,0,0,0,.25-.07.54.54,0,0,0,.28-.28.46.46,0,0,0,0-.36.43.43,0,0,0-.4-.27.57.57,0,0,0-.25.06A.49.49,0,0,0,34.38,358.28Zm.21.11a.33.33,0,0,1,.18-.17.38.38,0,0,1,.17,0,.17.17,0,0,1,.18.11.2.2,0,0,1,0,.15.33.33,0,0,1-.18.17.41.41,0,0,1-.18.05.19.19,0,0,1-.18-.12A.2.2,0,0,1,34.59,358.39Zm.6.86a.34.34,0,0,0-.15.26.41.41,0,0,0,.11.29.39.39,0,0,0,.3.18.42.42,0,0,0,.24-.1l.48-.38-.15-.19-.44.34c-.11.09-.2.1-.27,0a.22.22,0,0,1,0-.1.29.29,0,0,1,.11-.16l.44-.34-.16-.2Zm1.21.49-.61.75.18.15.37-.45-.14.63.21.18.62-.75-.19-.16-.36.45.14-.63Zm.91.69-.44.86.25.13a.75.75,0,0,0,.33.09.43.43,0,0,0,.39-.28c.14-.28,0-.51-.28-.68Zm-.12.79.25-.5.06,0a.29.29,0,0,1,.13.16.26.26,0,0,1,0,.21.27.27,0,0,1-.24.16l-.12,0Zm1.16-.33-.25.94.58.15,0-.2-.34-.09,0-.18.31.08,0-.2-.31-.08,0-.15.34.09.06-.2Zm.9.22,0,1h.34a.45.45,0,0,0,.52-.45.48.48,0,0,0-.11-.35.55.55,0,0,0-.42-.17Zm.21.77,0-.55h.06a.27.27,0,0,1,.25.29.25.25,0,0,1-.28.26Zm1.45-.83-.16,1L41,362l0-.22.32-.06.11.18.27-.06-.57-.86Zm.15.53,0-.25.13.22Zm1-.11-.24.08.09.23.23-.08Zm0-.77.46.86.25-.14c.32-.17.41-.4.26-.69s-.4-.33-.72-.16Zm.32.07.06,0a.28.28,0,0,1,.13,0,.27.27,0,0,1,.23.14.26.26,0,0,1-.1.37l-.06,0Zm1,0-.21.15.14.2.21-.14Zm.14-.71.21,0,0-.16.46.47.18-.18-.68-.69-.15.15Zm.84-.57a.3.3,0,0,0,.1.24.32.32,0,0,0,.17.06.36.36,0,0,0,.28-.17.37.37,0,0,0,.09-.27.36.36,0,0,0-.12-.18.28.28,0,0,0-.28,0,.29.29,0,0,0-.1-.22c-.13-.09-.29,0-.41.12a.29.29,0,0,0,0,.42A.26.26,0,0,0,44.4,359.45Zm.21-.1c.07,0,.12-.05.16,0s0,0,0,.06a.19.19,0,0,1,0,.07.11.11,0,0,1-.14,0S44.6,359.42,44.61,359.35Zm-.16-.15a.21.21,0,0,1-.1,0h0c-.05,0,0-.1,0-.13a.06.06,0,0,1,.06,0l.05,0A.11.11,0,0,1,44.45,359.2Zm.52-.46a.71.71,0,0,0,.28.08.29.29,0,0,0,.28-.18.32.32,0,0,0-.17-.46.29.29,0,0,0-.41.13.16.16,0,0,0,0,.13.17.17,0,0,1-.07-.22.36.36,0,0,1,.1-.11l0,0L44.8,358l0,0a.61.61,0,0,0-.12.16.35.35,0,0,0,0,.28A.68.68,0,0,0,45,358.74Zm.13-.25a.13.13,0,0,1,0-.06.08.08,0,0,1,.07,0,.16.16,0,0,1,.09,0,.19.19,0,0,1,.08.07.06.06,0,0,1,0,.06.09.09,0,0,1-.08.05l-.08,0A.18.18,0,0,1,45.1,358.49Zm.52-.71,0,0,.23.07v0a1.13,1.13,0,0,0,.09-.2.38.38,0,0,0,0-.3.34.34,0,0,0-.2-.17.32.32,0,0,0-.41.22s0,0,0,.05l-.11,0,.1-.33-.2-.06-.16.56.54.17v0a.39.39,0,0,1,0-.15s.06-.16.16-.13a.14.14,0,0,1,.08.19A.54.54,0,0,1,45.62,357.78Z"/></clipPath><clipPath id="clip-path-5"><path class="cls-1" d="M46.77,327.71c0,.5-.44.79-1,.79a1.42,1.42,0,0,1-1-.34l.35-.33a1,1,0,0,0,.67.22c.32,0,.49-.12.49-.32a.27.27,0,0,0-.08-.22.45.45,0,0,0-.25-.09l-.33-.05a1,1,0,0,1-.54-.21.66.66,0,0,1-.2-.51c0-.46.37-.78,1-.78a1.19,1.19,0,0,1,.89.3l-.34.31a.83.83,0,0,0-.57-.18c-.29,0-.43.15-.43.33a.25.25,0,0,0,.09.19.59.59,0,0,0,.25.1l.33,0a1,1,0,0,1,.53.2A.69.69,0,0,1,46.77,327.71Zm-2.92,0c0-.17-.11-.31-.36-.31h-.56V328h.56C43.74,328,43.85,327.88,43.85,327.7Zm0-1.06c0-.18-.12-.3-.35-.3h-.53v.59h.53C43.69,326.93,43.81,326.81,43.81,326.64Zm.58,1.09a.74.74,0,0,1-.84.74H42.39v-2.58H43.5c.54,0,.86.28.86.72a.61.61,0,0,1-.35.54A.59.59,0,0,1,44.39,327.73Zm-3.09-.55c0-.5,0-.62-.14-.73a.48.48,0,0,0-.34-.13.51.51,0,0,0-.36.13c-.1.11-.13.23-.13.73s0,.62.13.73a.51.51,0,0,0,.36.14.48.48,0,0,0,.34-.14C41.27,327.8,41.3,327.68,41.3,327.18Zm.54,0c0,.45,0,.77-.28,1a1,1,0,0,1-.74.29,1.08,1.08,0,0,1-.76-.29c-.28-.26-.27-.58-.27-1s0-.77.27-1a1.08,1.08,0,0,1,.76-.28,1,1,0,0,1,.74.28C41.84,326.41,41.84,326.73,41.84,327.18Zm-2.46.5a1,1,0,0,1-1,.82,1.09,1.09,0,0,1-.75-.29c-.28-.26-.27-.58-.27-1s0-.77.27-1a1.09,1.09,0,0,1,.75-.28,1,1,0,0,1,1,.81h-.55a.45.45,0,0,0-.47-.36.46.46,0,0,0-.34.13c-.11.11-.14.23-.14.73s0,.62.14.73a.43.43,0,0,0,.34.14.44.44,0,0,0,.47-.37Zm-3.14-.09-.33-.94-.35.94Zm.88.88h-.57l-.16-.45h-1l-.16.45h-.57l1-2.58h.43Zm-2.71-.85a.89.89,0,0,1-1,.88,1,1,0,0,1-.71-.27l.36-.33a.46.46,0,0,0,.35.15.4.4,0,0,0,.44-.45v-1.71h.54ZM51.69,332H49.87v-2.58h1.82v.45H50.41v.6H51.5v.45H50.41v.63h1.28Zm-2.27-2.13v-.45h-2v.45h.72V332h.55v-2.13ZM47,331.08v-1.7h-.53v1.68a.49.49,0,0,1-1,0v-1.68H45v1.7a1,1,0,0,0,2,0Zm-2.46-1.25v-.45h-2v.45h.72V332h.54v-2.13Zm-3,2.13h.55v-2.58h-.55Zm-.44-2.13v-.45h-2v.45h.72V332h.54v-2.13Zm-2.33,1.37a.69.69,0,0,0-.22-.55.93.93,0,0,0-.53-.2l-.33,0a.59.59,0,0,1-.25-.1.24.24,0,0,1-.08-.19c0-.18.14-.33.42-.33a.83.83,0,0,1,.57.18l.35-.31a1.24,1.24,0,0,0-.9-.31c-.6,0-1,.33-1,.79a.68.68,0,0,0,.2.51,1,1,0,0,0,.54.21l.33.05a.37.37,0,0,1,.25.09.27.27,0,0,1,.09.22c0,.2-.18.32-.49.32a1,1,0,0,1-.67-.22l-.35.32a1.35,1.35,0,0,0,1,.35C38.34,332,38.79,331.7,38.79,331.2Zm-2.47.76v-2.58h-.54V331l-1.1-1.58H34.2V332h.54v-1.58l1.1,1.58ZM33,332h.54v-2.58H33Z"/></clipPath><clipPath id="clip-path-7"><rect class="cls-2" x="33.28" y="321.41" width="13.39" height="0.28"/></clipPath><clipPath id="clip-path-9"><path class="cls-1" d="M47.23,324.74v-.11H46.4V324h.71v-.11H46.4v-.65h.83v-.11h-.95v1.64Zm-1.48,0V323.1h-.12v.76h-.82v-.76h-.12v1.64h.12V324h.82v.77Zm-1.46-1.53v-.11h-1v.11h.47v1.53h.12v-1.53Zm-1.75,0v-.11h-1v1.64h.12V324h.71v-.11H41.7v-.67Zm-1.55.71c0,.35,0,.48-.12.6a.44.44,0,0,1-.6,0c-.11-.12-.12-.25-.12-.6s0-.48.12-.6a.41.41,0,0,1,.6,0C41,323.44,41,323.57,41,323.92Zm.12,0c0-.37,0-.52-.15-.67a.53.53,0,0,0-.78,0c-.15.15-.15.3-.15.67s0,.51.15.66a.53.53,0,0,0,.78,0C41.1,324.43,41.11,324.29,41.11,323.92Zm-2,.82v-.11h-.83V324H39v-.11h-.71v-.65h.83v-.11h-.95v1.64Zm-1.48,0V323.1h-.11L37,324.36l-.54-1.26h-.12v1.64h.12v-1.35l.48,1.12h.12l.48-1.12v1.35Zm-1.91-.82c0,.35,0,.48-.12.6a.43.43,0,0,1-.6,0c-.11-.12-.12-.25-.12-.6s0-.48.12-.6a.41.41,0,0,1,.6,0C35.76,323.44,35.77,323.57,35.77,323.92Zm.12,0c0-.37,0-.52-.15-.67a.53.53,0,0,0-.78,0c-.15.15-.15.3-.15.67s0,.51.15.66a.53.53,0,0,0,.78,0C35.89,324.43,35.89,324.29,35.89,323.92Zm-1.56.82V323.1h-.11v.76H33.4v-.76h-.12v1.64h.12V324h.82v.77Z"/></clipPath><clipPath id="clip-path-11"><path class="cls-1" d="M39,317.69a2,2,0,0,1-.61,1.5c-.56.57-1.26.56-2.23.56s-1.66,0-2.22-.56a2,2,0,0,1-.61-1.5,2,2,0,0,1,1.76-2.06v1.11a.92.92,0,0,0-.79.94.91.91,0,0,0,.29.7c.23.21.5.27,1.57.27s1.34-.06,1.58-.27a.91.91,0,0,0,.29-.7.93.93,0,0,0-.79-.94v-1.11A2,2,0,0,1,39,317.69Zm-4.45-5.37a.9.9,0,0,0-.3.7.94.94,0,0,0,.3.71c.24.21.5.27,1.58.27s1.33-.06,1.57-.27A.94.94,0,0,0,38,313a.9.9,0,0,0-.3-.7c-.24-.22-.5-.28-1.57-.28S34.79,312.1,34.55,312.32Zm3.81-.82a2.2,2.2,0,0,1,0,3c-.57.57-1.27.55-2.23.55s-1.67,0-2.24-.55a2.2,2.2,0,0,1,0-3,2.88,2.88,0,0,1,2.24-.56A2.87,2.87,0,0,1,38.36,311.5Zm-4.06-3.44v1h1.48v-1a.74.74,0,1,0-1.48,0Zm4.63-.85-2.24,1.09v.79h2.24v1.1h-5.6V308A1.68,1.68,0,0,1,35,306.17a1.51,1.51,0,0,1,1.47,1l2.42-1.25ZM33.33,301h5.6v1l-3.44,2.23h3.44v1.09h-5.6v-1L36.75,302H33.33ZM38,296.26h1V300h-5.6v-3.7h1v2.6h1.32v-2.21h1v2.21H38Zm0-4.51h1v3.64h-5.6v-1.1H38Zm0-4.28h1v3.65h-5.6V290H38ZM41,315.67h1v1.47h4.62v1.09H42v1.47H41Zm4.63-4.42h1V315H41v-3.7h1v2.6h1.31v-2.21h1v2.21h1.36Zm1-2.69a2.1,2.1,0,0,1-.61,1.52c-.57.57-1.27.55-2.24.55s-1.66,0-2.23-.55a2.1,2.1,0,0,1-.61-1.52,2,2,0,0,1,1.77-2.06v1.11a.93.93,0,0,0-.8.95.91.91,0,0,0,.29.7c.24.21.51.27,1.58.27s1.35-.06,1.58-.27a.88.88,0,0,0,.3-.7.93.93,0,0,0-.8-.95V306.5A2,2,0,0,1,46.67,308.56ZM41,301.65h5.6v1.09H44.28v1.9h2.34v1.1H41v-1.1h2.29v-1.9H41Z"/></clipPath></defs><title>thankyou_2</title><g id="Layer_2" data-name="Layer 2"><g id="Layer_2-2" data-name="Layer 2"><rect class="cls-3" width="540" height="396.62" transform="translate(540 396.62) rotate(180)"/><path class="cls-4" d="M274.29,64.41a3.7,3.7,0,0,0,1.08-2.54l.23-17.6a3.46,3.46,0,0,0-3.52-3.52,3.68,3.68,0,0,0-3.62,3.62L268.23,62a3.46,3.46,0,0,0,3.52,3.53A3.71,3.71,0,0,0,274.29,64.41Z"/><path class="cls-4" d="M205.2,84.13a3.62,3.62,0,0,0,.75-.59,3.58,3.58,0,0,0,.62-4.3L198,64.11a3.5,3.5,0,0,0-4.85-1.24,3.62,3.62,0,0,0-1.37,4.89l8.59,15.13A3.52,3.52,0,0,0,205.2,84.13Z"/><path class="cls-4" d="M151.12,134.69a3.62,3.62,0,0,0,4.32-.62,3.94,3.94,0,0,0,.58-.75,3.52,3.52,0,0,0-1.24-4.86l-15.12-8.6a3.64,3.64,0,0,0-4.9,1.37,3.52,3.52,0,0,0,1.24,4.86Z"/><path class="cls-4" d="M133.76,203.48a3.71,3.71,0,0,0,2.54-1.08,3.64,3.64,0,0,0,1.07-2.54,3.45,3.45,0,0,0-3.52-3.52l-17.59.23a3.69,3.69,0,0,0-3.62,3.62,3.45,3.45,0,0,0,3.52,3.52Z"/><path class="cls-4" d="M137.54,279.83l15.36-9a3.79,3.79,0,0,0,.74-.58,3.59,3.59,0,0,0,.63-4.31,3.51,3.51,0,0,0-4.86-1.25l-15.36,9a3.64,3.64,0,0,0-1.38,4.9A3.53,3.53,0,0,0,137.54,279.83Z"/><path class="cls-4" d="M388.87,261.55a3.63,3.63,0,0,0-4.89,1.37,3.51,3.51,0,0,0,1.25,4.86l15.12,8.59a3.59,3.59,0,0,0,4.31-.62,3.94,3.94,0,0,0,.58-.75,3.5,3.5,0,0,0-1.24-4.85Z"/><path class="cls-4" d="M406.25,192.75a3.68,3.68,0,0,0-3.62,3.62,3.45,3.45,0,0,0,3.53,3.52l17.58-.23a3.67,3.67,0,0,0,3.62-3.62,3.45,3.45,0,0,0-3.52-3.52Z"/><path class="cls-4" d="M402.46,116.39l-15.35,9a3.63,3.63,0,0,0-1.37,4.9,3.52,3.52,0,0,0,4.86,1.24l15.35-9a3.74,3.74,0,0,0,.74-.57,3.6,3.6,0,0,0,.62-4.32A3.5,3.5,0,0,0,402.46,116.39Z"/><path class="cls-4" d="M342.15,81.76a4.4,4.4,0,0,0,.58-.75l9-15.35a3.51,3.51,0,0,0-1.24-4.86,3.62,3.62,0,0,0-4.89,1.37l-9,15.35a3.52,3.52,0,0,0,1.24,4.86A3.62,3.62,0,0,0,342.15,81.76Z"/><path class="cls-4" d="M265.71,331.82a3.69,3.69,0,0,0-1.08,2.53L264.4,352a3.47,3.47,0,0,0,3.52,3.53,3.69,3.69,0,0,0,3.62-3.62l.23-17.6a3.45,3.45,0,0,0-3.52-3.52A3.63,3.63,0,0,0,265.71,331.82Z"/><path class="cls-4" d="M334.8,312.1a3.65,3.65,0,0,0-1.37,4.89l8.6,15.12a3.5,3.5,0,0,0,4.85,1.25,3.63,3.63,0,0,0,1.37-4.9l-8.59-15.12A3.52,3.52,0,0,0,334.8,312.1Z"/><path class="cls-4" d="M388.88,261.54a3.6,3.6,0,0,0-4.32.62,3.94,3.94,0,0,0-.58.75,3.52,3.52,0,0,0,1.24,4.86l15.12,8.59a3.64,3.64,0,0,0,4.9-1.36,3.51,3.51,0,0,0-1.24-4.86Z"/><path class="cls-4" d="M406.24,192.75a3.67,3.67,0,0,0-3.61,3.61,3.46,3.46,0,0,0,3.52,3.53l17.59-.23a3.69,3.69,0,0,0,3.62-3.62,3.47,3.47,0,0,0-3.52-3.53Z"/><path class="cls-4" d="M402.46,116.39l-15.36,9a3.74,3.74,0,0,0-.74.57,3.61,3.61,0,0,0-.63,4.32,3.51,3.51,0,0,0,4.86,1.24l15.36-9a3.63,3.63,0,0,0,1.38-4.89A3.53,3.53,0,0,0,402.46,116.39Z"/><path class="cls-4" d="M151.13,134.68a3.63,3.63,0,0,0,4.89-1.37,3.51,3.51,0,0,0-1.25-4.86l-15.12-8.59a3.6,3.6,0,0,0-4.31.61,3.72,3.72,0,0,0-.58.76,3.51,3.51,0,0,0,1.24,4.85Z"/><path class="cls-4" d="M133.75,203.47a3.67,3.67,0,0,0,3.62-3.62,3.47,3.47,0,0,0-3.53-3.52l-17.58.23a3.74,3.74,0,0,0-2.55,1.08,3.66,3.66,0,0,0-1.07,2.54,3.45,3.45,0,0,0,3.52,3.53Z"/><path class="cls-4" d="M137.54,279.83l15.35-9a3.62,3.62,0,0,0,1.37-4.89,3.51,3.51,0,0,0-4.86-1.24l-15.35,9a3.79,3.79,0,0,0-.74.58,3.6,3.6,0,0,0-.62,4.32A3.51,3.51,0,0,0,137.54,279.83Z"/><path class="cls-4" d="M197.85,314.47a3.73,3.73,0,0,0-.58.75l-9,15.35a3.51,3.51,0,0,0,1.24,4.86,3.63,3.63,0,0,0,4.89-1.37l9-15.35a3.53,3.53,0,0,0-1.24-4.87A3.62,3.62,0,0,0,197.85,314.47Z"/><path class="cls-5" d="M358.73,114.89a3.37,3.37,0,0,0,2.33-.93l11.47-11.17a3.15,3.15,0,0,0,0-4.53,3.36,3.36,0,0,0-4.66,0l-11.46,11.16a3.15,3.15,0,0,0,0,4.54A3.33,3.33,0,0,0,358.73,114.89Z"/><path class="cls-5" d="M301.63,83.15a3.54,3.54,0,0,0,.85.11,3.26,3.26,0,0,0,3.17-2.38l4.2-15.25a3.19,3.19,0,0,0-2.32-3.92,3.31,3.31,0,0,0-4,2.27l-4.2,15.25A3.19,3.19,0,0,0,301.63,83.15Z"/><path class="cls-5" d="M234.34,80.89a3.29,3.29,0,0,0,3.18,2.37,3.1,3.1,0,0,0,.85-.11,3.19,3.19,0,0,0,2.33-3.92L236.5,64a3.29,3.29,0,0,0-4-2.27,3.2,3.2,0,0,0-2.33,3.93Z"/><path class="cls-5" d="M178.94,114a3.33,3.33,0,0,0,2.33.94,3.29,3.29,0,0,0,2.32-.94,3.14,3.14,0,0,0,0-4.53L172.13,98.26a3.35,3.35,0,0,0-4.65,0,3.14,3.14,0,0,0,0,4.53Z"/><path class="cls-5" d="M132.28,165.48l15.65,4.1a3.61,3.61,0,0,0,.86.1,3.27,3.27,0,0,0,3.17-2.37,3.19,3.19,0,0,0-2.32-3.92L134,159.29a3.31,3.31,0,0,0-4,2.27A3.19,3.19,0,0,0,132.28,165.48Z"/><path class="cls-5" d="M305.65,315.34a3.31,3.31,0,0,0-4-2.26A3.19,3.19,0,0,0,299.3,317l4.2,15.25a3.26,3.26,0,0,0,3.16,2.37,3.61,3.61,0,0,0,.86-.1,3.2,3.2,0,0,0,2.32-3.93Z"/><path class="cls-5" d="M361.06,282.28a3.34,3.34,0,0,0-4.66,0,3.14,3.14,0,0,0,0,4.53L367.87,298a3.34,3.34,0,0,0,2.32.94,3.3,3.3,0,0,0,2.33-.94,3.14,3.14,0,0,0,0-4.53Z"/><path class="cls-5" d="M407.72,230.74l-15.65-4.08a3.29,3.29,0,0,0-4,2.26,3.19,3.19,0,0,0,2.32,3.92L406,236.92a3.12,3.12,0,0,0,.85.12,3.29,3.29,0,0,0,3.18-2.38A3.19,3.19,0,0,0,407.72,230.74Z"/><path class="cls-5" d="M391.21,169.68a3.67,3.67,0,0,0,.86-.1l15.65-4.09a3.19,3.19,0,0,0,2.33-3.92,3.31,3.31,0,0,0-4-2.27l-15.66,4.09a3.19,3.19,0,0,0-2.32,3.92A3.27,3.27,0,0,0,391.21,169.68Z"/><path class="cls-5" d="M181.27,281.33a3.33,3.33,0,0,0-2.33.94l-11.47,11.17a3.15,3.15,0,0,0,0,4.53,3.37,3.37,0,0,0,4.66,0l11.46-11.17a3.14,3.14,0,0,0,0-4.53A3.29,3.29,0,0,0,181.27,281.33Z"/><path class="cls-5" d="M238.37,313.08a3.1,3.1,0,0,0-.85-.11,3.26,3.26,0,0,0-3.17,2.37l-4.2,15.25a3.2,3.2,0,0,0,2.32,3.93,3.31,3.31,0,0,0,4-2.27L240.7,317A3.19,3.19,0,0,0,238.37,313.08Z"/><path class="cls-5" d="M305.66,315.34a3.3,3.3,0,0,0-3.18-2.38,3.54,3.54,0,0,0-.85.11A3.2,3.2,0,0,0,299.3,317l4.2,15.25a3.29,3.29,0,0,0,4,2.27,3.19,3.19,0,0,0,2.33-3.92Z"/><path class="cls-5" d="M361.06,282.27a3.33,3.33,0,0,0-2.33-.94,3.29,3.29,0,0,0-2.32.94,3.14,3.14,0,0,0,0,4.53L367.87,298a3.35,3.35,0,0,0,4.65,0,3.14,3.14,0,0,0,0-4.53Z"/><path class="cls-5" d="M407.72,230.74l-15.65-4.09a3.17,3.17,0,0,0-.86-.11,3.27,3.27,0,0,0-3.17,2.37,3.2,3.2,0,0,0,2.32,3.93L406,236.93a3.3,3.3,0,0,0,4-2.26A3.2,3.2,0,0,0,407.72,230.74Z"/><path class="cls-5" d="M234.35,80.89a3.31,3.31,0,0,0,4,2.26,3.2,3.2,0,0,0,2.32-3.93L236.5,64a3.25,3.25,0,0,0-3.16-2.38,3.25,3.25,0,0,0-3.18,4Z"/><path class="cls-5" d="M178.94,114a3.36,3.36,0,0,0,4.66,0,3.16,3.16,0,0,0,0-4.54L172.13,98.25a3.35,3.35,0,0,0-4.65,0,3.15,3.15,0,0,0,0,4.54Z"/><path class="cls-5" d="M132.28,165.49l15.65,4.08a3.3,3.3,0,0,0,4-2.26,3.2,3.2,0,0,0-2.32-3.93L134,159.3a3.54,3.54,0,0,0-.85-.11,3.28,3.28,0,0,0-3.18,2.38A3.2,3.2,0,0,0,132.28,165.49Z"/><path class="cls-5" d="M148.79,226.54a3.22,3.22,0,0,0-.86.11l-15.65,4.08a3.2,3.2,0,0,0-2.33,3.93,3.3,3.3,0,0,0,4,2.26l15.66-4.08a3.2,3.2,0,0,0,2.32-3.93A3.28,3.28,0,0,0,148.79,226.54Z"/><path class="cls-6" d="M273.45,90.61a2.93,2.93,0,0,0,.86-2l.19-14.15a2.78,2.78,0,0,0-2.83-2.83,3,3,0,0,0-2.91,2.91l-.19,14.14a2.79,2.79,0,0,0,2.84,2.84A2.93,2.93,0,0,0,273.45,90.61Z"/><path class="cls-6" d="M217.9,106.47a3,3,0,0,0,.6-.47,2.89,2.89,0,0,0,.5-3.47l-6.91-12.16a2.82,2.82,0,0,0-3.9-1,2.93,2.93,0,0,0-1.11,3.94L214,105.47A2.83,2.83,0,0,0,217.9,106.47Z"/><path class="cls-6" d="M174.42,147.12a2.89,2.89,0,0,0,3.47-.5,3.19,3.19,0,0,0,.47-.61,2.82,2.82,0,0,0-1-3.9L165.2,135.2a2.91,2.91,0,0,0-3.93,1.1,2.81,2.81,0,0,0,1,3.9Z"/><path class="cls-6" d="M160.46,202.43a2.93,2.93,0,0,0,2-.87,3,3,0,0,0,.87-2,2.77,2.77,0,0,0-2.84-2.83l-14.14.18a3,3,0,0,0-2.91,2.91,2.79,2.79,0,0,0,2.83,2.84Z"/><path class="cls-6" d="M163.5,263.82l12.35-7.23a3,3,0,0,0,.6-.47,2.89,2.89,0,0,0,.5-3.47,2.83,2.83,0,0,0-3.91-1l-12.35,7.23a2.92,2.92,0,0,0-1.1,3.94A2.83,2.83,0,0,0,163.5,263.82Z"/><path class="cls-6" d="M365.57,249.12a2.91,2.91,0,0,0-3.93,1.1,2.83,2.83,0,0,0,1,3.91L374.8,261a2.91,2.91,0,0,0,3.47-.49,3.65,3.65,0,0,0,.47-.61,2.81,2.81,0,0,0-1-3.9Z"/><path class="cls-6" d="M379.54,193.8a3,3,0,0,0-2.9,2.91,2.77,2.77,0,0,0,2.83,2.83l14.14-.18a3,3,0,0,0,2.91-2.91,2.78,2.78,0,0,0-2.83-2.84Z"/><path class="cls-6" d="M376.5,132.41l-12.34,7.23a2.92,2.92,0,0,0-1.11,3.94,2.84,2.84,0,0,0,3.91,1l12.34-7.24a2.8,2.8,0,0,0,.6-.46,2.91,2.91,0,0,0,.5-3.48A2.83,2.83,0,0,0,376.5,132.41Z"/><path class="cls-6" d="M328,104.56a3.2,3.2,0,0,0,.47-.6l7.23-12.34a2.83,2.83,0,0,0-1-3.91,2.92,2.92,0,0,0-3.94,1.1l-7.23,12.34a2.83,2.83,0,0,0,1,3.91A2.89,2.89,0,0,0,328,104.56Z"/><path class="cls-6" d="M266.55,305.61a3,3,0,0,0-.86,2l-.19,14.15a2.79,2.79,0,0,0,2.83,2.84,3,3,0,0,0,2.91-2.91l.19-14.15a2.79,2.79,0,0,0-2.84-2.83A3,3,0,0,0,266.55,305.61Z"/><path class="cls-6" d="M322.1,289.76a3,3,0,0,0-.6.47,2.88,2.88,0,0,0-.5,3.46l6.91,12.16a2.82,2.82,0,0,0,3.9,1,2.91,2.91,0,0,0,1.11-3.93L326,290.76A2.83,2.83,0,0,0,322.1,289.76Z"/><path class="cls-6" d="M365.58,249.11a2.89,2.89,0,0,0-3.47.5,3.12,3.12,0,0,0-.47.6,2.83,2.83,0,0,0,1,3.91L374.8,261a2.92,2.92,0,0,0,3.93-1.1,2.82,2.82,0,0,0-1-3.91Z"/><path class="cls-6" d="M379.54,193.8a3,3,0,0,0-2.91,2.91,2.79,2.79,0,0,0,2.84,2.83l14.14-.19a3,3,0,0,0,2.91-2.91,2.78,2.78,0,0,0-2.83-2.83Z"/><path class="cls-6" d="M376.5,132.41l-12.35,7.23a3.41,3.41,0,0,0-.6.46,2.89,2.89,0,0,0-.5,3.47,2.83,2.83,0,0,0,3.91,1l12.35-7.23a2.91,2.91,0,0,0,1.1-3.93A2.83,2.83,0,0,0,376.5,132.41Z"/><path class="cls-6" d="M174.43,147.11a2.92,2.92,0,0,0,3.93-1.1,2.83,2.83,0,0,0-1-3.91l-12.16-6.91a2.89,2.89,0,0,0-3.47.5,4,4,0,0,0-.47.6,2.83,2.83,0,0,0,1,3.91Z"/><path class="cls-6" d="M160.46,202.42a3,3,0,0,0,2.9-2.91,2.78,2.78,0,0,0-2.83-2.83l-14.14.19a2.94,2.94,0,0,0-2.91,2.91,2.77,2.77,0,0,0,2.83,2.83Z"/><path class="cls-6" d="M163.5,263.82l12.34-7.24a2.91,2.91,0,0,0,1.11-3.93,2.83,2.83,0,0,0-3.91-1l-12.34,7.24a2.51,2.51,0,0,0-.6.46,2.89,2.89,0,0,0-.5,3.47A2.82,2.82,0,0,0,163.5,263.82Z"/><path class="cls-6" d="M212,291.66a3.65,3.65,0,0,0-.47.61l-7.23,12.34a2.83,2.83,0,0,0,1,3.91,2.94,2.94,0,0,0,3.94-1.1l7.23-12.35a2.83,2.83,0,0,0-1-3.91A2.92,2.92,0,0,0,212,291.66Z"/><path class="cls-7" d="M341.84,130.74a2.72,2.72,0,0,0,1.88-.76l9.29-9a2.55,2.55,0,0,0,0-3.67,2.72,2.72,0,0,0-3.77,0l-9.28,9a2.55,2.55,0,0,0,0,3.67A2.72,2.72,0,0,0,341.84,130.74Z"/><path class="cls-7" d="M295.61,105a2.71,2.71,0,0,0,.69.08,2.63,2.63,0,0,0,2.56-1.92l3.41-12.35a2.59,2.59,0,0,0-1.89-3.17,2.67,2.67,0,0,0-3.26,1.83l-3.4,12.35A2.6,2.6,0,0,0,295.61,105Z"/><path class="cls-7" d="M241.13,103.2a2.66,2.66,0,0,0,2.57,1.93,2.72,2.72,0,0,0,.69-.09,2.59,2.59,0,0,0,1.89-3.18l-3.4-12.34a2.67,2.67,0,0,0-3.26-1.84,2.59,2.59,0,0,0-1.88,3.18Z"/><path class="cls-7" d="M196.28,130a2.71,2.71,0,0,0,3.76,0,2.55,2.55,0,0,0,0-3.67l-9.28-9a2.72,2.72,0,0,0-3.77,0,2.57,2.57,0,0,0,0,3.67Z"/><path class="cls-7" d="M158.5,171.7,171.17,175a2.72,2.72,0,0,0,.69.09,2.64,2.64,0,0,0,2.57-1.93,2.57,2.57,0,0,0-1.88-3.17l-12.68-3.32a2.67,2.67,0,0,0-3.26,1.84A2.59,2.59,0,0,0,158.5,171.7Z"/><path class="cls-7" d="M298.86,293a2.67,2.67,0,0,0-3.26-1.83,2.59,2.59,0,0,0-1.88,3.18l3.4,12.34a2.65,2.65,0,0,0,2.56,1.93,2.86,2.86,0,0,0,.7-.09,2.59,2.59,0,0,0,1.88-3.18Z"/><path class="cls-7" d="M343.72,266.25a2.72,2.72,0,0,0-3.77,0,2.57,2.57,0,0,0,0,3.68l9.27,9a2.71,2.71,0,0,0,1.89.76A2.67,2.67,0,0,0,353,279a2.53,2.53,0,0,0,0-3.67Z"/><path class="cls-7" d="M381.5,224.53l-12.67-3.31a2.69,2.69,0,0,0-3.27,1.83,2.6,2.6,0,0,0,1.89,3.18l12.68,3.31a2.72,2.72,0,0,0,.69.09,2.66,2.66,0,0,0,2.57-1.93A2.59,2.59,0,0,0,381.5,224.53Z"/><path class="cls-7" d="M368.14,175.1a2.84,2.84,0,0,0,.69-.09l12.67-3.31a2.59,2.59,0,0,0,1.89-3.17,2.67,2.67,0,0,0-3.26-1.84L367.45,170a2.59,2.59,0,0,0-1.89,3.17A2.68,2.68,0,0,0,368.14,175.1Z"/><path class="cls-7" d="M198.16,265.49a2.67,2.67,0,0,0-1.88.76l-9.29,9a2.55,2.55,0,0,0,0,3.67,2.72,2.72,0,0,0,3.77,0l9.28-9a2.55,2.55,0,0,0,0-3.67A2.67,2.67,0,0,0,198.16,265.49Z"/><path class="cls-7" d="M244.39,291.19a2.72,2.72,0,0,0-.69-.09,2.63,2.63,0,0,0-2.56,1.93l-3.41,12.34a2.6,2.6,0,0,0,1.89,3.18,2.68,2.68,0,0,0,3.26-1.84l3.4-12.34A2.59,2.59,0,0,0,244.39,291.19Z"/><path class="cls-7" d="M298.87,293a2.66,2.66,0,0,0-2.57-1.92,2.72,2.72,0,0,0-.69.09,2.59,2.59,0,0,0-1.89,3.17l3.4,12.35a2.66,2.66,0,0,0,3.26,1.83,2.58,2.58,0,0,0,1.88-3.17Z"/><path class="cls-7" d="M343.72,266.25a2.71,2.71,0,0,0-3.76,0,2.55,2.55,0,0,0,0,3.67l9.28,9a2.72,2.72,0,0,0,3.77,0,2.57,2.57,0,0,0,0-3.67Z"/><path class="cls-7" d="M381.5,224.53l-12.67-3.31a2.72,2.72,0,0,0-.69-.09,2.64,2.64,0,0,0-2.57,1.92,2.58,2.58,0,0,0,1.88,3.18l12.68,3.31a2.67,2.67,0,0,0,3.26-1.83A2.59,2.59,0,0,0,381.5,224.53Z"/><path class="cls-7" d="M241.14,103.2A2.67,2.67,0,0,0,244.4,105a2.58,2.58,0,0,0,1.88-3.17l-3.4-12.35a2.64,2.64,0,0,0-2.56-1.92,2.86,2.86,0,0,0-.7.09,2.58,2.58,0,0,0-1.88,3.17Z"/><path class="cls-7" d="M196.28,130a2.7,2.7,0,0,0,3.77,0,2.56,2.56,0,0,0,0-3.67l-9.27-9a2.72,2.72,0,0,0-1.89-.77,2.68,2.68,0,0,0-1.88.77,2.53,2.53,0,0,0,0,3.67Z"/><path class="cls-7" d="M158.5,171.7l12.67,3.3a2.68,2.68,0,0,0,3.27-1.83,2.59,2.59,0,0,0-1.89-3.17l-12.68-3.31a2.72,2.72,0,0,0-.69-.09,2.65,2.65,0,0,0-2.57,1.93A2.59,2.59,0,0,0,158.5,171.7Z"/><path class="cls-7" d="M171.86,221.13a2.84,2.84,0,0,0-.69.09l-12.67,3.3a2.6,2.6,0,0,0-1.89,3.18,2.69,2.69,0,0,0,3.26,1.84l12.68-3.31a2.61,2.61,0,0,0,1.89-3.18A2.67,2.67,0,0,0,171.86,221.13Z"/><polygon class="cls-3" points="480.59 208.38 425.66 221.44 366.94 209.15 170.46 212.99 109.38 217.6 59.41 208.38 59.41 153.69 95.54 146.01 180.13 153.69 383.65 153.69 413.56 146.01 480.59 153.69 480.59 208.38"/><path class="cls-8" d="M113.8,202.12h-.16c-.11,0-.17-.06-.28-.17a.29.29,0,0,1-.11-.22v-28.1a.36.36,0,0,0-.27-.33h-9.41a.28.28,0,0,1-.22-.11l0-.05a.06.06,0,0,0-.06-.06.76.76,0,0,1,0-.33v-7.48a.55.55,0,0,1,.38-.55h28.87a.51.51,0,0,1,.39.17.18.18,0,0,1,0,.11.37.37,0,0,1,.11.27v7.48a.61.61,0,0,1-.16.44.42.42,0,0,1-.28.11h-9.29c-.11,0-.17,0-.22.06s-.06,0-.11.11v28.26a.53.53,0,0,1-.28.33c-.05.06-.16.06-.27.06Z"/><path class="cls-8" d="M139.43,165.27a.52.52,0,0,1,.55-.55h8.58a.52.52,0,0,1,.55.55v13.26a.29.29,0,0,0,.33.33h10.17a.29.29,0,0,0,.33-.33V165.27a.52.52,0,0,1,.55-.55h8.58a.52.52,0,0,1,.55.55v36.3a.52.52,0,0,1-.55.55h-8.58a.52.52,0,0,1-.55-.55v-13.8a.29.29,0,0,0-.33-.33H149.44a.29.29,0,0,0-.33.33v13.8a.52.52,0,0,1-.55.55H140a.52.52,0,0,1-.55-.55Z"/><path class="cls-8" d="M188.87,165.27a.71.71,0,0,1,.72-.55h9a.71.71,0,0,1,.72.55l12.65,36.3a.38.38,0,0,1-.39.55h-9.07a.71.71,0,0,1-.72-.55L200,195.79H187.83l-1.76,5.78a.71.71,0,0,1-.72.55h-9a.38.38,0,0,1-.39-.55Zm8.69,22.5-3.46-11.66h-.17l-3.63,11.66Z"/><path class="cls-8" d="M218.25,165.27a.52.52,0,0,1,.55-.55h8.08a1,1,0,0,1,.93.55l11.28,21.18h.22V165.27a.52.52,0,0,1,.55-.55h7.7a.52.52,0,0,1,.55.55v36.3a.52.52,0,0,1-.55.55h-8.09a1,1,0,0,1-.93-.55l-11.17-21.12H227v21.12a.52.52,0,0,1-.55.55H218.8a.52.52,0,0,1-.55-.55Z"/><path class="cls-8" d="M256.91,165.27a.52.52,0,0,1,.55-.55H266a.52.52,0,0,1,.55.55V179.9l10.72-14.68a1.1,1.1,0,0,1,.94-.5h9.68c.44,0,.55.39.33.72L277.09,179.9l11.83,21.61a.38.38,0,0,1-.33.61h-9.85a.85.85,0,0,1-.88-.5l-7.26-14.07-4,5.33v8.69a.52.52,0,0,1-.55.55h-8.58a.52.52,0,0,1-.55-.55Z"/><path class="cls-8" d="M319.28,202.12a.52.52,0,0,1-.55-.55V187.66L307.4,165.33a.43.43,0,0,1,.44-.61h8.63a1,1,0,0,1,.88.55L323.62,178h.17L330,165.27a.89.89,0,0,1,.88-.55h8.47c.44,0,.55.28.44.61l-11.33,22.33v13.91a.52.52,0,0,1-.55.55Z"/><path class="cls-8" d="M344.91,193.6c-.88-2.87-1.1-5.06-1.1-10.18s.22-7.31,1.1-10.17c2-6.11,7.42-9.19,14-9.19s12.05,3.08,14,9.19c.93,2.86,1.1,5.06,1.1,10.17s-.17,7.31-1.1,10.18c-2,6.1-7.43,9.18-14,9.18S346.89,199.7,344.91,193.6Zm18.81-2.75c.44-1.27.55-3,.55-7.43s-.11-6.16-.55-7.42a5.12,5.12,0,0,0-9.57,0c-.44,1.26-.55,3-.55,7.42s.11,6.16.55,7.43a5.12,5.12,0,0,0,9.57,0Z"/><path class="cls-8" d="M381.87,187.66V165.27a.52.52,0,0,1,.55-.55H391a.52.52,0,0,1,.55.55v23c0,3.74,2.09,5.88,5.22,5.88s5.17-2.14,5.17-5.88v-23a.52.52,0,0,1,.55-.55h8.58a.52.52,0,0,1,.55.55v22.39c0,10-5.94,15.12-14.85,15.12C387.7,202.78,381.87,197.61,381.87,187.66Z"/><path class="cls-8" d="M422.57,190l-1.32-24.75a.52.52,0,0,1,.55-.55h8.41a.52.52,0,0,1,.55.55L429.44,190a.52.52,0,0,1-.55.55h-5.77A.52.52,0,0,1,422.57,190Zm-.88,4.62a.52.52,0,0,1,.55-.55h7.59a.52.52,0,0,1,.55.55v6.93a.52.52,0,0,1-.55.55h-7.59a.52.52,0,0,1-.55-.55Z"/><path class="cls-9" d="M251.73,220.54a.14.14,0,0,1,.14-.15h6a.14.14,0,0,1,.14.15v1.2a.14.14,0,0,1-.14.14h-4.37c-.06,0-.09,0-.09.08v2.43c0,.05,0,.08.09.08h3.68a.13.13,0,0,1,.14.14v1.21a.13.13,0,0,1-.14.14h-3.68c-.06,0-.09,0-.09.08v3.74a.13.13,0,0,1-.14.14h-1.37a.14.14,0,0,1-.14-.14Z"/><path class="cls-9" d="M265.69,229.92a.2.2,0,0,1-.21-.14l-1.82-3.71H262a.07.07,0,0,0-.08.08v3.63a.14.14,0,0,1-.14.14h-1.38a.14.14,0,0,1-.14-.14v-9.24a.14.14,0,0,1,.14-.15h3.69a2.84,2.84,0,0,1,3,2.85,2.72,2.72,0,0,1-1.81,2.62l2,3.88a.11.11,0,0,1-.09.18Zm-.18-6.68a1.33,1.33,0,0,0-1.46-1.36h-2a.07.07,0,0,0-.08.08v2.54c0,.06,0,.08.08.08h2A1.33,1.33,0,0,0,265.51,223.24Z"/><path class="cls-9" d="M269.58,227.78a13.85,13.85,0,0,1,0-5.24,3.62,3.62,0,0,1,6.74,0,13.85,13.85,0,0,1,0,5.24,3.62,3.62,0,0,1-6.74,0Zm5.14-.44a14.13,14.13,0,0,0,0-4.37,1.73,1.73,0,0,0-1.78-1.24,1.7,1.7,0,0,0-1.76,1.24,14.13,14.13,0,0,0,0,4.37,1.71,1.71,0,0,0,1.76,1.25A1.73,1.73,0,0,0,274.72,227.34Z"/><path class="cls-9" d="M279.09,220.54a.13.13,0,0,1,.14-.15h1.24a.23.23,0,0,1,.24.15l2.62,5.86h.06l2.57-5.86a.24.24,0,0,1,.24-.15h1.23a.13.13,0,0,1,.14.15v9.24a.13.13,0,0,1-.14.14h-1.21a.13.13,0,0,1-.14-.14V224H286l-2,4.49a.27.27,0,0,1-.26.18h-.82a.27.27,0,0,1-.26-.18l-2-4.49h-.06v5.83a.13.13,0,0,1-.14.14h-1.21a.13.13,0,0,1-.14-.14Z"/><path class="cls-8" d="M205.25,247.8a9.41,9.41,0,0,1,.33-3.31,4.13,4.13,0,0,1,4.25-3,4.31,4.31,0,0,1,4.14,2.63.15.15,0,0,1-.09.21l-1.53.74a.15.15,0,0,1-.23-.09,2.43,2.43,0,0,0-2.29-1.58,2.17,2.17,0,0,0-2.2,1.62,18.64,18.64,0,0,0,0,5.58,2.17,2.17,0,0,0,2.2,1.62,2.43,2.43,0,0,0,2.29-1.58.15.15,0,0,1,.23-.09l1.53.73a.16.16,0,0,1,.09.22,4.31,4.31,0,0,1-4.14,2.63,4.13,4.13,0,0,1-4.25-3A9.48,9.48,0,0,1,205.25,247.8Z"/><path class="cls-8" d="M216.83,251.17a17.37,17.37,0,0,1,0-6.74,4.65,4.65,0,0,1,8.66,0,17.91,17.91,0,0,1,0,6.74,4.65,4.65,0,0,1-8.66,0Zm6.61-.56a10,10,0,0,0,.21-2.81,9.94,9.94,0,0,0-.21-2.81,2.23,2.23,0,0,0-2.29-1.6,2.21,2.21,0,0,0-2.27,1.6,9.94,9.94,0,0,0-.21,2.81,10,10,0,0,0,.21,2.81,2.21,2.21,0,0,0,2.27,1.6A2.23,2.23,0,0,0,223.44,250.61Z"/><path class="cls-8" d="M236,253.92a.26.26,0,0,1-.27-.18L233.39,249h-2.11c-.07,0-.1,0-.1.11v4.66a.17.17,0,0,1-.18.18h-1.77a.17.17,0,0,1-.18-.18V241.86a.17.17,0,0,1,.18-.18H234a3.64,3.64,0,0,1,3.9,3.65,3.48,3.48,0,0,1-2.32,3.37l2.58,5a.14.14,0,0,1-.13.23Zm-.23-8.59a1.71,1.71,0,0,0-1.88-1.74h-2.61c-.07,0-.1,0-.1.1V247c0,.07,0,.11.1.11h2.61A1.71,1.71,0,0,0,235.77,245.33Z"/><path class="cls-8" d="M241.09,241.86a.17.17,0,0,1,.18-.18h1.66a.33.33,0,0,1,.31.18l5,8.44h.08v-8.44a.17.17,0,0,1,.18-.18H250a.17.17,0,0,1,.18.18v11.88a.17.17,0,0,1-.18.18H248.4a.3.3,0,0,1-.3-.18l-5-8.43H243v8.43a.17.17,0,0,1-.18.18h-1.57a.17.17,0,0,1-.18-.18Z"/><path class="cls-8" d="M253.82,241.86a.17.17,0,0,1,.18-.18h7.67a.17.17,0,0,1,.18.18v1.54a.18.18,0,0,1-.18.19h-5.62c-.07,0-.11,0-.11.1v3a.1.1,0,0,0,.11.11h4.74a.17.17,0,0,1,.18.18v1.55a.17.17,0,0,1-.18.18h-4.74a.1.1,0,0,0-.11.11v3.09a.1.1,0,0,0,.11.11h5.62a.17.17,0,0,1,.18.18v1.55a.17.17,0,0,1-.18.18H254a.17.17,0,0,1-.18-.18Z"/><path class="cls-8" d="M265,241.86a.17.17,0,0,1,.18-.18h1.76a.17.17,0,0,1,.18.18v10a.1.1,0,0,0,.11.11h5.62a.17.17,0,0,1,.18.18v1.55a.17.17,0,0,1-.18.18h-7.67a.17.17,0,0,1-.18-.18Z"/><path class="cls-8" d="M275.69,241.86a.17.17,0,0,1,.18-.18h1.76a.17.17,0,0,1,.18.18v10a.1.1,0,0,0,.11.11h5.62a.17.17,0,0,1,.18.18v1.55a.17.17,0,0,1-.18.18h-7.67a.17.17,0,0,1-.18-.18Z"/><path class="cls-8" d="M294.07,253.92a.17.17,0,0,1-.18-.18V243.69c0-.07,0-.1-.11-.1h-3.2a.18.18,0,0,1-.18-.19v-1.54a.17.17,0,0,1,.18-.18h8.75a.17.17,0,0,1,.18.18v1.54a.18.18,0,0,1-.18.19h-3.21c-.07,0-.11,0-.11.1v10.05a.17.17,0,0,1-.18.18Z"/><path class="cls-8" d="M302.15,241.86a.17.17,0,0,1,.18-.18H310a.17.17,0,0,1,.18.18v1.54a.18.18,0,0,1-.18.19h-5.62c-.07,0-.11,0-.11.1v3a.1.1,0,0,0,.11.11h4.74a.17.17,0,0,1,.18.18v1.55a.17.17,0,0,1-.18.18h-4.74a.1.1,0,0,0-.11.11v3.09a.1.1,0,0,0,.11.11H310a.17.17,0,0,1,.18.18v1.55a.17.17,0,0,1-.18.18h-7.67a.17.17,0,0,1-.18-.18Z"/><path class="cls-8" d="M313,247.8a9.49,9.49,0,0,1,.32-3.31,4.13,4.13,0,0,1,4.25-3,4.31,4.31,0,0,1,4.14,2.63.15.15,0,0,1-.09.21l-1.53.74a.15.15,0,0,1-.23-.09,2.42,2.42,0,0,0-2.29-1.58,2.16,2.16,0,0,0-2.19,1.62,17.8,17.8,0,0,0,0,5.58,2.16,2.16,0,0,0,2.19,1.62,2.42,2.42,0,0,0,2.29-1.58.15.15,0,0,1,.23-.09l1.53.73a.16.16,0,0,1,.09.22,4.31,4.31,0,0,1-4.14,2.63,4.13,4.13,0,0,1-4.25-3A9.56,9.56,0,0,1,313,247.8Z"/><path class="cls-8" d="M324.56,241.86a.17.17,0,0,1,.18-.18h1.76a.17.17,0,0,1,.18.18v4.82a.1.1,0,0,0,.11.11h4.67c.07,0,.1,0,.1-.11v-4.82a.17.17,0,0,1,.18-.18h1.77a.17.17,0,0,1,.18.18v11.88a.17.17,0,0,1-.18.18h-1.77a.17.17,0,0,1-.18-.18v-4.93c0-.08,0-.11-.1-.11h-4.67a.1.1,0,0,0-.11.11v4.93a.17.17,0,0,1-.18.18h-1.76a.17.17,0,0,1-.18-.18Z"/><path class="cls-10" d="M38.21,338.67a.88.88,0,0,0-.07.27h.54a.44.44,0,0,1,.4-.28h0a1.66,1.66,0,0,1,.63.15h0l.2.08a1.38,1.38,0,0,0,.42.09h0a.78.78,0,0,0,.32-.05s0,0,.06-.05v0a.93.93,0,0,1,.05-.1.44.44,0,0,1,.18-.14h0l0,0v0s0,0,0-.07.08-.07.09-.09a4.14,4.14,0,0,1-.9.14,3.81,3.81,0,0,1-.75-.13,3.05,3.05,0,0,0-.61-.11A.76.76,0,0,0,38.21,338.67Zm4.18,3.92v-.09l-.46-.07v-.08a.68.68,0,0,0,0-.19l0-.14,0-.08.4-.24,0-.08-.44.11,0-.07-.09-.15-.24.49h0a.91.91,0,0,1,.06.16,1.46,1.46,0,0,1,.05.38,1.4,1.4,0,0,1-.35.94,1.45,1.45,0,0,1-.86.47h-.4a1.39,1.39,0,0,1-.87-.47,1.41,1.41,0,0,1-.36-.94,1.26,1.26,0,0,1,.06-.38.58.58,0,0,1,0-.14.08.08,0,0,1,0,0l-.23-.48,0,0a.64.64,0,0,0-.08.14l0,.07-.45-.11,0,.08.39.24,0,.08a1,1,0,0,0,0,.14l0,.19v.08l-.45.07v.09l.45.07v.08a1.94,1.94,0,0,0,.07.33l0,.08-.39.24,0,.08.45-.11,0,.07a1.26,1.26,0,0,0,.19.28l0,.06-.27.38.06.06.37-.27.06.05a2.2,2.2,0,0,0,.28.18l.08,0-.11.45.08,0,.24-.39.08,0a1.21,1.21,0,0,0,.33.07H40l.07.45h.08l.08-.45h.08a1.3,1.3,0,0,0,.33-.07l.08,0,.24.39.08,0-.11-.45.07,0a1.67,1.67,0,0,0,.28-.18l.07-.05.37.27.06-.06-.27-.38.05-.06a2.75,2.75,0,0,0,.19-.28l0-.07.44.11,0-.08-.4-.24,0-.08a1.91,1.91,0,0,0,.06-.33v-.08Zm-.28-.43s0,.06,0,.09l.47.07v.45l-.47.07a1.6,1.6,0,0,1-.05.21l.41.25-.17.42-.47-.11a1.63,1.63,0,0,1-.11.17l.28.39-.32.32-.39-.29a.88.88,0,0,1-.17.12l.1.47-.41.17-.25-.41-.21,0-.07.48h-.45l-.08-.48-.21,0-.25.41-.41-.17.11-.47-.18-.12-.39.28-.31-.31.28-.39-.12-.18-.47.11-.17-.41.41-.25a1.55,1.55,0,0,1,0-.21l-.48-.07v-.45l.47-.07s0-.06,0-.09l0-.12-.41-.26.17-.41.47.11.15-.21-.18-.37.19-.13L39,342a.43.43,0,0,0-.13.23.94.94,0,0,0,0,.31,1.22,1.22,0,0,0,1,1.2h.33a1.23,1.23,0,0,0,.74-.4,1.22,1.22,0,0,0,.3-.8,1.49,1.49,0,0,0,0-.21l0-.06h0a.57.57,0,0,0-.06-.12l-.08-.08,0-.07.59-1.23.19.13-.19.39,0,0a1.4,1.4,0,0,1,.1.16l.47-.1.17.41-.41.25Zm-1.6,0,1.18-2.6h-2.1l.18.36h1.32l0,0-1,2.11-1.22-2.5h-.45l1.26,2.59.42.87Zm-.86-2-.37-.76h2.58l.12.05-1.24,2.73v0l-.61,1.34,0-.05-.62-1.29-1.36-2.79H39l1.07,2.23.68-1.49Zm-.7-1H38l-.09-.15a1.18,1.18,0,0,1,.11-.44.94.94,0,0,1,.86-.47,2.86,2.86,0,0,1,.64.11h0a3.83,3.83,0,0,0,.72.12,3,3,0,0,0,1-.2h.06s.12-.07.14,0,0,.14,0,.14h0a.37.37,0,0,1-.07.14.29.29,0,0,1-.11.11s0,0-.06.08l0,.07,0,0,0,.06a.38.38,0,0,1-.11.07.26.26,0,0,0-.11.08.08.08,0,0,0,0,.05h0v0a.36.36,0,0,1-.15.15,1,1,0,0,1-.41.07h0a1.75,1.75,0,0,1-.48-.09l-.19-.08,0,0a1.4,1.4,0,0,0-.56-.14.21.21,0,0,0-.2.12A.77.77,0,0,0,39,339.15Zm5.62,1.61a.38.38,0,0,1-.08.23c-.07.11-.24.29-.33.41h.36a0,0,0,0,1,0,0v.15a0,0,0,0,1,0,0h-.83a0,0,0,0,1,0,0v0c.12-.14.43-.49.55-.65a.25.25,0,0,0,.06-.14c0-.06-.07-.12-.19-.12a.31.31,0,0,0-.2.09h-.06l-.13-.11a0,0,0,0,1,0-.05.65.65,0,0,1,.42-.17C44.4,340.41,44.57,340.57,44.57,340.76Zm-1.23-.34a0,0,0,0,1,0,0v1.13a0,0,0,0,1,0,0h-.23a0,0,0,0,1,0,0v-.79h-.2s0,0,0,0v-.11s0,0,0,0l.3-.21ZM36.8,341a.17.17,0,1,0-.2-.17A.19.19,0,0,0,36.8,341Zm0-.58a.46.46,0,0,1,.5.48.87.87,0,0,1-.7.78.09.09,0,0,1-.07,0l-.06-.14s0,0,0-.05.38-.11.42-.29a.65.65,0,0,1-.19,0,.4.4,0,0,1-.42-.39A.45.45,0,0,1,36.8,340.4Zm-.85,0a0,0,0,0,1,0,0v1.13a0,0,0,0,1,0,0h-.23a0,0,0,0,1,0,0v-.79h-.2a0,0,0,0,1,0,0v-.11l0,0,.3-.21Zm7.74-2s0-.05,0-.06l1.36-.71a0,0,0,0,1,0,0l0,0-.35,1.2h0l.71-.38a0,0,0,0,1,.06,0l.12.24s0,.05,0,.06l-1.36.7s0,0-.05,0l0,0s0,0,0,0l.38-1.21h0l-.75.39a0,0,0,0,1-.06,0Zm-.57-1.66a.44.44,0,0,0,0,.63.45.45,0,1,0,0-.63Zm-.2.9a.8.8,0,0,1-.07-1.14.81.81,0,1,1,.07,1.14Zm-1.14-.76a0,0,0,0,1,0-.06l.65-1.34a0,0,0,0,1,.06,0l.25.11a0,0,0,0,1,0,.06L42.08,337a0,0,0,0,1,0,0Zm-3.34-.17a0,0,0,0,1,0,0l-.3-1.47s0,0,0-.05l.27-.05s0,0,0,0l.11.56.64-.13-.12-.56a.05.05,0,0,1,0,0l.26-.05s.05,0,.05,0l.3,1.47a0,0,0,0,1,0,.05l-.27,0s0,0-.05,0l-.12-.58-.63.13.12.58a.05.05,0,0,1,0,.05Zm1.67-.26a0,0,0,0,1,0,0l.26-1.49a.05.05,0,0,1,0,0h.06l.74,1h0l.14-.79s0,0,.05,0l.27.05a0,0,0,0,1,0,.05l-.26,1.5a.05.05,0,0,1-.05,0H41.3l-.72-1h0l-.15.83s0,0,0,0Zm-2.38.67a.83.83,0,0,1-1.13-.26.82.82,0,0,1,.27-1.13.78.78,0,0,1,.57-.11s.05,0,0,.06l0,.24s0,0,0,0a.45.45,0,0,0-.32.07.46.46,0,0,0,.49.78.45.45,0,0,0,.2-.25,0,0,0,0,1,0,0l.25.07s0,0,0,0A.78.78,0,0,1,37.73,337.13Zm-1.52,1.27-1.14-1s0,0,0-.06l.61-.71s0,0,.06,0l.19.16a0,0,0,0,1,0,.06l-.41.47.22.19.33-.39a0,0,0,0,1,.06,0l.19.16a.06.06,0,0,1,0,.07l-.34.39.23.2.41-.48a0,0,0,0,1,.06,0l.19.16a0,0,0,0,1,0,.06l-.61.71S36.22,338.42,36.21,338.4Zm-.29.51a0,0,0,0,1,0,.06l-.12.24a0,0,0,0,1-.06,0l-1.09-.53-.14.29a0,0,0,0,1-.06,0l-.22-.1a0,0,0,0,1,0-.06l.44-.9a0,0,0,0,1,.06,0l.22.1a0,0,0,0,1,0,.06l-.14.29Zm7,3.26-.1-.22H45v-1.84H42.23l.1-.23H43.5a3.71,3.71,0,0,0-7.06,0h1.34l.1.23h-3V342h2.18l-.1.22-1.42.21a4.67,4.67,0,0,0,8.85,0Zm-9.36-1.28A6.15,6.15,0,0,0,33.7,342H34v-1.84h-.32A6.53,6.53,0,0,0,33.61,340.89Zm9.84,4.93-.22-.66h0l.6.77a2.78,2.78,0,0,0,.33-.27l-1-1a5,5,0,0,1-2.57,1.15l.14,1.39.41-.07-.19-1h0l.37.6.08.32a6.47,6.47,0,0,0,2.17-1Zm2.17-2a7.18,7.18,0,0,0,.47-1.19l-1.39-.21a4.87,4.87,0,0,1-.58,1.19l1.14.8c.08-.12.16-.24.23-.36l-.88-.49h0l.69.11Zm-1.25,1.65.3-.3-1.06-.91-.2.2ZM34.25,342h.39v-1.84h-.39Zm5.83,3.88v1.4l.43,0-.15-1.4Zm-.55,0-.14,1.39c.14,0,.28,0,.42,0v-1.41Zm-4.7-1.19.26.33,1.08-.92-.17-.22Zm.44.54.29.3,1-1-.19-.2Zm9.58-.2a2.91,2.91,0,0,0,.26-.33L44,343.84l-.17.22Zm.46-3h.38v-1.84h-.38Zm-10,.47-1.43.21a5.48,5.48,0,0,0,.47,1.18l.28-.14.69-.11h0l-.85.48c.07.12.14.24.22.36l1.17-.82A4.44,4.44,0,0,1,35.29,342.42Zm3.6,3.72h0l-.19,1,.42.07.14-1.4a4.93,4.93,0,0,1-2.52-1.16l-1,1,.32.27.59-.75h0l-.21.67-.17.24a6.3,6.3,0,0,0,2.14,1l.08-.3ZM46,342h.28a7.33,7.33,0,0,0,.09-1.06,6.53,6.53,0,0,0-.05-.78H46Zm-6-7.41a6.38,6.38,0,0,0-6.28,5.34h2.45a4,4,0,0,1,7.65,0h2.47A6.38,6.38,0,0,0,40,334.54Zm0-.33a6.68,6.68,0,1,1-6.69,6.68A6.69,6.69,0,0,1,40,334.21Z"/><g class="cls-11"><rect class="cls-2" x="32.72" y="287.47" width="19.53" height="75.11"/><g class="cls-12"><rect class="cls-2" x="29.52" y="330.46" width="20.9" height="20.86"/></g></g><path class="cls-10" d="M46.67,355.91a6.7,6.7,0,1,0-6.7,6.68A6.7,6.7,0,0,0,46.67,355.91Zm-.17,0a6.53,6.53,0,1,1-6.53-6.5A6.52,6.52,0,0,1,46.5,355.91Zm-.33-.11-.35-.17.33-.21,0-.29-.57.38-.38,0,0,.25.38,0,.6.31Zm-.3-.95.2-.05-.18-.74-.2.05.06.25-.74.18.06.24.74-.18Zm-1-.81.9-.36-.1-.23-.9.37Zm.36-1,.2-.09v0a.64.64,0,0,0-.09-.21.3.3,0,0,0-.44-.14.32.32,0,0,0-.12.37c0,.09,0,.14,0,.17s-.11,0-.14-.07a.37.37,0,0,1-.05-.18v-.06l-.22.11v0a.69.69,0,0,0,.09.2.34.34,0,0,0,.29.2.32.32,0,0,0,.16,0A.32.32,0,0,0,45,353c0-.09,0-.14,0-.16h0a.1.1,0,0,1,.08.06.38.38,0,0,1,.06.16Zm-.57-.83c.21-.18,0-.37-.08-.51l-.16-.18-.73.64.16.18.28-.25,0,0a.09.09,0,0,1,0,.12l-.16.29.18.2.2-.39a.29.29,0,0,0,0-.08A.25.25,0,0,0,44.64,352.26Zm-.15-.23s0,0,0,.05a.09.09,0,0,1-.06,0s-.08-.05-.11-.08l0,0,.13-.12,0,0S44.49,352,44.49,352Zm-.59-.65.12-.16-.46-.37-.6.77.47.36.13-.16-.28-.22.12-.14.25.19.13-.16-.25-.2.09-.12Zm-1.44-.06.73-.72-.23-.11-.47.47.11-.66-.24-.11-.14,1Zm-.78-.34.29-.92-.24-.08-.29.93Zm-.57-.17.13-1-.24,0-.07.56-.21-.6-.27,0-.13,1,.23,0,.08-.56.21.6ZM40,351a4.88,4.88,0,1,0,4.9,4.88A4.9,4.9,0,0,0,40,351Zm4.73,4.88A4.73,4.73,0,1,1,40,351.2,4.72,4.72,0,0,1,44.7,355.91Zm-1.53.92v-4.22H36.83v4.14a3.52,3.52,0,0,0,1.57,2.7,6.9,6.9,0,0,0,1.55.93l0,0,.06,0a7.74,7.74,0,0,0,1.54-.93A3.45,3.45,0,0,0,43.17,356.83Zm-3.05-.64.05,0a1.23,1.23,0,0,1,.26,0l.22,0,.34,0h.31v2h-.22l-.42,0-.4,0a.26.26,0,0,0-.14,0Zm-3-.84h2.73v.6a.94.94,0,0,0-.31,0l-.23,0L39,356h-.54v.58h-.26v.31h.26v.58h-.26v.31h.26v.64h.45c.19,0,.33,0,.45,0l.37,0s.07,0,.1.06l0,0V360c-.66-.32-2.73-1.48-2.73-3.26Zm2.62,2.8h0l-.39,0-.43,0H38.7v-2H39l.34,0,.22,0a1.23,1.23,0,0,1,.26,0h0v2Zm3.12-3.1H37.13v-2.14h5.74Zm0,1.78c0,1.73-2.13,2.9-2.75,3.2v-1.57l0,0a.14.14,0,0,1,.11-.06l.38,0a4.13,4.13,0,0,0,.44,0h.45v-.59h.25v-.31h-.25v-.57h.25v-.31h-.25V356H41l-.31,0-.23,0a1.28,1.28,0,0,0-.33,0h0v-.6h2.75Zm-4.94-3.59c0,.35,0,.94,0,1s.08.23.24.33.48.3.49.3l.06,0,.06,0s.32-.18.51-.31a.44.44,0,0,0,.24-.33v-1.08h-1.6Zm1.37.4H38.15v-.29H39.3Zm-1.15.23H39.3v.33c0,.06-.07.11-.13.15s-.35.21-.45.27l-.42-.27c-.09-.06-.15-.12-.15-.16Zm2.46-.68v1a.48.48,0,0,0,.25.33c.2.14.5.31.51.32l.06,0,0,0s.33-.18.53-.32.24-.29.24-.34v-1.1H40.61Zm.23.92.57-.41.62.41s0,.06,0,.07-.07.12-.13.16l-.46.27-.44-.27s-.15-.11-.15-.17Zm0-.8H42c0,.17,0,.37,0,.53l-.63-.41-.56.4Zm-1.2,3.94V357H39v.23h.33l.19,0h.16Zm0-.62v-.22H39v.23h.33l.19,0h.16Zm-.36,1.05H39v.23h.33l.19,0h.16v-.22h-.18Zm1.15-1.27h-.08v.22h0l.1,0H41v-.22h-.33l-.17,0Zm.61.88v-.22h-.33l-.16,0h-.2v.22H41Zm-.61.36h-.08v.22H41v-.22h-.33l-.16,0Zm-.56-7a.37.37,0,0,0,.07-.28l0-.61-.24,0,0,.55c0,.2-.06.23-.13.23h0c-.06,0-.14,0-.15-.2l0-.56-.24,0,0,.61a.33.33,0,0,0,.37.34h.06A.41.41,0,0,0,39.87,350.62Zm-1.89.49.56-.2-.07-.2-.33.12-.26-.72-.23.09Zm-.26.11-.1-.19-.3.17-.38-.66-.21.12.48.85Zm-1.33.39.25-.2-.13-.16-.25.2-.1-.12.27-.22L36.3,351l-.46.37.61.75.47-.37-.14-.17-.27.22Zm-.2.7-.74-.62-.16.19.44.36-.62-.14-.18.21.75.62.16-.19-.45-.36.63.14Zm-1.3.57a.25.25,0,0,0-.14,0c-.15,0-.24.16-.31.3l-.11.21.85.45.12-.21-.33-.18v0c0-.06.05-.05.11-.05l.32,0,.13-.24-.43,0H35A.22.22,0,0,0,34.89,352.88Zm-.06.28s0,.09,0,.13v0l-.15-.08v0c0-.08.08-.13.15-.1A.1.1,0,0,1,34.83,353.16Zm-.41.76a.43.43,0,0,0-.44.34.46.46,0,0,0,.35.59l.18,0a.43.43,0,0,0,.43-.34.42.42,0,0,0,0-.35.5.5,0,0,0-.32-.24Zm0,.25a.25.25,0,0,1,.12,0,.3.3,0,0,1,.21.14.17.17,0,0,1,0,.14.2.2,0,0,1-.21.15l-.13,0c-.13,0-.26-.13-.22-.29A.21.21,0,0,1,34.4,354.17Zm-.34,1-.23,0v0a.5.5,0,0,0,0,.21.47.47,0,0,0,.48.55h0a.47.47,0,0,0,.48-.5.86.86,0,0,0,0-.21v0h-.24l0,.05a.9.9,0,0,1,0,.18.27.27,0,0,1-.31.25.26.26,0,0,1-.27-.28.3.3,0,0,1,.05-.17Zm.82,1.87-.93.27.07.24.38-.11.08.29.2-.06-.08-.29.15,0,.09.31.2-.06Zm-.5,1.22a.46.46,0,0,0,0,.36.46.46,0,0,0,.41.27.59.59,0,0,0,.25-.07.54.54,0,0,0,.28-.28.46.46,0,0,0,0-.36.43.43,0,0,0-.4-.27.57.57,0,0,0-.25.06A.49.49,0,0,0,34.38,358.28Zm.21.11a.33.33,0,0,1,.18-.17.38.38,0,0,1,.17,0,.17.17,0,0,1,.18.11.2.2,0,0,1,0,.15.33.33,0,0,1-.18.17.41.41,0,0,1-.18.05.19.19,0,0,1-.18-.12A.2.2,0,0,1,34.59,358.39Zm.6.86a.34.34,0,0,0-.15.26.41.41,0,0,0,.11.29.39.39,0,0,0,.3.18.42.42,0,0,0,.24-.1l.48-.38-.15-.19-.44.34c-.11.09-.2.1-.27,0a.22.22,0,0,1,0-.1.29.29,0,0,1,.11-.16l.44-.34-.16-.2Zm1.21.49-.61.75.18.15.37-.45-.14.63.21.18.62-.75-.19-.16-.36.45.14-.63Zm.91.69-.44.86.25.13a.75.75,0,0,0,.33.09.43.43,0,0,0,.39-.28c.14-.28,0-.51-.28-.68Zm-.12.79.25-.5.06,0a.29.29,0,0,1,.13.16.26.26,0,0,1,0,.21.27.27,0,0,1-.24.16l-.12,0Zm1.16-.33-.25.94.58.15,0-.2-.34-.09,0-.18.31.08,0-.2-.31-.08,0-.15.34.09.06-.2Zm.9.22,0,1h.34a.45.45,0,0,0,.52-.45.48.48,0,0,0-.11-.35.55.55,0,0,0-.42-.17Zm.21.77,0-.55h.06a.27.27,0,0,1,.25.29.25.25,0,0,1-.28.26Zm1.45-.83-.16,1L41,362l0-.22.32-.06.11.18.27-.06-.57-.86Zm.15.53,0-.25.13.22Zm1-.11-.24.08.09.23.23-.08Zm0-.77.46.86.25-.14c.32-.17.41-.4.26-.69s-.4-.33-.72-.16Zm.32.07.06,0a.28.28,0,0,1,.13,0,.27.27,0,0,1,.23.14.26.26,0,0,1-.1.37l-.06,0Zm1,0-.21.15.14.2.21-.14Zm.14-.71.21,0,0-.16.46.47.18-.18-.68-.69-.15.15Zm.84-.57a.3.3,0,0,0,.1.24.32.32,0,0,0,.17.06.36.36,0,0,0,.28-.17.37.37,0,0,0,.09-.27.36.36,0,0,0-.12-.18.28.28,0,0,0-.28,0,.29.29,0,0,0-.1-.22c-.13-.09-.29,0-.41.12a.29.29,0,0,0,0,.42A.26.26,0,0,0,44.4,359.45Zm.21-.1c.07,0,.12-.05.16,0s0,0,0,.06a.19.19,0,0,1,0,.07.11.11,0,0,1-.14,0S44.6,359.42,44.61,359.35Zm-.16-.15a.21.21,0,0,1-.1,0h0c-.05,0,0-.1,0-.13a.06.06,0,0,1,.06,0l.05,0A.11.11,0,0,1,44.45,359.2Zm.52-.46a.71.71,0,0,0,.28.08.29.29,0,0,0,.28-.18.32.32,0,0,0-.17-.46.29.29,0,0,0-.41.13.16.16,0,0,0,0,.13.17.17,0,0,1-.07-.22.36.36,0,0,1,.1-.11l0,0L44.8,358l0,0a.61.61,0,0,0-.12.16.35.35,0,0,0,0,.28A.68.68,0,0,0,45,358.74Zm.13-.25a.13.13,0,0,1,0-.06.08.08,0,0,1,.07,0,.16.16,0,0,1,.09,0,.19.19,0,0,1,.08.07.06.06,0,0,1,0,.06.09.09,0,0,1-.08.05l-.08,0A.18.18,0,0,1,45.1,358.49Zm.52-.71,0,0,.23.07v0a1.13,1.13,0,0,0,.09-.2.38.38,0,0,0,0-.3.34.34,0,0,0-.2-.17.32.32,0,0,0-.41.22s0,0,0,.05l-.11,0,.1-.33-.2-.06-.16.56.54.17v0a.39.39,0,0,1,0-.15s.06-.16.16-.13a.14.14,0,0,1,.08.19A.54.54,0,0,1,45.62,357.78Z"/><g class="cls-13"><rect class="cls-2" x="32.72" y="287.47" width="19.53" height="75.11"/><g class="cls-12"><rect class="cls-2" x="29.52" y="345.48" width="20.9" height="20.86"/></g></g><path class="cls-10" d="M46.77,327.71c0,.5-.44.79-1,.79a1.42,1.42,0,0,1-1-.34l.35-.33a1,1,0,0,0,.67.22c.32,0,.49-.12.49-.32a.27.27,0,0,0-.08-.22.45.45,0,0,0-.25-.09l-.33-.05a1,1,0,0,1-.54-.21.66.66,0,0,1-.2-.51c0-.46.37-.78,1-.78a1.19,1.19,0,0,1,.89.3l-.34.31a.83.83,0,0,0-.57-.18c-.29,0-.43.15-.43.33a.25.25,0,0,0,.09.19.59.59,0,0,0,.25.1l.33,0a1,1,0,0,1,.53.2A.69.69,0,0,1,46.77,327.71Zm-2.92,0c0-.17-.11-.31-.36-.31h-.56V328h.56C43.74,328,43.85,327.88,43.85,327.7Zm0-1.06c0-.18-.12-.3-.35-.3h-.53v.59h.53C43.69,326.93,43.81,326.81,43.81,326.64Zm.58,1.09a.74.74,0,0,1-.84.74H42.39v-2.58H43.5c.54,0,.86.28.86.72a.61.61,0,0,1-.35.54A.59.59,0,0,1,44.39,327.73Zm-3.09-.55c0-.5,0-.62-.14-.73a.48.48,0,0,0-.34-.13.51.51,0,0,0-.36.13c-.1.11-.13.23-.13.73s0,.62.13.73a.51.51,0,0,0,.36.14.48.48,0,0,0,.34-.14C41.27,327.8,41.3,327.68,41.3,327.18Zm.54,0c0,.45,0,.77-.28,1a1,1,0,0,1-.74.29,1.08,1.08,0,0,1-.76-.29c-.28-.26-.27-.58-.27-1s0-.77.27-1a1.08,1.08,0,0,1,.76-.28,1,1,0,0,1,.74.28C41.84,326.41,41.84,326.73,41.84,327.18Zm-2.46.5a1,1,0,0,1-1,.82,1.09,1.09,0,0,1-.75-.29c-.28-.26-.27-.58-.27-1s0-.77.27-1a1.09,1.09,0,0,1,.75-.28,1,1,0,0,1,1,.81h-.55a.45.45,0,0,0-.47-.36.46.46,0,0,0-.34.13c-.11.11-.14.23-.14.73s0,.62.14.73a.43.43,0,0,0,.34.14.44.44,0,0,0,.47-.37Zm-3.14-.09-.33-.94-.35.94Zm.88.88h-.57l-.16-.45h-1l-.16.45h-.57l1-2.58h.43Zm-2.71-.85a.89.89,0,0,1-1,.88,1,1,0,0,1-.71-.27l.36-.33a.46.46,0,0,0,.35.15.4.4,0,0,0,.44-.45v-1.71h.54ZM51.69,332H49.87v-2.58h1.82v.45H50.41v.6H51.5v.45H50.41v.63h1.28Zm-2.27-2.13v-.45h-2v.45h.72V332h.55v-2.13ZM47,331.08v-1.7h-.53v1.68a.49.49,0,0,1-1,0v-1.68H45v1.7a1,1,0,0,0,2,0Zm-2.46-1.25v-.45h-2v.45h.72V332h.54v-2.13Zm-3,2.13h.55v-2.58h-.55Zm-.44-2.13v-.45h-2v.45h.72V332h.54v-2.13Zm-2.33,1.37a.69.69,0,0,0-.22-.55.93.93,0,0,0-.53-.2l-.33,0a.59.59,0,0,1-.25-.1.24.24,0,0,1-.08-.19c0-.18.14-.33.42-.33a.83.83,0,0,1,.57.18l.35-.31a1.24,1.24,0,0,0-.9-.31c-.6,0-1,.33-1,.79a.68.68,0,0,0,.2.51,1,1,0,0,0,.54.21l.33.05a.37.37,0,0,1,.25.09.27.27,0,0,1,.09.22c0,.2-.18.32-.49.32a1,1,0,0,1-.67-.22l-.35.32a1.35,1.35,0,0,0,1,.35C38.34,332,38.79,331.7,38.79,331.2Zm-2.47.76v-2.58h-.54V331l-1.1-1.58H34.2V332h.54v-1.58l1.1,1.58ZM33,332h.54v-2.58H33Z"/><g class="cls-14"><rect class="cls-2" x="32.72" y="287.47" width="19.53" height="75.11"/><g class="cls-12"><rect class="cls-2" x="28.97" y="322.11" width="26.48" height="13.63"/></g></g><rect class="cls-2" x="33.28" y="321.41" width="13.39" height="0.28"/><g class="cls-15"><rect class="cls-2" x="32.72" y="287.47" width="19.53" height="75.11"/><g class="cls-12"><rect class="cls-2" x="29.52" y="317.66" width="20.9" height="7.79"/></g></g><path class="cls-10" d="M47.23,324.74v-.11H46.4V324h.71v-.11H46.4v-.65h.83v-.11h-.95v1.64Zm-1.48,0V323.1h-.12v.76h-.82v-.76h-.12v1.64h.12V324h.82v.77Zm-1.46-1.53v-.11h-1v.11h.47v1.53h.12v-1.53Zm-1.75,0v-.11h-1v1.64h.12V324h.71v-.11H41.7v-.67Zm-1.55.71c0,.35,0,.48-.12.6a.44.44,0,0,1-.6,0c-.11-.12-.12-.25-.12-.6s0-.48.12-.6a.41.41,0,0,1,.6,0C41,323.44,41,323.57,41,323.92Zm.12,0c0-.37,0-.52-.15-.67a.53.53,0,0,0-.78,0c-.15.15-.15.3-.15.67s0,.51.15.66a.53.53,0,0,0,.78,0C41.1,324.43,41.11,324.29,41.11,323.92Zm-2,.82v-.11h-.83V324H39v-.11h-.71v-.65h.83v-.11h-.95v1.64Zm-1.48,0V323.1h-.11L37,324.36l-.54-1.26h-.12v1.64h.12v-1.35l.48,1.12h.12l.48-1.12v1.35Zm-1.91-.82c0,.35,0,.48-.12.6a.43.43,0,0,1-.6,0c-.11-.12-.12-.25-.12-.6s0-.48.12-.6a.41.41,0,0,1,.6,0C35.76,323.44,35.77,323.57,35.77,323.92Zm.12,0c0-.37,0-.52-.15-.67a.53.53,0,0,0-.78,0c-.15.15-.15.3-.15.67s0,.51.15.66a.53.53,0,0,0,.78,0C35.89,324.43,35.89,324.29,35.89,323.92Zm-1.56.82V323.1h-.11v.76H33.4v-.76h-.12v1.64h.12V324h.82v.77Z"/><g class="cls-16"><rect class="cls-2" x="32.72" y="287.47" width="19.53" height="75.11"/><g class="cls-12"><rect class="cls-2" x="29.52" y="319.33" width="21.46" height="9.18"/></g></g><path class="cls-10" d="M39,317.69a2,2,0,0,1-.61,1.5c-.56.57-1.26.56-2.23.56s-1.66,0-2.22-.56a2,2,0,0,1-.61-1.5,2,2,0,0,1,1.76-2.06v1.11a.92.92,0,0,0-.79.94.91.91,0,0,0,.29.7c.23.21.5.27,1.57.27s1.34-.06,1.58-.27a.91.91,0,0,0,.29-.7.93.93,0,0,0-.79-.94v-1.11A2,2,0,0,1,39,317.69Zm-4.45-5.37a.9.9,0,0,0-.3.7.94.94,0,0,0,.3.71c.24.21.5.27,1.58.27s1.33-.06,1.57-.27A.94.94,0,0,0,38,313a.9.9,0,0,0-.3-.7c-.24-.22-.5-.28-1.57-.28S34.79,312.1,34.55,312.32Zm3.81-.82a2.2,2.2,0,0,1,0,3c-.57.57-1.27.55-2.23.55s-1.67,0-2.24-.55a2.2,2.2,0,0,1,0-3,2.88,2.88,0,0,1,2.24-.56A2.87,2.87,0,0,1,38.36,311.5Zm-4.06-3.44v1h1.48v-1a.74.74,0,1,0-1.48,0Zm4.63-.85-2.24,1.09v.79h2.24v1.1h-5.6V308A1.68,1.68,0,0,1,35,306.17a1.51,1.51,0,0,1,1.47,1l2.42-1.25ZM33.33,301h5.6v1l-3.44,2.23h3.44v1.09h-5.6v-1L36.75,302H33.33ZM38,296.26h1V300h-5.6v-3.7h1v2.6h1.32v-2.21h1v2.21H38Zm0-4.51h1v3.64h-5.6v-1.1H38Zm0-4.28h1v3.65h-5.6V290H38ZM41,315.67h1v1.47h4.62v1.09H42v1.47H41Zm4.63-4.42h1V315H41v-3.7h1v2.6h1.31v-2.21h1v2.21h1.36Zm1-2.69a2.1,2.1,0,0,1-.61,1.52c-.57.57-1.27.55-2.24.55s-1.66,0-2.23-.55a2.1,2.1,0,0,1-.61-1.52,2,2,0,0,1,1.77-2.06v1.11a.93.93,0,0,0-.8.95.91.91,0,0,0,.29.7c.24.21.51.27,1.58.27s1.35-.06,1.58-.27a.88.88,0,0,0,.3-.7.93.93,0,0,0-.8-.95V306.5A2,2,0,0,1,46.67,308.56ZM41,301.65h5.6v1.09H44.28v1.9h2.34v1.1H41v-1.1h2.29v-1.9H41Z"/><g class="cls-17"><rect class="cls-2" x="32.72" y="287.47" width="19.53" height="75.11"/><g class="cls-12"><rect class="cls-2" x="29.52" y="283.72" width="20.9" height="39.78"/></g></g></g></g></svg>