<?xml version="1.0" standalone="no"?>
<!DOCTYPE svg PUBLIC "-//W3C//DTD SVG 1.1//EN" "http://www.w3.org/Graphics/SVG/1.1/DTD/svg11.dtd">
<svg xmlns="http://www.w3.org/2000/svg"><metadata>This SVG WebFont was generated by YouWorkForThem.
</metadata><defs><font horiz-adv-x="1118" id="ywftsvg"><font-face ascent="1638" bbox="-358 -590 2241 1829" cap-height="1290" descent="-410" font-family="" font-stretch="normal" font-weight="250" panose-1="0 0 3 0 0 0 0 0 0 0" underline-position="0" underline-thickness="0" unicode-range="U+0020-FB02" units-per-em="2048" x-height="901"/><missing-glyph d="M819 1638v-1996h-633v1996h633zM666 1505h-330v-65h129v-76h-131v-66h332v66h-134v76h134v65zM532 1247h-198v-207h332v68h-134v139zM465 1180v-72h-66v72h66zM666 985h-332v-65h131v-74h-131v-66h198v140h134v65zM666 866h-66v-133h-266v-67h332v200zM666 623h-201v-113 h67v47h68v-94h-201v160h-65v-226h332v226zM666 276h-332v-225h332v225zM600 211v-94h-201v94h201zM666 4h-332v-65h139l-139 -95v-65h332v65h-205l139 95h66v65z" horiz-adv-x="999"/><glyph d="M346 891v-10l223 18q-10 -33 -10 -82h-213v-676q0 -39 27.5 -61.5t55.5 -27.5t95 -13q20 -2 31 -4v-35h-504v35q6 0 29.5 4t30 6t25 6t24.5 8t17 12.5t15.5 17.5t8.5 22.5t4 29.5v676h-154v39l154 31q6 231 152.5 376.5t379.5 145.5q258 0 258 -123v-6q0 -35 -27.5 -60.5 t-64.5 -25.5q-35 0 -61.5 24.5t-28.5 59.5q0 76 -84 76q-164 0 -273.5 -121t-109.5 -342zM987 141q0 -33 8.5 -52t35 -30.5t37.5 -13.5t54 -10v-35h-403v35q43 8 54 10t38 13.5t35 31t8 51.5v514q0 61 -25.5 90t-109.5 39v31q74 12 120 38t105 81l43 -39v-754z" glyph-name="uniFB01" horiz-adv-x="1183" unicode="fi"/><glyph d="M963 141q0 -16 4 -29.5t9 -22.5t16.5 -17.5t18.5 -12.5t24.5 -9t24.5 -6t27.5 -5t24.5 -4v-35h-432v35q4 0 24.5 4t27.5 5t24.5 6t24.5 9t18.5 12.5t16.5 17.5t9 22.5t4 29.5v1008q0 78 -63.5 124t-177.5 46q-117 0 -179.5 -65.5t-62.5 -249.5v-123l254 18 q-10 -33 -10 -82h-244v-676q0 -39 27.5 -61.5t55.5 -27.5t95 -13q20 -2 31 -4v-35h-504v35q6 0 29.5 4t30 6t25 6t24.5 8t17 12.5t15.5 17.5t8.5 22.5t4 29.5v676h-154v39l154 31v4q0 254 125 381t338 127q131 0 295 -58v-1200z" glyph-name="uniFB02" horiz-adv-x="1173" unicode="fl"/><glyph d="M1268 1430q129 0 176 -87q-6 -90 -82 -118q-49 123 -164 123q-78 0 -135 -70t-57 -244v-129l223 6h6h10q-10 -31 -10 -80h-229v-690q0 -39 27.5 -61.5t55 -27.5t95.5 -13q20 -2 30 -4v-35h-503v35q6 0 29.5 4t29.5 6t24.5 6t24.5 8t17.5 12.5t15.5 17.5t8 22.5t4 29.5 v690h-518v-690q0 -39 27.5 -61.5t55.5 -27.5t95 -13q20 -2 31 -4v-35h-504v35q6 0 29.5 4t30 6t25 6t24.5 8t17 12.5t15.5 17.5t8.5 22.5t4 29.5v690h-154v39l154 31h2q12 225 120.5 346t270.5 121q123 0 168 -86q-10 -92 -82 -119q-16 51 -60 86t-104 35q-68 0 -121 -68.5 t-53 -242.5v-84l518 12v6q0 256 108 389.5t296 133.5z" glyph-name="f_f.liga" horiz-adv-x="1310" unicode="ff"/><glyph d="M1399 1354q-162 0 -270.5 -117t-112.5 -332l227 6q-10 -31 -10 -80h-217v-690q0 -39 27.5 -61.5t55 -27.5t95.5 -13q20 -2 31 -4v-35h-504v35q6 0 29.5 4t29.5 6t24.5 6t25 8t17.5 12.5t15 17.5t8 22.5t4 29.5v690h-528v-690q0 -39 27.5 -61.5t55.5 -27.5t95 -13 q20 -2 31 -4v-35h-504v35q6 0 29.5 4t30 6t25 6t24.5 8t17 12.5t15.5 17.5t8.5 22.5t4 29.5v690h-154v39l154 31h2q12 227 118.5 347t266.5 120q121 0 168 -86q-10 -92 -82 -119q-16 51 -60.5 86t-103.5 35q-66 0 -117 -68.5t-51 -242.5v-84l528 14q10 223 156 364.5 t377 141.5q258 0 258 -123v-6q0 -35 -27.5 -60.5t-64.5 -25.5q-35 0 -61.5 24.5t-28.5 59.5q0 76 -84 76zM1657 141q0 -33 8 -52t34.5 -30.5t38 -13.5t54.5 -10v-35h-403v35q43 8 54 10t37.5 13.5t35 31t8.5 51.5v514q0 61 -25.5 90t-109.5 39v31q74 12 119.5 38t105.5 81 l43 -39v-754z" glyph-name="f_f_i.liga" horiz-adv-x="1853" unicode="ffi"/><glyph d="M819 1638v-1996h-633v1996h633zM666 1505h-330v-65h129v-76h-131v-66h332v66h-134v76h134v65zM532 1247h-198v-207h332v68h-134v139zM465 1180v-72h-66v72h66zM666 985h-332v-65h131v-74h-131v-66h198v140h134v65zM666 866h-66v-133h-266v-67h332v200zM666 623h-201v-113 h67v47h68v-94h-201v160h-65v-226h332v226zM666 276h-332v-225h332v225zM600 211v-94h-201v94h201zM666 4h-332v-65h139l-139 -95v-65h332v65h-205l139 95h66v65z" glyph-name=".notdef" horiz-adv-x="999"/><glyph glyph-name="glyph1" horiz-adv-x="0"/><glyph glyph-name="glyph2" horiz-adv-x="681"/><glyph glyph-name="space" horiz-adv-x="450" unicode=" "/><glyph d="M193 348l-74 875q-10 115 88 114.5t88 -114.5l-74 -875h-28zM227 -20q-43 0 -73.5 28.5t-30.5 71.5t30.5 71.5t73.5 28.5t75 -28.5t32 -71.5t-32 -71.5t-75 -28.5z" glyph-name="exclam" horiz-adv-x="415" unicode="!"/><glyph d="M137 795l-55 393q-6 41 13.5 71.5t47.5 30.5q39 0 60.5 -30.5t15.5 -71.5l-63 -393h-19zM379 795l-55 393q-6 41 13 71.5t48 30.5q39 0 60.5 -30.5t15.5 -71.5l-64 -393h-18z" glyph-name="quotedbl" horiz-adv-x="542" unicode="&quot;"/><glyph d="M1057 870h-203l-96 -424h205l-21 -84h-205l-96 -423h-90l98 423h-274l-96 -423h-91l99 423h-205l22 84h201l98 424h-206l22 84h203l98 422h88l-96 -422h272l99 422h88l-97 -422h205zM668 446l98 424h-274l-97 -424h273z" glyph-name="numbersign" horiz-adv-x="1161" unicode="#"/><glyph d="M932 362q0 -137 -115 -225t-276 -98v-166h-52v164q-180 4 -370 117l-17 235h41q35 -127 126 -211t220 -88v526l-26 13q-74 35 -122 63.5t-102.5 72.5t-82 99.5t-27.5 120.5q0 115 89 192.5t271 84.5v165h52v-165q43 -2 84 -8.5t67.5 -14.5t57 -21.5t44 -21.5t39 -23.5 t31.5 -19.5l6 -240h-36q-33 121 -106 202t-187 93v-454q4 -2 14 -7.5t16 -7.5q66 -31 94.5 -45t90 -53t92.5 -74t57.5 -89.5t26.5 -115.5zM274 1022q0 -74 53.5 -130t161.5 -112v430q-104 -2 -159.5 -55t-55.5 -133zM541 92q100 12 165.5 78t65.5 158q0 90 -58.5 149.5 t-172.5 114.5v-500z" glyph-name="dollar" horiz-adv-x="1024" unicode="$"/><glyph d="M1090 1290h114l-915 -1290h-99l820 1145q-86 -49 -187.5 -45t-201.5 57q14 -41 14 -96q0 -156 -95.5 -281t-230.5 -125q-94 0 -150.5 66.5t-56.5 175.5q0 152 100.5 273.5t235.5 121.5q61 0 103 -26v2q63 -35 108 -56.5t101.5 -43t100.5 -22.5t88 8t82 44t69 92zM346 711 q94 0 166 111.5t72 240.5q0 86 -35 133t-96 47q-66 0 -117 -61.5t-73.5 -142.5t-22.5 -160q0 -168 106 -168zM1071 633q92 0 144.5 -62.5t52.5 -169.5q0 -156 -95.5 -280.5t-228.5 -124.5q-94 0 -151.5 66.5t-57.5 175.5q0 152 100.5 273.5t235.5 121.5zM979 51 q96 0 167 110.5t71 241.5q0 86 -35 133.5t-95 47.5q-98 0 -156.5 -118t-58.5 -247q1 -168 107 -168z" glyph-name="percent" horiz-adv-x="1370" unicode="%"/><glyph d="M1026 131q43 -51 165 -28.5t214 94.5v-41q-68 -78 -173.5 -128.5t-189.5 -47.5q-20 0 -36.5 6t-34 21.5t-26.5 26.5t-30.5 38.5t-31.5 40.5q-172 -133 -400 -133q-145 0 -278 102t-133 266q0 242 307 385q-68 109 -68 205q0 141 96.5 228t229.5 87q96 0 163.5 -48 t67.5 -148q0 -197 -309 -371l10 -12l332 -393q111 156 111 266q0 70 -178 69v54h540v-54q-205 10 -223 -81q-49 -195 -180 -338zM596 1198q-164 0 -164 -199q0 -145 105 -284q119 82 169 169t50 156q0 68 -44 113t-116 45zM549 39q131 0 272 147l-342 410q-6 8 -69 90 q-176 -115 -177 -305q0 -154 101.5 -248t214.5 -94z" glyph-name="ampersand" horiz-adv-x="1466" unicode="&amp;"/><glyph d="M137 795l-55 393q-6 41 13.5 71.5t47.5 30.5q39 0 60.5 -30.5t15.5 -71.5l-63 -393h-19z" glyph-name="quotesingle" horiz-adv-x="301" unicode="'"/><glyph d="M510 -326q-408 330 -408 932t408 932l22 -12q-305 -303 -299 -920q6 -621 289 -909z" glyph-name="parenleft" horiz-adv-x="573" unicode="("/><glyph d="M63 -326l-12 23q283 289 289 909q6 616 -299 920l22 12q408 -330 408 -932t-408 -932z" glyph-name="parenright" horiz-adv-x="573" unicode=")"/><glyph d="M375 1079l-45 109q-23 47 -0.5 74.5t59.5 27.5t60.5 -27.5t3.5 -74.5l-45 -109q-6 -14 -16.5 -14t-16.5 14zM301 1014l-117 22q-53 6 -65.5 43t10.5 62q16 33 47 37t74 -39l65 -97q14 -12 8 -22t-22 -6zM477 1014q-12 -2 -17 8t3 20l69 97q23 31 48.5 37t43 -4.5 t31.5 -30.5q18 -25 4 -62t-65 -43zM123 834q-18 25 -4 61.5t65 42.5l117 23q12 2 17.5 -8.5t-3.5 -20.5l-69 -96q-39 -41 -71 -37t-52 35zM655 834q-20 -31 -53 -35t-70 37l-69 96q-8 10 -3 20.5t17 8.5l117 -23q51 -6 65 -42.5t-4 -61.5zM389 684q-39 0 -60.5 25.5 t1.5 76.5l41 109q6 14 18 14t19 -14l41 -109q23 -51 1 -76.5t-61 -25.5z" glyph-name="asterisk" horiz-adv-x="778" unicode="*"/><glyph d="M901 551v-72h-342v-346h-72v346h-344v72h344v342h72v-342h342z" glyph-name="plus" horiz-adv-x="1044" unicode="+"/><glyph d="M100 -291l-18 31q66 31 107.5 80t50.5 94q2 10 3 18.5t-3 14.5t-6.5 10t-10.5 8t-10 6t-12 4l-11 5q-59 37 -59 98q0 45 31 73.5t74 28.5q51 0 87.5 -40t36.5 -107q0 -92 -66.5 -185.5t-193.5 -138.5z" glyph-name="comma" horiz-adv-x="442" unicode=","/><glyph d="M123 494v49h565v-49h-565z" glyph-name="hyphen" horiz-adv-x="811" unicode="-"/><glyph d="M207 -20q-43 0 -74 28.5t-31 71.5t31 71.5t74 28.5t74.5 -28.5t31.5 -71.5t-31.5 -71.5t-74.5 -28.5z" glyph-name="period" horiz-adv-x="415" unicode="."/><glyph d="M61 -141l641 1671l70 -29l-641 -1671z" glyph-name="slash" horiz-adv-x="772" unicode="/"/><glyph d="M543 -18q-184 0 -322.5 128t-138.5 334q0 215 145.5 345.5t337.5 130.5q184 0 322.5 -128t138.5 -335q0 -215 -145 -345t-338 -130zM567 41q121 0 212 96t91 288.5t-97 313.5t-232 121q-121 0 -212 -96t-91 -288.5t97 -313.5t232 -121z" glyph-name="zero" horiz-adv-x="1107" unicode="0"/><glyph d="M420 141q0 -41 26.5 -63.5t55 -27.5t96.5 -13q10 -2 16 -2v-35h-522v35q131 14 162 37q33 23 33 69v619q0 41 -27 63.5t-55.5 27.5t-95.5 13q-10 2 -17 2v35h522v-35q-131 -14 -161 -37q-33 -23 -33 -69v-619z" glyph-name="one" horiz-adv-x="706" unicode="1"/><glyph d="M96 0l-14 39q29 23 133 106.5t150.5 124.5t116 112t99 131t29.5 118q0 72 -49 126t-151 54q-174 0 -269 -156l-35 21q45 117 145.5 180.5t223.5 63.5q131 0 214 -70t83 -178q0 -47 -19.5 -96.5t-47 -90.5t-73.5 -87t-83 -77.5t-93.5 -71.5t-85 -58.5t-77.5 -48t-53 -33.5 h309q104 0 158.5 24.5t89.5 108.5h39l-76 -265h-39l-4 23h-621z" glyph-name="two" horiz-adv-x="917" unicode="2"/><glyph d="M356 -389q-45 0 -88 6t-88 20.5t-71.5 43t-26.5 67.5q0 35 22.5 51.5t49.5 16.5q31 0 60.5 -23.5t50 -53.5t57 -53.5t81.5 -23.5q102 0 211 93t109 237q0 129 -93 196.5t-216 67.5q-88 0 -189 -39l-20 47l147 70q154 72 220.5 130t66.5 150q0 82 -49 133.5t-154 51.5 q-168 0 -289 -148l-30 27q147 242 395 242q133 0 204.5 -71t67.5 -190q-2 -94 -58 -165.5t-165 -135.5q129 -10 219 -85.5t90 -223.5q0 -186 -148.5 -312t-365.5 -126z" glyph-name="three" horiz-adv-x="952" unicode="3"/><glyph d="M932 -10h-174v-207q0 -16 4 -29.5t9 -23t17.5 -17.5t18.5 -12t25.5 -9t24.5 -6l27.5 -5.5t26.5 -4.5v-34h-450v34q4 0 26.5 4.5l27.5 5.5t24.5 6t25.5 9t18.5 12t17.5 17.5t9 23t4 29.5v207h-528l-25 33l672 909h25v-869h194zM150 63h464v627z" glyph-name="four" horiz-adv-x="1034" unicode="4"/><glyph d="M223 442q225 55 376 1t226.5 -159.5t75.5 -232.5q0 -178 -148.5 -309t-363.5 -131q-111 0 -209 32.5t-98 104.5q0 68 80 68q33 0 66.5 -23.5t59 -53.5t66.5 -53.5t88 -23.5q102 0 194.5 91t92.5 229q0 117 -64.5 213t-185.5 141t-293 -2l-41 39l191 528h350q68 0 97.5 2 t60 14.5t51.5 40.5h33l-58 -198h-524z" glyph-name="five" horiz-adv-x="1009" unicode="5"/><glyph d="M578 -25q-223 0 -350.5 160t-125.5 391q2 307 225.5 534.5t503.5 244.5l27 -43q-104 -10 -206.5 -64.5t-189.5 -147t-140.5 -238.5t-53.5 -320q0 -203 83 -331t222 -128q131 0 214 108.5t83 266.5q0 172 -115.5 268t-355.5 49v41q258 102 449.5 -4.5t191.5 -335.5 q0 -190 -129.5 -320.5t-332.5 -130.5z" glyph-name="six" horiz-adv-x="1122" unicode="6"/><glyph d="M934 901l22 -31q-399 -633 -544 -1259h-148q170 541 565 1149h-473q-53 0 -75.5 -2t-56.5 -15.5t-58.5 -44t-50.5 -84.5h-33l98 322h33l4 -35h717z" glyph-name="seven" horiz-adv-x="1007" unicode="7"/><glyph d="M729 698q119 -41 200 -129t81 -215q0 -160 -127 -273.5t-330 -113.5t-327 100.5t-124 264.5q0 229 258 350q-176 100 -176 285q0 133 99.5 228t271.5 95q168 0 264 -88t96 -213q0 -166 -186 -291zM559 1241q-119 0 -171 -69.5t-52 -165.5q0 -70 40 -134.5t124 -93.5 l155 -53q129 102 129 254q0 61 -17 116.5t-70.5 100.5t-137.5 45zM573 20q143 0 212 77t69 204q0 123 -62.5 183.5t-205.5 109.5l-135 47q-4 2 -11.5 4t-11.5 4q-184 -102 -184 -309q0 -137 83.5 -228.5t245.5 -91.5z" glyph-name="eight" horiz-adv-x="1112" unicode="8"/><glyph d="M545 920q223 0 350 -160t125 -391q-2 -307 -225.5 -534.5t-503.5 -244.5l-27 43q104 10 206.5 64.5t190 147t140.5 238.5t53 320q0 203 -83 331t-222 128q-131 0 -214 -108.5t-83 -266.5q0 -172 115.5 -268t355.5 -49v-41q-258 -102 -449.5 4.5t-191.5 335.5 q0 190 130 320.5t333 130.5z" glyph-name="nine" horiz-adv-x="1122" unicode="9"/><glyph d="M207 680q-43 0 -74 28.5t-31 71.5t31 72t74 29t74.5 -29t31.5 -72t-31.5 -71.5t-74.5 -28.5zM209 -20q-43 0 -74 28.5t-31 71.5t31 71.5t74 28.5t74.5 -28.5t31.5 -71.5t-31.5 -71.5t-74.5 -28.5z" glyph-name="colon" horiz-adv-x="417" unicode=":"/><glyph d="M270 678q-43 0 -73.5 28.5t-30.5 71.5t30.5 72t73.5 29t75 -29t32 -72t-32 -71.5t-75 -28.5zM100 -291l-18 31q66 31 107.5 80t50.5 94q2 10 3 18.5t-3 14.5t-6.5 10t-10.5 8t-10 6t-12 4l-11 5q-59 37 -59 98q0 45 31 73.5t74 28.5q51 0 87.5 -40t36.5 -107 q0 -92 -66.5 -185.5t-193.5 -138.5z" glyph-name="semicolon" horiz-adv-x="460" unicode=";"/><glyph d="M889 127q-401 219 -746 350v72q344 131 746 350v-78q-49 -29 -111.5 -60.5t-111 -55t-124 -56.5t-110.5 -48t-114.5 -48t-96.5 -39q8 -4 142.5 -60.5t190.5 -81t158.5 -74.5t176.5 -93v-78z" glyph-name="less" horiz-adv-x="1032" unicode="&lt;"/><glyph d="M143 664v71h758v-71h-758zM143 295v72h758v-72h-758z" glyph-name="equal" horiz-adv-x="1044" unicode="="/><glyph d="M143 127v78q74 43 176.5 93t159 74.5t190.5 81t142 60.5q-16 6 -96 39t-115 48t-110.5 48t-124 56.5t-110.5 55.5t-112 60v78q401 -219 746 -350v-72q-345 -131 -746 -350z" glyph-name="greater" horiz-adv-x="1032" unicode=">"/><glyph d="M391 381q-27 80 -13.5 133t54.5 118.5t85 119t79 131.5t35 155q0 106 -66.5 176t-220.5 70q-66 0 -92 -65q-37 -92 -62.5 -127t-62.5 -35q-66 0 -66 67q0 98 134.5 161t281.5 63q162 0 241 -86t79 -224q0 -94 -40 -170.5t-95.5 -128t-110.5 -100.5t-93 -114.5t-34 -143.5 h-33zM414 -25q-43 0 -74 29t-31 72t31 71.5t74 28.5t74.5 -28.5t31.5 -71.5t-31.5 -72t-74.5 -29z" glyph-name="question" horiz-adv-x="878" unicode="?"/><glyph d="M1206 211q-29 0 -57.5 5t-64 19.5t-57 48t-21.5 85.5q-102 -152 -269 -152q-113 0 -182.5 72.5t-69.5 212.5q0 184 118 304t265 120q166 0 211 -170l29 143h102l-94 -483q-12 -74 23 -118t92 -44q78 0 157.5 101.5t79.5 275.5q0 266 -169 435t-431 169 q-281 0 -453.5 -193.5t-172.5 -468.5q0 -281 166.5 -470t431.5 -189q207 0 381 92l26 -31q-188 -115 -411 -114q-307 0 -520.5 206.5t-213.5 505.5q0 301 218.5 514t537.5 213q291 0 486.5 -191t195.5 -478q0 -199 -95.5 -309.5t-238.5 -110.5zM786 276q84 0 157 85t97 202 l7 25q6 39 6 76q0 96 -43 157.5t-125 61.5q-111 0 -185.5 -115t-74.5 -262q0 -113 46.5 -171.5t114.5 -58.5z" glyph-name="at" horiz-adv-x="1642" unicode="@"/><glyph d="M1241 154q29 -68 55.5 -85.5t110.5 -33.5v-35h-473v35q10 2 35.5 7t36 8t29 9.5t23.5 13.5t11 18t3 26.5t-11 36.5l-117 270h-561l-113 -274q-8 -18 -10 -34t4 -26t11.5 -17t22.5 -13.5t26.5 -9.5t35 -8t35.5 -7v-35h-375v35q102 20 125 35q27 20 50 77l479 1158h69z M408 483h512l-263 609z" glyph-name="A" horiz-adv-x="1427" unicode="A"/><glyph d="M813 676q346 -70 346 -328q0 -170 -140 -259t-413 -89h-545v35q104 20 132 41q39 33 38 121v897q0 47 -7 75.5t-35.5 46t-42 21.5t-68.5 14q-10 2 -17 4v35h545q223 0 344 -78.5t121 -224.5q0 -231 -258 -311zM936 965q0 115 -86 188.5t-289 73.5q-102 -2 -137 -24.5 t-35 -76.5v-424h207q340 1 340 263zM623 63q199 0 293 75t94 194q0 129 -111 220t-342 91h-168v-424q0 -80 49.5 -118t184.5 -38z" glyph-name="B" horiz-adv-x="1251" unicode="B"/><glyph d="M782 -25q-295 0 -487.5 188.5t-192.5 491.5q0 289 189.5 478.5t509.5 189.5q240 0 397 -94q8 -186 14 -277h-61q-35 156 -139.5 232t-251.5 76q-213 0 -344 -143.5t-131 -414.5q0 -285 166.5 -462t404.5 -177q90 0 187.5 27t152.5 86l35 -35q-66 -72 -185 -119t-264 -47z " glyph-name="C" horiz-adv-x="1333" unicode="C"/><glyph d="M530 1290q152 0 280 -35.5t230.5 -109.5t161 -200t58.5 -292q0 -225 -101.5 -375.5t-260.5 -214t-368 -63.5h-469v35q104 20 132 41q39 33 38 121v897q0 47 -7 75.5t-35.5 46t-42 21.5t-68.5 14q-10 2 -17 4v35h469zM588 66q260 0 376.5 144t116.5 423q0 283 -131 437.5 t-440 154.5h-121v-963q0 -109 42 -152.5t157 -43.5z" glyph-name="D" horiz-adv-x="1361" unicode="D"/><glyph d="M1059 297h45l-84 -297h-959v35q104 20 132 41q39 33 38 121v897q0 47 -7 75.5t-35.5 46t-42 21.5t-68.5 14q-10 2 -17 4v35h955l18 -280h-45q-14 117 -55 167t-146 50h-206q-121 0 -157 -26.5t-36 -129.5v-389h182q176 0 225.5 35t59.5 137h33v-405h-33q-10 102 -59 137 t-226 35h-182v-402q0 -102 36 -129t157 -27h163q121 0 189 50.5t125 183.5z" glyph-name="E" horiz-adv-x="1175" unicode="E"/><glyph d="M993 1290l19 -280h-45q-14 117 -55.5 167t-145.5 50h-184q-121 0 -157 -26.5t-36 -129.5v-389h137q176 0 225.5 35t59.5 137h33v-405h-33q-10 102 -59.5 137t-225.5 35h-137v-424q0 -47 7 -76t36 -46.5t42 -21.5t69 -14q10 -2 16 -4v-35h-498v35q104 20 132 41 q39 33 38 121v897q0 47 -7 75.5t-35.5 46t-42 21.5t-68.5 14q-10 2 -17 4v35h932z" glyph-name="F" horiz-adv-x="1083" unicode="F"/><glyph d="M854 -25q-354 0 -553 189.5t-199 490.5q0 289 190.5 478.5t510.5 189.5q250 0 407 -94q8 -186 15 -277h-62q-35 156 -138 232t-251 76q-219 0 -354 -151t-135 -402q0 -293 165.5 -480.5t454.5 -187.5q106 0 142 45t36 162v114q0 137 -44 178.5t-181 51.5v43h522v-43 q-84 -10 -116.5 -40t-32.5 -108v-159q0 -49 6 -89t13 -68t10 -38q-39 -45 -154 -79t-252 -34z" glyph-name="G" horiz-adv-x="1472" unicode="G"/><glyph d="M1339 1255q-104 -20 -131 -41q-39 -33 -39 -120v-897q0 -47 7.5 -76t36 -46.5t42 -21.5t68.5 -14q10 -2 16 -4v-35h-497v35q104 20 131 41q39 33 39 121v421h-623v-421q0 -47 7 -76t36 -46.5t42 -21.5t69 -14q10 -2 16 -4v-35h-498v35q104 20 132 41q39 33 38 121v897 q0 47 -7 75.5t-35.5 46t-42 21.5t-68.5 14q-10 2 -17 4v35h498v-35q-104 -20 -131 -41q-39 -33 -39 -120v-416h623v416q0 47 -7.5 75.5t-36 46t-42 21.5t-68.5 14q-10 2 -16 4v35h497v-35z" glyph-name="H" horiz-adv-x="1400" unicode="H"/><glyph d="M61 0v35q104 20 132 41q39 33 38 121v897q0 47 -7 75.5t-35.5 46t-42 21.5t-68.5 14q-10 2 -17 4v35h498v-35q-104 -20 -131 -41q-39 -33 -39 -120v-897q0 -47 7 -76t36 -46.5t42 -21.5t69 -14q10 -2 16 -4v-35h-498z" glyph-name="I" horiz-adv-x="620" unicode="I"/><glyph d="M18 -379q-16 25 0 43q139 49 177 115.5t38 232.5v1082q0 49 -9 78.5t-39.5 46t-49 21.5t-80.5 15v35h506v-35q-104 -20 -131 -41q-39 -33 -39 -120v-1102q0 -172 -102.5 -256t-270.5 -115z" glyph-name="J" horiz-adv-x="622" unicode="J"/><glyph d="M1130 111q27 -39 60 -51.5t117 -12.5v-47h-328q0 57 -55 139l-365 527l-170 -166v-303q0 -47 7 -76t36 -46.5t42 -21.5t69 -14q10 -2 16 -4v-35h-498v35q104 20 132 41q39 33 38 121v897q0 47 -7 75.5t-35.5 46t-42 21.5t-68.5 14q-10 2 -17 4v35h498v-35 q-104 -20 -131 -41q-39 -33 -39 -120v-492l549 539q47 45 23.5 73.5t-107.5 28.5v47h434v-47q-92 0 -141 -24.5t-105 -77.5l-376 -369z" glyph-name="K" horiz-adv-x="1357" unicode="K"/><glyph d="M61 0v35q104 20 132 41q39 33 38 121v897q0 47 -7 75.5t-35.5 46t-42 21.5t-68.5 14q-10 2 -17 4v35h547v-35q-10 -2 -39.5 -7t-40 -7t-35 -9t-34.5 -13.5t-27.5 -18.5t-24 -26.5t-12.5 -35t-6 -44.5v-877q0 -102 36 -129t157 -27h170q119 0 186.5 54.5t126.5 193.5h43 l-84 -309h-963z" glyph-name="L" horiz-adv-x="1157" unicode="L"/><glyph d="M1493 197q2 -51 11 -80t38 -45.5t46.5 -21.5t72.5 -15v-35h-498v35q106 20 133 41q43 33 39 121l-39 929l-442 -1126h-61l-451 1042l-39 -845q-2 -47 6 -76t38 -46.5t48.5 -21.5t73.5 -14q14 -2 20 -4v-35h-428v35q104 20 129 41q39 33 43 121l43 897q2 47 -6 75.5 t-33.5 45t-45 22.5t-66.5 14q-14 2 -21 4v35h306q4 -27 63 -157l397 -916l353 916q51 135 55 157h340v-35q-106 -20 -133 -41q-39 -35 -35 -120z" glyph-name="M" horiz-adv-x="1722" unicode="M"/><glyph d="M944 1290h430v-35q-82 18 -128 -21.5t-46 -139.5v-1094h-67l-822 1090v-893q0 -47 8.5 -76t39 -46.5t45 -21.5t73.5 -14q12 -2 19 -4v-35h-435v35q106 20 134 41q41 33 41 121v897q0 47 -8.5 75.5t-36 46t-44 21.5t-67.5 14q-12 2 -19 4v35h293l768 -1009v813 q0 199 -178 161v35z" glyph-name="N" horiz-adv-x="1435" unicode="N"/><glyph d="M745 -25q-281 0 -462 193.5t-181 476.5q0 281 183.5 479.5t468.5 198.5q281 0 463 -194.5t182 -473.5q0 -285 -184.5 -482.5t-469.5 -197.5zM780 39q184 0 314.5 151.5t130.5 403.5q0 285 -150.5 475.5t-355.5 190.5q-182 0 -312.5 -153t-130.5 -400q0 -287 149.5 -477.5 t354.5 -190.5z" glyph-name="O" horiz-adv-x="1501" unicode="O"/><glyph d="M61 0v35q104 20 132 41q39 33 38 121v897q0 47 -7 75.5t-35.5 46t-42 21.5t-68.5 14q-10 2 -17 4v35h457q596 0 596 -379q0 -199 -165 -302t-468 -103q-25 0 -24.5 31.5t24.5 31.5q459 0 459 330q0 154 -99.5 241t-301.5 87q-88 0 -119 -22.5t-31 -71.5v-936q0 -47 7 -76 t36 -46.5t42 -21.5t69 -14q10 -2 16 -4v-35h-498z" glyph-name="P" horiz-adv-x="1196" unicode="P"/><glyph d="M1573 -182q12 -2 16 -4t7 -8.5t3 -18.5q-152 -145 -299 -145q-104 0 -239 82l-352 215q-53 33 -144 61q-209 57 -336 234.5t-127 410.5q0 281 183.5 479.5t468.5 198.5q281 0 463 -194.5t182 -473.5q0 -246 -142.5 -432t-373.5 -233q43 -16 94 -49l164 -109 q117 -84 237 -84q99 0 195 70zM276 707q0 -287 149.5 -477.5t354.5 -190.5q184 0 314.5 151.5t130.5 403.5q0 285 -150.5 475.5t-355.5 190.5q-182 0 -312.5 -152.5t-130.5 -400.5z" glyph-name="Q" horiz-adv-x="1445" unicode="Q"/><glyph d="M991 238q51 -76 84 -117t86 -71t105 -13v-37q-55 -33 -109 -33q-100 0 -167.5 49.5t-145.5 167.5l-166 252q-53 76 -115.5 106.5t-173.5 35.5v-381q0 -47 7 -76t36 -46.5t42 -21.5t69 -14q10 -2 16 -4v-35h-498v35q104 20 132 41q39 33 38 121v897q0 47 -7 75.5t-35.5 46 t-42 21.5t-68.5 14q-10 2 -17 4v35h478q549 0 548 -354q0 -295 -393 -346q84 -23 162 -146zM555 1227q-100 0 -133 -21.5t-33 -72.5v-494h166q195 0 282 72.5t87 212.5q0 303 -369 303z" glyph-name="R" horiz-adv-x="1306" unicode="R"/><glyph d="M502 -25q-182 0 -383 129l-17 258h41q35 -143 130.5 -236t228.5 -93q115 0 192.5 74.5t77.5 187.5q0 115 -73.5 182.5t-235.5 149.5q-72 37 -122 68.5t-103.5 79.5t-81 109.5t-27.5 133.5q0 131 95 218t288 87q49 0 93 -7t74 -14.5t62.5 -23.5t47 -25.5t42 -28 t33.5 -22.5l6 -262h-36q-35 141 -118 233.5t-214 92.5q-109 0 -168.5 -58.5t-59.5 -148.5q0 -94 72 -164t225 -147q80 -41 120 -66t107.5 -78t100.5 -120.5t33 -149.5q0 -160 -128 -259.5t-302 -99.5z" glyph-name="S" horiz-adv-x="1024" unicode="S"/><glyph d="M1161 1311l17 -353h-33q-23 150 -82 214.5t-215 64.5h-150v-1040q0 -41 10.5 -68t20.5 -42t46 -26.5t54.5 -14.5t79.5 -11v-35h-579v35q61 8 79.5 11t54.5 14.5t46 26.5t20.5 42t10.5 68v1040h-144q-160 0 -220 -64.5t-83 -214.5h-33l17 353l94 -21h895z" glyph-name="T" horiz-adv-x="1239" unicode="T"/><glyph d="M717 -25q-70 0 -132.5 11.5t-131 47.5t-117.5 92t-82 155.5t-33 230.5v582q0 47 -7 75.5t-35.5 46t-42 21.5t-68.5 14q-10 2 -17 4v35h500v-35q-104 -20 -131 -41q-39 -33 -39 -120v-605q0 -430 367 -430q70 0 129 16.5t119.5 57.5t96 124t35.5 202v635q0 47 -8 75.5 t-35.5 46t-44 21.5t-67.5 14q-12 2 -19 4v35h439v-35q-115 -20 -142 -41q-43 -33 -43 -120v-594q0 -147 -43 -254t-116.5 -163t-155.5 -82t-176 -26z" glyph-name="U" horiz-adv-x="1443" unicode="U"/><glyph d="M1032 1290h375v-35q-102 -20 -125 -34q-27 -20 -49 -78l-479 -1157h-70l-498 1151q-29 68 -55.5 85t-110.5 33v35h474v-35q-10 -2 -36 -7t-36 -8t-28.5 -9t-23.5 -13.5t-11.5 -18.5t-3.5 -26.5t12 -35.5l403 -938l387 942q8 18 10 33.5t-4 25.5t-11 17.5t-22.5 13.5 t-26.5 9t-35 8t-36 7v35z" glyph-name="V" horiz-adv-x="1427" unicode="V"/><glyph d="M623 -16l-433 1142q-25 66 -52 83.5t-118 33.5v45h459v-45q-139 -33 -146 -41t23 -76l340 -913l256 733q35 96 -5 185.5t-142 113.5v45h274q0 -20 3 -44.5t7.5 -43t14.5 -49.5t15 -45t19.5 -52t18.5 -50l289 -791l291 823q18 49 19 84t-7 55.5t-37 34t-56.5 19.5 t-80.5 14v45h440v-45q-66 -12 -87 -19t-43.5 -28.5t-39.5 -69.5l-413 -1142h-60l-354 948l-336 -950h-59z" glyph-name="W" horiz-adv-x="2035" unicode="W"/><glyph d="M1143 164q49 -72 93 -92.5t161 -36.5v-35h-535v35q102 18 117 37q20 25 -25 90l-282 420l-287 -414q-12 -16 -19.5 -30.5t-13.5 -26t-4 -19.5t1 -14t8.5 -11.5t13.5 -8.5t19.5 -7t22.5 -5t28.5 -5t29.5 -6v-35h-430v35q135 18 168 37q45 25 94 94l332 471l-320 477 q-55 80 -98 102.5t-151 38.5v35h520v-35q-66 -12 -89.5 -21t-25.5 -38t35 -82l248 -369l260 373q23 33 30 55.5t6 35t-26 22.5t-39 13t-59 11v35h417v-35q-111 -16 -153.5 -37.5t-97.5 -99.5l-301 -428z" glyph-name="X" horiz-adv-x="1437" unicode="X"/><glyph d="M891 1290h393v-35q-82 -16 -108.5 -33.5t-71.5 -93.5l-361 -581v-340q0 -51 9.5 -80t42 -45t53 -21.5t86.5 -15.5v-45h-539v45q121 20 150 43q41 31 41 119v323l-377 598q-49 76 -73.5 93.5t-104.5 33.5v35h469v-35q-82 -18 -113 -43.5t2 -83.5l320 -518l313 518 q20 35 23.5 56.5t-18 34t-39 17.5t-64.5 13q-23 4 -33 6v35z" glyph-name="Y" horiz-adv-x="1314" unicode="Y"/><glyph d="M84 0l-23 31l813 1216l-454 -8q-147 -2 -205.5 -63.5t-69.5 -206.5h-41v334l111 -13h895l-831 -1247l509 8q141 2 198.5 65.5t88.5 209.5h43q-39 -209 -39 -326h-995z" glyph-name="Z" horiz-adv-x="1179" unicode="Z"/><glyph d="M473 -340l-330 10v1874l330 10v-30l-197 -25v-1784l197 -24v-31z" glyph-name="bracketleft" horiz-adv-x="534" unicode="["/><glyph d="M711 -141l-70 -29l-641 1671l70 29z" glyph-name="backslash" horiz-adv-x="772" unicode="\"/><glyph d="M61 -340v31l197 24v1784l-197 25v30l330 -10v-1874z" glyph-name="bracketright" horiz-adv-x="534" unicode="]"/><glyph d="M129 756l-27 18l357 549l358 -547l-26 -20l-332 418z" glyph-name="asciicircum" horiz-adv-x="919" unicode="^"/><glyph d="M102 -96l4 55h1033l-4 -55h-1033z" glyph-name="underscore" horiz-adv-x="1241" unicode="_"/><glyph d="M268 1057q-10 10 -46 52t-50 56.5t-42 44t-50.5 49t-46.5 35.5q12 25 53 54.5t72 29.5q70 -98 141 -297z" glyph-name="grave" horiz-adv-x="321" unicode="`"/><glyph d="M813 180q0 -49 44 -58t110 28v-39q-35 -63 -136 -125q-66 0 -108.5 51t-42.5 119q-188 -170 -373 -170q-109 0 -172 60t-63 157q0 117 92 176t287 113q121 33 167 51t62 53v27q0 129 -60.5 178t-205.5 49q-72 0 -97 -62q-43 -96 -65.5 -128.5t-56.5 -32.5q-68 0 -68 67 q0 94 142.5 160t293.5 66q137 0 193.5 -74t56.5 -236v-430zM395 88q84 0 164 44t121 101v267l-229 -68q-131 -37 -181.5 -81t-50.5 -113q0 -80 51 -115t125 -35z" glyph-name="a" horiz-adv-x="1007" unicode="a"/><glyph d="M516 -18q-154 0 -255 85t-101 234v829q0 106 -150 130v30q133 29 242 117l41 -39v-645q51 84 145 140.5t205 56.5q152 0 254 -118t102 -317q0 -223 -139 -363t-344 -140zM512 41q145 0 248.5 92t103.5 283q0 178 -90 282.5t-225 104.5q-88 0 -155.5 -43t-100.5 -105v-379 q0 -106 52 -170.5t167 -64.5z" glyph-name="b" horiz-adv-x="1081" unicode="b"/><glyph d="M535 -18q-190 0 -321.5 125.5t-131.5 332.5q0 213 134 346.5t335 133.5q133 0 226 -58.5t93 -140.5q0 -43 -24.5 -63.5t-57.5 -20.5q-78 0 -116 133q-29 96 -135 96q-115 0 -212.5 -93t-97.5 -271q0 -180 106.5 -296t270.5 -116q178 0 258 133l31 -14q-37 -109 -133 -168 t-225 -59z" glyph-name="c" horiz-adv-x="974" unicode="c"/><glyph d="M913 170q0 -61 26 -91t110 -44v-35h-261l17 186h-23q-129 -205 -333 -204q-154 0 -260.5 117.5t-106.5 312.5q0 219 145.5 363.5t343.5 144.5q119 0 209 -62v272q0 59 -32.5 89t-120.5 41v30q145 31 245 117l41 -39v-1198zM532 94q102 0 164 61.5t84 143.5v375 q0 72 -60.5 130t-168.5 58q-137 0 -236.5 -96t-99.5 -276.5t93 -288t224 -107.5z" glyph-name="d" horiz-adv-x="1110" unicode="d"/><glyph d="M862 219l31 -16q-37 -106 -131 -163.5t-219 -57.5q-193 0 -327 127t-134 333.5t124 342t322 135.5q135 0 227.5 -70t120 -161t-1.5 -171h-653v-8q0 -178 105.5 -298t279.5 -120q178 0 256 127zM504 862q-104 0 -183 -75.5t-96 -211.5h520q14 100 -50 193.5t-191 93.5z " glyph-name="e" horiz-adv-x="978" unicode="e"/><glyph d="M608 1430q129 0 176 -87q-6 -90 -82 -118q-49 123 -163 123q-78 0 -135.5 -70t-57.5 -244v-139l229 16q-10 -31 -10 -80h-219v-690q0 -39 27.5 -61.5t55.5 -27.5t95 -13q20 -2 31 -4v-35h-504v35q6 0 29.5 4t30 6t25 6t24.5 8t17 12.5t15.5 17.5t8.5 22.5t4 29.5v690 h-154v39l154 31v6q0 256 107.5 389.5t295.5 133.5z" glyph-name="f" horiz-adv-x="651" unicode="f"/><glyph d="M909 879v-84l-176 22q76 -80 76 -188q0 -127 -97.5 -207t-244.5 -82h-109q-35 0 -58.5 -23.5t-23.5 -60.5q0 -88 91 -98l235 -23q178 -16 239.5 -46t61.5 -118q0 -154 -145.5 -253t-354.5 -103q-174 -2 -263 65.5t-89 172.5q0 39 61.5 97t141.5 103q-123 45 -123 142 q0 29 58.5 90t103.5 88q-82 37 -129 103.5t-47 152.5q0 129 99 210t247 81q74 0 141 -23q51 -18 305 -18zM463 389q57 0 98 23.5t60.5 63.5t27.5 77t8 76t-8 76.5t-27.5 77.5t-60.5 64.5t-98 24.5q-106 0 -150.5 -76.5t-44.5 -166.5t44.5 -165t150.5 -75zM586 8l-205 19 q-88 8 -136 -43.5t-48 -122.5q0 -68 55 -124t197 -56q164 0 239.5 69.5t75.5 159.5q0 57 -38 73.5t-140 24.5z" glyph-name="g" horiz-adv-x="991" unicode="g"/><glyph d="M952 141q0 -33 8.5 -52t35 -30.5t37.5 -13.5t54 -10v-35h-405v35q43 6 56.5 9t39 14.5t33.5 31t8 51.5v465q0 90 -45 146.5t-141 56.5q-166 0 -289 -150v-518q0 -27 9 -45t15.5 -27.5t34 -17.5t34.5 -9t46 -7v-35h-422v35q4 0 24.5 4t28 5t25 6t24.5 9t18.5 12.5 t16.5 17.5t9 22.5t4 29.5v989q0 106 -150 130v30q143 31 242 117l41 -39v-645h4q63 88 156.5 142.5t202.5 54.5q135 0 190 -82t55 -234v-463z" glyph-name="h" horiz-adv-x="1138" unicode="h"/><glyph d="M246 1194q-35 0 -62.5 25.5t-27.5 60.5q0 37 27.5 63.5t62.5 26.5q37 0 64.5 -26.5t27.5 -63.5q0 -35 -27.5 -60.5t-64.5 -25.5zM61 0v35q43 8 54.5 10t38 13.5t35 31t8.5 51.5v514q0 61 -26 90t-110 39v31q74 12 120 38t106 81l43 -39v-754q0 -33 8 -52t34.5 -30.5 t38 -13.5t54.5 -10v-35h-404z" glyph-name="i" horiz-adv-x="526" unicode="i"/><glyph d="M236 1194q-35 0 -63 25.5t-28 60.5q0 37 28 63.5t63 26.5q37 0 64.5 -26.5t27.5 -63.5q0 -35 -27.5 -60.5t-64.5 -25.5zM6 -379q-8 8 -8 22.5t8 20.5q96 35 136 96.5t40 200.5v694q0 61 -25.5 90t-109.5 39v31q57 10 88 24.5t72 46.5t65 48l43 -39v-930q0 -303 -309 -344 z" glyph-name="j" horiz-adv-x="450" unicode="j"/><glyph d="M887 109q27 -37 56.5 -50.5t94.5 -21.5v-37h-266q0 39 -37 98l-272 391l-119 -116v-232q0 -16 4 -29.5t9 -22.5t16.5 -17.5t18.5 -12.5t24.5 -9t25 -6t27.5 -5t25 -4v-35h-433v35q4 0 24.5 4t28 5t25 6t24.5 9t18.5 12.5t16.5 17.5t9 22.5t4 29.5v989q0 106 -150 130v30 q143 31 242 117l41 -39v-903l297 289q47 45 28.5 73.5t-96.5 36.5v37h388v-37q-135 -12 -216 -98l-192 -191z" glyph-name="k" horiz-adv-x="1046" unicode="k"/><glyph d="M61 0v35q4 0 24.5 4t28 5t25 6t24.5 9t18.5 12.5t16.5 17.5t9 22.5t4 29.5v989q0 106 -150 130v30q143 31 242 117l41 -39v-1227q0 -16 4 -29.5t9 -22.5t16.5 -17.5t18.5 -12.5t24.5 -9t25 -6t27.5 -5t25 -4v-35h-433z" glyph-name="l" horiz-adv-x="555" unicode="l"/><glyph d="M51 0v35q43 6 58.5 9t39 14.5t30.5 31t7 51.5v535q0 61 -25.5 86.5t-109.5 21.5v31q66 10 112 27.5t71.5 35t74.5 56.5l41 -39l-45 -172h19q66 88 150.5 142.5t170.5 54.5q88 0 143.5 -54.5t73.5 -142.5h21q125 197 307 197q119 0 179.5 -94.5t60.5 -221.5v-463 q0 -33 7 -52t30.5 -30.5t39 -14.5t60.5 -9v-35h-414v35q47 6 64.5 9t41 14.5t30.5 31t7 51.5v463q0 90 -43 147.5t-127 57.5q-139 0 -249 -154v-514q0 -33 7 -52t30.5 -30.5t39 -14.5t60.5 -9v-35h-414v35q47 6 64.5 9t41 14.5t30.5 31t7 51.5v463q0 88 -46 146.5t-124 58.5 q-143 0 -254 -152v-516q0 -27 9.5 -45t15.5 -27.5t34 -17.5t35 -9t46 -7v-35h-408z" glyph-name="m" horiz-adv-x="1617" unicode="m"/><glyph d="M51 0v35q43 8 54.5 10t38 13.5t34.5 31t8 51.5v514q0 61 -25.5 90t-109.5 39v31q66 10 112 27.5t71.5 35t74.5 56.5l41 -39l-45 -172h19q150 197 358 197q135 0 190.5 -82t55.5 -234v-463q0 -33 8 -52t34.5 -30.5t38 -13.5t54.5 -10v-35h-406v35q43 6 56.5 9t39 14.5 t34 31t8.5 51.5v461q0 92 -45 149.5t-144 57.5q-162 0 -287 -152v-516q0 -27 9.5 -45t15.5 -27.5t34 -17.5t35 -9t46 -7v-35h-408z" glyph-name="n" horiz-adv-x="1114" unicode="n"/><glyph d="M543 -18q-184 0 -322.5 128t-138.5 334q0 215 145.5 345.5t337.5 130.5q184 0 322.5 -128t138.5 -335q0 -215 -145 -345t-338 -130zM567 41q121 0 212 96t91 288.5t-97 313.5t-232 121q-121 0 -212 -96t-91 -288.5t97 -313.5t232 -121z" glyph-name="o" horiz-adv-x="1107" unicode="o"/><glyph d="M670 920q145 0 248.5 -119t103.5 -316q0 -223 -136 -363t-351 -140q-121 0 -205 53v-246q0 -66 33.5 -84t130.5 -29v-34h-443v34q47 6 65.5 9.5t42 14.5t31 32.5t7.5 56.5v866q0 61 -28 90t-118 39v31q100 16 150.5 42t105.5 77l41 -39l-80 -231h41q49 102 143.5 179 t217.5 77zM557 41q131 0 229.5 94t98.5 297q0 164 -75 267.5t-204 103.5t-202.5 -89t-73.5 -159v-233q0 -115 53 -198t174 -83z" glyph-name="p" horiz-adv-x="1093" unicode="p"/><glyph d="M895 -217q0 -33 7 -52.5t29.5 -30.5t39 -14t59.5 -10v-34h-444v34q109 10 142.5 26.5t33.5 80.5v375q-123 -176 -313 -176q-156 0 -261.5 117.5t-105.5 312.5q0 223 152.5 365.5t383.5 142.5q123 0 207 -46l70 27v-1118zM532 90q160 0 230 162v450q0 63 -64.5 110.5 t-156.5 47.5q-131 0 -228.5 -96t-97.5 -277q0 -178 93 -287.5t224 -109.5z" glyph-name="q" horiz-adv-x="1081" unicode="q"/><glyph d="M51 0v35q47 6 65.5 9t42 14.5t31 31t7.5 51.5v516q0 61 -28 90t-118 37v31q102 16 151.5 41t104.5 78l41 -39l-69 -244h40q74 141 145 212t171 71q47 0 86 -16v-150q-82 23 -129 23q-119 0 -190.5 -79t-71.5 -208v-363q0 -43 19.5 -65.5t44 -27.5t87.5 -13v-35h-430z" glyph-name="r" horiz-adv-x="772" unicode="r"/><glyph d="M375 -18q-94 0 -178 28.5t-111 52.5l-4 185h49q27 -96 94.5 -152.5t167.5 -56.5q90 0 145.5 43t55.5 121q0 37 -12.5 65.5t-43 50t-51 32.5t-73 30.5t-68.5 28.5q-117 45 -187.5 106.5t-70.5 157.5q0 109 85 177.5t237 68.5q143 0 252 -78l-7 -183h-41q-57 203 -231 203 q-84 0 -128 -43t-44 -106q0 -68 49 -106t156 -81q10 -4 45 -17t52 -20.5t50 -22.5t51.5 -28.5t43 -34t38 -42t22.5 -50t9 -61.5q0 -109 -96 -188.5t-256 -79.5z" glyph-name="s" horiz-adv-x="808" unicode="s"/><glyph d="M328 221q0 -51 27.5 -77.5t70.5 -27.5t85 7t81 24v-41q-74 -45 -258 -126q-51 0 -95 53t-44 117v681h-144v37q152 66 232 215h45v-194l250 31q-10 -31 -11 -89h-239v-610z" glyph-name="t" horiz-adv-x="643" unicode="t"/><glyph d="M438 -18q-262 0 -262 315v473q0 37 -17.5 56.5t-39 25.5t-68.5 14v35q147 -8 258 12v-610q0 -205 187 -205q162 0 303 115v557q0 37 -17.5 56.5t-39 25.5t-68.5 14v35q147 -8 258 12v-743q0 -61 25.5 -91t109.5 -44v-35h-260l12 158h-22q-181 -176 -359 -176z" glyph-name="u" unicode="u"/><glyph d="M682 901h324v-35q-70 -8 -93.5 -23.5t-48.5 -74.5l-323 -780h-56l-325 780q-27 61 -49.5 75.5t-90.5 22.5v35h406v-35q-96 -14 -113 -37q-18 -20 -2 -61l246 -606l229 571q10 27 12.5 47.5t-6 33.5t-17.5 22.5t-27.5 15.5t-30.5 8t-35 6v35z" glyph-name="v" horiz-adv-x="1026" unicode="v"/><glyph d="M455 -12l-293 790q-18 53 -44 67.5t-98 20.5v35h408v-35q-94 -12 -111 -37q-12 -18 0 -51l213 -585l203 489q31 84 2 139q-10 25 -31.5 32t-70.5 13v35h258q0 -72 37 -158l213 -553l205 508q16 43 16 73t-10.5 47.5t-36 27.5t-48 14t-59.5 6v35h363v-35 q-70 -6 -94.5 -20.5t-46.5 -67.5l-308 -790h-53l-274 700l-287 -700h-53z" glyph-name="w" horiz-adv-x="1591" unicode="w"/><glyph d="M846 125q35 -49 68.5 -65.5t109.5 -24.5v-35h-436v35q27 4 40 7t30.5 9t22.5 14.5t4 23.5t-15 36l-181 262l-196 -262q-18 -25 -21.5 -41t16 -26.5t30 -12.5t49.5 -8q6 -2 10 -2v-35h-336v35q78 8 108.5 22.5t69.5 67.5l236 311l-232 336q-33 51 -65.5 68.5t-100.5 25.5 v35h416v-35q-31 -4 -48 -9t-32.5 -15.5t-13.5 -27.5t18 -42l162 -233l176 233q20 27 21.5 44.5t-18 27.5t-36 13t-51.5 9v35h326v-35q-68 -8 -97.5 -23.5t-70.5 -70.5l-215 -283z" glyph-name="x" horiz-adv-x="1064" unicode="x"/><glyph d="M676 901h317v-35q-68 -8 -90 -22.5t-47 -71.5l-371 -868l-27 -67.5t-35 -69t-48.5 -71t-57 -46t-73.5 -21.5q-63 0 -127 47v105q254 -10 307 123l53 125l-319 745q-23 55 -46.5 69.5t-91.5 22.5v35h396v-35q-96 -14 -113 -37q-16 -20 -2 -55l244 -588l250 586q6 29 7 44 t-20.5 25.5t-40 14.5t-49.5 8q-10 2 -16 2v35z" glyph-name="y" horiz-adv-x="1013" unicode="y"/><glyph d="M84 0l-23 31l586 829l-291 -6q-172 -2 -192 -211h-39v270l121 -12h592l-602 -860l296 6q129 2 184.5 53.5t84.5 157.5h41q-39 -137 -39 -258h-719z" glyph-name="z" horiz-adv-x="903" unicode="z"/><glyph d="M485 -330q-137 51 -184 154.5t-47 263.5v318q0 47 -10.5 77.5t-41 51t-49 28.5t-71.5 29v26q53 20 71.5 28.5t49 29t41 51.5t10.5 78v317q0 160 47 263.5t184 154.5l17 -27q-41 -18 -65.5 -49.5t-35 -92t-12.5 -106.5t-2 -143v-266q0 -125 -55.5 -174t-157.5 -72v-10 q102 -23 157.5 -72t55.5 -174v-266q0 -96 2 -142t12.5 -106.5t35 -92.5t65.5 -50z" glyph-name="braceleft" horiz-adv-x="563" unicode="{"/><glyph d="M164 -358v1681h57v-1681h-57z" glyph-name="bar" horiz-adv-x="385" unicode="|"/><glyph d="M78 -330l-17 27q41 18 66 50t35 92.5t12 106.5t2 142v266q0 125 55.5 174.5t157.5 71.5v10q-102 23 -157.5 72t-55.5 174v266q0 96 -2 142.5t-12 107t-35 92t-66 49.5l17 27q137 -51 184 -154.5t47 -263.5v-317q0 -47 10.5 -78t41 -51.5t49 -28.5t71.5 -29v-26 q-53 -20 -71.5 -28.5t-49 -29t-41 -51t-10.5 -77.5v-318q0 -160 -47 -263.5t-184 -154.5z" glyph-name="braceright" horiz-adv-x="563" unicode="}"/><glyph d="M600 401q-59 0 -108.5 21.5t-76 48.5t-64.5 48.5t-79 21.5q-66 0 -97.5 -27t-31.5 -61h-37q-20 78 40.5 136t162.5 58q57 0 105.5 -22.5t75 -48t65.5 -48t82 -22.5q63 0 94 26.5t31 63.5h37q20 -78 -39.5 -136.5t-159.5 -58.5z" glyph-name="asciitilde" horiz-adv-x="905" unicode="~"/><glyph d="M227 932q43 0 75 -29t32 -72t-32 -71.5t-75 -28.5t-73.5 28.5t-30.5 71.5t30.5 72t73.5 29zM193 563h28l74 -874q10 -115 -88 -115t-88 115z" glyph-name="exclamdown" horiz-adv-x="415" unicode="¡"/><glyph d="M862 223l31 -14q-37 -109 -133 -168t-225 -59q-74 0 -148 22l-35 -129h-47l39 145q-119 51 -190.5 161t-71.5 259q0 213 134 346.5t335 133.5q27 0 39 -2l39 145h47l-41 -150q104 -18 169.5 -71.5t65.5 -120.5q0 -43 -24.5 -63.5t-57.5 -20.5q-78 0 -116 133 q-16 53 -56 76l-192 -711q84 -45 180 -45q178 0 258 133zM227 502q0 -223 156 -340l190 700q-20 4 -36 4q-115 0 -212.5 -93t-97.5 -271z" glyph-name="cent" horiz-adv-x="974" unicode="¢"/><glyph d="M1053 350q51 -39 51 -110q0 -96 -65.5 -166t-139.5 -96.5t-135 -26.5q-80 0 -207 83t-211 83q-139 0 -223 -127l-41 39q242 238 242 497v86h-197l8 62h189v108q0 256 120.5 389.5t323.5 133.5q166 0 211 -91q-6 -90 -80 -118q-20 53 -87 90t-146 37q-88 0 -138.5 -68 t-50.5 -246v-235h395l-8 -62h-387v-86q0 -246 -129 -333q25 8 48.5 9t47 -1t27.5 -2q84 0 162 -38t142.5 -76t119.5 -38q80 0 80 84q0 63 -41 121z" glyph-name="sterling" horiz-adv-x="1185" unicode="£"/><glyph d="M1032 467q0 -166 -110 -287l112 -110l-30 -31l-111 111q-121 -111 -285 -111q-162 0 -280 108l-109 -108l-31 31l109 108q-109 121 -109 289q0 162 107 285l-107 104l31 33l107 -107q117 111 282 111q164 0 287 -113l109 109l30 -33l-108 -106q106 -123 106 -283z M233 467q0 -160 110 -274.5t267 -114.5q156 0 268.5 114.5t112.5 274.5t-111.5 272.5t-269 112.5t-267.5 -112.5t-110 -272.5z" glyph-name="currency" horiz-adv-x="1222" unicode="¤"/><glyph d="M891 1290h393v-35q-82 -16 -108.5 -33.5t-71.5 -93.5l-334 -538h279v-58h-306v-120h306v-58h-306v-147q0 -51 9.5 -80t42 -45t53 -21.5t86.5 -15.5v-45h-539v45q121 20 150 43q41 31 41 119v147h-328v58h328v118l-2 2h-326v58h291l-340 538q-49 76 -73.5 93.5 t-104.5 33.5v35h469v-35q-82 -18 -113 -43.5t2 -83.5l320 -518l313 518q20 35 23.5 56.5t-18 34t-39 17.5t-64.5 13q-23 4 -33 6v35z" glyph-name="yen" horiz-adv-x="1314" unicode="¥"/><glyph d="M164 645v678h57v-678h-57zM164 -358v677h57v-677h-57z" glyph-name="brokenbar" horiz-adv-x="385" unicode="¦"/><glyph d="M657 170q188 -113 189 -264q0 -115 -86 -195t-260 -80q-47 0 -88 6.5t-68 12.5t-58.5 20.5t-42 20.5t-38 24.5t-29.5 20.5l-6 201h33q33 -100 111.5 -176t195.5 -76q98 0 151.5 52t53.5 122q0 74 -64.5 131t-206.5 135q-2 0 -45 23.5t-51 28.5t-48 28.5t-52 36t-43 37 t-43 46t-29.5 49t-24 58.5t-6.5 64q0 104 67 180t177 106q-186 115 -186 267q0 111 86 192.5t254 81.5q49 0 91 -7t76.5 -21.5t54 -24.5t48.5 -29.5t35 -23.5l6 -201h-33q-33 102 -107.5 179t-178.5 77q-96 0 -148.5 -54.5t-52.5 -121.5q0 -74 64.5 -133.5t199.5 -128.5 q4 -2 44 -24t52.5 -30t49 -29.5t51 -36t44 -39t43 -46t30 -49t22.5 -58t6 -63.5q0 -106 -65.5 -182t-174.5 -107zM250 547q0 -100 72.5 -167t220.5 -144l45 -25q74 16 118 68.5t44 130.5q0 98 -73 164.5t-220 146.5l-39 20q-76 -16 -122 -66t-46 -128z" glyph-name="section" horiz-adv-x="989" unicode="§"/><glyph d="M100 1192q-35 0 -57.5 22.5t-22.5 57.5q0 37 23 59.5t57 22.5q37 0 59.5 -22.5t22.5 -59.5q0 -35 -22.5 -57.5t-59.5 -22.5zM469 1192q-35 0 -57.5 22.5t-22.5 57.5q0 37 22.5 59.5t57.5 22.5q37 0 59.5 -22.5t22.5 -59.5q0 -35 -22.5 -57.5t-59.5 -22.5z" glyph-name="dieresis" horiz-adv-x="571" unicode="¨"/><glyph d="M700 51q-248 0 -423 175t-175 423q0 246 175.5 421t422.5 175q246 0 421 -175t175 -421q0 -248 -175 -423t-421 -175zM700 92q223 0 386 166t163 391q0 227 -161.5 391t-387 164t-389.5 -163.5t-164 -391.5q0 -229 164 -393t389 -164zM725 305q-156 0 -256 95.5t-100 247 t96 248.5t262 97q133 0 211 -49l8 -141h-35q-18 76 -71.5 115.5t-126.5 39.5q-115 0 -183.5 -74.5t-68.5 -209.5q0 -141 87 -230.5t212 -89.5q115 0 170 58l18 -23q-80 -84 -223 -84z" glyph-name="copyright" horiz-adv-x="1398" unicode="©"/><glyph d="M541 819q0 -18 12 -26.5t35.5 -6.5t50.5 19v-27q-20 -43 -86 -80q-43 0 -68.5 33t-25.5 76v2q-125 -111 -244 -111q-68 0 -110 39t-42 101q0 90 109 139q33 12 133 45q123 35 141 55q6 8 11 21v-70l-148 -43q-84 -25 -117.5 -53.5t-33.5 -73.5q0 -47 33.5 -70.5 t78.5 -23.5q53 0 107.5 29.5t81.5 66.5v246q0 84 -41 114.5t-133 30.5q-43 0 -62 -37q-43 -104 -78 -104q-45 0 -45 45q0 61 91.5 103t191.5 42q86 0 122 -48t36 -150v-283zM100 520v33h506v-33h-506z" glyph-name="ordfeminine" horiz-adv-x="704" unicode="ª"/><glyph d="M102 469l318 274l14 -24l-201 -250l201 -252l-16 -24zM414 469l317 274l14 -24l-200 -250l200 -252l-16 -24z" glyph-name="guillemotleft" horiz-adv-x="847" unicode="«"/><glyph d="M997 735v-442h-71v371h-783v71h854z" glyph-name="logicalnot" horiz-adv-x="1140" unicode="¬"/><glyph d="M123 494v49h565v-49h-565z" glyph-name="uni00AD" horiz-adv-x="811" unicode="­"/><glyph d="M700 51q-248 0 -423 175t-175 423q0 246 175.5 421t422.5 175q246 0 421 -175t175 -421q0 -248 -175 -423t-421 -175zM700 92q223 0 386 166t163 391q0 227 -161.5 391t-387 164t-389.5 -163.5t-164 -391.5q0 -229 164 -393t389 -164zM948 317q-45 0 -76.5 25t-68.5 80 l-82 123q-45 63 -72 73v21q98 0 147.5 37t49.5 100q0 66 -49 105t-140 39q-45 0 -60 -12.5t-15 -37.5v-438q0 -33 11 -49t24.5 -19.5t46.5 -7.5v-22h-240v22q33 4 46 7.5t24.5 19.5t11.5 49v426q0 31 -12.5 47.5t-22.5 18.5t-47 10v22h227q276 0 277 -170 q0 -70 -54.5 -113.5t-130.5 -54.5l11 -8q10 -10 20 -19t27.5 -31.5t34.5 -49.5l36 -64q66 -100 109 -102v-20q-13 -7 -33 -7z" glyph-name="registered" horiz-adv-x="1398" unicode="®"/><glyph d="M10 1243l31 62h573l-30 -62h-574z" glyph-name="macron" horiz-adv-x="624" unicode="¯"/><glyph d="M365 768q-106 0 -184.5 73.5t-78.5 194.5q0 125 83 200t194 75q106 0 185 -74t79 -195q0 -123 -84.5 -198.5t-193.5 -75.5zM381 811q61 0 111.5 54.5t50.5 162.5q0 106 -53.5 173t-127.5 67q-61 0 -110 -54.5t-49 -162.5q0 -106 53 -173t125 -67z" glyph-name="degree" horiz-adv-x="745" unicode="°"/><glyph d="M559 758h342v-72h-342v-346h-72v346h-344v72h344v342h72v-342zM143 27v71h758v-71h-758z" glyph-name="plusminus" horiz-adv-x="1044" unicode="±"/><glyph d="M88 805l-6 22q10 8 41 35t43 37t38.5 34.5t40 39t34 37t30.5 39t21.5 36t16.5 38t5 36.5q0 41 -24.5 69.5t-71.5 28.5q-84 0 -135 -86l-23 15q25 63 79 99t120 36q72 0 119 -41t47 -102q0 -47 -35 -98.5t-72 -82t-93 -72.5t-66 -51h135q55 0 82.5 13.5t46.5 60.5h26 l-38 -143h-361z" glyph-name="uni00B2" horiz-adv-x="569" unicode="²"/><glyph d="M223 786q-55 0 -98 15.5t-43 46.5t35 31q18 0 52 -32t69 -32q47 0 85.5 34t38.5 91q0 55 -36.5 83t-92.5 28q-35 0 -73 -15l-10 25l63 24q66 25 93.5 46.5t27.5 58.5q0 66 -84 65.5t-131 -55.5l-21 17q66 96 189 96q59 0 97 -29t38 -76q0 -68 -115 -118q63 -4 108.5 -35 t45.5 -92q0 -76 -70 -126.5t-168 -50.5z" glyph-name="uni00B3" horiz-adv-x="542" unicode="³"/><glyph d="M53 1057l-30 24q72 199 141 297q31 0 71.5 -29.5t53.5 -54.5q-25 -16 -47.5 -35.5t-50 -49t-42 -44t-50.5 -56.5t-46 -52z" glyph-name="acute" horiz-adv-x="307" unicode="´"/><glyph d="M602 1290h651v-35q-104 -20 -131 -41q-39 -33 -39 -120v-1176q0 -123 -71.5 -199.5t-220.5 -76.5h-101v1491q0 49 -23.5 71.5t-84.5 22.5q-152 0 -243 -101.5t-91 -247t89 -237.5t251 -92q25 0 24.5 -32t-24.5 -32q-221 0 -374 112t-153 294t154 290.5t387 108.5z M918 -82v1215q0 96 -70 96q-37 0 -54.5 -21.5t-17.5 -74.5v-1438q47 2 77 20.5t43 54t17.5 67.5t4.5 81z" glyph-name="paragraph" horiz-adv-x="1314" unicode="¶"/><glyph d="M227 508q-43 0 -73.5 28.5t-30.5 71.5t30.5 72t73.5 29t75 -29t32 -72t-32 -71.5t-75 -28.5z" glyph-name="periodcentered" horiz-adv-x="415" unicode="·"/><glyph d="M135 -434l10 39q88 0 137.5 27.5t49.5 70.5q0 96 -215 96l102 201h76l-59 -113q90 0 144 -41t54 -108q0 -72 -69.5 -122t-229.5 -50z" glyph-name="cedilla" horiz-adv-x="454" unicode="¸"/><glyph d="M92 815v21q45 4 61.5 12t16.5 33v338q0 23 -8 29.5t-25 2.5l-41 -10v23l158 67l16 -12v-438q0 -25 16.5 -33t61.5 -12v-21h-256z" glyph-name="uni00B9" horiz-adv-x="440" unicode="¹"/><glyph d="M350 696q-121 0 -209 82t-88 215q0 139 94.5 223t217.5 84q121 0 210 -82.5t89 -216.5q0 -137 -96.5 -221t-217.5 -84zM369 735q78 0 136 61.5t58 186.5q0 123 -62.5 198.5t-150.5 75.5q-80 0 -138 -60t-58 -185q0 -123 63.5 -200t151.5 -77zM100 520v33h512v-33h-512z " glyph-name="ordmasculine" horiz-adv-x="714" unicode="º"/><glyph d="M410 469l-316 -276l-16 24l201 252l-201 250l14 24zM721 469l-315 -276l-17 24l201 252l-201 250l14 24z" glyph-name="guillemotright" horiz-adv-x="847" unicode="»"/><glyph d="M348 836v-21h-256v21q45 4 61.5 12t16.5 33v338q0 23 -8 29.5t-25 2.5l-41 -10v23l158 67l16 -12v-438q0 -25 16.5 -33t61.5 -12zM967 1303h57l-885 -1313h-57zM1059 66q0 -25 15.5 -33t60.5 -13v-20h-254v20q45 4 60 12.5t15 33.5v69h-221l-8 41l238 328h94v-328h76 l-9 -41h-67v-69zM768 176h188v260z" glyph-name="onequarter" horiz-adv-x="1216" unicode="¼"/><glyph d="M92 815v21q45 4 61.5 12t16.5 33v338q0 23 -8 29.5t-25 2.5l-41 -10v23l158 67l16 -12v-438q0 -25 16.5 -33t61.5 -12v-21h-256zM82 -10l885 1313h57l-885 -1313h-57zM754 0l-6 23q10 8 40.5 34.5t43 36.5t39 35t40 39t34 36.5t30.5 39t21.5 36t16.5 38t5 36.5 q0 41 -24.5 70t-71.5 29q-84 0 -136 -86l-22 14q25 63 79 99t120 36q72 0 118.5 -41t46.5 -102q0 -47 -34.5 -98.5t-71.5 -82t-93.5 -72.5t-66.5 -50h135q55 0 83 13t46 60h27l-39 -143h-360z" glyph-name="onehalf" horiz-adv-x="1234" unicode="½"/><glyph d="M461 963q0 -76 -69.5 -126.5t-168.5 -50.5q-55 0 -98 15.5t-43 46.5t35 31q18 0 52 -32t69 -32q47 0 85.5 34t38.5 91q0 55 -36.5 83t-92.5 28q-35 0 -73 -15l-10 25l63 24q66 25 93.5 46.5t27.5 58.5q0 66 -84 65.5t-131 -55.5l-21 17q66 96 189 96q59 0 97 -29t38 -76 q0 -68 -115 -118q63 -4 108.5 -35t45.5 -92zM1122 1303h58l-885 -1313h-57zM1317 66q0 -25 15.5 -33t60.5 -13v-20h-254v20q45 4 60 12.5t15 33.5v69h-221l-8 41l238 328h94v-328h76l-9 -41h-67v-69zM1026 176h188v260z" glyph-name="threequarters" horiz-adv-x="1474" unicode="¾"/><glyph d="M485 932q43 0 74 -29t31 -72t-31 -71.5t-74 -28.5t-74.5 28.5t-31.5 71.5t31.5 72t74.5 29zM508 526q27 -80 13.5 -133t-54.5 -118.5t-85 -119t-79 -131t-35 -155.5q0 -106 66.5 -176t220.5 -70q66 0 92 66q37 92 62.5 126.5t62.5 34.5q66 0 66 -67q0 -98 -134.5 -160.5 t-281.5 -62.5q-162 0 -241 86t-79 223q0 94 40 171t95.5 128t110.5 100t93 115t34 143h33z" glyph-name="questiondown" horiz-adv-x="899" unicode="¿"/><glyph d="M698 1446q-10 10 -46 52t-50 56.5t-42 44t-50.5 49t-46.5 35.5q12 25 53 54.5t72 29.5q70 -98 141 -297zM1241 154q29 -68 55.5 -85.5t110.5 -33.5v-35h-473v35q10 2 35.5 7t36 8t29 9.5t23.5 13.5t11 18t3 26.5t-11 36.5l-117 270h-561l-113 -274q-8 -18 -10 -34t4 -26 t11.5 -17t22.5 -13.5t26.5 -9.5t35 -8t35.5 -7v-35h-375v35q102 20 125 35q27 20 50 77l479 1158h69zM408 483h512l-263 609z" glyph-name="Agrave" horiz-adv-x="1427" unicode="À"/><glyph d="M895 1683q-25 -16 -47.5 -35.5t-50 -49t-42 -44t-50 -56.5t-46.5 -52l-30 24q72 199 141 297q31 0 72 -29.5t53 -54.5zM1241 154q29 -68 55.5 -85.5t110.5 -33.5v-35h-473v35q10 2 35.5 7t36 8t29 9.5t23.5 13.5t11 18t3 26.5t-11 36.5l-117 270h-561l-113 -274 q-8 -18 -10 -34t4 -26t11.5 -17t22.5 -13.5t26.5 -9.5t35 -8t35.5 -7v-35h-375v35q102 20 125 35q27 20 50 77l479 1158h69zM408 483h512l-263 609z" glyph-name="Aacute" horiz-adv-x="1427" unicode="Á"/><glyph d="M690 1663l-250 -201l-24 15l274 317l277 -315l-25 -17zM1241 154q29 -68 55.5 -85.5t110.5 -33.5v-35h-473v35q10 2 35.5 7t36 8t29 9.5t23.5 13.5t11 18t3 26.5t-11 36.5l-117 270h-561l-113 -274q-8 -18 -10 -34t4 -26t11.5 -17t22.5 -13.5t26.5 -9.5t35 -8t35.5 -7 v-35h-375v35q102 20 125 35q27 20 50 77l479 1158h69zM408 483h512l-263 609z" glyph-name="Acircumflex" horiz-adv-x="1427" unicode="Â"/><glyph d="M412 1561h-31q-18 74 36 129t146 55q68 0 116 -35t89 -70.5t90 -35.5q57 0 87 24.5t30 57.5h31q18 -74 -35 -130.5t-146 -56.5q-70 0 -119 35t-90 70.5t-88 35.5q-57 0 -86.5 -24t-29.5 -55zM1241 154q29 -68 55.5 -85.5t110.5 -33.5v-35h-473v35q10 2 35.5 7t36 8 t29 9.5t23.5 13.5t11 18t3 26.5t-11 36.5l-117 270h-561l-113 -274q-8 -18 -10 -34t4 -26t11.5 -17t22.5 -13.5t26.5 -9.5t35 -8t35.5 -7v-35h-375v35q102 20 125 35q27 20 50 77l479 1158h69zM408 483h512l-263 609z" glyph-name="Atilde" horiz-adv-x="1427" unicode="Ã"/><glyph d="M504 1581q-35 0 -57.5 22.5t-22.5 57.5q0 37 22.5 59.5t57.5 22.5q37 0 59.5 -22.5t22.5 -59.5q0 -35 -22.5 -57.5t-59.5 -22.5zM872 1581q-35 0 -57 22.5t-22 57.5q0 37 22.5 59.5t56.5 22.5q37 0 59.5 -22.5t22.5 -59.5q0 -35 -22.5 -57.5t-59.5 -22.5zM1241 154 q29 -68 55.5 -85.5t110.5 -33.5v-35h-473v35q10 2 35.5 7t36 8t29 9.5t23.5 13.5t11 18t3 26.5t-11 36.5l-117 270h-561l-113 -274q-8 -18 -10 -34t4 -26t11.5 -17t22.5 -13.5t26.5 -9.5t35 -8t35.5 -7v-35h-375v35q102 20 125 35q27 20 50 77l479 1158h69zM408 483h512 l-263 609z" glyph-name="Adieresis" horiz-adv-x="1427" unicode="Ä"/><glyph d="M690.5 1493q-69.5 0 -119 49t-49.5 119t49.5 119t119 49t118.5 -49t49 -119t-49 -119t-118.5 -49zM690 1769q-43 0 -74.5 -32.5t-31.5 -75.5t31.5 -76t74.5 -33t75 33t32 76t-32 75.5t-75 32.5zM1241 154q29 -68 55.5 -85.5t110.5 -33.5v-35h-473v35q10 2 35.5 7t36 8 t29 9.5t23.5 13.5t11 18t3 26.5t-11 36.5l-117 270h-561l-113 -274q-8 -18 -10 -34t4 -26t11.5 -17t22.5 -13.5t26.5 -9.5t35 -8t35.5 -7v-35h-375v35q102 20 125 35q27 20 50 77l479 1158h69zM408 483h512l-263 609z" glyph-name="Aring" horiz-adv-x="1427" unicode="Å"/><glyph d="M1700 297h45l-84 -297h-959v35q104 20 132 41q39 33 38 121v256h-438l-164 -285q-14 -23 -20 -40t0 -30.5t10 -20.5t24.5 -15.5t29 -10.5t37 -8t36.5 -8v-35h-367v35q82 16 109 34.5t72 96.5l536 919h-4q23 39 23 68t-7.5 44t-44 28.5t-51 15.5t-63.5 10q-16 2 -25 4v35 h1092l18 -280h-45q-14 117 -55 167t-145 50h-207q-121 0 -157 -26.5t-36 -129.5v-389h182q176 0 225.5 35t59.5 137h33v-405h-33q-10 102 -59 137t-226 35h-182v-402q0 -102 36 -129t157 -27h163q121 0 189 50.5t125 183.5zM469 512h403v582q0 59 -16 92z" glyph-name="AE" horiz-adv-x="1816" unicode="Æ"/><glyph d="M782 -25h-10l-47 -88q90 0 144.5 -41t54.5 -108q0 -72 -70 -122t-229 -50l10 39q88 0 137 27.5t49 70.5q0 96 -215 96l92 181q-264 29 -430 213t-166 462q0 289 189.5 478.5t509.5 189.5q240 0 397 -94q8 -186 14 -277h-61q-35 156 -139.5 232t-251.5 76 q-213 0 -344 -143.5t-131 -414.5q0 -285 166.5 -462t404.5 -177q90 0 187.5 27t152.5 86l35 -35q-66 -72 -185 -119t-264 -47z" glyph-name="Ccedilla" horiz-adv-x="1333" unicode="Ç"/><glyph d="M598 1446q-10 10 -46 52t-50.5 56.5t-42 44t-50 49t-47.5 35.5q12 25 53.5 54.5t71.5 29.5q70 -98 142 -297zM1059 297h45l-84 -297h-959v35q104 20 132 41q39 33 38 121v897q0 47 -7 75.5t-35.5 46t-42 21.5t-68.5 14q-10 2 -17 4v35h955l18 -280h-45q-14 117 -55 167 t-146 50h-206q-121 0 -157 -26.5t-36 -129.5v-389h182q176 0 225.5 35t59.5 137h33v-405h-33q-10 102 -59 137t-226 35h-182v-402q0 -102 36 -129t157 -27h163q121 0 189 50.5t125 183.5z" glyph-name="Egrave" horiz-adv-x="1175" unicode="È"/><glyph d="M795 1683q-25 -16 -47.5 -35.5t-50 -49t-42 -44t-50.5 -56.5t-46 -52l-31 24q72 199 142 297q31 0 72 -29.5t53 -54.5zM1059 297h45l-84 -297h-959v35q104 20 132 41q39 33 38 121v897q0 47 -7 75.5t-35.5 46t-42 21.5t-68.5 14q-10 2 -17 4v35h955l18 -280h-45 q-14 117 -55 167t-146 50h-206q-121 0 -157 -26.5t-36 -129.5v-389h182q176 0 225.5 35t59.5 137h33v-405h-33q-10 102 -59 137t-226 35h-182v-402q0 -102 36 -129t157 -27h163q121 0 189 50.5t125 183.5z" glyph-name="Eacute" horiz-adv-x="1175" unicode="É"/><glyph d="M590 1663l-250 -201l-25 15l275 317l276 -315l-24 -17zM1059 297h45l-84 -297h-959v35q104 20 132 41q39 33 38 121v897q0 47 -7 75.5t-35.5 46t-42 21.5t-68.5 14q-10 2 -17 4v35h955l18 -280h-45q-14 117 -55 167t-146 50h-206q-121 0 -157 -26.5t-36 -129.5v-389h182 q176 0 225.5 35t59.5 137h33v-405h-33q-10 102 -59 137t-226 35h-182v-402q0 -102 36 -129t157 -27h163q121 0 189 50.5t125 183.5z" glyph-name="Ecircumflex" horiz-adv-x="1175" unicode="Ê"/><glyph d="M403 1581q-35 0 -57 22.5t-22 57.5q0 37 22.5 59.5t56.5 22.5q37 0 59.5 -22.5t22.5 -59.5q0 -35 -22.5 -57.5t-59.5 -22.5zM772 1581q-35 0 -57.5 22.5t-22.5 57.5q0 37 22.5 59.5t57.5 22.5q37 0 59.5 -22.5t22.5 -59.5q0 -35 -22.5 -57.5t-59.5 -22.5zM1059 297h45 l-84 -297h-959v35q104 20 132 41q39 33 38 121v897q0 47 -7 75.5t-35.5 46t-42 21.5t-68.5 14q-10 2 -17 4v35h955l18 -280h-45q-14 117 -55 167t-146 50h-206q-121 0 -157 -26.5t-36 -129.5v-389h182q176 0 225.5 35t59.5 137h33v-405h-33q-10 102 -59 137t-226 35h-182 v-402q0 -102 36 -129t157 -27h163q121 0 189 50.5t125 183.5z" glyph-name="Edieresis" horiz-adv-x="1175" unicode="Ë"/><glyph d="M322 1446q-10 10 -46 52t-50.5 56.5t-42 44t-50 49t-47.5 35.5q12 25 53 54.5t72 29.5q70 -98 141 -297zM61 0v35q104 20 132 41q39 33 38 121v897q0 47 -7 75.5t-35.5 46t-42 21.5t-68.5 14q-10 2 -17 4v35h498v-35q-104 -20 -131 -41q-39 -33 -39 -120v-897 q0 -47 7 -76t36 -46.5t42 -21.5t69 -14q10 -2 16 -4v-35h-498z" glyph-name="Igrave" horiz-adv-x="620" unicode="Ì"/><glyph d="M283 1446l-31 24q72 199 141 297q31 0 72 -29.5t53 -54.5q-25 -16 -47 -35.5t-50 -49t-42 -44t-50 -56.5t-46 -52zM61 0v35q104 20 132 41q39 33 38 121v897q0 47 -7 75.5t-35.5 46t-42 21.5t-68.5 14q-10 2 -17 4v35h498v-35q-104 -20 -131 -41q-39 -33 -39 -120v-897 q0 -47 7 -76t36 -46.5t42 -21.5t69 -14q10 -2 16 -4v-35h-498z" glyph-name="Iacute" horiz-adv-x="620" unicode="Í"/><glyph d="M313 1794l277 -315l-25 -17l-252 201l-250 -201l-24 15zM61 0v35q104 20 132 41q39 33 38 121v897q0 47 -7 75.5t-35.5 46t-42 21.5t-68.5 14q-10 2 -17 4v35h498v-35q-104 -20 -131 -41q-39 -33 -39 -120v-897q0 -47 7 -76t36 -46.5t42 -21.5t69 -14q10 -2 16 -4v-35 h-498z" glyph-name="Icircumflex" horiz-adv-x="620" unicode="Î"/><glyph d="M127 1581q-35 0 -57.5 22.5t-22.5 57.5q0 37 22.5 59.5t57.5 22.5q37 0 59.5 -22.5t22.5 -59.5q0 -35 -22.5 -57.5t-59.5 -22.5zM496 1581q-35 0 -57.5 22.5t-22.5 57.5q0 37 22.5 59.5t57.5 22.5q37 0 59.5 -22.5t22.5 -59.5q0 -35 -22.5 -57.5t-59.5 -22.5zM61 0v35 q104 20 132 41q39 33 38 121v897q0 47 -7 75.5t-35.5 46t-42 21.5t-68.5 14q-10 2 -17 4v35h498v-35q-104 -20 -131 -41q-39 -33 -39 -120v-897q0 -47 7 -76t36 -46.5t42 -21.5t69 -14q10 -2 16 -4v-35h-498z" glyph-name="Idieresis" horiz-adv-x="620" unicode="Ï"/><glyph d="M553 1290q152 0 280 -35.5t230 -109.5t160.5 -200t58.5 -292q0 -225 -101.5 -375.5t-260 -214t-367.5 -63.5h-469v35q104 20 131 41q39 33 39 121v413l-193 -6l21 66q115 -4 172 -4v428q0 47 -7 75.5t-36 46t-42 21.5t-69 14q-10 2 -16 4v35h469zM610 66q260 0 377 144 t117 423q0 283 -131 437.5t-441 154.5h-120v-561q133 0 264 6l-21 -66q-123 6 -243 6v-348q0 -109 41.5 -152.5t156.5 -43.5z" glyph-name="Eth" horiz-adv-x="1384" unicode="Ð"/><glyph d="M440 1561h-30q-18 74 36 129t146 55q68 0 116 -35t89 -70.5t90 -35.5q57 0 87 24.5t30 57.5h30q18 -74 -35 -130.5t-145 -56.5q-70 0 -119 35t-90 70.5t-88 35.5q-57 0 -87 -24t-30 -55zM944 1290h430v-35q-82 18 -128 -21.5t-46 -139.5v-1094h-67l-822 1090v-893 q0 -47 8.5 -76t39 -46.5t45 -21.5t73.5 -14q12 -2 19 -4v-35h-435v35q106 20 134 41q41 33 41 121v897q0 47 -8.5 75.5t-36 46t-44 21.5t-67.5 14q-12 2 -19 4v35h293l768 -1009v813q0 199 -178 161v35z" glyph-name="Ntilde" horiz-adv-x="1435" unicode="Ñ"/><glyph d="M758 1446q-10 10 -46 52t-50.5 56.5t-42 44t-50 49t-47.5 35.5q12 25 53 54.5t72 29.5q70 -98 141 -297zM745 -25q-281 0 -462 193.5t-181 476.5q0 281 183.5 479.5t468.5 198.5q281 0 463 -194.5t182 -473.5q0 -285 -184.5 -482.5t-469.5 -197.5zM780 39 q184 0 314.5 151.5t130.5 403.5q0 285 -150.5 475.5t-355.5 190.5q-182 0 -312.5 -153t-130.5 -400q0 -287 149.5 -477.5t354.5 -190.5z" glyph-name="Ograve" horiz-adv-x="1501" unicode="Ò"/><glyph d="M719 1446l-31 24q72 199 141 297q31 0 72 -29.5t53 -54.5q-25 -16 -47 -35.5t-50 -49t-42 -44t-50 -56.5t-46 -52zM745 -25q-281 0 -462 193.5t-181 476.5q0 281 183.5 479.5t468.5 198.5q281 0 463 -194.5t182 -473.5q0 -285 -184.5 -482.5t-469.5 -197.5zM780 39 q184 0 314.5 151.5t130.5 403.5q0 285 -150.5 475.5t-355.5 190.5q-182 0 -312.5 -153t-130.5 -400q0 -287 149.5 -477.5t354.5 -190.5z" glyph-name="Oacute" horiz-adv-x="1501" unicode="Ó"/><glyph d="M750 1794l276 -315l-25 -17l-251 201l-250 -201l-25 15zM745 -25q-281 0 -462 193.5t-181 476.5q0 281 183.5 479.5t468.5 198.5q281 0 463 -194.5t182 -473.5q0 -285 -184.5 -482.5t-469.5 -197.5zM780 39q184 0 314.5 151.5t130.5 403.5q0 285 -150.5 475.5 t-355.5 190.5q-182 0 -312.5 -153t-130.5 -400q0 -287 149.5 -477.5t354.5 -190.5z" glyph-name="Ocircumflex" horiz-adv-x="1501" unicode="Ô"/><glyph d="M885 1499q-70 0 -119 35t-90 70.5t-88 35.5q-57 0 -87 -24.5t-30 -54.5h-31q-18 74 36 129t147 55q68 0 115.5 -35t88.5 -70.5t91 -35.5q57 0 86.5 24.5t29.5 57.5h31q18 -74 -35 -130.5t-145 -56.5zM745 -25q-281 0 -462 193.5t-181 476.5q0 281 183.5 479.5 t468.5 198.5q281 0 463 -194.5t182 -473.5q0 -285 -184.5 -482.5t-469.5 -197.5zM780 39q184 0 314.5 151.5t130.5 403.5q0 285 -150.5 475.5t-355.5 190.5q-182 0 -312.5 -153t-130.5 -400q0 -287 149.5 -477.5t354.5 -190.5z" glyph-name="Otilde" horiz-adv-x="1501" unicode="Õ"/><glyph d="M563 1581q-35 0 -57.5 22.5t-22.5 57.5q0 37 22.5 59.5t57.5 22.5q37 0 59.5 -22.5t22.5 -59.5q0 -35 -22.5 -57.5t-59.5 -22.5zM932 1581q-35 0 -57.5 22.5t-22.5 57.5q0 37 22.5 59.5t57.5 22.5q37 0 59.5 -22.5t22.5 -59.5q0 -35 -22.5 -57.5t-59.5 -22.5zM745 -25 q-281 0 -462 193.5t-181 476.5q0 281 183.5 479.5t468.5 198.5q281 0 463 -194.5t182 -473.5q0 -285 -184.5 -482.5t-469.5 -197.5zM780 39q184 0 314.5 151.5t130.5 403.5q0 285 -150.5 475.5t-355.5 190.5q-182 0 -312.5 -153t-130.5 -400q0 -287 149.5 -477.5 t354.5 -190.5z" glyph-name="Odieresis" horiz-adv-x="1501" unicode="Ö"/><glyph d="M743 764l-247 -248l247 -250l-51 -53l-248 250l-249 -250l-52 53l248 250l-248 248l52 53l249 -250l248 250z" glyph-name="multiply" horiz-adv-x="886" unicode="×"/><glyph d="M1120 1212q131 -92 205 -238.5t74 -318.5q0 -285 -184.5 -482.5t-469.5 -197.5q-186 0 -339 95l-107 -170l-37 26l105 168q-125 92 -195 236.5t-70 314.5q0 281 183.5 479.5t468.5 198.5q180 0 327 -86l117 186l37 -26zM276 707q0 -297 164 -496l576 922 q-133 127 -297 127q-182 0 -312.5 -152.5t-130.5 -400.5zM780 39q184 0 314.5 151.5t130.5 403.5q0 309 -176 506l-576 -924q133 -137 307 -137z" glyph-name="Oslash" horiz-adv-x="1501" unicode="Ø"/><glyph d="M731 1446q-10 10 -46 52t-50 56.5t-42 44t-50.5 49t-46.5 35.5q12 25 53 54.5t72 29.5q70 -98 141 -297zM717 -25q-70 0 -132.5 11.5t-131 47.5t-117.5 92t-82 155.5t-33 230.5v582q0 47 -7 75.5t-35.5 46t-42 21.5t-68.5 14q-10 2 -17 4v35h500v-35q-104 -20 -131 -41 q-39 -33 -39 -120v-605q0 -430 367 -430q70 0 129 16.5t119.5 57.5t96 124t35.5 202v635q0 47 -8 75.5t-35.5 46t-44 21.5t-67.5 14q-12 2 -19 4v35h439v-35q-115 -20 -142 -41q-43 -33 -43 -120v-594q0 -147 -43 -254t-116.5 -163t-155.5 -82t-176 -26z" glyph-name="Ugrave" horiz-adv-x="1443" unicode="Ù"/><glyph d="M692 1446l-30 24q72 199 141 297q31 0 71.5 -29.5t53.5 -54.5q-25 -16 -47.5 -35.5t-50 -49t-42 -44t-50.5 -56.5t-46 -52zM717 -25q-70 0 -132.5 11.5t-131 47.5t-117.5 92t-82 155.5t-33 230.5v582q0 47 -7 75.5t-35.5 46t-42 21.5t-68.5 14q-10 2 -17 4v35h500v-35 q-104 -20 -131 -41q-39 -33 -39 -120v-605q0 -430 367 -430q70 0 129 16.5t119.5 57.5t96 124t35.5 202v635q0 47 -8 75.5t-35.5 46t-44 21.5t-67.5 14q-12 2 -19 4v35h439v-35q-115 -20 -142 -41q-43 -33 -43 -120v-594q0 -147 -43 -254t-116.5 -163t-155.5 -82t-176 -26z " glyph-name="Uacute" horiz-adv-x="1443" unicode="Ú"/><glyph d="M723 1794l276 -315l-24 -17l-252 201l-250 -201l-24 15zM717 -25q-70 0 -132.5 11.5t-131 47.5t-117.5 92t-82 155.5t-33 230.5v582q0 47 -7 75.5t-35.5 46t-42 21.5t-68.5 14q-10 2 -17 4v35h500v-35q-104 -20 -131 -41q-39 -33 -39 -120v-605q0 -430 367 -430 q70 0 129 16.5t119.5 57.5t96 124t35.5 202v635q0 47 -8 75.5t-35.5 46t-44 21.5t-67.5 14q-12 2 -19 4v35h439v-35q-115 -20 -142 -41q-43 -33 -43 -120v-594q0 -147 -43 -254t-116.5 -163t-155.5 -82t-176 -26z" glyph-name="Ucircumflex" horiz-adv-x="1443" unicode="Û"/><glyph d="M537 1581q-35 0 -57.5 22.5t-22.5 57.5q0 37 22.5 59.5t57.5 22.5q37 0 59 -22.5t22 -59.5q0 -35 -22 -57.5t-59 -22.5zM905 1581q-35 0 -57.5 22.5t-22.5 57.5q0 37 22.5 59.5t57.5 22.5q37 0 59.5 -22.5t22.5 -59.5q0 -35 -22.5 -57.5t-59.5 -22.5zM717 -25 q-70 0 -132.5 11.5t-131 47.5t-117.5 92t-82 155.5t-33 230.5v582q0 47 -7 75.5t-35.5 46t-42 21.5t-68.5 14q-10 2 -17 4v35h500v-35q-104 -20 -131 -41q-39 -33 -39 -120v-605q0 -430 367 -430q70 0 129 16.5t119.5 57.5t96 124t35.5 202v635q0 47 -8 75.5t-35.5 46 t-44 21.5t-67.5 14q-12 2 -19 4v35h439v-35q-115 -20 -142 -41q-43 -33 -43 -120v-594q0 -147 -43 -254t-116.5 -163t-155.5 -82t-176 -26z" glyph-name="Udieresis" horiz-adv-x="1443" unicode="Ü"/><glyph d="M864 1683q-25 -16 -47 -35.5t-50 -49t-42 -44t-50 -56.5t-46 -52l-31 24q72 199 141 297q31 0 72 -29.5t53 -54.5zM891 1290h393v-35q-82 -16 -108.5 -33.5t-71.5 -93.5l-361 -581v-340q0 -51 9.5 -80t42 -45t53 -21.5t86.5 -15.5v-45h-539v45q121 20 150 43 q41 31 41 119v323l-377 598q-49 76 -73.5 93.5t-104.5 33.5v35h469v-35q-82 -18 -113 -43.5t2 -83.5l320 -518l313 518q20 35 23.5 56.5t-18 34t-39 17.5t-64.5 13q-23 4 -33 6v35z" glyph-name="Yacute" horiz-adv-x="1314" unicode="Ý"/><glyph d="M1065 643.5q0 -106.5 -38 -186.5t-98.5 -127t-152.5 -77t-181 -40t-206 -14v-2q0 -47 7 -76t36 -46.5t42 -21.5t69 -14q10 -2 16 -4v-35h-498v35q104 20 132 41q39 33 38 121v897q0 47 -7 75.5t-35.5 46t-42 21.5t-68.5 14q-10 2 -17 4v35h498v-35q-104 -20 -131 -41 q-39 -33 -39 -120v-7q117 -4 206 -14t181 -39.5t152.5 -77t98.5 -127t38 -186zM887 643q0 184 -121 272.5t-377 104.5v-754q256 16 377 104.5t121 272.5z" glyph-name="Thorn" horiz-adv-x="1146" unicode="Þ"/><glyph d="M569 -27q-152 0 -151 86q0 27 20.5 45.5t48.5 18.5q43 0 121 -38t111 -38q51 0 110.5 46t59.5 108q0 98 -111 209l-223 227q10 12 49 53t50.5 53.5t37 46t33.5 54t17.5 53.5t9.5 66q0 57 -16.5 113.5t-68 107.5t-126.5 51q-94 0 -150.5 -69.5t-56.5 -168.5v-997h-283v35 q4 0 24.5 4t28 5t24.5 6t24.5 9t18.5 12.5t16.5 17.5t9.5 22.5t4 29.5v856q0 115 88 211.5t252 96.5q174 0 263 -89.5t87 -214.5q0 -51 -19.5 -96t-55.5 -82t-63.5 -60.5t-69.5 -51t-50 -33.5l35 4l190 -193q154 -154 154 -258q0 -70 -75 -131t-176.5 -94t-191.5 -33z" glyph-name="germandbls" horiz-adv-x="1060" unicode="ß"/><glyph d="M492 1057q-10 10 -46 52t-50.5 56.5t-42 44t-50 49t-47.5 35.5q12 25 53 54.5t72 29.5q70 -98 141 -297zM813 180q0 -49 44 -58t110 28v-39q-35 -63 -136 -125q-66 0 -108.5 51t-42.5 119q-188 -170 -373 -170q-109 0 -172 60t-63 157q0 117 92 176t287 113 q121 33 167 51t62 53v27q0 129 -60.5 178t-205.5 49q-72 0 -97 -62q-43 -96 -65.5 -128.5t-56.5 -32.5q-68 0 -68 67q0 94 142.5 160t293.5 66q137 0 193.5 -74t56.5 -236v-430zM395 88q84 0 164 44t121 101v267l-229 -68q-131 -37 -181.5 -81t-50.5 -113q0 -80 51 -115 t125 -35z" glyph-name="agrave" horiz-adv-x="1007" unicode="à"/><glyph d="M688 1294q-25 -16 -47.5 -35.5t-50 -49t-41.5 -44t-50 -56.5t-46 -52l-31 24q72 199 141 297q31 0 72 -29.5t53 -54.5zM813 180q0 -49 44 -58t110 28v-39q-35 -63 -136 -125q-66 0 -108.5 51t-42.5 119q-188 -170 -373 -170q-109 0 -172 60t-63 157q0 117 92 176t287 113 q121 33 167 51t62 53v27q0 129 -60.5 178t-205.5 49q-72 0 -97 -62q-43 -96 -65.5 -128.5t-56.5 -32.5q-68 0 -68 67q0 94 142.5 160t293.5 66q137 0 193.5 -74t56.5 -236v-430zM395 88q84 0 164 44t121 101v267l-229 -68q-131 -37 -181.5 -81t-50.5 -113q0 -80 51 -115 t125 -35z" glyph-name="aacute" horiz-adv-x="1007" unicode="á"/><glyph d="M483 1274l-250 -201l-24 14l274 318l277 -315l-25 -17zM813 180q0 -49 44 -58t110 28v-39q-35 -63 -136 -125q-66 0 -108.5 51t-42.5 119q-188 -170 -373 -170q-109 0 -172 60t-63 157q0 117 92 176t287 113q121 33 167 51t62 53v27q0 129 -60.5 178t-205.5 49 q-72 0 -97 -62q-43 -96 -65.5 -128.5t-56.5 -32.5q-68 0 -68 67q0 94 142.5 160t293.5 66q137 0 193.5 -74t56.5 -236v-430zM395 88q84 0 164 44t121 101v267l-229 -68q-131 -37 -181.5 -81t-50.5 -113q0 -80 51 -115t125 -35z" glyph-name="acircumflex" horiz-adv-x="1007" unicode="â"/><glyph d="M205 1171h-31q-18 74 36 129.5t146 55.5q68 0 116 -35t89 -71t90 -36q57 0 87 25t30 57h31q18 -74 -35 -130t-146 -56q-70 0 -118.5 35t-89.5 70.5t-88 35.5q-57 0 -87 -24.5t-30 -55.5zM813 180q0 -49 44 -58t110 28v-39q-35 -63 -136 -125q-66 0 -108.5 51t-42.5 119 q-188 -170 -373 -170q-109 0 -172 60t-63 157q0 117 92 176t287 113q121 33 167 51t62 53v27q0 129 -60.5 178t-205.5 49q-72 0 -97 -62q-43 -96 -65.5 -128.5t-56.5 -32.5q-68 0 -68 67q0 94 142.5 160t293.5 66q137 0 193.5 -74t56.5 -236v-430zM395 88q84 0 164 44 t121 101v267l-229 -68q-131 -37 -181.5 -81t-50.5 -113q0 -80 51 -115t125 -35z" glyph-name="atilde" horiz-adv-x="1007" unicode="ã"/><glyph d="M297 1192q-35 0 -57.5 22.5t-22.5 57.5q0 37 22.5 59.5t57.5 22.5q37 0 59.5 -22.5t22.5 -59.5q0 -35 -22.5 -57.5t-59.5 -22.5zM666 1192q-35 0 -57.5 22.5t-22.5 57.5q0 37 22.5 59.5t57.5 22.5q37 0 59.5 -22.5t22.5 -59.5q0 -35 -22.5 -57.5t-59.5 -22.5zM813 180 q0 -49 44 -58t110 28v-39q-35 -63 -136 -125q-66 0 -108.5 51t-42.5 119q-188 -170 -373 -170q-109 0 -172 60t-63 157q0 117 92 176t287 113q121 33 167 51t62 53v27q0 129 -60.5 178t-205.5 49q-72 0 -97 -62q-43 -96 -65.5 -128.5t-56.5 -32.5q-68 0 -68 67 q0 94 142.5 160t293.5 66q137 0 193.5 -74t56.5 -236v-430zM395 88q84 0 164 44t121 101v267l-229 -68q-131 -37 -181.5 -81t-50.5 -113q0 -80 51 -115t125 -35z" glyph-name="adieresis" horiz-adv-x="1007" unicode="ä"/><glyph d="M483.5 1104q-69.5 0 -119 49t-49.5 118.5t49.5 119t119 49.5t118.5 -49.5t49 -119t-49 -118.5t-118.5 -49zM483 1380q-43 0 -74.5 -32.5t-31.5 -75.5t31.5 -76t74.5 -33t75 33t32 76t-32 75.5t-75 32.5zM813 180q0 -49 44 -58t110 28v-39q-35 -63 -136 -125 q-66 0 -108.5 51t-42.5 119q-188 -170 -373 -170q-109 0 -172 60t-63 157q0 117 92 176t287 113q121 33 167 51t62 53v27q0 129 -60.5 178t-205.5 49q-72 0 -97 -62q-43 -96 -65.5 -128.5t-56.5 -32.5q-68 0 -68 67q0 94 142.5 160t293.5 66q137 0 193.5 -74t56.5 -236v-430 zM395 88q84 0 164 44t121 101v267l-229 -68q-131 -37 -181.5 -81t-50.5 -113q0 -80 51 -115t125 -35z" glyph-name="aring" horiz-adv-x="1007" unicode="å"/><glyph d="M1452 219l31 -16q-37 -106 -131.5 -163.5t-218.5 -57.5q-141 0 -255 70.5t-167 195.5l14 -49q-205 -213 -418 -213q-109 0 -172 60t-63 157q0 117 92 176t287 113q121 33 167 51t62 53v27q0 129 -60.5 178t-205.5 49q-72 0 -97 -62q-39 -94 -63.5 -127.5t-58.5 -33.5 q-68 0 -68 67q0 94 142.5 160t293.5 66q182 0 230 -142q125 141 325 142q135 0 227.5 -70t120 -161t-1.5 -171h-651v-16h-2q4 -176 108.5 -293t276.5 -117q178 0 256 127zM1094 862q-104 0 -183.5 -75.5t-95.5 -211.5h520q14 100 -50 193.5t-191 93.5zM395 88 q94 0 181.5 53.5t125.5 122.5q-31 80 -30 178q0 39 2 58l-223 -68q-131 -37 -181.5 -81t-50.5 -113q0 -80 51 -115t125 -35z" glyph-name="ae" horiz-adv-x="1564" unicode="æ"/><glyph d="M893 209q-35 -106 -128 -164.5t-218 -62.5l-49 -95q90 0 144 -41t54 -108q0 -72 -69.5 -122t-229.5 -50l11 39q88 0 137 27.5t49 70.5q0 96 -215 96l94 187q-170 20 -280.5 142t-110.5 312q0 213 134 346.5t335 133.5q133 0 226 -58.5t93 -140.5q0 -43 -24.5 -63.5 t-57.5 -20.5q-78 0 -116 133q-29 96 -135 96q-115 0 -212.5 -93t-97.5 -271q0 -180 106.5 -296t270.5 -116q178 0 258 133z" glyph-name="ccedilla" horiz-adv-x="974" unicode="ç"/><glyph d="M504 1057q-10 10 -46 52t-50.5 56.5t-42 44t-50 49t-47.5 35.5q12 25 53 54.5t72 29.5q70 -98 142 -297zM862 219l31 -16q-37 -106 -131 -163.5t-219 -57.5q-193 0 -327 127t-134 333.5t124 342t322 135.5q135 0 227.5 -70t120 -161t-1.5 -171h-653v-8q0 -178 105.5 -298 t279.5 -120q178 0 256 127zM504 862q-104 0 -183 -75.5t-96 -211.5h520q14 100 -50 193.5t-191 93.5z" glyph-name="egrave" horiz-adv-x="978" unicode="è"/><glyph d="M700 1294q-25 -16 -47 -35.5t-50 -49t-42 -44t-50 -56.5t-46 -52l-31 24q72 199 141 297q31 0 72 -29.5t53 -54.5zM862 219l31 -16q-37 -106 -131 -163.5t-219 -57.5q-193 0 -327 127t-134 333.5t124 342t322 135.5q135 0 227.5 -70t120 -161t-1.5 -171h-653v-8 q0 -178 105.5 -298t279.5 -120q178 0 256 127zM504 862q-104 0 -183 -75.5t-96 -211.5h520q14 100 -50 193.5t-191 93.5z" glyph-name="eacute" horiz-adv-x="978" unicode="é"/><glyph d="M496 1274l-250 -201l-25 14l275 318l276 -315l-24 -17zM862 219l31 -16q-37 -106 -131 -163.5t-219 -57.5q-193 0 -327 127t-134 333.5t124 342t322 135.5q135 0 227.5 -70t120 -161t-1.5 -171h-653v-8q0 -178 105.5 -298t279.5 -120q178 0 256 127zM504 862 q-104 0 -183 -75.5t-96 -211.5h520q14 100 -50 193.5t-191 93.5z" glyph-name="ecircumflex" horiz-adv-x="978" unicode="ê"/><glyph d="M309 1192q-35 0 -57.5 22.5t-22.5 57.5q0 37 22.5 59.5t57.5 22.5q37 0 59.5 -22.5t22.5 -59.5q0 -35 -22.5 -57.5t-59.5 -22.5zM678 1192q-35 0 -57.5 22.5t-22.5 57.5q0 37 22.5 59.5t57.5 22.5q37 0 59.5 -22.5t22.5 -59.5q0 -35 -22.5 -57.5t-59.5 -22.5zM862 219 l31 -16q-37 -106 -131 -163.5t-219 -57.5q-193 0 -327 127t-134 333.5t124 342t322 135.5q135 0 227.5 -70t120 -161t-1.5 -171h-653v-8q0 -178 105.5 -298t279.5 -120q178 0 256 127zM504 862q-104 0 -183 -75.5t-96 -211.5h520q14 100 -50 193.5t-191 93.5z" glyph-name="edieresis" horiz-adv-x="978" unicode="ë"/><glyph d="M264 1057q-10 10 -46 52t-50 56.5t-42 44t-50.5 49t-46.5 35.5q12 25 53 54.5t72 29.5q70 -98 141 -297zM61 0v35q43 8 54.5 10t38 13.5t35 31t8.5 51.5v514q0 61 -26 90t-110 39v31q57 10 88 24.5t72 46.5t66 48l43 -39v-754q0 -33 8 -52t34.5 -30.5t38 -13.5t54.5 -10 v-35h-404z" glyph-name="igrave" horiz-adv-x="526" unicode="ì"/><glyph d="M225 1057l-30 24q72 199 141 297q31 0 72 -29.5t53 -54.5q-25 -16 -47.5 -35.5t-50 -49t-42 -44t-50.5 -56.5t-46 -52zM61 0v35q43 8 54.5 10t38 13.5t35 31t8.5 51.5v514q0 61 -26 90t-110 39v31q57 10 88 24.5t72 46.5t66 48l43 -39v-754q0 -33 8 -52t34.5 -30.5 t38 -13.5t54.5 -10v-35h-404z" glyph-name="iacute" horiz-adv-x="526" unicode="í"/><glyph d="M256 1405l276 -315l-24 -17l-252 201l-250 -201l-24 14zM61 0v35q43 8 54.5 10t38 13.5t35 31t8.5 51.5v514q0 61 -26 90t-110 39v31q57 10 88 24.5t72 46.5t66 48l43 -39v-754q0 -33 8 -52t34.5 -30.5t38 -13.5t54.5 -10v-35h-404z" glyph-name="icircumflex" horiz-adv-x="526" unicode="î"/><glyph d="M70 1192q-35 0 -57.5 22.5t-22.5 57.5q0 37 22.5 59.5t57.5 22.5q37 0 59.5 -22.5t22.5 -59.5q0 -35 -22.5 -57.5t-59.5 -22.5zM438 1192q-35 0 -57.5 22.5t-22.5 57.5q0 37 22.5 59.5t57.5 22.5q37 0 59.5 -22.5t22.5 -59.5q0 -35 -22.5 -57.5t-59.5 -22.5zM61 0v35 q43 8 54.5 10t38 13.5t35 31t8.5 51.5v514q0 61 -26 90t-110 39v31q57 10 88 24.5t72 46.5t66 48l43 -39v-754q0 -33 8 -52t34.5 -30.5t38 -13.5t54.5 -10v-35h-404z" glyph-name="idieresis" horiz-adv-x="526" unicode="ï"/><glyph d="M725 1116q133 -113 212 -265.5t81 -324.5q0 -238 -134 -391t-349 -153q-184 0 -318.5 127t-134.5 335q0 215 142.5 345.5t332.5 130.5q119 0 209 -41q-57 119 -145 202q-186 -61 -347 -125v64q119 33 310 94q-156 131 -336 148l24 43q215 -12 412 -158q135 47 262 100 v-63zM563 47q78 0 134.5 31t86 73t46 107.5t20.5 116.5t4 117q0 166 -95 264t-227 98q-121 0 -207.5 -93t-86.5 -285.5t94 -310.5t231 -118z" glyph-name="eth" horiz-adv-x="1120" unicode="ð"/><glyph d="M690 1110q-70 0 -119 35t-90 70.5t-88 35.5q-57 0 -87 -24.5t-30 -55.5h-30q-18 74 36 129.5t146 55.5q68 0 116 -35t89 -71t90 -36q57 0 87 25t30 57h30q18 -74 -35 -130t-145 -56zM51 0v35q43 8 54.5 10t38 13.5t34.5 31t8 51.5v514q0 61 -25.5 90t-109.5 39v31 q66 10 112 27.5t71.5 35t74.5 56.5l41 -39l-45 -172h19q150 197 358 197q135 0 190.5 -82t55.5 -234v-463q0 -33 8 -52t34.5 -30.5t38 -13.5t54.5 -10v-35h-406v35q43 6 56.5 9t39 14.5t34 31t8.5 51.5v461q0 92 -45 149.5t-144 57.5q-162 0 -287 -152v-516q0 -27 9.5 -45 t15.5 -27.5t34 -17.5t35 -9t46 -7v-35h-408z" glyph-name="ntilde" horiz-adv-x="1114" unicode="ñ"/><glyph d="M563 1057q-10 10 -46 52t-50 56.5t-42 44t-50.5 49t-46.5 35.5q12 25 53 54.5t72 29.5q70 -98 141 -297zM543 -18q-184 0 -322.5 128t-138.5 334q0 215 145.5 345.5t337.5 130.5q184 0 322.5 -128t138.5 -335q0 -215 -145 -345t-338 -130zM567 41q121 0 212 96t91 288.5 t-97 313.5t-232 121q-121 0 -212 -96t-91 -288.5t97 -313.5t232 -121z" glyph-name="ograve" horiz-adv-x="1107" unicode="ò"/><glyph d="M524 1057l-30 24q72 199 141 297q31 0 72 -29.5t53 -54.5q-25 -16 -47.5 -35.5t-50 -49t-42 -44t-50.5 -56.5t-46 -52zM543 -18q-184 0 -322.5 128t-138.5 334q0 215 145.5 345.5t337.5 130.5q184 0 322.5 -128t138.5 -335q0 -215 -145 -345t-338 -130zM567 41 q121 0 212 96t91 288.5t-97 313.5t-232 121q-121 0 -212 -96t-91 -288.5t97 -313.5t232 -121z" glyph-name="oacute" horiz-adv-x="1107" unicode="ó"/><glyph d="M555 1405l276 -315l-24 -17l-252 201l-250 -201l-24 14zM543 -18q-184 0 -322.5 128t-138.5 334q0 215 145.5 345.5t337.5 130.5q184 0 322.5 -128t138.5 -335q0 -215 -145 -345t-338 -130zM567 41q121 0 212 96t91 288.5t-97 313.5t-232 121q-121 0 -212 -96t-91 -288.5 t97 -313.5t232 -121z" glyph-name="ocircumflex" horiz-adv-x="1107" unicode="ô"/><glyph d="M690 1110q-70 0 -119 35t-90 70.5t-88 35.5q-57 0 -87 -24.5t-30 -55.5h-30q-18 74 36 129.5t146 55.5q68 0 116 -35t89 -71t90 -36q57 0 87 25t30 57h30q18 -74 -35 -130t-145 -56zM543 -18q-184 0 -322.5 128t-138.5 334q0 215 145.5 345.5t337.5 130.5 q184 0 322.5 -128t138.5 -335q0 -215 -145 -345t-338 -130zM567 41q121 0 212 96t91 288.5t-97 313.5t-232 121q-121 0 -212 -96t-91 -288.5t97 -313.5t232 -121z" glyph-name="otilde" horiz-adv-x="1107" unicode="õ"/><glyph d="M369 1192q-35 0 -57.5 22.5t-22.5 57.5q0 37 22.5 59.5t57.5 22.5q37 0 59.5 -22.5t22.5 -59.5q0 -35 -22.5 -57.5t-59.5 -22.5zM737 1192q-35 0 -57.5 22.5t-22.5 57.5q0 37 22.5 59.5t57.5 22.5q37 0 59.5 -22.5t22.5 -59.5q0 -35 -22.5 -57.5t-59.5 -22.5zM543 -18 q-184 0 -322.5 128t-138.5 334q0 215 145.5 345.5t337.5 130.5q184 0 322.5 -128t138.5 -335q0 -215 -145 -345t-338 -130zM567 41q121 0 212 96t91 288.5t-97 313.5t-232 121q-121 0 -212 -96t-91 -288.5t97 -313.5t232 -121z" glyph-name="odieresis" horiz-adv-x="1107" unicode="ö"/><glyph d="M526 764q-23 0 -41 20.5t-18 45t18.5 44t40.5 19.5q25 0 44.5 -19.5t19.5 -44.5q0 -27 -19.5 -46t-44.5 -19zM143 479v72h758v-72h-758zM526 137q-23 0 -41 20.5t-18 45t18.5 44t40.5 19.5q25 0 44.5 -19.5t19.5 -43.5q0 -27 -19.5 -46.5t-44.5 -19.5z" glyph-name="divide" horiz-adv-x="1044" unicode="÷"/><glyph d="M827 842q199 -133 199 -385q0 -215 -145.5 -345t-337.5 -130q-117 0 -219 53l-86 -139l-37 30l82 133q-201 133 -201 385q0 215 145.5 345.5t337.5 130.5q121 0 221 -56l88 144l37 -31zM238 475q0 -197 104 -321l391 628q-88 78 -192 78q-121 0 -212 -96t-91 -289z M567 41q121 0 212 96t91 288.5t-102 319.5l-391 -626q84 -78 190 -78z" glyph-name="oslash" horiz-adv-x="1107" unicode="ø"/><glyph d="M582 1057q-10 10 -46 52t-50.5 56.5t-42 44t-50 49t-47.5 35.5q12 25 53 54.5t72 29.5q70 -98 141 -297zM438 -18q-262 0 -262 315v473q0 37 -17.5 56.5t-39 25.5t-68.5 14v35q147 -8 258 12v-610q0 -205 187 -205q162 0 303 115v557q0 37 -17.5 56.5t-39 25.5t-68.5 14 v35q147 -8 258 12v-743q0 -61 25.5 -91t109.5 -44v-35h-260l12 158h-22q-181 -176 -359 -176z" glyph-name="ugrave" unicode="ù"/><glyph d="M543 1057l-31 24q72 199 141 297q31 0 72 -29.5t53 -54.5q-25 -16 -47 -35.5t-50 -49t-42 -44t-50 -56.5t-46 -52zM438 -18q-262 0 -262 315v473q0 37 -17.5 56.5t-39 25.5t-68.5 14v35q147 -8 258 12v-610q0 -205 187 -205q162 0 303 115v557q0 37 -17.5 56.5t-39 25.5 t-68.5 14v35q147 -8 258 12v-743q0 -61 25.5 -91t109.5 -44v-35h-260l12 158h-22q-181 -176 -359 -176z" glyph-name="uacute" unicode="ú"/><glyph d="M573 1405l277 -315l-25 -17l-252 201l-249 -201l-25 14zM438 -18q-262 0 -262 315v473q0 37 -17.5 56.5t-39 25.5t-68.5 14v35q147 -8 258 12v-610q0 -205 187 -205q162 0 303 115v557q0 37 -17.5 56.5t-39 25.5t-68.5 14v35q147 -8 258 12v-743q0 -61 25.5 -91 t109.5 -44v-35h-260l12 158h-22q-181 -176 -359 -176z" glyph-name="ucircumflex" unicode="û"/><glyph d="M387 1192q-35 0 -57.5 22.5t-22.5 57.5q0 37 22.5 59.5t57.5 22.5q37 0 59.5 -22.5t22.5 -59.5q0 -35 -22.5 -57.5t-59.5 -22.5zM756 1192q-35 0 -57.5 22.5t-22.5 57.5q0 37 22.5 59.5t57.5 22.5q37 0 59.5 -22.5t22.5 -59.5q0 -35 -22.5 -57.5t-59.5 -22.5zM438 -18 q-262 0 -262 315v473q0 37 -17.5 56.5t-39 25.5t-68.5 14v35q147 -8 258 12v-610q0 -205 187 -205q162 0 303 115v557q0 37 -17.5 56.5t-39 25.5t-68.5 14v35q147 -8 258 12v-743q0 -61 25.5 -91t109.5 -44v-35h-260l12 158h-22q-181 -176 -359 -176z" glyph-name="udieresis" unicode="ü"/><glyph d="M717 1294q-25 -16 -47.5 -35.5t-50 -49t-42 -44t-50 -56.5t-46.5 -52l-30 24q72 199 141 297q31 0 72 -29.5t53 -54.5zM676 901h317v-35q-68 -8 -90 -22.5t-47 -71.5l-371 -868l-27 -67.5t-35 -69t-48.5 -71t-57 -46t-73.5 -21.5q-63 0 -127 47v105q254 -10 307 123 l53 125l-319 745q-23 55 -46.5 69.5t-91.5 22.5v35h396v-35q-96 -14 -113 -37q-16 -20 -2 -55l244 -588l250 586q6 29 7 44t-20.5 25.5t-40 14.5t-49.5 8q-10 2 -16 2v35z" glyph-name="yacute" horiz-adv-x="1013" unicode="ý"/><glyph d="M641 920q147 0 249.5 -117t102.5 -311q0 -227 -138 -368.5t-337 -141.5q-123 0 -219 67v-260q0 -66 34 -84t130 -29v-34h-438v34q43 6 59 9.5t38.5 14.5t30 32.5t7.5 56.5v500h2q-2 12 -2 37v778q0 106 -150 129v31q145 31 248 116l41 -39v-622q51 84 144.5 142.5 t197.5 58.5zM522 43q125 0 232.5 91t107.5 276q0 172 -93 282.5t-226 110.5q-82 0 -146.5 -44t-97.5 -104v-354q0 -109 55 -183.5t168 -74.5z" glyph-name="thorn" horiz-adv-x="1075" unicode="þ"/><glyph d="M326 1192q-35 0 -57.5 22.5t-22.5 57.5q0 37 22.5 59.5t57.5 22.5q37 0 59.5 -22.5t22.5 -59.5q0 -35 -22.5 -57.5t-59.5 -22.5zM694 1192q-35 0 -57.5 22.5t-22.5 57.5q0 37 22.5 59.5t57.5 22.5q37 0 59.5 -22.5t22.5 -59.5q0 -35 -22.5 -57.5t-59.5 -22.5zM676 901 h317v-35q-68 -8 -90 -22.5t-47 -71.5l-371 -868l-27 -67.5t-35 -69t-48.5 -71t-57 -46t-73.5 -21.5q-63 0 -127 47v105q254 -10 307 123l53 125l-319 745q-23 55 -46.5 69.5t-91.5 22.5v35h396v-35q-96 -14 -113 -37q-16 -20 -2 -55l244 -588l250 586q6 29 7 44t-20.5 25.5 t-40 14.5t-49.5 8q-10 2 -16 2v35z" glyph-name="ydieresis" horiz-adv-x="1013" unicode="ÿ"/><glyph d="M993 1694l-30 -62h-574l31 62h573zM1241 154q29 -68 55.5 -85.5t110.5 -33.5v-35h-473v35q10 2 35.5 7t36 8t29 9.5t23.5 13.5t11 18t3 26.5t-11 36.5l-117 270h-561l-113 -274q-8 -18 -10 -34t4 -26t11.5 -17t22.5 -13.5t26.5 -9.5t35 -8t35.5 -7v-35h-375v35 q102 20 125 35q27 20 50 77l479 1158h69zM408 483h512l-263 609z" glyph-name="Amacron" horiz-adv-x="1427" unicode="Ā"/><glyph d="M786 1305l-30 -62h-574l31 62h573zM813 180q0 -49 44 -58t110 28v-39q-35 -63 -136 -125q-66 0 -108.5 51t-42.5 119q-188 -170 -373 -170q-109 0 -172 60t-63 157q0 117 92 176t287 113q121 33 167 51t62 53v27q0 129 -60.5 178t-205.5 49q-72 0 -97 -62 q-43 -96 -65.5 -128.5t-56.5 -32.5q-68 0 -68 67q0 94 142.5 160t293.5 66q137 0 193.5 -74t56.5 -236v-430zM395 88q84 0 164 44t121 101v267l-229 -68q-131 -37 -181.5 -81t-50.5 -113q0 -80 51 -115t125 -35z" glyph-name="amacron" horiz-adv-x="1007" unicode="ā"/><glyph d="M690 1534q-129 0 -192.5 69.5t-63.5 176.5h35q25 -133 221.5 -133t220.5 133h35q0 -106 -63.5 -176t-192.5 -70zM1241 154q29 -68 55.5 -85.5t110.5 -33.5v-35h-473v35q10 2 35.5 7t36 8t29 9.5t23.5 13.5t11 18t3 26.5t-11 36.5l-117 270h-561l-113 -274q-8 -18 -10 -34 t4 -26t11.5 -17t22.5 -13.5t26.5 -9.5t35 -8t35.5 -7v-35h-375v35q102 20 125 35q27 20 50 77l479 1158h69zM408 483h512l-263 609z" glyph-name="Abreve" horiz-adv-x="1427" unicode="Ă"/><glyph d="M483 1145q-129 0 -192.5 69.5t-63.5 176.5h35q25 -133 221.5 -133.5t221.5 133.5h34q0 -106 -63.5 -176t-192.5 -70zM813 180q0 -49 44 -58t110 28v-39q-35 -63 -136 -125q-66 0 -108.5 51t-42.5 119q-188 -170 -373 -170q-109 0 -172 60t-63 157q0 117 92 176t287 113 q121 33 167 51t62 53v27q0 129 -60.5 178t-205.5 49q-72 0 -97 -62q-43 -96 -65.5 -128.5t-56.5 -32.5q-68 0 -68 67q0 94 142.5 160t293.5 66q137 0 193.5 -74t56.5 -236v-430zM395 88q84 0 164 44t121 101v267l-229 -68q-131 -37 -181.5 -81t-50.5 -113q0 -80 51 -115 t125 -35z" glyph-name="abreve" horiz-adv-x="1007" unicode="ă"/><glyph d="M1198 0q-100 -57 -145 -103.5t-45 -113.5q0 -53 29.5 -82t76.5 -29q39 0 109 27v-33q-70 -74 -174 -74q-82 0 -133.5 41t-51.5 125q0 61 45 125l176 117h-151v35q10 2 35.5 7t36 8t29 9.5t23.5 13.5t11 18t3 26.5t-11 36.5l-117 270h-561l-113 -274q-8 -18 -10 -34t4 -26 t11.5 -17t22.5 -13.5t26.5 -9.5t35 -8t35.5 -7v-35h-375v35q102 20 125 35q27 20 50 77l479 1158h69l498 -1151q29 -68 55.5 -85.5t110.5 -33.5v-35h-209zM408 483h512l-263 609z" glyph-name="Aogonek" horiz-adv-x="1427" unicode="Ą"/><glyph d="M813 180q0 -49 44 -58t110 28v-39q-35 -63 -136 -125q-18 0 -26 2q-119 -80 -119 -172q0 -53 29.5 -82t77.5 -29q39 0 108 27v-33q-70 -74 -174 -74q-82 0 -133 41t-51 125q0 61 45 125l153 102q-61 51 -61 138q-188 -170 -373 -170q-109 0 -172 60t-63 157q0 117 92 176 t287 113q121 33 167 51t62 53v27q0 129 -60.5 178t-205.5 49q-72 0 -97 -62q-43 -96 -65.5 -128.5t-56.5 -32.5q-68 0 -68 67q0 94 142.5 160t293.5 66q137 0 193.5 -74t56.5 -236v-430zM395 88q84 0 164 44t121 101v267l-229 -68q-131 -37 -181.5 -81t-50.5 -113 q0 -80 51 -115t125 -35z" glyph-name="aogonek" horiz-adv-x="1007" unicode="ą"/><glyph d="M713 1446l-31 24q72 199 141 297q31 0 72 -29.5t53 -54.5q-25 -16 -47 -35.5t-50 -49t-42 -44t-50 -56.5t-46 -52zM782 -25q-295 0 -487.5 188.5t-192.5 491.5q0 289 189.5 478.5t509.5 189.5q240 0 397 -94q8 -186 14 -277h-61q-35 156 -139.5 232t-251.5 76 q-213 0 -344 -143.5t-131 -414.5q0 -285 166.5 -462t404.5 -177q90 0 187.5 27t152.5 86l35 -35q-66 -72 -185 -119t-264 -47z" glyph-name="Cacute" horiz-adv-x="1333" unicode="Ć"/><glyph d="M483 1057l-30 24q72 199 141 297q31 0 72 -29.5t53 -54.5q-25 -16 -47.5 -35.5t-50 -49t-42 -44t-50.5 -56.5t-46 -52zM535 -18q-190 0 -321.5 125.5t-131.5 332.5q0 213 134 346.5t335 133.5q133 0 226 -58.5t93 -140.5q0 -43 -24.5 -63.5t-57.5 -20.5q-78 0 -116 133 q-29 96 -135 96q-115 0 -212.5 -93t-97.5 -271q0 -180 106.5 -296t270.5 -116q178 0 258 133l31 -14q-37 -109 -133 -168t-225 -59z" glyph-name="cacute" horiz-adv-x="974" unicode="ć"/><glyph d="M743 1563q-35 0 -62.5 25.5t-27.5 60.5q0 37 28 63.5t62 26.5q37 0 65 -26.5t28 -63.5q0 -35 -28 -60.5t-65 -25.5zM782 -25q-295 0 -487.5 188.5t-192.5 491.5q0 289 189.5 478.5t509.5 189.5q240 0 397 -94q8 -186 14 -277h-61q-35 156 -139.5 232t-251.5 76 q-213 0 -344 -143.5t-131 -414.5q0 -285 166.5 -462t404.5 -177q90 0 187.5 27t152.5 86l35 -35q-66 -72 -185 -119t-264 -47z" glyph-name="Cdotaccent" horiz-adv-x="1333" unicode="Ċ"/><glyph d="M514 1174q-35 0 -62.5 25.5t-27.5 60.5q0 37 27.5 63.5t62.5 26.5q37 0 64.5 -27t27.5 -63q0 -35 -27.5 -60.5t-64.5 -25.5zM535 -18q-190 0 -321.5 125.5t-131.5 332.5q0 213 134 346.5t335 133.5q133 0 226 -58.5t93 -140.5q0 -43 -24.5 -63.5t-57.5 -20.5 q-78 0 -116 133q-29 96 -135 96q-115 0 -212.5 -93t-97.5 -271q0 -180 106.5 -296t270.5 -116q178 0 258 133l31 -14q-37 -109 -133 -168t-225 -59z" glyph-name="cdotaccent" horiz-adv-x="974" unicode="ċ"/><glyph d="M739 1464l-274 318l24 14l250 -201l252 201l25 -16zM782 -25q-295 0 -487.5 188.5t-192.5 491.5q0 289 189.5 478.5t509.5 189.5q240 0 397 -94q8 -186 14 -277h-61q-35 156 -139.5 232t-251.5 76q-213 0 -344 -143.5t-131 -414.5q0 -285 166.5 -462t404.5 -177 q90 0 187.5 27t152.5 86l35 -35q-66 -72 -185 -119t-264 -47z" glyph-name="Ccaron" horiz-adv-x="1333" unicode="Č"/><glyph d="M510 1075l-274 318l24 14l250 -201l252 201l24 -16zM535 -18q-190 0 -321.5 125.5t-131.5 332.5q0 213 134 346.5t335 133.5q133 0 226 -58.5t93 -140.5q0 -43 -24.5 -63.5t-57.5 -20.5q-78 0 -116 133q-29 96 -135 96q-115 0 -212.5 -93t-97.5 -271q0 -180 106.5 -296 t270.5 -116q178 0 258 133l31 -14q-37 -109 -133 -168t-225 -59z" glyph-name="ccaron" horiz-adv-x="974" unicode="č"/><glyph d="M954 1780l-276 -316l-275 318l25 14l250 -201l252 201zM530 1290q152 0 280 -35.5t230.5 -109.5t161 -200t58.5 -292q0 -225 -101.5 -375.5t-260.5 -214t-368 -63.5h-469v35q104 20 132 41q39 33 38 121v897q0 47 -7 75.5t-35.5 46t-42 21.5t-68.5 14q-10 2 -17 4v35h469 zM588 66q260 0 376.5 144t116.5 423q0 283 -131 437.5t-440 154.5h-121v-963q0 -109 42 -152.5t157 -43.5z" glyph-name="Dcaron" horiz-adv-x="1361" unicode="Ď"/><glyph d="M913 170q0 -61 26 -91t110 -44v-35h-261l17 186h-23q-129 -205 -333 -204q-154 0 -260.5 117.5t-106.5 312.5q0 219 145.5 363.5t343.5 144.5q119 0 209 -62v272q0 59 -32.5 89t-120.5 41v30q145 31 245 117l41 -39v-1198zM1047 1014l-39 -4q-4 29 -9.5 86t-9.5 87.5 t-12 75t-21 78.5q23 18 73 18.5t77 -20.5q0 -122 -59 -321zM532 94q102 0 164 61.5t84 143.5v375q0 72 -60.5 130t-168.5 58q-137 0 -236.5 -96t-99.5 -276.5t93 -288t224 -107.5z" glyph-name="dcaron" horiz-adv-x="1032" unicode="ď"/><glyph d="M553 1290q152 0 280 -35.5t230 -109.5t160.5 -200t58.5 -292q0 -225 -101.5 -375.5t-260 -214t-367.5 -63.5h-469v35q104 20 131 41q39 33 39 121v413l-193 -6l21 66q115 -4 172 -4v428q0 47 -7 75.5t-36 46t-42 21.5t-69 14q-10 2 -16 4v35h469zM610 66q260 0 377 144 t117 423q0 283 -131 437.5t-441 154.5h-120v-561q133 0 264 6l-21 -66q-123 6 -243 6v-348q0 -109 41.5 -152.5t156.5 -43.5z" glyph-name="Dcroat" horiz-adv-x="1384" unicode="Đ"/><glyph d="M913 170q0 -61 26 -91t110 -44v-35h-261l17 186h-23q-129 -205 -333 -204q-154 0 -260.5 117.5t-106.5 312.5q0 219 145.5 363.5t343.5 144.5q119 0 209 -62v154q-182 0 -366 -6l20 65q176 -6 346 -6v65q0 59 -32.5 89t-120.5 41v30q145 31 245 117l41 -39v-301 q20 2 57.5 2t57.5 2l-20 -65q-16 2 -47 2t-48 2v-840zM532 94q102 0 164 61.5t84 143.5v375q0 72 -60.5 130t-168.5 58q-137 0 -236.5 -96t-99.5 -276.5t93 -288t224 -107.5z" glyph-name="dcroat" horiz-adv-x="1105" unicode="đ"/><glyph d="M893 1694l-31 -62h-573l30 62h574zM1059 297h45l-84 -297h-959v35q104 20 132 41q39 33 38 121v897q0 47 -7 75.5t-35.5 46t-42 21.5t-68.5 14q-10 2 -17 4v35h955l18 -280h-45q-14 117 -55 167t-146 50h-206q-121 0 -157 -26.5t-36 -129.5v-389h182q176 0 225.5 35 t59.5 137h33v-405h-33q-10 102 -59 137t-226 35h-182v-402q0 -102 36 -129t157 -27h163q121 0 189 50.5t125 183.5z" glyph-name="Emacron" horiz-adv-x="1175" unicode="Ē"/><glyph d="M799 1305l-31 -62h-573l30 62h574zM862 219l31 -16q-37 -106 -131 -163.5t-219 -57.5q-193 0 -327 127t-134 333.5t124 342t322 135.5q135 0 227.5 -70t120 -161t-1.5 -171h-653v-8q0 -178 105.5 -298t279.5 -120q178 0 256 127zM504 862q-104 0 -183 -75.5t-96 -211.5 h520q14 100 -50 193.5t-191 93.5z" glyph-name="emacron" horiz-adv-x="978" unicode="ē"/><glyph d="M590 1563q-35 0 -62.5 25.5t-27.5 60.5q0 37 27.5 63.5t62.5 26.5q37 0 64.5 -26.5t27.5 -63.5q0 -35 -27.5 -60.5t-64.5 -25.5zM1059 297h45l-84 -297h-959v35q104 20 132 41q39 33 38 121v897q0 47 -7 75.5t-35.5 46t-42 21.5t-68.5 14q-10 2 -17 4v35h955l18 -280h-45 q-14 117 -55 167t-146 50h-206q-121 0 -157 -26.5t-36 -129.5v-389h182q176 0 225.5 35t59.5 137h33v-405h-33q-10 102 -59 137t-226 35h-182v-402q0 -102 36 -129t157 -27h163q121 0 189 50.5t125 183.5z" glyph-name="Edotaccent" horiz-adv-x="1175" unicode="Ė"/><glyph d="M496 1174q-35 0 -62.5 25.5t-27.5 60.5q0 37 27.5 63.5t62.5 26.5q37 0 64.5 -27t27.5 -63q0 -35 -27.5 -60.5t-64.5 -25.5zM862 219l31 -16q-37 -106 -131 -163.5t-219 -57.5q-193 0 -327 127t-134 333.5t124 342t322 135.5q135 0 227.5 -70t120 -161t-1.5 -171h-653v-8 q0 -178 105.5 -298t279.5 -120q178 0 256 127zM504 862q-104 0 -183 -75.5t-96 -211.5h520q14 100 -50 193.5t-191 93.5z" glyph-name="edotaccent" horiz-adv-x="978" unicode="ė"/><glyph d="M950 0q-100 -57 -145 -103.5t-45 -113.5q0 -53 29.5 -82t76.5 -29q39 0 109 27v-33q-70 -74 -174 -74q-82 0 -133.5 41t-51.5 125q0 61 46 125l176 117h-777v35q104 20 132 41q39 33 38 121v897q0 47 -7 75.5t-35.5 46t-42 21.5t-68.5 14q-10 2 -17 4v35h955l18 -280h-45 q-14 117 -55 167t-146 50h-206q-121 0 -157 -26.5t-36 -129.5v-389h182q176 0 225.5 35t59.5 137h33v-405h-33q-10 102 -59 137t-226 35h-182v-402q0 -102 36 -129t157 -27h163q121 0 188.5 50.5t125.5 183.5h45l-84 -297h-70z" glyph-name="Eogonek" horiz-adv-x="1175" unicode="Ę"/><glyph d="M666 -2q-98 -57 -142.5 -103.5t-44.5 -111.5q0 -53 30 -82t77 -29q39 0 108 27v-33q-70 -74 -174 -74q-82 0 -133 41t-51 125q0 61 45 125l147 99q-188 4 -317 131t-129 329q0 207 124 342.5t322 135.5q135 0 227.5 -70t120 -161t-1.5 -171h-653v-8q0 -178 105.5 -298 t279.5 -120q178 0 256 127l31 -16q-55 -158 -227 -205zM504 862q-104 0 -183 -75.5t-96 -211.5h520q14 100 -50 193.5t-191 93.5z" glyph-name="eogonek" horiz-adv-x="978" unicode="ę"/><glyph d="M862 1780l-276 -316l-275 318l25 14l250 -201l252 201zM1059 297h45l-84 -297h-959v35q104 20 132 41q39 33 38 121v897q0 47 -7 75.5t-35.5 46t-42 21.5t-68.5 14q-10 2 -17 4v35h955l18 -280h-45q-14 117 -55 167t-146 50h-206q-121 0 -157 -26.5t-36 -129.5v-389h182 q176 0 225.5 35t59.5 137h33v-405h-33q-10 102 -59 137t-226 35h-182v-402q0 -102 36 -129t157 -27h163q121 0 189 50.5t125 183.5z" glyph-name="Ecaron" horiz-adv-x="1175" unicode="Ě"/><glyph d="M768 1391l-276 -316l-275 318l25 14l250 -201l251 201zM862 219l31 -16q-37 -106 -131 -163.5t-219 -57.5q-193 0 -327 127t-134 333.5t124 342t322 135.5q135 0 227.5 -70t120 -161t-1.5 -171h-653v-8q0 -178 105.5 -298t279.5 -120q178 0 256 127zM504 862 q-104 0 -183 -75.5t-96 -211.5h520q14 100 -50 193.5t-191 93.5z" glyph-name="ecaron" horiz-adv-x="978" unicode="ě"/><glyph d="M739 1534q-129 0 -192.5 69.5t-63.5 176.5h35q25 -133 221.5 -133t221.5 133h34q0 -106 -63.5 -176t-192.5 -70zM854 -25q-354 0 -553 189.5t-199 490.5q0 289 190.5 478.5t510.5 189.5q250 0 407 -94q8 -186 15 -277h-62q-35 156 -138 232t-251 76q-219 0 -354 -151 t-135 -402q0 -293 165.5 -480.5t454.5 -187.5q106 0 142 45t36 162v114q0 137 -44 178.5t-181 51.5v43h522v-43q-84 -10 -116.5 -40t-32.5 -108v-159q0 -49 6 -89t13 -68t10 -38q-39 -45 -154 -79t-252 -34z" glyph-name="Gbreve" horiz-adv-x="1472" unicode="Ğ"/><glyph d="M508 1145q-129 0 -192.5 69.5t-63.5 176.5h35q25 -133 221.5 -133.5t220.5 133.5h35q0 -106 -63.5 -176t-192.5 -70zM909 879v-84l-176 22q76 -80 76 -188q0 -127 -97.5 -207t-244.5 -82h-109q-35 0 -58.5 -23.5t-23.5 -60.5q0 -88 91 -98l235 -23q178 -16 239.5 -46 t61.5 -118q0 -154 -145.5 -253t-354.5 -103q-174 -2 -263 65.5t-89 172.5q0 39 61.5 97t141.5 103q-123 45 -123 142q0 29 58.5 90t103.5 88q-82 37 -129 103.5t-47 152.5q0 129 99 210t247 81q74 0 141 -23q51 -18 305 -18zM463 389q57 0 98 23.5t60.5 63.5t27.5 77t8 76 t-8 76.5t-27.5 77.5t-60.5 64.5t-98 24.5q-106 0 -150.5 -76.5t-44.5 -166.5t44.5 -165t150.5 -75zM586 8l-205 19q-88 8 -136 -43.5t-48 -122.5q0 -68 55 -124t197 -56q164 0 239.5 69.5t75.5 159.5q0 57 -38 73.5t-140 24.5z" glyph-name="gbreve" horiz-adv-x="991" unicode="ğ"/><glyph d="M739 1563q-35 0 -62.5 25.5t-27.5 60.5q0 37 28 63.5t62 26.5q37 0 64.5 -26.5t27.5 -63.5q0 -35 -27.5 -60.5t-64.5 -25.5zM854 -25q-354 0 -553 189.5t-199 490.5q0 289 190.5 478.5t510.5 189.5q250 0 407 -94q8 -186 15 -277h-62q-35 156 -138 232t-251 76 q-219 0 -354 -151t-135 -402q0 -293 165.5 -480.5t454.5 -187.5q106 0 142 45t36 162v114q0 137 -44 178.5t-181 51.5v43h522v-43q-84 -10 -116.5 -40t-32.5 -108v-159q0 -49 6 -89t13 -68t10 -38q-39 -45 -154 -79t-252 -34z" glyph-name="Gdotaccent" horiz-adv-x="1472" unicode="Ġ"/><glyph d="M508 1174q-35 0 -62.5 25.5t-27.5 60.5q0 37 27.5 63.5t62.5 26.5q37 0 64.5 -27t27.5 -63q0 -35 -27.5 -60.5t-64.5 -25.5zM909 879v-84l-176 22q76 -80 76 -188q0 -127 -97.5 -207t-244.5 -82h-109q-35 0 -58.5 -23.5t-23.5 -60.5q0 -88 91 -98l235 -23 q178 -16 239.5 -46t61.5 -118q0 -154 -145.5 -253t-354.5 -103q-174 -2 -263 65.5t-89 172.5q0 39 61.5 97t141.5 103q-123 45 -123 142q0 29 58.5 90t103.5 88q-82 37 -129 103.5t-47 152.5q0 129 99 210t247 81q74 0 141 -23q51 -18 305 -18zM463 389q57 0 98 23.5 t60.5 63.5t27.5 77t8 76t-8 76.5t-27.5 77.5t-60.5 64.5t-98 24.5q-106 0 -150.5 -76.5t-44.5 -166.5t44.5 -165t150.5 -75zM586 8l-205 19q-88 8 -136 -43.5t-48 -122.5q0 -68 55 -124t197 -56q164 0 239.5 69.5t75.5 159.5q0 57 -38 73.5t-140 24.5z" glyph-name="gdotaccent" horiz-adv-x="991" unicode="ġ"/><glyph d="M854 -25q-354 0 -553 189.5t-199 490.5q0 289 190.5 478.5t510.5 189.5q250 0 407 -94q8 -186 15 -277h-62q-35 156 -138 232t-251 76q-219 0 -354 -151t-135 -402q0 -293 165.5 -480.5t454.5 -187.5q106 0 142 45t36 162v114q0 137 -44 178.5t-181 51.5v43h522v-43 q-84 -10 -116.5 -40t-32.5 -108v-159q0 -49 6 -89t13 -68t10 -38q-39 -45 -154 -79t-252 -34zM612 -590l-18 31q66 31 107.5 80t50.5 94q2 10 3 18.5t-3 14.5t-6.5 10t-10.5 8t-10 6t-12 4l-11 5q-59 37 -59 98q0 45 31 73.5t74 28.5q51 0 87.5 -40t36.5 -107 q0 -92 -66.5 -185.5t-193.5 -138.5z" glyph-name="Gcommaaccent" horiz-adv-x="1472" unicode="Ģ"/><glyph d="M406 1145q-51 0 -88 40t-37 107q0 92 66.5 185.5t193.5 138.5l18 -31q-66 -31 -107.5 -80t-50.5 -94q-2 -10 -3 -18.5t3.5 -14.5t6.5 -10t10 -8t10 -6t12 -6l11 -2q59 -37 59 -99q0 -45 -30.5 -73.5t-73.5 -28.5zM909 879v-84l-176 22q76 -80 76 -188q0 -127 -97.5 -207 t-244.5 -82h-109q-35 0 -58.5 -23.5t-23.5 -60.5q0 -88 91 -98l235 -23q178 -16 239.5 -46t61.5 -118q0 -154 -145.5 -253t-354.5 -103q-174 -2 -263 65.5t-89 172.5q0 39 61.5 97t141.5 103q-123 45 -123 142q0 29 58.5 90t103.5 88q-82 37 -129 103.5t-47 152.5 q0 129 99 210t247 81q74 0 141 -23q51 -18 305 -18zM463 389q57 0 98 23.5t60.5 63.5t27.5 77t8 76t-8 76.5t-27.5 77.5t-60.5 64.5t-98 24.5q-106 0 -150.5 -76.5t-44.5 -166.5t44.5 -165t150.5 -75zM586 8l-205 19q-88 8 -136 -43.5t-48 -122.5q0 -68 55 -124t197 -56 q164 0 239.5 69.5t75.5 159.5q0 57 -38 73.5t-140 24.5z" glyph-name="gcommaaccent" horiz-adv-x="991" unicode="ģ"/><glyph d="M1339 1255q-104 -20 -131 -41q-39 -33 -39 -120v-897q0 -47 7.5 -76t36 -46.5t42 -21.5t68.5 -14q10 -2 16 -4v-35h-497v35q104 20 131 41q39 33 39 121v421h-623v-421q0 -47 7 -76t36 -46.5t42 -21.5t69 -14q10 -2 16 -4v-35h-498v35q104 20 132 41q39 33 38 121v645 h-32v59h32v193q0 47 -7 75.5t-35.5 46t-42 21.5t-68.5 14q-10 2 -17 4v35h498v-35q-104 -20 -131 -41q-39 -33 -39 -120v-193h623v193q0 47 -7.5 75.5t-36 46t-42 21.5t-68.5 14q-10 2 -16 4v35h497v-35zM389 678h623v164h-623v-164z" glyph-name="Hbar" horiz-adv-x="1400" unicode="Ħ"/><glyph d="M985 141q0 -33 8 -52t35 -30.5t38 -13.5t54 -10v-35h-405v35q43 6 56 9t39 14.5t34 31t8 51.5v465q0 90 -45 146.5t-141 56.5q-166 0 -289 -150v-518q0 -27 9 -45t15.5 -27.5t34 -17.5t34.5 -9t46 -7v-35h-422v35q4 0 24.5 4t28 5t24.5 6t24.5 9t18.5 12.5t16.5 17.5 t9.5 22.5t4 29.5v871l-183 -6l21 65q106 -4 162 -4v63q0 106 -150 130v30q143 31 242 117l41 -39v-303q147 0 299 6l-21 -65q-137 6 -278 6v-289h4q63 88 156.5 142.5t201.5 54.5q135 0 190.5 -82t55.5 -234v-463z" glyph-name="hbar" horiz-adv-x="1171" unicode="ħ"/><glyph d="M12 1632l31 62h573l-30 -62h-574zM61 0v35q104 20 132 41q39 33 38 121v897q0 47 -7 75.5t-35.5 46t-42 21.5t-68.5 14q-10 2 -17 4v35h498v-35q-104 -20 -131 -41q-39 -33 -39 -120v-897q0 -47 7 -76t36 -46.5t42 -21.5t69 -14q10 -2 16 -4v-35h-498z" glyph-name="Imacron" horiz-adv-x="620" unicode="Ī"/><glyph d="M-45 1243l31 62h573l-31 -62h-573zM61 0v35q43 8 54.5 10t38 13.5t35 31t8.5 51.5v514q0 61 -26 90t-110 39v31q57 10 88 24.5t72 46.5t66 48l43 -39v-754q0 -33 8 -52t34.5 -30.5t38 -13.5t54.5 -10v-35h-404z" glyph-name="imacron" horiz-adv-x="526" unicode="ī"/><glyph d="M559 1255q-104 -20 -131 -41q-39 -33 -39 -120v-897q0 -47 7 -76t36 -46.5t42 -21.5t69 -14q10 -2 16 -4v-35h-170q-100 -57 -145 -103.5t-45 -113.5q0 -53 29.5 -82t76.5 -29q39 0 109 27v-33q-70 -74 -174 -74q-82 0 -133.5 41t-51.5 125q0 61 45 125l176 117h-215v35 q104 20 132 41q39 33 38 121v897q0 47 -7 75.5t-35.5 46t-42 21.5t-68.5 14q-10 2 -17 4v35h498v-35z" glyph-name="Iogonek" horiz-adv-x="620" unicode="Į"/><glyph d="M256 1174q-35 0 -62.5 25.5t-27.5 60.5q0 37 27.5 63.5t62.5 26.5q37 0 64.5 -27t27.5 -63q0 -35 -27.5 -60.5t-64.5 -25.5zM354 0q-100 -57 -145 -103.5t-45 -113.5q0 -53 29.5 -82t76.5 -29q39 0 109 27v-33q-70 -74 -174 -74q-82 0 -133.5 41t-51.5 125q0 61 46 125 l176 117h-181v35q43 8 54.5 10t38 13.5t35 31t8.5 51.5v514q0 61 -26 90t-110 39v31q57 10 88 24.5t72 46.5t66 48l43 -39v-754q0 -43 20 -67l4 2v-6q20 -18 111 -35v-35h-111z" glyph-name="iogonek" horiz-adv-x="526" unicode="į"/><glyph d="M313 1563q-35 0 -62.5 25.5t-27.5 60.5q0 37 28 63.5t62 26.5q37 0 65 -26.5t28 -63.5q0 -35 -28 -60.5t-65 -25.5zM61 0v35q104 20 132 41q39 33 38 121v897q0 47 -7 75.5t-35.5 46t-42 21.5t-68.5 14q-10 2 -17 4v35h498v-35q-104 -20 -131 -41q-39 -33 -39 -120v-897 q0 -47 7 -76t36 -46.5t42 -21.5t69 -14q10 -2 16 -4v-35h-498z" glyph-name="Idotaccent" horiz-adv-x="620" unicode="İ"/><glyph d="M61 0v35q43 8 54.5 10t38 13.5t35 31t8.5 51.5v514q0 61 -26 90t-110 39v31q57 10 88 24.5t72 46.5t66 48l43 -39v-754q0 -33 8 -52t34.5 -30.5t38 -13.5t54.5 -10v-35h-404z" glyph-name="dotlessi" horiz-adv-x="526" unicode="ı"/><glyph d="M61 0v35q104 20 132 41q39 33 38 121v897q0 47 -7 75.5t-35.5 46t-42 21.5t-68.5 14q-10 2 -17 4v35h498v-35q-104 -20 -131 -41q-39 -33 -39 -120v-897q0 -47 7 -76t36 -46.5t42 -21.5t69 -14q10 -2 16 -4v-35h-498zM639 -379q-16 25 0 43q139 49 177 115.5t38 232.5 v1082q0 49 -9 78.5t-40 46t-49.5 21.5t-79.5 15v35h506v-35q-104 -20 -131 -41q-39 -33 -39 -120v-1102q0 -172 -102.5 -256t-270.5 -115z" glyph-name="IJ" horiz-adv-x="1243" unicode="Ĳ"/><glyph d="M246 1194q-35 0 -62.5 25.5t-27.5 60.5q0 37 27.5 63.5t62.5 26.5q37 0 64.5 -26.5t27.5 -63.5q0 -35 -27.5 -60.5t-64.5 -25.5zM762 1194q-35 0 -62.5 25.5t-27.5 60.5q0 37 27.5 63.5t62.5 26.5q37 0 64.5 -26.5t27.5 -63.5q0 -35 -27.5 -60.5t-64.5 -25.5zM61 0v35 q43 8 54.5 10t38 13.5t35 31t8.5 51.5v514q0 61 -26 90t-110 39v31q74 12 120 38t106 81l43 -39v-754q0 -33 8 -52t34.5 -30.5t38 -13.5t54.5 -10v-35h-404zM532 -379q-8 8 -8 22.5t8 20.5q96 35 136.5 96.5t40.5 200.5v694q0 61 -26 90t-110 39v31q57 10 88 24.5t72 46.5 t66 48l43 -39v-930q-1 -303 -310 -344z" glyph-name="ij" horiz-adv-x="976" unicode="ĳ"/><glyph d="M1130 111q27 -39 60 -51.5t117 -12.5v-47h-328q0 57 -55 139l-365 527l-170 -166v-303q0 -47 7 -76t36 -46.5t42 -21.5t69 -14q10 -2 16 -4v-35h-498v35q104 20 132 41q39 33 38 121v897q0 47 -7 75.5t-35.5 46t-42 21.5t-68.5 14q-10 2 -17 4v35h498v-35 q-104 -20 -131 -41q-39 -33 -39 -120v-492l549 539q47 45 23.5 73.5t-107.5 28.5v47h434v-47q-92 0 -141 -24.5t-105 -77.5l-376 -369zM322 -119q51 0 87.5 -40t36.5 -107q0 -92 -66.5 -185.5t-193.5 -138.5l-18 31q66 31 107.5 80t50.5 94q2 10 3 18.5t-3 14.5t-6.5 10 t-10.5 8t-10 6t-12 4l-11 5q-59 37 -59 98q0 45 31 73.5t74 28.5z" glyph-name="Kcommaaccent" horiz-adv-x="1357" unicode="Ķ"/><glyph d="M887 109q27 -37 56.5 -50.5t94.5 -21.5v-37h-266q0 39 -37 98l-272 391l-119 -116v-232q0 -16 4 -29.5t9 -22.5t16.5 -17.5t18.5 -12.5t24.5 -9t25 -6t27.5 -5t25 -4v-35h-433v35q4 0 24.5 4t28 5t25 6t24.5 9t18.5 12.5t16.5 17.5t9 22.5t4 29.5v989q0 106 -150 130v30 q143 31 242 117l41 -39v-903l297 289q47 45 28.5 73.5t-96.5 36.5v37h388v-37q-135 -12 -216 -98l-192 -191zM532 -119q51 0 88 -40t37 -107q0 -92 -66.5 -185.5t-193.5 -138.5l-18 31q66 31 107.5 80t50.5 94q2 10 3 18.5t-3.5 14.5t-6.5 10t-10 8t-10 6t-12 4l-11 5 q-59 37 -59 98q0 45 30.5 73.5t73.5 28.5z" glyph-name="kcommaaccent" horiz-adv-x="1046" unicode="ķ"/><glyph d="M270 1446l-30 24q72 199 141 297q31 0 72 -29.5t53 -54.5q-25 -16 -47.5 -35.5t-50 -49t-42 -44t-50.5 -56.5t-46 -52zM61 0v35q104 20 132 41q39 33 38 121v897q0 47 -7 75.5t-35.5 46t-42 21.5t-68.5 14q-10 2 -17 4v35h547v-35q-10 -2 -39.5 -7t-40 -7t-35 -9 t-34.5 -13.5t-27.5 -18.5t-24 -26.5t-12.5 -35t-6 -44.5v-877q0 -102 36 -129t157 -27h170q119 0 186.5 54.5t126.5 193.5h43l-84 -309h-963z" glyph-name="Lacute" horiz-adv-x="1157" unicode="Ĺ"/><glyph d="M231 1454l-30 25q72 199 141 297q31 0 72 -30t53 -54q-25 -16 -47.5 -36t-50 -49.5t-42 -44t-50.5 -56.5t-46 -52zM61 0v35q4 0 24.5 4t28 5t25 6t24.5 9t18.5 12.5t16.5 17.5t9 22.5t4 29.5v989q0 106 -150 130v30q143 31 242 117l41 -39v-1227q0 -16 4 -29.5t9 -22.5 t16.5 -17.5t18.5 -12.5t24.5 -9t25 -6t27.5 -5t25 -4v-35h-433z" glyph-name="lacute" horiz-adv-x="555" unicode="ĺ"/><glyph d="M61 0v35q104 20 132 41q39 33 38 121v897q0 47 -7 75.5t-35.5 46t-42 21.5t-68.5 14q-10 2 -17 4v35h547v-35q-10 -2 -39.5 -7t-40 -7t-35 -9t-34.5 -13.5t-27.5 -18.5t-24 -26.5t-12.5 -35t-6 -44.5v-877q0 -102 36 -129t157 -27h170q119 0 186.5 54.5t126.5 193.5h43 l-84 -309h-963zM463 -590l-19 31q66 31 108 80t50 94q2 10 3 18.5t-3 14.5t-6 10t-10 8t-10.5 6t-12.5 4l-10 5q-59 37 -59 98q0 45 30.5 73.5t73.5 28.5q51 0 88 -40t37 -107q0 -92 -66.5 -185.5t-193.5 -138.5z" glyph-name="Lcommaaccent" horiz-adv-x="1157" unicode="Ļ"/><glyph d="M61 0v35q4 0 24.5 4t28 5t25 6t24.5 9t18.5 12.5t16.5 17.5t9 22.5t4 29.5v989q0 106 -150 130v30q143 31 242 117l41 -39v-1227q0 -16 4 -29.5t9 -22.5t16.5 -17.5t18.5 -12.5t24.5 -9t25 -6t27.5 -5t25 -4v-35h-433zM154 -590l-19 31q66 31 108 80t50 94q2 10 3 18.5 t-3 14.5t-6 10t-10.5 8t-10.5 6t-12 4l-10 5q-59 37 -60 98q0 45 31 73.5t74 28.5q51 0 88 -40t37 -107q0 -92 -66.5 -185.5t-193.5 -138.5z" glyph-name="lcommaaccent" horiz-adv-x="555" unicode="ļ"/><glyph d="M61 0v35q104 20 132 41q39 33 38 121v897q0 47 -7 75.5t-35.5 46t-42 21.5t-68.5 14q-10 2 -17 4v35h547v-35q-10 -2 -39.5 -7t-40 -7t-35 -9t-34.5 -13.5t-27.5 -18.5t-24 -26.5t-12.5 -35t-6 -44.5v-877q0 -102 36 -129t157 -27h170q119 0 186.5 54.5t126.5 193.5h43 l-84 -309h-963zM686 815l-18 31q66 31 107.5 80t49.5 94q2 10 3 18.5t-3 14.5t-6 10t-10 8t-10 6t-13 4l-10 4q-59 37 -59 99q0 45 30.5 73.5t73.5 28.5q51 0 88 -40t37 -107q0 -92 -66.5 -185.5t-193.5 -138.5z" glyph-name="Lcaron" horiz-adv-x="1157" unicode="Ľ"/><glyph d="M61 0v35q4 0 24.5 4t28 5t25 6t24.5 9t18.5 12.5t16.5 17.5t9 22.5t4 29.5v989q0 106 -150 130v30q143 31 242 117l41 -39v-1227q0 -16 4 -29.5t9 -22.5t16.5 -17.5t18.5 -12.5t24.5 -9t25 -6t27.5 -5t25 -4v-35h-433zM475 1014l-39 -4q-4 29 -9 86t-9 87.5t-12.5 75 t-20.5 78.5q23 18 73 18.5t77 -20.5q-1 -122 -60 -321z" glyph-name="lcaron" horiz-adv-x="460" unicode="ľ"/><glyph d="M61 0v35q104 20 132 41q39 33 38 121v897q0 47 -7 75.5t-35.5 46t-42 21.5t-68.5 14q-10 2 -17 4v35h547v-35q-10 -2 -39.5 -7t-40 -7t-35 -9t-34.5 -13.5t-27.5 -18.5t-24 -26.5t-12.5 -35t-6 -44.5v-877q0 -102 36 -129t157 -27h170q119 0 186.5 54.5t126.5 193.5h43 l-84 -309h-963zM750 535q-43 0 -74 28.5t-31 71.5t31 71.5t74 28.5t74.5 -28.5t31.5 -71.5t-31.5 -71.5t-74.5 -28.5z" glyph-name="Ldot" horiz-adv-x="1157" unicode="Ŀ"/><glyph d="M61 0v35q4 0 24.5 4t28 5t25 6t24.5 9t18.5 12.5t16.5 17.5t9 22.5t4 29.5v989q0 106 -150 130v30q143 31 242 117l41 -39v-1227q0 -16 4 -29.5t9 -22.5t16.5 -17.5t18.5 -12.5t24.5 -9t25 -6t27.5 -5t25 -4v-35h-433zM543 592q-43 0 -74 28.5t-31 71.5t31 72t74 29 t74.5 -29t31.5 -72t-31.5 -71.5t-74.5 -28.5z" glyph-name="ldot" horiz-adv-x="569" unicode="ŀ"/><glyph d="M1087 309h43l-83 -309h-963v35q104 20 131 41q39 33 39 121v456q-88 -31 -193 -71v63q147 43 193 57v392q0 47 -7 75.5t-36 46t-42 21.5t-69 14q-10 2 -16 4v35h547v-35q-10 -2 -40 -7t-40 -7t-34.5 -9t-35 -13.5t-28 -18.5t-23.5 -26.5t-12 -35t-6 -44.5v-340 q180 59 321 118v-65q-248 -76 -321 -100v-490q0 -102 35.5 -129t156.5 -27h170q119 0 186.5 54.5t126.5 193.5z" glyph-name="Lslash" horiz-adv-x="1179" unicode="Ł"/><glyph d="M377 141q0 -16 4 -29.5t9 -22.5t16.5 -17.5t18.5 -12.5t24.5 -9t24.5 -6t27.5 -5t24.5 -4v-35h-432v35q4 0 24.5 4t28 5t24.5 6t24.5 9t18.5 12.5t16.5 17.5t9.5 22.5t4 29.5v516q-123 -45 -183 -73v59q150 47 183 57v430q0 106 -150 130v30q143 31 242 117l41 -39v-618 q57 20 117 49v-60l-117 -37v-561z" glyph-name="lslash" horiz-adv-x="587" unicode="ł"/><glyph d="M924 1683q-25 -16 -47.5 -35.5t-50 -49t-42 -44t-50.5 -56.5t-46 -52l-31 24q72 199 142 297q31 0 72 -29.5t53 -54.5zM944 1290h430v-35q-82 18 -128 -21.5t-46 -139.5v-1094h-67l-822 1090v-893q0 -47 8.5 -76t39 -46.5t45 -21.5t73.5 -14q12 -2 19 -4v-35h-435v35 q106 20 134 41q41 33 41 121v897q0 47 -8.5 75.5t-36 46t-44 21.5t-67.5 14q-12 2 -19 4v35h293l768 -1009v813q0 199 -178 161v35z" glyph-name="Nacute" horiz-adv-x="1435" unicode="Ń"/><glyph d="M524 1057l-30 24q72 199 141 297q31 0 72 -29.5t53 -54.5q-25 -16 -47.5 -35.5t-50 -49t-42 -44t-50.5 -56.5t-46 -52zM51 0v35q43 8 54.5 10t38 13.5t34.5 31t8 51.5v514q0 61 -25.5 90t-109.5 39v31q66 10 112 27.5t71.5 35t74.5 56.5l41 -39l-45 -172h19 q150 197 358 197q135 0 190.5 -82t55.5 -234v-463q0 -33 8 -52t34.5 -30.5t38 -13.5t54.5 -10v-35h-406v35q43 6 56.5 9t39 14.5t34 31t8.5 51.5v461q0 92 -45 149.5t-144 57.5q-162 0 -287 -152v-516q0 -27 9.5 -45t15.5 -27.5t34 -17.5t35 -9t46 -7v-35h-408z" glyph-name="nacute" horiz-adv-x="1114" unicode="ń"/><glyph d="M944 1290h430v-35q-82 18 -128 -21.5t-46 -139.5v-1094h-67l-822 1090v-893q0 -47 8.5 -76t39 -46.5t45 -21.5t73.5 -14q12 -2 19 -4v-35h-435v35q106 20 134 41q41 33 41 121v897q0 47 -8.5 75.5t-36 46t-44 21.5t-67.5 14q-12 2 -19 4v35h293l768 -1009v813 q0 199 -178 161v35zM727 -119q51 0 88 -40t37 -107q0 -92 -66.5 -185.5t-193.5 -138.5l-19 31q66 31 108 80t50 94q2 10 3 18.5t-3 14.5t-6 10t-10 8t-10.5 6t-12.5 4l-10 5q-59 37 -59 98q0 45 30.5 73.5t73.5 28.5z" glyph-name="Ncommaaccent" horiz-adv-x="1435" unicode="Ņ"/><glyph d="M51 0v35q43 8 54.5 10t38 13.5t34.5 31t8 51.5v514q0 61 -25.5 90t-109.5 39v31q66 10 112 27.5t71.5 35t74.5 56.5l41 -39l-45 -172h19q150 197 358 197q135 0 190.5 -82t55.5 -234v-463q0 -33 8 -52t34.5 -30.5t38 -13.5t54.5 -10v-35h-406v35q43 6 56.5 9t39 14.5 t34 31t8.5 51.5v461q0 92 -45 149.5t-144 57.5q-162 0 -287 -152v-516q0 -27 9.5 -45t15.5 -27.5t34 -17.5t35 -9t46 -7v-35h-408zM428 -590l-18 31q66 31 107.5 80t49.5 94q2 10 3 18.5t-3 14.5t-6 10t-10 8t-10 6t-13 4l-10 5q-59 37 -59 98q0 45 30.5 73.5t73.5 28.5 q51 0 88 -40t37 -107q0 -92 -66.5 -185.5t-193.5 -138.5z" glyph-name="ncommaaccent" horiz-adv-x="1114" unicode="ņ"/><glyph d="M991 1780l-276 -316l-275 318l25 14l250 -201l252 201zM944 1290h430v-35q-82 18 -128 -21.5t-46 -139.5v-1094h-67l-822 1090v-893q0 -47 8.5 -76t39 -46.5t45 -21.5t73.5 -14q12 -2 19 -4v-35h-435v35q106 20 134 41q41 33 41 121v897q0 47 -8.5 75.5t-36 46t-44 21.5 t-67.5 14q-12 2 -19 4v35h293l768 -1009v813q0 199 -178 161v35z" glyph-name="Ncaron" horiz-adv-x="1435" unicode="Ň"/><glyph d="M551 1075l-275 318l25 14l250 -201l252 201l24 -16zM51 0v35q43 8 54.5 10t38 13.5t34.5 31t8 51.5v514q0 61 -25.5 90t-109.5 39v31q66 10 112 27.5t71.5 35t74.5 56.5l41 -39l-45 -172h19q150 197 358 197q135 0 190.5 -82t55.5 -234v-463q0 -33 8 -52t34.5 -30.5 t38 -13.5t54.5 -10v-35h-406v35q43 6 56.5 9t39 14.5t34 31t8.5 51.5v461q0 92 -45 149.5t-144 57.5q-162 0 -287 -152v-516q0 -27 9.5 -45t15.5 -27.5t34 -17.5t35 -9t46 -7v-35h-408z" glyph-name="ncaron" horiz-adv-x="1114" unicode="ň"/><glyph d="M944 1290h430v-35q-82 18 -128 -21.5t-46 -139.5v-1102q0 -172 -102.5 -256t-270.5 -115q-16 25 0 43q139 49 177 115.5t38 232.5v107l-731 971v-893q0 -47 8.5 -76t39 -46.5t45 -21.5t73.5 -14q12 -2 19 -4v-35h-435v35q106 20 134 41q41 33 41 121v897q0 47 -8.5 75.5 t-36 46t-44 21.5t-67.5 14q-12 2 -19 4v35h293l768 -1009v813q0 199 -178 161v35z" glyph-name="Eng" horiz-adv-x="1435" unicode="Ŋ"/><glyph d="M682 920q135 0 190.5 -82t55.5 -234v-639q0 -303 -310 -344q-8 8 -8 22.5t8 20.5q96 35 136.5 96.5t40.5 200.5v641q0 92 -45 149.5t-144 57.5q-162 0 -287 -152v-516q0 -27 9.5 -45t15.5 -27.5t34 -17.5t35 -9t46 -7v-35h-408v35q43 8 54.5 10t38 13.5t34.5 31t8 51.5 v514q0 61 -25.5 90t-109.5 39v31q66 10 112 27.5t71.5 35t74.5 56.5l41 -39l-45 -172h19q149 197 358 197z" glyph-name="eng" horiz-adv-x="1050" unicode="ŋ"/><glyph d="M449 1632l30 62h574l-31 -62h-573zM745 -25q-281 0 -462 193.5t-181 476.5q0 281 183.5 479.5t468.5 198.5q281 0 463 -194.5t182 -473.5q0 -285 -184.5 -482.5t-469.5 -197.5zM780 39q184 0 314.5 151.5t130.5 403.5q0 285 -150.5 475.5t-355.5 190.5 q-182 0 -312.5 -153t-130.5 -400q0 -287 149.5 -477.5t354.5 -190.5z" glyph-name="Omacron" horiz-adv-x="1501" unicode="Ō"/><glyph d="M254 1243l31 62h573l-31 -62h-573zM543 -18q-184 0 -322.5 128t-138.5 334q0 215 145.5 345.5t337.5 130.5q184 0 322.5 -128t138.5 -335q0 -215 -145 -345t-338 -130zM567 41q121 0 212 96t91 288.5t-97 313.5t-232 121q-121 0 -212 -96t-91 -288.5t97 -313.5t232 -121z " glyph-name="omacron" horiz-adv-x="1107" unicode="ō"/><glyph d="M526 1446l-30 24q72 199 141 297q31 0 72 -29.5t53 -54.5q-25 -16 -47.5 -35.5t-50 -49t-42 -44t-50.5 -56.5t-46 -52zM813 1446l-31 24q72 199 142 297q31 0 71.5 -29.5t53.5 -54.5q-25 -16 -47.5 -35.5t-50 -49t-42 -44t-50.5 -56.5t-46 -52zM745 -25 q-281 0 -462 193.5t-181 476.5q0 281 183.5 479.5t468.5 198.5q281 0 463 -194.5t182 -473.5q0 -285 -184.5 -482.5t-469.5 -197.5zM780 39q184 0 314.5 151.5t130.5 403.5q0 285 -150.5 475.5t-355.5 190.5q-182 0 -312.5 -153t-130.5 -400q0 -287 149.5 -477.5 t354.5 -190.5z" glyph-name="Ohungarumlaut" horiz-adv-x="1501" unicode="Ő"/><glyph d="M332 1057l-31 24q72 199 141 297q31 0 72 -29.5t53 -54.5q-25 -16 -47 -35.5t-50 -49t-42 -44t-50 -56.5t-46 -52zM618 1057l-30 24q72 199 141 297q31 0 72 -29.5t53 -54.5q-25 -16 -47.5 -35.5t-50 -49t-42 -44t-50.5 -56.5t-46 -52zM543 -18q-184 0 -322.5 128 t-138.5 334q0 215 145.5 345.5t337.5 130.5q184 0 322.5 -128t138.5 -335q0 -215 -145 -345t-338 -130zM567 41q121 0 212 96t91 288.5t-97 313.5t-232 121q-121 0 -212 -96t-91 -288.5t97 -313.5t232 -121z" glyph-name="ohungarumlaut" horiz-adv-x="1107" unicode="ő"/><glyph d="M1964 297h45l-84 -297h-954q-90 -25 -228 -25q-281 0 -461 192.5t-180 477.5q0 281 182.5 477.5t467.5 196.5q115 0 215 -35v6h954l18 -280h-45q-14 117 -55 167t-145 50h-207q-121 0 -157 -26.5t-36 -129.5v-389h183q176 0 225 35t59 137h33v-405h-33q-10 102 -59 137 t-225 35h-183v-402q0 -102 36 -129t157 -27h164q121 0 188.5 50.5t124.5 183.5zM279 707q0 -289 148 -478.5t351 -189.5q98 0 197.5 60.5t161.5 168.5v715q-57 127 -170 199.5t-250 72.5q-182 0 -310 -149t-128 -399z" glyph-name="OE" horiz-adv-x="2080" unicode="Œ"/><glyph d="M1667 221l31 -16q-37 -106 -131 -163.5t-219 -57.5t-229.5 56t-166.5 157q-66 -102 -177 -158.5t-232 -56.5q-184 0 -322.5 128t-138.5 334q0 215 145.5 345.5t337.5 130.5q117 0 222.5 -55.5t166.5 -153.5q57 98 156.5 154.5t222.5 56.5q135 0 227.5 -70t120 -161 t-1.5 -171h-653v-8q0 -178 105.5 -298t279.5 -120q178 0 256 127zM1309 864q-104 0 -183 -75.5t-96 -210.5h520q14 100 -50 193t-191 93zM567 41q121 0 212 96t91 288.5t-97 313.5t-232 121q-121 0 -212 -96t-91 -288.5t97 -313.5t232 -121z" glyph-name="oe" horiz-adv-x="1779" unicode="œ"/><glyph d="M846 1683q-25 -16 -47.5 -35.5t-50 -49t-42 -44t-50 -56.5t-46.5 -52l-30 24q72 199 141 297q31 0 72 -29.5t53 -54.5zM991 238q51 -76 84 -117t86 -71t105 -13v-37q-55 -33 -109 -33q-100 0 -167.5 49.5t-145.5 167.5l-166 252q-53 76 -115.5 106.5t-173.5 35.5v-381 q0 -47 7 -76t36 -46.5t42 -21.5t69 -14q10 -2 16 -4v-35h-498v35q104 20 132 41q39 33 38 121v897q0 47 -7 75.5t-35.5 46t-42 21.5t-68.5 14q-10 2 -17 4v35h478q549 0 548 -354q0 -295 -393 -346q84 -23 162 -146zM555 1227q-100 0 -133 -21.5t-33 -72.5v-494h166 q195 0 282 72.5t87 212.5q0 303 -369 303z" glyph-name="Racute" horiz-adv-x="1306" unicode="Ŕ"/><glyph d="M356 1057l-30 24q72 199 141 297q31 0 72 -29.5t53 -54.5q-25 -16 -47.5 -35.5t-50 -49t-42 -44t-50.5 -56.5t-46 -52zM51 0v35q47 6 65.5 9t42 14.5t31 31t7.5 51.5v516q0 61 -28 90t-118 37v31q102 16 151.5 41t104.5 78l41 -39l-69 -244h40q74 141 145 212t171 71 q47 0 86 -16v-150q-82 23 -129 23q-119 0 -190.5 -79t-71.5 -208v-363q0 -43 19.5 -65.5t44 -27.5t87.5 -13v-35h-430z" glyph-name="racute" horiz-adv-x="772" unicode="ŕ"/><glyph d="M991 238q51 -76 84 -117t86 -71t105 -13v-37q-55 -33 -109 -33q-100 0 -167.5 49.5t-145.5 167.5l-166 252q-53 76 -115.5 106.5t-173.5 35.5v-381q0 -47 7 -76t36 -46.5t42 -21.5t69 -14q10 -2 16 -4v-35h-498v35q104 20 132 41q39 33 38 121v897q0 47 -7 75.5t-35.5 46 t-42 21.5t-68.5 14q-10 2 -17 4v35h478q549 0 548 -354q0 -295 -393 -346q84 -23 162 -146zM555 1227q-100 0 -133 -21.5t-33 -72.5v-494h166q195 0 282 72.5t87 212.5q0 303 -369 303zM664 -119q51 0 87.5 -40t36.5 -107q0 -92 -66.5 -185.5t-193.5 -138.5l-18 31 q66 31 107.5 80t50.5 94q2 10 3 18.5t-3 14.5t-6.5 10t-10.5 8t-10 6t-12 4l-11 5q-59 37 -59 98q0 45 31 73.5t74 28.5z" glyph-name="Rcommaaccent" horiz-adv-x="1306" unicode="Ŗ"/><glyph d="M51 0v35q47 6 65.5 9t42 14.5t31 31t7.5 51.5v516q0 61 -28 90t-118 37v31q102 16 151.5 41t104.5 78l41 -39l-69 -244h40q74 141 145 212t171 71q47 0 86 -16v-150q-82 23 -129 23q-119 0 -190.5 -79t-71.5 -208v-363q0 -43 19.5 -65.5t44 -27.5t87.5 -13v-35h-430z M137 -590l-18 31q66 31 107.5 80t49.5 94q2 10 3.5 18.5t-3 14.5t-6.5 10t-10 8t-10 6t-12 4l-11 5q-59 37 -59 98q0 45 30.5 73.5t73.5 28.5q51 0 88 -40t37 -107q0 -92 -66.5 -185.5t-193.5 -138.5z" glyph-name="rcommaaccent" horiz-adv-x="772" unicode="ŗ"/><glyph d="M913 1780l-276 -316l-275 318l25 14l250 -201l252 201zM991 238q51 -76 84 -117t86 -71t105 -13v-37q-55 -33 -109 -33q-100 0 -167.5 49.5t-145.5 167.5l-166 252q-53 76 -115.5 106.5t-173.5 35.5v-381q0 -47 7 -76t36 -46.5t42 -21.5t69 -14q10 -2 16 -4v-35h-498v35 q104 20 132 41q39 33 38 121v897q0 47 -7 75.5t-35.5 46t-42 21.5t-68.5 14q-10 2 -17 4v35h478q549 0 548 -354q0 -295 -393 -346q84 -23 162 -146zM555 1227q-100 0 -133 -21.5t-33 -72.5v-494h166q195 0 282 72.5t87 212.5q0 303 -369 303z" glyph-name="Rcaron" horiz-adv-x="1306" unicode="Ř"/><glyph d="M383 1075l-274 318l24 14l250 -201l252 201l24 -16zM51 0v35q47 6 65.5 9t42 14.5t31 31t7.5 51.5v516q0 61 -28 90t-118 37v31q102 16 151.5 41t104.5 78l41 -39l-69 -244h40q74 141 145 212t171 71q47 0 86 -16v-150q-82 23 -129 23q-119 0 -190.5 -79t-71.5 -208v-363 q0 -43 19.5 -65.5t44 -27.5t87.5 -13v-35h-430z" glyph-name="rcaron" horiz-adv-x="772" unicode="ř"/><glyph d="M481 1446l-30 24q72 199 141 297q31 0 72 -29.5t53 -54.5q-25 -16 -47.5 -35.5t-50 -49t-42 -44t-50.5 -56.5t-46 -52zM502 -25q-182 0 -383 129l-17 258h41q35 -143 130.5 -236t228.5 -93q115 0 192.5 74.5t77.5 187.5q0 115 -73.5 182.5t-235.5 149.5q-72 37 -122 68.5 t-103.5 79.5t-81 109.5t-27.5 133.5q0 131 95 218t288 87q49 0 93 -7t74 -14.5t62.5 -23.5t47 -25.5t42 -28t33.5 -22.5l6 -262h-36q-35 141 -118 233.5t-214 92.5q-109 0 -168.5 -58.5t-59.5 -148.5q0 -94 72 -164t225 -147q80 -41 120 -66t107.5 -78t100.5 -120.5 t33 -149.5q0 -160 -128 -259.5t-302 -99.5z" glyph-name="Sacute" horiz-adv-x="1024" unicode="Ś"/><glyph d="M367 1057l-31 24q72 199 141 297q31 0 72 -29.5t53 -54.5q-25 -16 -47.5 -35.5t-50 -49t-41.5 -44t-50 -56.5t-46 -52zM375 -18q-94 0 -178 28.5t-111 52.5l-4 185h49q27 -96 94.5 -152.5t167.5 -56.5q90 0 145.5 43t55.5 121q0 37 -12.5 65.5t-43 50t-51 32.5t-73 30.5 t-68.5 28.5q-117 45 -187.5 106.5t-70.5 157.5q0 109 85 177.5t237 68.5q143 0 252 -78l-7 -183h-41q-57 203 -231 203q-84 0 -128 -43t-44 -106q0 -68 49 -106t156 -81q10 -4 45 -17t52 -20.5t50 -22.5t51.5 -28.5t43 -34t38 -42t22.5 -50t9 -61.5q0 -109 -96 -188.5 t-256 -79.5z" glyph-name="sacute" horiz-adv-x="808" unicode="ś"/><glyph d="M932 334q0 -141 -102.5 -237.5t-254.5 -116.5l-49 -93q90 0 144.5 -41t54.5 -108q0 -72 -69.5 -122t-229.5 -50l10 39q88 0 137.5 27.5t49.5 70.5q0 96 -215 96l90 176q-182 2 -379 129l-17 258h41q35 -143 130.5 -236t228.5 -93q115 0 192.5 74.5t77.5 187.5 q0 115 -73.5 182.5t-235.5 149.5q-72 37 -122 68.5t-103.5 79.5t-81 109.5t-27.5 133.5q0 131 95 218t288 87q49 0 93 -7t74 -14.5t62.5 -23.5t47 -25.5t42 -28t33.5 -22.5l6 -262h-36q-35 141 -118 233.5t-214 92.5q-109 0 -168.5 -58.5t-59.5 -148.5q0 -94 72 -164 t225 -147q80 -41 120 -66t107.5 -78t100.5 -120.5t33 -149.5z" glyph-name="Scedilla" horiz-adv-x="1024" unicode="Ş"/><glyph d="M727 250q0 -94 -73.5 -169t-198.5 -93l-54 -101q90 0 144.5 -41t54.5 -108q0 -72 -69.5 -122t-229.5 -50l10 39q88 0 137.5 27.5t49.5 70.5q0 96 -215 96l92 183q-94 0 -178 28.5t-111 52.5l-4 185h49q27 -96 94.5 -152.5t167.5 -56.5q90 0 145.5 43t55.5 121 q0 37 -12.5 65.5t-43 50t-51 32.5t-73 30.5t-68.5 28.5q-117 45 -187.5 106.5t-70.5 157.5q0 109 85 177.5t237 68.5q143 0 252 -78l-7 -183h-41q-57 203 -231 203q-84 0 -128 -43t-44 -106q0 -68 49 -106t156 -81q10 -4 45 -17t52 -20.5t50 -22.5t51.5 -28.5t43 -34t38 -42 t22.5 -50t9 -61.5z" glyph-name="scedilla" horiz-adv-x="808" unicode="ş"/><glyph d="M508 1464l-275 318l25 14l250 -201l252 201l24 -16zM502 -25q-182 0 -383 129l-17 258h41q35 -143 130.5 -236t228.5 -93q115 0 192.5 74.5t77.5 187.5q0 115 -73.5 182.5t-235.5 149.5q-72 37 -122 68.5t-103.5 79.5t-81 109.5t-27.5 133.5q0 131 95 218t288 87 q49 0 93 -7t74 -14.5t62.5 -23.5t47 -25.5t42 -28t33.5 -22.5l6 -262h-36q-35 141 -118 233.5t-214 92.5q-109 0 -168.5 -58.5t-59.5 -148.5q0 -94 72 -164t225 -147q80 -41 120 -66t107.5 -78t100.5 -120.5t33 -149.5q0 -160 -128 -259.5t-302 -99.5z" glyph-name="Scaron" horiz-adv-x="1024" unicode="Š"/><glyph d="M393 1075l-274 318l24 14l250 -201l252 201l25 -16zM375 -18q-94 0 -178 28.5t-111 52.5l-4 185h49q27 -96 94.5 -152.5t167.5 -56.5q90 0 145.5 43t55.5 121q0 37 -12.5 65.5t-43 50t-51 32.5t-73 30.5t-68.5 28.5q-117 45 -187.5 106.5t-70.5 157.5q0 109 85 177.5 t237 68.5q143 0 252 -78l-7 -183h-41q-57 203 -231 203q-84 0 -128 -43t-44 -106q0 -68 49 -106t156 -81q10 -4 45 -17t52 -20.5t50 -22.5t51.5 -28.5t43 -34t38 -42t22.5 -50t9 -61.5q0 -109 -96 -188.5t-256 -79.5z" glyph-name="scaron" horiz-adv-x="808" unicode="š"/><glyph d="M1161 1311l17 -353h-33q-23 150 -82 214.5t-215 64.5h-150v-1040q0 -41 10.5 -68t20.5 -42t46 -26.5t54.5 -14.5t79.5 -11v-35h-225l-59 -113q90 0 144 -41t54 -108q0 -72 -69.5 -122t-229.5 -50l11 39q88 0 137 27.5t49 70.5q0 96 -215 96l102 201h-278v35q61 8 79.5 11 t54.5 14.5t46 26.5t20.5 42t10.5 68v1040h-144q-160 0 -220 -64.5t-83 -214.5h-33l17 353l94 -21h895z" glyph-name="Tcommaaccent" horiz-adv-x="1239" unicode="Ţ"/><glyph d="M592 106q-51 -31 -248 -122l-51 -97q90 0 144.5 -41t54.5 -108q0 -72 -70 -122t-229 -50l10 39q88 0 137 27.5t49 70.5q0 96 -215 96l102 199q-82 55 -81 152v681h-144v37q152 66 232 215h45v-194l250 31q-10 -31 -11 -89h-239v-610q0 -51 27.5 -77.5t70.5 -27.5t85 7 t81 24v-41z" glyph-name="tcommaaccent" horiz-adv-x="587" unicode="ţ"/><glyph d="M893 1761l-277 -315l-274 317l25 15l249 -201l252 201zM1161 1311l17 -353h-33q-23 150 -82 214.5t-215 64.5h-150v-1040q0 -41 10.5 -68t20.5 -42t46 -26.5t54.5 -14.5t79.5 -11v-35h-579v35q61 8 79.5 11t54.5 14.5t46 26.5t20.5 42t10.5 68v1040h-144 q-160 0 -220 -64.5t-83 -214.5h-33l17 353l94 -21h895z" glyph-name="Tcaron" horiz-adv-x="1239" unicode="Ť"/><glyph d="M373 1001q-10 0 -19 17l6 282q4 51 33 52q57 0 45 -78l-55 -254q2 -2 -3 -10.5t-7 -8.5zM328 221q0 -51 27.5 -77.5t70.5 -27.5t85 7t81 24v-41q-74 -45 -258 -126q-51 0 -95 53t-44 117v681h-144v37q152 66 232 215h45v-194l250 31q-10 -31 -11 -89h-239v-610z" glyph-name="tcaron" horiz-adv-x="579" unicode="ť"/><glyph d="M1161 1311l17 -353h-33q-23 150 -82 214.5t-215 64.5h-150v-573l209 6l-20 -66l-189 6v-413q0 -41 10.5 -68t20.5 -42t46 -26.5t54.5 -14.5t79.5 -11v-35h-579v35q61 8 79.5 11t54.5 14.5t46 26.5t20.5 42t10.5 68v413q-123 0 -248 -6l20 66q33 -2 71 -3t85 -2t72 -1v573 h-144q-160 0 -220 -64.5t-83 -214.5h-33l17 353l94 -21h895z" glyph-name="Tbar" horiz-adv-x="1239" unicode="Ŧ"/><glyph d="M350 221q0 -51 28 -77.5t71 -27.5t84.5 7t80.5 24v-41q-74 -45 -258 -126q-51 0 -95 53t-44 117v370h-166l21 64h145v247h-143v37q152 66 231 215h45v-194l250 31q-10 -31 -10 -89h-240v-247h209l-20 -64h-189v-299z" glyph-name="tbar" horiz-adv-x="665" unicode="ŧ"/><glyph d="M422 1632l31 62h573l-31 -62h-573zM717 -25q-70 0 -132.5 11.5t-131 47.5t-117.5 92t-82 155.5t-33 230.5v582q0 47 -7 75.5t-35.5 46t-42 21.5t-68.5 14q-10 2 -17 4v35h500v-35q-104 -20 -131 -41q-39 -33 -39 -120v-605q0 -430 367 -430q70 0 129 16.5t119.5 57.5 t96 124t35.5 202v635q0 47 -8 75.5t-35.5 46t-44 21.5t-67.5 14q-12 2 -19 4v35h439v-35q-115 -20 -142 -41q-43 -33 -43 -120v-594q0 -147 -43 -254t-116.5 -163t-155.5 -82t-176 -26z" glyph-name="Umacron" horiz-adv-x="1443" unicode="Ū"/><glyph d="M272 1243l31 62h574l-31 -62h-574zM438 -18q-262 0 -262 315v473q0 37 -17.5 56.5t-39 25.5t-68.5 14v35q147 -8 258 12v-610q0 -205 187 -205q162 0 303 115v557q0 37 -17.5 56.5t-39 25.5t-68.5 14v35q147 -8 258 12v-743q0 -61 25.5 -91t109.5 -44v-35h-260l12 158 h-22q-181 -176 -359 -176z" glyph-name="umacron" unicode="ū"/><glyph d="M573 1145q-129 0 -192.5 69.5t-63.5 176.5h35q25 -133 221.5 -133.5t221.5 133.5h34q0 -106 -63.5 -176t-192.5 -70zM438 -18q-262 0 -262 315v473q0 37 -17.5 56.5t-39 25.5t-68.5 14v35q147 -8 258 12v-610q0 -205 187 -205q162 0 303 115v557q0 37 -17.5 56.5 t-39 25.5t-68.5 14v35q147 -8 258 12v-743q0 -61 25.5 -91t109.5 -44v-35h-260l12 158h-22q-181 -176 -359 -176z" glyph-name="ubreve" unicode="ŭ"/><glyph d="M723 1493q-70 0 -119 49t-49 119t49 119t119 49t119 -49t49 -119t-49 -119t-119 -49zM723 1552q43 0 74.5 33t31.5 76t-31.5 75.5t-74.5 32.5t-75 -32.5t-32 -75.5t32 -76t75 -33zM717 -25q-70 0 -132.5 11.5t-131 47.5t-117.5 92t-82 155.5t-33 230.5v582q0 47 -7 75.5 t-35.5 46t-42 21.5t-68.5 14q-10 2 -17 4v35h500v-35q-104 -20 -131 -41q-39 -33 -39 -120v-605q0 -430 367 -430q70 0 129 16.5t119.5 57.5t96 124t35.5 202v635q0 47 -8 75.5t-35.5 46t-44 21.5t-67.5 14q-12 2 -19 4v35h439v-35q-115 -20 -142 -41q-43 -33 -43 -120v-594 q0 -147 -43 -254t-116.5 -163t-155.5 -82t-176 -26z" glyph-name="Uring" horiz-adv-x="1443" unicode="Ů"/><glyph d="M573.5 1104q-69.5 0 -118.5 49t-49 118.5t49 119t118.5 49.5t118.5 -49.5t49 -119t-49 -118.5t-118.5 -49zM573 1163q43 0 75 33t32 76t-32 75.5t-75 32.5t-74.5 -32.5t-31.5 -75.5t31.5 -76t74.5 -33zM438 -18q-262 0 -262 315v473q0 37 -17.5 56.5t-39 25.5t-68.5 14 v35q147 -8 258 12v-610q0 -205 187 -205q162 0 303 115v557q0 37 -17.5 56.5t-39 25.5t-68.5 14v35q147 -8 258 12v-743q0 -61 25.5 -91t109.5 -44v-35h-260l12 158h-22q-181 -176 -359 -176z" glyph-name="uring" unicode="ů"/><glyph d="M500 1446l-31 24q72 199 141 297q31 0 72 -29.5t53 -54.5q-25 -16 -47 -35.5t-50 -49t-42 -44t-50 -56.5t-46 -52zM786 1446l-30 24q72 199 141 297q31 0 72 -29.5t53 -54.5q-25 -16 -47.5 -35.5t-50 -49t-42 -44t-50.5 -56.5t-46 -52zM717 -25q-70 0 -132.5 11.5 t-131 47.5t-117.5 92t-82 155.5t-33 230.5v582q0 47 -7 75.5t-35.5 46t-42 21.5t-68.5 14q-10 2 -17 4v35h500v-35q-104 -20 -131 -41q-39 -33 -39 -120v-605q0 -430 367 -430q70 0 129 16.5t119.5 57.5t96 124t35.5 202v635q0 47 -8 75.5t-35.5 46t-44 21.5t-67.5 14 q-12 2 -19 4v35h439v-35q-115 -20 -142 -41q-43 -33 -43 -120v-594q0 -147 -43 -254t-116.5 -163t-155.5 -82t-176 -26z" glyph-name="Uhungarumlaut" horiz-adv-x="1443" unicode="Ű"/><glyph d="M350 1057l-31 24q72 199 142 297q31 0 71.5 -29.5t53.5 -54.5q-25 -16 -47.5 -35.5t-50 -49t-42 -44t-50.5 -56.5t-46 -52zM637 1057l-31 24q72 199 142 297q31 0 71.5 -29.5t52.5 -54.5q-25 -16 -47 -35.5t-49.5 -49t-42 -44t-50.5 -56.5t-46 -52zM438 -18 q-262 0 -262 315v473q0 37 -17.5 56.5t-39 25.5t-68.5 14v35q147 -8 258 12v-610q0 -205 187 -205q162 0 303 115v557q0 37 -17.5 56.5t-39 25.5t-68.5 14v35q147 -8 258 12v-743q0 -61 25.5 -91t109.5 -44v-35h-260l12 158h-22q-181 -176 -359 -176z" glyph-name="uhungarumlaut" unicode="ű"/><glyph d="M954 1290h439v-35q-115 -20 -142 -41q-43 -33 -43 -120v-594q0 -240 -104.5 -363t-269.5 -151q-168 -78 -168 -203q0 -53 30.5 -82t75.5 -29q41 0 111 27v-33q-70 -74 -174 -74q-82 0 -133.5 41t-51.5 125q0 61 45 125l142 92q-70 0 -131.5 12.5t-130 48.5t-116.5 92 t-80 155.5t-32 228.5v582q0 47 -7 75.5t-35.5 46t-42 21.5t-68.5 14q-10 2 -17 4v35h500v-35q-104 -20 -131 -41q-39 -33 -39 -120v-605q0 -430 367 -430q63 0 108 11l2 2q270 57 270 387v635q0 47 -8 75.5t-35.5 46t-44 21.5t-67.5 14q-12 2 -19 4v35z" glyph-name="Uogonek" horiz-adv-x="1396" unicode="Ų"/><glyph d="M920 0q-100 -57 -145.5 -103.5t-45.5 -113.5q0 -53 29.5 -82t77.5 -29q39 0 108 27v-33q-70 -74 -174 -74q-82 0 -133 41t-51 125q0 61 45 125l176 117l12 158h-22q-180 -176 -359 -176q-262 0 -262 315v473q0 37 -17.5 56.5t-39 25.5t-68.5 14v35q147 -8 258 12v-610 q0 -205 187 -205q162 0 303 115v557q0 37 -17.5 56.5t-39 25.5t-68.5 14v35q147 -8 258 12v-743q0 -61 25.5 -91t109.5 -44v-35h-147z" glyph-name="uogonek" unicode="ų"/><glyph d="M1020 1794l276 -315l-24 -17l-252 201l-250 -201l-25 15zM623 -16l-433 1142q-25 66 -52 83.5t-118 33.5v45h459v-45q-139 -33 -146 -41t23 -76l340 -913l256 733q35 96 -5 185.5t-142 113.5v45h274q0 -20 3 -44.5t7.5 -43t14.5 -49.5t15 -45t19.5 -52t18.5 -50l289 -791 l291 823q18 49 19 84t-7 55.5t-37 34t-56.5 19.5t-80.5 14v45h440v-45q-66 -12 -87 -19t-43.5 -28.5t-39.5 -69.5l-413 -1142h-60l-354 948l-336 -950h-59z" glyph-name="Wcircumflex" horiz-adv-x="2035" unicode="Ŵ"/><glyph d="M795 1405l276 -315l-24 -17l-252 201l-250 -201l-25 14zM455 -12l-293 790q-18 53 -44 67.5t-98 20.5v35h408v-35q-94 -12 -111 -37q-12 -18 0 -51l213 -585l203 489q31 84 2 139q-10 25 -31.5 32t-70.5 13v35h258q0 -72 37 -158l213 -553l205 508q16 43 16 73 t-10.5 47.5t-36 27.5t-48 14t-59.5 6v35h363v-35q-70 -6 -94.5 -20.5t-46.5 -67.5l-308 -790h-53l-274 700l-287 -700h-53z" glyph-name="wcircumflex" horiz-adv-x="1591" unicode="ŵ"/><glyph d="M659 1663l-249 -201l-25 15l274 317l277 -315l-25 -17zM891 1290h393v-35q-82 -16 -108.5 -33.5t-71.5 -93.5l-361 -581v-340q0 -51 9.5 -80t42 -45t53 -21.5t86.5 -15.5v-45h-539v45q121 20 150 43q41 31 41 119v323l-377 598q-49 76 -73.5 93.5t-104.5 33.5v35h469v-35 q-82 -18 -113 -43.5t2 -83.5l320 -518l313 518q20 35 23.5 56.5t-18 34t-39 17.5t-64.5 13q-23 4 -33 6v35z" glyph-name="Ycircumflex" horiz-adv-x="1314" unicode="Ŷ"/><glyph d="M512 1274l-250 -201l-24 14l274 318l276 -315l-24 -17zM676 901h317v-35q-68 -8 -90 -22.5t-47 -71.5l-371 -868l-27 -67.5t-35 -69t-48.5 -71t-57 -46t-73.5 -21.5q-63 0 -127 47v105q254 -10 307 123l53 125l-319 745q-23 55 -46.5 69.5t-91.5 22.5v35h396v-35 q-96 -14 -113 -37q-16 -20 -2 -55l244 -588l250 586q6 29 7 44t-20.5 25.5t-40 14.5t-49.5 8q-10 2 -16 2v35z" glyph-name="ycircumflex" horiz-adv-x="1013" unicode="ŷ"/><glyph d="M473 1581q-35 0 -57.5 22.5t-22.5 57.5q0 37 22.5 59.5t57.5 22.5q37 0 59.5 -22.5t22.5 -59.5q0 -35 -22.5 -57.5t-59.5 -22.5zM842 1581q-35 0 -57.5 22.5t-22.5 57.5q0 37 22.5 59.5t57.5 22.5q37 0 59.5 -22.5t22.5 -59.5q0 -35 -22.5 -57.5t-59.5 -22.5zM891 1290 h393v-35q-82 -16 -108.5 -33.5t-71.5 -93.5l-361 -581v-340q0 -51 9.5 -80t42 -45t53 -21.5t86.5 -15.5v-45h-539v45q121 20 150 43q41 31 41 119v323l-377 598q-49 76 -73.5 93.5t-104.5 33.5v35h469v-35q-82 -18 -113 -43.5t2 -83.5l320 -518l313 518q20 35 23.5 56.5 t-18 34t-39 17.5t-64.5 13q-23 4 -33 6v35z" glyph-name="Ydieresis" horiz-adv-x="1314" unicode="Ÿ"/><glyph d="M559 1446l-31 24q72 199 142 297q31 0 71.5 -29.5t53.5 -54.5q-25 -16 -47.5 -35.5t-50 -49t-42 -44t-50.5 -56.5t-46 -52zM84 0l-23 31l813 1216l-454 -8q-147 -2 -205.5 -63.5t-69.5 -206.5h-41v334l111 -13h895l-831 -1247l509 8q141 2 198.5 65.5t88.5 209.5h43 q-39 -209 -39 -326h-995z" glyph-name="Zacute" horiz-adv-x="1179" unicode="Ź"/><glyph d="M424 1057l-31 24q72 199 142 297q31 0 71.5 -29.5t52.5 -54.5q-25 -16 -47 -35.5t-49.5 -49t-42 -44t-50.5 -56.5t-46 -52zM84 0l-23 31l586 829l-291 -6q-172 -2 -192 -211h-39v270l121 -12h592l-602 -860l296 6q129 2 184.5 53.5t84.5 157.5h41q-39 -137 -39 -258h-719 z" glyph-name="zacute" horiz-adv-x="903" unicode="ź"/><glyph d="M590 1563q-35 0 -62.5 25.5t-27.5 60.5q0 37 27.5 63.5t62.5 26.5q37 0 64.5 -26.5t27.5 -63.5q0 -35 -27.5 -60.5t-64.5 -25.5zM84 0l-23 31l813 1216l-454 -8q-147 -2 -205.5 -63.5t-69.5 -206.5h-41v334l111 -13h895l-831 -1247l509 8q141 2 198.5 65.5t88.5 209.5h43 q-39 -209 -39 -326h-995z" glyph-name="Zdotaccent" horiz-adv-x="1179" unicode="Ż"/><glyph d="M455 1174q-35 0 -62.5 25.5t-27.5 60.5q0 37 27.5 63.5t62.5 26.5q37 0 64.5 -27t27.5 -63q0 -35 -27.5 -60.5t-64.5 -25.5zM84 0l-23 31l586 829l-291 -6q-172 -2 -192 -211h-39v270l121 -12h592l-602 -860l296 6q129 2 184.5 53.5t84.5 157.5h41q-39 -137 -39 -258 h-719z" glyph-name="zdotaccent" horiz-adv-x="903" unicode="ż"/><glyph d="M586 1464l-275 318l25 14l250 -201l252 201l24 -16zM84 0l-23 31l813 1216l-454 -8q-147 -2 -205.5 -63.5t-69.5 -206.5h-41v334l111 -13h895l-831 -1247l509 8q141 2 198.5 65.5t88.5 209.5h43q-39 -209 -39 -326h-995z" glyph-name="Zcaron" horiz-adv-x="1179" unicode="Ž"/><glyph d="M451 1075l-275 318l25 14l250 -201l251 201l25 -16zM84 0l-23 31l586 829l-291 -6q-172 -2 -192 -211h-39v270l121 -12h592l-602 -860l296 6q129 2 184.5 53.5t84.5 157.5h41q-39 -137 -39 -258h-719z" glyph-name="zcaron" horiz-adv-x="903" unicode="ž"/><glyph d="M1100 1403q133 0 168 -86q-20 -90 -99 -119q-16 55 -56 93t-95 38q-76 0 -142.5 -72.5t-87.5 -248.5l-14 -113l230 16q-10 -31 -11 -80h-227l-84 -686q-31 -256 -151.5 -379.5t-311.5 -123.5q-133 0 -168 86q20 90 99 118q16 -55 56 -93t95 -38q76 0 141.5 73t87.5 249 l95 794h-146v39l154 31q35 248 158 375t309 127z" glyph-name="florin" horiz-adv-x="1134" unicode="ƒ"/><glyph d="M502 -25q-182 0 -383 129l-17 258h41q35 -143 130.5 -236t228.5 -93q115 0 192.5 74.5t77.5 187.5q0 115 -73.5 182.5t-235.5 149.5q-72 37 -122 68.5t-103.5 79.5t-81 109.5t-27.5 133.5q0 131 95 218t288 87q49 0 93 -7t74 -14.5t62.5 -23.5t47 -25.5t42 -28 t33.5 -22.5l6 -262h-36q-35 141 -118 233.5t-214 92.5q-109 0 -168.5 -58.5t-59.5 -148.5q0 -94 72 -164t225 -147q80 -41 120 -66t107.5 -78t100.5 -120.5t33 -149.5q0 -160 -128 -259.5t-302 -99.5zM395 -590l-18 31q66 31 107.5 80t50.5 94q2 10 3 18.5t-3.5 14.5 t-6.5 10t-10 8t-10 6t-12 4l-11 5q-59 37 -59 98q0 45 30.5 73.5t73.5 28.5q51 0 88 -40t37 -107q0 -92 -66.5 -185.5t-193.5 -138.5z" glyph-name="Scommaaccent" horiz-adv-x="1024" unicode="Ș"/><glyph d="M375 -18q-94 0 -178 28.5t-111 52.5l-4 185h49q27 -96 94.5 -152.5t167.5 -56.5q90 0 145.5 43t55.5 121q0 37 -12.5 65.5t-43 50t-51 32.5t-73 30.5t-68.5 28.5q-117 45 -187.5 106.5t-70.5 157.5q0 109 85 177.5t237 68.5q143 0 252 -78l-7 -183h-41q-57 203 -231 203 q-84 0 -128 -43t-44 -106q0 -68 49 -106t156 -81q10 -4 45 -17t52 -20.5t50 -22.5t51.5 -28.5t43 -34t38 -42t22.5 -50t9 -61.5q0 -109 -96 -188.5t-256 -79.5zM270 -590l-18 31q66 31 107.5 80t50.5 94q2 10 3 18.5t-3 14.5t-6.5 10t-10.5 8t-10 6t-12 4l-11 5 q-59 37 -59 98q0 45 30.5 73.5t74.5 28.5q51 0 87.5 -40t36.5 -107q0 -92 -66.5 -185.5t-193.5 -138.5z" glyph-name="scommaaccent" horiz-adv-x="808" unicode="ș"/><glyph d="M1161 1311l17 -353h-33q-23 150 -82 214.5t-215 64.5h-150v-1040q0 -41 10.5 -68t20.5 -42t46 -26.5t54.5 -14.5t79.5 -11v-35h-579v35q61 8 79.5 11t54.5 14.5t46 26.5t20.5 42t10.5 68v1040h-144q-160 0 -220 -64.5t-83 -214.5h-33l17 353l94 -21h895zM629 -119 q51 0 88 -40t37 -107q0 -92 -66.5 -185.5t-193.5 -138.5l-19 31q66 31 108 80t50 94q2 10 3 18.5t-3 14.5t-6 10t-10.5 8t-10.5 6t-12 4l-10 5q-59 37 -60 98q0 45 31 73.5t74 28.5z" glyph-name="uni021A" horiz-adv-x="1239" unicode="Ț"/><glyph d="M328 221q0 -51 27.5 -77.5t70.5 -27.5t85 7t81 24v-41q-74 -45 -258 -126q-51 0 -95 53t-44 117v681h-144v37q152 66 232 215h45v-194l250 31q-10 -31 -11 -89h-239v-610zM309 -119q51 0 88 -40t37 -107q0 -92 -66.5 -185.5t-193.5 -138.5l-18 31q66 31 107.5 80t49.5 94 q2 10 3 18.5t-3 14.5t-6 10t-10 8t-10 6t-13 4l-10 5q-59 37 -59 98q0 45 30.5 73.5t73.5 28.5z" glyph-name="uni021B" horiz-adv-x="587" unicode="ț"/><glyph d="M6 -379q-8 8 -8 22.5t8 20.5q115 35 145.5 90.5t30.5 220.5v680q0 61 -25.5 90t-109.5 39v31q57 10 88 24.5t72 46.5t65 48l43 -39v-930q0 -303 -309 -344z" glyph-name="uni0237" horiz-adv-x="438" unicode="ȷ"/><glyph d="M295 1405l276 -315l-24 -17l-252 201l-250 -201l-25 14z" glyph-name="circumflex" horiz-adv-x="589" unicode="ˆ"/><glyph d="M295 1075l-275 318l25 14l250 -201l252 201l24 -16z" glyph-name="caron" horiz-adv-x="591" unicode="ˇ"/><glyph d="M276.5 1145q-129.5 0 -193 69.5t-63.5 176.5h35q25 -133 221.5 -133.5t221.5 133.5h34q0 -106 -63 -176t-192.5 -70z" glyph-name="breve" horiz-adv-x="552" unicode="˘"/><glyph d="M111 1174q-35 0 -63 25.5t-28 60.5q0 37 28 63.5t63 26.5q37 0 64.5 -27t27.5 -63q0 -35 -27.5 -60.5t-64.5 -25.5z" glyph-name="dotaccent" horiz-adv-x="223" unicode="˙"/><glyph d="M188.5 1104q-69.5 0 -119 49t-49.5 118.5t49.5 119t119 49.5t118.5 -49.5t49 -119t-49 -118.5t-118.5 -49zM188 1163q43 0 75 33t32 76t-32 75.5t-75 32.5t-74.5 -32.5t-31.5 -75.5t31.5 -76t74.5 -33z" glyph-name="ring" horiz-adv-x="376" unicode="˚"/><glyph d="M205 -375q-82 0 -133.5 41t-51.5 125q0 61 46 125l288 193v-76q-100 -57 -145 -103.5t-45 -113.5q0 -53 29.5 -82t76.5 -29q39 0 109 27v-33q-70 -74 -174 -74z" glyph-name="ogonek" horiz-adv-x="399" unicode="˛"/><glyph d="M469 1110q-70 0 -119 35t-90 70.5t-88 35.5q-57 0 -87 -24.5t-30 -55.5h-30q-18 74 36 129.5t146 55.5q68 0 116 -35t89 -71t90 -36q57 0 86.5 25t29.5 57h31q18 -74 -35 -130t-145 -56z" glyph-name="tilde" horiz-adv-x="673" unicode="˜"/><glyph d="M51 1057l-31 24q72 199 142 297q31 0 71.5 -29.5t53.5 -54.5q-25 -16 -47.5 -35.5t-50 -49t-42 -44t-50.5 -56.5t-46 -52zM338 1057l-31 24q72 199 142 297q31 0 71.5 -29.5t52.5 -54.5q-25 -16 -47 -35.5t-49.5 -49t-42 -44t-50.5 -56.5t-46 -52z" glyph-name="hungarumlaut" horiz-adv-x="593" unicode="˝"/><glyph d="M-254 1057l-31 24q72 199 142 297q31 0 71.5 -29.5t53.5 -54.5q-25 -16 -47.5 -35.5t-50 -49t-42 -44t-50.5 -56.5t-46 -52z" glyph-name="acutecomb" horiz-adv-x="0" unicode="́"/><glyph d="M-268 -590l-19 31q66 31 108 80t50 94q2 10 3 18.5t-3 14.5t-6 10t-10.5 8t-10.5 6t-12 4l-10 5q-59 37 -60 98q0 45 31 73.5t74 28.5q51 0 88 -40t37 -107q0 -92 -66.5 -185.5t-193.5 -138.5z" glyph-name="uni0326" horiz-adv-x="0" unicode="̦"/><glyph d="M20 0l553 1298l553 -1298h-1106zM119 109h782l-385 917z" glyph-name="Delta" horiz-adv-x="1146" unicode="Δ"/><glyph d="M1372 205h41l-74 -205h-409v145q94 45 185 192.5t91 348.5q0 246 -128 400.5t-320.5 154.5t-320.5 -154.5t-128 -400.5q0 -201 91.5 -348.5t185.5 -192.5v-145h-410l-74 205h41q31 -41 74 -50.5t131 -9.5h111q-131 68 -229.5 220.5t-98.5 341.5q0 229 175 413.5 t451.5 184.5t451.5 -184.5t175 -413.5q0 -188 -98 -341t-229 -221h110q61 0 89 2.5t62 15.5t54 42z" glyph-name="Omega" horiz-adv-x="1515" unicode="Ω"/><glyph d="M932 170q0 -61 25.5 -91t109.5 -44v-35h-260l12 158h-22q-180 -176 -359 -176q-190 0 -243 172v-29q0 -111 24.5 -189.5t55 -109.5t55 -56.5t24.5 -41.5q0 -88 -69 -125q-63 -35 -105 12q-27 31 -26 88v647h22v420q0 37 -17.5 56.5t-39 25.5t-68.5 14v35q147 -8 258 12 v-610q0 -205 187 -205q162 0 303 115v557q0 37 -17.5 56.5t-39 25.5t-68.5 14v35q147 -8 258 12v-743z" glyph-name="mu" unicode="μ"/><glyph d="M1130 182q76 0 76 -98q0 -49 -41 -76.5t-112 -27.5q-223 0 -224 286v570h-325v-598q0 -117 -58.5 -183.5t-140.5 -66.5q-53 0 -121 24l-30 56q86 -20 151.5 21.5t65.5 148.5v598h-113q-68 0 -91.5 -50.5t-2.5 -132.5l-51 23q-43 94 -5.5 171t121.5 77h926v-88h-192v-707 q0 -27 11 -49.5t25 -22.5q31 0 46.5 19.5t18.5 43t19 43t47 19.5z" glyph-name="pi" horiz-adv-x="1298" unicode="π"/><glyph d="M1028 1446q-10 10 -46 52t-50 56.5t-42 44t-50.5 49t-46.5 35.5q12 25 53 54.5t72 29.5q70 -98 141 -297zM623 -16l-433 1142q-25 66 -52 83.5t-118 33.5v45h459v-45q-139 -33 -146 -41t23 -76l340 -913l256 733q35 96 -5 185.5t-142 113.5v45h274q0 -20 3 -44.5t7.5 -43 t14.5 -49.5t15 -45t19.5 -52t18.5 -50l289 -791l291 823q18 49 19 84t-7 55.5t-37 34t-56.5 19.5t-80.5 14v45h440v-45q-66 -12 -87 -19t-43.5 -28.5t-39.5 -69.5l-413 -1142h-60l-354 948l-336 -950h-59z" glyph-name="Wgrave" horiz-adv-x="2035" unicode="Ẁ"/><glyph d="M803 1057q-10 10 -46 52t-50.5 56.5t-42 44t-50 49t-47.5 35.5q12 25 53.5 54.5t71.5 29.5q70 -98 142 -297zM455 -12l-293 790q-18 53 -44 67.5t-98 20.5v35h408v-35q-94 -12 -111 -37q-12 -18 0 -51l213 -585l203 489q31 84 2 139q-10 25 -31.5 32t-70.5 13v35h258 q0 -72 37 -158l213 -553l205 508q16 43 16 73t-10.5 47.5t-36 27.5t-48 14t-59.5 6v35h363v-35q-70 -6 -94.5 -20.5t-46.5 -67.5l-308 -790h-53l-274 700l-287 -700h-53z" glyph-name="wgrave" horiz-adv-x="1591" unicode="ẁ"/><glyph d="M989 1446l-31 24q72 199 142 297q31 0 71.5 -29.5t53.5 -54.5q-25 -16 -47.5 -35.5t-50 -49t-42 -44t-50.5 -56.5t-46 -52zM623 -16l-433 1142q-25 66 -52 83.5t-118 33.5v45h459v-45q-139 -33 -146 -41t23 -76l340 -913l256 733q35 96 -5 185.5t-142 113.5v45h274 q0 -20 3 -44.5t7.5 -43t14.5 -49.5t15 -45t19.5 -52t18.5 -50l289 -791l291 823q18 49 19 84t-7 55.5t-37 34t-56.5 19.5t-80.5 14v45h440v-45q-66 -12 -87 -19t-43.5 -28.5t-39.5 -69.5l-413 -1142h-60l-354 948l-336 -950h-59z" glyph-name="Wacute" horiz-adv-x="2035" unicode="Ẃ"/><glyph d="M764 1057l-31 24q72 199 141 297q31 0 72 -29.5t53 -54.5q-25 -16 -47 -35.5t-50 -49t-42 -44t-50 -56.5t-46 -52zM455 -12l-293 790q-18 53 -44 67.5t-98 20.5v35h408v-35q-94 -12 -111 -37q-12 -18 0 -51l213 -585l203 489q31 84 2 139q-10 25 -31.5 32t-70.5 13v35 h258q0 -72 37 -158l213 -553l205 508q16 43 16 73t-10.5 47.5t-36 27.5t-48 14t-59.5 6v35h363v-35q-70 -6 -94.5 -20.5t-46.5 -67.5l-308 -790h-53l-274 700l-287 -700h-53z" glyph-name="wacute" horiz-adv-x="1591" unicode="ẃ"/><glyph d="M834 1581q-35 0 -57.5 22.5t-22.5 57.5q0 37 22.5 59.5t57.5 22.5q37 0 59 -22.5t22 -59.5q0 -35 -22 -57.5t-59 -22.5zM1202 1581q-35 0 -57.5 22.5t-22.5 57.5q0 37 22.5 59.5t57.5 22.5q37 0 59.5 -22.5t22.5 -59.5q0 -35 -22.5 -57.5t-59.5 -22.5zM623 -16l-433 1142 q-25 66 -52 83.5t-118 33.5v45h459v-45q-139 -33 -146 -41t23 -76l340 -913l256 733q35 96 -5 185.5t-142 113.5v45h274q0 -20 3 -44.5t7.5 -43t14.5 -49.5t15 -45t19.5 -52t18.5 -50l289 -791l291 823q18 49 19 84t-7 55.5t-37 34t-56.5 19.5t-80.5 14v45h440v-45 q-66 -12 -87 -19t-43.5 -28.5t-39.5 -69.5l-413 -1142h-60l-354 948l-336 -950h-59z" glyph-name="Wdieresis" horiz-adv-x="2035" unicode="Ẅ"/><glyph d="M608 1192q-35 0 -57.5 22.5t-22.5 57.5q0 37 22.5 59.5t57.5 22.5q37 0 59.5 -22.5t22.5 -59.5q0 -35 -22.5 -57.5t-59.5 -22.5zM977 1192q-35 0 -57.5 22.5t-22.5 57.5q0 37 22.5 59.5t57.5 22.5q37 0 59.5 -22.5t22.5 -59.5q0 -35 -22.5 -57.5t-59.5 -22.5zM455 -12 l-293 790q-18 53 -44 67.5t-98 20.5v35h408v-35q-94 -12 -111 -37q-12 -18 0 -51l213 -585l203 489q31 84 2 139q-10 25 -31.5 32t-70.5 13v35h258q0 -72 37 -158l213 -553l205 508q16 43 16 73t-10.5 47.5t-36 27.5t-48 14t-59.5 6v35h363v-35q-70 -6 -94.5 -20.5 t-46.5 -67.5l-308 -790h-53l-274 700l-287 -700h-53z" glyph-name="wdieresis" horiz-adv-x="1591" unicode="ẅ"/><glyph d="M850 700q195 -14 318.5 -106t123.5 -262q0 -158 -106.5 -265.5t-300.5 -107.5q-139 0 -254 66q-4 113 -35 249h43q63 -147 115.5 -203.5t128.5 -56.5q102 0 168.5 79t66.5 200q0 166 -129 262t-350 96l352 535q-123 41 -241 41q-68 0 -127.5 -20.5t-116.5 -68.5 t-91 -144.5t-34 -231.5v-565q0 -51 7 -80t32.5 -45.5t44 -21.5t74.5 -15v-35h-488v35q104 20 131 41q39 33 39 121v542q0 168 48 287t128 175t159 80t165 24q236 0 444 -127z" glyph-name="uni1E9E" horiz-adv-x="1384" unicode="ẞ"/><glyph d="M311 1561h-30q-18 74 36 129t146 55q68 0 116 -35t89 -70.5t90 -35.5q57 0 86.5 24.5t29.5 57.5h31q18 -74 -35 -130.5t-145 -56.5q-70 0 -119 35t-90 70.5t-88 35.5q-57 0 -87 -24t-30 -55zM1059 297h45l-84 -297h-959v35q104 20 132 41q39 33 38 121v897q0 47 -7 75.5 t-35.5 46t-42 21.5t-68.5 14q-10 2 -17 4v35h955l18 -280h-45q-14 117 -55 167t-146 50h-206q-121 0 -157 -26.5t-36 -129.5v-389h182q176 0 225.5 35t59.5 137h33v-405h-33q-10 102 -59 137t-226 35h-182v-402q0 -102 36 -129t157 -27h163q121 0 189 50.5t125 183.5z" glyph-name="uni1EBC" horiz-adv-x="1175" unicode="Ẽ"/><glyph d="M217 1171h-31q-18 74 36 129.5t147 55.5q68 0 115.5 -35t88.5 -71t91 -36q57 0 86.5 25t29.5 57h31q18 -74 -35 -130t-145 -56q-70 0 -119 35t-90 70.5t-88 35.5q-57 0 -87 -24.5t-30 -55.5zM862 219l31 -16q-37 -106 -131 -163.5t-219 -57.5q-193 0 -327 127t-134 333.5 t124 342t322 135.5q135 0 227.5 -70t120 -161t-1.5 -171h-653v-8q0 -178 105.5 -298t279.5 -120q178 0 256 127zM504 862q-104 0 -183 -75.5t-96 -211.5h520q14 100 -50 193.5t-191 93.5z" glyph-name="uni1EBD" horiz-adv-x="978" unicode="ẽ"/><glyph d="M668 1446q-10 10 -46 52t-50.5 56.5t-42 44t-50 49t-47.5 35.5q12 25 53 54.5t72 29.5q70 -98 141 -297zM891 1290h393v-35q-82 -16 -108.5 -33.5t-71.5 -93.5l-361 -581v-340q0 -51 9.5 -80t42 -45t53 -21.5t86.5 -15.5v-45h-539v45q121 20 150 43q41 31 41 119v323 l-377 598q-49 76 -73.5 93.5t-104.5 33.5v35h469v-35q-82 -18 -113 -43.5t2 -83.5l320 -518l313 518q20 35 23.5 56.5t-18 34t-39 17.5t-64.5 13q-23 4 -33 6v35z" glyph-name="Ygrave" horiz-adv-x="1314" unicode="Ỳ"/><glyph d="M520 1057q-10 10 -46 52t-50 56.5t-42 44t-50.5 49t-46.5 35.5q12 25 53 54.5t72 29.5q70 -98 141 -297zM676 901h317v-35q-68 -8 -90 -22.5t-47 -71.5l-371 -868l-27 -67.5t-35 -69t-48.5 -71t-57 -46t-73.5 -21.5q-63 0 -127 47v105q254 -10 307 123l53 125l-319 745 q-23 55 -46.5 69.5t-91.5 22.5v35h396v-35q-96 -14 -113 -37q-16 -20 -2 -55l244 -588l250 586q6 29 7 44t-20.5 25.5t-40 14.5t-49.5 8q-10 2 -16 2v35z" glyph-name="ygrave" horiz-adv-x="1013" unicode="ỳ"/><glyph d="M102 510v33h1158v-33h-1158z" glyph-name="endash" horiz-adv-x="1361" unicode="–"/><glyph d="M102 510v33h1678v-33h-1678z" glyph-name="emdash" horiz-adv-x="1882" unicode="—"/><glyph d="M102 510v33h1678v-33h-1678z" glyph-name="afii00208" horiz-adv-x="1882" unicode="―"/><glyph d="M342 1315l18 -31q-66 -31 -107.5 -80t-49.5 -94q-2 -10 -3 -18.5t3 -14.5t6 -10t10 -8t10 -6t13 -4l10 -5q59 -37 59 -98q0 -45 -30.5 -73.5t-73.5 -28.5q-51 0 -88 40t-37 107q0 92 66.5 185.5t193.5 138.5z" glyph-name="quoteleft" horiz-adv-x="442" unicode="‘"/><glyph d="M100 854l-18 31q66 31 107.5 80t50.5 94q2 10 3 18t-3 14.5t-6.5 10.5t-10.5 8t-10 6t-12 6l-11 2q-59 37 -59 99q0 45 31 73.5t74 28.5q51 0 87.5 -40t36.5 -107q0 -92 -66.5 -185.5t-193.5 -138.5z" glyph-name="quoteright" horiz-adv-x="442" unicode="’"/><glyph d="M100 -291l-18 31q66 31 107.5 80t50.5 94q2 10 3 18.5t-3 14.5t-6.5 10t-10.5 8t-10 6t-12 4l-11 5q-59 37 -59 98q0 45 31 73.5t74 28.5q51 0 87.5 -40t36.5 -107q0 -92 -66.5 -185.5t-193.5 -138.5z" glyph-name="quotesinglbase" horiz-adv-x="442" unicode="‚"/><glyph d="M342 1315l18 -31q-66 -31 -107.5 -80t-49.5 -94q-2 -10 -3 -18.5t3 -14.5t6 -10t10 -8t10 -6t13 -4l10 -5q59 -37 59 -98q0 -45 -30.5 -73.5t-73.5 -28.5q-51 0 -88 40t-37 107q0 92 66.5 185.5t193.5 138.5zM692 1315l19 -31q-66 -31 -108 -80t-50 -94q-2 -10 -3 -18.5 t3 -14.5t6 -10t10.5 -8t10.5 -6t12 -4l10 -5q59 -37 60 -98q0 -45 -31 -73.5t-74 -28.5q-51 0 -88 40t-37 107q0 92 66.5 185.5t193.5 138.5z" glyph-name="quotedblleft" horiz-adv-x="792" unicode="“"/><glyph d="M100 854l-18 31q66 31 107.5 80t50.5 94q2 10 3 18t-3 14.5t-6.5 10.5t-10.5 8t-10 6t-12 6l-11 2q-59 37 -59 99q0 45 31 73.5t74 28.5q51 0 87.5 -40t36.5 -107q0 -92 -66.5 -185.5t-193.5 -138.5zM451 854l-19 31q66 31 108 80t50 94q2 10 3 18t-3 14.5t-6 10.5 t-10.5 8t-10.5 6t-12 6l-10 2q-59 37 -60 99q0 45 31 73.5t74 28.5q51 0 88 -40t37 -107q0 -92 -66.5 -185.5t-193.5 -138.5z" glyph-name="quotedblright" horiz-adv-x="792" unicode="”"/><glyph d="M100 -281l-18 31q66 31 107.5 80t50.5 94q2 10 3 18.5t-3 14.5t-6.5 10t-10.5 8.5t-10 6.5t-12 6l-11 2q-59 37 -59 98q0 45 31 73.5t74 28.5q51 0 87.5 -39.5t36.5 -107.5q0 -92 -66.5 -185.5t-193.5 -138.5zM451 -281l-19 31q66 31 108 80t50 94q2 10 3 18.5t-3 14.5 t-6 10t-10.5 8.5t-10.5 6.5t-12 6l-10 2q-59 37 -60 98q0 45 31 73.5t74 28.5q51 0 88 -39.5t37 -107.5q0 -92 -66.5 -185.5t-193.5 -138.5z" glyph-name="quotedblbase" horiz-adv-x="792" unicode="„"/><glyph d="M516 -2l-74 684l66 121v115q-59 -2 -139 -47.5t-115 -45.5q-31 0 -60.5 32t-29.5 75q0 41 29.5 72.5t60.5 31.5q33 0 112.5 -44t141.5 -44q2 51 -41 131t-43 117t30.5 67.5t67.5 30.5t68 -30.5t31 -67.5t-42 -117t-40 -131q61 0 140 44t111.5 44t62.5 -31.5t30 -72.5 q0 -43 -30 -75t-62.5 -32t-111.5 45t-140 48v-115l65 -121l-74 -684h-14z" glyph-name="dagger" horiz-adv-x="1046" unicode="†"/><glyph d="M522 10q-37 0 -67.5 31t-30.5 67.5t43 116.5t41 131q-61 0 -141 -45t-113 -45q-31 0 -60.5 32t-29.5 75t29.5 74.5t60.5 31.5q35 0 115 -45t139 -47v115l-66 160l66 141v115q-59 -2 -139 -47.5t-115 -45.5q-31 0 -60.5 32t-29.5 75q0 41 29.5 72.5t60.5 31.5 q33 0 112.5 -44t141.5 -44q2 51 -41 131t-43 117t30.5 67.5t67.5 30.5t68 -30.5t31 -67.5t-42 -117t-40 -131q61 0 140 44t111.5 44t62.5 -31.5t30 -72.5q0 -43 -30 -75t-62.5 -32t-111.5 45t-140 48v-115l65 -141l-65 -160v-115q61 2 140 47t111.5 45t62.5 -31.5t30 -74.5 t-30 -75t-62.5 -32t-111.5 45t-140 45q-2 -51 40 -131t42 -116.5t-31 -67.5t-68 -31z" glyph-name="daggerdbl" horiz-adv-x="1095" unicode="‡"/><glyph d="M268.5 418q-59.5 0 -102.5 43t-43 102.5t43 102.5t102.5 43t102.5 -43t43 -102.5t-43 -102.5t-102.5 -43z" glyph-name="bullet" horiz-adv-x="536" unicode="•"/><glyph d="M207 -20q-43 0 -74 28.5t-31 71.5t31 71.5t74 28.5t74.5 -28.5t31.5 -71.5t-31.5 -71.5t-74.5 -28.5zM565 -20q-43 0 -73.5 28.5t-30.5 71.5t30.5 71.5t73.5 28.5t75 -28.5t32 -71.5t-32 -71.5t-75 -28.5zM926 -20q-43 0 -74 28.5t-31 71.5t31 71.5t74 28.5t74.5 -28.5 t31.5 -71.5t-31.5 -71.5t-74.5 -28.5z" glyph-name="ellipsis" horiz-adv-x="1134" unicode="…"/><glyph d="M1090 1290h114l-915 -1290h-99l820 1145q-86 -49 -187.5 -45t-201.5 57q14 -41 14 -96q0 -156 -95.5 -281t-230.5 -125q-94 0 -150.5 66.5t-56.5 175.5q0 152 100.5 273.5t235.5 121.5q61 0 103 -26v2q63 -35 108 -56.5t101.5 -43t100.5 -22.5t88 8t82 44t69 92zM346 711 q94 0 166 111.5t72 240.5q0 86 -35 133t-96 47q-66 0 -117 -61.5t-73.5 -142.5t-22.5 -160q0 -168 106 -168zM1071 633q92 0 144.5 -62.5t52.5 -169.5q0 -156 -95.5 -280.5t-228.5 -124.5q-94 0 -151.5 66.5t-57.5 175.5q0 152 100.5 273.5t235.5 121.5zM1661 633 q92 0 143 -62.5t51 -169.5q0 -156 -95 -280.5t-228 -124.5q-94 0 -151.5 66.5t-57.5 175.5q0 152 100.5 273.5t237.5 121.5zM979 51q96 0 167 110.5t71 241.5q0 86 -35 133.5t-95 47.5q-98 0 -156.5 -118t-58.5 -247q1 -168 107 -168zM1567 51q96 0 166.5 110.5t70.5 241.5 q0 86 -34.5 133.5t-94.5 47.5q-98 0 -156.5 -118t-58.5 -247q1 -168 107 -168z" glyph-name="perthousand" horiz-adv-x="1957" unicode="‰"/><glyph d="M102 469l318 274l14 -24l-201 -250l201 -252l-16 -24z" glyph-name="guilsinglleft" horiz-adv-x="536" unicode="‹"/><glyph d="M410 469l-316 -276l-16 24l201 252l-201 250l14 24z" glyph-name="guilsinglright" horiz-adv-x="536" unicode="›"/><glyph d="M-358 -10l884 1313h58l-885 -1313h-57z" glyph-name="fraction" horiz-adv-x="225" unicode="⁄"/><glyph d="M1397 176l35 -35q-66 -72 -185 -119t-264 -47q-258 0 -441.5 148.5t-226.5 394.5h-213l11 51h194q-4 57 -4 86t4 82h-160l11 51h157q43 238 225.5 386.5t460.5 148.5q240 0 398 -94q8 -186 14 -277h-61q-35 156 -139.5 232t-251.5 76q-195 0 -323 -121t-149 -351h478 l-11 -51h-471v-35q0 -61 11 -133h426l-11 -51h-405q51 -209 203.5 -332t347.5 -123q90 0 187.5 27t152.5 86z" glyph-name="Euro" horiz-adv-x="1531" unicode="€"/><glyph d="M1339 1255q-104 -20 -131 -41q-39 -33 -39 -120v-897q0 -47 7.5 -76t36 -46.5t42 -21.5t68.5 -14q10 -2 16 -4v-35h-1278v35q104 20 132 41q39 33 38 121v897q0 47 -7 75.5t-35.5 46t-42 21.5t-68.5 14q-10 2 -17 4v35h1278v-35zM846 1255q-55 -10 -73.5 -15t-47.5 -21.5 t-38 -46t-9 -78.5v-416h334v416q0 39 -9.5 66.5t-17.5 42t-37.5 26.5t-43 15t-58.5 11zM389 678h129v416q0 106 -65 135q-63 -29 -64 -135v-416zM453 61q66 29 65 136v421h-129v-421q1 -107 64 -136zM846 35q45 8 58.5 11t43 15.5t37.5 26.5t17.5 42t9.5 67v421h-334v-421 q0 -49 9 -79t38 -46.5t47.5 -21.5t73.5 -15z" glyph-name="uni210D" horiz-adv-x="1400" unicode="ℍ"/><glyph d="M195 612v35q86 8 102 25q18 16 18 65v512h-82q-74 0 -106.5 -36.5t-40.5 -114.5h-25l7 192h587l11 -192h-21q-16 82 -47 116.5t-106 34.5h-84l2 -512q0 -55 20.5 -68.5t87.5 -19.5q10 -2 14 -2v-35h-337zM733 612v35q68 8 82 25q16 18 16 65v434q0 33 -12 50.5 t-27.5 23.5t-48.5 12l-12 3v30h182l242 -553l215 553h197v-30q-70 -14 -84 -31q-14 -18 -15 -58l7 -434q0 -31 4 -48t20.5 -25.5t23.5 -10.5t42 -6v-35h-285v35q66 8 80 25q16 18 16 65l2 449l-231 -574h-39l-234 529l-6 -404q0 -12 2 -22t3 -18.5t6.5 -14.5t7.5 -10 t11 -8.5t12 -5.5t15.5 -4t15.5 -3t18.5 -2t19.5 -2v-35h-246z" glyph-name="trademark" horiz-adv-x="1626" unicode="™"/><glyph d="M348 836v-21h-256v21q45 4 61.5 12t16.5 33v338q0 23 -8 29.5t-25 2.5l-41 -10v23l158 67l16 -12v-438q0 -25 16.5 -33t61.5 -12zM967 1303h57l-885 -1313h-57zM1065 270q111 -47 111 -137q0 -68 -58.5 -110.5t-150.5 -42.5q-86 0 -142.5 38.5t-56.5 104.5q0 84 90 129 q-57 45 -57 110q0 57 48 97.5t124 40.5q72 0 116 -37t44 -86q0 -60 -68 -107zM973 465q-45 0 -66.5 -21.5t-21.5 -52.5q0 -57 88 -88l53 -18q43 35 43 90q0 37 -23.5 63.5t-72.5 26.5zM973 14q106 0 106 88q0 35 -20.5 53.5t-79.5 41.5l-55 20q-20 6 -31 14 q-59 -39 -59 -102q0 -51 36.5 -83t102.5 -32z" glyph-name="oneeighth" horiz-adv-x="1277" unicode="⅛"/><glyph d="M461 963q0 -76 -69.5 -126.5t-168.5 -50.5q-55 0 -98 15.5t-43 46.5t35 31q18 0 52 -32t69 -32q47 0 85.5 34t38.5 91q0 55 -36.5 83t-92.5 28q-35 0 -73 -15l-10 25l63 24q66 25 93.5 46.5t27.5 58.5q0 66 -84 65.5t-131 -55.5l-21 17q66 96 189 96q59 0 97 -29t38 -76 q0 -68 -115 -118q63 -4 108.5 -35t45.5 -92zM1145 1303h57l-885 -1313h-57zM1346 270q111 -47 110 -137q0 -68 -58.5 -110.5t-150.5 -42.5q-86 0 -142 38.5t-56 104.5q0 84 90 129q-57 45 -58 110q0 57 48.5 97.5t123.5 40.5q72 0 116 -37t44 -86q1 -60 -67 -107zM1253 465 q-45 0 -66.5 -21.5t-21.5 -52.5q0 -57 88 -88l54 -18q43 35 43 90q0 37 -24 63.5t-73 26.5zM1253 14q106 0 107 88q0 35 -20.5 53.5t-79.5 41.5l-56 20q-20 6 -30 14q-59 -39 -60 -102q0 -51 36.5 -83t102.5 -32z" glyph-name="threeeighths" horiz-adv-x="1538" unicode="⅜"/><glyph d="M463 985q0 -80 -69.5 -133t-170.5 -53q-51 0 -96 15t-45 46t35 31q18 0 53 -32t72 -32q47 0 83.5 34t36.5 89q0 129 -231 115l-14 16l80 230h137q80 0 98 24h19l-35 -100h-209l-35 -102q168 10 229.5 -37.5t61.5 -110.5zM1102 1303h57l-885 -1313h-57zM1303 270 q111 -47 110 -137q0 -68 -58.5 -110.5t-150.5 -42.5q-86 0 -142 38.5t-56 104.5q0 84 90 129q-57 45 -58 110q0 57 48.5 97.5t123.5 40.5q72 0 116 -37t44 -86q1 -60 -67 -107zM1210 465q-45 0 -66.5 -21.5t-21.5 -52.5q0 -57 88 -88l54 -18q43 35 43 90q0 37 -24 63.5 t-73 26.5zM1210 14q106 0 107 88q0 35 -20.5 53.5t-79.5 41.5l-56 20q-20 6 -31 14q-59 -39 -59 -102q0 -51 36.5 -83t102.5 -32z" glyph-name="fiveeighths" horiz-adv-x="1495" unicode="⅝"/><glyph d="M223 815h-67q59 195 215 436h-170q-29 0 -42.5 -3t-29.5 -16t-29 -40h-18l43 135l37 -8h272l10 -12q-164 -250 -221 -492zM1051 1303h57l-885 -1313h-57zM1251 270q111 -47 111 -137q0 -68 -58.5 -110.5t-150.5 -42.5q-86 0 -142.5 38.5t-56.5 104.5q0 84 90 129 q-57 45 -57 110q0 57 48 97.5t124 40.5q72 0 116 -37t44 -86q0 -60 -68 -107zM1159 465q-45 0 -66.5 -21.5t-21.5 -52.5q0 -57 88 -88l53 -18q43 35 43 90q0 37 -23.5 63.5t-72.5 26.5zM1159 14q106 0 107 88q0 35 -20.5 53.5t-80.5 41.5l-55 20q-20 6 -31 14 q-59 -39 -59 -102q0 -51 36.5 -83t102.5 -32z" glyph-name="seveneighths" horiz-adv-x="1413" unicode="⅞"/><glyph d="M561 -25q-203 0 -333 130.5t-130 320.5q0 229 191.5 335.5t449.5 4.5v-41q-240 47 -355.5 -49t-115.5 -268q0 -158 83 -266.5t214 -108.5q139 0 222 128t83 331q0 174 -53 320t-140 238.5t-189.5 146.5t-206.5 65l26 43q281 -16 504 -243.5t225 -535.5q2 -231 -125 -391 t-350 -160z" glyph-name="partialdiff" unicode="∂"/><glyph d="M895 762q119 -131 119 -311q0 -195 -136.5 -332t-330.5 -137q-180 0 -309 116l-111 -112l-37 37l111 112q-121 131 -121 316q0 193 136 330t331 137q180 0 313 -121l113 114l37 -32zM129 451q0 -162 109 -281l585 590q-119 106 -276 106q-172 0 -295 -121.5t-123 -293.5z M547 33q172 0 294 121.5t122 296.5q0 158 -105 274l-584 -592q117 -100 273 -100z" glyph-name="emptyset" horiz-adv-x="1095" unicode="∅"/><glyph d="M1094 1638v-2048h-72v1977h-807v-1977h-72v2048h951z" glyph-name="product" horiz-adv-x="1236" unicode="∏"/><glyph d="M1024 1638v-71h-797l625 -955l-625 -950h797v-72h-881v72l594 952l-594 953v71h881z" glyph-name="summation" horiz-adv-x="1167" unicode="∑"/><glyph d="M143 479v72h758v-72h-758z" glyph-name="minus" horiz-adv-x="1044" unicode="−"/><glyph d="M578 -381l-320 666q-37 82 -69.5 113.5t-106.5 60.5v55h186l330 -651l596 1777h199v-45q-88 -27 -115 -51t-53 -102z" glyph-name="radical" horiz-adv-x="1413" unicode="√"/><glyph d="M406 170q-137 0 -230.5 100.5t-93.5 284.5q0 180 87 278.5t210 98.5q168 0 295 -193q104 190 297 191q137 0 231 -100.5t94 -284.5q0 -180 -88 -278.5t-211 -98.5q-168 0 -295 194q-106 -192 -296 -192zM360 317q70 0 131.5 48.5t96.5 146.5l51 152q-96 137 -252 137 q-96 0 -170 -54.5t-74 -187.5q0 -127 64.5 -184.5t152.5 -57.5zM989 299q96 0 170 54.5t74 187.5q0 127 -64.5 184t-152.5 57q-158 0 -228 -192l-51 -154q96 -137 252 -137z" glyph-name="infinity" horiz-adv-x="1378" unicode="∞"/><glyph d="M219 -358q-133 0 -168 86q20 90 99 118q16 -53 55 -87.5t96 -34.5q76 0 141.5 69.5t87.5 243.5l101 844q31 258 154.5 390t314.5 132q133 0 168 -86q-20 -90 -99 -119q-16 53 -55 88t-96 35q-78 0 -143.5 -69.5t-86.5 -243.5l-106 -863q-31 -256 -152 -379.5t-311 -123.5 z" glyph-name="integral" horiz-adv-x="1318" unicode="∫"/><glyph d="M637 584q-82 0 -142.5 34.5t-109.5 69.5t-102 35q-72 0 -106 -26.5t-34 -61.5h-41q-23 78 43 136t177 58q80 0 138 -35.5t108 -70.5t110 -35q68 0 101.5 26.5t33.5 63.5h39q23 -78 -43 -136t-172 -58zM637 236q-82 0 -142.5 34.5t-109.5 69.5t-102 35q-72 0 -106 -26.5 t-34 -61.5h-41q-23 78 43 136t177 58q80 0 138 -35.5t108 -70.5t110 -35q68 0 101.5 26.5t33.5 63.5h39q23 -78 -43 -136t-172 -58z" glyph-name="approxequal" horiz-adv-x="1075" unicode="≈"/><glyph d="M901 664h-274l-123 -297h397v-72h-428l-123 -295h-80l123 295h-250v72h281l123 297h-404v71h435l116 281h80l-117 -281h244v-71z" glyph-name="notequal" horiz-adv-x="1044" unicode="≠"/><glyph d="M889 295q-401 219 -746 350v72q344 131 746 350v-78q-49 -29 -111.5 -60.5t-111 -55t-124 -56.5t-110.5 -48t-114.5 -48t-96.5 -39q8 -4 142.5 -60.5t190.5 -81t158.5 -74.5t176.5 -93v-78zM889 27h-758v71h758v-71z" glyph-name="lessequal" horiz-adv-x="1032" unicode="≤"/><glyph d="M143 295v78q74 43 176.5 93t159 74.5t190.5 81t142 60.5q-16 6 -96 39t-115 48t-110.5 48t-124 56.5t-110.5 55.5t-112 60v78q401 -219 746 -350v-72q-345 -131 -746 -350zM143 27v71h758v-71h-758z" glyph-name="greaterequal" horiz-adv-x="1032" unicode="≥"/><glyph d="M618 -37l-516 672l516 674l515 -674zM618 82l424 553l-424 555l-425 -555z" glyph-name="lozenge" horiz-adv-x="1234" unicode="◊"/><glyph d="M1575 1255q-104 -20 -129 -41q-39 -33 -39 -120v-897q0 -47 10 -77t29.5 -44.5t48.5 -23.5t64 -15q10 0 16 -2v-35h-498v35q106 20 133 41q39 33 39 121l-2 913l-436 -1110h-61l-445 1030v-833q0 -47 8.5 -76t39 -46.5t45 -21.5t73.5 -14q12 -2 18 -4v-35h-428v35 q106 20 134 41q39 33 38 121v897q0 47 -8 75.5t-35.5 46t-43 21.5t-66.5 14q-12 2 -19 4v35h306q4 -27 63 -157l395 -914l353 914q51 135 55 157h342v-35z" glyph-name="M.aalt" horiz-adv-x="1636"/><glyph d="M1511 1290h375v-35q-102 -20 -123 -34q-29 -20 -51 -78l-473 -1157h-74l-215 510l-209 -510h-69l-486 1151q-29 68 -55.5 85t-110.5 33v35h1369v-35q-102 -20 -123 -34q-29 -20 -52 -78l-176 -434l213 -521l385 953q8 18 10.5 33.5t-5 25.5t-11.5 17.5t-22.5 13.5 t-26.5 8t-34.5 8t-35.5 8v35zM756 193l157 391l-233 553q-31 74 -62.5 95t-117.5 21q-84 0 -123 -25.5t-8 -90.5zM1001 1253q-90 0 -128.5 -25.5t-10.5 -90.5l139 -338l138 342q27 63 -13.5 87.5t-124.5 24.5z" glyph-name="W.aalt" horiz-adv-x="1906"/><glyph d="M256 1174q-35 0 -62.5 25.5t-27.5 60.5q0 37 27.5 63.5t62.5 26.5q37 0 64.5 -27t27.5 -63q0 -35 -27.5 -60.5t-64.5 -25.5zM61 0v35q43 8 54.5 10t38 13.5t35 31t8.5 51.5v514q0 61 -26 90t-110 39v31q57 10 88 24.5t72 46.5t66 48l43 -39v-754q0 -33 8 -52t34.5 -30.5 t38 -13.5t54.5 -10v-35h-404z" glyph-name="i.aalt" horiz-adv-x="526"/><glyph d="M2105 141q0 -33 8.5 -52t35 -30.5t38 -13.5t54.5 -10v-35h-406v35q43 6 56.5 9t39 14.5t33.5 31t8 51.5v465q0 90 -45 146.5t-141 56.5q-166 0 -289 -150v-518q0 -27 9.5 -45t15.5 -27.5t33.5 -17.5t34.5 -9t46 -7v-35h-422v35q4 0 25 4t28 5t24.5 6t24.5 9t18.5 12.5 t16.5 17.5t9 22.5t4 29.5v817q0 150 -57.5 214.5t-241.5 64.5h-297v-1040q0 -29 5 -51.5t9 -37t23.5 -26.5t27 -18.5t40 -12.5t44 -8t58.5 -8v-35h-572v35q47 6 58.5 8t44.5 8t40 12.5t26.5 18.5t23.5 26.5t9 37t5 51.5v1040h-211q-160 0 -221 -64.5t-84 -214.5h-33l17 353 l94 -21h1042q143 31 242 117l41 -39v-645h4q63 88 156.5 142.5t202.5 54.5q135 0 190 -82t55 -234v-463z" glyph-name="T_h.dlig" horiz-adv-x="2291"/><glyph d="M1325 920q147 0 250.5 -117t103.5 -311q0 -227 -141 -368.5t-346 -141.5q-152 0 -257.5 96t-105.5 248v823q0 78 -61 124t-180 46q-117 0 -179.5 -65.5t-62.5 -249.5v-123l254 18q-10 -33 -10 -82h-244v-676q0 -39 27.5 -61.5t55.5 -27.5t95 -13q20 -2 31 -4v-35h-504v35 q6 0 29.5 4t30 6t25 6t24.5 8t17 12.5t15.5 17.5t8.5 22.5t4 29.5v676h-154v39l154 31v4q0 254 125 381t338 127q129 0 301 -58v-622q51 84 147 142.5t209 58.5zM1206 43q125 0 232.5 91t107.5 276q0 172 -94 282.5t-227 110.5q-90 0 -157 -43t-99 -105v-354 q0 -109 58 -183.5t179 -74.5z" glyph-name="f_b.dlig" horiz-adv-x="1761"/><glyph d="M1544 141q0 -27 8.5 -45t16.5 -27.5t34.5 -17.5t38 -9t50.5 -7v-35h-418v35q43 6 55 9t39 14.5t35 31t8 51.5v465q0 90 -38 138.5t-134 48.5q-135 0 -276 -129v-523q0 -16 4 -29.5t9 -22.5t16.5 -17.5t18.5 -12.5t24.5 -9t24.5 -6t27.5 -5t24.5 -4v-35h-432v35 q4 0 24.5 4t27.5 5t24.5 6t24.5 9t18.5 12.5t16.5 17.5t9 22.5t4 29.5v1008q0 78 -63.5 124t-177.5 46q-117 0 -179.5 -65.5t-62.5 -249.5v-123l254 18q-10 -33 -10 -82h-244v-676q0 -39 27.5 -61.5t55.5 -27.5t95 -13q20 -2 31 -4v-35h-504v35q6 0 29.5 4t30 6t25 6t24.5 8 t17 12.5t15.5 17.5t8.5 22.5t4 29.5v676h-154v39l154 31v4q0 254 125 381t338 127q131 0 295 -58v-614h2q63 63 103 98t105.5 65t137.5 30q131 0 182 -84t51 -232v-463z" glyph-name="f_h.dlig" horiz-adv-x="1742"/><glyph d="M995 1286v-6q0 -35 -27.5 -60.5t-64.5 -25.5q-35 0 -61.5 24.5t-28.5 59.5q0 76 -84 76q-164 0 -273.5 -121t-109.5 -342v-10l213 18q-10 -33 -10 -82h-203v-676q0 -39 27.5 -61.5t55.5 -27.5t95 -13q20 -2 31 -4v-35h-504v35q6 0 29.5 4t30 6t25 6t24.5 8t17 12.5 t15.5 17.5t8.5 22.5t4 29.5v676h-154v39l154 31q6 231 152.5 376.5t379.5 145.5q258 0 258 -123zM715 815q57 10 88 24.5t71.5 46.5t65.5 48l43 -39v-930q0 -303 -309 -344q-8 8 -8 22.5t8 20.5q96 35 136 96.5t40 200.5v694q0 61 -25.5 90t-109.5 39v31z" glyph-name="f_j.dlig"/><glyph d="M1505 109q27 -37 56.5 -50.5t95.5 -21.5v-37h-266q0 35 -37 98l-273 391l-118 -116v-232q0 -16 4 -29.5t9 -22.5t16.5 -17.5t18.5 -12.5t24.5 -9t24.5 -6t27.5 -5t24.5 -4v-35h-432v35q4 0 24.5 4t27.5 5t24.5 6t24.5 9t18.5 12.5t16.5 17.5t9 22.5t4 29.5v1008 q0 78 -63.5 124t-177.5 46q-117 0 -179.5 -65.5t-62.5 -249.5v-123l254 18q-10 -33 -10 -82h-244v-676q0 -39 27.5 -61.5t55.5 -27.5t95 -13q20 -2 31 -4v-35h-504v35q6 0 29.5 4t30 6t25 6t24.5 8t17 12.5t15.5 17.5t8.5 22.5t4 29.5v676h-154v39l154 31v4q0 254 125 381 t338 127q131 0 295 -58v-876l297 289q47 45 28.5 73.5t-96.5 36.5v37h387v-37q-135 -12 -215 -98l-195 -191z" glyph-name="f_k.dlig" horiz-adv-x="1665"/><glyph d="M952 221q0 -51 28 -77.5t71 -27.5t85 7t81 24v-41q-74 -45 -259 -126q-51 0 -95 53t-44 117v681h-491v-610q0 -51 27.5 -77.5t69.5 -26.5t86 14t81 37v-41q-72 -63 -258 -147q-51 0 -95 53t-44 117v681h-144v48q162 72 232 204h45v-202l348 -2l16 -2q137 63 215 206h45 v-194l250 31q-10 -31 -10 -89h-240v-610z" glyph-name="t_t.dlig" horiz-adv-x="1267"/><glyph d="M614 -18q-240 0 -376 187t-136 468q0 283 138.5 475.5t382.5 192.5q240 0 375 -187.5t135 -470t-137.5 -474t-381.5 -191.5zM649 45q139 0 224 145.5t85 395.5q0 285 -104 470t-266 185q-139 0 -225.5 -146.5t-86.5 -396.5q0 -285 105.5 -469t267.5 -184z" glyph-name="zero.lnum" horiz-adv-x="1234"/><glyph d="M92 0v35q131 14 162 37q33 23 33 69v971q0 47 -16.5 61.5t-67.5 0.5l-103 -27v35l289 141l41 -33v-1149q0 -41 26.5 -63.5t55.5 -27.5t96 -13q10 -2 17 -2v-35h-533z" glyph-name="one.lnum" horiz-adv-x="716"/><glyph d="M98 0l-16 37q45 41 155.5 135t157.5 136t131 121t123 128t86 115.5t65.5 125t18.5 117.5q0 111 -72.5 192t-209.5 81q-57 0 -116 -14.5t-130.5 -69.5t-112.5 -148l-53 27q51 156 185 239t284 83q178 0 290.5 -105.5t112.5 -269.5q0 -98 -46 -190.5t-133 -177.5 t-173 -154.5t-204.5 -160.5t-190.5 -157h428q123 0 189.5 43t127.5 166h43l-98 -332h-43l-4 33h-795z" glyph-name="two.lnum" horiz-adv-x="1120"/><glyph d="M383 -25q-55 0 -104.5 6.5t-98.5 20.5t-78.5 42t-29.5 69q0 68 80 67q33 0 65.5 -23.5t56 -53t67.5 -53t97 -23.5q125 0 247 100t122 246q0 133 -100.5 200.5t-235.5 67.5q-98 0 -211 -39l-18 47l161 70q170 72 246 130t76 148q0 78 -57.5 132.5t-167.5 54.5 q-86 0 -186.5 -35t-168.5 -115l-34 27q80 119 203.5 181.5t260.5 62.5q147 0 231.5 -72t80.5 -189q-6 -172 -258 -301q147 -10 248.5 -86.5t101.5 -226.5q0 -199 -169 -327t-427 -128z" glyph-name="three.lnum" horiz-adv-x="1060"/><glyph d="M932 348h-174v-207q0 -57 38 -75.5t117 -28.5q12 -2 19 -2v-35h-492v35q115 16 144 37q31 23 30 69v207h-528l-25 33l672 930h25v-889h194zM150 422h464v643z" glyph-name="four.lnum" horiz-adv-x="1034"/><glyph d="M223 807q225 55 377 2t229.5 -159.5t77.5 -233.5q0 -178 -150.5 -309.5t-367.5 -131.5q-111 0 -209 33t-98 105q0 68 80 67q33 0 66.5 -23.5t59 -53t66.5 -53t88 -23.5q102 0 192.5 91t90.5 228q0 117 -63.5 213t-183.5 141t-292 -2l-41 39l199 553h350q68 0 97.5 2 t60.5 14.5t51 41.5h33l-57 -199h-525z" glyph-name="five.lnum" horiz-adv-x="1017"/><glyph d="M578 -25q-223 0 -350.5 160t-125.5 391q2 307 225.5 534.5t503.5 244.5l27 -43q-104 -10 -206.5 -64.5t-189.5 -147t-140.5 -238.5t-53.5 -320q0 -203 83 -331t222 -128q131 0 214 108.5t83 266.5q0 172 -115.5 268t-355.5 49v41q258 102 449.5 -4.5t191.5 -335.5 q0 -190 -129.5 -320.5t-332.5 -130.5z" glyph-name="six.lnum" horiz-adv-x="1122"/><glyph d="M934 1290l22 -30q-399 -633 -544 -1260h-148q178 569 541 1149h-449q-53 0 -75.5 -2t-56.5 -15.5t-58.5 -44t-50.5 -83.5h-33l98 321h33l4 -35h717z" glyph-name="seven.lnum" horiz-adv-x="1007"/><glyph d="M729 698q119 -43 199 -131t80 -213q0 -160 -128 -273.5t-329 -113.5q-199 0 -324 103.5t-125 261.5q0 109 67 201t187 151q-172 102 -172 283q0 135 97.5 229t269.5 94q168 0 263 -88t95 -209q0 -166 -180 -295zM555 1235q-115 0 -167 -67.5t-52 -157.5q0 -72 40 -138.5 t122 -93.5l149 -51q133 104 133 258q0 94 -52 172t-173 78zM573 27q141 0 210 75.5t69 198.5t-62.5 183.5t-205.5 109.5l-133 47q-16 6 -21 8q-186 -106 -186 -309q0 -135 84.5 -224t244.5 -89z" glyph-name="eight.lnum" horiz-adv-x="1110"/><glyph d="M545 1305q223 0 350 -160t125 -391q-2 -307 -225.5 -534.5t-503.5 -244.5l-27 43q104 10 206.5 64.5t190 147t140.5 238.5t53 320q0 203 -83 331t-222 128q-131 0 -214 -108.5t-83 -266.5q0 -172 115.5 -268t355.5 -49v-41q-258 -102 -449.5 4.5t-191.5 335.5 q0 190 130 320.5t333 130.5z" glyph-name="nine.lnum" horiz-adv-x="1122"/><glyph d="M610 -18q-240 0 -376 187t-136 468q0 283 138.5 475.5t381.5 192.5q240 0 375 -187.5t135 -470t-137 -474t-381 -191.5zM645 45q139 0 224 145.5t85 395.5q0 285 -104.5 470t-265.5 185q-139 0 -225.5 -146.5t-86.5 -396.5q0 -285 105.5 -469t267.5 -184z" glyph-name="zero.tnum" horiz-adv-x="1228"/><glyph d="M309 0v35q164 12 200 34.5t36 71.5v971q0 47 -17.5 61.5t-66.5 0.5l-144 -27v35l330 141l41 -33v-1149q0 -59 49 -77.5t174 -28.5h13v-35h-615z" glyph-name="one.tnum" horiz-adv-x="1228"/><glyph d="M137 0l-16 37q45 41 155.5 135t157.5 136t131 121t123 128t86 115.5t65.5 125t18.5 117.5q0 111 -72.5 192t-210.5 81q-57 0 -115.5 -14.5t-130 -69.5t-112.5 -148l-53 27q51 156 185 239t284 83q178 0 290.5 -105.5t112.5 -269.5q0 -98 -46 -190.5t-133 -177.5 t-173 -154.5t-205 -160.5t-190 -157h428q123 0 189.5 43t127.5 166h43l-98 -332h-43l-4 33h-795z" glyph-name="two.tnum" horiz-adv-x="1228"/><glyph d="M481 -25q-55 0 -104 6.5t-98.5 20.5t-79 42t-29.5 69q0 68 80 67q33 0 65.5 -23.5t56 -53t67.5 -53t98 -23.5q125 0 246.5 100t121.5 246q0 133 -100 200.5t-236 67.5q-98 0 -211 -39l-18 47l162 70q170 72 245.5 130t75.5 148q0 78 -57 132.5t-168 54.5 q-86 0 -186.5 -35t-167.5 -115l-35 27q80 119 204 181.5t261 62.5q147 0 231 -72t80 -189q-6 -172 -258 -301q147 -10 248.5 -86.5t101.5 -226.5q0 -199 -169 -327t-427 -128z" glyph-name="three.tnum" horiz-adv-x="1228"/><glyph d="M1010 348h-174v-207q0 -57 37.5 -75.5t117.5 -28.5q12 -2 19 -2v-35h-492v35q115 16 144 37q31 23 30 69v207h-528l-25 33l672 930h25v-889h194zM227 422h465v643z" glyph-name="four.tnum" horiz-adv-x="1228"/><glyph d="M272 807q225 55 377 2t229.5 -159.5t77.5 -233.5q0 -178 -150.5 -309.5t-367.5 -131.5q-111 0 -209 33t-98 105q0 68 80 67q33 0 66.5 -23.5t59 -53t66.5 -53t89 -23.5q102 0 192 91t90 228q0 117 -63.5 213t-183 141t-291.5 -2l-41 39l198 553h350q68 0 97.5 2 t60.5 14.5t51 41.5h33l-57 -199h-525z" glyph-name="five.tnum" horiz-adv-x="1228"/><glyph d="M623 -25q-223 0 -350.5 160t-125.5 391q2 307 225.5 534.5t504.5 244.5l26 -43q-104 -10 -206.5 -64.5t-189.5 -147t-140.5 -238.5t-53.5 -320q0 -203 83 -331t222 -128q131 0 214 108.5t83 266.5q0 172 -115.5 268t-355.5 49v41q258 102 449.5 -4.5t191.5 -335.5 q0 -190 -129.5 -320.5t-332.5 -130.5z" glyph-name="six.tnum" horiz-adv-x="1228"/><glyph d="M1036 1290l23 -30q-399 -633 -545 -1260h-147q178 569 540 1149h-448q-53 0 -76 -2t-56.5 -15.5t-58 -44t-51.5 -83.5h-33l99 321h32l4 -35h717z" glyph-name="seven.tnum" horiz-adv-x="1228"/><glyph d="M788 698q119 -43 199 -131t80 -213q0 -160 -128 -273.5t-329 -113.5q-199 0 -323.5 103.5t-124.5 261.5q0 109 66.5 201t187.5 151q-172 102 -172 283q0 135 97 229t269 94q168 0 263.5 -88t95.5 -209q-1 -166 -181 -295zM614 1235q-115 0 -167 -67.5t-52 -157.5 q0 -72 40 -138.5t122 -93.5l150 -51q133 104 133 258q0 94 -52.5 172t-173.5 78zM633 27q141 0 209.5 75.5t68.5 198.5t-62.5 183.5t-205.5 109.5l-133 47q-16 6 -21 8q-186 -106 -186 -309q0 -135 85 -224t245 -89z" glyph-name="eight.tnum" horiz-adv-x="1228"/><glyph d="M629 1305q223 0 350 -160t125 -391q-2 -307 -225.5 -534.5t-503.5 -244.5l-27 43q104 10 206.5 64.5t189.5 147t140.5 238.5t53.5 320q0 203 -83 331t-222 128q-131 0 -214 -108.5t-83 -266.5q0 -172 115.5 -268t355.5 -49v-41q-258 -102 -449.5 4.5t-191.5 335.5 q0 190 130 320.5t333 130.5z" glyph-name="nine.tnum" horiz-adv-x="1228"/><glyph d="M301 -20q-98 0 -158.5 73.5t-60.5 186.5q0 115 61.5 190.5t161.5 75.5q98 0 158.5 -74t60.5 -188.5t-61.5 -189t-161.5 -74.5zM315 12q96 0 97 207q0 115 -32 184.5t-89 69.5q-96 0 -96 -209q0 -113 31.5 -182.5t88.5 -69.5z" glyph-name="zero.dnom" horiz-adv-x="606"/><glyph d="M92 0v20q45 4 61.5 12.5t16.5 33.5v337q0 23 -8 30t-25 3l-41 -10v23l158 67l16 -12v-438q0 -25 16.5 -33t61.5 -13v-20h-256z" glyph-name="one.dnom" horiz-adv-x="440"/><glyph d="M88 0l-6 23q10 8 41 34.5t43 36.5t38.5 35t40 39t34 36.5t30.5 39t21.5 36t16.5 38t5 36.5q0 41 -24.5 70t-71.5 29q-84 0 -135 -86l-23 14q25 63 79 99t120 36q72 0 119 -41t47 -102q0 -47 -35 -98.5t-72 -82t-93 -72.5t-66 -50h135q55 0 82.5 13t46.5 60h26l-38 -143 h-361z" glyph-name="two.dnom" horiz-adv-x="569"/><glyph d="M223 -20q-55 0 -98 15t-43 46t35 31q18 0 52 -32t69 -32q47 0 85.5 34t38.5 91q0 55 -36.5 83t-92.5 28q-35 0 -73 -15l-10 25l63 25q66 25 93.5 46t27.5 58q0 66 -84 66t-131 -56l-21 17q66 96 189 96q59 0 97 -28.5t38 -76.5q0 -68 -115 -118q63 -4 108.5 -35t45.5 -92 q0 -76 -70 -126t-168 -50z" glyph-name="three.dnom" horiz-adv-x="542"/><glyph d="M393 66q0 -25 15.5 -33t60.5 -13v-20h-254v20q45 4 60.5 12.5t15.5 33.5v69h-221l-9 41l238 328h94v-328h76l-8 -41h-68v-69zM102 176h189v260z" glyph-name="four.dnom" horiz-adv-x="550"/><glyph d="M172 313q168 10 229.5 -37t61.5 -110q0 -80 -69.5 -133t-170.5 -53q-51 0 -96 15t-45 46t35 31q18 0 53 -32t72 -32q47 0 83.5 34t36.5 89q0 129 -231 115l-14 16l80 230h137q80 0 98 24h19l-35 -100h-209z" glyph-name="five.dnom" horiz-adv-x="544"/><glyph d="M311 -20q-96 0 -153.5 61t-55.5 156q2 127 99.5 215t214.5 94l14 -27q-90 -8 -156.5 -85t-66.5 -210q0 -78 28.5 -126t79.5 -48q49 0 75 40t26 102q0 150 -156 139v26q94 29 177 -15t83 -138q0 -80 -59.5 -132t-149.5 -52z" glyph-name="six.dnom" horiz-adv-x="602"/><glyph d="M434 504l10 -12q-164 -250 -221 -492h-67q59 195 215 436h-170q-29 0 -42.5 -3t-29.5 -16.5t-29 -39.5h-18l43 135l37 -8h272z" glyph-name="seven.dnom" horiz-adv-x="495"/><glyph d="M399 270q111 -47 111 -137q0 -68 -58.5 -110.5t-150.5 -42.5q-86 0 -142.5 38.5t-56.5 104.5q0 84 91 129q-57 45 -58 110q0 57 48 97.5t124 40.5q72 0 116 -37t44 -86q0 -60 -68 -107zM307 465q-45 0 -66.5 -21.5t-21.5 -52.5q0 -57 88 -88l53 -18q43 35 43 90 q0 37 -23.5 63.5t-72.5 26.5zM307 14q106 0 107 88q0 35 -20.5 53.5t-80.5 41.5l-55 20q-20 6 -31 14q-59 -39 -59 -102q0 -51 36.5 -83t102.5 -32z" glyph-name="eight.dnom" horiz-adv-x="612"/><glyph d="M291 498q96 0 153.5 -61.5t55.5 -155.5q-2 -127 -99.5 -215.5t-214.5 -94.5l-14 27q90 8 156.5 85t66.5 210q0 78 -28.5 126t-79.5 48q-49 0 -75 -40t-26 -101q0 -150 156 -140v-26q-94 -29 -177 15t-83 138q0 80 59.5 132.5t149.5 52.5z" glyph-name="nine.dnom" horiz-adv-x="602"/><glyph d="M301 797q-98 0 -158.5 73.5t-60.5 186.5q0 115 61.5 190.5t161.5 75.5q98 0 158.5 -73.5t60.5 -188.5t-61.5 -189.5t-161.5 -74.5zM315 829q96 0 97 207q0 115 -32 184.5t-89 69.5q-96 0 -96 -209q0 -113 31.5 -182.5t88.5 -69.5z" glyph-name="zero.numr" horiz-adv-x="606"/><glyph d="M92 815v21q45 4 61.5 12t16.5 33v338q0 23 -8 29.5t-25 2.5l-41 -10v23l158 67l16 -12v-438q0 -25 16.5 -33t61.5 -12v-21h-256z" glyph-name="one.numr" horiz-adv-x="440"/><glyph d="M88 805l-6 22q10 8 41 35t43 37t38.5 34.5t40 39t34 37t30.5 39t21.5 36t16.5 38t5 36.5q0 41 -24.5 69.5t-71.5 28.5q-84 0 -135 -86l-23 15q25 63 79 99t120 36q72 0 119 -41t47 -102q0 -47 -35 -98.5t-72 -82t-93 -72.5t-66 -51h135q55 0 82.5 13.5t46.5 60.5h26 l-38 -143h-361z" glyph-name="two.numr" horiz-adv-x="569"/><glyph d="M223 786q-55 0 -98 15.5t-43 46.5t35 31q18 0 52 -32t69 -32q47 0 85.5 34t38.5 91q0 55 -36.5 83t-92.5 28q-35 0 -73 -15l-10 25l63 24q66 25 93.5 46.5t27.5 58.5q0 66 -84 65.5t-131 -55.5l-21 17q66 96 189 96q59 0 97 -29t38 -76q0 -68 -115 -118q63 -4 108.5 -35 t45.5 -92q0 -76 -70 -126.5t-168 -50.5z" glyph-name="three.numr" horiz-adv-x="542"/><glyph d="M393 866q0 -25 15.5 -33t60.5 -12v-20h-254v20q45 4 60.5 12.5t15.5 32.5v70h-221l-9 41l238 328h94v-328h76l-8 -41h-68v-70zM102 977h189v260z" glyph-name="four.numr" horiz-adv-x="550"/><glyph d="M172 1133q168 10 229.5 -37t61.5 -111q0 -80 -69.5 -133t-170.5 -53q-51 0 -96 15t-45 46t35 31q18 0 53 -32t72 -32q47 0 83.5 34t36.5 89q0 129 -231 115l-14 16l80 230h137q80 0 98 24h19l-35 -100h-209z" glyph-name="five.numr" horiz-adv-x="544"/><glyph d="M311 784q-96 0 -153.5 61.5t-55.5 155.5q2 127 99.5 215.5t214.5 94.5l14 -27q-90 -8 -156.5 -85t-66.5 -210q0 -78 28.5 -126t79.5 -48q49 0 75 40t26 101q0 150 -156 140v26q94 29 177 -15t83 -138q0 -80 -59.5 -132.5t-149.5 -52.5z" glyph-name="six.numr" horiz-adv-x="602"/><glyph d="M434 1319l10 -12q-164 -250 -221 -492h-67q59 195 215 436h-170q-29 0 -42.5 -3t-29.5 -16t-29 -40h-18l43 135l37 -8h272z" glyph-name="seven.numr" horiz-adv-x="495"/><glyph d="M399 1085q111 -47 111 -137q0 -68 -58.5 -110.5t-150.5 -42.5q-86 0 -142.5 38.5t-56.5 104.5q0 84 91 129q-57 45 -58 111q0 57 48 97t124 40q72 0 116 -37t44 -86q0 -60 -68 -107zM307 1280q-45 0 -66.5 -21.5t-21.5 -52.5q0 -57 88 -88l53 -18q43 35 43 90 q0 37 -23.5 63.5t-72.5 26.5zM307 829q106 0 107 89q0 35 -20.5 53t-80.5 41l-55 20q-20 6 -31 15q-59 -39 -59 -103q0 -51 36.5 -83t102.5 -32z" glyph-name="eight.numr" horiz-adv-x="612"/><glyph d="M291 1305q96 0 153.5 -61.5t55.5 -156.5q-2 -127 -99.5 -215t-214.5 -94l-14 27q90 8 156.5 85t66.5 210q0 78 -28.5 126t-79.5 48q-49 0 -75 -40t-26 -101q0 -150 156 -140v-26q-94 -29 -177 15t-83 138q0 80 59.5 132.5t149.5 52.5z" glyph-name="nine.numr" horiz-adv-x="602"/></font>
</defs>
</svg>
