<?xml version="1.0" standalone="no"?>
<!DOCTYPE svg PUBLIC "-//W3C//DTD SVG 1.1//EN" "http://www.w3.org/Graphics/SVG/1.1/DTD/svg11.dtd">
<svg xmlns="http://www.w3.org/2000/svg"><metadata>This SVG WebFont was generated by YouWorkForThem.
Copyright Â© 2016 by Connary Fagen. All rights reserved.</metadata><defs><font horiz-adv-x="1228" id="ywftsvg"><font-face ascent="1638" bbox="-358 -653 2322 1841" cap-height="1290" descent="-410" font-family="" font-stretch="normal" font-weight="400" panose-1="0 0 5 0 0 0 0 0 0 0" underline-position="0" underline-thickness="0" unicode-range="U+0020-FB02" units-per-em="2048" x-height="901"/><missing-glyph d="M819 1638v-1996h-633v1996h633zM666 1505h-330v-65h129v-76h-131v-66h332v66h-134v76h134v65zM532 1247h-198v-207h332v68h-134v139zM465 1180v-72h-66v72h66zM666 985h-332v-65h131v-74h-131v-66h198v140h134v65zM666 866h-66v-133h-266v-67h332v200zM666 623h-201v-113 h67v47h68v-94h-201v160h-65v-226h332v226zM666 276h-332v-225h332v225zM600 211v-94h-201v94h201zM666 4h-332v-65h139l-139 -95v-65h332v65h-205l139 95h66v65z" horiz-adv-x="999"/><glyph d="M608 817h-200v-661q0 -31 12 -51.5t45 -32t56.5 -15.5t80.5 -10q10 -2 16 -2v-45h-567v45q59 10 82 15.5t47.5 29t24.5 66.5v661h-154v47l154 31q8 240 176 381t401 141q45 0 89 -5t103.5 -20.5t96.5 -50t37 -88.5v-2q0 -49 -37 -83.5t-86 -34.5t-86 34.5t-37 83.5v4 q0 96 -94 97q-143 0 -251.5 -109.5t-108.5 -324.5v-25l210 20q-10 -41 -10 -96zM1096 156q0 -43 19.5 -66.5t41 -29t74.5 -15.5v-45h-465v45q53 10 74.5 15.5t41 29t19.5 66.5v489q0 61 -25.5 90t-109.5 39v41q164 27 287 119l43 -39v-739z" glyph-name="uniFB01" horiz-adv-x="1292" unicode="fi"/><glyph d="M1063 156q0 -41 20.5 -63.5t45 -30t69.5 -15.5q10 -2 14 -2v-45h-493v45q100 18 125 41t24 70v979q0 80 -62.5 132t-178.5 52q-100 0 -159.5 -61.5t-59.5 -221.5v-143l241 20q-10 -41 -10 -96h-231v-661q0 -31 12 -51.5t45 -32t56.5 -15.5t80.5 -10q10 -2 16 -2v-45h-567 v45q59 10 82 15.5t47.5 29t24.5 66.5v661h-154v47l154 31q2 252 142 382t370 130q195 0 346 -66v-1185z" glyph-name="uniFB02" horiz-adv-x="1273" unicode="fl"/><glyph d="M1352 1430q166 0 215 -111q-2 -47 -40 -84t-93 -47q-53 152 -160 151q-70 0 -120 -61t-50 -219v-148l235 9h7h10q-10 -41 -10 -97h-242v-667q0 -31 12 -51.5t45 -32t56.5 -15.5t80.5 -10q10 -2 17 -2v-45h-567v45q59 10 81.5 15.5t47 29t24.5 66.5v667h-493v-667 q0 -31 12 -51.5t45 -32t56.5 -15.5t80.5 -10q10 -2 16 -2v-45h-567v45q59 10 82 15.5t47.5 29t24.5 66.5v667h-154v47l154 31h2q12 225 133 348t291 123q152 0 200 -110q-2 -47 -37.5 -84t-88.5 -48q-14 61 -56.5 106.5t-93.5 45.5q-55 0 -101 -62.5t-46 -218.5v-110l493 14 v2q0 252 128 387.5t323 135.5z" glyph-name="f_f.liga" horiz-adv-x="1433" unicode="ff"/><glyph d="M1319 823h-205v-667q0 -31 12.5 -51.5t45 -32t56 -15.5t81.5 -10q10 -2 16 -2v-45h-567v45q59 10 81.5 15.5t47 29t24.5 66.5v667h-503v-667q0 -31 12 -51.5t45 -32t56.5 -15.5t80.5 -10q10 -2 16 -2v-45h-567v45q59 10 82 15.5t47.5 29t24.5 66.5v667h-154v47l154 31h2 q12 227 131 349t287 122q152 0 200 -110q-2 -47 -37.5 -84t-89.5 -48q-14 61 -56 106.5t-93 45.5q-55 0 -98 -61.5t-43 -219.5v-110l503 16q14 233 180 371.5t398 138.5q45 0 89 -5t103.5 -20.5t96.5 -50t37 -88.5v-2q0 -49 -37 -83.5t-86.5 -34.5t-86 34.5t-36.5 83.5v4 q0 96 -94 97q-143 0 -252 -109.5t-109 -324.5v-5l215 7q-10 -42 -10 -97zM1802 156q0 -43 19.5 -66.5t41 -29t74.5 -15.5v-45h-464v45q53 10 74.5 15.5t41 29t19.5 66.5v489q0 61 -26 90t-109 39v41q164 27 286 119l43 -39v-739z" glyph-name="f_f_i.liga" horiz-adv-x="1998" unicode="ffi"/><glyph d="M819 1638v-1996h-633v1996h633zM666 1505h-330v-65h129v-76h-131v-66h332v66h-134v76h134v65zM532 1247h-198v-207h332v68h-134v139zM465 1180v-72h-66v72h66zM666 985h-332v-65h131v-74h-131v-66h198v140h134v65zM666 866h-66v-133h-266v-67h332v200zM666 623h-201v-113 h67v47h68v-94h-201v160h-65v-226h332v226zM666 276h-332v-225h332v225zM600 211v-94h-201v94h201zM666 4h-332v-65h139l-139 -95v-65h332v65h-205l139 95h66v65z" glyph-name=".notdef" horiz-adv-x="999"/><glyph glyph-name="glyph1" horiz-adv-x="0"/><glyph glyph-name="glyph2" horiz-adv-x="681"/><glyph glyph-name="space" horiz-adv-x="450" unicode=" "/><glyph d="M207 373l-88 837q-14 127 112.5 127t112.5 -127l-88 -837h-49zM252 -20q-53 0 -91 36.5t-38 89.5q0 51 38 88t91 37t91 -36.5t38 -88.5q0 -53 -38 -89.5t-91 -36.5z" glyph-name="exclam" horiz-adv-x="462" unicode="!"/><glyph d="M152 795l-68 381q-8 49 15.5 81.5t66.5 32.5q47 0 70.5 -32.5t15.5 -81.5l-72 -381h-28zM420 795l-68 381q-8 49 15.5 81.5t66.5 32.5q47 0 70.5 -32.5t15.5 -81.5l-71 -381h-29z" glyph-name="quotedbl" horiz-adv-x="604" unicode="&quot;"/><glyph d="M1071 858h-203l-92 -399h207l-25 -97h-204l-97 -423h-106l98 423h-258l-96 -423h-107l99 423h-205l24 97h203l92 399h-206l24 96h203l98 422h105l-97 -422h256l99 422h104l-96 -422h205zM672 459l92 399h-258l-92 -399h258z" glyph-name="numbersign" horiz-adv-x="1177" unicode="#"/><glyph d="M991 377q0 -141 -117.5 -233.5t-298.5 -104.5v-166h-63v164q-215 4 -393 117l-17 239h52q39 -131 133 -212t225 -83v488q-4 2 -12 5t-13 5q-78 33 -131 62.5t-111.5 74.5t-88 103.5t-29.5 130.5q0 125 98.5 205.5t286.5 89.5v165h63v-165q39 -2 75 -6.5t65.5 -13.5 t52.5 -16t48.5 -19.5t37.5 -18.5t33.5 -19.5t25.5 -15.5l7 -244h-48q-78 272 -297 289v-420l21 -8q66 -29 102.5 -45t100 -55t99.5 -77t64.5 -95.5t28.5 -120.5zM326 1022q0 -121 186 -213v389q-90 -8 -138 -57t-48 -119zM575 102q90 14 145.5 74t55.5 141q0 78 -50 133.5 t-151 104.5v-453z" glyph-name="dollar" horiz-adv-x="1083" unicode="$"/><glyph d="M1102 1290h125l-916 -1290h-108l813 1135q-166 -102 -375 2q8 -31 8 -74q0 -156 -96 -281t-236 -125q-98 0 -156.5 67t-58.5 175q0 154 102.5 274.5t244.5 120.5q72 0 118 -34q76 -43 127 -68t113.5 -41t109 -8t95.5 43.5t90 103.5zM358 721q90 0 159 109.5t69 232.5 q0 80 -35 126t-90 46q-92 0 -149.5 -115.5t-57.5 -236.5q0 -162 104 -162zM1116 633q96 0 148.5 -62.5t52.5 -169.5q0 -156 -96.5 -280.5t-235.5 -124.5q-98 0 -156.5 66.5t-58.5 175.5q0 154 102.5 274.5t243.5 120.5zM1026 59q90 0 158.5 110t68.5 232q0 80 -34.5 126 t-90.5 46q-92 0 -149 -115.5t-57 -236.5q0 -162 104 -162z" glyph-name="percent" horiz-adv-x="1419" unicode="%"/><glyph d="M1087 139q39 -45 155 -23.5t212 93.5v-53q-74 -78 -182.5 -128.5t-192.5 -47.5q-49 0 -89 29.5t-91 88.5q-172 -119 -379 -118q-104 0 -202.5 36.5t-172 124.5t-73.5 207q0 137 85 226.5t228 152.5q-74 115 -74 211q0 139 109.5 227t255.5 88q104 0 181 -49t77 -151 q0 -184 -311 -363l12 -16l315 -371q88 133 88 229q0 82 -176 82v60h561v-60q-96 0 -149 -21.5t-74 -84.5q-53 -164 -172 -299zM625 1188q-63 0 -103.5 -44t-40.5 -134q0 -131 109 -281q98 76 138 157t40 142q0 68 -38.5 114t-104.5 46zM285 383q0 -150 94 -242t207 -92 q123 0 252 123l-355 424q-25 31 -55 72q-143 -107 -143 -285z" glyph-name="ampersand" horiz-adv-x="1515" unicode="&amp;"/><glyph d="M152 795l-68 381q-8 49 15.5 81.5t66.5 32.5q47 0 70.5 -32.5t15.5 -81.5l-72 -381h-28z" glyph-name="quotesingle" horiz-adv-x="335" unicode="'"/><glyph d="M549 -326q-446 313 -446.5 932t446.5 932l43 -12q-143 -154 -222 -388.5t-77 -531.5q6 -594 289 -909z" glyph-name="parenleft" horiz-adv-x="632" unicode="("/><glyph d="M84 -326l-33 23q283 315 289 909q2 297 -77 531.5t-222 388.5l43 12q446 -313 446 -932t-446 -932z" glyph-name="parenright" horiz-adv-x="632" unicode=")"/><glyph d="M373 1071l-47 117q-23 51 0.5 80.5t62.5 29.5t62.5 -29.5t3.5 -80.5l-47 -117q-6 -14 -17.5 -14t-17.5 14zM305 1010l-123 22q-55 8 -70.5 46t9.5 65q20 35 53 39t76 -41l74 -101q10 -12 3.5 -22t-22.5 -8zM473 1010q-14 -2 -21.5 9t3.5 21l75 101q41 45 74 41t55 -39 q23 -27 7.5 -65t-70.5 -46zM119 831q-23 27 -7.5 65t70.5 46l123 23q14 2 21.5 -9.5t-2.5 -21.5l-76 -100q-41 -45 -73.5 -41.5t-55.5 38.5zM659 831q-20 -35 -55 -39t-74 42l-75 100q-10 10 -3 21.5t21 9.5l123 -23q55 -8 70.5 -46t-7.5 -65zM389 676q-41 0 -63.5 28.5 t0.5 81.5l45 117q6 14 18 14.5t19 -14.5l45 -117q23 -53 0 -81.5t-64 -28.5z" glyph-name="asterisk" horiz-adv-x="778" unicode="*"/><glyph d="M901 575v-120h-317v-322h-121v322h-320v120h320v318h121v-318h317z" glyph-name="plus" horiz-adv-x="1044" unicode="+"/><glyph d="M100 -303l-18 43q147 57 174 172q8 31 -4 47t-39 31q-74 43 -74 116q0 53 38 89t91 36q59 0 100.5 -45t41.5 -125q0 -113 -82.5 -219t-227.5 -145z" glyph-name="comma" horiz-adv-x="491" unicode=","/><glyph d="M123 479v88h614v-88h-614z" glyph-name="hyphen" horiz-adv-x="860" unicode="-"/><glyph d="M231.5 -20q-53.5 0 -91.5 36.5t-38 89.5q0 51 38 88t91.5 37t91 -36.5t37.5 -88.5q0 -53 -37.5 -89.5t-91 -36.5z" glyph-name="period" horiz-adv-x="462" unicode="."/><glyph d="M61 -133l641 1671l109 -47l-641 -1671z" glyph-name="slash" horiz-adv-x="811" unicode="/"/><glyph d="M553 -18q-195 0 -333 127t-138 335q0 217 146.5 346.5t346.5 129.5q195 0 333.5 -127t138.5 -336q0 -217 -146.5 -346t-347.5 -129zM580 49q106 0 180 94.5t74 272.5q0 182 -80 309t-205 127q-106 0 -180 -94t-74 -273q0 -182 80 -309t205 -127z" glyph-name="zero" horiz-adv-x="1128" unicode="0"/><glyph d="M481 156q0 -61 41 -80t154 -31v-45h-584v45q51 6 70.5 9t51.5 10.5t43 17.5t20.5 28.5t9.5 45.5v589q0 61 -41 80t-154 31v45h584v-45q-51 -6 -70.5 -9t-51.5 -10.5t-43 -17.5t-20.5 -28.5t-9.5 -45.5v-589z" glyph-name="one" horiz-adv-x="768" unicode="1"/><glyph d="M98 0l-16 41q20 16 83.5 68.5t90.5 75t82 70.5t80.5 75.5t64.5 73t56.5 79t32 73.5t14.5 77q0 70 -43 118t-137 48q-160 0 -252 -148l-43 25q47 117 149 180.5t225 63.5q133 0 221.5 -71t88.5 -181q0 -41 -12.5 -82t-39 -80t-54 -73t-69.5 -69.5t-73 -60t-79 -55.5 t-70.5 -45.5t-64.5 -40t-46 -27.5h272q100 0 153.5 23.5t88.5 107.5h47l-80 -289h-47l-4 23h-619z" glyph-name="two" horiz-adv-x="929" unicode="2"/><glyph d="M379 -389q-113 0 -205 36t-92 111q0 37 22.5 55.5t53.5 18.5q33 0 63.5 -24.5t52 -54t59.5 -54.5t83 -25q98 0 191 87t93 227q0 133 -85 200.5t-209 67.5q-82 0 -179 -37l-20 55l145 68q152 70 214.5 125t62.5 143q0 80 -48.5 128t-142.5 48q-166 0 -280 -145l-39 35 q147 244 401 244q135 0 218 -72t81 -189q-2 -96 -66.5 -166.5t-187.5 -134.5q139 -10 241.5 -86.5t102.5 -226.5q0 -182 -158.5 -308t-371.5 -126z" glyph-name="three" horiz-adv-x="991" unicode="3"/><glyph d="M993 -10h-174v-193q0 -43 24.5 -66.5t47 -28.5t82.5 -15v-45h-512v45q59 10 81.5 15t47 28.5t24.5 66.5v193h-524l-29 41l697 901h61v-854h195zM172 78h442v573z" glyph-name="four" horiz-adv-x="1095" unicode="4"/><glyph d="M252 442q180 33 308 11.5t210 -89t120 -148.5t38 -167q0 -178 -150.5 -308t-371.5 -130q-117 0 -220.5 36t-103.5 111q0 37 25.5 55.5t58.5 18.5q43 0 82 -39t85 -79t109 -40q102 0 184.5 87t82.5 219q0 78 -31 148.5t-95.5 126.5t-162.5 72.5t-234 -16.5l-39 39l197 551 h346q74 0 106.5 2t66.5 15.5t57 42.5h41l-74 -230h-529z" glyph-name="five" horiz-adv-x="1042" unicode="5"/><glyph d="M590 -25q-233 0 -361.5 158t-126.5 393q2 315 233.5 538.5t516.5 240.5l31 -56q-104 -10 -202.5 -62t-180.5 -142.5t-131.5 -234.5t-49.5 -318q0 -201 72 -326t205 -125q125 0 193.5 105.5t68.5 256.5q0 178 -101.5 273.5t-307.5 52.5v51q113 53 225 47t201.5 -51 t144.5 -137t55 -209q0 -193 -135 -324t-350 -131z" glyph-name="six" horiz-adv-x="1157" unicode="6"/><glyph d="M971 901l22 -31q-406 -621 -555 -1259h-170q160 514 563 1120h-452q-74 0 -107.5 -6t-73.5 -39t-73 -104h-43l108 354h43l5 -35h733z" glyph-name="seven" horiz-adv-x="1044" unicode="7"/><glyph d="M770 705q119 -49 196.5 -136.5t77.5 -212.5q0 -166 -136 -276.5t-343 -110.5q-201 0 -332 99.5t-131 263.5q0 217 236 338q-152 111 -152 284q0 141 108.5 238.5t283.5 97.5q164 0 265 -90t101 -215q0 -159 -174 -280zM580 1229q-104 0 -155.5 -64.5t-51.5 -150.5 q0 -72 44 -135.5t134 -96.5l133 -47q115 98 115 242q0 98 -53 175t-166 77zM582 33q127 0 192.5 70.5t65.5 187.5q0 106 -54.5 162.5t-185.5 103.5l-137 49q-33 10 -49 21q-156 -102 -156 -283q0 -135 87 -223t237 -88z" glyph-name="eight" horiz-adv-x="1146" unicode="8"/><glyph d="M567 920q233 0 361.5 -158t126.5 -393q-2 -315 -233.5 -538.5t-516.5 -240.5l-31 56q104 10 202.5 62t180.5 142.5t131.5 234.5t49.5 318q0 201 -72 326t-205 125q-125 0 -193.5 -105.5t-68.5 -256.5q0 -178 101.5 -273.5t308.5 -52.5v-51q-113 -53 -225.5 -47t-201.5 51 t-144.5 137t-55.5 209q0 193 135 324t350 131z" glyph-name="nine" horiz-adv-x="1157" unicode="9"/><glyph d="M231.5 655q-53.5 0 -91.5 37t-38 90q0 51 38 88t91.5 37t91 -36.5t37.5 -88.5q0 -53 -37.5 -90t-91 -37zM233.5 -20q-53.5 0 -91.5 36.5t-38 89.5q0 51 38 88t91.5 37t91 -36.5t37.5 -88.5q0 -53 -37.5 -89.5t-91 -36.5z" glyph-name="colon" horiz-adv-x="464" unicode=":"/><glyph d="M291 653q-53 0 -91 37t-38 90q0 51 38 88t91 37t91 -37t38 -88q0 -53 -38 -90t-91 -37zM100 -303l-18 43q147 57 174 172q8 31 -4 47t-39 31q-74 43 -74 116q0 53 38 89t91 36q59 0 100.5 -45t41.5 -125q0 -113 -82.5 -219t-227.5 -145z" glyph-name="semicolon" horiz-adv-x="501" unicode=";"/><glyph d="M901 102q-373 203 -758 351v120q385 147 758 351v-140q-266 -145 -618 -270q358 -129 618 -272v-140z" glyph-name="less" horiz-adv-x="1044" unicode="&lt;"/><glyph d="M143 639v121h758v-121h-758zM143 270v121h758v-121h-758z" glyph-name="equal" horiz-adv-x="1044" unicode="="/><glyph d="M143 102v140q260 143 619 272q-352 125 -619 270v140q373 -203 758 -351v-120q-385 -148 -758 -351z" glyph-name="greater" horiz-adv-x="1044" unicode=">"/><glyph d="M424 393q-29 80 -17.5 131t48.5 113.5t77.5 114t73.5 129t33 157.5q0 236 -268 236q-59 0 -84 -60q-41 -102 -72 -142t-74 -40q-35 0 -57.5 20.5t-22.5 59.5q0 100 152 168t309 68q166 0 256 -87t90 -231q0 -94 -43 -171t-103 -127t-119.5 -97t-98.5 -107.5t-35 -134.5 h-45zM448.5 -23q-53.5 0 -91.5 37t-38 90q0 51 38 88t91.5 37t91.5 -36.5t38 -88.5q0 -53 -38 -90t-91.5 -37z" glyph-name="question" horiz-adv-x="950" unicode="?"/><glyph d="M1233 899l-96 -483q-14 -76 12.5 -115t79.5 -39q86 0 161.5 102.5t75.5 270.5q0 266 -165.5 433t-428.5 167q-279 0 -447.5 -191.5t-168.5 -470.5q0 -274 167 -462.5t433 -188.5q195 0 379 105l37 -31q-193 -135 -434 -135q-307 0 -521.5 206.5t-214.5 505.5 q0 303 218.5 515t541.5 212q297 0 486.5 -191t189.5 -474q0 -193 -96 -308.5t-238 -115.5q-41 0 -79 7t-79.5 44t-41.5 98q-104 -143 -267 -143q-113 0 -184.5 71.5t-71.5 211.5q0 186 121 306t268 120q162 0 207 -156l27 129h129zM786 281q84 0 154 79.5t96 194.5l6 35 q6 37 7 76q0 94 -40 150t-120 56q-111 0 -180.5 -114.5t-69.5 -259.5q0 -109 40.5 -163t106.5 -54z" glyph-name="at" horiz-adv-x="1640" unicode="@"/><glyph d="M1251 162q29 -68 55.5 -84.5t112.5 -32.5v-45h-536v45q10 2 35.5 7t36 8t27.5 9.5t23.5 13.5t12.5 18.5t3 25.5t-11 35l-105 239h-526l-100 -241q-8 -18 -10.5 -33.5t4 -26t11.5 -17.5t22.5 -13.5t26.5 -9.5t34.5 -8t35.5 -7v-45h-383v45q68 12 87.5 18.5t43 28 t42.5 68.5l483 1145h80zM408 471h469l-240 553z" glyph-name="A" horiz-adv-x="1439" unicode="A"/><glyph d="M883 678q362 -76 362 -330q0 -172 -158.5 -260t-443.5 -88h-582v45q104 20 132 41q39 33 38 121v876q0 47 -7 76t-35.5 46.5t-42 21.5t-68.5 14q-10 2 -17 4v45h582q238 0 376 -76.5t138 -226.5q0 -225 -274 -309zM938 965q0 252 -324 252q-96 -2 -129.5 -25t-33.5 -76 v-409h182q166 0 235.5 67.5t69.5 190.5zM672 74q338 0 338 260q0 127 -96.5 216t-319.5 89h-143v-410q0 -80 48 -117.5t173 -37.5z" glyph-name="B" horiz-adv-x="1337" unicode="B"/><glyph d="M791 -25q-303 0 -496 188.5t-193 483.5q0 293 197 484.5t516 191.5q242 0 399 -94q8 -186 15 -277h-74q-68 297 -371 297q-207 0 -323.5 -143t-116.5 -395q0 -281 156.5 -458t392.5 -177q223 0 326 110l41 -43q-66 -72 -189.5 -120t-279.5 -48z" glyph-name="C" horiz-adv-x="1361" unicode="C"/><glyph d="M592 1290q117 0 223.5 -21.5t201.5 -71.5t164.5 -121.5t110.5 -180.5t41 -242q0 -170 -60.5 -299t-166 -203.5t-235.5 -112.5t-279 -38h-531v45q104 20 132 41q39 33 38 121v876q0 47 -7 76t-35.5 46.5t-42 21.5t-68.5 14q-10 2 -17 4v45h531zM649 74q444 0 445 559 q0 584 -523 584h-120v-947q0 -109 41.5 -152.5t156.5 -43.5z" glyph-name="D" horiz-adv-x="1435" unicode="D"/><glyph d="M1096 307h55l-84 -307h-1006v45q104 20 132 41q39 33 38 121v876q0 47 -7 76t-35.5 46.5t-42 21.5t-68.5 14q-10 2 -17 4v45h1002l18 -291h-55q-14 117 -55 167.5t-146 50.5h-182q-121 0 -156.5 -27t-35.5 -129v-375h157q176 0 225.5 35t59.5 137h43v-414h-43 q-10 102 -59.5 137t-225.5 35h-157v-387q0 -102 35.5 -128.5t156.5 -26.5h139q121 0 189 50t125 183z" glyph-name="E" horiz-adv-x="1222" unicode="E"/><glyph d="M1053 1290l18 -291h-55q-14 117 -55 167.5t-146 50.5h-172q-121 0 -156.5 -27t-35.5 -129v-375h137q176 0 225 35t59 137h43v-414h-43q-10 102 -59 137t-225 35h-137v-409q0 -47 7 -76t35.5 -46t42 -21.5t68.5 -14.5q10 -2 17 -4v-45h-560v45q104 20 132 41q39 33 38 121 v876q0 47 -7 76t-35.5 46.5t-42 21.5t-68.5 14q-10 2 -17 4v45h992z" glyph-name="F" horiz-adv-x="1142" unicode="F"/><glyph d="M842 -25q-346 0 -543 188.5t-197 483.5q0 293 197 484.5t518 191.5q252 0 410 -94q8 -186 14 -277h-74q-68 297 -379 297q-209 0 -326.5 -144t-117.5 -396q0 -293 139.5 -476.5t380.5 -183.5q113 0 155 48t42 165v90q0 135 -43 176t-176 52v53h551v-53q-74 -10 -106 -41 t-32 -105v-110q0 -113 31 -236q-53 -45 -176 -79t-268 -34z" glyph-name="G" horiz-adv-x="1484" unicode="G"/><glyph d="M1413 1245q-104 -20 -131 -41q-39 -33 -39 -121v-876q0 -47 7 -76t36 -46t42 -21.5t69 -14.5q10 -2 16 -4v-45h-559v45q104 20 131 41q39 33 39 121v403h-573v-403q0 -47 7 -76t35.5 -46t42 -21.5t68.5 -14.5q10 -2 17 -4v-45h-560v45q104 20 132 41q39 33 38 121v876 q0 47 -7 76t-35.5 46.5t-42 21.5t-68.5 14q-10 2 -17 4v45h560v-45q-104 -20 -132 -41q-39 -33 -38 -121v-403h573v403q0 47 -7 76t-36 46.5t-42 21.5t-69 14q-10 2 -16 4v45h559v-45z" glyph-name="H" horiz-adv-x="1474" unicode="H"/><glyph d="M61 0v45q104 20 132 41q39 33 38 121v876q0 47 -7 76t-35.5 46.5t-42 21.5t-68.5 14q-10 2 -17 4v45h560v-45q-104 -20 -132 -41q-39 -33 -38 -121v-876q0 -47 7 -76t35.5 -46t42 -21.5t68.5 -14.5q10 -2 17 -4v-45h-560z" glyph-name="I" horiz-adv-x="681" unicode="I"/><glyph d="M18 -379q-20 29 0 55q139 49 177 116t38 228v1063q0 47 -10 77t-30.5 45.5t-49 23.5t-67.5 14q-10 0 -17 2v45h564v-45q-104 -20 -131 -41q-39 -33 -39 -121v-1083q0 -92 -36 -161.5t-103.5 -111.5t-136.5 -66t-159 -40z" glyph-name="J" horiz-adv-x="684" unicode="J"/><glyph d="M1217 111q27 -39 59.5 -51.5t116.5 -12.5v-47h-392q0 51 -61 139l-354 514l-135 -135v-311q0 -47 7 -76t35.5 -46t42 -21.5t68.5 -14.5q10 -2 17 -4v-45h-560v45q104 20 132 41q39 33 38 121v876q0 47 -7 76t-35.5 46.5t-42 21.5t-68.5 14q-10 2 -17 4v45h560v-45 q-104 -20 -132 -41q-39 -33 -38 -121v-450l516 508q47 45 23.5 73.5t-107.5 28.5v47h444v-47q-92 0 -141 -24.5t-105 -77.5l-350 -346z" glyph-name="K" horiz-adv-x="1443" unicode="K"/><glyph d="M61 0v45q104 20 132 41q39 33 38 121v876q0 47 -7 76t-35.5 46.5t-42 21.5t-68.5 14q-10 2 -17 4v45h582v-45q-6 -2 -30.5 -6t-31 -5t-26.5 -6t-26.5 -9.5t-21.5 -11.5t-20.5 -14t-14.5 -18.5t-12 -23.5t-6 -29.5t-3 -38.5v-854q0 -102 35.5 -128.5t156.5 -26.5h145 q123 0 189.5 52t124.5 193h55l-84 -319h-1012z" glyph-name="L" horiz-adv-x="1218" unicode="L"/><glyph d="M1565 207q2 -49 11 -79t39 -46t47 -21.5t73 -15.5v-45h-559v45q106 20 133 41q41 33 37 121l-37 917l-443 -1124h-61l-449 1040l-39 -833q-2 -47 6.5 -76t38 -46t47 -21.5t72.5 -14.5q14 -2 21 -4v-45h-441v45q106 20 132 43q39 33 43 119l40 876q2 47 -6 76t-33.5 45.5 t-45 22.5t-66.5 14q-14 2 -21 4v45h379q4 -27 64 -157l358 -832l322 832q51 135 55 157h410v-45q-106 -20 -133 -41q-39 -35 -35 -121z" glyph-name="M" horiz-adv-x="1796" unicode="M"/><glyph d="M948 1290h443v-45q-88 0 -131 -32.5t-43 -129.5v-1083h-93l-805 1090v-883q0 -47 8.5 -76t39 -46t45 -21.5t73.5 -14.5q12 -2 19 -4v-45h-443v45q106 20 134 41q41 33 41 121v876q0 47 -8.5 76t-36 46.5t-44 21.5t-67.5 14q-12 2 -19 4v45h369l703 -948v741 q0 96 -44.5 129t-140.5 33v45z" glyph-name="N" horiz-adv-x="1452" unicode="N"/><glyph d="M754 -25q-283 0 -467.5 190.5t-184.5 477.5t186.5 483.5t473.5 196.5q283 0 467 -191.5t184 -478t-186 -482.5t-473 -196zM788 49q172 0 281 145.5t109 397.5q0 289 -128 473t-323 184q-172 0 -280.5 -146.5t-108.5 -397.5q0 -287 127.5 -471.5t322.5 -184.5z" glyph-name="O" horiz-adv-x="1515" unicode="O"/><glyph d="M61 0v45q104 20 132 41q39 33 38 121v876q0 47 -7 76t-35.5 46.5t-42 21.5t-68.5 14q-10 2 -17 4v45h519q608 0 608 -379q0 -201 -171 -305t-474 -104q-25 0 -25 35.5t25 35.5q410 0 409 326q0 317 -352 318q-88 0 -118.5 -23t-30.5 -72v-915q0 -47 7 -76t35.5 -46 t42 -21.5t68.5 -14.5q10 -2 17 -4v-45h-560z" glyph-name="P" horiz-adv-x="1269" unicode="P"/><glyph d="M1626 -172q33 -6 33 -41q-156 -145 -332 -145q-127 0 -262 82l-352 215q-45 29 -152 63l-18 6h-2q-199 66 -319 237t-120 398q0 287 186.5 483.5t473.5 196.5q283 0 467 -191.5t184 -478.5q0 -238 -133 -418t-350 -237q59 -14 121 -53l143 -90q143 -92 250 -93 q92 0 182 66zM338 705q0 -287 128 -471.5t322 -184.5q172 0 281 145.5t109 397.5q0 289 -128 473t-323 184q-172 0 -280.5 -146t-108.5 -398z" glyph-name="Q" horiz-adv-x="1505" unicode="Q"/><glyph d="M1075 236q145 -229 277 -189v-47q-61 -33 -144 -33q-119 0 -196.5 48t-145.5 159l-147 234q-55 88 -113.5 121.5t-154.5 37.5v-360q0 -47 7 -76t35.5 -46t42 -21.5t68.5 -14.5q10 -2 17 -4v-45h-560v45q104 20 132 41q39 33 38 121v876q0 47 -7 76t-35.5 46.5t-42 21.5 t-68.5 14q-10 2 -17 4v45h531q569 0 569 -356q0 -295 -397 -354q109 -20 190 -152zM606 1217q-92 0 -123.5 -23t-31.5 -72v-483h133q190 0 269 73.5t79 207.5q0 297 -326 297z" glyph-name="R" horiz-adv-x="1392" unicode="R"/><glyph d="M526 -25q-217 0 -407 129l-17 263h52q39 -145 135 -234.5t229 -89.5q113 0 185.5 68.5t72.5 173.5q0 100 -69.5 166.5t-219.5 138.5q-78 37 -131 69.5t-111.5 82t-88 114t-29.5 141.5q0 143 107.5 234.5t310.5 91.5q43 0 82 -4t72.5 -13.5t58 -17.5t51.5 -22.5t40 -21.5 t36.5 -23.5t27.5 -18.5l7 -266h-48q-82 319 -325 319q-109 0 -165 -56t-56 -140t63.5 -146.5t206.5 -130.5q68 -33 102.5 -51t100 -61t100.5 -84t63.5 -103.5t28.5 -134.5q0 -166 -134 -269.5t-331 -103.5z" glyph-name="S" horiz-adv-x="1083" unicode="S"/><glyph d="M1182 1311l16 -361h-43q-23 145 -83 210t-216 65h-117v-1018q0 -41 10.5 -67.5t19.5 -42t44 -27t51.5 -14.5t73.5 -11v-45h-616v45q57 8 73.5 11t51 14.5t44 27t19.5 42t10 67.5v1018h-110q-160 0 -221.5 -64.5t-84.5 -210.5h-43l17 361l104 -21h895z" glyph-name="T" horiz-adv-x="1259" unicode="T"/><glyph d="M733 -25q-94 0 -175 21.5t-162 76t-128 167t-47 274.5v569q0 47 -7 76t-35.5 46.5t-42 21.5t-68.5 14q-10 2 -17 4v45h561v-45q-104 -20 -131 -41q-39 -33 -39 -121v-596q0 -424 344 -424q63 0 120 15.5t115 55.5t93 123t35 202v624q0 47 -8 76t-36 46.5t-44.5 21.5 t-67.5 14q-12 2 -18 4v45h444v-45q-115 -20 -141 -41q-43 -33 -43 -121v-583q0 -150 -42 -256.5t-117 -162.5t-159 -81t-184 -25z" glyph-name="U" horiz-adv-x="1470" unicode="U"/><glyph d="M1036 1290h383v-45q-68 -12 -87 -18t-42.5 -27.5t-42.5 -69.5l-483 -1144h-80l-496 1142q-29 68 -55.5 84.5t-112.5 32.5v45h537v-45q-10 -2 -35.5 -7t-36 -8t-28 -9.5t-23.5 -13.5t-12 -18t-3 -25.5t11 -35.5l373 -862l358 864q8 18 10.5 34t-4 26t-11.5 17t-22.5 13.5 t-26.5 9.5t-34.5 8t-36.5 7v45z" glyph-name="V" horiz-adv-x="1439" unicode="V"/><glyph d="M623 -16l-433 1142q-25 66 -52 83.5t-118 33.5v45h531v-45q-8 -2 -25.5 -6t-24.5 -5t-20.5 -5t-19.5 -7t-16.5 -8.5t-13.5 -10.5t-7 -12t-4 -16.5t2 -20.5t6 -26l307 -843l234 665q39 98 0 185.5t-148 111.5v45h353q0 -80 73 -282l262 -723l267 753q18 49 19 84t-7 55.5 t-37 34t-56.5 19.5t-80.5 14v45h448v-45q-66 -12 -87 -19t-43.5 -28.5t-39.5 -69.5l-413 -1142h-82l-355 946l-337 -948h-82z" glyph-name="W" horiz-adv-x="2082" unicode="W"/><glyph d="M1200 174q49 -74 93 -93.5t163 -35.5v-45h-602v45q102 18 117 35q20 25 -27 92l-264 391l-281 -385q-14 -18 -23 -33.5t-11.5 -28t-5.5 -19.5t5.5 -14t10.5 -11t20.5 -9.5t23.5 -6.5t30.5 -5t33.5 -6v-45h-442v45q133 18 168 39q45 23 96 92l332 449l-324 479 q-55 80 -98 102.5t-154 38.5v45h586v-45q-51 -10 -70.5 -15t-37 -20.5t-8 -40t37.5 -65.5l228 -336l252 340q31 41 39 64.5t-13.5 38t-39 19.5t-72.5 15v45h430v-45q-109 -16 -152 -37.5t-102 -99.5l-299 -401z" glyph-name="X" horiz-adv-x="1497" unicode="X"/><glyph d="M928 1290h403v-45q-82 -16 -107.5 -33.5t-72.5 -93.5l-350 -561v-350q0 -51 9 -80t42 -45t53.5 -21.5t85.5 -15.5v-45h-600v45q121 20 150 43q41 31 41 119v325l-373 586q-49 76 -73.5 93.5t-104.5 33.5v45h540v-45q-100 -23 -118 -43q-27 -27 8 -84l303 -485l295 485 q20 35 23 56.5t-18.5 34t-38.5 17.5t-64 13q-23 4 -33 6v45z" glyph-name="Y" horiz-adv-x="1361" unicode="Y"/><glyph d="M84 0l-23 31l801 1206l-420 -8q-147 -2 -205.5 -63.5t-68.5 -207.5h-51v345l121 -13h921l-819 -1237l487 8q141 2 198.5 65.5t88.5 209.5h53q-39 -209 -39 -336h-1044z" glyph-name="Z" unicode="Z"/><glyph d="M547 -340l-404 21v1853l404 20v-41l-209 -38v-1735l209 -39v-41z" glyph-name="bracketleft" horiz-adv-x="608" unicode="["/><glyph d="M750 -133l-109 -47l-641 1671l109 47z" glyph-name="backslash" horiz-adv-x="811" unicode="\"/><glyph d="M61 -340v41l209 39v1735l-209 38v41l404 -20v-1853z" glyph-name="bracketright" horiz-adv-x="608" unicode="]"/><glyph d="M131 752l-29 26l365 545l364 -545l-28 -26l-336 399z" glyph-name="asciicircum" horiz-adv-x="933" unicode="^"/><glyph d="M102 -119l2 78h1084l-2 -78h-1084z" glyph-name="underscore" horiz-adv-x="1290" unicode="_"/><glyph d="M279 1044q-143 158 -246 228q14 39 62 73.5t89 34.5q84 -119 142 -303z" glyph-name="grave" horiz-adv-x="348" unicode="`"/><glyph d="M872 188q0 -49 45.5 -58t108.5 28v-47q-76 -84 -184 -125q-68 0 -115 51t-49 117q-172 -168 -361 -168q-109 0 -177 58t-68 159q0 51 21.5 92t51 68.5t87 53t104.5 41t131 38.5q76 20 103.5 28t60.5 27.5t47 46.5v29q0 123 -55.5 169t-182.5 46q-61 0 -84 -58 q-41 -104 -71.5 -143t-73.5 -39q-35 0 -57.5 20.5t-22.5 59.5q0 68 79 124t185.5 85t202.5 29q143 0 208.5 -78t65.5 -234v-420zM432 100q141 0 246 136v253l-201 -57q-109 -31 -155 -76t-46 -108q0 -72 44 -110t112 -38z" glyph-name="a" horiz-adv-x="1067" unicode="a"/><glyph d="M551 -18q-182 0 -286.5 85t-104.5 234v819q0 57 -32 88t-118 41v41q174 29 303 117l41 -39v-647q49 84 138.5 141.5t195.5 57.5q152 0 260.5 -119t108.5 -318q0 -227 -145.5 -364t-360.5 -137zM553 51q127 0 214 97.5t87 275.5q0 164 -73.5 265.5t-194.5 101.5 q-152 0 -232 -146v-369q0 -96 48.5 -160.5t150.5 -64.5z" glyph-name="b" horiz-adv-x="1138" unicode="b"/><glyph d="M555 -18q-205 0 -339 125.5t-134 334.5q0 217 139 347.5t350 130.5q150 0 244 -63.5t94 -149.5q0 -45 -26.5 -70t-67.5 -25q-90 0 -129 146q-27 98 -123 98q-111 0 -193.5 -88t-82.5 -254q0 -174 99 -287.5t257 -113.5q170 0 244 110l35 -22q-37 -104 -134.5 -161.5 t-232.5 -57.5z" glyph-name="c" horiz-adv-x="1003" unicode="c"/><glyph d="M979 180q0 -61 25.5 -91t109.5 -44v-45h-315l16 186h-27q-125 -205 -329 -204q-154 0 -265.5 116.5t-111.5 315.5q0 225 148.5 365.5t349.5 140.5q119 0 204 -56v256q0 59 -32.5 89t-120.5 40v41q180 29 307 117l41 -39v-1188zM565 111q88 0 143.5 56t75.5 130v428 q-16 53 -68 90t-132 37q-127 0 -215 -94t-88 -269q0 -170 82.5 -274t201.5 -104z" glyph-name="d" horiz-adv-x="1175" unicode="d"/><glyph d="M643 113q170 0 244 110l35 -22q-37 -104 -134.5 -161.5t-230.5 -57.5q-203 0 -339 127t-136 335.5t132 342t331 133.5q211 0 313.5 -141.5t48.5 -280.5h-624q8 -170 105 -277.5t255 -107.5zM524 852q-96 0 -163.5 -75t-75.5 -212h438q16 106 -36 196.5t-163 90.5z" glyph-name="e" horiz-adv-x="1015" unicode="e"/><glyph d="M655 1430q166 0 215 -111q-2 -47 -39.5 -84t-93.5 -47q-53 152 -159 151q-70 0 -120 -61t-50 -219v-160l241 21q-10 -41 -10 -97h-231v-667q0 -31 12 -51.5t45 -32t56.5 -15.5t80.5 -10q10 -2 16 -2v-45h-567v45q59 10 82 15.5t47.5 29t24.5 66.5v667h-154v47l154 31v6 q0 252 127.5 387.5t322.5 135.5z" glyph-name="f" horiz-adv-x="737" unicode="f"/><glyph d="M971 881v-115l-183 27q57 -74 58 -166q0 -127 -98.5 -209t-260.5 -82h-81q-43 0 -67 -21.5t-24 -54.5q0 -72 91 -80l221 -20q195 -16 261 -52t66 -128q0 -164 -150.5 -264.5t-379.5 -102.5q-184 -2 -278.5 65.5t-94.5 163.5q0 41 59.5 97.5t141.5 93.5q-123 47 -123 145 q0 33 64.5 96.5t123.5 90.5q-90 33 -141 102.5t-51 159.5q0 127 99.5 210t260.5 83q86 0 154 -25q60 -14 332 -14zM485.5 391q94.5 0 133 73t38.5 163t-38.5 163.5t-133 73.5t-133.5 -73.5t-39 -163.5t39 -163t133.5 -73zM612 -14l-221 18q-82 8 -126 -37t-44 -108 q0 -68 58.5 -118t201.5 -50q154 0 232 60.5t78 142.5q0 51 -38.5 67.5t-140.5 24.5z" glyph-name="g" horiz-adv-x="1052" unicode="g"/><glyph d="M1010 156q0 -43 19.5 -66.5t41 -29t74.5 -15.5v-45h-459v45q51 10 70.5 15.5t39 29t19.5 66.5v438q0 195 -162 194q-135 0 -247 -131v-501q0 -43 19 -66.5t38.5 -29t71.5 -15.5v-45h-474v45q100 18 125 41t25 70v964q0 57 -32 88t-118 41v41q178 31 304 117l41 -39v-639 q158 190 350 191q254 0 254 -316v-448z" glyph-name="h" horiz-adv-x="1196" unicode="h"/><glyph d="M280.5 1133q-49.5 0 -86 34.5t-36.5 83.5t36.5 84t86 35t86 -35t36.5 -84t-36.5 -83.5t-86 -34.5zM61 0v45q53 10 75 15.5t41.5 29t19.5 66.5v489q0 61 -26 90t-110 39v41q164 27 287 119l43 -39v-739q0 -43 19.5 -66.5t41 -29t74.5 -15.5v-45h-465z" glyph-name="i" horiz-adv-x="587" unicode="i"/><glyph d="M268 1133q-49 0 -86 34.5t-37 83.5t37 84t86 35t86 -35t37 -84t-37 -83.5t-86 -34.5zM6 -379q-18 27 0 53q94 33 135 99.5t41 203.5v668q0 61 -25.5 90t-109.5 39v41q145 27 287 119l43 -39v-930q0 -86 -35 -152.5t-94.5 -104.5t-117.5 -58.5t-124 -28.5z" glyph-name="j" horiz-adv-x="514" unicode="j"/><glyph d="M975 119q27 -37 57.5 -50.5t104.5 -21.5v-47h-338q0 53 -37 109l-246 352l-110 -107v-198q0 -41 20 -63.5t45 -30t70 -15.5q10 -2 14 -2v-45h-494v45q100 18 125 41t25 70v964q0 57 -32 88t-118 41v41q178 31 304 117l41 -39v-911l299 288q47 45 28.5 73t-98.5 36v47h409 v-47q-84 -8 -134 -32.5t-101 -76.5l-166 -159z" glyph-name="k" horiz-adv-x="1157" unicode="k"/><glyph d="M61 0v45q100 18 125 41t25 70v964q0 57 -32 88t-118 41v41q178 31 304 117l41 -39v-1212q0 -41 20 -63.5t45 -30t70 -15.5q10 -2 14 -2v-45h-494z" glyph-name="l" horiz-adv-x="616" unicode="l"/><glyph d="M51 0v45q43 6 59.5 10t39 15.5t29.5 32t7 53.5v510q0 61 -25.5 86.5t-109.5 21.5v41q172 27 307 119l41 -39l-55 -172h33q147 197 328 197q193 0 235 -197h16q129 197 318 197q133 0 193.5 -92.5t60.5 -223.5v-448q0 -61 28.5 -80t106.5 -31v-45h-465v45q43 6 59.5 10 t39 15.5t29.5 32t7 53.5v438q0 195 -153 194q-123 0 -226 -133v-499q0 -61 29 -80t104 -31v-45h-464v45q43 6 60 10t39.5 15.5t30 32t7.5 53.5v438q0 92 -39 143t-113 51q-127 0 -227 -133v-499q0 -43 19.5 -66.5t39 -29t70.5 -15.5v-45h-459z" glyph-name="m" horiz-adv-x="1714" unicode="m"/><glyph d="M51 0v45q53 10 74.5 15.5t41 29t19.5 66.5v489q0 61 -25.5 90t-109.5 39v41q172 27 307 119l41 -39l-55 -172h33q160 197 354 197q254 0 254 -316v-448q0 -43 19.5 -66.5t41 -29t74.5 -15.5v-45h-458v45q51 10 70.5 15.5t39 29t19.5 66.5v436q0 197 -162 196 q-139 0 -248 -133v-499q0 -43 19.5 -66.5t39 -29t70.5 -15.5v-45h-459z" glyph-name="n" horiz-adv-x="1171" unicode="n"/><glyph d="M553 -18q-195 0 -333 127t-138 335q0 217 146.5 346.5t346.5 129.5q195 0 333.5 -127t138.5 -336q0 -217 -146.5 -346t-347.5 -129zM580 49q106 0 180 94.5t74 272.5q0 182 -80 309t-205 127q-106 0 -180 -94t-74 -273q0 -182 80 -309t205 -127z" glyph-name="o" horiz-adv-x="1128" unicode="o"/><glyph d="M723 920q147 0 254.5 -119t107.5 -318q0 -225 -141 -363t-350 -138q-111 0 -203 43v-224q0 -66 34 -84t130 -30v-45h-504v45q61 8 84 14t42.5 29.5t19.5 70.5v844q0 61 -28 90t-118 39v41q186 29 318 119l41 -39l-80 -231h35q49 102 143 179t215 77zM602 51 q117 0 199 95.5t82 277.5q0 162 -66.5 264.5t-183.5 102.5q-111 0 -176.5 -84t-65.5 -152v-233q0 -113 50 -192t161 -79z" glyph-name="p" horiz-adv-x="1157" unicode="p"/><glyph d="M971 -203q0 -61 28.5 -79.5t106.5 -30.5v-45h-506v45q106 12 141 29.5t35 80.5v367q-125 -182 -317 -182q-154 0 -265.5 116.5t-111.5 315.5q0 229 157.5 367.5t401.5 138.5q131 0 231 -46l99 27v-1104zM565 111q147 0 211 157v430q0 63 -57 108.5t-141 45.5 q-123 0 -210 -94t-87 -269q0 -170 82.5 -274t201.5 -104z" glyph-name="q" horiz-adv-x="1157" unicode="q"/><glyph d="M51 0v45q47 6 65.5 10t42 15.5t31 32t7.5 53.5v491q0 61 -28 90t-118 37v41q186 29 318 119l41 -39l-58 -246h49q66 141 134.5 213t162.5 72q45 0 84 -16v-195q-68 27 -131 27q-123 0 -191.5 -81t-68.5 -206v-307q0 -61 31 -80t121 -31v-45h-492z" glyph-name="r" horiz-adv-x="833" unicode="r"/><glyph d="M385 -18q-98 0 -179 26.5t-120 54.5l-4 189h65q66 -205 259 -205q86 0 133 38t47 105q0 49 -32 85t-62.5 50.5t-108.5 43.5q-14 6 -21 8q-57 20 -98 41.5t-86 55.5t-68.5 82t-23.5 106q0 117 91 187.5t249 70.5q145 0 264 -78l-2 -187h-61q-57 199 -224 199 q-74 0 -114.5 -37t-40.5 -92q0 -59 46 -97t144 -75q63 -25 85 -33t80.5 -37.5t83 -55.5t49 -71t24.5 -98q0 -123 -104.5 -199.5t-270.5 -76.5z" glyph-name="s" horiz-adv-x="841" unicode="s"/><glyph d="M401 229q0 -51 27 -77.5t70 -27.5t84 7t84 25v-50q-133 -76 -295 -126q-68 0 -116 52t-48 118v673h-156v49q176 68 293 215h57v-194l258 27q-10 -41 -10 -97h-248v-594z" glyph-name="t" horiz-adv-x="716" unicode="t"/><glyph d="M442 -18q-266 0 -266 315v465q0 37 -17.5 56.5t-39 25.5t-68.5 14v43q197 -10 320 12v-608q0 -190 166 -190q131 0 249 108v539q0 37 -17 56.5t-38.5 25.5t-68.5 14v43q197 -10 319 12v-733q0 -61 25.5 -91t109.5 -44v-45h-309l12 160h-26q-175 -178 -351 -178z" glyph-name="u" horiz-adv-x="1167" unicode="u"/><glyph d="M702 901h330v-45q-70 -8 -95.5 -23.5t-49.5 -74.5l-324 -770h-69l-332 770q-27 59 -50.5 74.5t-91.5 23.5v45h459v-45q-94 -14 -110.5 -36.5t0.5 -61.5l225 -537l205 498q14 33 14 57.5t-7 37.5t-27.5 22.5t-35 12.5t-41.5 7v45z" glyph-name="v" horiz-adv-x="1052" unicode="v"/><glyph d="M463 -12l-301 780q-20 53 -46 67.5t-96 20.5v45h461v-45q-94 -12 -110 -37q-12 -18 0 -51l196 -535l183 447q33 84 6 131q-12 25 -34 32t-69 13v45h312q0 -74 36 -168l193 -502l178 445q18 45 20.5 77.5t-6 51t-33 30t-48 15.5t-64.5 6v45h375v-45q-70 -6 -94.5 -20.5 t-46.5 -67.5l-312 -780h-71l-275 688l-282 -688h-72z" glyph-name="w" horiz-adv-x="1636" unicode="w"/><glyph d="M893 135q35 -49 69.5 -65.5t110.5 -24.5v-45h-487v45q33 4 49 8t33.5 14.5t16.5 27t-19 40.5l-172 242l-191 -242q-18 -25 -22.5 -41t15 -26.5t30 -12.5t49.5 -8q6 -2 10 -2v-45h-344v45q76 8 107.5 22.5t72.5 67.5l236 295l-238 332q-35 51 -68.5 68.5t-101.5 25.5v45 h469v-45q-31 -4 -48 -9t-31.5 -15.5t-13.5 -28t19 -41.5l150 -209l166 209q20 27 22 44t-17.5 27.5t-35.5 13.5t-51 9v45h334v-45q-66 -8 -96.5 -24.5t-73.5 -69.5l-211 -260z" glyph-name="x" horiz-adv-x="1114" unicode="x"/><glyph d="M709 901h329v-45q-70 -8 -93 -22.5t-48 -71.5l-360 -842q-25 -57 -45.5 -97t-55.5 -90t-80 -78t-96 -28q-68 0 -133 47v129q141 -12 221 12.5t115 104.5l31 74l-332 768q-25 57 -48.5 71.5t-93.5 22.5v45h457v-45q-92 -14 -109.5 -34.5t-0.5 -59.5l227 -539l229 539 q8 18 9.5 31.5t-6 22.5t-14.5 15.5t-26.5 11.5t-28.5 6t-34 5q-10 2 -14 2v45z" glyph-name="y" horiz-adv-x="1058" unicode="y"/><glyph d="M84 0l-23 31l572 815l-266 -6q-172 -2 -193 -211h-51v284l121 -12h647l-590 -846l279 6q127 2 182 54.5t84 158.5h53q-39 -145 -39 -274h-776z" glyph-name="z" horiz-adv-x="960" unicode="z"/><glyph d="M547 -330q-178 51 -235.5 152.5t-57.5 265.5v318q0 72 -43 110.5t-129 71.5v35q86 33 129 71.5t43 110.5v317q0 164 57.5 265.5t235.5 152.5l16 -37q-78 -33 -96 -115.5t-18 -265.5v-266q0 -197 -213 -244v-14q213 -47 213 -244v-266q0 -94 2 -139t12 -103.5t34.5 -89 t65.5 -49.5z" glyph-name="braceleft" horiz-adv-x="624" unicode="{"/><glyph d="M164 -358v1681h82v-1681h-82z" glyph-name="bar" horiz-adv-x="409" unicode="|"/><glyph d="M78 -330l-17 37q78 33 96.5 116t18.5 265v266q0 197 213 244v14q-213 47 -213 244v266q0 94 -2 139.5t-12 103.5t-35 89t-66 49l17 37q178 -51 235.5 -152.5t57.5 -265.5v-317q0 -72 43 -111t129 -71v-35q-86 -33 -129 -72t-43 -110v-318q0 -164 -57.5 -265.5 t-235.5 -152.5z" glyph-name="braceright" horiz-adv-x="624" unicode="}"/><glyph d="M629 379q-59 0 -109.5 22.5t-80 50t-72.5 50t-91 22.5q-59 0 -94 -30.5t-35 -63.5h-41q-20 94 46.5 157.5t173.5 63.5q74 0 132 -36.5t109 -72.5t110.5 -36t94.5 30.5t35 63.5h41q20 -94 -46.5 -157.5t-172.5 -63.5z" glyph-name="asciitilde" horiz-adv-x="954" unicode="~"/><glyph d="M252 932q53 0 91 -37t38 -90q0 -51 -38 -88t-91 -37t-91 37t-38 88q0 53 38 90t91 37zM207 539h49l88 -838q14 -127 -113 -127t-112 127z" glyph-name="exclamdown" horiz-adv-x="462" unicode="¡"/><glyph d="M887 223l35 -22q-37 -104 -134.5 -161.5t-232.5 -57.5q-78 0 -145 18l-35 -125h-70l41 148q-121 51 -192.5 160.5t-71.5 258.5q0 217 139 347.5t350 130.5h19l39 143h69l-41 -150q115 -18 183.5 -76.5t68.5 -129.5q0 -45 -26.5 -70t-67.5 -25q-90 0 -129 146 q-14 55 -49 80l-182 -670q84 -55 188 -55q170 -1 244 110zM287 514q0 -184 110 -301l174 643h-8q-111 0 -193.5 -88t-82.5 -254z" glyph-name="cent" horiz-adv-x="1003" unicode="¢"/><glyph d="M1092 367q63 -43 63 -131q0 -135 -121 -211t-243 -76q-80 0 -156 43t-146.5 86t-134.5 43q-123 0 -215 -131l-57 59q119 115 175 223.5t56 278.5v33h-196l18 92h178v106q0 252 135.5 387.5t346.5 135.5q193 0 241 -113q-2 -47 -40 -84t-93 -47q-23 66 -74 109.5 t-129 43.5q-178 0 -178 -280v-258h363l-19 -92h-344v-33q0 -111 -46 -201t-122 -147q74 31 140 30q63 0 125.5 -28.5t103.5 -63.5t92 -63.5t94 -28.5q78 0 78 84q0 63 -41 121z" glyph-name="sterling" horiz-adv-x="1236" unicode="£"/><glyph d="M1034 467q0 -152 -94 -268l129 -129l-65 -66l-130 129q-117 -94 -266 -94q-147 0 -262 92l-127 -127l-65 66l127 127q-94 117 -95 270q0 147 93 266l-125 123l65 68l125 -125q115 94 264.5 94t268.5 -96l127 127l65 -68l-127 -125q92 -119 92 -264zM283 467 q0 -139 95 -239.5t232.5 -100.5t234.5 100.5t97 239.5t-97 237.5t-234.5 98.5t-232.5 -98.5t-95 -237.5z" glyph-name="currency" horiz-adv-x="1222" unicode="¤"/><glyph d="M928 1290h403v-45q-82 -16 -107.5 -33.5t-72.5 -93.5l-315 -506h262v-77h-297v-111h297v-78h-297v-139q0 -51 9 -80t42 -45t53.5 -21.5t85.5 -15.5v-45h-600v45q121 20 150 43q41 31 41 119v139h-324v78h324v108l-2 3h-322v77h272l-321 506q-49 76 -73.5 93.5 t-104.5 33.5v45h540v-45q-100 -23 -118 -43q-27 -27 8 -84l303 -485l295 485q20 35 23 56.5t-18.5 34t-38.5 17.5t-64 13q-23 4 -33 6v45z" glyph-name="yen" horiz-adv-x="1361" unicode="¥"/><glyph d="M164 645v678h82v-678h-82zM164 -358v677h82v-677h-82z" glyph-name="brokenbar" horiz-adv-x="409" unicode="¦"/><glyph d="M725 182q170 -109 170 -264q0 -125 -95 -206t-276 -81q-33 0 -64.5 3.5t-55 8.5t-49 13t-41 14t-37 17.5t-29.5 16.5t-26.5 17.5t-22.5 14.5l-6 205h43q31 -102 105.5 -175t182.5 -73q92 0 141.5 49t49.5 116.5t-57.5 119t-188.5 114.5q-63 31 -95 47.5t-92.5 56.5 t-93 75.5t-59.5 92t-27 119.5q0 100 58.5 175t161.5 112q-166 109 -166 266q0 123 95 205t269 82q39 0 77 -6t62.5 -12.5t56.5 -22.5t43 -22.5t40 -24.5l28 -18l7 -205h-43q-31 102 -103 176t-168 74q-88 0 -136 -50.5t-48 -115.5q0 -68 55 -120t184 -114q63 -31 95 -47 t92.5 -56t93.5 -76t59.5 -92t26.5 -120q0 -100 -58.5 -176t-158.5 -113zM299 543q0 -90 65.5 -149.5t202.5 -125.5q23 -10 68 -35q111 53 110 179q0 90 -65.5 149.5t-202.5 124.5l-67 33q-111 -51 -111 -176z" glyph-name="section" horiz-adv-x="1034" unicode="§"/><glyph d="M125 1167q-45 0 -75 30t-30 75t30 74.5t75 29.5t74.5 -29.5t29.5 -74.5t-29.5 -75t-74.5 -30zM530 1167q-45 0 -74.5 30t-29.5 75t29.5 74.5t74.5 29.5t75 -29.5t30 -74.5t-30 -75t-75 -30z" glyph-name="dieresis" horiz-adv-x="655" unicode="¨"/><glyph d="M700 51q-248 0 -423 175t-175 423q0 246 175.5 421t422.5 175q246 0 421 -175t175 -421q0 -248 -175 -423t-421 -175zM700.5 104q221.5 0 379 161t157.5 384q0 221 -157.5 382t-379 161t-380 -161t-158.5 -382q0 -223 158.5 -384t380 -161zM725 305q-160 0 -259 96.5 t-99 243.5q0 152 100 250t264 98q133 0 211 -49l8 -141h-39q-35 147 -194 147q-106 0 -167 -73.5t-61 -198.5q0 -139 82 -227.5t205 -88.5q113 0 164 54l21 -25q-78 -86 -236 -86z" glyph-name="copyright" horiz-adv-x="1398" unicode="©"/><glyph d="M575 827q0 -31 29 -37t70 19v-31q-45 -55 -119 -80q-43 0 -73.5 33t-30.5 74q-117 -106 -234 -107q-70 0 -114 37t-44 103q0 33 14.5 59.5t32 42.5t57.5 33.5t65.5 27t84.5 25.5q106 31 127 53q6 6 11 15v16q0 80 -36 109.5t-118 29.5q-39 0 -53 -37q-25 -66 -45.5 -91 t-48.5 -25q-51 0 -52 51q0 63 100.5 108t200.5 45q176 0 176 -200v-273zM291 772q94 0 160 86v166l-129 -39q-72 -20 -102 -49t-30 -70q0 -45 29 -69.5t72 -24.5zM113 471v82h508v-82h-508z" glyph-name="ordfeminine" horiz-adv-x="733" unicode="ª"/><glyph d="M102 461l312 282l24 -26l-186 -256l186 -256l-24 -27zM422 461l311 282l25 -26l-187 -256l187 -256l-25 -27z" glyph-name="guillemotleft" horiz-adv-x="860" unicode="«"/><glyph d="M1022 760v-467h-121v346h-758v121h879z" glyph-name="logicalnot" horiz-adv-x="1165" unicode="¬"/><glyph d="M123 479v88h614v-88h-614z" glyph-name="uni00AD" horiz-adv-x="860" unicode="­"/><glyph d="M700 51q-248 0 -423 175t-175 423q0 246 175.5 421t422.5 175q246 0 421 -175t175 -421q0 -248 -175 -423t-421 -175zM700.5 104q221.5 0 379 161t157.5 384q0 221 -157.5 382t-379 161t-380 -161t-158.5 -382q0 -223 158.5 -384t380 -161zM965 322q-98 0 -160 96 l-72 112q-45 68 -74 80v29q184 0 185 137q0 63 -41 101t-125 38q-43 0 -58.5 -11t-15.5 -36v-432q0 -33 12.5 -49t24.5 -19t45 -10v-24h-270v24q33 6 45 9.5t24.5 19.5t12.5 49v418q0 25 -4.5 38t-19.5 21.5t-22.5 10.5t-35.5 8v24h256q283 0 282 -172q0 -70 -54 -113.5 t-130 -56.5q45 -18 104 -116l31 -52q57 -90 99 -94v-24q-16 -6 -39 -6z" glyph-name="registered" horiz-adv-x="1398" unicode="®"/><glyph d="M10 1227l31 78h573l-30 -78h-574z" glyph-name="macron" horiz-adv-x="624" unicode="¯"/><glyph d="M373 768q-113 0 -192 73.5t-79 194.5q0 125 84 200t201 75q113 0 191.5 -74t78.5 -195q0 -125 -84.5 -199.5t-199.5 -74.5zM389 813q61 0 103.5 53.5t42.5 153.5q0 102 -45.5 174t-118.5 72q-61 0 -103.5 -53.5t-42.5 -153.5q0 -102 46 -174t118 -72z" glyph-name="degree" horiz-adv-x="759" unicode="°"/><glyph d="M584 782h317v-120h-317v-322h-121v322h-320v120h320v318h121v-318zM143 2v121h758v-121h-758z" glyph-name="plusminus" horiz-adv-x="1044" unicode="±"/><glyph d="M88 805l-6 22q10 8 41 35t43 37t38.5 34.5t40 39t34 37t30.5 39t21.5 36t16.5 38t5 36.5q0 41 -24.5 69.5t-71.5 28.5q-84 0 -135 -86l-23 15q25 63 79 99t120 36q72 0 119 -41t47 -102q0 -47 -35 -98.5t-72 -82t-93 -72.5t-66 -51h135q55 0 82.5 13.5t46.5 60.5h26 l-38 -143h-361z" glyph-name="uni00B2" horiz-adv-x="569" unicode="²"/><glyph d="M223 786q-55 0 -98 15.5t-43 46.5t35 31q18 0 52 -32t69 -32q47 0 85.5 34t38.5 91q0 55 -36.5 83t-92.5 28q-35 0 -73 -15l-10 25l63 24q66 25 93.5 46.5t27.5 58.5q0 66 -84 65.5t-131 -55.5l-21 17q66 96 189 96q59 0 97 -29t38 -76q0 -68 -115 -118q63 -4 108.5 -35 t45.5 -92q0 -76 -70 -126.5t-168 -50.5z" glyph-name="uni00B3" horiz-adv-x="542" unicode="³"/><glyph d="M70 1044l-47 33q57 184 141 303q41 0 89 -34.5t62 -73.5q-102 -70 -245 -228z" glyph-name="acute" horiz-adv-x="342" unicode="´"/><glyph d="M616 1290h715v-45q-104 -20 -131 -41q-39 -33 -39 -121v-1136q0 -143 -87 -224t-249 -81h-120v1480q0 49 -24 72t-85 23q-143 0 -221 -98.5t-78 -240t76 -233.5t229 -92q25 0 25 -36t-25 -36q-233 0 -387 109.5t-154 300t154.5 295t400.5 104.5zM952 -55v1177 q0 57 -18.5 80t-57 23t-57 -22.5t-18.5 -80.5v-1417q90 6 120.5 65.5t30.5 174.5z" glyph-name="paragraph" horiz-adv-x="1392" unicode="¶"/><glyph d="M252 483q-53 0 -91 37t-38 90q0 51 38 88t91 37t91 -36.5t38 -88.5q0 -53 -38 -90t-91 -37z" glyph-name="periodcentered" horiz-adv-x="462" unicode="·"/><glyph d="M150 -434l10 47q92 0 138 26.5t46 67.5q0 92 -223 92l102 201h88l-51 -100q90 0 151.5 -43t61.5 -117q0 -78 -78.5 -126t-244.5 -48z" glyph-name="cedilla" horiz-adv-x="493" unicode="¸"/><glyph d="M92 815v21q45 4 61.5 12t16.5 33v338q0 23 -8 29.5t-25 2.5l-41 -10v23l158 67l16 -12v-438q0 -25 16.5 -33t61.5 -12v-21h-256z" glyph-name="uni00B9" horiz-adv-x="440" unicode="¹"/><glyph d="M360 696q-127 0 -215 81t-88 216q0 139 94.5 223t223.5 84q127 0 215 -81.5t88 -217.5q0 -139 -94.5 -222t-223.5 -83zM379 739q68 0 115 60.5t47 175.5q0 119 -50.5 199.5t-132.5 80.5q-70 0 -116.5 -60t-46.5 -175q0 -119 51 -200t133 -81zM113 471v82h510v-82h-510z " glyph-name="ordmasculine" horiz-adv-x="735" unicode="º"/><glyph d="M438 461l-311 -283l-25 27l187 256l-187 256l25 26zM758 461l-312 -283l-24 27l186 256l-186 256l24 26z" glyph-name="guillemotright" horiz-adv-x="860" unicode="»"/><glyph d="M348 836v-21h-256v21q45 4 61.5 12t16.5 33v338q0 23 -8 29.5t-25 2.5l-41 -10v23l158 67l16 -12v-438q0 -25 16.5 -33t61.5 -12zM967 1303h57l-885 -1313h-57zM1059 66q0 -25 15.5 -33t60.5 -13v-20h-254v20q45 4 60 12.5t15 33.5v69h-221l-8 41l238 328h94v-328h76 l-9 -41h-67v-69zM768 176h188v260z" glyph-name="onequarter" horiz-adv-x="1216" unicode="¼"/><glyph d="M92 815v21q45 4 61.5 12t16.5 33v338q0 23 -8 29.5t-25 2.5l-41 -10v23l158 67l16 -12v-438q0 -25 16.5 -33t61.5 -12v-21h-256zM82 -10l885 1313h57l-885 -1313h-57zM754 0l-6 23q10 8 40.5 34.5t43 36.5t39 35t40 39t34 36.5t30.5 39t21.5 36t16.5 38t5 36.5 q0 41 -24.5 70t-71.5 29q-84 0 -136 -86l-22 14q25 63 79 99t120 36q72 0 118.5 -41t46.5 -102q0 -47 -34.5 -98.5t-71.5 -82t-93.5 -72.5t-66.5 -50h135q55 0 83 13t46 60h27l-39 -143h-360z" glyph-name="onehalf" horiz-adv-x="1234" unicode="½"/><glyph d="M461 963q0 -76 -69.5 -126.5t-168.5 -50.5q-55 0 -98 15.5t-43 46.5t35 31q18 0 52 -32t69 -32q47 0 85.5 34t38.5 91q0 55 -36.5 83t-92.5 28q-35 0 -73 -15l-10 25l63 24q66 25 93.5 46.5t27.5 58.5q0 66 -84 65.5t-131 -55.5l-21 17q66 96 189 96q59 0 97 -29t38 -76 q0 -68 -115 -118q63 -4 108.5 -35t45.5 -92zM1110 1303h57l-884 -1313h-58zM1305 66q0 -25 15 -33t60 -13v-20h-254v20q45 4 60.5 12.5t15.5 33.5v69h-221l-8 41l237 328h95v-328h75l-8 -41h-67v-69zM1014 176h188v260z" glyph-name="threequarters" horiz-adv-x="1462" unicode="¾"/><glyph d="M522 932q53 0 91 -37t38 -90q0 -51 -38 -88t-91 -37t-91 37t-38 88q0 53 38 90t91 37zM547 516q29 -80 17.5 -131t-48.5 -113.5t-78 -114t-73.5 -129t-32.5 -157.5q0 -236 268 -236q59 0 84 60q41 102 71.5 142t73.5 40q35 0 57.5 -20.5t22.5 -59.5q0 -100 -151.5 -167.5 t-308.5 -67.5q-166 0 -256.5 87t-90.5 230q0 94 43 171t103.5 127t120 97.5t98.5 107.5t35 134h45z" glyph-name="questiondown" horiz-adv-x="970" unicode="¿"/><glyph d="M743 1434q-143 158 -245 227q14 39 62 73.5t89 34.5q84 -119 142 -303zM1251 162q29 -68 55.5 -84.5t112.5 -32.5v-45h-536v45q10 2 35.5 7t36 8t27.5 9.5t23.5 13.5t12.5 18.5t3 25.5t-11 35l-105 239h-526l-100 -241q-8 -18 -10.5 -33.5t4 -26t11.5 -17.5t22.5 -13.5 t26.5 -9.5t34.5 -8t35.5 -7v-45h-383v45q68 12 87.5 18.5t43 28t42.5 68.5l483 1145h80zM408 471h469l-240 553z" glyph-name="Agrave" horiz-adv-x="1439" unicode="À"/><glyph d="M958 1661q-102 -70 -245 -227l-47 32q57 184 141 303q41 0 89 -34.5t62 -73.5zM1251 162q29 -68 55.5 -84.5t112.5 -32.5v-45h-536v45q10 2 35.5 7t36 8t27.5 9.5t23.5 13.5t12.5 18.5t3 25.5t-11 35l-105 239h-526l-100 -241q-8 -18 -10.5 -33.5t4 -26t11.5 -17.5 t22.5 -13.5t26.5 -9.5t34.5 -8t35.5 -7v-45h-383v45q68 12 87.5 18.5t43 28t42.5 68.5l483 1145h80zM408 471h469l-240 553z" glyph-name="Aacute" horiz-adv-x="1439" unicode="Á"/><glyph d="M723 1647l-256 -187l-27 25l283 311l283 -311l-27 -25zM1251 162q29 -68 55.5 -84.5t112.5 -32.5v-45h-536v45q10 2 35.5 7t36 8t27.5 9.5t23.5 13.5t12.5 18.5t3 25.5t-11 35l-105 239h-526l-100 -241q-8 -18 -10.5 -33.5t4 -26t11.5 -17.5t22.5 -13.5t26.5 -9.5 t34.5 -8t35.5 -7v-45h-383v45q68 12 87.5 18.5t43 28t42.5 68.5l483 1145h80zM408 471h469l-240 553z" glyph-name="Acircumflex" horiz-adv-x="1439" unicode="Â"/><glyph d="M424 1528h-43q-18 92 44 154.5t161 62.5q68 0 120 -37t99 -73t100 -36t85 29t32 62h43q18 -92 -44.5 -154.5t-160.5 -62.5q-53 0 -99 22.5t-72.5 50t-65.5 50t-82 22.5q-53 0 -85 -28.5t-32 -61.5zM1251 162q29 -68 55.5 -84.5t112.5 -32.5v-45h-536v45q10 2 35.5 7t36 8 t27.5 9.5t23.5 13.5t12.5 18.5t3 25.5t-11 35l-105 239h-526l-100 -241q-8 -18 -10.5 -33.5t4 -26t11.5 -17.5t22.5 -13.5t26.5 -9.5t34.5 -8t35.5 -7v-45h-383v45q68 12 87.5 18.5t43 28t42.5 68.5l483 1145h80zM408 471h469l-240 553z" glyph-name="Atilde" horiz-adv-x="1439" unicode="Ã"/><glyph d="M524 1556q-45 0 -74.5 30t-29.5 75t29.5 74.5t74.5 29.5t75 -29.5t30 -74.5t-30 -75t-75 -30zM930 1556q-45 0 -75 30t-30 75t30 74.5t75 29.5t74.5 -29.5t29.5 -74.5t-29.5 -75t-74.5 -30zM1251 162q29 -68 55.5 -84.5t112.5 -32.5v-45h-536v45q10 2 35.5 7t36 8 t27.5 9.5t23.5 13.5t12.5 18.5t3 25.5t-11 35l-105 239h-526l-100 -241q-8 -18 -10.5 -33.5t4 -26t11.5 -17.5t22.5 -13.5t26.5 -9.5t34.5 -8t35.5 -7v-45h-383v45q68 12 87.5 18.5t43 28t42.5 68.5l483 1145h80zM408 471h469l-240 553z" glyph-name="Adieresis" horiz-adv-x="1439" unicode="Ä"/><glyph d="M727 1481q-76 0 -129 52t-53 128t53 128t129 52t129 -52t53 -128t-53 -128t-129 -52zM727 1757q-41 0 -68.5 -27.5t-27.5 -68.5t27.5 -68.5t68.5 -27.5t68.5 27.5t27.5 68.5t-27.5 68.5t-68.5 27.5zM1251 162q29 -68 55.5 -84.5t112.5 -32.5v-45h-536v45q10 2 35.5 7 t36 8t27.5 9.5t23.5 13.5t12.5 18.5t3 25.5t-11 35l-105 239h-526l-100 -241q-8 -18 -10.5 -33.5t4 -26t11.5 -17.5t22.5 -13.5t26.5 -9.5t34.5 -8t35.5 -7v-45h-383v45q68 12 87.5 18.5t43 28t42.5 68.5l483 1145h80zM408 471h469l-240 553z" glyph-name="Aring" horiz-adv-x="1439" unicode="Å"/><glyph d="M1726 307h56l-84 -307h-1006v45q104 20 131 41q39 33 39 121v235h-426l-151 -264q-12 -23 -18.5 -40t-1.5 -30.5t9.5 -20.5t24.5 -15.5t28.5 -10.5t37 -8t36.5 -8v-45h-381v45q82 16 109 34.5t72 96.5l522 899h-2q68 117 -51 150q-23 6 -113 20v45h1137l18 -291h-55 q-14 117 -55 167.5t-146 50.5h-182q-121 0 -157 -27t-36 -129v-375h158q176 0 225 35t60 137h43v-414h-43q-10 102 -59.5 137t-225.5 35h-158v-387q0 -102 36 -128.5t157 -26.5h139q121 0 188.5 50t124.5 183zM477 512h385v571q0 49 -12 80z" glyph-name="AE" horiz-adv-x="1853" unicode="Æ"/><glyph d="M791 -25h-13l-39 -75q90 0 151.5 -43t61.5 -117q0 -78 -78.5 -126t-244.5 -48l10 47q92 0 138 26.5t46 67.5q0 92 -223 92l92 183q-264 31 -427 214t-163 451q0 293 197 484.5t516 191.5q242 0 399 -94q8 -186 15 -277h-74q-68 297 -371 297q-207 0 -323.5 -143 t-116.5 -395q0 -281 156.5 -458t392.5 -177q223 0 326 110l41 -43q-66 -72 -189.5 -120t-279.5 -48z" glyph-name="Ccedilla" horiz-adv-x="1361" unicode="Ç"/><glyph d="M629 1434q-143 158 -246 227q14 39 62.5 73.5t89.5 34.5q84 -119 141 -303zM1096 307h55l-84 -307h-1006v45q104 20 132 41q39 33 38 121v876q0 47 -7 76t-35.5 46.5t-42 21.5t-68.5 14q-10 2 -17 4v45h1002l18 -291h-55q-14 117 -55 167.5t-146 50.5h-182 q-121 0 -156.5 -27t-35.5 -129v-375h157q176 0 225.5 35t59.5 137h43v-414h-43q-10 102 -59.5 137t-225.5 35h-157v-387q0 -102 35.5 -128.5t156.5 -26.5h139q121 0 189 50t125 183z" glyph-name="Egrave" horiz-adv-x="1222" unicode="È"/><glyph d="M844 1661q-102 -70 -246 -227l-47 32q57 184 141 303q41 0 89.5 -34.5t62.5 -73.5zM1096 307h55l-84 -307h-1006v45q104 20 132 41q39 33 38 121v876q0 47 -7 76t-35.5 46.5t-42 21.5t-68.5 14q-10 2 -17 4v45h1002l18 -291h-55q-14 117 -55 167.5t-146 50.5h-182 q-121 0 -156.5 -27t-35.5 -129v-375h157q176 0 225.5 35t59.5 137h43v-414h-43q-10 102 -59.5 137t-225.5 35h-157v-387q0 -102 35.5 -128.5t156.5 -26.5h139q121 0 189 50t125 183z" glyph-name="Eacute" horiz-adv-x="1222" unicode="É"/><glyph d="M608 1647l-256 -187l-26 25l282 311l283 -311l-27 -25zM1096 307h55l-84 -307h-1006v45q104 20 132 41q39 33 38 121v876q0 47 -7 76t-35.5 46.5t-42 21.5t-68.5 14q-10 2 -17 4v45h1002l18 -291h-55q-14 117 -55 167.5t-146 50.5h-182q-121 0 -156.5 -27t-35.5 -129 v-375h157q176 0 225.5 35t59.5 137h43v-414h-43q-10 102 -59.5 137t-225.5 35h-157v-387q0 -102 35.5 -128.5t156.5 -26.5h139q121 0 189 50t125 183z" glyph-name="Ecircumflex" horiz-adv-x="1222" unicode="Ê"/><glyph d="M410 1556q-45 0 -75 30t-30 75t30 74.5t75 29.5t74.5 -29.5t29.5 -74.5t-29.5 -75t-74.5 -30zM815 1556q-45 0 -74.5 30t-29.5 75t29.5 74.5t74.5 29.5t75 -29.5t30 -74.5t-30 -75t-75 -30zM1096 307h55l-84 -307h-1006v45q104 20 132 41q39 33 38 121v876q0 47 -7 76 t-35.5 46.5t-42 21.5t-68.5 14q-10 2 -17 4v45h1002l18 -291h-55q-14 117 -55 167.5t-146 50.5h-182q-121 0 -156.5 -27t-35.5 -129v-375h157q176 0 225.5 35t59.5 137h43v-414h-43q-10 102 -59.5 137t-225.5 35h-157v-387q0 -102 35.5 -128.5t156.5 -26.5h139q121 0 189 50 t125 183z" glyph-name="Edieresis" horiz-adv-x="1222" unicode="Ë"/><glyph d="M358 1434q-143 158 -245 227q14 39 62 73.5t89 34.5q84 -119 142 -303zM61 0v45q104 20 132 41q39 33 38 121v876q0 47 -7 76t-35.5 46.5t-42 21.5t-68.5 14q-10 2 -17 4v45h560v-45q-104 -20 -132 -41q-39 -33 -38 -121v-876q0 -47 7 -76t35.5 -46t42 -21.5t68.5 -14.5 q10 -2 17 -4v-45h-560z" glyph-name="Igrave" horiz-adv-x="681" unicode="Ì"/><glyph d="M328 1434l-47 32q57 184 141 303q41 0 89 -34.5t62 -73.5q-102 -69 -245 -227zM61 0v45q104 20 132 41q39 33 38 121v876q0 47 -7 76t-35.5 46.5t-42 21.5t-68.5 14q-10 2 -17 4v45h560v-45q-104 -20 -132 -41q-39 -33 -38 -121v-876q0 -47 7 -76t35.5 -46t42 -21.5 t68.5 -14.5q10 -2 17 -4v-45h-560z" glyph-name="Iacute" horiz-adv-x="681" unicode="Í"/><glyph d="M338 1796l283 -311l-27 -25l-256 187l-256 -187l-27 25zM61 0v45q104 20 132 41q39 33 38 121v876q0 47 -7 76t-35.5 46.5t-42 21.5t-68.5 14q-10 2 -17 4v45h560v-45q-104 -20 -132 -41q-39 -33 -38 -121v-876q0 -47 7 -76t35.5 -46t42 -21.5t68.5 -14.5q10 -2 17 -4 v-45h-560z" glyph-name="Icircumflex" horiz-adv-x="681" unicode="Î"/><glyph d="M139 1556q-45 0 -74.5 30t-29.5 75t29.5 74.5t74.5 29.5t75 -29.5t30 -74.5t-30 -75t-75 -30zM545 1556q-45 0 -75 30t-30 75t30 74.5t75 29.5t74.5 -29.5t29.5 -74.5t-29.5 -75t-74.5 -30zM61 0v45q104 20 132 41q39 33 38 121v876q0 47 -7 76t-35.5 46.5t-42 21.5 t-68.5 14q-10 2 -17 4v45h560v-45q-104 -20 -132 -41q-39 -33 -38 -121v-876q0 -47 7 -76t35.5 -46t42 -21.5t68.5 -14.5q10 -2 17 -4v-45h-560z" glyph-name="Idieresis" horiz-adv-x="681" unicode="Ï"/><glyph d="M602 1290q117 0 223.5 -21.5t201.5 -71.5t165 -121.5t110.5 -180.5t40.5 -242q0 -170 -60 -299t-165.5 -203.5t-235.5 -112.5t-280 -38h-530v45q104 20 131 41q39 33 39 121v397q-61 0 -181 -4l21 74q106 -4 160 -4v413q0 47 -7.5 76t-36 46.5t-42 21.5t-68.5 14 q-10 2 -16 4v45h530zM659 74q444 0 445 559q0 584 -522 584h-121v-549q137 0 276 6l-20 -74q-129 6 -256 6v-336q0 -109 41.5 -152.5t156.5 -43.5z" glyph-name="Eth" horiz-adv-x="1445" unicode="Ð"/><glyph d="M424 1528h-43q-18 92 44 154.5t161 62.5q68 0 120 -37t99 -73t100 -36t85 29t32 62h43q18 -92 -44.5 -154.5t-160.5 -62.5q-53 0 -99 22.5t-72.5 50t-65.5 50t-82 22.5q-53 0 -85 -28.5t-32 -61.5zM948 1290h443v-45q-88 0 -131 -32.5t-43 -129.5v-1083h-93l-805 1090 v-883q0 -47 8.5 -76t39 -46t45 -21.5t73.5 -14.5q12 -2 19 -4v-45h-443v45q106 20 134 41q41 33 41 121v876q0 47 -8.5 76t-36 46.5t-44 21.5t-67.5 14q-12 2 -19 4v45h369l703 -948v741q0 96 -44.5 129t-140.5 33v45z" glyph-name="Ntilde" horiz-adv-x="1452" unicode="Ñ"/><glyph d="M774 1434q-143 158 -246 227q14 39 62.5 73.5t89.5 34.5q84 -119 141 -303zM754 -25q-283 0 -467.5 190.5t-184.5 477.5t186.5 483.5t473.5 196.5q283 0 467 -191.5t184 -478t-186 -482.5t-473 -196zM788 49q172 0 281 145.5t109 397.5q0 289 -128 473t-323 184 q-172 0 -280.5 -146.5t-108.5 -397.5q0 -287 127.5 -471.5t322.5 -184.5z" glyph-name="Ograve" horiz-adv-x="1515" unicode="Ò"/><glyph d="M743 1434l-47 32q57 184 142 303q41 0 89 -34.5t62 -73.5q-103 -69 -246 -227zM754 -25q-283 0 -467.5 190.5t-184.5 477.5t186.5 483.5t473.5 196.5q283 0 467 -191.5t184 -478t-186 -482.5t-473 -196zM788 49q172 0 281 145.5t109 397.5q0 289 -128 473t-323 184 q-172 0 -280.5 -146.5t-108.5 -397.5q0 -287 127.5 -471.5t322.5 -184.5z" glyph-name="Oacute" horiz-adv-x="1515" unicode="Ó"/><glyph d="M754 1796l282 -311l-26 -25l-256 187l-256 -187l-27 25zM754 -25q-283 0 -467.5 190.5t-184.5 477.5t186.5 483.5t473.5 196.5q283 0 467 -191.5t184 -478t-186 -482.5t-473 -196zM788 49q172 0 281 145.5t109 397.5q0 289 -128 473t-323 184q-172 0 -280.5 -146.5 t-108.5 -397.5q0 -287 127.5 -471.5t322.5 -184.5z" glyph-name="Ocircumflex" horiz-adv-x="1515" unicode="Ô"/><glyph d="M891 1473q-55 0 -100.5 22.5t-72 50t-65.5 50t-82 22.5q-53 0 -84.5 -28.5t-31.5 -61.5h-43q-18 92 44 154.5t160 62.5q68 0 120 -37t99.5 -73t100.5 -36t85 29t32 62h43q18 -92 -44.5 -154.5t-160.5 -62.5zM754 -25q-283 0 -467.5 190.5t-184.5 477.5t186.5 483.5 t473.5 196.5q283 0 467 -191.5t184 -478t-186 -482.5t-473 -196zM788 49q172 0 281 145.5t109 397.5q0 289 -128 473t-323 184q-172 0 -280.5 -146.5t-108.5 -397.5q0 -287 127.5 -471.5t322.5 -184.5z" glyph-name="Otilde" horiz-adv-x="1515" unicode="Õ"/><glyph d="M555 1556q-45 0 -74.5 30t-29.5 75t29.5 74.5t74.5 29.5t74.5 -29.5t29.5 -74.5t-29.5 -75t-74.5 -30zM960.5 1556q-45.5 0 -75 30t-29.5 75t29.5 74.5t75 29.5t75 -29.5t29.5 -74.5t-29.5 -75t-75 -30zM754 -25q-283 0 -467.5 190.5t-184.5 477.5t186.5 483.5 t473.5 196.5q283 0 467 -191.5t184 -478t-186 -482.5t-473 -196zM788 49q172 0 281 145.5t109 397.5q0 289 -128 473t-323 184q-172 0 -280.5 -146.5t-108.5 -397.5q0 -287 127.5 -471.5t322.5 -184.5z" glyph-name="Odieresis" horiz-adv-x="1515" unicode="Ö"/><glyph d="M778 748l-231 -232l231 -233l-86 -86l-231 231l-232 -231l-86 86l232 233l-232 232l86 86l232 -232l231 232z" glyph-name="multiply" horiz-adv-x="921" unicode="×"/><glyph d="M1130 1214q133 -90 208 -236.5t75 -324.5q0 -287 -186.5 -482.5t-472.5 -195.5q-188 0 -340 91l-105 -166l-39 26l103 166q-127 88 -199 232.5t-72 318.5q0 287 186.5 483.5t473.5 196.5q178 0 330 -84l114 184l39 -26zM338 705q0 -283 127 -469l547 876 q-119 137 -285 137q-172 0 -280.5 -146t-108.5 -398zM788 49q172 0 281 145.5t109 397.5q0 293 -136 481l-548 -876q120 -148 294 -148z" glyph-name="Oslash" horiz-adv-x="1515" unicode="Ø"/><glyph d="M752 1434q-143 158 -246 227q14 39 62 73.5t89 34.5q84 -119 142 -303zM733 -25q-94 0 -175 21.5t-162 76t-128 167t-47 274.5v569q0 47 -7 76t-35.5 46.5t-42 21.5t-68.5 14q-10 2 -17 4v45h561v-45q-104 -20 -131 -41q-39 -33 -39 -121v-596q0 -424 344 -424 q63 0 120 15.5t115 55.5t93 123t35 202v624q0 47 -8 76t-36 46.5t-44.5 21.5t-67.5 14q-12 2 -18 4v45h444v-45q-115 -20 -141 -41q-43 -33 -43 -121v-583q0 -150 -42 -256.5t-117 -162.5t-159 -81t-184 -25z" glyph-name="Ugrave" horiz-adv-x="1470" unicode="Ù"/><glyph d="M721 1434l-47 32q57 184 141 303q41 0 89 -34.5t63 -73.5q-103 -69 -246 -227zM733 -25q-94 0 -175 21.5t-162 76t-128 167t-47 274.5v569q0 47 -7 76t-35.5 46.5t-42 21.5t-68.5 14q-10 2 -17 4v45h561v-45q-104 -20 -131 -41q-39 -33 -39 -121v-596q0 -424 344 -424 q63 0 120 15.5t115 55.5t93 123t35 202v624q0 47 -8 76t-36 46.5t-44.5 21.5t-67.5 14q-12 2 -18 4v45h444v-45q-115 -20 -141 -41q-43 -33 -43 -121v-583q0 -150 -42 -256.5t-117 -162.5t-159 -81t-184 -25z" glyph-name="Uacute" horiz-adv-x="1470" unicode="Ú"/><glyph d="M731 1796l283 -311l-27 -25l-256 187l-256 -187l-26 25zM733 -25q-94 0 -175 21.5t-162 76t-128 167t-47 274.5v569q0 47 -7 76t-35.5 46.5t-42 21.5t-68.5 14q-10 2 -17 4v45h561v-45q-104 -20 -131 -41q-39 -33 -39 -121v-596q0 -424 344 -424q63 0 120 15.5t115 55.5 t93 123t35 202v624q0 47 -8 76t-36 46.5t-44.5 21.5t-67.5 14q-12 2 -18 4v45h444v-45q-115 -20 -141 -41q-43 -33 -43 -121v-583q0 -150 -42 -256.5t-117 -162.5t-159 -81t-184 -25z" glyph-name="Ucircumflex" horiz-adv-x="1470" unicode="Û"/><glyph d="M532.5 1556q-45.5 0 -75 30t-29.5 75t29.5 74.5t75 29.5t75 -29.5t29.5 -74.5t-29.5 -75t-75 -30zM938 1556q-45 0 -74.5 30t-29.5 75t29.5 74.5t74.5 29.5t74.5 -29.5t29.5 -74.5t-29.5 -75t-74.5 -30zM733 -25q-94 0 -175 21.5t-162 76t-128 167t-47 274.5v569 q0 47 -7 76t-35.5 46.5t-42 21.5t-68.5 14q-10 2 -17 4v45h561v-45q-104 -20 -131 -41q-39 -33 -39 -121v-596q0 -424 344 -424q63 0 120 15.5t115 55.5t93 123t35 202v624q0 47 -8 76t-36 46.5t-44.5 21.5t-67.5 14q-12 2 -18 4v45h444v-45q-115 -20 -141 -41 q-43 -33 -43 -121v-583q0 -150 -42 -256.5t-117 -162.5t-159 -81t-184 -25z" glyph-name="Udieresis" horiz-adv-x="1470" unicode="Ü"/><glyph d="M913 1661q-102 -70 -245 -227l-47 32q57 184 141 303q41 0 89 -34.5t62 -73.5zM928 1290h403v-45q-82 -16 -107.5 -33.5t-72.5 -93.5l-350 -561v-350q0 -51 9 -80t42 -45t53.5 -21.5t85.5 -15.5v-45h-600v45q121 20 150 43q41 31 41 119v325l-373 586q-49 76 -73.5 93.5 t-104.5 33.5v45h540v-45q-100 -23 -118 -43q-27 -27 8 -84l303 -485l295 485q20 35 23 56.5t-18.5 34t-38.5 17.5t-64 13q-23 4 -33 6v45z" glyph-name="Yacute" horiz-adv-x="1361" unicode="Ý"/><glyph d="M1126 643q0 -125 -54 -210t-155.5 -129t-211 -61.5t-254.5 -21.5v-14q0 -47 7 -76t35.5 -46t42 -21.5t68.5 -14.5q10 -2 17 -4v-45h-560v45q104 20 132 41q39 33 38 121v876q0 47 -7 76t-35.5 46.5t-42 21.5t-68.5 14q-10 2 -17 4v45h560v-45q-104 -20 -132 -41 q-39 -33 -38 -121v-18q145 -4 254.5 -21.5t211 -61.5t155.5 -129t54 -210zM887 643q0 170 -103.5 251t-332.5 95v-692q229 14 332.5 95t103.5 251z" glyph-name="Thorn" horiz-adv-x="1208" unicode="Þ"/><glyph d="M952 516q143 -143 144 -252q0 -80 -84 -149.5t-190.5 -105.5t-194.5 -36q-72 0 -117 27t-45 74q0 37 26.5 57.5t59.5 20.5q43 0 120 -48.5t105 -48.5q45 0 92 46t47 104q0 86 -102 188l-231 232q70 76 101.5 113.5t61 103t29.5 135.5q0 98 -46 176t-142 78 q-98 0 -144.5 -75t-46.5 -193v-963h-344v45q100 18 125 41t25 70v805q0 150 103.5 247t281.5 97q180 0 278.5 -86t96.5 -213q-2 -152 -203 -295z" glyph-name="germandbls" horiz-adv-x="1157" unicode="ß"/><glyph d="M532 1044q-143 158 -245 228q14 39 62 73.5t89 34.5q84 -119 142 -303zM872 188q0 -49 45.5 -58t108.5 28v-47q-76 -84 -184 -125q-68 0 -115 51t-49 117q-172 -168 -361 -168q-109 0 -177 58t-68 159q0 51 21.5 92t51 68.5t87 53t104.5 41t131 38.5q76 20 103.5 28 t60.5 27.5t47 46.5v29q0 123 -55.5 169t-182.5 46q-61 0 -84 -58q-41 -104 -71.5 -143t-73.5 -39q-35 0 -57.5 20.5t-22.5 59.5q0 68 79 124t185.5 85t202.5 29q143 0 208.5 -78t65.5 -234v-420zM432 100q141 0 246 136v253l-201 -57q-109 -31 -155 -76t-46 -108 q0 -72 44 -110t112 -38z" glyph-name="agrave" horiz-adv-x="1067" unicode="à"/><glyph d="M748 1272q-102 -70 -246 -228l-47 33q57 184 141 303q41 0 89.5 -34.5t62.5 -73.5zM872 188q0 -49 45.5 -58t108.5 28v-47q-76 -84 -184 -125q-68 0 -115 51t-49 117q-172 -168 -361 -168q-109 0 -177 58t-68 159q0 51 21.5 92t51 68.5t87 53t104.5 41t131 38.5 q76 20 103.5 28t60.5 27.5t47 46.5v29q0 123 -55.5 169t-182.5 46q-61 0 -84 -58q-41 -104 -71.5 -143t-73.5 -39q-35 0 -57.5 20.5t-22.5 59.5q0 68 79 124t185.5 85t202.5 29q143 0 208.5 -78t65.5 -234v-420zM432 100q141 0 246 136v253l-201 -57q-109 -31 -155 -76 t-46 -108q0 -72 44 -110t112 -38z" glyph-name="aacute" horiz-adv-x="1067" unicode="á"/><glyph d="M512 1257l-256 -186l-27 25l283 311l283 -311l-27 -25zM872 188q0 -49 45.5 -58t108.5 28v-47q-76 -84 -184 -125q-68 0 -115 51t-49 117q-172 -168 -361 -168q-109 0 -177 58t-68 159q0 51 21.5 92t51 68.5t87 53t104.5 41t131 38.5q76 20 103.5 28t60.5 27.5t47 46.5 v29q0 123 -55.5 169t-182.5 46q-61 0 -84 -58q-41 -104 -71.5 -143t-73.5 -39q-35 0 -57.5 20.5t-22.5 59.5q0 68 79 124t185.5 85t202.5 29q143 0 208.5 -78t65.5 -234v-420zM432 100q141 0 246 136v253l-201 -57q-109 -31 -155 -76t-46 -108q0 -72 44 -110t112 -38z" glyph-name="acircumflex" horiz-adv-x="1067" unicode="â"/><glyph d="M213 1139h-43q-18 92 44 154.5t161 62.5q68 0 120 -37t99 -73t100.5 -36t85 29t31.5 61h43q18 -92 -44 -154.5t-161 -62.5q-55 0 -100 22.5t-71.5 50.5t-65.5 50.5t-82 22.5q-53 0 -85 -28.5t-32 -61.5zM872 188q0 -49 45.5 -58t108.5 28v-47q-76 -84 -184 -125 q-68 0 -115 51t-49 117q-172 -168 -361 -168q-109 0 -177 58t-68 159q0 51 21.5 92t51 68.5t87 53t104.5 41t131 38.5q76 20 103.5 28t60.5 27.5t47 46.5v29q0 123 -55.5 169t-182.5 46q-61 0 -84 -58q-41 -104 -71.5 -143t-73.5 -39q-35 0 -57.5 20.5t-22.5 59.5 q0 68 79 124t185.5 85t202.5 29q143 0 208.5 -78t65.5 -234v-420zM432 100q141 0 246 136v253l-201 -57q-109 -31 -155 -76t-46 -108q0 -72 44 -110t112 -38z" glyph-name="atilde" horiz-adv-x="1067" unicode="ã"/><glyph d="M313 1167q-45 0 -74.5 30t-29.5 75t29.5 74.5t74.5 29.5t75 -29.5t30 -74.5t-30 -75t-75 -30zM719 1167q-45 0 -75 30t-30 75t30 74.5t75 29.5t74.5 -29.5t29.5 -74.5t-29.5 -75t-74.5 -30zM872 188q0 -49 45.5 -58t108.5 28v-47q-76 -84 -184 -125q-68 0 -115 51 t-49 117q-172 -168 -361 -168q-109 0 -177 58t-68 159q0 51 21.5 92t51 68.5t87 53t104.5 41t131 38.5q76 20 103.5 28t60.5 27.5t47 46.5v29q0 123 -55.5 169t-182.5 46q-61 0 -84 -58q-41 -104 -71.5 -143t-73.5 -39q-35 0 -57.5 20.5t-22.5 59.5q0 68 79 124t185.5 85 t202.5 29q143 0 208.5 -78t65.5 -234v-420zM432 100q141 0 246 136v253l-201 -57q-109 -31 -155 -76t-46 -108q0 -72 44 -110t112 -38z" glyph-name="adieresis" horiz-adv-x="1067" unicode="ä"/><glyph d="M516 1092q-76 0 -129 52t-53 128t53 128t129 52t129 -52t53 -128t-53 -128t-129 -52zM516 1368q-41 0 -68.5 -27.5t-27.5 -68.5t27.5 -68.5t68.5 -27.5t68.5 27.5t27.5 68.5t-27.5 68.5t-68.5 27.5zM872 188q0 -49 45.5 -58t108.5 28v-47q-76 -84 -184 -125 q-68 0 -115 51t-49 117q-172 -168 -361 -168q-109 0 -177 58t-68 159q0 51 21.5 92t51 68.5t87 53t104.5 41t131 38.5q76 20 103.5 28t60.5 27.5t47 46.5v29q0 123 -55.5 169t-182.5 46q-61 0 -84 -58q-41 -104 -71.5 -143t-73.5 -39q-35 0 -57.5 20.5t-22.5 59.5 q0 68 79 124t185.5 85t202.5 29q143 0 208.5 -78t65.5 -234v-420zM432 100q141 0 246 136v253l-201 -57q-109 -31 -155 -76t-46 -108q0 -72 44 -110t112 -38z" glyph-name="aring" horiz-adv-x="1067" unicode="å"/><glyph d="M1235 113q170 0 244 110l34 -22q-37 -104 -134 -161.5t-230 -57.5q-135 0 -246.5 60t-171.5 167q-199 -223 -414 -223q-109 0 -177 58t-68 159q0 51 21.5 92t51 68.5t87 53t104.5 41t131 38.5q76 20 103.5 28t60.5 27.5t47 46.5v29q0 123 -55.5 169t-182.5 46 q-61 0 -84 -58q-41 -104 -71.5 -143t-73.5 -39q-35 0 -57.5 20.5t-22.5 59.5q0 68 79 124t185.5 85t202.5 29q170 0 231 -111q131 111 308 111q211 0 313 -141.5t49 -280.5h-625q8 -170 105.5 -277.5t255.5 -107.5zM1116 852q-96 0 -163.5 -75t-75.5 -212h438 q16 106 -36 196.5t-163 90.5zM432 100q80 0 155 50.5t115 119.5q-29 82 -28 174q0 31 2 45l-199 -57q-109 -31 -155 -76t-46 -108q0 -72 44 -110t112 -38z" glyph-name="ae" horiz-adv-x="1605" unicode="æ"/><glyph d="M922 201q-37 -104 -134.5 -161.5t-232.5 -57.5l-41 -82q90 0 151.5 -43t61.5 -117q0 -78 -79 -126t-245 -48l11 47q92 0 138 26.5t46 67.5q0 92 -223 92l96 189q-174 25 -281.5 146.5t-107.5 307.5q0 217 139 347.5t350 130.5q150 0 244 -63.5t94 -149.5q0 -45 -26.5 -70 t-67.5 -25q-90 0 -129 146q-27 98 -123 98q-111 0 -193.5 -88t-82.5 -254q0 -174 99 -287.5t257 -113.5q170 0 244 110z" glyph-name="ccedilla" horiz-adv-x="1003" unicode="ç"/><glyph d="M526 1044q-143 158 -245 228q14 39 62 73.5t89 34.5q84 -119 141 -303zM643 113q170 0 244 110l35 -22q-37 -104 -134.5 -161.5t-230.5 -57.5q-203 0 -339 127t-136 335.5t132 342t331 133.5q211 0 313.5 -141.5t48.5 -280.5h-624q8 -170 105 -277.5t255 -107.5zM524 852 q-96 0 -163.5 -75t-75.5 -212h438q16 106 -36 196.5t-163 90.5z" glyph-name="egrave" horiz-adv-x="1015" unicode="è"/><glyph d="M741 1272q-102 -70 -245 -228l-47 33q57 184 141 303q41 0 89 -34.5t62 -73.5zM643 113q170 0 244 110l35 -22q-37 -104 -134.5 -161.5t-230.5 -57.5q-203 0 -339 127t-136 335.5t132 342t331 133.5q211 0 313.5 -141.5t48.5 -280.5h-624q8 -170 105 -277.5t255 -107.5z M524 852q-96 0 -163.5 -75t-75.5 -212h438q16 106 -36 196.5t-163 90.5z" glyph-name="eacute" horiz-adv-x="1015" unicode="é"/><glyph d="M506 1257l-256 -186l-27 25l283 311l282 -311l-26 -25zM643 113q170 0 244 110l35 -22q-37 -104 -134.5 -161.5t-230.5 -57.5q-203 0 -339 127t-136 335.5t132 342t331 133.5q211 0 313.5 -141.5t48.5 -280.5h-624q8 -170 105 -277.5t255 -107.5zM524 852 q-96 0 -163.5 -75t-75.5 -212h438q16 106 -36 196.5t-163 90.5z" glyph-name="ecircumflex" horiz-adv-x="1015" unicode="ê"/><glyph d="M307 1167q-45 0 -74.5 30t-29.5 75t29.5 74.5t74.5 29.5t75 -29.5t30 -74.5t-30 -75t-75 -30zM713 1167q-45 0 -75 30t-30 75t30 74.5t75 29.5t74.5 -29.5t29.5 -74.5t-29.5 -75t-74.5 -30zM643 113q170 0 244 110l35 -22q-37 -104 -134.5 -161.5t-230.5 -57.5 q-203 0 -339 127t-136 335.5t132 342t331 133.5q211 0 313.5 -141.5t48.5 -280.5h-624q8 -170 105 -277.5t255 -107.5zM524 852q-96 0 -163.5 -75t-75.5 -212h438q16 106 -36 196.5t-163 90.5z" glyph-name="edieresis" horiz-adv-x="1015" unicode="ë"/><glyph d="M301 1044q-143 158 -246 228q14 39 62.5 73.5t89.5 34.5q84 -119 141 -303zM61 0v45q53 10 75 15.5t41.5 29t19.5 66.5v489q0 61 -26 90t-110 39v41q145 27 287 119l43 -39v-739q0 -43 19.5 -66.5t41 -29t74.5 -15.5v-45h-465z" glyph-name="igrave" horiz-adv-x="587" unicode="ì"/><glyph d="M270 1044l-47 33q57 184 142 303q41 0 89 -34.5t62 -73.5q-103 -70 -246 -228zM61 0v45q53 10 75 15.5t41.5 29t19.5 66.5v489q0 61 -26 90t-110 39v41q145 27 287 119l43 -39v-739q0 -43 19.5 -66.5t41 -29t74.5 -15.5v-45h-465z" glyph-name="iacute" horiz-adv-x="587" unicode="í"/><glyph d="M281 1407l282 -311l-26 -25l-256 186l-256 -186l-27 25zM61 0v45q53 10 75 15.5t41.5 29t19.5 66.5v489q0 61 -26 90t-110 39v41q145 27 287 119l43 -39v-739q0 -43 19.5 -66.5t41 -29t74.5 -15.5v-45h-465z" glyph-name="icircumflex" horiz-adv-x="587" unicode="î"/><glyph d="M82 1167q-45 0 -75 30t-30 75t30 74.5t75 29.5t74.5 -29.5t29.5 -74.5t-29.5 -75t-74.5 -30zM487 1167q-45 0 -74.5 30t-29.5 75t29.5 74.5t74.5 29.5t75 -29.5t30 -74.5t-30 -75t-75 -30zM61 0v45q53 10 75 15.5t41.5 29t19.5 66.5v489q0 61 -26 90t-110 39v41 q145 27 287 119l43 -39v-739q0 -43 19.5 -66.5t41 -29t74.5 -15.5v-45h-465z" glyph-name="idieresis" horiz-adv-x="587" unicode="ï"/><glyph d="M739 1114q137 -109 217 -261.5t82 -326.5q0 -254 -130 -399t-361 -145q-195 0 -330 127t-135 335q0 217 143.5 346.5t343.5 129.5q90 0 164 -27q-49 98 -127 176q-176 -59 -342 -125v84q113 31 291 88q-143 117 -317 133l30 56q217 -12 412 -148q184 66 305 115v-84z M575 51q246 0 246 393q0 172 -77.5 289t-200.5 117q-104 0 -176 -92t-72 -273q0 -184 77.5 -309t202.5 -125z" glyph-name="eth" horiz-adv-x="1140" unicode="ð"/><glyph d="M715 1083q-84 0 -171 73t-149 73q-53 0 -84.5 -29t-31.5 -61h-43q-18 92 44 154.5t160 62.5q68 0 120 -37t99.5 -73t100.5 -36t85 29t32 61h43q18 -92 -44.5 -154.5t-160.5 -62.5zM51 0v45q53 10 74.5 15.5t41 29t19.5 66.5v489q0 61 -25.5 90t-109.5 39v41 q172 27 307 119l41 -39l-55 -172h33q160 197 354 197q254 0 254 -316v-448q0 -43 19.5 -66.5t41 -29t74.5 -15.5v-45h-458v45q51 10 70.5 15.5t39 29t19.5 66.5v436q0 197 -162 196q-139 0 -248 -133v-499q0 -43 19.5 -66.5t39 -29t70.5 -15.5v-45h-459z" glyph-name="ntilde" horiz-adv-x="1171" unicode="ñ"/><glyph d="M582 1044q-143 158 -246 228q14 39 62 73.5t89 34.5q84 -119 142 -303zM553 -18q-195 0 -333 127t-138 335q0 217 146.5 346.5t346.5 129.5q195 0 333.5 -127t138.5 -336q0 -217 -146.5 -346t-347.5 -129zM580 49q106 0 180 94.5t74 272.5q0 182 -80 309t-205 127 q-106 0 -180 -94t-74 -273q0 -182 80 -309t205 -127z" glyph-name="ograve" horiz-adv-x="1128" unicode="ò"/><glyph d="M551 1044l-47 33q57 184 141 303q41 0 89 -34.5t63 -73.5q-103 -70 -246 -228zM553 -18q-195 0 -333 127t-138 335q0 217 146.5 346.5t346.5 129.5q195 0 333.5 -127t138.5 -336q0 -217 -146.5 -346t-347.5 -129zM580 49q106 0 180 94.5t74 272.5q0 182 -80 309t-205 127 q-106 0 -180 -94t-74 -273q0 -182 80 -309t205 -127z" glyph-name="oacute" horiz-adv-x="1128" unicode="ó"/><glyph d="M561 1407l283 -311l-27 -25l-256 186l-256 -186l-26 25zM553 -18q-195 0 -333 127t-138 335q0 217 146.5 346.5t346.5 129.5q195 0 333.5 -127t138.5 -336q0 -217 -146.5 -346t-347.5 -129zM580 49q106 0 180 94.5t74 272.5q0 182 -80 309t-205 127q-106 0 -180 -94 t-74 -273q0 -182 80 -309t205 -127z" glyph-name="ocircumflex" horiz-adv-x="1128" unicode="ô"/><glyph d="M698 1083q-55 0 -100 22.5t-71.5 50.5t-65.5 50.5t-82 22.5q-53 0 -85 -29t-32 -61h-43q-18 92 44.5 154.5t160.5 62.5q68 0 120 -37t99 -73t100.5 -36t85 29t31.5 61h43q18 -92 -44.5 -154.5t-160.5 -62.5zM553 -18q-195 0 -333 127t-138 335q0 217 146.5 346.5 t346.5 129.5q195 0 333.5 -127t138.5 -336q0 -217 -146.5 -346t-347.5 -129zM580 49q106 0 180 94.5t74 272.5q0 182 -80 309t-205 127q-106 0 -180 -94t-74 -273q0 -182 80 -309t205 -127z" glyph-name="otilde" horiz-adv-x="1128" unicode="õ"/><glyph d="M362.5 1167q-45.5 0 -75 30t-29.5 75t29.5 74.5t75 29.5t75 -29.5t29.5 -74.5t-29.5 -75t-75 -30zM768 1167q-45 0 -74.5 30t-29.5 75t29.5 74.5t74.5 29.5t74.5 -29.5t29.5 -74.5t-29.5 -75t-74.5 -30zM553 -18q-195 0 -333 127t-138 335q0 217 146.5 346.5t346.5 129.5 q195 0 333.5 -127t138.5 -336q0 -217 -146.5 -346t-347.5 -129zM580 49q106 0 180 94.5t74 272.5q0 182 -80 309t-205 127q-106 0 -180 -94t-74 -273q0 -182 80 -309t205 -127z" glyph-name="odieresis" horiz-adv-x="1128" unicode="ö"/><glyph d="M526 735q-37 0 -64.5 28t-27.5 66q0 37 27.5 65t64.5 28t64.5 -28t27.5 -65q0 -39 -27.5 -66.5t-64.5 -27.5zM143 455v120h758v-120h-758zM526 109q-37 0 -64.5 27.5t-27.5 66.5q0 37 27.5 64.5t64.5 27.5t64.5 -27.5t27.5 -64.5q0 -39 -27.5 -66.5t-64.5 -27.5z" glyph-name="divide" horiz-adv-x="1044" unicode="÷"/><glyph d="M840 846q207 -131 207 -389q0 -217 -146.5 -346t-347.5 -129q-119 0 -221 49l-84 -133l-39 28l80 129q-96 59 -151.5 159.5t-55.5 229.5q0 217 146.5 346.5t346.5 129.5q125 0 222 -52l86 138l39 -29zM295 485q0 -180 76 -301l358 576q-76 92 -180 92q-106 0 -180 -94.5 t-74 -272.5zM580 49q106 0 180 94.5t74 272.5q0 176 -74 301l-361 -576q77 -92 181 -92z" glyph-name="oslash" horiz-adv-x="1128" unicode="ø"/><glyph d="M606 1044q-143 158 -246 228q14 39 62.5 73.5t89.5 34.5q84 -119 141 -303zM442 -18q-266 0 -266 315v465q0 37 -17.5 56.5t-39 25.5t-68.5 14v43q197 -10 320 12v-608q0 -190 166 -190q131 0 249 108v539q0 37 -17 56.5t-38.5 25.5t-68.5 14v43q197 -10 319 12v-733 q0 -61 25.5 -91t109.5 -44v-45h-309l12 160h-26q-175 -178 -351 -178z" glyph-name="ugrave" horiz-adv-x="1167" unicode="ù"/><glyph d="M575 1044l-47 33q57 184 142 303q41 0 89 -34.5t62 -73.5q-103 -70 -246 -228zM442 -18q-266 0 -266 315v465q0 37 -17.5 56.5t-39 25.5t-68.5 14v43q197 -10 320 12v-608q0 -190 166 -190q131 0 249 108v539q0 37 -17 56.5t-38.5 25.5t-68.5 14v43q197 -10 319 12v-733 q0 -61 25.5 -91t109.5 -44v-45h-309l12 160h-26q-175 -178 -351 -178z" glyph-name="uacute" horiz-adv-x="1167" unicode="ú"/><glyph d="M586 1407l282 -311l-26 -25l-256 186l-256 -186l-27 25zM442 -18q-266 0 -266 315v465q0 37 -17.5 56.5t-39 25.5t-68.5 14v43q197 -10 320 12v-608q0 -190 166 -190q131 0 249 108v539q0 37 -17 56.5t-38.5 25.5t-68.5 14v43q197 -10 319 12v-733q0 -61 25.5 -91 t109.5 -44v-45h-309l12 160h-26q-175 -178 -351 -178z" glyph-name="ucircumflex" horiz-adv-x="1167" unicode="û"/><glyph d="M387 1167q-45 0 -74.5 30t-29.5 75t29.5 74.5t74.5 29.5t75 -29.5t30 -74.5t-30 -75t-75 -30zM793 1167q-45 0 -75 30t-30 75t30 74.5t75 29.5t74.5 -29.5t29.5 -74.5t-29.5 -75t-74.5 -30zM442 -18q-266 0 -266 315v465q0 37 -17.5 56.5t-39 25.5t-68.5 14v43 q197 -10 320 12v-608q0 -190 166 -190q131 0 249 108v539q0 37 -17 56.5t-38.5 25.5t-68.5 14v43q197 -10 319 12v-733q0 -61 25.5 -91t109.5 -44v-45h-309l12 160h-26q-175 -178 -351 -178z" glyph-name="udieresis" horiz-adv-x="1167" unicode="ü"/><glyph d="M766 1272q-102 -70 -246 -228l-47 33q57 184 141 303q41 0 89.5 -34.5t62.5 -73.5zM709 901h329v-45q-70 -8 -93 -22.5t-48 -71.5l-360 -842q-25 -57 -45.5 -97t-55.5 -90t-80 -78t-96 -28q-68 0 -133 47v129q141 -12 221 12.5t115 104.5l31 74l-332 768 q-25 57 -48.5 71.5t-93.5 22.5v45h457v-45q-92 -14 -109.5 -34.5t-0.5 -59.5l227 -539l229 539q8 18 9.5 31.5t-6 22.5t-14.5 15.5t-26.5 11.5t-28.5 6t-34 5q-10 2 -14 2v45z" glyph-name="yacute" horiz-adv-x="1058" unicode="ý"/><glyph d="M688 920q150 0 257.5 -119t107.5 -318q0 -227 -143.5 -364t-356.5 -137q-104 0 -195 36v-217q0 -66 34 -84t130 -30v-45h-497v45q45 8 59 11t37.5 14.5t31 33t7.5 55.5v1293q0 57 -32 87.5t-118 41.5v41q178 31 307 116l41 -39v-622q49 84 138.5 142.5t191.5 58.5z M567 51q117 0 201 93.5t84 267.5q0 164 -76 271.5t-194 107.5q-143 0 -224 -146v-344q0 -100 51.5 -175t157.5 -75z" glyph-name="thorn" horiz-adv-x="1134" unicode="þ"/><glyph d="M332 1167q-45 0 -75 30t-30 75t30 74.5t75 29.5t74.5 -29.5t29.5 -74.5t-29.5 -75t-74.5 -30zM737 1167q-45 0 -74.5 30t-29.5 75t29.5 74.5t74.5 29.5t75 -29.5t30 -74.5t-30 -75t-75 -30zM709 901h329v-45q-70 -8 -93 -22.5t-48 -71.5l-360 -842q-25 -57 -45.5 -97 t-55.5 -90t-80 -78t-96 -28q-68 0 -133 47v129q141 -12 221 12.5t115 104.5l31 74l-332 768q-25 57 -48.5 71.5t-93.5 22.5v45h457v-45q-92 -14 -109.5 -34.5t-0.5 -59.5l227 -539l229 539q8 18 9.5 31.5t-6 22.5t-14.5 15.5t-26.5 11.5t-28.5 6t-34 5q-10 2 -14 2v45z" glyph-name="ydieresis" horiz-adv-x="1058" unicode="ÿ"/><glyph d="M1030 1694l-31 -78h-573l31 78h573zM1251 162q29 -68 55.5 -84.5t112.5 -32.5v-45h-536v45q10 2 35.5 7t36 8t27.5 9.5t23.5 13.5t12.5 18.5t3 25.5t-11 35l-105 239h-526l-100 -241q-8 -18 -10.5 -33.5t4 -26t11.5 -17.5t22.5 -13.5t26.5 -9.5t34.5 -8t35.5 -7v-45h-383 v45q68 12 87.5 18.5t43 28t42.5 68.5l483 1145h80zM408 471h469l-240 553z" glyph-name="Amacron" horiz-adv-x="1439" unicode="Ā"/><glyph d="M819 1305l-31 -78h-573l31 78h573zM872 188q0 -49 45.5 -58t108.5 28v-47q-76 -84 -184 -125q-68 0 -115 51t-49 117q-172 -168 -361 -168q-109 0 -177 58t-68 159q0 51 21.5 92t51 68.5t87 53t104.5 41t131 38.5q76 20 103.5 28t60.5 27.5t47 46.5v29q0 123 -55.5 169 t-182.5 46q-61 0 -84 -58q-41 -104 -71.5 -143t-73.5 -39q-35 0 -57.5 20.5t-22.5 59.5q0 68 79 124t185.5 85t202.5 29q143 0 208.5 -78t65.5 -234v-420zM432 100q141 0 246 136v253l-201 -57q-109 -31 -155 -76t-46 -108q0 -72 44 -110t112 -38z" glyph-name="amacron" horiz-adv-x="1067" unicode="ā"/><glyph d="M727 1511q-135 0 -209 74t-74 195h48q29 -135 235.5 -135t235.5 135h47q0 -121 -74 -195t-209 -74zM1251 162q29 -68 55.5 -84.5t112.5 -32.5v-45h-536v45q10 2 35.5 7t36 8t27.5 9.5t23.5 13.5t12.5 18.5t3 25.5t-11 35l-105 239h-526l-100 -241q-8 -18 -10.5 -33.5 t4 -26t11.5 -17.5t22.5 -13.5t26.5 -9.5t34.5 -8t35.5 -7v-45h-383v45q68 12 87.5 18.5t43 28t42.5 68.5l483 1145h80zM408 471h469l-240 553z" glyph-name="Abreve" horiz-adv-x="1439" unicode="Ă"/><glyph d="M516 1122q-135 0 -209 74t-74 195h48q29 -135 235.5 -135.5t235.5 135.5h47q0 -121 -74 -195t-209 -74zM872 188q0 -49 45.5 -58t108.5 28v-47q-76 -84 -184 -125q-68 0 -115 51t-49 117q-172 -168 -361 -168q-109 0 -177 58t-68 159q0 51 21.5 92t51 68.5t87 53 t104.5 41t131 38.5q76 20 103.5 28t60.5 27.5t47 46.5v29q0 123 -55.5 169t-182.5 46q-61 0 -84 -58q-41 -104 -71.5 -143t-73.5 -39q-35 0 -57.5 20.5t-22.5 59.5q0 68 79 124t185.5 85t202.5 29q143 0 208.5 -78t65.5 -234v-420zM432 100q141 0 246 136v253l-201 -57 q-109 -31 -155 -76t-46 -108q0 -72 44 -110t112 -38z" glyph-name="abreve" horiz-adv-x="1067" unicode="ă"/><glyph d="M1225 0q-94 -53 -135 -99t-41 -106q0 -53 29.5 -83.5t78.5 -30.5q39 0 92 20v-37q-72 -72 -178 -72q-84 0 -138 42t-54 128q0 66 43 123l172 115h-211v45q10 2 35.5 7t36 8t27.5 9.5t23.5 13.5t12.5 18.5t3 25.5t-11 35l-105 239h-526l-100 -241q-8 -18 -10.5 -33.5 t4 -26t11.5 -17.5t22.5 -13.5t26.5 -9.5t34.5 -8t35.5 -7v-45h-383v45q68 12 87.5 18.5t43 28t42.5 68.5l483 1145h80l495 -1143q29 -68 55.5 -84.5t112.5 -32.5v-45h-194zM408 471h469l-240 553z" glyph-name="Aogonek" horiz-adv-x="1439" unicode="Ą"/><glyph d="M872 188q0 -49 45.5 -58t108.5 28v-47q-68 -76 -162 -117q-115 -78 -114 -166q0 -53 29.5 -84t78.5 -31q39 0 92 21v-37q-72 -72 -178 -72q-84 0 -138 42t-54 128q0 66 43 123l137 92q-82 51 -82 144q-172 -168 -361 -168q-109 0 -177 58t-68 159q0 51 21.5 92t51 68.5 t87 53t104.5 41t131 38.5q76 20 103.5 28t60.5 27.5t47 46.5v29q0 123 -55.5 169t-182.5 46q-61 0 -84 -58q-41 -104 -71.5 -143t-73.5 -39q-35 0 -57.5 20.5t-22.5 59.5q0 68 79 124t185.5 85t202.5 29q143 0 208.5 -78t65.5 -234v-420zM432 100q141 0 246 136v253 l-201 -57q-109 -31 -155 -76t-46 -108q0 -72 44 -110t112 -38z" glyph-name="aogonek" horiz-adv-x="1067" unicode="ą"/><glyph d="M743 1434l-47 32q57 184 142 303q41 0 89 -34.5t62 -73.5q-103 -69 -246 -227zM791 -25q-303 0 -496 188.5t-193 483.5q0 293 197 484.5t516 191.5q242 0 399 -94q8 -186 15 -277h-74q-68 297 -371 297q-207 0 -323.5 -143t-116.5 -395q0 -281 156.5 -458t392.5 -177 q223 0 326 110l41 -43q-66 -72 -189.5 -120t-279.5 -48z" glyph-name="Cacute" horiz-adv-x="1361" unicode="Ć"/><glyph d="M514 1044l-47 33q57 184 141 303q41 0 89 -34.5t63 -73.5q-103 -70 -246 -228zM555 -18q-205 0 -339 125.5t-134 334.5q0 217 139 347.5t350 130.5q150 0 244 -63.5t94 -149.5q0 -45 -26.5 -70t-67.5 -25q-90 0 -129 146q-27 98 -123 98q-111 0 -193.5 -88t-82.5 -254 q0 -174 99 -287.5t257 -113.5q170 0 244 110l35 -22q-37 -104 -134.5 -161.5t-232.5 -57.5z" glyph-name="cacute" horiz-adv-x="1003" unicode="ć"/><glyph d="M758 1501q-49 0 -86 35t-37 84t37 84t86 35t86 -35t37 -84t-37 -84t-86 -35zM791 -25q-303 0 -496 188.5t-193 483.5q0 293 197 484.5t516 191.5q242 0 399 -94q8 -186 15 -277h-74q-68 297 -371 297q-207 0 -323.5 -143t-116.5 -395q0 -281 156.5 -458t392.5 -177 q223 0 326 110l41 -43q-66 -72 -189.5 -120t-279.5 -48z" glyph-name="Cdotaccent" horiz-adv-x="1361" unicode="Ċ"/><glyph d="M528.5 1112q-49.5 0 -86 35t-36.5 84t36.5 84t86 35t86 -35t36.5 -84t-36.5 -84t-86 -35zM555 -18q-205 0 -339 125.5t-134 334.5q0 217 139 347.5t350 130.5q150 0 244 -63.5t94 -149.5q0 -45 -26.5 -70t-67.5 -25q-90 0 -129 146q-27 98 -123 98q-111 0 -193.5 -88 t-82.5 -254q0 -174 99 -287.5t257 -113.5q170 0 244 110l35 -22q-37 -104 -134.5 -161.5t-232.5 -57.5z" glyph-name="cdotaccent" horiz-adv-x="1003" unicode="ċ"/><glyph d="M754 1460l-283 312l27 24l256 -186l256 186l26 -24zM791 -25q-303 0 -496 188.5t-193 483.5q0 293 197 484.5t516 191.5q242 0 399 -94q8 -186 15 -277h-74q-68 297 -371 297q-207 0 -323.5 -143t-116.5 -395q0 -281 156.5 -458t392.5 -177q223 0 326 110l41 -43 q-66 -72 -189.5 -120t-279.5 -48z" glyph-name="Ccaron" horiz-adv-x="1361" unicode="Č"/><glyph d="M524 1071l-282 311l26 25l256 -186l256 186l27 -25zM555 -18q-205 0 -339 125.5t-134 334.5q0 217 139 347.5t350 130.5q150 0 244 -63.5t94 -149.5q0 -45 -26.5 -70t-67.5 -25q-90 0 -129 146q-27 98 -123 98q-111 0 -193.5 -88t-82.5 -254q0 -174 99 -287.5t257 -113.5 q170 0 244 110l35 -22q-37 -104 -134.5 -161.5t-232.5 -57.5z" glyph-name="ccaron" horiz-adv-x="1003" unicode="č"/><glyph d="M997 1772l-282 -312l-283 312l27 24l256 -186l256 186zM592 1290q117 0 223.5 -21.5t201.5 -71.5t164.5 -121.5t110.5 -180.5t41 -242q0 -170 -60.5 -299t-166 -203.5t-235.5 -112.5t-279 -38h-531v45q104 20 132 41q39 33 38 121v876q0 47 -7 76t-35.5 46.5t-42 21.5 t-68.5 14q-10 2 -17 4v45h531zM649 74q444 0 445 559q0 584 -523 584h-120v-947q0 -109 41.5 -152.5t156.5 -43.5z" glyph-name="Dcaron" horiz-adv-x="1435" unicode="Ď"/><glyph d="M979 180q0 -61 25.5 -91t109.5 -44v-45h-315l16 186h-27q-125 -205 -329 -204q-154 0 -265.5 116.5t-111.5 315.5q0 225 148.5 365.5t349.5 140.5q119 0 204 -56v256q0 59 -32.5 89t-120.5 40v41q180 29 307 117l41 -39v-1188zM1042 1339q33 25 92.5 25t94.5 -25 q0 -147 -64 -327h-57q-27 216 -66 327zM565 111q88 0 143.5 56t75.5 130v428q-16 53 -68 90t-132 37q-127 0 -215 -94t-88 -269q0 -170 82.5 -274t201.5 -104z" glyph-name="dcaron" horiz-adv-x="1167" unicode="ď"/><glyph d="M602 1290q117 0 223.5 -21.5t201.5 -71.5t165 -121.5t110.5 -180.5t40.5 -242q0 -170 -60 -299t-165.5 -203.5t-235.5 -112.5t-280 -38h-530v45q104 20 131 41q39 33 39 121v397q-61 0 -181 -4l21 74q106 -4 160 -4v413q0 47 -7.5 76t-36 46.5t-42 21.5t-68.5 14 q-10 2 -16 4v45h530zM659 74q444 0 445 559q0 584 -522 584h-121v-549q137 0 276 6l-20 -74q-129 6 -256 6v-336q0 -109 41.5 -152.5t156.5 -43.5z" glyph-name="Dcroat" horiz-adv-x="1445" unicode="Đ"/><glyph d="M979 180q0 -61 25.5 -91t109.5 -44v-45h-315l16 186h-27q-125 -205 -329 -204q-154 0 -265.5 116.5t-111.5 315.5q0 225 148.5 365.5t349.5 140.5q119 0 204 -56v144q-176 0 -354 -7l21 74q168 -6 333 -6v51q0 59 -32.5 89t-120.5 40v41q180 29 307 117l41 -39v-297 q20 2 63 2t64 2l-21 -74q-18 2 -53 2.5t-53 2.5v-826zM565 111q88 0 143.5 56t75.5 130v428q-16 53 -68 90t-132 37q-127 0 -215 -94t-88 -269q0 -170 82.5 -274t201.5 -104z" glyph-name="dcroat" horiz-adv-x="1175" unicode="đ"/><glyph d="M915 1694l-30 -78h-574l31 78h573zM1096 307h55l-84 -307h-1006v45q104 20 132 41q39 33 38 121v876q0 47 -7 76t-35.5 46.5t-42 21.5t-68.5 14q-10 2 -17 4v45h1002l18 -291h-55q-14 117 -55 167.5t-146 50.5h-182q-121 0 -156.5 -27t-35.5 -129v-375h157 q176 0 225.5 35t59.5 137h43v-414h-43q-10 102 -59.5 137t-225.5 35h-157v-387q0 -102 35.5 -128.5t156.5 -26.5h139q121 0 189 50t125 183z" glyph-name="Emacron" horiz-adv-x="1222" unicode="Ē"/><glyph d="M813 1305l-31 -78h-573l31 78h573zM643 113q170 0 244 110l35 -22q-37 -104 -134.5 -161.5t-230.5 -57.5q-203 0 -339 127t-136 335.5t132 342t331 133.5q211 0 313.5 -141.5t48.5 -280.5h-624q8 -170 105 -277.5t255 -107.5zM524 852q-96 0 -163.5 -75t-75.5 -212h438 q16 106 -36 196.5t-163 90.5z" glyph-name="emacron" horiz-adv-x="1015" unicode="ē"/><glyph d="M612.5 1501q-49.5 0 -86.5 35t-37 84t37 84t86.5 35t86 -35t36.5 -84t-36.5 -84t-86 -35zM1096 307h55l-84 -307h-1006v45q104 20 132 41q39 33 38 121v876q0 47 -7 76t-35.5 46.5t-42 21.5t-68.5 14q-10 2 -17 4v45h1002l18 -291h-55q-14 117 -55 167.5t-146 50.5h-182 q-121 0 -156.5 -27t-35.5 -129v-375h157q176 0 225.5 35t59.5 137h43v-414h-43q-10 102 -59.5 137t-225.5 35h-157v-387q0 -102 35.5 -128.5t156.5 -26.5h139q121 0 189 50t125 183z" glyph-name="Edotaccent" horiz-adv-x="1222" unicode="Ė"/><glyph d="M510 1112q-49 0 -86 35t-37 84t37 84t86 35t86 -35t37 -84t-37 -84t-86 -35zM643 113q170 0 244 110l35 -22q-37 -104 -134.5 -161.5t-230.5 -57.5q-203 0 -339 127t-136 335.5t132 342t331 133.5q211 0 313.5 -141.5t48.5 -280.5h-624q8 -170 105 -277.5t255 -107.5z M524 852q-96 0 -163.5 -75t-75.5 -212h438q16 106 -36 196.5t-163 90.5z" glyph-name="edotaccent" horiz-adv-x="1015" unicode="ė"/><glyph d="M985 0q-94 -53 -135 -99t-41 -106q0 -53 29.5 -83.5t79.5 -30.5q39 0 92 20v-37q-72 -72 -179 -72q-84 0 -138 42t-54 128q0 66 43 123l172 115h-793v45q104 20 132 41q39 33 38 121v876q0 47 -7 76t-35.5 46.5t-42 21.5t-68.5 14q-10 2 -17 4v45h1002l18 -291h-55 q-14 117 -55 167.5t-146 50.5h-182q-121 0 -156.5 -27t-35.5 -129v-375h157q176 0 225.5 35t59.5 137h43v-414h-43q-10 102 -59.5 137t-225.5 35h-157v-387q0 -102 35.5 -128.5t156.5 -26.5h139q121 0 188.5 50t125.5 183h55l-84 -307h-82z" glyph-name="Eogonek" horiz-adv-x="1222" unicode="Ę"/><glyph d="M643 113q170 0 244 110l35 -22q-53 -156 -230 -201q-92 -53 -133 -99t-41 -106q0 -53 30 -83.5t79 -30.5q39 0 92 20v-37q-72 -72 -178 -72q-84 0 -138.5 42t-54.5 128q0 66 43 123l146 97q-197 8 -326 134t-129 328q0 209 132 342.5t331 133.5q211 0 313.5 -141.5 t48.5 -280.5h-624q8 -170 105 -277.5t255 -107.5zM524 852q-96 0 -163.5 -75t-75.5 -212h438q16 106 -36 196.5t-163 90.5z" glyph-name="eogonek" horiz-adv-x="1015" unicode="ę"/><glyph d="M891 1772l-283 -312l-282 312l26 24l256 -186l256 186zM1096 307h55l-84 -307h-1006v45q104 20 132 41q39 33 38 121v876q0 47 -7 76t-35.5 46.5t-42 21.5t-68.5 14q-10 2 -17 4v45h1002l18 -291h-55q-14 117 -55 167.5t-146 50.5h-182q-121 0 -156.5 -27t-35.5 -129 v-375h157q176 0 225.5 35t59.5 137h43v-414h-43q-10 102 -59.5 137t-225.5 35h-157v-387q0 -102 35.5 -128.5t156.5 -26.5h139q121 0 189 50t125 183z" glyph-name="Ecaron" horiz-adv-x="1222" unicode="Ě"/><glyph d="M788 1382l-282 -311l-283 311l27 25l256 -186l256 186zM643 113q170 0 244 110l35 -22q-37 -104 -134.5 -161.5t-230.5 -57.5q-203 0 -339 127t-136 335.5t132 342t331 133.5q211 0 313.5 -141.5t48.5 -280.5h-624q8 -170 105 -277.5t255 -107.5zM524 852 q-96 0 -163.5 -75t-75.5 -212h438q16 106 -36 196.5t-163 90.5z" glyph-name="ecaron" horiz-adv-x="1015" unicode="ě"/><glyph d="M743.5 1511q-135.5 0 -209 74t-73.5 195h47q29 -135 235.5 -135t235.5 135h47q0 -121 -73.5 -195t-209 -74zM842 -25q-346 0 -543 188.5t-197 483.5q0 293 197 484.5t518 191.5q252 0 410 -94q8 -186 14 -277h-74q-68 297 -379 297q-209 0 -326.5 -144t-117.5 -396 q0 -293 139.5 -476.5t380.5 -183.5q113 0 155 48t42 165v90q0 135 -43 176t-176 52v53h551v-53q-74 -10 -106 -41t-32 -105v-110q0 -113 31 -236q-53 -45 -176 -79t-268 -34z" glyph-name="Gbreve" horiz-adv-x="1484" unicode="Ğ"/><glyph d="M532.5 1122q-135.5 0 -209 74t-73.5 195h47q29 -135 235.5 -135.5t235.5 135.5h47q0 -121 -73.5 -195t-209 -74zM971 881v-115l-183 27q57 -74 58 -166q0 -127 -98.5 -209t-260.5 -82h-81q-43 0 -67 -21.5t-24 -54.5q0 -72 91 -80l221 -20q195 -16 261 -52t66 -128 q0 -164 -150.5 -264.5t-379.5 -102.5q-184 -2 -278.5 65.5t-94.5 163.5q0 41 59.5 97.5t141.5 93.5q-123 47 -123 145q0 33 64.5 96.5t123.5 90.5q-90 33 -141 102.5t-51 159.5q0 127 99.5 210t260.5 83q86 0 154 -25q60 -14 332 -14zM485.5 391q94.5 0 133 73t38.5 163 t-38.5 163.5t-133 73.5t-133.5 -73.5t-39 -163.5t39 -163t133.5 -73zM612 -14l-221 18q-82 8 -126 -37t-44 -108q0 -68 58.5 -118t201.5 -50q154 0 232 60.5t78 142.5q0 51 -38.5 67.5t-140.5 24.5z" glyph-name="gbreve" horiz-adv-x="1052" unicode="ğ"/><glyph d="M743.5 1501q-49.5 0 -86 35t-36.5 84t36.5 84t86 35t86 -35t36.5 -84t-36.5 -84t-86 -35zM842 -25q-346 0 -543 188.5t-197 483.5q0 293 197 484.5t518 191.5q252 0 410 -94q8 -186 14 -277h-74q-68 297 -379 297q-209 0 -326.5 -144t-117.5 -396q0 -293 139.5 -476.5 t380.5 -183.5q113 0 155 48t42 165v90q0 135 -43 176t-176 52v53h551v-53q-74 -10 -106 -41t-32 -105v-110q0 -113 31 -236q-53 -45 -176 -79t-268 -34z" glyph-name="Gdotaccent" horiz-adv-x="1484" unicode="Ġ"/><glyph d="M532.5 1112q-49.5 0 -86 35t-36.5 84t36.5 84t86 35t86 -35t36.5 -84t-36.5 -84t-86 -35zM971 881v-115l-183 27q57 -74 58 -166q0 -127 -98.5 -209t-260.5 -82h-81q-43 0 -67 -21.5t-24 -54.5q0 -72 91 -80l221 -20q195 -16 261 -52t66 -128q0 -164 -150.5 -264.5 t-379.5 -102.5q-184 -2 -278.5 65.5t-94.5 163.5q0 41 59.5 97.5t141.5 93.5q-123 47 -123 145q0 33 64.5 96.5t123.5 90.5q-90 33 -141 102.5t-51 159.5q0 127 99.5 210t260.5 83q86 0 154 -25q60 -14 332 -14zM485.5 391q94.5 0 133 73t38.5 163t-38.5 163.5t-133 73.5 t-133.5 -73.5t-39 -163.5t39 -163t133.5 -73zM612 -14l-221 18q-82 8 -126 -37t-44 -108q0 -68 58.5 -118t201.5 -50q154 0 232 60.5t78 142.5q0 51 -38.5 67.5t-140.5 24.5z" glyph-name="gdotaccent" horiz-adv-x="1052" unicode="ġ"/><glyph d="M842 -25q-346 0 -543 188.5t-197 483.5q0 293 197 484.5t518 191.5q252 0 410 -94q8 -186 14 -277h-74q-68 297 -379 297q-209 0 -326.5 -144t-117.5 -396q0 -293 139.5 -476.5t380.5 -183.5q113 0 155 48t42 165v90q0 135 -43 176t-176 52v53h551v-53q-74 -10 -106 -41 t-32 -105v-110q0 -113 31 -236q-53 -45 -176 -79t-268 -34zM594 -653l-19 43q147 57 175 172q8 31 -4.5 47t-38.5 31q-74 43 -74 116q0 53 38 89t91 36q59 0 100 -45t41 -125q0 -113 -82 -219t-227 -145z" glyph-name="Gcommaaccent" horiz-adv-x="1484" unicode="Ģ"/><glyph d="M449 1092q-59 0 -100.5 45t-41.5 125q0 113 82 219t227 145l19 -43q-147 -57 -174 -172q-8 -31 4 -47t39 -31q74 -43 74 -116q0 -53 -38 -89t-91 -36zM971 881v-115l-183 27q57 -74 58 -166q0 -127 -98.5 -209t-260.5 -82h-81q-43 0 -67 -21.5t-24 -54.5q0 -72 91 -80 l221 -20q195 -16 261 -52t66 -128q0 -164 -150.5 -264.5t-379.5 -102.5q-184 -2 -278.5 65.5t-94.5 163.5q0 41 59.5 97.5t141.5 93.5q-123 47 -123 145q0 33 64.5 96.5t123.5 90.5q-90 33 -141 102.5t-51 159.5q0 127 99.5 210t260.5 83q86 0 154 -25q60 -14 332 -14z M485.5 391q94.5 0 133 73t38.5 163t-38.5 163.5t-133 73.5t-133.5 -73.5t-39 -163.5t39 -163t133.5 -73zM612 -14l-221 18q-82 8 -126 -37t-44 -108q0 -68 58.5 -118t201.5 -50q154 0 232 60.5t78 142.5q0 51 -38.5 67.5t-140.5 24.5z" glyph-name="gcommaaccent" horiz-adv-x="1052" unicode="ģ"/><glyph d="M1413 1245q-104 -20 -131 -41q-39 -33 -39 -121v-876q0 -47 7 -76t36 -46t42 -21.5t69 -14.5q10 -2 16 -4v-45h-559v45q104 20 131 41q39 33 39 121v403h-573v-403q0 -47 7 -76t35.5 -46t42 -21.5t68.5 -14.5q10 -2 17 -4v-45h-560v45q104 20 132 41q39 33 38 121v876 q0 47 -7 76t-35.5 46.5t-42 21.5t-68.5 14q-10 2 -17 4v45h560v-45q-104 -20 -132 -41q-39 -33 -38 -121v-182h573v182q0 47 -7 76t-36 46.5t-42 21.5t-69 14q-10 2 -16 4v45h559v-45zM451 680h573v151h-573v-151z" glyph-name="Hbar" horiz-adv-x="1474" unicode="Ħ"/><glyph d="M1030 156q0 -43 19.5 -66.5t41 -29t74.5 -15.5v-45h-458v45q51 10 70.5 15.5t39 29t19.5 66.5v438q0 195 -162 194q-135 0 -248 -131v-501q0 -43 19.5 -66.5t39 -29t70.5 -15.5v-45h-473v45q100 18 125 41t24 70v850q-55 0 -170 -5l21 74q98 -4 149 -4v49q0 57 -31.5 88 t-117.5 41v41q178 31 303 117l41 -39v-299q156 0 311 6l-20 -74q-145 6 -291 7v-279q158 190 350 191q254 0 254 -316v-448z" glyph-name="hbar" horiz-adv-x="1216" unicode="ħ"/><glyph d="M41 1616l31 78h573l-31 -78h-573zM61 0v45q104 20 132 41q39 33 38 121v876q0 47 -7 76t-35.5 46.5t-42 21.5t-68.5 14q-10 2 -17 4v45h560v-45q-104 -20 -132 -41q-39 -33 -38 -121v-876q0 -47 7 -76t35.5 -46t42 -21.5t68.5 -14.5q10 -2 17 -4v-45h-560z" glyph-name="Imacron" horiz-adv-x="681" unicode="Ī"/><glyph d="M-16 1227l30 78h574l-31 -78h-573zM61 0v45q53 10 75 15.5t41.5 29t19.5 66.5v489q0 61 -26 90t-110 39v41q145 27 287 119l43 -39v-739q0 -43 19.5 -66.5t41 -29t74.5 -15.5v-45h-465z" glyph-name="imacron" horiz-adv-x="587" unicode="ī"/><glyph d="M621 1245q-104 -20 -132 -41q-39 -33 -38 -121v-876q0 -47 7 -76t35.5 -46t42 -21.5t68.5 -14.5q10 -2 17 -4v-45h-170q-94 -53 -135.5 -99t-41.5 -106q0 -53 30 -83.5t79 -30.5q39 0 92 20v-37q-72 -72 -178 -72q-84 0 -138.5 42t-54.5 128q0 66 43 123l172 115h-258v45 q104 20 132 41q39 33 38 121v876q0 47 -7 76t-35.5 46.5t-42 21.5t-68.5 14q-10 2 -17 4v45h560v-45z" glyph-name="Iogonek" horiz-adv-x="681" unicode="Į"/><glyph d="M285 1112q-49 0 -86 35t-37 84t37 84t86 35t86 -35t37 -84t-37 -84t-86 -35zM406 0q-94 -53 -135.5 -99t-41.5 -106q0 -53 30 -83.5t79 -30.5q39 0 92 20v-37q-72 -72 -178 -72q-84 0 -138.5 42t-54.5 128q0 66 43 123l172 115h-213v45q53 10 75 15.5t41.5 29t19.5 66.5 v489q0 61 -26 90t-110 39v41q145 27 287 119l43 -39v-739q0 -43 19.5 -66.5t41 -29t74.5 -15.5v-45h-120z" glyph-name="iogonek" horiz-adv-x="587" unicode="į"/><glyph d="M342 1501q-49 0 -86 35t-37 84t37 84t86 35t86 -35t37 -84t-37 -84t-86 -35zM61 0v45q104 20 132 41q39 33 38 121v876q0 47 -7 76t-35.5 46.5t-42 21.5t-68.5 14q-10 2 -17 4v45h560v-45q-104 -20 -132 -41q-39 -33 -38 -121v-876q0 -47 7 -76t35.5 -46t42 -21.5 t68.5 -14.5q10 -2 17 -4v-45h-560z" glyph-name="Idotaccent" horiz-adv-x="681" unicode="İ"/><glyph d="M61 0v45q53 10 75 15.5t41.5 29t19.5 66.5v489q0 61 -26 90t-110 39v41q145 27 287 119l43 -39v-739q0 -43 19.5 -66.5t41 -29t74.5 -15.5v-45h-465z" glyph-name="dotlessi" horiz-adv-x="587" unicode="ı"/><glyph d="M61 0v45q104 20 132 41q39 33 38 121v876q0 47 -7 76t-35.5 46.5t-42 21.5t-68.5 14q-10 2 -17 4v45h560v-45q-104 -20 -132 -41q-39 -33 -38 -121v-876q0 -47 7 -76t35.5 -46t42 -21.5t68.5 -14.5q10 -2 17 -4v-45h-560zM700 -379q-20 29 0 55q139 49 177 116t38 228 v1063q0 47 -10 77t-30.5 45.5t-49 23.5t-67.5 14q-10 0 -17 2v45h564v-45q-104 -20 -131 -41q-39 -33 -39 -121v-1083q0 -92 -36 -161.5t-103.5 -111.5t-136.5 -66t-159 -40z" glyph-name="IJ" horiz-adv-x="1366" unicode="Ĳ"/><glyph d="M280.5 1133q-49.5 0 -86 34.5t-36.5 83.5t36.5 84t86 35t86 -35t36.5 -84t-36.5 -83.5t-86 -34.5zM856 1133q-49 0 -86 34.5t-37 83.5t37 84t86 35t86 -35t37 -84t-37 -83.5t-86 -34.5zM61 0v45q53 10 75 15.5t41.5 29t19.5 66.5v489q0 61 -26 90t-110 39v41 q164 27 287 119l43 -39v-739q0 -43 19.5 -66.5t41 -29t74.5 -15.5v-45h-465zM594 -379q-18 27 0 53q94 33 135 99.5t41 203.5v668q0 61 -25.5 90t-109.5 39v41q145 27 287 119l43 -39v-930q0 -86 -35 -152.5t-94.5 -104.5t-117.5 -58.5t-124 -28.5z" glyph-name="ij" horiz-adv-x="1101" unicode="ĳ"/><glyph d="M1217 111q27 -39 59.5 -51.5t116.5 -12.5v-47h-392q0 51 -61 139l-354 514l-135 -135v-311q0 -47 7 -76t35.5 -46t42 -21.5t68.5 -14.5q10 -2 17 -4v-45h-560v45q104 20 132 41q39 33 38 121v876q0 47 -7 76t-35.5 46.5t-42 21.5t-68.5 14q-10 2 -17 4v45h560v-45 q-104 -20 -132 -41q-39 -33 -38 -121v-450l516 508q47 45 23.5 73.5t-107.5 28.5v47h444v-47q-92 0 -141 -24.5t-105 -77.5l-350 -346zM360 -119q59 0 100.5 -45t41.5 -125q0 -113 -82 -219t-227 -145l-19 43q147 57 174 172q8 31 -4 47t-39 31q-74 43 -74 116q0 53 38 89 t91 36z" glyph-name="Kcommaaccent" horiz-adv-x="1443" unicode="Ķ"/><glyph d="M975 119q27 -37 57.5 -50.5t104.5 -21.5v-47h-338q0 53 -37 109l-246 352l-110 -107v-198q0 -41 20 -63.5t45 -30t70 -15.5q10 -2 14 -2v-45h-494v45q100 18 125 41t25 70v964q0 57 -32 88t-118 41v41q178 31 304 117l41 -39v-911l299 288q47 45 28.5 73t-98.5 36v47h409 v-47q-84 -8 -134 -32.5t-101 -76.5l-166 -159zM592 -119q59 0 100 -45t41 -125q0 -113 -82 -219t-227 -145l-18 43q147 57 174 172q8 31 -4.5 47t-38.5 31q-74 43 -74 116q0 53 38 89t91 36z" glyph-name="kcommaaccent" horiz-adv-x="1157" unicode="ķ"/><glyph d="M328 1434l-47 32q57 184 141 303q41 0 89 -34.5t62 -73.5q-102 -69 -245 -227zM61 0v45q104 20 132 41q39 33 38 121v876q0 47 -7 76t-35.5 46.5t-42 21.5t-68.5 14q-10 2 -17 4v45h582v-45q-6 -2 -30.5 -6t-31 -5t-26.5 -6t-26.5 -9.5t-21.5 -11.5t-20.5 -14 t-14.5 -18.5t-12 -23.5t-6 -29.5t-3 -38.5v-854q0 -102 35.5 -128.5t156.5 -26.5h145q123 0 189.5 52t124.5 193h55l-84 -319h-1012z" glyph-name="Lacute" horiz-adv-x="1218" unicode="Ĺ"/><glyph d="M264 1442l-47 33q57 184 141 303q41 0 89.5 -35t62.5 -74q-103 -69 -246 -227zM61 0v45q100 18 125 41t25 70v964q0 57 -32 88t-118 41v41q178 31 304 117l41 -39v-1212q0 -41 20 -63.5t45 -30t70 -15.5q10 -2 14 -2v-45h-494z" glyph-name="lacute" horiz-adv-x="616" unicode="ĺ"/><glyph d="M61 0v45q104 20 132 41q39 33 38 121v876q0 47 -7 76t-35.5 46.5t-42 21.5t-68.5 14q-10 2 -17 4v45h582v-45q-6 -2 -30.5 -6t-31 -5t-26.5 -6t-26.5 -9.5t-21.5 -11.5t-20.5 -14t-14.5 -18.5t-12 -23.5t-6 -29.5t-3 -38.5v-854q0 -102 35.5 -128.5t156.5 -26.5h145 q123 0 189.5 52t124.5 193h55l-84 -319h-1012zM465 -653l-19 43q147 57 175 172q8 31 -4.5 47t-38.5 31q-74 43 -74 116q0 53 38 89t91 36q59 0 100 -45t41 -125q0 -113 -82 -219t-227 -145z" glyph-name="Lcommaaccent" horiz-adv-x="1218" unicode="Ļ"/><glyph d="M61 0v45q100 18 125 41t25 70v964q0 57 -32 88t-118 41v41q178 31 304 117l41 -39v-1212q0 -41 20 -63.5t45 -30t70 -15.5q10 -2 14 -2v-45h-494zM160 -653l-19 43q147 57 174 172q8 31 -4 47t-39 31q-74 43 -73 116q0 53 37.5 89t91.5 36q59 0 100 -45t41 -125 q0 -113 -82 -219t-227 -145z" glyph-name="lcommaaccent" horiz-adv-x="616" unicode="ļ"/><glyph d="M61 0v45q104 20 132 41q39 33 38 121v876q0 47 -7 76t-35.5 46.5t-42 21.5t-68.5 14q-10 2 -17 4v45h582v-45q-6 -2 -30.5 -6t-31 -5t-26.5 -6t-26.5 -9.5t-21.5 -11.5t-20.5 -14t-14.5 -18.5t-12 -23.5t-6 -29.5t-3 -38.5v-854q0 -102 35.5 -128.5t156.5 -26.5h145 q123 0 189.5 52t124.5 193h55l-84 -319h-1012zM739 754l-18 43q147 57 174 172q8 31 -4 47t-39 31q-74 43 -74 116q0 53 38 89t91 36q59 0 100.5 -45t41.5 -125q0 -113 -82.5 -219t-227.5 -145z" glyph-name="Lcaron" horiz-adv-x="1218" unicode="Ľ"/><glyph d="M61 0v45q100 18 125 41t25 70v964q0 57 -32 88t-118 41v41q178 31 304 117l41 -39v-1212q0 -41 20 -63.5t45 -30t70 -15.5q10 -2 14 -2v-45h-494zM582 1012h-58q-27 217 -65 327q33 25 92 25t94 -25q0 -147 -63 -327z" glyph-name="lcaron" horiz-adv-x="583" unicode="ľ"/><glyph d="M61 0v45q104 20 132 41q39 33 38 121v876q0 47 -7 76t-35.5 46.5t-42 21.5t-68.5 14q-10 2 -17 4v45h582v-45q-6 -2 -30.5 -6t-31 -5t-26.5 -6t-26.5 -9.5t-21.5 -11.5t-20.5 -14t-14.5 -18.5t-12 -23.5t-6 -29.5t-3 -38.5v-854q0 -102 35.5 -128.5t156.5 -26.5h145 q123 0 189.5 52t124.5 193h55l-84 -319h-1012zM825.5 510q-53.5 0 -91.5 37t-38 90q0 51 38 88t91.5 37t91 -37t37.5 -88q0 -53 -37.5 -90t-91 -37z" glyph-name="Ldot" horiz-adv-x="1218" unicode="Ŀ"/><glyph d="M61 0v45q100 18 125 41t25 70v964q0 57 -32 88t-118 41v41q178 31 304 117l41 -39v-1212q0 -41 20 -63.5t45 -30t70 -15.5q10 -2 14 -2v-45h-494zM641 565q-53 0 -91 37t-38 90q0 51 38 88t91 37t91 -37t38 -88q0 -53 -38 -90t-91 -37z" glyph-name="ldot" horiz-adv-x="712" unicode="ŀ"/><glyph d="M1112 319h55l-84 -319h-1011v45q104 20 131 41q39 33 39 121v422q-102 -35 -181 -68v84q78 20 181 53v385q0 47 -7.5 76t-36 46.5t-42 21.5t-68.5 14q-10 2 -16 4v45h581v-45q-6 -2 -30.5 -6t-30.5 -5t-26.5 -6t-27 -9.5t-21.5 -11.5t-20 -14t-14.5 -18.5t-12.5 -23.5 t-6 -29.5t-3 -38.5v-313q193 66 321 119v-84q-190 -55 -321 -100v-476q0 -102 35.5 -128.5t156.5 -26.5h146q123 0 189.5 52t123.5 193z" glyph-name="Lslash" unicode="Ł"/><glyph d="M426 156q0 -41 20.5 -63.5t45 -30t69.5 -15.5q10 -2 14 -2v-45h-493v45q100 18 125 41t24 70v477q-90 -35 -170 -70v80q104 31 170 53v424q0 57 -31.5 88t-117.5 41v41q178 31 303 117l41 -39v-602q43 16 129 53v-80q-86 -25 -129 -39v-544z" glyph-name="lslash" horiz-adv-x="636" unicode="ł"/><glyph d="M958 1661q-102 -70 -245 -227l-47 32q57 184 141 303q41 0 89 -34.5t62 -73.5zM948 1290h443v-45q-88 0 -131 -32.5t-43 -129.5v-1083h-93l-805 1090v-883q0 -47 8.5 -76t39 -46t45 -21.5t73.5 -14.5q12 -2 19 -4v-45h-443v45q106 20 134 41q41 33 41 121v876 q0 47 -8.5 76t-36 46.5t-44 21.5t-67.5 14q-12 2 -19 4v45h369l703 -948v741q0 96 -44.5 129t-140.5 33v45z" glyph-name="Nacute" horiz-adv-x="1452" unicode="Ń"/><glyph d="M567 1044l-47 33q57 184 142 303q41 0 89 -34.5t62 -73.5q-103 -70 -246 -228zM51 0v45q53 10 74.5 15.5t41 29t19.5 66.5v489q0 61 -25.5 90t-109.5 39v41q172 27 307 119l41 -39l-55 -172h33q160 197 354 197q254 0 254 -316v-448q0 -43 19.5 -66.5t41 -29t74.5 -15.5 v-45h-458v45q51 10 70.5 15.5t39 29t19.5 66.5v436q0 197 -162 196q-139 0 -248 -133v-499q0 -43 19.5 -66.5t39 -29t70.5 -15.5v-45h-459z" glyph-name="nacute" horiz-adv-x="1171" unicode="ń"/><glyph d="M948 1290h443v-45q-88 0 -131 -32.5t-43 -129.5v-1083h-93l-805 1090v-883q0 -47 8.5 -76t39 -46t45 -21.5t73.5 -14.5q12 -2 19 -4v-45h-443v45q106 20 134 41q41 33 41 121v876q0 47 -8.5 76t-36 46.5t-44 21.5t-67.5 14q-12 2 -19 4v45h369l703 -948v741 q0 96 -44.5 129t-140.5 33v45zM745 -119q59 0 100.5 -45t41.5 -125q0 -113 -82 -219t-227 -145l-19 43q147 57 174 172q8 31 -4 47t-39 31q-74 43 -74 116q0 53 38 89t91 36z" glyph-name="Ncommaaccent" horiz-adv-x="1452" unicode="Ņ"/><glyph d="M51 0v45q53 10 74.5 15.5t41 29t19.5 66.5v489q0 61 -25.5 90t-109.5 39v41q172 27 307 119l41 -39l-55 -172h33q160 197 354 197q254 0 254 -316v-448q0 -43 19.5 -66.5t41 -29t74.5 -15.5v-45h-458v45q51 10 70.5 15.5t39 29t19.5 66.5v436q0 197 -162 196 q-139 0 -248 -133v-499q0 -43 19.5 -66.5t39 -29t70.5 -15.5v-45h-459zM432 -653l-18 43q147 57 174 172q8 31 -4.5 47t-38.5 31q-74 43 -74 116q0 53 38 89t91 36q59 0 100 -45t41 -125q0 -113 -82 -219t-227 -145z" glyph-name="ncommaaccent" horiz-adv-x="1171" unicode="ņ"/><glyph d="M1006 1772l-283 -312l-283 312l27 24l256 -186l256 186zM948 1290h443v-45q-88 0 -131 -32.5t-43 -129.5v-1083h-93l-805 1090v-883q0 -47 8.5 -76t39 -46t45 -21.5t73.5 -14.5q12 -2 19 -4v-45h-443v45q106 20 134 41q41 33 41 121v876q0 47 -8.5 76t-36 46.5t-44 21.5 t-67.5 14q-12 2 -19 4v45h369l703 -948v741q0 96 -44.5 129t-140.5 33v45z" glyph-name="Ncaron" horiz-adv-x="1452" unicode="Ň"/><glyph d="M578 1071l-283 311l27 25l256 -186l256 186l26 -25zM51 0v45q53 10 74.5 15.5t41 29t19.5 66.5v489q0 61 -25.5 90t-109.5 39v41q172 27 307 119l41 -39l-55 -172h33q160 197 354 197q254 0 254 -316v-448q0 -43 19.5 -66.5t41 -29t74.5 -15.5v-45h-458v45 q51 10 70.5 15.5t39 29t19.5 66.5v436q0 197 -162 196q-139 0 -248 -133v-499q0 -43 19.5 -66.5t39 -29t70.5 -15.5v-45h-459z" glyph-name="ncaron" horiz-adv-x="1171" unicode="ň"/><glyph d="M948 1290h443v-45q-88 0 -131 -32.5t-43 -129.5v-1083q0 -92 -36 -161.5t-103.5 -111.5t-136.5 -65.5t-159 -40.5q-20 29 0 55q139 49 177 116t38 228v152l-678 918v-883q0 -47 8.5 -76t39 -46t45 -21.5t73.5 -14.5q12 -2 19 -4v-45h-443v45q106 20 134 41q41 33 41 121 v876q0 47 -8.5 76t-36 46.5t-44 21.5t-67.5 14q-12 2 -19 4v45h369l703 -948v741q0 96 -44.5 129t-140.5 33v45z" glyph-name="Eng" horiz-adv-x="1452" unicode="Ŋ"/><glyph d="M731 920q254 0 254 -316v-639q0 -86 -35 -152.5t-94 -104.5t-117.5 -58.5t-124.5 -28.5q-18 27 0 53q94 33 135.5 99.5t41.5 203.5v615q0 197 -162 196q-139 0 -248 -133v-499q0 -43 19.5 -66.5t39 -29t70.5 -15.5v-45h-459v45q53 10 74.5 15.5t41 29t19.5 66.5v489 q0 61 -25.5 90t-109.5 39v41q172 27 307 119l41 -39l-55 -172h33q159 197 354 197z" glyph-name="eng" horiz-adv-x="1107" unicode="ŋ"/><glyph d="M457 1616l30 78h574l-31 -78h-573zM754 -25q-283 0 -467.5 190.5t-184.5 477.5t186.5 483.5t473.5 196.5q283 0 467 -191.5t184 -478t-186 -482.5t-473 -196zM788 49q172 0 281 145.5t109 397.5q0 289 -128 473t-323 184q-172 0 -280.5 -146.5t-108.5 -397.5 q0 -287 127.5 -471.5t322.5 -184.5z" glyph-name="Omacron" horiz-adv-x="1515" unicode="Ō"/><glyph d="M264 1227l31 78h573l-30 -78h-574zM553 -18q-195 0 -333 127t-138 335q0 217 146.5 346.5t346.5 129.5q195 0 333.5 -127t138.5 -336q0 -217 -146.5 -346t-347.5 -129zM580 49q106 0 180 94.5t74 272.5q0 182 -80 309t-205 127q-106 0 -180 -94t-74 -273q0 -182 80 -309 t205 -127z" glyph-name="omacron" horiz-adv-x="1128" unicode="ō"/><glyph d="M535 1434l-48 32q57 184 142 303q41 0 89 -34.5t62 -73.5q-102 -69 -245 -227zM856 1434l-47 32q57 184 141 303q41 0 89 -34.5t63 -73.5q-103 -69 -246 -227zM754 -25q-283 0 -467.5 190.5t-184.5 477.5t186.5 483.5t473.5 196.5q283 0 467 -191.5t184 -478t-186 -482.5 t-473 -196zM788 49q172 0 281 145.5t109 397.5q0 289 -128 473t-323 184q-172 0 -280.5 -146.5t-108.5 -397.5q0 -287 127.5 -471.5t322.5 -184.5z" glyph-name="Ohungarumlaut" horiz-adv-x="1515" unicode="Ő"/><glyph d="M342 1044l-47 33q57 184 141 303q41 0 89 -34.5t63 -73.5q-103 -70 -246 -228zM664 1044l-48 33q57 184 142 303q41 0 89 -34.5t62 -73.5q-102 -70 -245 -228zM553 -18q-195 0 -333 127t-138 335q0 217 146.5 346.5t346.5 129.5q195 0 333.5 -127t138.5 -336 q0 -217 -146.5 -346t-347.5 -129zM580 49q106 0 180 94.5t74 272.5q0 182 -80 309t-205 127q-106 0 -180 -94t-74 -273q0 -182 80 -309t205 -127z" glyph-name="ohungarumlaut" horiz-adv-x="1128" unicode="ő"/><glyph d="M1978 307h56l-84 -307h-992q-92 -25 -204 -25q-283 0 -467.5 190.5t-184.5 477.5t186.5 482.5t473.5 195.5q109 0 207 -31h977l18 -291h-55q-14 117 -55.5 167.5t-145.5 50.5h-182q-121 0 -157 -27t-36 -129v-375h158q176 0 225 35t60 137h43v-414h-43q-10 102 -59.5 137 t-225.5 35h-158v-387q0 -102 36 -128.5t157 -26.5h139q121 0 188.5 50t124.5 183zM340 705q0 -287 128 -471.5t320 -184.5q104 0 189.5 58.5t136.5 166.5v670q-45 141 -146.5 222t-240.5 81q-170 0 -278.5 -145t-108.5 -397z" glyph-name="OE" horiz-adv-x="2105" unicode="Œ"/><glyph d="M1407 115q170 0 244 110l35 -22q-37 -104 -134.5 -161.5t-230.5 -57.5q-244 0 -379 170q-147 -172 -389 -172q-195 0 -333 127t-138 335q0 217 146.5 346.5t346.5 129.5q233 0 371 -166q135 168 363 168q211 0 313 -141.5t49 -280.5h-624q8 -170 105 -277.5t255 -107.5z M1288 854q-96 0 -163.5 -74.5t-75.5 -212.5h438q16 106 -36 196.5t-163 90.5zM580 49q106 0 180 94.5t74 272.5q0 182 -80 309t-205 127q-106 0 -180 -94t-74 -273q0 -182 80 -309t205 -127z" glyph-name="oe" horiz-adv-x="1777" unicode="œ"/><glyph d="M913 1661q-102 -70 -245 -227l-47 32q57 184 141 303q41 0 89 -34.5t62 -73.5zM1075 236q145 -229 277 -189v-47q-61 -33 -144 -33q-119 0 -196.5 48t-145.5 159l-147 234q-55 88 -113.5 121.5t-154.5 37.5v-360q0 -47 7 -76t35.5 -46t42 -21.5t68.5 -14.5q10 -2 17 -4 v-45h-560v45q104 20 132 41q39 33 38 121v876q0 47 -7 76t-35.5 46.5t-42 21.5t-68.5 14q-10 2 -17 4v45h531q569 0 569 -356q0 -295 -397 -354q109 -20 190 -152zM606 1217q-92 0 -123.5 -23t-31.5 -72v-483h133q190 0 269 73.5t79 207.5q0 297 -326 297z" glyph-name="Racute" horiz-adv-x="1392" unicode="Ŕ"/><glyph d="M401 1044l-47 33q57 184 142 303q41 0 89 -34.5t62 -73.5q-103 -70 -246 -228zM51 0v45q47 6 65.5 10t42 15.5t31 32t7.5 53.5v491q0 61 -28 90t-118 37v41q186 29 318 119l41 -39l-58 -246h49q66 141 134.5 213t162.5 72q45 0 84 -16v-195q-68 27 -131 27 q-123 0 -191.5 -81t-68.5 -206v-307q0 -61 31 -80t121 -31v-45h-492z" glyph-name="racute" horiz-adv-x="833" unicode="ŕ"/><glyph d="M1075 236q145 -229 277 -189v-47q-61 -33 -144 -33q-119 0 -196.5 48t-145.5 159l-147 234q-55 88 -113.5 121.5t-154.5 37.5v-360q0 -47 7 -76t35.5 -46t42 -21.5t68.5 -14.5q10 -2 17 -4v-45h-560v45q104 20 132 41q39 33 38 121v876q0 47 -7 76t-35.5 46.5t-42 21.5 t-68.5 14q-10 2 -17 4v45h531q569 0 569 -356q0 -295 -397 -354q109 -20 190 -152zM606 1217q-92 0 -123.5 -23t-31.5 -72v-483h133q190 0 269 73.5t79 207.5q0 297 -326 297zM715 -119q59 0 100 -45t41 -125q0 -113 -82 -219t-227 -145l-19 43q147 57 174 172q8 31 -4 47 t-39 31q-74 43 -73 116q0 53 38 89t91 36z" glyph-name="Rcommaaccent" horiz-adv-x="1392" unicode="Ŗ"/><glyph d="M51 0v45q47 6 65.5 10t42 15.5t31 32t7.5 53.5v491q0 61 -28 90t-118 37v41q186 29 318 119l41 -39l-58 -246h49q66 141 134.5 213t162.5 72q45 0 84 -16v-195q-68 27 -131 27q-123 0 -191.5 -81t-68.5 -206v-307q0 -61 31 -80t121 -31v-45h-492zM147 -653l-18 43 q147 57 174 172q8 31 -4 47t-39 31q-74 43 -74 116q0 53 38 89t91 36q59 0 100.5 -45t41.5 -125q0 -113 -82.5 -219t-227.5 -145z" glyph-name="rcommaaccent" horiz-adv-x="833" unicode="ŗ"/><glyph d="M961 1772l-283 -312l-283 312l27 24l256 -186l256 186zM1075 236q145 -229 277 -189v-47q-61 -33 -144 -33q-119 0 -196.5 48t-145.5 159l-147 234q-55 88 -113.5 121.5t-154.5 37.5v-360q0 -47 7 -76t35.5 -46t42 -21.5t68.5 -14.5q10 -2 17 -4v-45h-560v45 q104 20 132 41q39 33 38 121v876q0 47 -7 76t-35.5 46.5t-42 21.5t-68.5 14q-10 2 -17 4v45h531q569 0 569 -356q0 -295 -397 -354q109 -20 190 -152zM606 1217q-92 0 -123.5 -23t-31.5 -72v-483h133q190 0 269 73.5t79 207.5q0 297 -326 297z" glyph-name="Rcaron" horiz-adv-x="1392" unicode="Ř"/><glyph d="M412 1071l-283 311l27 25l256 -186l256 186l26 -25zM51 0v45q47 6 65.5 10t42 15.5t31 32t7.5 53.5v491q0 61 -28 90t-118 37v41q186 29 318 119l41 -39l-58 -246h49q66 141 134.5 213t162.5 72q45 0 84 -16v-195q-68 27 -131 27q-123 0 -191.5 -81t-68.5 -206v-307 q0 -61 31 -80t121 -31v-45h-492z" glyph-name="rcaron" horiz-adv-x="833" unicode="ř"/><glyph d="M522 1434l-47 32q57 184 141 303q41 0 89.5 -34.5t62.5 -73.5q-103 -69 -246 -227zM526 -25q-217 0 -407 129l-17 263h52q39 -145 135 -234.5t229 -89.5q113 0 185.5 68.5t72.5 173.5q0 100 -69.5 166.5t-219.5 138.5q-78 37 -131 69.5t-111.5 82t-88 114t-29.5 141.5 q0 143 107.5 234.5t310.5 91.5q43 0 82 -4t72.5 -13.5t58 -17.5t51.5 -22.5t40 -21.5t36.5 -23.5t27.5 -18.5l7 -266h-48q-82 319 -325 319q-109 0 -165 -56t-56 -140t63.5 -146.5t206.5 -130.5q68 -33 102.5 -51t100 -61t100.5 -84t63.5 -103.5t28.5 -134.5 q0 -166 -134 -269.5t-331 -103.5z" glyph-name="Sacute" horiz-adv-x="1083" unicode="Ś"/><glyph d="M399 1044l-47 33q57 184 142 303q41 0 89 -34.5t62 -73.5q-103 -70 -246 -228zM385 -18q-98 0 -179 26.5t-120 54.5l-4 189h65q66 -205 259 -205q86 0 133 38t47 105q0 49 -32 85t-62.5 50.5t-108.5 43.5q-14 6 -21 8q-57 20 -98 41.5t-86 55.5t-68.5 82t-23.5 106 q0 117 91 187.5t249 70.5q145 0 264 -78l-2 -187h-61q-57 199 -224 199q-74 0 -114.5 -37t-40.5 -92q0 -59 46 -97t144 -75q63 -25 85 -33t80.5 -37.5t83 -55.5t49 -71t24.5 -98q0 -123 -104.5 -199.5t-270.5 -76.5z" glyph-name="sacute" horiz-adv-x="841" unicode="ś"/><glyph d="M991 348q0 -152 -112.5 -252t-284.5 -116l-41 -80q90 0 151.5 -43t61.5 -117q0 -78 -79 -126t-245 -48l11 47q92 0 138 26.5t46 67.5q0 92 -223 92l90 176q-201 6 -385 129l-17 263h52q39 -145 135 -234.5t229 -89.5q113 0 185.5 68.5t72.5 173.5q0 100 -69.5 166.5 t-219.5 138.5q-78 37 -131 69.5t-111.5 82t-88 114t-29.5 141.5q0 143 107.5 234.5t310.5 91.5q43 0 82 -4t72.5 -13.5t58 -17.5t51.5 -22.5t40 -21.5t36.5 -23.5t27.5 -18.5l7 -266h-48q-82 319 -325 319q-109 0 -165 -56t-56 -140t63.5 -146.5t206.5 -130.5 q68 -33 102.5 -51t100 -61t100.5 -84t63.5 -103.5t28.5 -134.5z" glyph-name="Scedilla" horiz-adv-x="1083" unicode="Ş"/><glyph d="M760 258q0 -106 -81 -180t-214 -92l-45 -86q90 0 151.5 -43t61.5 -117q0 -78 -79 -126t-245 -48l10 47q92 0 138.5 26.5t46.5 67.5q0 92 -223 92l92 183q-176 2 -287 81l-4 189h65q66 -205 259 -205q86 0 133 38t47 105q0 49 -32 85t-62.5 50.5t-108.5 43.5q-14 6 -21 8 q-57 20 -98 41.5t-86 55.5t-68.5 82t-23.5 106q0 117 91 187.5t249 70.5q145 0 264 -78l-2 -187h-61q-57 199 -224 199q-74 0 -114.5 -37t-40.5 -92q0 -59 46 -97t144 -75q63 -25 85 -33t80.5 -37.5t83 -55.5t49 -71t24.5 -98z" glyph-name="scedilla" horiz-adv-x="841" unicode="ş"/><glyph d="M532 1460l-282 312l26 24l256 -186l256 186l27 -24zM526 -25q-217 0 -407 129l-17 263h52q39 -145 135 -234.5t229 -89.5q113 0 185.5 68.5t72.5 173.5q0 100 -69.5 166.5t-219.5 138.5q-78 37 -131 69.5t-111.5 82t-88 114t-29.5 141.5q0 143 107.5 234.5t310.5 91.5 q43 0 82 -4t72.5 -13.5t58 -17.5t51.5 -22.5t40 -21.5t36.5 -23.5t27.5 -18.5l7 -266h-48q-82 319 -325 319q-109 0 -165 -56t-56 -140t63.5 -146.5t206.5 -130.5q68 -33 102.5 -51t100 -61t100.5 -84t63.5 -103.5t28.5 -134.5q0 -166 -134 -269.5t-331 -103.5z" glyph-name="Scaron" horiz-adv-x="1083" unicode="Š"/><glyph d="M410 1071l-283 311l27 25l256 -186l256 186l26 -25zM385 -18q-98 0 -179 26.5t-120 54.5l-4 189h65q66 -205 259 -205q86 0 133 38t47 105q0 49 -32 85t-62.5 50.5t-108.5 43.5q-14 6 -21 8q-57 20 -98 41.5t-86 55.5t-68.5 82t-23.5 106q0 117 91 187.5t249 70.5 q145 0 264 -78l-2 -187h-61q-57 199 -224 199q-74 0 -114.5 -37t-40.5 -92q0 -59 46 -97t144 -75q63 -25 85 -33t80.5 -37.5t83 -55.5t49 -71t24.5 -98q0 -123 -104.5 -199.5t-270.5 -76.5z" glyph-name="scaron" horiz-adv-x="841" unicode="š"/><glyph d="M1182 1311l16 -361h-43q-23 145 -83 210t-216 65h-117v-1018q0 -41 10.5 -67.5t19.5 -42t44 -27t51.5 -14.5t73.5 -11v-45h-250l-51 -100q90 0 151.5 -43t61.5 -117q0 -78 -79 -126t-245 -48l11 47q92 0 138 26.5t46 67.5q0 92 -223 92l102 201h-278v45q57 8 73.5 11 t51 14.5t44 27t19.5 42t10 67.5v1018h-110q-160 0 -221.5 -64.5t-84.5 -210.5h-43l17 361l104 -21h895z" glyph-name="Tcommaaccent" horiz-adv-x="1259" unicode="Ţ"/><glyph d="M666 106q-98 -57 -269 -118l-45 -88q90 0 151.5 -43t61.5 -117q0 -78 -78.5 -126t-244.5 -48l10 47q92 0 138 26.5t46 67.5q0 92 -223 92l98 193q-45 20 -74.5 64t-29.5 94v673h-156v49q176 68 293 215h57v-194l258 27q-10 -41 -10 -97h-248v-594q0 -51 27 -77.5 t70 -27.5t84 7t84 25v-50z" glyph-name="tcommaaccent" horiz-adv-x="647" unicode="ţ"/><glyph d="M909 1753l-282 -311l-283 311l27 25l256 -187l256 187zM1182 1311l16 -361h-43q-23 145 -83 210t-216 65h-117v-1018q0 -41 10.5 -67.5t19.5 -42t44 -27t51.5 -14.5t73.5 -11v-45h-616v45q57 8 73.5 11t51 14.5t44 27t19.5 42t10 67.5v1018h-110q-160 0 -221.5 -64.5 t-84.5 -210.5h-43l17 361l104 -21h895z" glyph-name="Tcaron" horiz-adv-x="1259" unicode="Ť"/><glyph d="M459 989q-16 0 -28.5 11.5t-12.5 29.5l6 234q4 88 76 88q45 0 66.5 -30t2.5 -83l-65 -209q-14 -41 -45 -41zM401 229q0 -51 27 -77.5t70 -27.5t84 7t84 25v-50q-133 -76 -295 -126q-68 0 -116 52t-48 118v673h-156v49q176 68 293 215h57v-194l258 27q-10 -41 -10 -97 h-248v-594z" glyph-name="tcaron" horiz-adv-x="657" unicode="ť"/><glyph d="M1182 1311l16 -361h-43q-23 145 -83 210t-216 65h-117v-557l219 6l-20 -74l-199 6v-399q0 -41 10.5 -67.5t19.5 -42t44 -27t51.5 -14.5t73.5 -11v-45h-616v45q57 8 73.5 11t51 14.5t44 27t19.5 42t10 67.5v399l-237 -6l20 74l217 -6v557h-110q-160 0 -221.5 -64.5 t-84.5 -210.5h-43l17 361l104 -21h895z" glyph-name="Tbar" horiz-adv-x="1259" unicode="Ŧ"/><glyph d="M412 229q0 -51 26.5 -77.5t69.5 -27.5t84 7t84 25v-50q-133 -76 -295 -126q-68 0 -116 52t-48 118v362h-166l21 74h145v237h-156v49q176 68 293 215h58v-194l258 27q-10 -41 -11 -97h-247v-237h233l-20 -74h-213v-283z" glyph-name="tbar" horiz-adv-x="727" unicode="ŧ"/><glyph d="M434 1616l31 78h573l-30 -78h-574zM733 -25q-94 0 -175 21.5t-162 76t-128 167t-47 274.5v569q0 47 -7 76t-35.5 46.5t-42 21.5t-68.5 14q-10 2 -17 4v45h561v-45q-104 -20 -131 -41q-39 -33 -39 -121v-596q0 -424 344 -424q63 0 120 15.5t115 55.5t93 123t35 202v624 q0 47 -8 76t-36 46.5t-44.5 21.5t-67.5 14q-12 2 -18 4v45h444v-45q-115 -20 -141 -41q-43 -33 -43 -121v-583q0 -150 -42 -256.5t-117 -162.5t-159 -81t-184 -25z" glyph-name="Umacron" horiz-adv-x="1470" unicode="Ū"/><glyph d="M289 1227l30 78h574l-31 -78h-573zM442 -18q-266 0 -266 315v465q0 37 -17.5 56.5t-39 25.5t-68.5 14v43q197 -10 320 12v-608q0 -190 166 -190q131 0 249 108v539q0 37 -17 56.5t-38.5 25.5t-68.5 14v43q197 -10 319 12v-733q0 -61 25.5 -91t109.5 -44v-45h-309l12 160 h-26q-175 -178 -351 -178z" glyph-name="umacron" horiz-adv-x="1167" unicode="ū"/><glyph d="M590 1122q-135 0 -209 74t-74 195h47q29 -135 236 -135.5t235 135.5h47q0 -121 -73.5 -195t-208.5 -74zM442 -18q-266 0 -266 315v465q0 37 -17.5 56.5t-39 25.5t-68.5 14v43q197 -10 320 12v-608q0 -190 166 -190q131 0 249 108v539q0 37 -17 56.5t-38.5 25.5t-68.5 14 v43q197 -10 319 12v-733q0 -61 25.5 -91t109.5 -44v-45h-309l12 160h-26q-175 -178 -351 -178z" glyph-name="ubreve" horiz-adv-x="1167" unicode="ŭ"/><glyph d="M735 1481q-76 0 -129 52t-53 128t53 128t129 52t129.5 -52t53.5 -128t-53.5 -128t-129.5 -52zM735 1565q41 0 68.5 27.5t27.5 68.5t-27.5 68.5t-68.5 27.5t-68.5 -27.5t-27.5 -68.5t27.5 -68.5t68.5 -27.5zM733 -25q-94 0 -175 21.5t-162 76t-128 167t-47 274.5v569 q0 47 -7 76t-35.5 46.5t-42 21.5t-68.5 14q-10 2 -17 4v45h561v-45q-104 -20 -131 -41q-39 -33 -39 -121v-596q0 -424 344 -424q63 0 120 15.5t115 55.5t93 123t35 202v624q0 47 -8 76t-36 46.5t-44.5 21.5t-67.5 14q-12 2 -18 4v45h444v-45q-115 -20 -141 -41 q-43 -33 -43 -121v-583q0 -150 -42 -256.5t-117 -162.5t-159 -81t-184 -25z" glyph-name="Uring" horiz-adv-x="1470" unicode="Ů"/><glyph d="M590 1092q-76 0 -129 52t-53 128t53 128t129 52t129 -52t53 -128t-53 -128t-129 -52zM590 1176q41 0 68.5 27.5t27.5 68.5t-27.5 68.5t-68.5 27.5t-68.5 -27.5t-27.5 -68.5t27.5 -68.5t68.5 -27.5zM442 -18q-266 0 -266 315v465q0 37 -17.5 56.5t-39 25.5t-68.5 14v43 q197 -10 320 12v-608q0 -190 166 -190q131 0 249 108v539q0 37 -17 56.5t-38.5 25.5t-68.5 14v43q197 -10 319 12v-733q0 -61 25.5 -91t109.5 -44v-45h-309l12 160h-26q-175 -178 -351 -178z" glyph-name="uring" horiz-adv-x="1167" unicode="ů"/><glyph d="M512 1434l-47 32q57 184 141 303q41 0 89 -34.5t63 -73.5q-103 -69 -246 -227zM834 1434l-48 32q57 184 142 303q41 0 89 -34.5t62 -73.5q-102 -69 -245 -227zM733 -25q-94 0 -175 21.5t-162 76t-128 167t-47 274.5v569q0 47 -7 76t-35.5 46.5t-42 21.5t-68.5 14 q-10 2 -17 4v45h561v-45q-104 -20 -131 -41q-39 -33 -39 -121v-596q0 -424 344 -424q63 0 120 15.5t115 55.5t93 123t35 202v624q0 47 -8 76t-36 46.5t-44.5 21.5t-67.5 14q-12 2 -18 4v45h444v-45q-115 -20 -141 -41q-43 -33 -43 -121v-583q0 -150 -42 -256.5t-117 -162.5 t-159 -81t-184 -25z" glyph-name="Uhungarumlaut" horiz-adv-x="1470" unicode="Ű"/><glyph d="M367 1044l-48 33q57 184 142 303q41 0 89 -34.5t62 -73.5q-102 -70 -245 -228zM688 1044l-47 33q57 184 141 303q41 0 89.5 -34.5t62.5 -73.5q-103 -70 -246 -228zM442 -18q-266 0 -266 315v465q0 37 -17.5 56.5t-39 25.5t-68.5 14v43q197 -10 320 12v-608 q0 -190 166 -190q131 0 249 108v539q0 37 -17 56.5t-38.5 25.5t-68.5 14v43q197 -10 319 12v-733q0 -61 25.5 -91t109.5 -44v-45h-309l12 160h-26q-175 -178 -351 -178z" glyph-name="uhungarumlaut" horiz-adv-x="1167" unicode="ű"/><glyph d="M975 1290h444v-45q-115 -20 -141 -41q-43 -33 -43 -121v-583q0 -426 -344 -508q-168 -72 -168 -197q0 -53 29.5 -83.5t78.5 -30.5q39 0 93 20v-37q-72 -72 -179 -72q-84 0 -138 42t-54 128q0 66 43 123l143 90h-6q-94 0 -175 21.5t-162 76t-128 167t-47 274.5v569 q0 47 -7 76t-35.5 46.5t-42 21.5t-68.5 14q-10 2 -17 4v45h561v-45q-104 -20 -131 -41q-39 -33 -39 -121v-596q0 -424 344 -424q63 0 120 15.5t115 55.5t93 123t35 202v624q0 47 -8 76t-36 46.5t-44.5 21.5t-67.5 14q-12 2 -18 4v45z" glyph-name="Uogonek" horiz-adv-x="1447" unicode="Ų"/><glyph d="M936 0q-94 -53 -135 -99t-41 -106q0 -53 29.5 -83.5t78.5 -30.5q39 0 93 20v-37q-72 -72 -179 -72q-84 0 -138 42t-54 128q0 66 43 123l174 117l12 158h-26q-174 -178 -351 -178q-266 0 -266 315v465q0 37 -17.5 56.5t-39 25.5t-68.5 14v43q197 -10 320 12v-608 q0 -190 166 -190q131 0 249 108v539q0 37 -17 56.5t-38.5 25.5t-68.5 14v43q197 -10 319 12v-733q0 -61 25.5 -91t109.5 -44v-45h-180z" glyph-name="uogonek" horiz-adv-x="1167" unicode="ų"/><glyph d="M1038 1796l283 -311l-27 -25l-256 187l-256 -187l-26 25zM623 -16l-433 1142q-25 66 -52 83.5t-118 33.5v45h531v-45q-8 -2 -25.5 -6t-24.5 -5t-20.5 -5t-19.5 -7t-16.5 -8.5t-13.5 -10.5t-7 -12t-4 -16.5t2 -20.5t6 -26l307 -843l234 665q39 98 0 185.5t-148 111.5v45 h353q0 -80 73 -282l262 -723l267 753q18 49 19 84t-7 55.5t-37 34t-56.5 19.5t-80.5 14v45h448v-45q-66 -12 -87 -19t-43.5 -28.5t-39.5 -69.5l-413 -1142h-82l-355 946l-337 -948h-82z" glyph-name="Wcircumflex" horiz-adv-x="2082" unicode="Ŵ"/><glyph d="M813 1407l283 -311l-27 -25l-256 186l-256 -186l-27 25zM463 -12l-301 780q-20 53 -46 67.5t-96 20.5v45h461v-45q-94 -12 -110 -37q-12 -18 0 -51l196 -535l183 447q33 84 6 131q-12 25 -34 32t-69 13v45h312q0 -74 36 -168l193 -502l178 445q18 45 20.5 77.5t-6 51 t-33 30t-48 15.5t-64.5 6v45h375v-45q-70 -6 -94.5 -20.5t-46.5 -67.5l-312 -780h-71l-275 688l-282 -688h-72z" glyph-name="wcircumflex" horiz-adv-x="1636" unicode="ŵ"/><glyph d="M678 1647l-256 -187l-27 25l283 311l283 -311l-27 -25zM928 1290h403v-45q-82 -16 -107.5 -33.5t-72.5 -93.5l-350 -561v-350q0 -51 9 -80t42 -45t53.5 -21.5t85.5 -15.5v-45h-600v45q121 20 150 43q41 31 41 119v325l-373 586q-49 76 -73.5 93.5t-104.5 33.5v45h540v-45 q-100 -23 -118 -43q-27 -27 8 -84l303 -485l295 485q20 35 23 56.5t-18.5 34t-38.5 17.5t-64 13q-23 4 -33 6v45z" glyph-name="Ycircumflex" horiz-adv-x="1361" unicode="Ŷ"/><glyph d="M530 1257l-256 -186l-26 25l282 311l283 -311l-27 -25zM709 901h329v-45q-70 -8 -93 -22.5t-48 -71.5l-360 -842q-25 -57 -45.5 -97t-55.5 -90t-80 -78t-96 -28q-68 0 -133 47v129q141 -12 221 12.5t115 104.5l31 74l-332 768q-25 57 -48.5 71.5t-93.5 22.5v45h457v-45 q-92 -14 -109.5 -34.5t-0.5 -59.5l227 -539l229 539q8 18 9.5 31.5t-6 22.5t-14.5 15.5t-26.5 11.5t-28.5 6t-34 5q-10 2 -14 2v45z" glyph-name="ycircumflex" horiz-adv-x="1058" unicode="ŷ"/><glyph d="M479 1556q-45 0 -74.5 30t-29.5 75t29.5 74.5t74.5 29.5t75 -29.5t30 -74.5t-30 -75t-75 -30zM885 1556q-45 0 -75 30t-30 75t30 74.5t75 29.5t74.5 -29.5t29.5 -74.5t-29.5 -75t-74.5 -30zM928 1290h403v-45q-82 -16 -107.5 -33.5t-72.5 -93.5l-350 -561v-350 q0 -51 9 -80t42 -45t53.5 -21.5t85.5 -15.5v-45h-600v45q121 20 150 43q41 31 41 119v325l-373 586q-49 76 -73.5 93.5t-104.5 33.5v45h540v-45q-100 -23 -118 -43q-27 -27 8 -84l303 -485l295 485q20 35 23 56.5t-18.5 34t-38.5 17.5t-64 13q-23 4 -33 6v45z" glyph-name="Ydieresis" horiz-adv-x="1361" unicode="Ÿ"/><glyph d="M600 1434l-47 32q57 184 141 303q41 0 89 -34.5t63 -73.5q-103 -69 -246 -227zM84 0l-23 31l801 1206l-420 -8q-147 -2 -205.5 -63.5t-68.5 -207.5h-51v345l121 -13h921l-819 -1237l487 8q141 2 198.5 65.5t88.5 209.5h53q-39 -209 -39 -336h-1044z" glyph-name="Zacute" unicode="Ź"/><glyph d="M467 1044l-47 33q57 184 141 303q41 0 89 -34.5t63 -73.5q-103 -70 -246 -228zM84 0l-23 31l572 815l-266 -6q-172 -2 -193 -211h-51v284l121 -12h647l-590 -846l279 6q127 2 182 54.5t84 158.5h53q-39 -145 -39 -274h-776z" glyph-name="zacute" horiz-adv-x="960" unicode="ź"/><glyph d="M614.5 1501q-49.5 0 -86 35t-36.5 84t36.5 84t86 35t86 -35t36.5 -84t-36.5 -84t-86 -35zM84 0l-23 31l801 1206l-420 -8q-147 -2 -205.5 -63.5t-68.5 -207.5h-51v345l121 -13h921l-819 -1237l487 8q141 2 198.5 65.5t88.5 209.5h53q-39 -209 -39 -336h-1044z" glyph-name="Zdotaccent" unicode="Ż"/><glyph d="M481 1112q-49 0 -86 35t-37 84t37 84t86 35t86 -35t37 -84t-37 -84t-86 -35zM84 0l-23 31l572 815l-266 -6q-172 -2 -193 -211h-51v284l121 -12h647l-590 -846l279 6q127 2 182 54.5t84 158.5h53q-39 -145 -39 -274h-776z" glyph-name="zdotaccent" horiz-adv-x="960" unicode="ż"/><glyph d="M610 1460l-282 312l26 24l256 -186l256 186l27 -24zM84 0l-23 31l801 1206l-420 -8q-147 -2 -205.5 -63.5t-68.5 -207.5h-51v345l121 -13h921l-819 -1237l487 8q141 2 198.5 65.5t88.5 209.5h53q-39 -209 -39 -336h-1044z" glyph-name="Zcaron" unicode="Ž"/><glyph d="M477 1071l-282 311l26 25l256 -186l256 186l27 -25zM84 0l-23 31l572 815l-266 -6q-172 -2 -193 -211h-51v284l121 -12h647l-590 -846l279 6q127 2 182 54.5t84 158.5h53q-39 -145 -39 -274h-776z" glyph-name="zcaron" horiz-adv-x="960" unicode="ž"/><glyph d="M1165 1403q168 0 203 -111q-8 -47 -51 -84t-98 -47q-37 156 -142 156q-68 0 -127 -63.5t-78 -221.5l-16 -133l242 21q-10 -41 -11 -97h-239l-82 -667q-31 -250 -174 -382t-338 -132q-168 0 -203 110q8 47 51 84t99 47q37 -156 141 -155q68 0 127 63.5t78 220.5l98 811 h-145v47l153 31q35 242 178.5 372t333.5 130z" glyph-name="florin" horiz-adv-x="1234" unicode="ƒ"/><glyph d="M526 -25q-217 0 -407 129l-17 263h52q39 -145 135 -234.5t229 -89.5q113 0 185.5 68.5t72.5 173.5q0 100 -69.5 166.5t-219.5 138.5q-78 37 -131 69.5t-111.5 82t-88 114t-29.5 141.5q0 143 107.5 234.5t310.5 91.5q43 0 82 -4t72.5 -13.5t58 -17.5t51.5 -22.5t40 -21.5 t36.5 -23.5t27.5 -18.5l7 -266h-48q-82 319 -325 319q-109 0 -165 -56t-56 -140t63.5 -146.5t206.5 -130.5q68 -33 102.5 -51t100 -61t100.5 -84t63.5 -103.5t28.5 -134.5q0 -166 -134 -269.5t-331 -103.5zM397 -653l-18 43q147 57 174 172q8 31 -4 47t-39 31 q-74 43 -74 116q0 53 38 89t91 36q59 0 100.5 -45t41.5 -125q0 -113 -82.5 -219t-227.5 -145z" glyph-name="Scommaaccent" horiz-adv-x="1083" unicode="Ș"/><glyph d="M385 -18q-98 0 -179 26.5t-120 54.5l-4 189h65q66 -205 259 -205q86 0 133 38t47 105q0 49 -32 85t-62.5 50.5t-108.5 43.5q-14 6 -21 8q-57 20 -98 41.5t-86 55.5t-68.5 82t-23.5 106q0 117 91 187.5t249 70.5q145 0 264 -78l-2 -187h-61q-57 199 -224 199 q-74 0 -114.5 -37t-40.5 -92q0 -59 46 -97t144 -75q63 -25 85 -33t80.5 -37.5t83 -55.5t49 -71t24.5 -98q0 -123 -104.5 -199.5t-270.5 -76.5zM264 -653l-18 43q147 57 174 172q8 31 -4.5 47t-38.5 31q-74 43 -74 116q0 53 38 89t91 36q59 0 100 -45t41 -125 q0 -113 -82 -219t-227 -145z" glyph-name="scommaaccent" horiz-adv-x="841" unicode="ș"/><glyph d="M1182 1311l16 -361h-43q-23 145 -83 210t-216 65h-117v-1018q0 -41 10.5 -67.5t19.5 -42t44 -27t51.5 -14.5t73.5 -11v-45h-616v45q57 8 73.5 11t51 14.5t44 27t19.5 42t10 67.5v1018h-110q-160 0 -221.5 -64.5t-84.5 -210.5h-43l17 361l104 -21h895zM649 -119 q59 0 100.5 -45t41.5 -125q0 -113 -82 -219t-228 -145l-18 43q147 57 174 172q8 31 -4 47t-39 31q-74 43 -74 116q0 53 38 89t91 36z" glyph-name="uni021A" horiz-adv-x="1259" unicode="Ț"/><glyph d="M401 229q0 -51 27 -77.5t70 -27.5t84 7t84 25v-50q-133 -76 -295 -126q-68 0 -116 52t-48 118v673h-156v49q176 68 293 215h57v-194l258 27q-10 -41 -10 -97h-248v-594zM377 -119q59 0 100 -45t41 -125q0 -113 -82 -219t-227 -145l-19 43q147 57 175 172q8 31 -4.5 47 t-38.5 31q-74 43 -74 116q0 53 38 89t91 36z" glyph-name="uni021B" horiz-adv-x="647" unicode="ț"/><glyph d="M6 -379q-18 27 0 53q113 35 144.5 89.5t31.5 211.5v670q0 61 -25.5 90t-109.5 39v41q145 27 287 119l43 -39v-930q0 -86 -35 -152.5t-94.5 -104.5t-117.5 -58.5t-124 -28.5z" glyph-name="uni0237" horiz-adv-x="499" unicode="ȷ"/><glyph d="M303 1407l283 -311l-27 -25l-256 186l-256 -186l-27 25z" glyph-name="circumflex" horiz-adv-x="614" unicode="ˆ"/><glyph d="M303 1071l-283 311l27 25l256 -186l256 186l27 -25z" glyph-name="caron" horiz-adv-x="606" unicode="ˇ"/><glyph d="M303 1122q-135 0 -209 74t-74 195h48q29 -135 235.5 -135.5t235.5 135.5h47q0 -121 -74 -195t-209 -74z" glyph-name="breve" horiz-adv-x="606" unicode="˘"/><glyph d="M143.5 1112q-49.5 0 -86.5 35t-37 84t37 84t86.5 35t86 -35t36.5 -84t-36.5 -84t-86 -35z" glyph-name="dotaccent" horiz-adv-x="286" unicode="˙"/><glyph d="M203 1092q-76 0 -129.5 52t-53.5 128t53.5 128t129.5 52t129 -52t53 -128t-53 -128t-129 -52zM203 1176q41 0 68.5 27.5t27.5 68.5t-27.5 68.5t-68.5 27.5t-69 -27.5t-28 -68.5t28 -68.5t69 -27.5z" glyph-name="ring" horiz-adv-x="405" unicode="˚"/><glyph d="M213 -375q-84 0 -138.5 42t-54.5 128q0 66 43 123l304 203v-88q-94 -53 -135.5 -99.5t-41.5 -105.5q0 -53 30 -84t79 -31q39 0 92 21v-37q-72 -72 -178 -72z" glyph-name="ogonek" horiz-adv-x="411" unicode="˛"/><glyph d="M504 1083q-53 0 -99.5 22.5t-73 50.5t-65.5 50.5t-82 22.5q-53 0 -84.5 -29t-31.5 -61h-43q-18 92 44 154.5t160 62.5q68 0 120 -37t99.5 -73t100.5 -36t85 29t32 61h43q18 -92 -44.5 -154.5t-160.5 -62.5z" glyph-name="tilde" horiz-adv-x="733" unicode="˜"/><glyph d="M68 1044l-48 33q57 184 142 303q41 0 89 -34.5t62 -73.5q-102 -70 -245 -228zM389 1044l-47 33q57 184 141 303q41 0 89.5 -34.5t62.5 -73.5q-103 -70 -246 -228z" glyph-name="hungarumlaut" horiz-adv-x="655" unicode="˝"/><glyph d="M-272 1044l-47 33q57 184 141 303q41 0 89 -34.5t62 -73.5q-102 -70 -245 -228z" glyph-name="acutecomb" horiz-adv-x="0" unicode="́"/><glyph d="M-309 -653l-19 43q147 57 174 172q8 31 -4 47t-39 31q-74 43 -73 116q0 53 37.5 89t91.5 36q59 0 100 -45t41 -125q0 -113 -82 -219t-227 -145z" glyph-name="uni0326" horiz-adv-x="0" unicode="̦"/><glyph d="M20 0l578 1298l578 -1298h-1156zM156 158h733l-361 846z" glyph-name="Delta" horiz-adv-x="1196" unicode="Δ"/><glyph d="M1397 229h41l-74 -229h-434v170q86 43 167 186.5t81 329.5q0 242 -114 393.5t-294 151.5t-294 -151.5t-114 -393.5q0 -186 81 -329.5t167 -186.5v-170h-434l-74 229h41q31 -41 77 -50t153 -9h61q-123 74 -217 214t-94 323q0 242 182 420t465 178t465 -178.5t182 -419.5 q0 -182 -94 -322.5t-217 -214.5h61q74 0 107 2t66.5 15t56.5 42z" glyph-name="Omega" horiz-adv-x="1540" unicode="Ω"/><glyph d="M981 180q0 -61 25.5 -91t109.5 -44v-45h-309l12 160h-26q-174 -178 -351 -178q-119 0 -182 63q6 -84 28.5 -145.5t45 -87t41 -47t18.5 -37.5q0 -86 -76 -125q-72 -37 -120 10q-31 31 -31 90v647h10v412q0 37 -17.5 56.5t-39 25.5t-68.5 14v43q197 -10 320 12v-608 q0 -190 166 -190q131 0 249 108v539q0 37 -17 56.5t-38.5 25.5t-68.5 14v43q197 -10 319 12v-733z" glyph-name="mu" horiz-adv-x="1167" unicode="μ"/><glyph d="M1241 217q41 0 62.5 -28.5t21.5 -69.5q0 -70 -59.5 -104.5t-143.5 -34.5q-123 0 -194.5 75.5t-71.5 210.5v520h-276v-538q0 -123 -71 -191.5t-169 -68.5q-74 0 -141 24l-25 66q86 -20 148.5 21.5t62.5 148.5v538h-98q-72 0 -100.5 -45t-8.5 -125l-61 31q-51 104 -7 190.5 t158 86.5h975v-138h-192v-608q0 -45 13 -74.5t36 -29.5q27 0 42 22.5t21 49t25.5 49t52.5 22.5z" glyph-name="pi" horiz-adv-x="1417" unicode="π"/><glyph d="M1059 1434q-143 158 -246 227q14 39 62.5 73.5t89.5 34.5q84 -119 141 -303zM623 -16l-433 1142q-25 66 -52 83.5t-118 33.5v45h531v-45q-8 -2 -25.5 -6t-24.5 -5t-20.5 -5t-19.5 -7t-16.5 -8.5t-13.5 -10.5t-7 -12t-4 -16.5t2 -20.5t6 -26l307 -843l234 665 q39 98 0 185.5t-148 111.5v45h353q0 -80 73 -282l262 -723l267 753q18 49 19 84t-7 55.5t-37 34t-56.5 19.5t-80.5 14v45h448v-45q-66 -12 -87 -19t-43.5 -28.5t-39.5 -69.5l-413 -1142h-82l-355 946l-337 -948h-82z" glyph-name="Wgrave" horiz-adv-x="2082" unicode="Ẁ"/><glyph d="M834 1044q-143 158 -246 228q14 39 62 73.5t89 34.5q84 -119 142 -303zM463 -12l-301 780q-20 53 -46 67.5t-96 20.5v45h461v-45q-94 -12 -110 -37q-12 -18 0 -51l196 -535l183 447q33 84 6 131q-12 25 -34 32t-69 13v45h312q0 -74 36 -168l193 -502l178 445 q18 45 20.5 77.5t-6 51t-33 30t-48 15.5t-64.5 6v45h375v-45q-70 -6 -94.5 -20.5t-46.5 -67.5l-312 -780h-71l-275 688l-282 -688h-72z" glyph-name="wgrave" horiz-adv-x="1636" unicode="ẁ"/><glyph d="M1028 1434l-47 32q57 184 141 303q41 0 89.5 -34.5t62.5 -73.5q-103 -69 -246 -227zM623 -16l-433 1142q-25 66 -52 83.5t-118 33.5v45h531v-45q-8 -2 -25.5 -6t-24.5 -5t-20.5 -5t-19.5 -7t-16.5 -8.5t-13.5 -10.5t-7 -12t-4 -16.5t2 -20.5t6 -26l307 -843l234 665 q39 98 0 185.5t-148 111.5v45h353q0 -80 73 -282l262 -723l267 753q18 49 19 84t-7 55.5t-37 34t-56.5 19.5t-80.5 14v45h448v-45q-66 -12 -87 -19t-43.5 -28.5t-39.5 -69.5l-413 -1142h-82l-355 946l-337 -948h-82z" glyph-name="Wacute" horiz-adv-x="2082" unicode="Ẃ"/><glyph d="M803 1044l-47 33q57 184 141 303q41 0 89 -34.5t63 -73.5q-103 -70 -246 -228zM463 -12l-301 780q-20 53 -46 67.5t-96 20.5v45h461v-45q-94 -12 -110 -37q-12 -18 0 -51l196 -535l183 447q33 84 6 131q-12 25 -34 32t-69 13v45h312q0 -74 36 -168l193 -502l178 445 q18 45 20.5 77.5t-6 51t-33 30t-48 15.5t-64.5 6v45h375v-45q-70 -6 -94.5 -20.5t-46.5 -67.5l-312 -780h-71l-275 688l-282 -688h-72z" glyph-name="wacute" horiz-adv-x="1636" unicode="ẃ"/><glyph d="M840 1556q-45 0 -75 30t-30 75t30 74.5t75 29.5t74.5 -29.5t29.5 -74.5t-29.5 -75t-74.5 -30zM1245 1556q-45 0 -74.5 30t-29.5 75t29.5 74.5t74.5 29.5t75 -29.5t30 -74.5t-30 -75t-75 -30zM623 -16l-433 1142q-25 66 -52 83.5t-118 33.5v45h531v-45q-8 -2 -25.5 -6 t-24.5 -5t-20.5 -5t-19.5 -7t-16.5 -8.5t-13.5 -10.5t-7 -12t-4 -16.5t2 -20.5t6 -26l307 -843l234 665q39 98 0 185.5t-148 111.5v45h353q0 -80 73 -282l262 -723l267 753q18 49 19 84t-7 55.5t-37 34t-56.5 19.5t-80.5 14v45h448v-45q-66 -12 -87 -19t-43.5 -28.5 t-39.5 -69.5l-413 -1142h-82l-355 946l-337 -948h-82z" glyph-name="Wdieresis" horiz-adv-x="2082" unicode="Ẅ"/><glyph d="M614 1167q-45 0 -74.5 30t-29.5 75t29.5 74.5t74.5 29.5t75 -29.5t30 -74.5t-30 -75t-75 -30zM1020 1167q-45 0 -75 30t-30 75t30 74.5t75 29.5t74.5 -29.5t29.5 -74.5t-29.5 -75t-74.5 -30zM463 -12l-301 780q-20 53 -46 67.5t-96 20.5v45h461v-45q-94 -12 -110 -37 q-12 -18 0 -51l196 -535l183 447q33 84 6 131q-12 25 -34 32t-69 13v45h312q0 -74 36 -168l193 -502l178 445q18 45 20.5 77.5t-6 51t-33 30t-48 15.5t-64.5 6v45h375v-45q-70 -6 -94.5 -20.5t-46.5 -67.5l-312 -780h-71l-275 688l-282 -688h-72z" glyph-name="wdieresis" horiz-adv-x="1636" unicode="ẅ"/><glyph d="M967 707q184 -18 301.5 -110.5t117.5 -254.5t-117.5 -272.5t-322.5 -110.5q-152 0 -266 66q-4 113 -35 249h53q59 -143 112.5 -196t129.5 -53q102 0 163.5 73.5t61.5 192.5q0 170 -127 265t-350 95l338 531q-90 37 -219 37q-68 0 -126 -18.5t-115.5 -64.5t-90.5 -140.5 t-33 -231.5v-557q0 -51 7.5 -80t32 -45t41 -21.5t65.5 -15.5v-45h-537v45q104 20 131 41q39 33 39 121v530q0 137 34 240.5t85 165t124 99.5t140.5 50.5t143.5 12.5q248 0 518 -127z" glyph-name="uni1E9E" horiz-adv-x="1478" unicode="ẞ"/><glyph d="M309 1528h-43q-18 92 44.5 154.5t160.5 62.5q68 0 120 -37t99 -73t100.5 -36t85 29t31.5 62h43q18 -92 -44 -154.5t-161 -62.5q-86 0 -172 72.5t-147 72.5q-53 0 -85 -28.5t-32 -61.5zM1096 307h55l-84 -307h-1006v45q104 20 132 41q39 33 38 121v876q0 47 -7 76 t-35.5 46.5t-42 21.5t-68.5 14q-10 2 -17 4v45h1002l18 -291h-55q-14 117 -55 167.5t-146 50.5h-182q-121 0 -156.5 -27t-35.5 -129v-375h157q176 0 225.5 35t59.5 137h43v-414h-43q-10 102 -59.5 137t-225.5 35h-157v-387q0 -102 35.5 -128.5t156.5 -26.5h139q121 0 189 50 t125 183z" glyph-name="uni1EBC" horiz-adv-x="1222" unicode="Ẽ"/><glyph d="M207 1139h-43q-18 92 44 154.5t161 62.5q68 0 120 -37t99 -73t100 -36t85 29t32 61h43q18 -92 -44.5 -154.5t-160.5 -62.5q-86 0 -172 73t-147 73q-53 0 -85 -28.5t-32 -61.5zM643 113q170 0 244 110l35 -22q-37 -104 -134.5 -161.5t-230.5 -57.5q-203 0 -339 127 t-136 335.5t132 342t331 133.5q211 0 313.5 -141.5t48.5 -280.5h-624q8 -170 105 -277.5t255 -107.5zM524 852q-96 0 -163.5 -75t-75.5 -212h438q16 106 -36 196.5t-163 90.5z" glyph-name="uni1EBD" horiz-adv-x="1015" unicode="ẽ"/><glyph d="M698 1434q-143 158 -245 227q14 39 62 73.5t89 34.5q84 -119 141 -303zM928 1290h403v-45q-82 -16 -107.5 -33.5t-72.5 -93.5l-350 -561v-350q0 -51 9 -80t42 -45t53.5 -21.5t85.5 -15.5v-45h-600v45q121 20 150 43q41 31 41 119v325l-373 586q-49 76 -73.5 93.5 t-104.5 33.5v45h540v-45q-100 -23 -118 -43q-27 -27 8 -84l303 -485l295 485q20 35 23 56.5t-18.5 34t-38.5 17.5t-64 13q-23 4 -33 6v45z" glyph-name="Ygrave" horiz-adv-x="1361" unicode="Ỳ"/><glyph d="M551 1044q-143 158 -246 228q14 39 62.5 73.5t89.5 34.5q84 -119 141 -303zM709 901h329v-45q-70 -8 -93 -22.5t-48 -71.5l-360 -842q-25 -57 -45.5 -97t-55.5 -90t-80 -78t-96 -28q-68 0 -133 47v129q141 -12 221 12.5t115 104.5l31 74l-332 768q-25 57 -48.5 71.5 t-93.5 22.5v45h457v-45q-92 -14 -109.5 -34.5t-0.5 -59.5l227 -539l229 539q8 18 9.5 31.5t-6 22.5t-14.5 15.5t-26.5 11.5t-28.5 6t-34 5q-10 2 -14 2v45z" glyph-name="ygrave" horiz-adv-x="1058" unicode="ỳ"/><glyph d="M102 496v71h1158v-71h-1158z" glyph-name="endash" horiz-adv-x="1361" unicode="–"/><glyph d="M102 496v71h1678v-71h-1678z" glyph-name="emdash" horiz-adv-x="1882" unicode="—"/><glyph d="M102 496v71h1678v-71h-1678z" glyph-name="afii00208" horiz-adv-x="1882" unicode="―"/><glyph d="M391 1317l19 -43q-147 -57 -174 -172q-8 -31 4 -47.5t39 -30.5q74 -43 73 -117q0 -53 -38 -89t-91 -36q-59 0 -100 45t-41 125q0 113 82 219.5t227 145.5z" glyph-name="quoteleft" horiz-adv-x="491" unicode="‘"/><glyph d="M100 791l-18 43q147 57 174 172q8 31 -4 47t-39 30q-74 43 -74 117q0 53 38 89t91 36q59 0 100.5 -45t41.5 -125q0 -113 -82.5 -219t-227.5 -145z" glyph-name="quoteright" horiz-adv-x="491" unicode="’"/><glyph d="M100 -303l-18 43q147 57 174 172q8 31 -4 47t-39 31q-74 43 -74 116q0 53 38 89t91 36q59 0 100.5 -45t41.5 -125q0 -113 -82.5 -219t-227.5 -145z" glyph-name="quotesinglbase" horiz-adv-x="491" unicode="‚"/><glyph d="M391 1317l19 -43q-147 -57 -174 -172q-8 -31 4 -47.5t39 -30.5q74 -43 73 -117q0 -53 -38 -89t-91 -36q-59 0 -100 45t-41 125q0 113 82 219.5t227 145.5zM791 1317l18 -43q-147 -57 -174 -172q-8 -31 4 -47.5t39 -30.5q74 -43 74 -117q0 -53 -38 -89t-91 -36 q-59 0 -100.5 45t-41.5 125q0 113 82.5 219.5t227.5 145.5z" glyph-name="quotedblleft" horiz-adv-x="890" unicode="“"/><glyph d="M100 791l-18 43q147 57 174 172q8 31 -4 47t-39 30q-74 43 -74 117q0 53 38 89t91 36q59 0 100.5 -45t41.5 -125q0 -113 -82.5 -219t-227.5 -145zM500 791l-19 43q147 57 174 172q8 31 -4 47t-39 30q-74 43 -73 117q0 53 37.5 89t91.5 36q59 0 100 -45t41 -125 q0 -113 -82 -219t-227 -145z" glyph-name="quotedblright" horiz-adv-x="890" unicode="”"/><glyph d="M100 -293l-18 43q147 57 174 172q8 31 -4 47.5t-39 30.5q-74 43 -74 117q0 53 38 89t91 36q59 0 100.5 -45t41.5 -125q0 -113 -82.5 -219.5t-227.5 -145.5zM500 -293l-19 43q147 57 174 172q8 31 -4 47.5t-39 30.5q-74 43 -73 117q0 53 37.5 89t91.5 36q59 0 100 -45 t41 -125q0 -113 -82 -219.5t-227 -145.5z" glyph-name="quotedblbase" horiz-adv-x="890" unicode="„"/><glyph d="M530 0l-88 678l80 127v110q-59 -2 -135 -47t-113 -45q-45 0 -77.5 32t-32.5 79t32.5 78.5t77.5 31.5q37 0 113 -46t135 -46q0 57 -45 133t-45 113q0 45 32 78t79 33t78.5 -33t31.5 -78q0 -37 -45 -112.5t-45 -133.5q59 0 135 46t113 46q45 0 78 -31.5t33 -78.5t-33 -79 t-78 -32q-37 0 -112.5 45t-135.5 47v-110l80 -127l-88 -678h-25z" glyph-name="dagger" horiz-adv-x="1085" unicode="†"/><glyph d="M543 -14q-47 0 -79 32.5t-32 77.5q0 37 45 113t45 133q-59 0 -135 -46t-113 -46q-45 0 -77.5 31.5t-32.5 79t32.5 79t77.5 31.5q37 0 113 -45t135 -47v110l-80 168l80 148v110q-59 -2 -135 -47t-113 -45q-45 0 -77.5 32t-32.5 79t32.5 78.5t77.5 31.5q37 0 113 -46 t135 -46q0 57 -45 133t-45 113q0 45 32 78t79 33t78.5 -33t31.5 -78q0 -37 -45 -112.5t-45 -133.5q59 0 135 46t113 46q45 0 78 -31.5t33 -78.5t-33 -79t-78 -32q-37 0 -112.5 45t-135.5 47v-110l80 -148l-80 -168v-110q59 2 135 47t113 45q45 0 78 -31.5t33 -79t-33 -79 t-78 -31.5q-37 0 -112.5 46t-135.5 46q0 -57 45 -133t45 -113q0 -45 -31.5 -77.5t-78.5 -32.5z" glyph-name="daggerdbl" horiz-adv-x="1118" unicode="‡"/><glyph d="M332 317q-86 0 -147.5 61.5t-61.5 147.5t61.5 147.5t147.5 61.5t147.5 -61.5t61.5 -147.5t-61.5 -147.5t-147.5 -61.5z" glyph-name="bullet" horiz-adv-x="663" unicode="•"/><glyph d="M231.5 -20q-53.5 0 -91.5 36.5t-38 89.5q0 51 38 88t91.5 37t91 -36.5t37.5 -88.5q0 -53 -37.5 -89.5t-91 -36.5zM635 -20q-53 0 -91 36.5t-38 89.5q0 51 38 88t91 37t91 -36.5t38 -88.5q0 -53 -38 -89.5t-91 -36.5zM1038.5 -20q-53.5 0 -91.5 36.5t-38 89.5q0 51 38 88 t91.5 37t91 -36.5t37.5 -88.5q0 -53 -37.5 -89.5t-91 -36.5z" glyph-name="ellipsis" horiz-adv-x="1269" unicode="…"/><glyph d="M1102 1290h125l-916 -1290h-108l813 1135q-166 -102 -375 2q8 -31 8 -74q0 -156 -96 -281t-236 -125q-98 0 -156.5 67t-58.5 175q0 154 102.5 274.5t244.5 120.5q72 0 118 -34q76 -43 127 -68t113.5 -41t109 -8t95.5 43.5t90 103.5zM358 721q90 0 159 109.5t69 232.5 q0 80 -35 126t-90 46q-92 0 -149.5 -115.5t-57.5 -236.5q0 -162 104 -162zM1116 633q96 0 148.5 -62.5t52.5 -169.5q0 -156 -96.5 -280.5t-235.5 -124.5q-98 0 -156.5 66.5t-58.5 175.5q0 154 102.5 274.5t243.5 120.5zM1726 633q96 0 148.5 -62.5t52.5 -169.5 q0 -156 -96 -280.5t-236 -124.5q-98 0 -156.5 66.5t-58.5 175.5q0 154 102.5 274.5t243.5 120.5zM1026 59q90 0 158.5 110t68.5 232q0 80 -34.5 126t-90.5 46q-92 0 -149 -115.5t-57 -236.5q0 -162 104 -162zM1636 59q90 0 159 110t69 232q0 80 -35 126t-90 46 q-92 0 -149.5 -115.5t-57.5 -236.5q0 -162 104 -162z" glyph-name="perthousand" horiz-adv-x="2029" unicode="‰"/><glyph d="M102 461l312 282l24 -26l-186 -256l186 -256l-24 -27z" glyph-name="guilsinglleft" horiz-adv-x="540" unicode="‹"/><glyph d="M438 461l-311 -283l-25 27l187 256l-187 256l25 26z" glyph-name="guilsinglright" horiz-adv-x="540" unicode="›"/><glyph d="M-358 -10l884 1313h58l-885 -1313h-57z" glyph-name="fraction" horiz-adv-x="225" unicode="⁄"/><glyph d="M1434 186l41 -43q-66 -72 -190 -120t-279 -48q-256 0 -436.5 138.5t-233.5 365.5h-234l21 101h196q-2 23 -2 67q0 27 5 76h-170l20 100h166q57 225 241.5 362.5t450.5 137.5q242 0 400 -94q8 -186 14 -277h-74q-68 297 -371 297q-182 0 -294.5 -111.5t-139.5 -314.5h439 l-21 -100h-424v-12q0 -63 10 -131h385l-20 -101h-342q57 -186 196.5 -294.5t319.5 -108.5q224 -1 326 110z" glyph-name="Euro" horiz-adv-x="1576" unicode="€"/><glyph d="M1413 1245q-104 -20 -131 -41q-39 -33 -39 -121v-876q0 -47 7 -76t36 -46t42 -21.5t69 -14.5q10 -2 16 -4v-45h-1352v45q104 20 132 41q39 33 38 121v876q0 47 -7 76t-35.5 46.5t-42 21.5t-68.5 14q-10 2 -17 4v45h1352v-45zM891 1239q-66 -14 -93.5 -43t-27.5 -113v-403 h254v403q0 84 -30.5 113t-102.5 43zM451 680h120v403q0 106 -57 136q-63 -29 -63 -136v-403zM514 72q57 29 57 135v403h-120v-403q0 -106 63 -135zM891 51q72 14 102.5 43t30.5 113v403h-254v-403q0 -84 27.5 -113t93.5 -43z" glyph-name="uni210D" horiz-adv-x="1474" unicode="ℍ"/><glyph d="M193 612v37q39 4 52 7t31.5 12.5t23.5 27t5 45.5v504h-63q-76 0 -108 -37t-44 -114h-29l9 196h598l10 -196h-29q-14 78 -45 114.5t-104 36.5h-68l2 -504q0 -55 22.5 -69.5t90.5 -22.5v-37h-354zM758 612v37q33 6 43 8t28.5 11.5t23.5 27t5 45.5v422q0 29 -5 45.5 t-24.5 25.5t-27.5 12t-43 9v35h221l223 -504l197 504h237v-35q-4 0 -10 -2q-27 -6 -38 -9t-25.5 -12t-19.5 -25.5t-5 -43.5l2 -422q0 -39 13.5 -58t27.5 -23.5t55 -10.5v-37h-321v37q27 4 35 6t24.5 8.5t21.5 14.5t10 24.5t5 38.5v445l-231 -574h-37l-236 529l-2 -400 q0 -39 15.5 -58t31 -23.5t60.5 -10.5v-37h-254z" glyph-name="trademark" horiz-adv-x="1697" unicode="™"/><glyph d="M348 836v-21h-256v21q45 4 61.5 12t16.5 33v338q0 23 -8 29.5t-25 2.5l-41 -10v23l158 67l16 -12v-438q0 -25 16.5 -33t61.5 -12zM967 1303h57l-885 -1313h-57zM1065 270q111 -47 111 -137q0 -68 -58.5 -110.5t-150.5 -42.5q-86 0 -142.5 38.5t-56.5 104.5q0 84 90 129 q-57 45 -57 110q0 57 48 97.5t124 40.5q72 0 116 -37t44 -86q0 -60 -68 -107zM973 465q-45 0 -66.5 -21.5t-21.5 -52.5q0 -57 88 -88l53 -18q43 35 43 90q0 37 -23.5 63.5t-72.5 26.5zM973 14q106 0 106 88q0 35 -20.5 53.5t-79.5 41.5l-55 20q-20 6 -31 14 q-59 -39 -59 -102q0 -51 36.5 -83t102.5 -32z" glyph-name="oneeighth" horiz-adv-x="1277" unicode="⅛"/><glyph d="M461 963q0 -76 -69.5 -126.5t-168.5 -50.5q-55 0 -98 15.5t-43 46.5t35 31q18 0 52 -32t69 -32q47 0 85.5 34t38.5 91q0 55 -36.5 83t-92.5 28q-35 0 -73 -15l-10 25l63 24q66 25 93.5 46.5t27.5 58.5q0 66 -84 65.5t-131 -55.5l-21 17q66 96 189 96q59 0 97 -29t38 -76 q0 -68 -115 -118q63 -4 108.5 -35t45.5 -92zM1122 1303h58l-885 -1313h-57zM1323 270q111 -47 111 -137q0 -68 -58.5 -110.5t-150.5 -42.5q-86 0 -142.5 38.5t-56.5 104.5q0 84 90 129q-57 45 -57 110q0 57 48 97.5t124 40.5q72 0 116 -37t44 -86q0 -60 -68 -107zM1231 465 q-45 0 -66.5 -21.5t-21.5 -52.5q0 -57 88 -88l53 -18q43 35 43 90q0 37 -23.5 63.5t-72.5 26.5zM1231 14q106 0 106 88q0 35 -20.5 53.5t-79.5 41.5l-55 20q-20 6 -31 14q-59 -39 -59 -102q0 -51 36.5 -83t102.5 -32z" glyph-name="threeeighths" horiz-adv-x="1515" unicode="⅜"/><glyph d="M463 985q0 -80 -69.5 -133t-170.5 -53q-51 0 -96 15t-45 46t35 31q18 0 53 -32t72 -32q47 0 83.5 34t36.5 89q0 129 -231 115l-14 16l80 230h137q80 0 98 24h19l-35 -100h-209l-35 -102q168 10 229.5 -37.5t61.5 -110.5zM1102 1303h57l-885 -1313h-57zM1303 270 q111 -47 110 -137q0 -68 -58.5 -110.5t-150.5 -42.5q-86 0 -142 38.5t-56 104.5q0 84 90 129q-57 45 -58 110q0 57 48.5 97.5t123.5 40.5q72 0 116 -37t44 -86q1 -60 -67 -107zM1210 465q-45 0 -66.5 -21.5t-21.5 -52.5q0 -57 88 -88l54 -18q43 35 43 90q0 37 -24 63.5 t-73 26.5zM1210 14q106 0 107 88q0 35 -20.5 53.5t-79.5 41.5l-56 20q-20 6 -31 14q-59 -39 -59 -102q0 -51 36.5 -83t102.5 -32z" glyph-name="fiveeighths" horiz-adv-x="1495" unicode="⅝"/><glyph d="M223 815h-67q59 195 215 436h-170q-29 0 -42.5 -3t-29.5 -16t-29 -40h-18l43 135l37 -8h272l10 -12q-164 -250 -221 -492zM1051 1303h57l-885 -1313h-57zM1251 270q111 -47 111 -137q0 -68 -58.5 -110.5t-150.5 -42.5q-86 0 -142.5 38.5t-56.5 104.5q0 84 90 129 q-57 45 -57 110q0 57 48 97.5t124 40.5q72 0 116 -37t44 -86q0 -60 -68 -107zM1159 465q-45 0 -66.5 -21.5t-21.5 -52.5q0 -57 88 -88l53 -18q43 35 43 90q0 37 -23.5 63.5t-72.5 26.5zM1159 14q106 0 107 88q0 35 -20.5 53.5t-80.5 41.5l-55 20q-20 6 -31 14 q-59 -39 -59 -102q0 -51 36.5 -83t102.5 -32z" glyph-name="seveneighths" horiz-adv-x="1413" unicode="⅞"/><glyph d="M588 -25q-215 0 -350.5 131.5t-135.5 323.5q0 117 55.5 209t144.5 137t201.5 51.5t225.5 -47.5v-51q-207 43 -308.5 -52t-101.5 -274q0 -152 69 -257t194 -105q133 0 204.5 125t71.5 326q0 174 -49 318t-131 234.5t-180.5 142.5t-202.5 62l31 56q285 -16 516 -239.5 t233 -539.5q2 -236 -126 -393.5t-361 -157.5z" glyph-name="partialdiff" horiz-adv-x="1157" unicode="∂"/><glyph d="M901 758q115 -131 115 -307q0 -195 -136.5 -332t-330.5 -137q-174 0 -305 114l-113 -112l-45 47l111 110q-115 131 -115 310q0 193 137 330t330 137q176 0 307 -115l113 112l45 -45zM150 451q0 -150 94 -261l565 564q-109 96 -260 96q-166 0 -282.5 -116.5t-116.5 -282.5 zM549 49q166 0 282.5 117t116.5 285q0 147 -94 258l-563 -566q111 -94 258 -94z" glyph-name="emptyset" horiz-adv-x="1097" unicode="∅"/><glyph d="M1143 1638v-2048h-121v1928h-758v-1928h-121v2048h1000z" glyph-name="product" horiz-adv-x="1286" unicode="∏"/><glyph d="M1024 1638v-120h-729l606 -906l-606 -901h729v-121h-881v121l594 903l-594 904v120h881z" glyph-name="summation" horiz-adv-x="1167" unicode="∑"/><glyph d="M143 455v120h758v-120h-758z" glyph-name="minus" horiz-adv-x="1044" unicode="−"/><glyph d="M592 -410l-326 682q-39 82 -73.5 114t-110.5 60v68h248l319 -661l633 1787h223v-69q-92 -27 -125.5 -57.5t-66.5 -120.5l-658 -1803h-63z" glyph-name="radical" horiz-adv-x="1525" unicode="√"/><glyph d="M422 129q-143 0 -241.5 112.5t-98.5 301.5q0 180 90 284.5t217 104.5q166 0 287 -189q113 188 303 189q143 0 241.5 -112.5t98.5 -301.5q0 -180 -90 -284.5t-217 -104.5q-166 0 -287 188q-113 -188 -303 -188zM360 313q150 0 215 183l60 166q-92 125 -238 124 q-96 0 -167.5 -56t-71.5 -185q0 -121 59 -176.5t143 -55.5zM1004 274q96 0 167.5 56.5t71.5 185.5q0 121 -59.5 176.5t-143.5 55.5q-150 0 -215 -183l-59 -166q93 -125 238 -125z" glyph-name="infinity" horiz-adv-x="1400" unicode="∞"/><glyph d="M254 -358q-168 0 -203 110q8 47 51 84t99 47q37 -152 141 -151q70 0 128 61.5t77 218.5l104 869q31 252 175.5 387t338.5 135q168 0 203 -111q-8 -47 -51 -84t-98 -47q-37 152 -142 152q-70 0 -128 -61.5t-77 -219.5l-106 -876q-31 -250 -174 -382t-338 -132z" glyph-name="integral" horiz-adv-x="1419" unicode="∫"/><glyph d="M668 561q-82 0 -144.5 37t-118 73t-119 36t-101.5 -31t-38 -64h-45q-20 94 50.5 158t187.5 64q63 0 117.5 -23t86 -50.5t79 -50t98.5 -22.5q66 0 102.5 30t36.5 64h45q20 -94 -50 -157.5t-187 -63.5zM668 213q-82 0 -144.5 37t-118 72.5t-119 35.5t-101.5 -30.5 t-38 -63.5h-45q-20 94 50.5 157.5t187.5 63.5q63 0 117.5 -22.5t86 -50t79 -50t98.5 -22.5q66 0 102.5 29.5t36.5 64.5h45q20 -94 -50 -157.5t-187 -63.5z" glyph-name="approxequal" horiz-adv-x="1142" unicode="≈"/><glyph d="M901 639h-260l-102 -248h362v-121h-414l-112 -270h-129l112 270h-215v121h267l102 248h-369v121h420l107 256h129l-107 -256h209v-121z" glyph-name="notequal" horiz-adv-x="1044" unicode="≠"/><glyph d="M901 270q-373 203 -758 351v120q385 147 758 351v-140q-266 -145 -618 -270q358 -129 618 -272v-140zM901 2h-758v121h758v-121z" glyph-name="lessequal" horiz-adv-x="1044" unicode="≤"/><glyph d="M143 270v140q260 143 619 272q-352 125 -619 270v140q373 -203 758 -351v-120q-385 -148 -758 -351zM143 2v121h758v-121h-758z" glyph-name="greaterequal" horiz-adv-x="1044" unicode="≥"/><glyph d="M623 -37l-521 672l521 674l520 -674zM623 102l409 533l-409 534l-410 -534z" glyph-name="lozenge" horiz-adv-x="1245" unicode="◊"/><glyph d="M1483 207q0 -47 7 -76t35.5 -46t42 -21.5t68.5 -14.5q10 -2 17 -4v-45h-559v45q104 20 131 41q39 33 39 121l-2 903l-437 -1110h-61l-445 1030v-823q0 -49 9.5 -79t42 -46t51 -21.5t80.5 -15.5v-45h-441v45q106 20 134 41q41 33 41 121v876q0 47 -8.5 76t-36 46.5 t-43 21.5t-66.5 14q-12 2 -19 4v45h379q4 -27 64 -157l358 -832l322 832q51 135 55 157h410v-45q-104 -20 -129 -41q-39 -33 -39 -121v-876z" glyph-name="M.aalt" horiz-adv-x="1714"/><glyph d="M1513 1290h383v-45q-68 -12 -87 -18t-42.5 -27.5t-42.5 -69.5l-475 -1144h-86l-207 491l-204 -491h-80l-484 1142q-29 68 -55.5 84.5t-112.5 32.5v45h1379v-45q-68 -12 -87.5 -18t-43 -27.5t-41.5 -69.5l-152 -364l209 -506l354 870q8 18 10.5 34t-4 26t-11.5 17 t-22.5 13.5t-26.5 8.5t-34.5 8t-36.5 8v45zM788 268l125 307l-233 553q-31 72 -57.5 93.5t-88 21.5t-94 -25.5t-6.5 -89.5zM1034 1243q-158 0 -108 -115l108 -262l107 264q25 61 -9.5 87t-97.5 26z" glyph-name="W.aalt" horiz-adv-x="1916"/><glyph d="M285 1112q-49 0 -86 35t-37 84t37 84t86 35t86 -35t37 -84t-37 -84t-86 -35zM61 0v45q53 10 75 15.5t41.5 29t19.5 66.5v489q0 61 -26 90t-110 39v41q145 27 287 119l43 -39v-739q0 -43 19.5 -66.5t41 -29t74.5 -15.5v-45h-465z" glyph-name="i.aalt" horiz-adv-x="587"/><glyph d="M2187 156q0 -43 19.5 -66.5t41 -29t74.5 -15.5v-45h-458v45q51 10 70.5 15.5t39 29t19.5 66.5v438q0 195 -162 194q-135 0 -248 -131v-501q0 -43 19.5 -66.5t39 -29t70.5 -15.5v-45h-473v45q100 18 125 41t25 70v794q0 147 -57.5 211t-241.5 64h-281v-1018q0 -51 9 -80 t42 -45t54.5 -21.5t89.5 -15.5v-45h-609v45q68 10 89.5 15.5t54 21.5t42 45t9.5 80v1018h-180q-160 0 -221.5 -64.5t-84.5 -210.5h-43l17 361l104 -21h1057q178 31 303 117l41 -39v-639q158 190 350 191q254 0 254 -316v-448z" glyph-name="T_h.dlig" horiz-adv-x="2373"/><glyph d="M1403 920q150 0 258 -119t108 -318q0 -227 -145 -364t-360 -137q-180 0 -288 95t-108 249v809q0 80 -62.5 132t-178.5 52q-100 0 -159.5 -61.5t-59.5 -221.5v-143l241 20q-10 -41 -10 -96h-231v-661q0 -31 12 -51.5t45 -32t56.5 -15.5t80.5 -10q10 -2 16 -2v-45h-567v45 q59 10 82 15.5t47.5 29t24.5 66.5v661h-154v47l154 31q2 252 142 382t370 130q193 0 350 -66v-622q49 86 139.5 143.5t196.5 57.5zM1282 51q117 0 202 93.5t85 267.5q0 164 -77 271.5t-196 107.5q-150 0 -229 -146v-344q0 -100 52 -175t163 -75z" glyph-name="f_b.dlig" horiz-adv-x="1851"/><glyph d="M1669 156q0 -43 19.5 -66.5t41 -29t74.5 -15.5v-45h-458v45q51 10 70.5 15.5t39 29t19.5 66.5v438q0 188 -152 188q-125 0 -260 -120v-506q0 -41 20.5 -63.5t45 -30t69.5 -15.5q10 -2 14 -2v-45h-493v45q100 18 125 41t24 70v979q0 80 -62.5 132t-178.5 52 q-100 0 -159.5 -61.5t-59.5 -221.5v-143l241 20q-10 -41 -10 -96h-231v-661q0 -31 12 -51.5t45 -32t56.5 -15.5t80.5 -10q10 -2 16 -2v-45h-567v45q59 10 82 15.5t47.5 29t24.5 66.5v661h-154v47l154 31q2 252 142 382t370 130q195 0 346 -66v-614h4q88 92 168 142.5 t186 50.5q248 0 248 -316v-448z" glyph-name="f_h.dlig" horiz-adv-x="1855"/><glyph d="M1108 1253v-2q0 -49 -37 -83.5t-86 -34.5t-86 34.5t-37 83.5v4q0 96 -94 97q-143 0 -251.5 -109.5t-108.5 -324.5v-23l200 18q-10 -41 -10 -96h-190v-661q0 -31 12 -51.5t45 -32t56.5 -15.5t80.5 -10q10 -2 16 -2v-45h-567v45q59 10 82 15.5t47.5 29t24.5 66.5v661h-154 v47l154 31q8 240 176 381t401 141q45 0 89 -5t103.5 -20.5t96.5 -50.5t37 -88zM764 815q145 27 287 119l43 -39v-930q0 -86 -35 -152.5t-94.5 -104.5t-118 -58.5t-123.5 -28.5q-18 27 0 53q94 33 135 99.5t41 203.5v668q0 61 -25.5 90t-109.5 39v41z" glyph-name="f_j.dlig" horiz-adv-x="1230"/><glyph d="M1632 119q27 -37 57.5 -50.5t104.5 -21.5v-47h-338q0 53 -37 109l-245 352l-111 -107v-198q0 -41 20.5 -63.5t45 -30t69.5 -15.5q10 -2 14 -2v-45h-493v45q100 18 125 41t24 70v979q0 80 -62.5 132t-178.5 52q-100 0 -159.5 -61.5t-59.5 -221.5v-143l241 20 q-10 -41 -10 -96h-231v-661q0 -31 12 -51.5t45 -32t56.5 -15.5t80.5 -10q10 -2 16 -2v-45h-567v45q59 10 82 15.5t47.5 29t24.5 66.5v661h-154v47l154 31q2 252 142 382t370 130q195 0 346 -66v-884l299 288q47 45 28.5 73t-98.5 36v47h410v-47q-84 -8 -134 -32.5 t-102 -76.5l-166 -159z" glyph-name="f_k.dlig" horiz-adv-x="1814"/><glyph d="M1087 229q0 -51 27 -77.5t70 -27.5t84 7t84 25v-50q-133 -76 -295 -126q-68 0 -116 52t-48 118v673h-492v-594q0 -68 46.5 -90t104.5 -9t114 46v-49q-104 -86 -295 -147q-68 0 -116 52t-48 118v673h-156v58q184 72 293 206h57v-206l336 -2l11 -2q170 68 282 210h57v-194 l259 27q-10 -41 -11 -97h-248v-594z" glyph-name="t_t.dlig" horiz-adv-x="1402"/><glyph d="M631 -18q-244 0 -386.5 185t-142.5 470q0 287 144.5 477.5t392.5 190.5q244 0 386 -186.5t142 -471.5t-144 -475t-392 -190zM666 53q129 0 199.5 141.5t70.5 391.5q0 287 -89 467t-243 180q-129 0 -199.5 -141.5t-70.5 -393.5q0 -287 89 -466t243 -179z" glyph-name="zero.lnum" horiz-adv-x="1269"/><glyph d="M92 0v45q51 6 70.5 9t51.5 10.5t43 17.5t20.5 28.5t9.5 45.5v917q0 51 -18.5 66.5t-65.5 5.5l-103 -25v45l351 158l41 -33v-1134q0 -61 40.5 -80t153.5 -31v-45h-594z" glyph-name="one.lnum" horiz-adv-x="778"/><glyph d="M98 0l-16 47q31 27 142.5 122t149.5 131t125 118t122.5 128t84 114.5t67 127t18.5 117.5q0 106 -67 182t-196 76q-233 0 -348 -223l-57 31q59 160 194.5 247t292.5 87q178 0 295 -104.5t117 -262.5q0 -98 -49 -194.5t-137 -181.5t-172 -152.5t-190.5 -147.5t-158.5 -125 h383q129 0 199 39t123 158h55l-102 -371h-55l-5 37h-815z" glyph-name="two.lnum" horiz-adv-x="1157"/><glyph d="M408 -25q-131 0 -233.5 36t-102.5 112q0 37 25.5 55.5t58.5 18.5q43 0 84 -39t93 -79t122 -40q121 0 229.5 92t108.5 238q0 135 -96.5 203.5t-233.5 68.5q-92 0 -199 -37l-20 55l159 68q172 72 243 126t71 142q0 80 -57.5 128t-161.5 48q-217 0 -342 -145l-43 35 q80 119 206.5 181.5t264.5 62.5q152 0 240.5 -72t86.5 -189q-2 -98 -70.5 -167.5t-203.5 -133.5q154 -10 262.5 -86.5t108.5 -230.5q0 -195 -174 -323t-426 -128z" glyph-name="three.lnum" horiz-adv-x="1089"/><glyph d="M993 348h-174v-192q0 -61 38 -80t136 -31v-45h-553v45q70 10 96.5 15.5t52 29t25.5 66.5v192h-524l-29 41l697 922h61v-875h195zM172 436h442v590z" glyph-name="four.lnum" horiz-adv-x="1095"/><glyph d="M252 807q180 33 308 11.5t210 -89t120 -148.5t38 -167q0 -178 -150.5 -308.5t-371.5 -130.5q-117 0 -220.5 36t-103.5 112q0 37 25.5 55.5t58.5 18.5q43 0 82 -39t85 -79t109 -40q102 0 184.5 87t82.5 218q0 78 -31 148.5t-95.5 127t-162.5 73t-234 -16.5l-39 39l205 575 h346q74 0 107 2t66.5 15.5t56.5 42.5h41l-74 -230h-528z" glyph-name="five.lnum" horiz-adv-x="1050"/><glyph d="M590 -25q-233 0 -361.5 158t-126.5 393q2 315 233.5 538.5t516.5 240.5l31 -56q-104 -10 -202.5 -62t-180.5 -142.5t-131.5 -234.5t-49.5 -318q0 -201 72 -326t205 -125q125 0 193.5 105.5t68.5 256.5q0 178 -101.5 273.5t-307.5 52.5v51q113 53 225 47t201.5 -51 t144.5 -137t55 -209q0 -193 -135 -324t-350 -131z" glyph-name="six.lnum" horiz-adv-x="1157"/><glyph d="M971 1290l22 -30q-406 -621 -555 -1260h-170q166 535 541 1120h-430q-74 0 -107.5 -6t-73.5 -39t-73 -104h-43l108 354h43l5 -35h733z" glyph-name="seven.lnum" horiz-adv-x="1044"/><glyph d="M770 702q276 -111 277 -346q0 -166 -137.5 -276.5t-344.5 -110.5q-199 0 -331 101.5t-132 261.5q0 213 232 340q-150 111 -150 280q0 141 108.5 239.5t282.5 98.5q164 0 265.5 -90t101.5 -215q0 -160 -172 -283zM578 1223q-104 0 -155.5 -62.5t-51.5 -146.5 q0 -72 44 -135.5t134 -96.5l129 -45q119 96 119 240q0 94 -53 170t-166 76zM584 39q127 0 192.5 68.5t65.5 183.5q0 106 -56.5 162.5t-187.5 103.5l-137 49l-45 19q-158 -102 -158 -281q0 -131 87 -218t239 -87z" glyph-name="eight.lnum" horiz-adv-x="1148"/><glyph d="M567 1305q233 0 361.5 -158t126.5 -393q-2 -315 -233.5 -538.5t-516.5 -240.5l-31 56q104 10 202.5 62t180.5 142.5t131.5 234.5t49.5 318q0 201 -72 326t-205 125q-125 0 -193.5 -105.5t-68.5 -256.5q0 -178 101.5 -273.5t308.5 -52.5v-51q-113 -53 -225.5 -47 t-201.5 51t-144.5 137t-55.5 209q0 193 135 324t350 131z" glyph-name="nine.lnum" horiz-adv-x="1157"/><glyph d="M610 -18q-244 0 -386 185t-142 470q0 287 144.5 477.5t391.5 190.5q244 0 386.5 -186.5t142.5 -471.5t-144.5 -475t-392.5 -190zM645 53q129 0 199.5 141.5t70.5 391.5q0 287 -89 467t-242 180q-129 0 -200 -141.5t-71 -393.5q0 -287 89 -466t243 -179z" glyph-name="zero.tnum"/><glyph d="M276 0v45q143 12 189.5 29.5t46.5 81.5v917q0 51 -18.5 66.5t-65.5 5.5l-143 -25v45l391 158l41 -33v-1134q0 -63 46 -81t189 -30v-45h-676z" glyph-name="one.tnum"/><glyph d="M121 0l-17 47q31 27 142.5 122t149.5 131t125 118t123 128t84 114.5t66.5 127t18.5 117.5q0 106 -66.5 182t-195.5 76q-233 0 -348 -223l-58 31q59 160 194.5 247t293.5 87q178 0 294.5 -104.5t116.5 -262.5q0 -98 -49 -194.5t-137 -181.5t-172 -152.5t-190.5 -147.5 t-157.5 -125h383q129 0 198.5 39t122.5 158h56l-103 -371h-55l-4 37h-815z" glyph-name="two.tnum"/><glyph d="M492 -25q-131 0 -233.5 36t-102.5 112q0 37 25.5 55.5t58.5 18.5q43 0 84 -39t93 -79t122 -40q121 0 229.5 92t108.5 238q0 135 -96.5 203.5t-233.5 68.5q-92 0 -199 -37l-20 55l159 68q172 72 243 126t71 142q0 80 -57.5 128t-161.5 48q-217 0 -342 -145l-43 35 q80 119 206.5 181.5t264.5 62.5q152 0 240.5 -72t86.5 -189q-2 -98 -70.5 -167.5t-203.5 -133.5q154 -10 262.5 -86.5t108.5 -230.5q0 -195 -174 -323t-426 -128z" glyph-name="three.tnum"/><glyph d="M1034 348h-174v-192q0 -61 38 -80t136 -31v-45h-553v45q70 10 96.5 15.5t52 29t25.5 66.5v192h-524l-29 41l697 922h61v-875h195zM213 436h442v590z" glyph-name="four.tnum"/><glyph d="M293 807q180 33 308 11.5t210 -89t120 -148.5t38 -167q0 -178 -150.5 -308.5t-372.5 -130.5q-117 0 -220 36t-103 112q0 37 25.5 55.5t58.5 18.5q43 0 82 -39t85 -79t109 -40q102 0 184.5 87t82.5 218q0 78 -31 148.5t-95.5 127t-163 73t-233.5 -16.5l-39 39l205 575h346 q74 0 107 2t66.5 15.5t56.5 42.5h41l-74 -230h-528z" glyph-name="five.tnum"/><glyph d="M610 -25q-233 0 -361 158t-126 393q2 315 233.5 538.5t515.5 240.5l31 -56q-104 -10 -202.5 -62t-180.5 -142.5t-131 -234.5t-49 -318q0 -201 71.5 -326t204.5 -125q125 0 194 105.5t69 256.5q0 178 -101.5 273.5t-308.5 52.5v51q113 53 225.5 47t201.5 -51t144.5 -137 t55.5 -209q0 -193 -135.5 -324t-350.5 -131z" glyph-name="six.tnum"/><glyph d="M1057 1290l22 -30q-406 -621 -555 -1260h-170q166 535 541 1120h-430q-74 0 -107.5 -6t-73.5 -39t-73 -104h-43l108 354h43l5 -35h733z" glyph-name="seven.tnum"/><glyph d="M809 702q276 -111 276 -346q0 -166 -137 -276.5t-344 -110.5q-199 0 -331 101.5t-132 261.5q0 213 232 340q-150 111 -150 280q0 141 108.5 239.5t282.5 98.5q164 0 265.5 -90t101.5 -215q0 -160 -172 -283zM616 1223q-104 0 -155 -62.5t-51 -146.5q0 -72 44 -135.5 t134 -96.5l129 -45q119 96 119 240q0 94 -53.5 170t-166.5 76zM623 39q127 0 192.5 68.5t65.5 183.5q0 106 -56.5 162.5t-187.5 103.5l-137 49l-45 19q-158 -102 -158 -281q0 -131 87 -218t239 -87z" glyph-name="eight.tnum"/><glyph d="M625 1305q233 0 361 -158t126 -393q-2 -315 -233.5 -538.5t-516.5 -240.5l-30 56q104 10 202.5 62t180.5 142.5t131 234.5t49 318q0 201 -71.5 326t-205.5 125q-125 0 -193.5 -105.5t-68.5 -256.5q0 -178 101.5 -273.5t308.5 -52.5v-51q-113 -53 -225.5 -47t-201.5 51 t-144.5 137t-55.5 209q0 193 135.5 324t350.5 131z" glyph-name="nine.tnum"/><glyph d="M301 -20q-98 0 -158.5 73.5t-60.5 186.5q0 115 61.5 190.5t161.5 75.5q98 0 158.5 -74t60.5 -188.5t-61.5 -189t-161.5 -74.5zM315 12q96 0 97 207q0 115 -32 184.5t-89 69.5q-96 0 -96 -209q0 -113 31.5 -182.5t88.5 -69.5z" glyph-name="zero.dnom" horiz-adv-x="606"/><glyph d="M92 0v20q45 4 61.5 12.5t16.5 33.5v337q0 23 -8 30t-25 3l-41 -10v23l158 67l16 -12v-438q0 -25 16.5 -33t61.5 -13v-20h-256z" glyph-name="one.dnom" horiz-adv-x="440"/><glyph d="M88 0l-6 23q10 8 41 34.5t43 36.5t38.5 35t40 39t34 36.5t30.5 39t21.5 36t16.5 38t5 36.5q0 41 -24.5 70t-71.5 29q-84 0 -135 -86l-23 14q25 63 79 99t120 36q72 0 119 -41t47 -102q0 -47 -35 -98.5t-72 -82t-93 -72.5t-66 -50h135q55 0 82.5 13t46.5 60h26l-38 -143 h-361z" glyph-name="two.dnom" horiz-adv-x="569"/><glyph d="M223 -20q-55 0 -98 15t-43 46t35 31q18 0 52 -32t69 -32q47 0 85.5 34t38.5 91q0 55 -36.5 83t-92.5 28q-35 0 -73 -15l-10 25l63 25q66 25 93.5 46t27.5 58q0 66 -84 66t-131 -56l-21 17q66 96 189 96q59 0 97 -28.5t38 -76.5q0 -68 -115 -118q63 -4 108.5 -35t45.5 -92 q0 -76 -70 -126t-168 -50z" glyph-name="three.dnom" horiz-adv-x="542"/><glyph d="M393 66q0 -25 15.5 -33t60.5 -13v-20h-254v20q45 4 60.5 12.5t15.5 33.5v69h-221l-9 41l238 328h94v-328h76l-8 -41h-68v-69zM102 176h189v260z" glyph-name="four.dnom" horiz-adv-x="550"/><glyph d="M172 313q168 10 229.5 -37t61.5 -110q0 -80 -69.5 -133t-170.5 -53q-51 0 -96 15t-45 46t35 31q18 0 53 -32t72 -32q47 0 83.5 34t36.5 89q0 129 -231 115l-14 16l80 230h137q80 0 98 24h19l-35 -100h-209z" glyph-name="five.dnom" horiz-adv-x="544"/><glyph d="M311 -20q-96 0 -153.5 61t-55.5 156q2 127 99.5 215t214.5 94l14 -27q-90 -8 -156.5 -85t-66.5 -210q0 -78 28.5 -126t79.5 -48q49 0 75 40t26 102q0 150 -156 139v26q94 29 177 -15t83 -138q0 -80 -59.5 -132t-149.5 -52z" glyph-name="six.dnom" horiz-adv-x="602"/><glyph d="M434 504l10 -12q-164 -250 -221 -492h-67q59 195 215 436h-170q-29 0 -42.5 -3t-29.5 -16.5t-29 -39.5h-18l43 135l37 -8h272z" glyph-name="seven.dnom" horiz-adv-x="495"/><glyph d="M399 270q111 -47 111 -137q0 -68 -58.5 -110.5t-150.5 -42.5q-86 0 -142.5 38.5t-56.5 104.5q0 84 91 129q-57 45 -58 110q0 57 48 97.5t124 40.5q72 0 116 -37t44 -86q0 -60 -68 -107zM307 465q-45 0 -66.5 -21.5t-21.5 -52.5q0 -57 88 -88l53 -18q43 35 43 90 q0 37 -23.5 63.5t-72.5 26.5zM307 14q106 0 107 88q0 35 -20.5 53.5t-80.5 41.5l-55 20q-20 6 -31 14q-59 -39 -59 -102q0 -51 36.5 -83t102.5 -32z" glyph-name="eight.dnom" horiz-adv-x="612"/><glyph d="M291 498q96 0 153.5 -61.5t55.5 -155.5q-2 -127 -99.5 -215.5t-214.5 -94.5l-14 27q90 8 156.5 85t66.5 210q0 78 -28.5 126t-79.5 48q-49 0 -75 -40t-26 -101q0 -150 156 -140v-26q-94 -29 -177 15t-83 138q0 80 59.5 132.5t149.5 52.5z" glyph-name="nine.dnom" horiz-adv-x="602"/><glyph d="M301 797q-98 0 -158.5 73.5t-60.5 186.5q0 115 61.5 190.5t161.5 75.5q98 0 158.5 -73.5t60.5 -188.5t-61.5 -189.5t-161.5 -74.5zM315 829q96 0 97 207q0 115 -32 184.5t-89 69.5q-96 0 -96 -209q0 -113 31.5 -182.5t88.5 -69.5z" glyph-name="zero.numr" horiz-adv-x="606"/><glyph d="M92 815v21q45 4 61.5 12t16.5 33v338q0 23 -8 29.5t-25 2.5l-41 -10v23l158 67l16 -12v-438q0 -25 16.5 -33t61.5 -12v-21h-256z" glyph-name="one.numr" horiz-adv-x="440"/><glyph d="M88 805l-6 22q10 8 41 35t43 37t38.5 34.5t40 39t34 37t30.5 39t21.5 36t16.5 38t5 36.5q0 41 -24.5 69.5t-71.5 28.5q-84 0 -135 -86l-23 15q25 63 79 99t120 36q72 0 119 -41t47 -102q0 -47 -35 -98.5t-72 -82t-93 -72.5t-66 -51h135q55 0 82.5 13.5t46.5 60.5h26 l-38 -143h-361z" glyph-name="two.numr" horiz-adv-x="569"/><glyph d="M223 786q-55 0 -98 15.5t-43 46.5t35 31q18 0 52 -32t69 -32q47 0 85.5 34t38.5 91q0 55 -36.5 83t-92.5 28q-35 0 -73 -15l-10 25l63 24q66 25 93.5 46.5t27.5 58.5q0 66 -84 65.5t-131 -55.5l-21 17q66 96 189 96q59 0 97 -29t38 -76q0 -68 -115 -118q63 -4 108.5 -35 t45.5 -92q0 -76 -70 -126.5t-168 -50.5z" glyph-name="three.numr" horiz-adv-x="542"/><glyph d="M393 866q0 -25 15.5 -33t60.5 -12v-20h-254v20q45 4 60.5 12.5t15.5 32.5v70h-221l-9 41l238 328h94v-328h76l-8 -41h-68v-70zM102 977h189v260z" glyph-name="four.numr" horiz-adv-x="550"/><glyph d="M172 1133q168 10 229.5 -37t61.5 -111q0 -80 -69.5 -133t-170.5 -53q-51 0 -96 15t-45 46t35 31q18 0 53 -32t72 -32q47 0 83.5 34t36.5 89q0 129 -231 115l-14 16l80 230h137q80 0 98 24h19l-35 -100h-209z" glyph-name="five.numr" horiz-adv-x="544"/><glyph d="M311 784q-96 0 -153.5 61.5t-55.5 155.5q2 127 99.5 215.5t214.5 94.5l14 -27q-90 -8 -156.5 -85t-66.5 -210q0 -78 28.5 -126t79.5 -48q49 0 75 40t26 101q0 150 -156 140v26q94 29 177 -15t83 -138q0 -80 -59.5 -132.5t-149.5 -52.5z" glyph-name="six.numr" horiz-adv-x="602"/><glyph d="M434 1319l10 -12q-164 -250 -221 -492h-67q59 195 215 436h-170q-29 0 -42.5 -3t-29.5 -16t-29 -40h-18l43 135l37 -8h272z" glyph-name="seven.numr" horiz-adv-x="495"/><glyph d="M399 1085q111 -47 111 -137q0 -68 -58.5 -110.5t-150.5 -42.5q-86 0 -142.5 38.5t-56.5 104.5q0 84 91 129q-57 45 -58 111q0 57 48 97t124 40q72 0 116 -37t44 -86q0 -60 -68 -107zM307 1280q-45 0 -66.5 -21.5t-21.5 -52.5q0 -57 88 -88l53 -18q43 35 43 90 q0 37 -23.5 63.5t-72.5 26.5zM307 829q106 0 107 89q0 35 -20.5 53t-80.5 41l-55 20q-20 6 -31 15q-59 -39 -59 -103q0 -51 36.5 -83t102.5 -32z" glyph-name="eight.numr" horiz-adv-x="612"/><glyph d="M291 1305q96 0 153.5 -61.5t55.5 -156.5q-2 -127 -99.5 -215t-214.5 -94l-14 27q90 8 156.5 85t66.5 210q0 78 -28.5 126t-79.5 48q-49 0 -75 -40t-26 -101q0 -150 156 -140v-26q-94 -29 -177 15t-83 138q0 80 59.5 132.5t149.5 52.5z" glyph-name="nine.numr" horiz-adv-x="602"/></font>
</defs>
</svg>
