<?xml version="1.0" encoding="UTF-8" standalone="no"?>
<svg version="1.1" xmlns="http://www.w3.org/2000/svg" xmlns:xlink="http://www.w3.org/1999/xlink">
    <!-- Generator: Sketch 40 (33762) - http://www.bohemiancoding.com/sketch -->
    <title>Powered By Logo</title>
    <desc>Created with Sketch.</desc>
    <defs></defs>
    <symbol id="Powered-By-Logo">
        <path d="M7.21196667,3.75525333 C7.19304667,3.53173333 7.18336667,3.43390667 7.13995333,3.28386667 C6.91746,2.51328 6.20671333,1.94978667 5.3647,1.94978667 L1.80319333,1.94978667 L1.80319333,9.16505333 L3.61056667,9.16505333 L3.61056667,10.97096 L-7.33333336e-05,10.97096 L-7.33333336e-05,0.146666667 L5.38860667,0.146666667 C7.20947333,0.146666667 8.71427333,1.47165333 8.97284667,3.22050667 C8.99792667,3.38990667 9.0145,3.56532 9.0145,3.75657333 L7.21196667,3.75525333 Z M9.01466133,5.10532 L9.01466133,7.34477333 C9.01466133,9.34413333 7.334448,10.97096 5.33582133,10.97096 L4.95859467,10.97096 L4.95859467,9.16505333 L5.31939467,9.16505333 C6.33799467,9.16505333 7.21227467,8.33565333 7.21227467,7.3172 L7.21227467,5.10532 L9.01466133,5.10532 Z" id="D-logo" fill="#02A3D5"></path>
    </symbol>
    <symbol id="Powered-By-Text">
        <path d="M82.6162182,9.27218182 L82.6162182,1.81254545 L85.6773091,1.81254545 C87.6256727,1.81254545 88.7394909,2.92090909 88.7394909,4.57254545 L88.7394909,6.51218182 C88.7394909,8.16381818 87.6256727,9.27218182 85.6773091,9.27218182 L82.6162182,9.27218182 Z M87.1849455,4.57254545 C87.1849455,3.70963636 86.5249455,3.22963636 85.6773091,3.22963636 L84.1707636,3.22963636 L84.1707636,7.85509091 L85.6773091,7.85509091 C86.5249455,7.85509091 87.1849455,7.37509091 87.1849455,6.51218182 L87.1849455,4.57254545 Z" id="logo_D" fill="#FFFFFF"></path>
        <path d="M93.5415636,9.37865455 C91.5932,9.37865455 90.4804727,8.27029091 90.4804727,6.61865455 L90.4804727,4.46629091 C90.4804727,2.81465455 91.5932,1.70629091 93.5415636,1.70629091 C95.4899273,1.70629091 96.6026545,2.81465455 96.6026545,4.46629091 L96.6026545,6.61865455 C96.6026545,8.27029091 95.4899273,9.37865455 93.5415636,9.37865455 L93.5415636,9.37865455 Z M95.0492,4.46629091 C95.0492,3.60229091 94.3881091,3.12338182 93.5415636,3.12338182 C92.6950182,3.12338182 92.0339273,3.60229091 92.0339273,4.46629091 L92.0339273,6.61865455 C92.0339273,7.48156364 92.6950182,7.96156364 93.5415636,7.96156364 C94.3881091,7.96156364 95.0492,7.48156364 95.0492,6.61865455 L95.0492,4.46629091 Z" id="logo_O" fill="#FFFFFF"></path>
        <polygon id="logo_W" fill="#FFFFFF" points="102.553782 5.09443636 101.238145 9.27261818 99.5570545 9.27261818 98.0614182 1.81298182 99.6257818 1.81298182 100.566145 6.86389091 102.0716 1.81298182 103.035964 1.81298182 104.541418 6.86389091 105.480691 1.81298182 107.046145 1.81298182 105.550509 9.27261818 103.869418 9.27261818"></polygon>
        <path d="M115.241164,1.81265455 L116.794618,1.81265455 L116.794618,7.14065455 C116.794618,8.62210909 115.902255,9.3792 114.382618,9.3792 C112.864073,9.3792 111.970618,8.62210909 111.970618,7.14065455 L113.537164,7.14065455 C113.582982,7.67410909 113.884073,7.96210909 114.382618,7.96210909 C114.985891,7.96210909 115.241164,7.58901818 115.241164,7.09810909 L115.241164,1.81265455 Z" id="logo_J" fill="#FFFFFF"></path>
        <path d="M121.749418,9.37865455 C119.801055,9.37865455 118.688327,8.27029091 118.688327,6.61865455 L118.688327,4.46629091 C118.688327,2.81465455 119.801055,1.70629091 121.749418,1.70629091 C123.697782,1.70629091 124.810509,2.81465455 124.810509,4.46629091 L124.810509,6.61865455 C124.810509,8.27029091 123.697782,9.37865455 121.749418,9.37865455 L121.749418,9.37865455 Z M123.257055,4.46629091 C123.257055,3.60229091 122.595964,3.12338182 121.749418,3.12338182 C120.902873,3.12338182 120.241782,3.60229091 120.241782,4.46629091 L120.241782,6.61865455 C120.241782,7.48156364 120.902873,7.96156364 121.749418,7.96156364 C122.595964,7.96156364 123.257055,7.48156364 123.257055,6.61865455 L123.257055,4.46629091 Z" id="logo_O" fill="#FFFFFF"></path>
        <polygon id="logo_N" fill="#FFFFFF" points="132.831091 9.27218182 131.277636 9.27218182 128.262364 4.46672727 128.262364 9.27218182 126.707818 9.27218182 126.707818 1.81254545 128.262364 1.81254545 131.277636 6.61909091 131.277636 1.81254545 132.831091 1.81254545"></polygon>
        <polygon id="logo_E" fill="#FFFFFF" points="136.442873 4.79650909 139.470145 4.79650909 139.470145 6.2136 136.442873 6.2136 136.442873 7.85432727 139.829055 7.85432727 139.829055 9.27250909 134.888327 9.27250909 134.888327 1.81287273 139.829055 1.81287273 139.829055 3.22996364 136.442873 3.22996364"></polygon>
        <path d="M141.461927,6.91712727 L143.062291,6.91712727 C143.155018,7.54549091 143.688473,7.96112727 144.4652,7.96112727 C145.1492,7.96112727 145.624836,7.72658182 145.624836,7.21494545 C145.624836,6.8004 145.358655,6.56476364 144.790291,6.42730909 L143.422291,6.08585455 C142.180836,5.77712727 141.565564,4.97749091 141.565564,3.88003636 C141.565564,2.38767273 142.841927,1.70585455 144.256836,1.70585455 C145.880109,1.70585455 146.8892,2.57967273 147.062655,3.8484 L145.462291,3.8484 C145.323745,3.34767273 144.755382,3.12403636 144.233927,3.12403636 C143.583745,3.12403636 143.120109,3.35749091 143.120109,3.88003636 C143.120109,4.3164 143.491018,4.5084 143.931745,4.61530909 L145.253927,4.94585455 C146.506291,5.25458182 147.178291,5.95821818 147.178291,7.21494545 C147.178291,8.55785455 146.228109,9.37821818 144.4652,9.37821818 C142.691382,9.37821818 141.542655,8.39858182 141.461927,6.91712727" id="logo_S" fill="#FFFFFF"></path>
        <path d="M16.5016727,9.27218182 L15.9147636,9.27218182 L15.9147636,1.80490909 L18.3256727,1.80490909 C19.5093091,1.80490909 20.5020364,2.54127273 20.5020364,3.97036364 C20.5020364,5.39945455 19.5093091,6.14672727 18.3256727,6.14672727 L16.5016727,6.14672727 L16.5016727,9.27218182 Z M19.9151273,3.97036364 C19.9151273,2.92527273 19.1787636,2.38090909 18.3256727,2.38090909 L16.5016727,2.38090909 L16.5016727,5.57072727 L18.3256727,5.57072727 C19.1787636,5.57072727 19.9151273,5.01545455 19.9151273,3.97036364 L19.9151273,3.97036364 Z" id="Fill-22" fill="#FFFFFF"></path>
        <path d="M24.4476364,9.37887273 C23.0927273,9.37887273 22.0901818,8.41887273 22.0901818,6.85014545 L22.0901818,4.22650909 C22.0901818,2.65887273 23.0927273,1.69887273 24.4476364,1.69887273 C25.8025455,1.69887273 26.8050909,2.65887273 26.8050909,4.22650909 L26.8050909,6.85014545 C26.8050909,8.41887273 25.8025455,9.37887273 24.4476364,9.37887273 M24.4476364,8.80287273 C25.4185455,8.80287273 26.2181818,8.17341818 26.2181818,6.85014545 L26.2181818,4.22650909 C26.2181818,2.90432727 25.4185455,2.27487273 24.4476364,2.27487273 C23.4767273,2.27487273 22.6770909,2.90432727 22.6770909,4.22650909 L22.6770909,6.85014545 C22.6770909,8.17341818 23.4767273,8.80287273 24.4476364,8.80287273" id="Fill-24" fill="#FFFFFF"></path>
        <polygon id="Fill-26" fill="#FFFFFF" points="30.2759273 9.27218182 29.7108364 9.27218182 28.3341091 1.80490909 28.9101091 1.80490909 30.0621091 8.10927273 31.5457455 2.87181818 32.0792 2.87181818 33.5617455 8.10927273 34.7137455 1.80490909 35.2897455 1.80490909 33.9130182 9.27218182 33.3479273 9.27218182 31.8119273 3.84272727"></polygon>
        <polygon id="Fill-28" fill="#FFFFFF" points="41.2414182 8.69618182 41.2414182 9.27218182 37.1134182 9.27218182 37.1134182 1.80490909 41.2414182 1.80490909 41.2414182 2.38090909 37.6992364 2.38090909 37.6992364 5.20854545 41.2414182 5.20854545 41.2414182 5.77363636 37.6992364 5.77363636 37.6992364 8.69618182"></polygon>
        <path d="M43.8236,9.27218182 L43.2366909,9.27218182 L43.2366909,1.80490909 L45.7752364,1.80490909 C47.0134182,1.80490909 47.8239636,2.658 47.8239636,3.80018182 C47.8239636,4.86709091 47.1094182,5.66672727 45.9999636,5.76272727 L48.0694182,9.27218182 L47.3974182,9.27218182 L45.3377818,5.77363636 L43.8236,5.77363636 L43.8236,9.27218182 Z M47.2370545,3.80018182 C47.2370545,2.88272727 46.5650545,2.38090909 45.7752364,2.38090909 L43.8236,2.38090909 L43.8236,5.20854545 L45.7752364,5.20854545 C46.5650545,5.20854545 47.2370545,4.71763636 47.2370545,3.80018182 L47.2370545,3.80018182 Z" id="Fill-30" fill="#FFFFFF"></path>
        <polygon id="Fill-32" fill="#FFFFFF" points="54.0253455 8.69618182 54.0253455 9.27218182 49.8973455 9.27218182 49.8973455 1.80490909 54.0253455 1.80490909 54.0253455 2.38090909 50.4831636 2.38090909 50.4831636 5.20854545 54.0253455 5.20854545 54.0253455 5.77363636 50.4831636 5.77363636 50.4831636 8.69618182"></polygon>
        <path d="M58.3784,9.27218182 L56.0209455,9.27218182 L56.0209455,1.80490909 L58.3784,1.80490909 C59.7333091,1.80490909 60.7358545,2.76490909 60.7358545,4.33363636 L60.7358545,6.74345455 C60.7358545,8.31218182 59.7333091,9.27218182 58.3784,9.27218182 L58.3784,9.27218182 Z M58.3784,8.69618182 C59.3493091,8.69618182 60.1489455,8.06672727 60.1489455,6.74345455 L60.1489455,4.33363636 C60.1489455,3.01036364 59.3493091,2.38090909 58.3784,2.38090909 L56.6078545,2.38090909 L56.6078545,8.69618182 L58.3784,8.69618182 Z" id="Fill-34" fill="#FFFFFF"></path>
        <path d="M70.9865818,7.23469091 C70.9865818,8.35505455 70.2404,9.27250909 68.9487636,9.27250909 L66.2716727,9.27250909 L66.2716727,1.80523636 L68.7567636,1.80523636 C69.9949455,1.80523636 70.8054909,2.65832727 70.8054909,3.79941818 C70.8054909,4.53578182 70.4105818,5.16523636 69.8345818,5.44232727 C70.4640364,5.67796364 70.9865818,6.37069091 70.9865818,7.23469091 L70.9865818,7.23469091 Z M70.2185818,3.79941818 C70.2185818,2.88196364 69.5465818,2.38123636 68.7567636,2.38123636 L66.8585818,2.38123636 L66.8585818,5.20778182 L68.7567636,5.20778182 C69.5465818,5.20778182 70.2185818,4.71687273 70.2185818,3.79941818 L70.2185818,3.79941818 Z M66.8585818,8.69650909 L68.9487636,8.69650909 C69.7920364,8.69650909 70.3996727,8.13141818 70.3996727,7.23469091 C70.3996727,6.33796364 69.7920364,5.77287273 68.9487636,5.77287273 L66.8585818,5.77287273 L66.8585818,8.69650909 Z" id="Fill-36" fill="#FFFFFF"></path>
        <polygon id="Fill-38" fill="#FFFFFF" points="75.1541818 9.27218182 74.5672727 9.27218182 74.5672727 6.16745455 72.0494545 1.80490909 72.7007273 1.80490909 74.8661818 5.55981818 77.0207273 1.80490909 77.672 1.80490909 75.1541818 6.16745455"></polygon>
    </symbol>
</svg>