<?xml version="1.0" standalone="no"?>
<!DOCTYPE svg PUBLIC "-//W3C//DTD SVG 1.1//EN" "http://www.w3.org/Graphics/SVG/1.1/DTD/svg11.dtd">
<svg xmlns="http://www.w3.org/2000/svg"><metadata>This SVG WebFont was generated by YouWorkForThem.
Copyright Â© 2016 by Connary Fagen. All rights reserved.</metadata><defs><font horiz-adv-x="1062" id="ywftsvg"><font-face ascent="1638" bbox="-631 -653 2157 1841" cap-height="1290" descent="-410" font-family="" font-stretch="normal" font-weight="400" panose-1="0 0 5 0 0 0 0 0 0 0" underline-position="0" underline-thickness="0" unicode-range="U+0020-FB02" units-per-em="2048" x-height="881"/><missing-glyph d="M819 1638v-1996h-633v1996h633zM666 1505h-330v-65h129v-76h-131v-66h332v66h-134v76h134v65zM532 1247h-198v-207h332v68h-134v139zM465 1180v-72h-66v72h66zM666 985h-332v-65h131v-74h-131v-66h198v140h134v65zM666 866h-66v-133h-266v-67h332v200zM666 623h-201v-113 h67v47h68v-94h-201v160h-65v-226h332v226zM666 276h-332v-225h332v225zM600 211v-94h-201v94h201zM666 4h-332v-65h139l-139 -95v-65h332v65h-205l139 95h66v65z" horiz-adv-x="999"/><glyph d="M1288 1290q6 -16 6 -33q0 -47 -34.5 -79.5t-82 -32.5t-82 32.5t-34.5 79.5q0 20 6 35q18 57 -3.5 79t-78.5 22q-47 0 -95 -13.5t-103.5 -46.5t-102.5 -100.5t-74 -163.5l-53 -188h217l-29 -82l-208 12l-181 -641q-78 -272 -203.5 -411.5t-289.5 -139.5q-90 0 -140.5 41 t-50.5 94q0 39 27 65.5t65 26.5q45 0 64.5 -32.5t17.5 -69.5q-2 -68 66 -68q70 0 120 65.5t99 238.5l238 839l-224 12l15 50h225q82 291 239.5 430t360.5 139q121 0 200.5 -45t102.5 -115zM1090 891q55 0 78.5 -38t0.5 -93l-221 -539q-41 -98 -2 -88q51 12 178 189l33 -35 q-197 -307 -334 -307q-53 0 -77.5 37.5t-2.5 93.5l220 538q39 96 2 88q-49 -10 -181 -188l-30 35q197 307 336 307z" glyph-name="uniFB01" horiz-adv-x="1245" unicode="fi"/><glyph d="M915 221q-33 -96 0 -86q47 14 177 191l30 -35q-195 -311 -340 -311q-47 0 -70.5 31.5t-4.5 84.5l413 1194q0 49 -40 76t-103 27q-47 0 -92 -12.5t-99.5 -44t-101.5 -100.5t-74 -167l-53 -188h225l-28 -82l-217 12l-181 -641q-78 -272 -203.5 -411.5t-289.5 -139.5 q-88 0 -139.5 41t-51.5 96q0 39 27 64.5t65 25.5q45 0 64.5 -32.5t17.5 -69.5q-2 -68 66 -68q70 0 120 65.5t99 238.5l238 839l-215 12l14 50h217q82 291 233.5 430t346.5 139q125 0 224 -50t99 -110z" glyph-name="uniFB02" horiz-adv-x="1198" unicode="fl"/><glyph d="M1513 1430q92 0 139.5 -39t47.5 -93q0 -41 -26.5 -68.5t-65.5 -27.5q-78 0 -78 101q0 70 -72 69q-70 0 -119 -65.5t-98 -237.5l-53 -188h225l-29 -82l-217 6l-180 -635q-78 -272 -204 -411.5t-289 -139.5q-90 0 -140.5 41t-50.5 94q0 39 26.5 65.5t65.5 26.5 q45 0 64.5 -32.5t17.5 -69.5q-2 -68 66 -68q70 0 120 65.5t99 238.5l233 829l-456 12l-201 -710q-78 -272 -204 -411.5t-290 -139.5q-90 0 -140 41t-50 94q0 39 26.5 65.5t65.5 26.5q45 0 64.5 -33t17.5 -69q-2 -68 66 -68q70 0 119.5 65.5t99.5 237.5l254 899l2 2v4l-217 6 l14 50h219q80 244 202 366.5t277 122.5q92 0 139.5 -39t47.5 -92q0 -41 -27 -68.5t-66 -27.5q-78 0 -77 100q0 70 -72 70q-70 0 -119 -65.5t-98 -237.5l-37 -129h461q78 272 205.5 410.5t291.5 138.5z" glyph-name="f_f.liga" horiz-adv-x="1413" unicode="ff"/><glyph d="M1919 1290q6 -16 6 -33q0 -47 -35 -79.5t-82 -32.5t-81.5 32.5t-34.5 79.5q0 20 6 35q18 57 -3.5 79t-78.5 22q-47 0 -95 -13.5t-103.5 -46.5t-102.5 -100.5t-74 -163.5l-53 -188h225l-29 -82l-217 6l-180 -635q-78 -272 -204 -411.5t-289 -139.5q-90 0 -140.5 41 t-50.5 94q0 39 26.5 65.5t65.5 26.5q45 0 64.5 -32.5t17.5 -69.5q-2 -68 66 -68q70 0 120 65.5t99 238.5l233 829l-456 12l-201 -710q-78 -272 -204 -411.5t-290 -139.5q-90 0 -140 41t-50 94q0 39 26.5 65.5t65.5 26.5q45 0 64.5 -33t17.5 -69q-2 -68 66 -68 q70 0 119.5 65.5t99.5 237.5l254 899l2 2v4l-217 6l14 50h219q80 244 202 366.5t277 122.5q92 0 139.5 -39t47.5 -92q0 -41 -27 -68.5t-66 -27.5q-78 0 -77 100q0 70 -72 70q-70 0 -119 -65.5t-98 -237.5l-37 -129h461q82 291 239.5 430t360.5 139q121 0 200.5 -45 t102.5 -115zM1720 891q55 0 79 -38t1 -93l-221 -539q-41 -98 -2 -88q51 12 178 189l33 -35q-197 -307 -334 -307q-53 0 -77.5 37.5t-2.5 93.5l219 538q39 96 2 88q-49 -10 -180 -188l-31 35q197 307 336 307z" glyph-name="f_f_i.liga" horiz-adv-x="1875" unicode="ffi"/><glyph d="M819 1638v-1996h-633v1996h633zM666 1505h-330v-65h129v-76h-131v-66h332v66h-134v76h134v65zM532 1247h-198v-207h332v68h-134v139zM465 1180v-72h-66v72h66zM666 985h-332v-65h131v-74h-131v-66h198v140h134v65zM666 866h-66v-133h-266v-67h332v200zM666 623h-201v-113 h67v47h68v-94h-201v160h-65v-226h332v226zM666 276h-332v-225h332v225zM600 211v-94h-201v94h201zM666 4h-332v-65h139l-139 -95v-65h332v65h-205l139 95h66v65z" glyph-name=".notdef" horiz-adv-x="999"/><glyph glyph-name="glyph1" horiz-adv-x="0"/><glyph glyph-name="glyph2" horiz-adv-x="681"/><glyph glyph-name="space" horiz-adv-x="409" unicode=" "/><glyph d="M164 373l194 839q16 72 47 98.5t80 26.5q129 0 72 -139l-348 -825h-45zM129 -20q-53 0 -91 36.5t-38 89.5q0 51 38 88t91 37t91 -36.5t38 -88.5q0 -53 -38 -89.5t-91 -36.5z" glyph-name="exclam" horiz-adv-x="475" unicode="!"/><glyph d="M231 795l68 393q8 47 35.5 74.5t64.5 27.5q43 0 55.5 -39t-12.5 -88l-184 -368h-27zM479 795l68 393q8 47 35.5 74.5t64.5 27.5q43 0 55.5 -39t-12.5 -88l-184 -368h-27z" glyph-name="quotedbl" horiz-adv-x="544" unicode="&quot;"/><glyph d="M1036 858h-182l-154 -399h187l-39 -97h-184l-162 -423h-96l161 423h-229l-162 -423h-98l164 423h-185l39 97h183l153 399h-186l39 96h184l162 422h94l-162 -422h232l161 422h97l-162 -422h184zM604 459l154 399h-232l-151 -399h229z" glyph-name="numbersign" horiz-adv-x="989" unicode="#"/><glyph d="M852 1255q156 -18 238 -106l-76 -236h-41q33 246 -146 279l-176 -434q2 -2 7.5 -5t7.5 -5q51 -37 78.5 -58.5t72.5 -66.5t66.5 -96.5t21.5 -108.5q0 -160 -156.5 -269.5t-373.5 -109.5h-13l-67 -166h-59l69 170q-162 16 -270 119l65 233h43q-14 -123 35 -198.5t152 -90.5 l205 506l-13 11q-53 37 -76.5 56t-62.5 58t-55.5 82t-16.5 96q0 150 135.5 247.5t331.5 97.5h19l67 167h58zM502 975q0 -92 106 -182l162 403q-113 -2 -190.5 -66.5t-77.5 -154.5zM702 371q0 106 -122 209l-193 -478q131 2 223 81t92 188z" glyph-name="dollar" horiz-adv-x="1005" unicode="$"/><glyph d="M1380 1300l123 -10l-1333 -1290h-111l1166 1118q-78 -33 -158 -33q-109 0 -203 62q-2 -166 -154.5 -328t-316.5 -162q-74 0 -113.5 42t-39.5 116q0 164 155.5 321.5t325.5 157.5q76 0 115 -45q145 -104 256 -104q138 -1 288 155zM444 721q109 0 237 159.5t128 272.5 q0 82 -84 82q-106 0 -227 -165t-121 -282q-1 -67 67 -67zM1174 633q143 0 143 -146q0 -166 -153.5 -328.5t-317.5 -162.5q-74 0 -114 42t-40 116q0 164 156 321.5t326 157.5zM897 59q109 0 237 160t128 273q0 82 -84 81q-106 0 -227.5 -164.5t-121.5 -281.5q0 -68 68 -68z " glyph-name="percent" horiz-adv-x="1421" unicode="%"/><glyph d="M1409 879q31 -94 -34.5 -169t-162.5 -75q-66 0 -143 57q25 -279 -140 -498t-423 -219q-197 0 -305.5 124t-108.5 302q0 131 54.5 242t138.5 177.5t183 96t191 11.5l89 190q35 74 40 121t-8.5 64.5t-29 40t-15.5 49.5q0 33 18.5 52t53.5 19q66 0 78 -66.5t-43 -199.5 l-467 -1022q78 -27 160 -26q158 0 278.5 93t170.5 227t26 265q-43 25 -80 25q-57 0 -93 -42t-34 -93h-35q-25 102 37.5 173.5t159.5 71.5q68 0 152.5 -60t133.5 -60q57 0 92 40.5t31 88.5h35zM158 469q0 -184 168 -272l268 583q-61 41 -137 30t-142.5 -49t-111.5 -117 t-45 -175z" glyph-name="ampersand" horiz-adv-x="1359" unicode="&amp;"/><glyph d="M231 795l68 393q8 47 35.5 74.5t64.5 27.5q43 0 55.5 -39t-12.5 -88l-184 -368h-27z" glyph-name="quotesingle" horiz-adv-x="296" unicode="'"/><glyph d="M242 -319q-180 186 -181 505q0 381 219.5 763t561.5 595l32 -26q-289 -248 -481 -676t-192 -805q0 -209 67 -348z" glyph-name="parenleft" horiz-adv-x="581" unicode="("/><glyph d="M459 1544q180 -186 180 -506q0 -381 -219 -762.5t-561 -594.5l-33 26q289 248 481.5 676t192.5 805q0 209 -68 348z" glyph-name="parenright" horiz-adv-x="581" unicode=")"/><glyph d="M559 1071l-47 117q-23 51 1 80.5t62.5 29.5t62.5 -29.5t3 -80.5l-47 -117q-6 -14 -17.5 -14t-17.5 14zM492 1010l-123 22q-57 8 -71.5 46t9.5 65q20 35 53 39t76 -41l74 -101q10 -12 4 -22t-22 -8zM659 1010q-14 -2 -21 9t3 21l76 101q41 45 73.5 41t55.5 -39 q23 -27 7.5 -65t-71.5 -46zM305 831q-23 27 -7.5 65t71.5 46l123 23q14 2 21 -9.5t-3 -21.5l-76 -100q-41 -45 -73.5 -41.5t-55.5 38.5zM846 831q-20 -35 -55 -39t-74 42l-76 100q-10 10 -3 21.5t21 9.5l123 -23q55 -8 71 -46t-7 -65zM575.5 676q-40.5 0 -63.5 28.5t0 81.5 l45 117q6 14 18.5 14.5t18.5 -14.5l45 -117q23 -53 0 -81.5t-63.5 -28.5z" glyph-name="asterisk" horiz-adv-x="798" unicode="*"/><glyph d="M838 575l-39 -120h-285l-104 -322h-119l104 322h-289l39 120h289l103 318h118l-102 -318h285z" glyph-name="plus" horiz-adv-x="897" unicode="+"/><glyph d="M-102 -303l-17 53q162 55 201 174q8 27 0 41.5t-37 32.5q-63 45 -63 106q0 53 39.5 90t95 37t93.5 -40.5t38 -112.5q0 -113 -97 -228.5t-253 -152.5z" glyph-name="comma" horiz-adv-x="456" unicode=","/><glyph d="M123 479v88h614v-88h-614z" glyph-name="hyphen" horiz-adv-x="860" unicode="-"/><glyph d="M129 -20q-53 0 -91 36.5t-38 89.5q0 51 38 88t91 37t91 -36.5t38 -88.5q0 -53 -38 -89.5t-91 -36.5z" glyph-name="period" horiz-adv-x="475" unicode="."/><glyph d="M-125 -133l1118 1671l84 -57l-1118 -1671z" glyph-name="slash" horiz-adv-x="739" unicode="/"/><glyph d="M360 -18q-135 0 -218 81.5t-83 223.5q0 236 186.5 424t430.5 188q135 0 218 -82t83 -223q0 -233 -187.5 -422.5t-429.5 -189.5zM397 51q104 0 198.5 100.5t145 232.5t50.5 241q0 94 -39 149t-113 55q-104 0 -198.5 -100t-145.5 -231t-51 -240q0 -94 38.5 -150.5 t114.5 -56.5z" glyph-name="zero" horiz-adv-x="1036" unicode="0"/><glyph d="M358 162q-20 -63 10.5 -84t125.5 -33l-15 -45h-526l14 47q100 12 148.5 34.5t68.5 86.5l174 539q23 68 -8 92t-121 37l13 45h528l-14 -47q-98 -12 -148.5 -39t-72.5 -95z" glyph-name="one" horiz-adv-x="716" unicode="1"/><glyph d="M-37 0l-6 47q23 16 95.5 65.5t110.5 76t107.5 77.5t109.5 86t92 84t81 88t49.5 82t20.5 80q0 96 -121 96q-143 0 -285 -161l-29 47q80 115 188.5 173t221.5 58q98 0 154.5 -52t56.5 -138q0 -43 -14.5 -85t-46 -83t-60.5 -75t-82 -74t-86 -64.5t-97.5 -61.5t-90 -51 t-88 -48t-70.5 -38l244 6q88 2 145.5 30t116.5 111l43 -10l-166 -289h-43l4 23h-555z" glyph-name="two" horiz-adv-x="858" unicode="2"/><glyph d="M88 -389q-94 0 -162.5 35t-68.5 106q0 80 75 80q33 0 55.5 -25.5t34 -55.5t40 -55.5t71.5 -25.5q119 0 249 136.5t130 269.5q0 82 -57.5 124t-143.5 42q-76 0 -182 -47l-2 55l154 72q166 78 265 155.5t99 177.5q0 55 -33.5 87t-95.5 32q-147 0 -313 -164l-23 56 q203 233 424 233q100 0 155.5 -50t55.5 -138q0 -215 -360 -379q100 -4 173.5 -60.5t73.5 -165.5q0 -186 -198.5 -340.5t-415.5 -154.5z" glyph-name="three" horiz-adv-x="905" unicode="3"/><glyph d="M885 911l-275 -843h176l-47 -88h-157l-58 -177q-20 -61 5.5 -83.5t93.5 -34.5l-13 -43h-460l14 47q76 12 118 35.5t60 85.5l55 170h-471l-12 40l915 891h56zM29 68h397l184 563z" glyph-name="four" horiz-adv-x="958" unicode="4"/><glyph d="M883 711h-486l-174 -262q254 33 376 -53.5t122 -243.5q0 -213 -193.5 -377t-423.5 -164q-96 0 -172.5 33.5t-76.5 101.5q0 86 92 86q33 0 54.5 -25.5t33.5 -55.5t40.5 -55.5t74.5 -25.5q123 0 244.5 146.5t121.5 296.5q0 117 -93 181t-292 25l-25 41l336 521h316 q88 0 137 13t90 54h45z" glyph-name="five" horiz-adv-x="944" unicode="5"/><glyph d="M416 -25q-152 0 -228.5 90.5t-76.5 245.5q0 225 145 453.5t369.5 377t449.5 163.5l15 -58q-145 -14 -295 -117.5t-260.5 -249t-180 -315.5t-69.5 -311q0 -98 37.5 -152.5t111.5 -54.5q145 0 268 173t123 339q0 184 -182 184q-53 0 -113 -14l17 45q88 53 198 53 q121 0 193 -72.5t72 -203.5q0 -219 -182.5 -397.5t-411.5 -178.5z" glyph-name="six" horiz-adv-x="1077" unicode="6"/><glyph d="M1030 881l8 -41q-571 -614 -880 -1235h-164q291 504 848 1106h-398q-90 0 -145 -29t-133 -131h-47l221 364h39l-8 -34h659z" glyph-name="seven" horiz-adv-x="960" unicode="7"/><glyph d="M776 709q164 -94 164 -256q0 -190 -175 -330.5t-392 -140.5q-147 0 -233.5 73.5t-86.5 202.5q0 139 97.5 253t259.5 179q-78 84 -78 201q0 168 136 291t316 123q129 0 197 -64.5t68 -167.5q0 -106 -75 -201t-198 -163zM780 1241q-111 0 -189.5 -90t-78.5 -193 q0 -125 135 -188l62 -29q100 59 159.5 153.5t59.5 190.5q0 70 -37 113t-111 43zM387 47q141 0 249.5 110.5t108.5 231.5q0 66 -41.5 110t-140.5 93l-47 22q-31 16 -55 31q-129 -61 -202 -163.5t-73 -223.5q0 -98 53.5 -154.5t147.5 -56.5z" glyph-name="eight" horiz-adv-x="1042" unicode="8"/><glyph d="M655 899q152 0 229 -90t77 -246q0 -225 -145.5 -453.5t-370 -377t-449.5 -162.5l-14 57q145 14 294.5 117.5t260 249t180 315.5t69.5 312q0 98 -37.5 152t-111.5 54q-145 0 -268 -173t-123 -339q0 -184 182 -184q53 0 113 14l-17 -45q-88 -53 -198 -53q-121 0 -193 73 t-72 204q0 219 182.5 397t411.5 178z" glyph-name="nine" horiz-adv-x="1064" unicode="9"/><glyph d="M350 655q-53 0 -91 37t-38 90q0 51 38 88t91 37t91 -36.5t38 -88.5q0 -53 -38 -90t-91 -37zM129 -20q-53 0 -91 36.5t-38 89.5q0 51 38 88t91 37t91 -36.5t38 -88.5q0 -53 -38 -89.5t-91 -36.5z" glyph-name="colon" horiz-adv-x="475" unicode=":"/><glyph d="M332 653q-53 0 -91 37t-38 90q0 51 38 88t91 37t91 -37t38 -88q0 -53 -38 -90t-91 -37zM-100 -303l-17 53q162 55 201 174q8 27 0 41.5t-37 32.5q-63 45 -63 106q0 53 39.5 90t95 37t93.5 -40.5t38 -112.5q0 -113 -97 -228.5t-253 -152.5z" glyph-name="semicolon" horiz-adv-x="458" unicode=";"/><glyph d="M958 918l-40 -142q-291 -152 -676 -284q264 -104 489 -279l-35 -117q-262 197 -567 348l35 121q378 142 794 353z" glyph-name="less" horiz-adv-x="931" unicode="&lt;"/><glyph d="M168 639l39 121h682l-39 -121h-682zM49 270l39 121h682l-39 -121h-682z" glyph-name="equal" horiz-adv-x="888" unicode="="/><glyph d="M16 96l41 142q291 152 676 284q-264 104 -489 279l35 117q262 -197 567 -349l-35 -120q-379 -142 -795 -353z" glyph-name="greater" horiz-adv-x="931" unicode=">"/><glyph d="M393 381q-2 78 30 147.5t85 127t108.5 113.5t110.5 133t82 161q68 211 -168 211q-49 0 -106 -82q-66 -92 -105 -126t-76 -34q-51 0 -51 60q0 78 88 139t196.5 89t203.5 28q150 0 205 -91.5t8 -230.5q-31 -94 -94.5 -169t-133 -124t-139.5 -96t-126 -111.5t-77 -144.5h-41 zM348 -23q-53 0 -91 37t-38 90q0 51 38 88t91 37t91 -36.5t38 -88.5q0 -53 -38 -90t-91 -37z" glyph-name="question" horiz-adv-x="890" unicode="?"/><glyph d="M1149 1300q238 0 371 -126.5t133 -335.5q0 -238 -148.5 -432.5t-353.5 -194.5q-84 0 -127 38t-33 105q-147 -137 -305 -137q-84 0 -134 46t-50 136q0 193 171 360t357 167q166 0 166 -164l74 137h129l-258 -496q-20 -45 -26.5 -73.5t9 -47t58.5 -18.5q154 0 276.5 185.5 t122.5 392.5q0 174 -113.5 283.5t-314.5 109.5q-164 0 -326.5 -81t-283.5 -208t-197 -289.5t-76 -322.5q0 -186 111 -299t313 -113q209 0 422 111l29 -43q-217 -129 -473 -129q-246 0 -393.5 141t-147.5 369q0 236 148.5 452.5t384 346.5t485.5 130zM743 281 q82 0 177.5 79.5t164.5 192.5l37 72q39 82 39 143q0 104 -102 104q-139 0 -275.5 -175t-136.5 -314q0 -102 96 -102z" glyph-name="at" horiz-adv-x="1667" unicode="@"/><glyph d="M1059 176q4 -70 25.5 -93.5t89.5 -39.5l-11 -43h-483l12 45q59 14 87 22.5t53.5 36t23.5 72.5l-12 225h-482l-165 -237q-23 -33 -29 -54.5t11.5 -35t28.5 -16.5t52 -15l-12 -43h-344l12 45q78 16 112.5 37.5t84.5 89.5l805 1133h71zM403 463h439l-31 586z" glyph-name="A" horiz-adv-x="1323" unicode="A"/><glyph d="M1251 1047q0 -125 -101 -226.5t-257 -148.5q231 -55 231 -262q0 -199 -190.5 -304.5t-472.5 -105.5h-527l13 45q61 12 93 23.5t65.5 48.5t54.5 102l276 858q16 51 18.5 82t-16 47.5t-37 23.5t-61.5 15l12 45h522q178 0 277.5 -61t99.5 -182zM676 707q160 0 272.5 106.5 t112.5 241.5q0 166 -225 166q-100 0 -136 -28t-57 -89l-129 -397h162zM920 432q0 207 -295 207h-131l-138 -422q-29 -76 -1 -111.5t124 -35.5q190 0 315.5 107.5t125.5 254.5z" glyph-name="B" horiz-adv-x="1230" unicode="B"/><glyph d="M584 -27q-213 0 -322.5 118t-109.5 327q0 223 114.5 432t314 340t427.5 131q221 0 319 -115l-65 -268h-58q12 156 -40 234.5t-183 78.5q-172 0 -318.5 -131t-222 -314t-75.5 -359.5t85 -274.5t236 -98q205 0 342 119l21 -60q-78 -70 -203 -115t-262 -45z" glyph-name="C" horiz-adv-x="1206" unicode="C"/><glyph d="M829 1290q223 0 366.5 -108.5t143.5 -331.5q0 -229 -126 -426t-341 -310.5t-464 -113.5h-474l13 45q61 12 93 23.5t65.5 48.5t54.5 102l276 858q16 51 18.5 82t-16 47.5t-37 23.5t-61.5 15l12 45h477zM477 70q176 0 331 126t242 317.5t87 389.5q0 317 -346 318h-109 l-313 -963q-35 -106 -11.5 -147t119.5 -41z" glyph-name="D" horiz-adv-x="1333" unicode="D"/><glyph d="M354 1290h903l-81 -291h-48q31 119 10.5 170.5t-118.5 51.5h-164q-104 0 -150.5 -34t-78.5 -138l-119 -363h139q156 0 215.5 40t102.5 144h41l-140 -426h-41q14 57 15.5 86t-17 51.5t-63.5 28.5t-131 6h-144l-129 -399q-16 -55 -20 -83t14.5 -43t44 -18t84.5 -3h125 q106 0 186 56t179 191h53l-182 -317h-906l13 45q61 12 93 23.5t65.5 48.5t54.5 102l278 858q16 51 18.5 82t-16 47.5t-37 23.5t-61.5 15z" glyph-name="E" horiz-adv-x="1150" unicode="E"/><glyph d="M354 1290h893l-82 -291h-47q31 119 10.5 170.5t-116.5 51.5h-156q-104 0 -149 -33t-78 -139l-119 -363h119q156 0 215 40t102 144h41l-139 -426h-41q14 57 15 86t-17.5 51.5t-63.5 28.5t-131 6h-123l-131 -403q-16 -49 -18 -81t16.5 -49t37 -23.5t61.5 -16.5l-11 -43 h-508l13 45q61 12 93 23.5t65.5 48.5t54.5 102l278 858q16 51 18.5 82t-16 47.5t-37 23.5t-61.5 15z" glyph-name="F" horiz-adv-x="1073" unicode="F"/><glyph d="M627 -27q-242 0 -364 119t-118 326q4 227 129 436t334 338t443 129q238 0 331 -115q-57 -195 -73 -268h-58q43 311 -239 311q-176 0 -331 -136t-240 -332.5t-89 -387.5q-4 -162 74 -256t225 -94q106 0 166 54.5t101 174.5l30 90q25 72 30 111t-12.5 61.5t-49 30.5 t-97.5 13l15 53h507l-18 -56q-133 -18 -180 -155l-39 -117q-37 -111 -53 -237q-59 -37 -178 -65t-246 -28z" glyph-name="G" horiz-adv-x="1368" unicode="G"/><glyph d="M1114 1290h506l-14 -47q-47 -8 -73 -15t-55.5 -25.5t-49 -49.5t-35.5 -82l-281 -858q-12 -41 -14 -68.5t3 -44t25.5 -29t36 -16.5t49.5 -12l-10 -43h-502l13 45q88 16 132 47t75 127l127 391h-570l-129 -397q-12 -41 -14 -68.5t3 -44t25.5 -29t36 -16.5t50.5 -12l-11 -43 h-501l12 45q88 16 132 47t75 127l278 858q16 51 18.5 82t-16 47.5t-37 23.5t-61.5 15l12 45h506l-14 -47q-47 -8 -73 -15t-55.5 -25.5t-49 -49.5t-35.5 -82l-127 -391h567l129 397q16 51 18.5 82t-16 47.5t-37 23.5t-61.5 15z" glyph-name="H" horiz-adv-x="1413" unicode="H"/><glyph d="M-63 0l12 45q88 16 132 47t75 127l278 858q16 51 18.5 82t-16 47.5t-37 23.5t-61.5 15l12 45h506l-14 -47q-47 -8 -73 -15t-55.5 -25.5t-49 -49.5t-35.5 -82l-281 -858q-12 -41 -14 -68.5t3 -44t25.5 -29t36 -16.5t50.5 -12l-11 -43h-501z" glyph-name="I" horiz-adv-x="649" unicode="I"/><glyph d="M-238 -371l19 62q139 41 197.5 109.5t111.5 232.5l338 1044q16 51 18.5 81t-17 47.5t-40 23.5t-70.5 16l13 45h528l-14 -47q-51 -10 -78 -17t-58.5 -24.5t-51 -49.5t-35.5 -81l-351 -1083q-102 -318 -510 -359z" glyph-name="J" horiz-adv-x="643" unicode="J"/><glyph d="M1475 1243q-86 0 -143.5 -26.5t-125.5 -81.5l-440 -355l281 -635q23 -49 59.5 -73.5t112.5 -26.5l-13 -45h-364q25 80 -15 172l-211 487l-165 -133l-103 -313q-12 -41 -14 -68.5t3 -44t25.5 -29t36 -16.5t50.5 -12l-11 -43h-501l12 45q88 16 132 47t75 127l278 858 q16 51 18.5 82t-16 47.5t-37 23.5t-61.5 15l12 45h506l-14 -47q-47 -8 -73 -15t-55.5 -25.5t-49 -49.5t-35.5 -82l-140 -426l627 502q55 45 42 70.5t-89 27.5l12 45h410z" glyph-name="K" horiz-adv-x="1355" unicode="K"/><glyph d="M-66 0l13 45q61 12 93 23.5t65.5 48.5t54.5 102l276 858q16 51 18.5 82t-16 47.5t-37 23.5t-61.5 15l12 45h529l-15 -47q-68 -12 -101.5 -22.5t-72.5 -47t-59 -102.5l-277 -854q-29 -98 -5 -122.5t128 -24.5h131q106 0 187.5 58t179.5 204l49 -13l-180 -319h-912z" glyph-name="L" horiz-adv-x="1103" unicode="L"/><glyph d="M1360 213q-14 -51 -15.5 -82t15 -47t35 -22.5t59.5 -14.5l-12 -47h-504l12 47q49 10 73 17.5t55.5 24.5t50 49t32.5 81l269 926l-771 -1145h-55l-65 1040l-303 -827q-18 -49 -19.5 -81t18 -48t41 -22.5t66.5 -14.5l-10 -47h-398l13 47q47 10 71.5 17.5t55 24.5t51 49 t39.5 81l315 858q18 49 20.5 80t-19 48.5t-38 22.5t-63.5 15l14 47h334q-4 -39 4 -168l57 -825l560 836q74 109 100 157h377l-15 -47q-53 -12 -72.5 -18t-52 -24.5t-50 -49.5t-31.5 -80z" glyph-name="M" horiz-adv-x="1652" unicode="M"/><glyph d="M1143 1290h401l-14 -45q-92 -16 -139.5 -48t-77.5 -126l-348 -1071h-76l-365 1094l-288 -881q-31 -94 -4.5 -123t114.5 -47l-10 -43h-402l13 45q92 16 139 48t78 126l278 858q12 41 14.5 69t-2.5 44t-25.5 27.5t-36 16.5t-50.5 11l12 45h312l325 -971l250 758 q31 94 4.5 123t-115.5 47z" glyph-name="N" horiz-adv-x="1316" unicode="N"/><glyph d="M553 -27q-193 0 -299.5 118t-106.5 315q0 227 116 439t311.5 344t412.5 132q193 0 299.5 -117t106.5 -313q0 -170 -70 -337t-183.5 -295t-269 -207t-317.5 -79zM598 43q154 0 292 143.5t215 345t77 388.5q0 156 -61.5 243.5t-178.5 87.5q-154 0 -292 -143t-215 -345 t-77 -386q0 -158 61.5 -246t178.5 -88z" glyph-name="O" horiz-adv-x="1398" unicode="O"/><glyph d="M-66 0l13 45q61 12 93 23.5t65.5 48.5t54.5 102l276 858q16 51 18.5 82t-16 47.5t-37 23.5t-61.5 15l12 45h465q444 0 445 -295q0 -225 -211 -359t-512 -134q-14 0 -17.5 17.5t6 35.5t21.5 18q215 0 362.5 134.5t147.5 316.5q0 197 -232 197q-92 0 -127.5 -29t-56.5 -88 l-289 -891q-14 -41 -15 -68.5t4 -44t26.5 -28t41 -16.5t58.5 -13l-10 -43h-525z" glyph-name="P" horiz-adv-x="1189" unicode="P"/><glyph d="M991 -240q74 0 168 50l23 -46q-172 -123 -303 -122q-104 0 -191 90l-207 215q-23 27 -65 45q-129 39 -199 147.5t-70 266.5q0 227 116 439t311.5 344t412.5 132q193 0 299.5 -117t106.5 -313q0 -311 -209 -578.5t-500 -324.5q33 -18 64 -51l81 -93q74 -84 162 -84z M942 1251q-154 0 -292 -143t-215 -345t-77 -386q0 -158 61.5 -246t178.5 -88q154 0 292 143.5t215 345t77 388.5q0 156 -61.5 243.5t-178.5 87.5z" glyph-name="Q" horiz-adv-x="1388" unicode="Q"/><glyph d="M1239 1018q0 -182 -138 -295t-366 -145q113 -31 142 -160l47 -193q55 -217 198 -174l-14 -57q-53 -27 -135 -27q-106 0 -158.5 52.5t-81.5 164.5l-57 234q-20 84 -66.5 114.5t-138.5 34.5l-115 -354q-16 -51 -17 -82t18.5 -48t41 -23.5t70.5 -16.5l-10 -43h-525l13 45 q61 12 93 23.5t65.5 48.5t54.5 102l276 858q16 51 18.5 82t-16 47.5t-37 23.5t-61.5 15l12 45h477q410 0 410 -272zM606 639q186 0 310 121t124 282q0 178 -215 179q-143 0 -180 -111l-151 -471h112z" glyph-name="R" horiz-adv-x="1259" unicode="R"/><glyph d="M367 -23q-211 0 -340 136l65 256h43q-16 -150 46.5 -236t187.5 -86q135 0 230 87t95 208q0 82 -46 143.5t-134 132.5q-53 43 -76.5 63.5t-62.5 63.5t-55.5 91.5t-16.5 105.5q0 164 135 271.5t332 107.5q207 0 311 -123l-75 -258h-41q18 143 -31 227t-168 84 q-115 0 -193.5 -71.5t-78.5 -171.5q0 -119 163 -250q45 -37 61.5 -49.5t59.5 -55.5t62.5 -74.5t38 -83t18.5 -102.5q0 -174 -156.5 -295t-373.5 -121z" glyph-name="S" horiz-adv-x="1007" unicode="S"/><glyph d="M1276 1290l100 21l-102 -361h-39q29 154 -3 215.5t-173 61.5h-103l-327 -1014q-31 -96 -2.5 -125t139.5 -45l-10 -43h-570l13 45q106 16 154 47t79 127l328 1008h-103q-143 0 -220 -70t-146 -219h-43l135 373l88 -21h805z" glyph-name="T" horiz-adv-x="1196" unicode="T"/><glyph d="M559 -23q-68 0 -127 14.5t-111.5 52.5t-81 97.5t-26.5 158.5t43 226l178 551q16 51 18.5 82t-16 47.5t-37 23.5t-61.5 15l12 45h506l-14 -47q-63 -10 -95 -22.5t-63 -48t-53 -101.5l-193 -596q-33 -100 -37 -176t13.5 -120t52.5 -70.5t69.5 -34.5t77.5 -8q135 0 261 93 t198 312l197 606q12 41 14 69t-3 44t-25.5 27.5t-37 16.5t-51.5 11l13 45h401l-14 -47q-68 -12 -100.5 -23.5t-66.5 -47t-57 -101.5l-190 -586q-47 -143 -116.5 -246.5t-150.5 -158.5t-161 -79t-166 -24z" glyph-name="U" horiz-adv-x="1353" unicode="U"/><glyph d="M1235 1290h344l-12 -45q-78 -16 -113 -37.5t-84 -89.5l-805 -1132h-71l-70 1128q-4 70 -25.5 93.5t-91.5 39.5l12 43h484l-12 -45q-57 -12 -87 -21.5t-54.5 -37t-22.5 -72.5l45 -872l614 884q23 33 29 54.5t-11.5 35t-28.5 16.5t-52 15z" glyph-name="V" horiz-adv-x="1343" unicode="V"/><glyph d="M438 -16l-14 1116q-2 82 -22.5 106.5t-94.5 40.5l12 43h482l-13 -45q-55 -12 -84.5 -21.5t-54 -37t-24.5 -70.5l4 -835l436 680q68 96 61.5 180t-96.5 106l10 43h314q-31 -98 -31 -295l6 -712l510 796q33 51 42 82t-12.5 47.5t-45 22.5t-84.5 16l10 43h408l-13 -45 q-80 -14 -121 -41.5t-98 -116.5l-717 -1103h-73l-11 948l-612 -948h-74z" glyph-name="W" horiz-adv-x="1921" unicode="W"/><glyph d="M1130 1290h390l-13 -45q-98 -16 -148 -41.5t-132 -105.5l-404 -400l150 -516q23 -74 60.5 -98.5t135.5 -40.5l-16 -43h-545l17 45q31 6 47 9t36.5 10.5t30 16.5t17.5 23.5t8 33t-8 44.5l-111 385l-385 -397q-45 -47 -49 -72.5t16.5 -34t83.5 -20.5l-16 -43h-414l15 45 q109 16 156.5 38.5t127.5 102.5l447 447l-131 463q-23 82 -60 108.5t-129 42.5l12 43h537l-12 -45q-96 -16 -126 -45t-7 -106l94 -330l348 354q18 18 31.5 32.5t18.5 26t11.5 19.5t0 15.5t-6.5 10.5t-15 8t-18.5 6t-26 5t-28.5 6z" glyph-name="X" horiz-adv-x="1335" unicode="X"/><glyph d="M1120 1290h373l-12 -45q-84 -14 -119 -36.5t-105 -100.5l-493 -555l-109 -340q-31 -96 -2 -125t140 -45l-11 -43h-569l12 45q106 16 154.5 47t79.5 127l106 324l-139 565q-18 78 -42 101.5t-97 37.5l12 43h498l-13 -45q-41 -8 -64.5 -16t-50 -22.5t-34.5 -39t0 -59.5 l117 -479l428 487q31 35 40 57.5t-6.5 36t-32 19.5t-55.5 14q-12 2 -18 4z" glyph-name="Y" horiz-adv-x="1226" unicode="Y"/><glyph d="M-35 0l-12 31l1110 1206l-375 -8q-133 -2 -206.5 -68.5t-133.5 -214.5h-47l115 357l104 -13h832l-1139 -1237l436 21q129 6 202 71.5t153 214.5h53q-113 -225 -158 -360h-934z" glyph-name="Z" horiz-adv-x="1150" unicode="Z"/><glyph d="M217 -340l-358 21l604 1853l368 20l-12 -41l-201 -38l-565 -1735l176 -39z" glyph-name="bracketleft" horiz-adv-x="518" unicode="["/><glyph d="M772 -133l-100 -47l-432 1671l102 47z" glyph-name="backslash" horiz-adv-x="978" unicode="\"/><glyph d="M395 1554l359 -20l-604 -1853l-369 -21l12 41l201 39l565 1735l-176 38z" glyph-name="bracketright" horiz-adv-x="507" unicode="]"/><glyph d="M242 752l-29 26l365 545l364 -545l-29 -26l-335 399z" glyph-name="asciicircum" horiz-adv-x="933" unicode="^"/><glyph d="M102 -119l2 78h1084l-2 -78h-1084z" glyph-name="underscore" horiz-adv-x="1290" unicode="_"/><glyph d="M537 1044q-143 158 -246 228q14 39 62 73.5t89 34.5q84 -119 142 -303z" glyph-name="grave" horiz-adv-x="397" unicode="`"/><glyph d="M686 221q-33 -94 0 -86q45 10 176 191l33 -35q-199 -311 -336 -311q-51 0 -72.5 37.5t-1.5 93.5l76 215q-311 -346 -409 -346q-45 0 -83 51t-38 155q0 166 100 334t258 273.5t313 105.5q55 0 115 -18h101zM270 145q47 0 324 277l125 358q-70 43 -131 43q-86 0 -179.5 -93 t-151.5 -223t-58 -235q-1 -127 71 -127z" glyph-name="a" horiz-adv-x="980" unicode="a"/><glyph d="M799 899q84 0 133 -58.5t49 -164.5q0 -154 -94 -316.5t-242.5 -270t-294.5 -107.5q-131 0 -192.5 82.5t-24.5 193.5l295 864q27 80 -3 107.5t-134 27.5l16 54l334 47l21 -31l-230 -676q179 248 367 248zM377 37q94 0 194.5 115.5t162 269t61.5 268.5q0 113 -84 113 q-80 0 -174.5 -97.5t-176.5 -263.5l-67 -200q-29 -70 -7.5 -137.5t91.5 -67.5z" glyph-name="b" horiz-adv-x="1009" unicode="b"/><glyph d="M594 899q94 0 143 -51t49 -129q0 -55 -25.5 -91t-72.5 -36q-88 0 -78 135q6 68 -4 90.5t-43 22.5q-127 0 -231.5 -179.5t-104.5 -343.5q0 -90 42 -145t114 -55q61 0 135 40t123 105l23 -41q-61 -115 -173 -178t-210 -63q-104 0 -171 73.5t-67 202.5q0 145 80 295.5 t210 249t261 98.5z" glyph-name="c" horiz-adv-x="792" unicode="c"/><glyph d="M715 221q-33 -96 0 -86q47 14 176 191l31 -35q-195 -311 -340 -311q-47 0 -71 31.5t-5 84.5l96 277q-72 -80 -115 -127t-116.5 -120t-128 -109.5t-90.5 -36.5q-45 0 -83 51t-38 155q0 166 100 334t258 273.5t313 105.5q45 0 80 -8l80 231q27 80 -4 107.5t-135 27.5l18 54 l336 47l21 -31zM270 145q55 0 363 318l106 305q-80 55 -151 55q-86 0 -179.5 -93t-151.5 -223t-58 -235q-1 -127 71 -127z" glyph-name="d" horiz-adv-x="997" unicode="d"/><glyph d="M772 750q0 -254 -545 -373q-6 -37 -6 -70q0 -84 39 -137t109 -53q57 0 127.5 34.5t119.5 100.5l25 -37q-66 -115 -175.5 -174t-205.5 -59q-102 0 -162.5 69.5t-60.5 190.5q0 150 87 304t221 253.5t265 99.5q84 0 123 -41.5t39 -107.5zM535 829q-80 0 -169.5 -123.5 t-125.5 -271.5q367 78 366 295q1 100 -71 100z" glyph-name="e" horiz-adv-x="782" unicode="e"/><glyph d="M883 1430q92 0 139 -39t47 -93q0 -41 -26.5 -68.5t-65.5 -27.5q-78 0 -78 101q0 70 -72 69q-70 0 -119 -65.5t-98 -237.5l-53 -188h225l-28 -82l-217 12l-181 -641q-78 -272 -203.5 -411.5t-289.5 -139.5q-90 0 -140.5 41t-50.5 94q0 39 27 65.5t65 26.5q45 0 64.5 -32.5 t17.5 -69.5q-2 -68 66 -68q70 0 120 65.5t99 238.5l238 839l-215 12l14 50h217q78 272 206 410.5t292 138.5z" glyph-name="f" horiz-adv-x="782" unicode="f"/><glyph d="M985 850l-29 -115l-170 49q18 -39 19 -94q0 -150 -131 -261.5t-291 -111.5q-41 0 -82 11q-33 -12 -53.5 -33t-20.5 -35q0 -33 58 -55l174 -74q61 -27 84.5 -37t61.5 -30.5t50.5 -37t23.5 -40t11 -54.5q0 -98 -86 -172.5t-204.5 -110.5t-243.5 -36q-158 0 -232 59.5 t-69 145.5q2 37 55 87t98 78.5t129 75.5q16 10 25 15q-61 29 -88 56.5t-27 64.5q0 41 58.5 85t134.5 74q-82 55 -82 172q0 150 129 260.5t291 110.5q82 0 139 -35q43 -12 268 -12zM403 362q96 0 168 123t72 248q0 119 -86 119q-94 0 -167 -127t-73 -250q0 -113 86 -113z M522 -141q0 45 -34.5 71.5t-120.5 61.5l-136 53q-90 -57 -155.5 -124.5t-67.5 -123.5q-4 -55 39 -92t148 -37q129 0 228 54.5t99 136.5z" glyph-name="g" horiz-adv-x="933" unicode="g"/><glyph d="M864 899q158 0 148 -176q-6 -125 -90 -302t-200 -308t-202 -131q-39 0 -79 26.5t-40 75.5q0 37 22.5 58.5t51.5 21.5q35 0 51.5 -30t22.5 -59.5t16 -29.5q68 0 156 240.5t96 371.5q6 127 -63 127q-119 0 -285 -240.5t-268 -543.5h-166l383 1122q27 80 -3 107.5t-134 27.5 l16 54l336 47l20 -31l-223 -670l-94 -217l14 2q133 244 266 350.5t248 106.5z" glyph-name="h" horiz-adv-x="1017" unicode="h"/><glyph d="M504 1145q-47 0 -82 32.5t-35 79.5q0 45 35 79t82 34t82 -33.5t35 -79.5q0 -47 -35 -79.5t-82 -32.5zM451 322l32 -35q-197 -307 -333 -307q-53 0 -78 37.5t-2 93.5l219 538q39 96 2 88q-49 -10 -180 -188l-31 35q197 307 336 307q55 0 78.5 -38t1.5 -93l-222 -539 q-41 -98 -2 -88q52 13 179 189z" glyph-name="i" horiz-adv-x="571" unicode="i"/><glyph d="M553 1145q-47 0 -82 32.5t-35 79.5q0 45 35 79t82 34t82 -33.5t35 -79.5q0 -47 -35 -79.5t-82 -32.5zM461 891q51 0 71.5 -38t2.5 -93l-195 -604q-84 -256 -185.5 -385t-252.5 -129q-94 0 -143.5 44t-49.5 109q0 51 30 80t71 29q47 0 67.5 -38t8 -103.5t46.5 -65.5 q61 0 96 61.5t95 241.5l211 649q35 111 -10 86q-47 -25 -166 -186l-31 35q197 307 334 307z" glyph-name="j" horiz-adv-x="552" unicode="j"/><glyph d="M35 0l383 1122q27 80 -3 107.5t-134 27.5l16 54l336 47l20 -31l-452 -1327h-166zM1069 836q-135 -12 -328 -156l-168 -125l121 -393q14 -47 43 -65.5t64 -7.5t73 46l11 -43q-113 -113 -199 -112q-113 0 -158 151l-110 385l250 178q57 41 77.5 71t3 48t-72.5 23l16 45h395 z" glyph-name="k" horiz-adv-x="1015" unicode="k"/><glyph d="M270 221q-33 -96 0 -86q47 14 176 191l31 -35q-195 -311 -340 -311q-47 0 -70.5 31.5t-5.5 84.5l357 1026q27 80 -4 107.5t-135 27.5l18 54l336 47l20 -31z" glyph-name="l" horiz-adv-x="552" unicode="l"/><glyph d="M1438 326l30 -35q-199 -311 -342 -311q-49 0 -70.5 31.5t-0.5 84.5l174 449q25 61 36 97t14 65.5t-7 41t-35 11.5q-80 0 -246 -237.5t-280 -522.5h-162l194 545q23 63 33 99t12.5 64.5t-8 40t-35.5 11.5q-80 0 -245.5 -237.5t-280.5 -522.5h-162l234 653q35 96 0 88 q-47 -10 -178 -188l-31 35q197 307 342 307q47 0 62.5 -32t-5.5 -85l-157 -397h26q293 514 508 514q102 0 103.5 -107.5t-76.5 -257.5l-70 -149h27q293 514 506 514q188 0 38 -367l-124 -307q-39 -92 -5 -86q50 13 181 191z" glyph-name="m" horiz-adv-x="1554" unicode="m"/><glyph d="M946 326l31 -35q-199 -311 -342 -311q-49 0 -70.5 31.5t-1.5 84.5l174 449q25 61 36 97t14.5 65.5t-7 41t-35.5 11.5q-80 0 -245.5 -237.5t-280.5 -522.5h-162l234 653q35 96 0 88q-47 -10 -178 -188l-31 35q197 307 342 307q47 0 62.5 -32t-5.5 -85l-157 -397h26 q293 514 506 514q188 0 39 -367l-125 -307q-39 -92 -4 -86q49 13 180 191z" glyph-name="n" unicode="n"/><glyph d="M276 -20q-109 0 -173 61t-64 195q0 248 189.5 455.5t412.5 207.5q109 0 172.5 -60.5t63.5 -193.5q0 -160 -87.5 -315.5t-228 -252.5t-285.5 -97zM342 41q90 0 175 111.5t133 255t48 254.5q0 82 -32.5 129t-92.5 47q-92 0 -177 -110t-131 -250t-46 -251q0 -80 32 -133 t91 -53z" glyph-name="o" horiz-adv-x="917" unicode="o"/><glyph d="M227 -35l-53 -153q-14 -43 -14 -60q0 -33 28.5 -45t104.5 -20l-12 -45h-461l12 45q78 14 115 37.5t61 91.5l332 936q-98 -49 -217 -150l-21 49q133 133 271 195l92 258l170 20l-78 -223q49 4 70 4q131 0 221 -67.5t90 -210.5q0 -223 -207 -423t-504 -239zM557 811 q-20 0 -33 -2l-276 -789q221 37 365.5 208t144.5 364q0 111 -53.5 165t-147.5 54z" glyph-name="p" horiz-adv-x="978" unicode="p"/><glyph d="M545 -188q-27 -74 -1.5 -94.5t118.5 -30.5l-11 -45h-458l12 45q78 14 114.5 37.5t61.5 91.5l180 512q-309 -348 -409 -348q-45 0 -83 51t-38 155q0 166 100 334t258 273.5t313 105.5q55 0 115 -18h103zM270 145q49 0 324 279l127 356q-70 43 -133 43q-86 0 -179.5 -93 t-151.5 -223t-58 -235q-1 -127 71 -127z" glyph-name="q" horiz-adv-x="907" unicode="q"/><glyph d="M813 899q86 0 86 -92q0 -68 -48 -127t-112 -59q-41 0 -49 21.5t6.5 48t17.5 48t-20 21.5q-72 0 -210 -229.5t-261 -534.5q-80 -6 -162 0l234 661q10 31 14 50.5t1 28.5t-11 9q-43 0 -184 -188l-31 35q197 307 340 307q47 0 62.5 -31.5t-5.5 -85.5l-155 -405h26 q135 276 252 399t209 123z" glyph-name="r" horiz-adv-x="847" unicode="r"/><glyph d="M666 770q0 -141 -217 -305q74 -102 73 -193q0 -127 -107.5 -209.5t-240.5 -82.5q-100 0 -150.5 47t-50.5 108q0 68 56 115l45 -8q4 -66 58 -128.5t122 -62.5q49 0 84 35t35 94q0 53 -33 112.5t-71 105.5t-70.5 108.5t-32.5 122.5q0 117 100.5 193.5t222.5 76.5 q72 0 124.5 -30.5t52.5 -98.5zM432 487q111 127 111 236q0 51 -24.5 82t-67.5 31q-47 0 -92.5 -34t-45.5 -93q0 -23 6.5 -43.5t21.5 -47t24.5 -41t35 -47.5t31.5 -43z" glyph-name="s" horiz-adv-x="667" unicode="s"/><glyph d="M500 809l-246 -659q-8 -25 12 -19q61 14 209 166q25 25 49 51l27 -37q-268 -330 -399 -329q-49 0 -72 47t-2 102l252 690l-168 10l14 50h176l82 223l182 20l-90 -243h179l-29 -82z" glyph-name="t" horiz-adv-x="641" unicode="t"/><glyph d="M115 551l-33 35q197 309 342 309q49 0 71.5 -33t2.5 -86l-174 -444q-25 -59 -36.5 -98t-13.5 -67t8.5 -40t34.5 -12q84 0 252 238.5t279 535.5h162l-240 -668q-35 -96 0 -88q47 14 176 191l31 -35q-197 -309 -340 -309q-49 0 -71.5 32.5t-2.5 83.5l158 402l-16 -2 q-166 -289 -283 -402.5t-215 -113.5q-199 0 -43 368l127 303q39 94 2 86q-53 -12 -178 -186z" glyph-name="u" unicode="u"/><glyph d="M707 881h278l-729 -901h-61l81 688q12 100 -15.5 129.5t-106.5 40.5l14 43h297l-82 -656l381 457q47 57 49 91t-27.5 46t-93.5 19z" glyph-name="v" horiz-adv-x="901" unicode="v"/><glyph d="M1245 881h279l-729 -901h-62l82 688v4l-559 -692h-61l81 688q12 100 -15.5 129.5t-106.5 40.5l14 43h297l-82 -656l381 457q43 53 49 82q-6 27 -23.5 43t-38 21.5t-59.5 9.5l15 43h297l-82 -656l381 457q47 57 49 91t-28 46t-93 19z" glyph-name="w" horiz-adv-x="1439" unicode="w"/><glyph d="M717 881h270l-12 -47q-53 -8 -86 -28t-92 -77l-262 -256l79 -332q12 -51 37 -70.5t82 -27.5l-14 -43h-395l14 47q63 8 91 29.5t15 70.5l-55 238l-250 -262q-18 -18 -25.5 -30.5t-10.5 -19.5t6.5 -13.5t14.5 -7.5t24.5 -5t23.5 -4l-12 -43h-279l15 47q59 8 94 26.5 t88 73.5l297 293l-70 295q-12 51 -34.5 72.5t-73.5 30.5l14 43h381l-14 -47q-63 -8 -90 -32t-15 -73l47 -197l213 222q12 14 20.5 24t12.5 17.5t2 14.5t-3 10t-11.5 6t-13.5 4t-17 4.5t-18 3.5z" glyph-name="x" horiz-adv-x="909" unicode="x"/><glyph d="M711 881h311l-698 -895q-12 -14 -60.5 -78t-62 -79t-53 -61.5t-61 -60.5t-57.5 -38.5t-70 -32t-73 -7.5q-70 0 -118 31t-48 86q0 41 26 65.5t69 24.5t85 -43t87 -43q51 0 100 46t152 184l43 688q6 100 -23 129.5t-108 40.5l14 43h287l-45 -697l387 500q45 57 44 90 t-35 45t-108 19z" glyph-name="y" horiz-adv-x="937" unicode="y"/><glyph d="M674 70q39 0 61.5 -26t22.5 -62q0 -68 -64.5 -109t-146.5 -41q-78 0 -157 46t-157.5 92t-156.5 46q-80 0 -148 -47l-24 33l735 739h-277q-164 0 -241 -170h-45l131 310h657l-717 -727q68 0 123.5 -29t91 -69t66.5 -81t63.5 -68.5t67.5 -27.5q16 0 25.5 7.5t10.5 19.5 t0 25.5t-3 32t-2 28.5q0 31 22.5 54.5t61.5 23.5z" glyph-name="z" horiz-adv-x="858" unicode="z"/><glyph d="M258 -326q-76 27 -118 70t-48 103.5t3 118t36 134.5l102 318q25 72 -0.5 106.5t-95.5 67.5l6 35q180 66 219 190l105 318q53 164 135 261t258 148l6 -45q-57 -23 -101 -84t-67.5 -120.5t-64.5 -184.5l-86 -266q-35 -109 -102.5 -160t-161.5 -74l-11 -14q178 -47 113 -254 l-88 -266q-70 -219 -68 -283q2 -63 50 -90z" glyph-name="braceleft" horiz-adv-x="583" unicode="{"/><glyph d="M297 -358v1681h82v-1681h-82z" glyph-name="bar" horiz-adv-x="649" unicode="|"/><glyph d="M436 1544q76 -27 118 -69.5t48 -103t-3 -118t-36 -135.5l-102 -317q-25 -72 0.5 -107t95.5 -67l-6 -35q-180 -66 -219 -191l-105 -317q-53 -164 -135 -261t-258 -149l-6 45q57 23 101 84.5t67.5 121t64.5 184.5l86 266q35 109 102.5 160t162.5 73l10 15q-178 47 -113 254 l88 266q70 219 68 282t-49 91z" glyph-name="braceright" horiz-adv-x="583" unicode="}"/><glyph d="M582 379q-45 0 -78 15.5t-52.5 36t-37 42t-43 36.5t-60.5 15q-55 0 -100 -35.5t-55 -70.5l-29 24q14 92 90 150.5t170 58.5q55 0 93 -22.5t55.5 -50t49 -50t72.5 -22.5q55 0 100.5 36t55.5 70l29 -24q-14 -92 -90 -150.5t-170 -58.5z" glyph-name="asciitilde" horiz-adv-x="919" unicode="~"/><glyph d="M356.5 932q53.5 0 91 -37t37.5 -90q0 -51 -37.5 -88t-91 -37t-91.5 37t-38 88q0 53 38 90t91.5 37zM322 539l-195 -840q-16 -72 -47 -98.5t-80 -26.5q-129 0 -72 139l348 826h46z" glyph-name="exclamdown" horiz-adv-x="475" unicode="¡"/><glyph d="M676 887q111 -41 110 -168q0 -55 -25.5 -91t-72.5 -36q-88 0 -78 135q2 18 2 49l-344 -604q43 -55 115 -55q61 0 135 40t123 105l23 -41q-61 -115 -173 -178t-210 -63q-59 0 -107 24l-74 -129h-73l94 166q-78 74 -78 215q0 145 80 295.5t210 249t261 98.5h14l94 164h74z M227 317q0 -43 9 -73l339 596h-12q-127 0 -231.5 -179.5t-104.5 -343.5z" glyph-name="cent" horiz-adv-x="792" unicode="¢"/><glyph d="M999 1305q188 0 189 -138q-14 -39 -56 -65.5t-90 -30.5q0 61 -35.5 102t-101.5 41q-162 0 -258 -292l-80 -246h326l-45 -92h-311l-9 -27q-68 -215 -229 -330q43 14 80 15q45 0 84 -19.5t67.5 -48.5t55 -57.5t57.5 -48t64 -19.5q49 0 82.5 49t33.5 109q0 35 -8 57l160 96 q25 -25 24 -69q0 -141 -134 -241.5t-273 -100.5q-63 0 -114.5 26.5t-80 59.5t-70.5 59.5t-87 26.5q-104 0 -238 -137l-45 61q152 125 241 236.5t144 281.5l6 21h-176l45 92h162l39 119q82 250 242.5 380t338.5 130z" glyph-name="sterling" horiz-adv-x="1138" unicode="£"/><glyph d="M1118 467q0 -152 -94 -268l129 -129l-66 -66l-129 129q-117 -94 -266 -94q-147 0 -262 92l-127 -127l-65 66l127 127q-94 117 -95 270q0 147 92 266l-124 123l65 68l125 -125q115 94 264.5 94t268.5 -96l126 127l66 -68l-127 -125q92 -119 92 -264zM373 467 q0 -137 94 -235.5t227 -98.5t229.5 99.5t96.5 234.5t-96.5 232.5t-229.5 97.5q-135 0 -228 -97.5t-93 -232.5z" glyph-name="currency" horiz-adv-x="1376" unicode="¤"/><glyph d="M1120 1290h373l-12 -45q-84 -14 -119 -36.5t-105 -100.5l-440 -496h227l-26 -77h-258l-37 -111h260l-27 -78h-258l-43 -133q-31 -96 -2 -125t140 -45l-11 -43h-569l12 45q106 16 154.5 47t79.5 127l41 127h-299l26 78h299l35 111h-299l27 77h258l-121 496 q-18 78 -42 101.5t-97 37.5l12 43h498l-13 -45q-41 -8 -64.5 -16t-50 -22.5t-34.5 -39t0 -59.5l117 -479l428 487q31 35 40 57.5t-6.5 36t-32 19.5t-55.5 14q-12 2 -18 4z" glyph-name="yen" horiz-adv-x="1226" unicode="¥"/><glyph d="M297 645v678h82v-678h-82zM297 -358v677h82v-677h-82z" glyph-name="brokenbar" horiz-adv-x="649" unicode="¦"/><glyph d="M807 1323q80 0 144.5 -23.5t85 -40t55.5 -49.5l-52 -186h-43q2 100 -46 169t-150 69q-96 0 -173 -58.5t-77 -148.5q0 -59 39 -103.5t131 -99.5q70 -35 117 -67.5t93 -99.5t46 -146q0 -129 -92 -224.5t-238 -136.5q102 -84 103 -201q0 -154 -134.5 -250t-324.5 -96 q-178 0 -301 111l57 199h37q-2 -109 49 -178.5t160 -69.5q106 0 185 55t79 148q0 59 -41 103t-135 103q-70 35 -117 68t-93 99.5t-46 146.5q0 129 92 224t238 136q-98 84 -99 201q0 150 133.5 248t317.5 98zM770 481q0 63 -45 108.5t-143 106.5q-27 12 -52 29 q-88 -29 -143 -93.5t-55 -146.5q0 -72 44 -119t142 -108q33 -16 47 -27q86 35 145.5 105.5t59.5 144.5z" glyph-name="section" horiz-adv-x="1040" unicode="§"/><glyph d="M401 1167q-45 0 -74.5 30t-29.5 75t29.5 74.5t74.5 29.5t75 -29.5t30 -74.5t-30 -75t-75 -30zM807 1167q-45 0 -75 30t-30 75t30 74.5t75 29.5t74.5 -29.5t29.5 -74.5t-29.5 -75t-74.5 -30z" glyph-name="dieresis" horiz-adv-x="667" unicode="¨"/><glyph d="M813 51q-248 0 -423 175t-175 423q0 246 175 421t423 175q246 0 421 -175t175 -421q0 -248 -175 -423t-421 -175zM813 104q221 0 379 161t158 384q0 221 -158 382t-379 161t-380 -161t-159 -382q0 -223 159 -384t380 -161zM838 305q-160 0 -259.5 96.5t-99.5 243.5 q0 152 100.5 250t264.5 98q133 0 211 -49l8 -141h-39q-35 147 -195 147q-106 0 -166.5 -73.5t-60.5 -198.5q0 -139 82 -227.5t205 -88.5q113 0 164 54l20 -25q-77 -86 -235 -86z" glyph-name="copyright" horiz-adv-x="1480" unicode="©"/><glyph d="M657 864q-25 -68 5 -53q33 16 108 121l21 -23q-129 -201 -216 -200q-33 0 -46 24.5t-1 61.5l47 135q-201 -221 -262 -221q-33 0 -57.5 39.5t-19.5 115.5q10 160 145 299.5t287 139.5q37 0 73 -13h64zM389 817q35 0 209 178l80 230q-45 29 -88 28q-78 0 -158 -116.5 t-88 -218.5q-8 -101 45 -101zM106 471l27 82h510l-27 -82h-510z" glyph-name="ordfeminine" horiz-adv-x="716" unicode="ª"/><glyph d="M109 449l370 282l15 -26l-252 -256l86 -256l-31 -27zM428 449l371 282l14 -26l-252 -256l86 -256l-31 -27z" glyph-name="guillemotleft" horiz-adv-x="847" unicode="«"/><glyph d="M1036 760l-151 -467h-131l108 346h-674l39 121h809z" glyph-name="logicalnot" horiz-adv-x="1054" unicode="¬"/><glyph d="M123 479v88h614v-88h-614z" glyph-name="uni00AD" horiz-adv-x="860" unicode="­"/><glyph d="M813 51q-248 0 -423 175t-175 423q0 246 175 421t423 175q246 0 421 -175t175 -421q0 -248 -175 -423t-421 -175zM813 104q221 0 379 161t158 384q0 221 -158 382t-379 161t-380 -161t-159 -382q0 -223 159 -384t380 -161zM1077 322q-98 0 -159 96l-72 112q-45 68 -74 80 v29q184 0 184 137q0 63 -41 101t-124 38q-43 0 -58.5 -11t-15.5 -36v-432q0 -33 12 -49t24.5 -19t45.5 -10v-24h-271v24q33 6 45.5 9.5t24.5 19.5t12 49v418q0 25 -4 38t-19.5 21.5t-22.5 10.5t-36 8v24h256q283 0 283 -172q0 -70 -54.5 -113.5t-129.5 -56.5 q45 -18 104 -116l31 -52q57 -90 98 -94v-24q-14 -6 -39 -6z" glyph-name="registered" horiz-adv-x="1480" unicode="®"/><glyph d="M276 1227l31 78h574l-31 -78h-574z" glyph-name="macron" horiz-adv-x="620" unicode="¯"/><glyph d="M582 768q-113 0 -192 73.5t-79 194.5q0 125 84 200t201 75q113 0 191.5 -74t78.5 -195q0 -125 -84.5 -199.5t-199.5 -74.5zM598 813q61 0 103 53.5t42 153.5q0 102 -45 174t-118 72q-61 0 -103.5 -53.5t-42.5 -153.5q0 -102 46 -174t118 -72z" glyph-name="degree" horiz-adv-x="788" unicode="°"/><glyph d="M621 782h284l-39 -120h-284l-105 -322h-119l105 322h-289l39 120h289l102 318h119zM33 2l39 121h682l-39 -121h-682z" glyph-name="plusminus" horiz-adv-x="960" unicode="±"/><glyph d="M207 805l2 31q20 14 81.5 58t100.5 72.5t86 70.5t70.5 80t23.5 71q0 25 -16 47t-51 22q-70 0 -152 -96l-10 37q82 123 209 123q55 0 85 -30.5t30 -82.5q0 -57 -43 -114.5t-85 -88t-120 -79.5t-92 -60l118 8q88 0 146 87l22 -13l-82 -143h-323z" glyph-name="uni00B2" horiz-adv-x="530" unicode="²"/><glyph d="M322 786q-43 0 -76 12.5t-33 37.5q0 20 13.5 31.5t29.5 11.5t35.5 -32t52.5 -32q59 0 109.5 52.5t50.5 111.5q0 72 -86 72q-33 0 -72 -15l-2 25l66 24q72 27 109.5 54.5t37.5 72.5q0 43 -59 43q-76 0 -136 -55l-12 17q90 96 201 96q94 0 94 -76q0 -86 -149 -147 q106 -8 106 -93q0 -80 -90 -145.5t-190 -65.5z" glyph-name="uni00B3" horiz-adv-x="507" unicode="³"/><glyph d="M274 1044l-47 33q57 184 142 303q41 0 89 -34.5t62 -73.5q-103 -70 -246 -228z" glyph-name="acute" horiz-adv-x="270" unicode="´"/><glyph d="M897 1290h719l-12 -47q-53 -10 -80 -17t-59.5 -24.5t-53 -49.5t-37.5 -81l-368 -1137q-96 -293 -428 -292h-125l20 63l465 1430q16 45 1 63.5t-77 18.5q-170 0 -306 -153t-136 -321q0 -190 221 -190q27 0 18 -37q-8 -35 -30 -35q-195 0 -311.5 84t-116.5 240 q0 147 100 260t257 169t339 56zM1186 1135q16 57 7 73.5t-48 16.5q-82 0 -119 -115l-457 -1403q92 6 143.5 69.5t90.5 180.5z" glyph-name="paragraph" horiz-adv-x="1411" unicode="¶"/><glyph d="M293 483q-53 0 -91 37t-38 90q0 51 38 88t91 37t91 -36.5t38 -88.5q0 -53 -38 -90t-91 -37z" glyph-name="periodcentered" horiz-adv-x="475" unicode="·"/><glyph d="M-160 -434l10 47q92 0 138.5 26.5t46.5 67.5q0 92 -223 92l102 201h88l-51 -100q90 0 151.5 -43t61.5 -117q0 -78 -79 -126t-245 -48z" glyph-name="cedilla" horiz-adv-x="419" unicode="¸"/><glyph d="M217 815l6 23q76 8 90 55l99 301q8 23 5 39t-18 14l-39 -6l9 23l161 67l13 -12l-140 -432q-8 -25 3.5 -35t48.5 -14l-6 -23h-232z" glyph-name="uni00B9" horiz-adv-x="419" unicode="¹"/><glyph d="M401 707q-70 0 -111.5 43t-41.5 131q0 160 114.5 289.5t249.5 129.5q154 0 154 -172q0 -158 -114 -289.5t-251 -131.5zM434 748q84 0 149.5 140t65.5 255q0 55 -19.5 87t-49.5 32q-59 0 -110.5 -75t-77 -164t-25.5 -153q0 -57 18 -89.5t49 -32.5zM111 471l26 82h510 l-26 -82h-510z" glyph-name="ordmasculine" horiz-adv-x="690" unicode="º"/><glyph d="M418 473l-371 -283l-14 27l252 256l-86 256l30 27zM737 473l-370 -283l-15 27l252 256l-86 256l31 27z" glyph-name="guillemotright" horiz-adv-x="845" unicode="»"/><glyph d="M455 838l-6 -23h-232l6 23q76 8 90 55l99 301q8 23 5 39t-18 14l-39 -6l9 23l161 67l13 -12l-140 -432q-8 -25 3.5 -35t48.5 -14zM1190 1303h51l-1223 -1313h-51zM938 504h86l-106 -328h67l-20 -41h-62l-22 -69q-8 -25 3 -33t50 -13l-6 -20h-230l9 20q43 4 58 12.5 t23 33.5l23 69h-199l6 41zM655 176h170l84 260z" glyph-name="onequarter" horiz-adv-x="1120" unicode="¼"/><glyph d="M217 815l6 23q76 8 90 55l99 301q8 23 5 39t-18 14l-39 -6l9 23l161 67l13 -12l-140 -432q-8 -25 3.5 -35t48.5 -14l-6 -23h-232zM-33 -10l1223 1313h51l-1223 -1313h-51zM600 0l2 31q20 14 81.5 58t100.5 72.5t86.5 70.5t71 80t23.5 71q0 25 -16.5 47.5t-51.5 22.5 q-70 0 -152 -97l-10 37q82 123 209 123q55 0 85 -30.5t30 -82.5q0 -57 -43 -114.5t-85 -88t-120 -79.5t-92 -60l119 9q88 0 145 86l23 -13l-82 -143h-324z" glyph-name="onehalf" horiz-adv-x="1183" unicode="½"/><glyph d="M322 786q-43 0 -76 12.5t-33 37.5q0 20 13.5 31.5t29.5 11.5t35.5 -32t52.5 -32q59 0 109.5 52.5t50.5 111.5q0 72 -86 72q-33 0 -72 -15l-2 25l66 24q72 27 109.5 54.5t37.5 72.5q0 43 -59 43q-76 0 -136 -55l-12 17q90 96 201 96q94 0 94 -76q0 -86 -149 -147 q106 -8 106 -93q0 -80 -90 -145.5t-190 -65.5zM1354 1303h51l-1223 -1313h-51zM1196 504h86l-106 -328h67l-20 -41h-62l-22 -69q-8 -25 3 -33t50 -13l-6 -20h-230l9 20q43 4 58 12.5t24 33.5l22 69h-199l7 41zM913 176h170l84 260z" glyph-name="threequarters" horiz-adv-x="1409" unicode="¾"/><glyph d="M555 932q53 0 91 -37t38 -90q0 -51 -38 -88t-91 -37t-91 37t-38 88q0 53 38 90t91 37zM510 528q2 -78 -29.5 -147.5t-85 -126.5t-109 -113.5t-110.5 -133.5t-82 -161q-68 -211 168 -211q49 0 107 82q66 92 104.5 126t75.5 34q51 0 51 -59q0 -78 -88 -139.5t-196.5 -89 t-202.5 -27.5q-150 0 -205 91t-8 230q31 94 94 169t133 124t139.5 96t126 112t76.5 144h41z" glyph-name="questiondown" horiz-adv-x="892" unicode="¿"/><glyph d="M958 1434q-143 158 -245 227q14 39 62 73.5t89 34.5q84 -119 142 -303zM1059 176q4 -70 25.5 -93.5t89.5 -39.5l-11 -43h-483l12 45q59 14 87 22.5t53.5 36t23.5 72.5l-12 225h-482l-165 -237q-23 -33 -29 -54.5t11.5 -35t28.5 -16.5t52 -15l-12 -43h-344l12 45 q78 16 112.5 37.5t84.5 89.5l805 1133h71zM403 463h439l-31 586z" glyph-name="Agrave" horiz-adv-x="1323" unicode="À"/><glyph d="M1208 1661q-102 -70 -245 -227l-48 32q57 184 142 303q41 0 89 -34.5t62 -73.5zM1059 176q4 -70 25.5 -93.5t89.5 -39.5l-11 -43h-483l12 45q59 14 87 22.5t53.5 36t23.5 72.5l-12 225h-482l-165 -237q-23 -33 -29 -54.5t11.5 -35t28.5 -16.5t52 -15l-12 -43h-344l12 45 q78 16 112.5 37.5t84.5 89.5l805 1133h71zM403 463h439l-31 586z" glyph-name="Aacute" horiz-adv-x="1323" unicode="Á"/><glyph d="M1116 1796l156 -311l-31 -25l-170 187l-291 -187l-18 25zM1059 176q4 -70 25.5 -93.5t89.5 -39.5l-11 -43h-483l12 45q59 14 87 22.5t53.5 36t23.5 72.5l-12 225h-482l-165 -237q-23 -33 -29 -54.5t11.5 -35t28.5 -16.5t52 -15l-12 -43h-344l12 45q78 16 112.5 37.5 t84.5 89.5l805 1133h71zM403 463h439l-31 586z" glyph-name="Acircumflex" horiz-adv-x="1323" unicode="Â"/><glyph d="M1356 1702l30 -25q-14 -90 -83.5 -147t-155.5 -57q-49 0 -84 22.5t-51.5 50t-45 50t-65.5 22.5q-51 0 -93 -35t-50 -67l-31 24q14 90 85 147.5t155 57.5q49 0 83.5 -22.5t50 -50t43 -50.5t64.5 -23q51 0 94.5 35t53.5 68zM1059 176q4 -70 25.5 -93.5t89.5 -39.5l-11 -43 h-483l12 45q59 14 87 22.5t53.5 36t23.5 72.5l-12 225h-482l-165 -237q-23 -33 -29 -54.5t11.5 -35t28.5 -16.5t52 -15l-12 -43h-344l12 45q78 16 112.5 37.5t84.5 89.5l805 1133h71zM403 463h439l-31 586z" glyph-name="Atilde" horiz-adv-x="1323" unicode="Ã"/><glyph d="M795 1556q-45 0 -75 30t-30 75t30 74.5t75 29.5t74.5 -29.5t29.5 -74.5t-29.5 -75t-74.5 -30zM1200 1765q45 0 75 -29.5t30 -74.5t-30 -75t-75 -30t-74.5 30t-29.5 75t29.5 74.5t74.5 29.5zM1059 176q4 -70 25.5 -93.5t89.5 -39.5l-11 -43h-483l12 45q59 14 87 22.5 t53.5 36t23.5 72.5l-12 225h-482l-165 -237q-23 -33 -29 -54.5t11.5 -35t28.5 -16.5t52 -15l-12 -43h-344l12 45q78 16 112.5 37.5t84.5 89.5l805 1133h71zM403 463h439l-31 586z" glyph-name="Adieresis" horiz-adv-x="1323" unicode="Ä"/><glyph d="M1077 1841q76 0 129.5 -52t53.5 -128t-53.5 -128t-129.5 -52t-129 52t-53 128t53 128t129 52zM1077 1565q41 0 69 27.5t28 68.5t-28 68.5t-69 27.5t-68.5 -27.5t-27.5 -68.5t27.5 -68.5t68.5 -27.5zM1059 176q4 -70 25.5 -93.5t89.5 -39.5l-11 -43h-483l12 45 q59 14 87 22.5t53.5 36t23.5 72.5l-12 225h-482l-165 -237q-23 -33 -29 -54.5t11.5 -35t28.5 -16.5t52 -15l-12 -43h-344l12 45q78 16 112.5 37.5t84.5 89.5l805 1133h71zM403 463h439l-31 586z" glyph-name="Aring" horiz-adv-x="1323" unicode="Å"/><glyph d="M1974 1290l-82 -291h-47q31 119 10.5 170.5t-118.5 51.5h-164q-104 0 -150.5 -34t-79.5 -138l-118 -363h139q156 0 215 40t102 144h41l-139 -426h-41q14 57 15.5 86t-17 51.5t-63.5 28.5t-131 6h-144l-129 -399q-16 -55 -20 -83t14 -43t44 -18t85 -3h125q106 0 186 56 t179 191h53l-183 -317h-905l13 45q61 12 92.5 23.5t65.5 48.5t55 102l59 182h-492l-239 -251q-27 -27 -38 -44.5t-5 -28.5t11 -14.5t29.5 -9.5t33.5 -10l-25 -43h-309l26 47q78 16 115 36.5t102 88.5l1004 1042q-16 16 -90 31l12 45h903zM958 471l197 606q18 61 16 90 l-661 -696h448z" glyph-name="AE" horiz-adv-x="1867" unicode="Æ"/><glyph d="M1008 1321q221 0 319 -115l-65 -268h-58q12 156 -40 234.5t-183 78.5q-172 0 -318.5 -131t-222 -314t-75.5 -359.5t85 -274.5t236 -98q205 0 342 119l21 -60q-168 -150 -445 -160l-37 -73q90 0 151.5 -43t61.5 -117q0 -78 -78.5 -126t-244.5 -48l10 47q92 0 138 26.5 t46 67.5q0 92 -223 92l90 178q-180 18 -273 134t-93 307q0 223 114.5 432t314.5 340t427 131z" glyph-name="Ccedilla" horiz-adv-x="1206" unicode="Ç"/><glyph d="M856 1434q-143 158 -246 227q14 39 62.5 73.5t89.5 34.5q84 -119 141 -303zM354 1290h903l-81 -291h-48q31 119 10.5 170.5t-118.5 51.5h-164q-104 0 -150.5 -34t-78.5 -138l-119 -363h139q156 0 215.5 40t102.5 144h41l-140 -426h-41q14 57 15.5 86t-17 51.5t-63.5 28.5 t-131 6h-144l-129 -399q-16 -55 -20 -83t14.5 -43t44 -18t84.5 -3h125q106 0 186 56t179 191h53l-182 -317h-906l13 45q61 12 93 23.5t65.5 48.5t54.5 102l278 858q16 51 18.5 82t-16 47.5t-37 23.5t-61.5 15z" glyph-name="Egrave" horiz-adv-x="1150" unicode="È"/><glyph d="M1106 1661q-102 -70 -246 -227l-47 32q57 184 141 303q41 0 89.5 -34.5t62.5 -73.5zM354 1290h903l-81 -291h-48q31 119 10.5 170.5t-118.5 51.5h-164q-104 0 -150.5 -34t-78.5 -138l-119 -363h139q156 0 215.5 40t102.5 144h41l-140 -426h-41q14 57 15.5 86t-17 51.5 t-63.5 28.5t-131 6h-144l-129 -399q-16 -55 -20 -83t14.5 -43t44 -18t84.5 -3h125q106 0 186 56t179 191h53l-182 -317h-906l13 45q61 12 93 23.5t65.5 48.5t54.5 102l278 858q16 51 18.5 82t-16 47.5t-37 23.5t-61.5 15z" glyph-name="Eacute" horiz-adv-x="1150" unicode="É"/><glyph d="M969 1647l-291 -187l-19 25l355 311l155 -311l-30 -25zM354 1290h903l-81 -291h-48q31 119 10.5 170.5t-118.5 51.5h-164q-104 0 -150.5 -34t-78.5 -138l-119 -363h139q156 0 215.5 40t102.5 144h41l-140 -426h-41q14 57 15.5 86t-17 51.5t-63.5 28.5t-131 6h-144 l-129 -399q-16 -55 -20 -83t14.5 -43t44 -18t84.5 -3h125q106 0 186 56t179 191h53l-182 -317h-906l13 45q61 12 93 23.5t65.5 48.5t54.5 102l278 858q16 51 18.5 82t-16 47.5t-37 23.5t-61.5 15z" glyph-name="Ecircumflex" horiz-adv-x="1150" unicode="Ê"/><glyph d="M692 1556q-45 0 -74.5 30t-29.5 75t29.5 74.5t74.5 29.5t75 -29.5t30 -74.5t-30 -75t-75 -30zM1098 1556q-45 0 -75 30t-30 75t30 74.5t75 29.5t74.5 -29.5t29.5 -74.5t-29.5 -75t-74.5 -30zM354 1290h903l-81 -291h-48q31 119 10.5 170.5t-118.5 51.5h-164 q-104 0 -150.5 -34t-78.5 -138l-119 -363h139q156 0 215.5 40t102.5 144h41l-140 -426h-41q14 57 15.5 86t-17 51.5t-63.5 28.5t-131 6h-144l-129 -399q-16 -55 -20 -83t14.5 -43t44 -18t84.5 -3h125q106 0 186 56t179 191h53l-182 -317h-906l13 45q61 12 93 23.5t65.5 48.5 t54.5 102l278 858q16 51 18.5 82t-16 47.5t-37 23.5t-61.5 15z" glyph-name="Edieresis" horiz-adv-x="1150" unicode="Ë"/><glyph d="M606 1434q-143 158 -246 227q14 39 62.5 73.5t89.5 34.5q84 -119 141 -303zM-63 0l12 45q88 16 132 47t75 127l278 858q16 51 18.5 82t-16 47.5t-37 23.5t-61.5 15l12 45h506l-14 -47q-47 -8 -73 -15t-55.5 -25.5t-49 -49.5t-35.5 -82l-281 -858q-12 -41 -14 -68.5t3 -44 t25.5 -29t36 -16.5t50.5 -12l-11 -43h-501z" glyph-name="Igrave" horiz-adv-x="649" unicode="Ì"/><glyph d="M610 1434l-47 32q57 184 142 303q41 0 89 -34.5t62 -73.5q-103 -69 -246 -227zM-63 0l12 45q88 16 132 47t75 127l278 858q16 51 18.5 82t-16 47.5t-37 23.5t-61.5 15l12 45h506l-14 -47q-47 -8 -73 -15t-55.5 -25.5t-49 -49.5t-35.5 -82l-281 -858q-12 -41 -14 -68.5 t3 -44t25.5 -29t36 -16.5t50.5 -12l-11 -43h-501z" glyph-name="Iacute" horiz-adv-x="649" unicode="Í"/><glyph d="M764 1796l156 -311l-31 -25l-170 187l-291 -187l-18 25zM-63 0l12 45q88 16 132 47t75 127l278 858q16 51 18.5 82t-16 47.5t-37 23.5t-61.5 15l12 45h506l-14 -47q-47 -8 -73 -15t-55.5 -25.5t-49 -49.5t-35.5 -82l-281 -858q-12 -41 -14 -68.5t3 -44t25.5 -29t36 -16.5 t50.5 -12l-11 -43h-501z" glyph-name="Icircumflex" horiz-adv-x="649" unicode="Î"/><glyph d="M442 1556q-45 0 -74.5 30t-29.5 75t29.5 74.5t74.5 29.5t75 -29.5t30 -74.5t-30 -75t-75 -30zM848 1556q-45 0 -75 30t-30 75t30 74.5t75 29.5t74.5 -29.5t29.5 -74.5t-29.5 -75t-74.5 -30zM-63 0l12 45q88 16 132 47t75 127l278 858q16 51 18.5 82t-16 47.5t-37 23.5 t-61.5 15l12 45h506l-14 -47q-47 -8 -73 -15t-55.5 -25.5t-49 -49.5t-35.5 -82l-281 -858q-12 -41 -14 -68.5t3 -44t25.5 -29t36 -16.5t50.5 -12l-11 -43h-501z" glyph-name="Idieresis" horiz-adv-x="649" unicode="Ï"/><glyph d="M909 1290q223 0 366.5 -108.5t143.5 -331.5q0 -229 -126 -426t-341 -310.5t-465 -113.5h-473l13 45q61 12 93 23.5t65.5 48.5t54.5 102l125 387l-234 -6l21 74l233 -6l131 409q16 51 18.5 82t-16 47.5t-37 23.5t-61.5 15l12 45h477zM557 70q176 0 330.5 126t242 317.5 t87.5 389.5q0 317 -347 318h-108l-180 -553l225 6l-21 -74l-225 6l-112 -348q-35 -106 -11.5 -147t119.5 -41z" glyph-name="Eth" horiz-adv-x="1413" unicode="Ð"/><glyph d="M897 1618q-51 0 -93 -35t-50 -67l-31 24q14 90 85 147.5t155 57.5q49 0 83.5 -22.5t50 -50t43 -50.5t64.5 -23q51 0 94 35t54 68l30 -25q-14 -90 -83.5 -147t-155.5 -57q-49 0 -84 22.5t-51.5 50t-45 50t-65.5 22.5zM1143 1290h401l-14 -45q-92 -16 -139.5 -48 t-77.5 -126l-348 -1071h-76l-365 1094l-288 -881q-31 -94 -4.5 -123t114.5 -47l-10 -43h-402l13 45q92 16 139 48t78 126l278 858q12 41 14.5 69t-2.5 44t-25.5 27.5t-36 16.5t-50.5 11l12 45h312l325 -971l250 758q31 94 4.5 123t-115.5 47z" glyph-name="Ntilde" horiz-adv-x="1316" unicode="Ñ"/><glyph d="M981 1434q-143 158 -246 227q14 39 62.5 73.5t89.5 34.5q84 -119 141 -303zM553 -27q-193 0 -299.5 118t-106.5 315q0 227 116 439t311.5 344t412.5 132q193 0 299.5 -117t106.5 -313q0 -170 -70 -337t-183.5 -295t-269 -207t-317.5 -79zM598 43q154 0 292 143.5t215 345 t77 388.5q0 156 -61.5 243.5t-178.5 87.5q-154 0 -292 -143t-215 -345t-77 -386q0 -158 61.5 -246t178.5 -88z" glyph-name="Ograve" horiz-adv-x="1398" unicode="Ò"/><glyph d="M985 1434l-47 32q57 184 141 303q41 0 89.5 -34.5t62.5 -73.5q-103 -69 -246 -227zM553 -27q-193 0 -299.5 118t-106.5 315q0 227 116 439t311.5 344t412.5 132q193 0 299.5 -117t106.5 -313q0 -170 -70 -337t-183.5 -295t-269 -207t-317.5 -79zM598 43q154 0 292 143.5 t215 345t77 388.5q0 156 -61.5 243.5t-178.5 87.5q-154 0 -292 -143t-215 -345t-77 -386q0 -158 61.5 -246t178.5 -88z" glyph-name="Oacute" horiz-adv-x="1398" unicode="Ó"/><glyph d="M1139 1796l155 -311l-30 -25l-170 187l-291 -187l-19 25zM553 -27q-193 0 -299.5 118t-106.5 315q0 227 116 439t311.5 344t412.5 132q193 0 299.5 -117t106.5 -313q0 -170 -70 -337t-183.5 -295t-269 -207t-317.5 -79zM598 43q154 0 292 143.5t215 345t77 388.5 q0 156 -61.5 243.5t-178.5 87.5q-154 0 -292 -143t-215 -345t-77 -386q0 -158 61.5 -246t178.5 -88z" glyph-name="Ocircumflex" horiz-adv-x="1398" unicode="Ô"/><glyph d="M1169 1473q-49 0 -83.5 22.5t-51 50t-45 50t-65.5 22.5q-51 0 -93.5 -35t-50.5 -67l-30 24q14 90 84.5 147.5t154.5 57.5q49 0 84 -22.5t50.5 -50t43 -50.5t64.5 -23q51 0 94 35t53 68l31 -25q-14 -90 -84 -147t-156 -57zM553 -27q-193 0 -299.5 118t-106.5 315 q0 227 116 439t311.5 344t412.5 132q193 0 299.5 -117t106.5 -313q0 -170 -70 -337t-183.5 -295t-269 -207t-317.5 -79zM598 43q154 0 292 143.5t215 345t77 388.5q0 156 -61.5 243.5t-178.5 87.5q-154 0 -292 -143t-215 -345t-77 -386q0 -158 61.5 -246t178.5 -88z" glyph-name="Otilde" horiz-adv-x="1398" unicode="Õ"/><glyph d="M817 1556q-45 0 -74.5 30t-29.5 75t29.5 74.5t74.5 29.5t75 -29.5t30 -74.5t-30 -75t-75 -30zM1223 1556q-45 0 -75 30t-30 75t30 74.5t75 29.5t74.5 -29.5t29.5 -74.5t-29.5 -75t-74.5 -30zM553 -27q-193 0 -299.5 118t-106.5 315q0 227 116 439t311.5 344t412.5 132 q193 0 299.5 -117t106.5 -313q0 -170 -70 -337t-183.5 -295t-269 -207t-317.5 -79zM598 43q154 0 292 143.5t215 345t77 388.5q0 156 -61.5 243.5t-178.5 87.5q-154 0 -292 -143t-215 -345t-77 -386q0 -158 61.5 -246t178.5 -88z" glyph-name="Odieresis" horiz-adv-x="1398" unicode="Ö"/><glyph d="M801 741l-283 -231l129 -227l-106 -86l-129 227l-287 -234l-51 99l282 231l-129 228l107 86l129 -228l285 234z" glyph-name="multiply" horiz-adv-x="825" unicode="×"/><glyph d="M1178 1282q104 -47 159.5 -149.5t55.5 -241.5q0 -170 -70 -337t-183.5 -295t-269 -207t-317.5 -79q-98 0 -174 31l-66 -104l-39 26l62 99q-188 106 -189 381q0 227 116 439t311.5 344t412.5 132q74 0 146 -21l77 123l39 -26zM358 377q0 -147 54 -232l665 1063 q-55 43 -135 43q-154 0 -292 -143t-215 -345t-77 -386zM598 43q154 0 292 143.5t215 345t77 388.5q0 168 -72 256l-668 -1072q62 -61 156 -61z" glyph-name="Oslash" horiz-adv-x="1398" unicode="Ø"/><glyph d="M975 1434q-143 158 -246 227q14 39 62.5 73.5t89.5 34.5q84 -119 141 -303zM559 -23q-68 0 -127 14.5t-111.5 52.5t-81 97.5t-26.5 158.5t43 226l178 551q16 51 18.5 82t-16 47.5t-37 23.5t-61.5 15l12 45h506l-14 -47q-63 -10 -95 -22.5t-63 -48t-53 -101.5l-193 -596 q-33 -100 -37 -176t13.5 -120t52.5 -70.5t69.5 -34.5t77.5 -8q135 0 261 93t198 312l197 606q12 41 14 69t-3 44t-25.5 27.5t-37 16.5t-51.5 11l13 45h401l-14 -47q-68 -12 -100.5 -23.5t-66.5 -47t-57 -101.5l-190 -586q-47 -143 -116.5 -246.5t-150.5 -158.5t-161 -79 t-166 -24z" glyph-name="Ugrave" horiz-adv-x="1353" unicode="Ù"/><glyph d="M979 1434l-47 32q57 184 141 303q41 0 89 -34.5t63 -73.5q-103 -69 -246 -227zM559 -23q-68 0 -127 14.5t-111.5 52.5t-81 97.5t-26.5 158.5t43 226l178 551q16 51 18.5 82t-16 47.5t-37 23.5t-61.5 15l12 45h506l-14 -47q-63 -10 -95 -22.5t-63 -48t-53 -101.5 l-193 -596q-33 -100 -37 -176t13.5 -120t52.5 -70.5t69.5 -34.5t77.5 -8q135 0 261 93t198 312l197 606q12 41 14 69t-3 44t-25.5 27.5t-37 16.5t-51.5 11l13 45h401l-14 -47q-68 -12 -100.5 -23.5t-66.5 -47t-57 -101.5l-190 -586q-47 -143 -116.5 -246.5t-150.5 -158.5 t-161 -79t-166 -24z" glyph-name="Uacute" horiz-adv-x="1353" unicode="Ú"/><glyph d="M1133 1796l155 -311l-31 -25l-170 187l-290 -187l-19 25zM559 -23q-68 0 -127 14.5t-111.5 52.5t-81 97.5t-26.5 158.5t43 226l178 551q16 51 18.5 82t-16 47.5t-37 23.5t-61.5 15l12 45h506l-14 -47q-63 -10 -95 -22.5t-63 -48t-53 -101.5l-193 -596q-33 -100 -37 -176 t13.5 -120t52.5 -70.5t69.5 -34.5t77.5 -8q135 0 261 93t198 312l197 606q12 41 14 69t-3 44t-25.5 27.5t-37 16.5t-51.5 11l13 45h401l-14 -47q-68 -12 -100.5 -23.5t-66.5 -47t-57 -101.5l-190 -586q-47 -143 -116.5 -246.5t-150.5 -158.5t-161 -79t-166 -24z" glyph-name="Ucircumflex" horiz-adv-x="1353" unicode="Û"/><glyph d="M811 1556q-45 0 -74.5 30t-29.5 75t29.5 74.5t74.5 29.5t74.5 -29.5t29.5 -74.5t-29.5 -75t-74.5 -30zM1216.5 1556q-45.5 0 -75 30t-29.5 75t29.5 74.5t75 29.5t75 -29.5t29.5 -74.5t-29.5 -75t-75 -30zM559 -23q-68 0 -127 14.5t-111.5 52.5t-81 97.5t-26.5 158.5 t43 226l178 551q16 51 18.5 82t-16 47.5t-37 23.5t-61.5 15l12 45h506l-14 -47q-63 -10 -95 -22.5t-63 -48t-53 -101.5l-193 -596q-33 -100 -37 -176t13.5 -120t52.5 -70.5t69.5 -34.5t77.5 -8q135 0 261 93t198 312l197 606q12 41 14 69t-3 44t-25.5 27.5t-37 16.5 t-51.5 11l13 45h401l-14 -47q-68 -12 -100.5 -23.5t-66.5 -47t-57 -101.5l-190 -586q-47 -143 -116.5 -246.5t-150.5 -158.5t-161 -79t-166 -24z" glyph-name="Udieresis" horiz-adv-x="1353" unicode="Ü"/><glyph d="M1151 1661q-102 -70 -246 -227l-47 32q57 184 141 303q41 0 89.5 -34.5t62.5 -73.5zM1120 1290h373l-12 -45q-84 -14 -119 -36.5t-105 -100.5l-493 -555l-109 -340q-31 -96 -2 -125t140 -45l-11 -43h-569l12 45q106 16 154.5 47t79.5 127l106 324l-139 565 q-18 78 -42 101.5t-97 37.5l12 43h498l-13 -45q-41 -8 -64.5 -16t-50 -22.5t-34.5 -39t0 -59.5l117 -479l428 487q31 35 40 57.5t-6.5 36t-32 19.5t-55.5 14q-12 2 -18 4z" glyph-name="Yacute" horiz-adv-x="1226" unicode="Ý"/><glyph d="M358 244l-10 -31q-12 -41 -14 -68.5t3 -44t25.5 -29t36 -16.5t50.5 -12l-11 -43h-501l12 45q88 16 132 47t75 127l278 858q16 51 18.5 82t-16 47.5t-37 23.5t-61.5 15l12 45h506l-14 -47q-47 -8 -73 -15t-55.5 -25.5t-49 -49.5t-35.5 -82l-8 -29q84 -2 148.5 -10 t129 -27.5t106.5 -52t68.5 -87t26.5 -128.5q-1 -462 -742 -493zM596 969l-213 -650q229 23 370.5 134.5t141.5 294.5q0 117 -69.5 165t-229.5 56z" glyph-name="Thorn" horiz-adv-x="1116" unicode="Þ"/><glyph d="M911 1087q0 -117 -83 -208t-220 -183l119 -188q57 -88 57 -178q0 -102 -89 -188.5t-203.5 -127.5t-210.5 -41q-133 0 -134 90q0 43 27 66t64 23q43 0 99 -48.5t79 -48.5q61 0 125.5 73t64.5 146q0 61 -37 127l-137 232q156 133 234.5 235.5t78.5 227.5q0 135 -110 135 q-88 0 -157.5 -80t-108.5 -201l-310 -950h-309l12 47q72 10 114 34.5t63 86.5l262 805q49 147 170 239.5t280 92.5q129 0 194.5 -59t65.5 -159z" glyph-name="germandbls" horiz-adv-x="911" unicode="ß"/><glyph d="M633 1024q-143 158 -246 227q14 39 62.5 74t89.5 35q84 -119 141 -303zM686 221q-33 -94 0 -86q45 10 176 191l33 -35q-199 -311 -336 -311q-51 0 -72.5 37.5t-1.5 93.5l76 215q-311 -346 -409 -346q-45 0 -83 51t-38 155q0 166 100 334t258 273.5t313 105.5 q55 0 115 -18h101zM270 145q47 0 324 277l125 358q-70 43 -131 43q-86 0 -179.5 -93t-151.5 -223t-58 -235q-1 -127 71 -127z" glyph-name="agrave" horiz-adv-x="980" unicode="à"/><glyph d="M883 1251q-102 -70 -246 -227l-47 33q57 184 141 303q41 0 89.5 -35t62.5 -74zM686 221q-33 -94 0 -86q45 10 176 191l33 -35q-199 -311 -336 -311q-51 0 -72.5 37.5t-1.5 93.5l76 215q-311 -346 -409 -346q-45 0 -83 51t-38 155q0 166 100 334t258 273.5t313 105.5 q55 0 115 -18h101zM270 145q47 0 324 277l125 358q-70 43 -131 43q-86 0 -179.5 -93t-151.5 -223t-58 -235q-1 -127 71 -127z" glyph-name="aacute" horiz-adv-x="980" unicode="á"/><glyph d="M745 1237l-290 -186l-19 24l355 311l155 -311l-31 -24zM918 881l-232 -660q-33 -94 0 -86q45 10 176 191l33 -35q-199 -311 -336 -311q-51 0 -72.5 37.5t-1.5 93.5l76 215q-311 -346 -409 -346q-45 0 -83 51t-38 155q0 166 100 334t258 273.5t313 105.5q55 0 115 -18h101 zM594 422l125 358q-70 43 -131 43q-86 0 -179.5 -93t-151.5 -223t-58 -235q0 -127 71 -127q48 1 324 277z" glyph-name="acircumflex" horiz-adv-x="980" unicode="â"/><glyph d="M1030 1292l31 -24q-14 -90 -84 -147.5t-156 -57.5q-49 0 -84 22.5t-51 50t-45 50t-66 22.5q-51 0 -93 -34.5t-50 -67.5l-31 24q14 90 85 147.5t155 57.5q49 0 84 -22.5t50.5 -50t43 -50t64.5 -22.5q51 0 94 34.5t53 67.5zM918 881l-232 -660q-33 -94 0 -86q45 10 176 191 l33 -35q-199 -311 -336 -311q-51 0 -72.5 37.5t-1.5 93.5l76 215q-311 -346 -409 -346q-45 0 -83 51t-38 155q0 166 100 334t258 273.5t313 105.5q55 0 115 -18h101zM594 422l125 358q-70 43 -131 43q-86 0 -179.5 -93t-151.5 -223t-58 -235q0 -127 71 -127q48 1 324 277z " glyph-name="atilde" horiz-adv-x="980" unicode="ã"/><glyph d="M469 1147q-45 0 -74.5 29.5t-29.5 74.5t29.5 75t74.5 30t74.5 -30t29.5 -75t-29.5 -74.5t-74.5 -29.5zM874.5 1356q45.5 0 75 -30t29.5 -75t-29.5 -74.5t-75 -29.5t-75 29.5t-29.5 74.5t29.5 75t75 30zM918 881l-232 -660q-33 -94 0 -86q45 10 176 191l33 -35 q-199 -311 -336 -311q-51 0 -72.5 37.5t-1.5 93.5l76 215q-311 -346 -409 -346q-45 0 -83 51t-38 155q0 166 100 334t258 273.5t313 105.5q55 0 115 -18h101zM594 422l125 358q-70 43 -131 43q-86 0 -179.5 -93t-151.5 -223t-58 -235q0 -127 71 -127q48 1 324 277z" glyph-name="adieresis" horiz-adv-x="980" unicode="ä"/><glyph d="M751.5 1071q-75.5 0 -129 52.5t-53.5 128t53.5 128t129 52.5t129 -52.5t53.5 -128t-53.5 -128t-129 -52.5zM752 1348q-41 0 -69 -28t-28 -69t28 -68.5t69 -27.5t68.5 27.5t27.5 68.5t-27.5 69t-68.5 28zM918 881l-232 -660q-33 -94 0 -86q45 10 176 191l33 -35 q-199 -311 -336 -311q-51 0 -72.5 37.5t-1.5 93.5l76 215q-311 -346 -409 -346q-45 0 -83 51t-38 155q0 166 100 334t258 273.5t313 105.5q55 0 115 -18h101zM594 422l125 358q-70 43 -131 43q-86 0 -179.5 -93t-151.5 -223t-58 -235q0 -127 71 -127q48 1 324 277z" glyph-name="aring" horiz-adv-x="980" unicode="å"/><glyph d="M1290 750q0 -254 -545 -373q-6 -37 -6 -70q0 -84 39 -137t109 -53q57 0 127.5 34.5t120.5 100.5l24 -37q-66 -115 -175.5 -174t-205.5 -59q-102 0 -162.5 69.5t-60.5 190.5q0 41 6 82q-305 -344 -405 -344q-49 0 -87 61t-32 180q6 160 106.5 318.5t253 259t303.5 100.5 q94 0 215 -65q111 66 213 65q84 0 123 -41.5t39 -107.5zM1053 829q-80 0 -169 -123.5t-126 -271.5q367 78 366 295q1 100 -71 100zM274 147q45 0 308 259q55 182 200 323q-33 41 -89 67.5t-103 26.5q-125 0 -252 -181t-135 -341q-4 -66 13 -110t58 -44z" glyph-name="ae" horiz-adv-x="1310" unicode="æ"/><glyph d="M594 899q94 0 143 -51t49 -129q0 -55 -25.5 -91t-72.5 -36q-88 0 -78 135q6 68 -4 90.5t-43 22.5q-127 0 -231.5 -179.5t-104.5 -343.5q0 -90 42 -145t114 -55q61 0 135 40t123 105l23 -41q-55 -104 -153.5 -165.5t-195.5 -73.5l-41 -82q90 0 151.5 -43t61.5 -117 q0 -78 -78.5 -126t-244.5 -48l10 47q92 0 138 26.5t46 67.5q0 92 -223 92l94 185q-84 18 -135 88.5t-51 183.5q0 145 80 295.5t210 249t261 98.5z" glyph-name="ccedilla" horiz-adv-x="792" unicode="ç"/><glyph d="M547 1024q-143 158 -246 227q14 39 62.5 74t89.5 35q84 -119 141 -303zM772 750q0 -254 -545 -373q-6 -37 -6 -70q0 -84 39 -137t109 -53q57 0 127.5 34.5t119.5 100.5l25 -37q-66 -115 -175.5 -174t-205.5 -59q-102 0 -162.5 69.5t-60.5 190.5q0 150 87 304t221 253.5 t265 99.5q84 0 123 -41.5t39 -107.5zM535 829q-80 0 -169.5 -123.5t-125.5 -271.5q367 78 366 295q1 100 -71 100z" glyph-name="egrave" horiz-adv-x="782" unicode="è"/><glyph d="M797 1251q-102 -70 -246 -227l-47 33q57 184 141 303q41 0 89.5 -35t62.5 -74zM610 899q84 0 123 -42t39 -107q0 -254 -545 -373q-6 -37 -6 -70q0 -84 39 -137t109 -53q57 0 127.5 34.5t119.5 100.5l25 -37q-66 -115 -175.5 -174t-205.5 -59q-102 0 -162.5 69.5 t-60.5 190.5q0 150 87 304t221 253.5t265 99.5zM240 434q367 78 366 295q0 100 -71 100q-80 0 -169 -124t-126 -271z" glyph-name="eacute" horiz-adv-x="782" unicode="é"/><glyph d="M705 1386l155 -311l-31 -24l-170 186l-290 -186l-19 24zM610 899q84 0 123 -42t39 -107q0 -254 -545 -373q-6 -37 -6 -70q0 -84 39 -137t109 -53q57 0 127.5 34.5t119.5 100.5l25 -37q-66 -115 -175.5 -174t-205.5 -59q-102 0 -162.5 69.5t-60.5 190.5q0 150 87 304 t221 253.5t265 99.5zM240 434q367 78 366 295q0 100 -71 100q-80 0 -169 -124t-126 -271z" glyph-name="ecircumflex" horiz-adv-x="782" unicode="ê"/><glyph d="M383 1147q-45 0 -74.5 29.5t-29.5 74.5t29.5 75t74.5 30t74.5 -30t29.5 -75t-29.5 -74.5t-74.5 -29.5zM788.5 1356q45.5 0 75 -30t29.5 -75t-29.5 -74.5t-75 -29.5t-75 29.5t-29.5 74.5t29.5 75t75 30zM610 899q84 0 123 -42t39 -107q0 -254 -545 -373q-6 -37 -6 -70 q0 -84 39 -137t109 -53q57 0 127.5 34.5t119.5 100.5l25 -37q-66 -115 -175.5 -174t-205.5 -59q-102 0 -162.5 69.5t-60.5 190.5q0 150 87 304t221 253.5t265 99.5zM240 434q367 78 366 295q0 100 -71 100q-80 0 -169 -124t-126 -271z" glyph-name="edieresis" horiz-adv-x="782" unicode="ë"/><glyph d="M416 1024q-143 158 -246 227q14 39 62.5 74t89.5 35q84 -119 141 -303zM449 322l32 -35q-197 -307 -336 -307q-49 0 -70.5 37.5t-0.5 93.5l213 538q39 98 2 88q-49 -12 -178 -188l-31 35q197 307 334 307q51 0 72.5 -38t0.5 -93l-215 -539q-39 -98 -2 -88q52 13 179 189z " glyph-name="igrave" horiz-adv-x="569" unicode="ì"/><glyph d="M420 1024l-47 33q57 184 141 303q41 0 89 -35t63 -74q-103 -69 -246 -227zM449 322l32 -35q-197 -307 -336 -307q-49 0 -70.5 37.5t-0.5 93.5l213 538q39 98 2 88q-49 -12 -178 -188l-31 35q197 307 334 307q51 0 72.5 -38t0.5 -93l-215 -539q-39 -98 -2 -88 q52 13 179 189z" glyph-name="iacute" horiz-adv-x="569" unicode="í"/><glyph d="M573 1386l156 -311l-31 -24l-170 186l-290 -186l-19 24zM449 322l32 -35q-197 -307 -336 -307q-49 0 -70.5 37.5t-0.5 93.5l213 538q39 98 2 88q-49 -12 -178 -188l-31 35q197 307 334 307q51 0 72.5 -38t0.5 -93l-215 -539q-39 -98 -2 -88q52 13 179 189z" glyph-name="icircumflex" horiz-adv-x="569" unicode="î"/><glyph d="M252 1147q-45 0 -75 29.5t-30 74.5t30 75t75 30t74.5 -30t29.5 -75t-29.5 -74.5t-74.5 -29.5zM657 1147q-45 0 -74.5 29.5t-29.5 74.5t29.5 75t74.5 30t75 -30t30 -75t-30 -74.5t-75 -29.5zM449 322l32 -35q-197 -307 -336 -307q-49 0 -70.5 37.5t-0.5 93.5l213 538 q39 98 2 88q-49 -12 -178 -188l-31 35q197 307 334 307q51 0 72.5 -38t0.5 -93l-215 -539q-39 -98 -2 -88q52 13 179 189z" glyph-name="idieresis" horiz-adv-x="569" unicode="ï"/><glyph d="M1171 1276l-24 -92q-203 -61 -250 -76q115 -152 115 -358q0 -297 -188.5 -532.5t-458.5 -235.5q-133 0 -215 80.5t-82 222.5q0 246 184 440.5t428 194.5q45 0 145 -19q-12 100 -51 166q-150 -49 -356 -127l24 92q197 57 297 90q-92 113 -243 129l39 54q188 -12 317 -146 q159 56 319 117zM401 51q147 0 271.5 204t124.5 394q0 92 -40 146.5t-114 54.5q-102 0 -195.5 -102.5t-144.5 -239.5t-51 -254q0 -94 37.5 -148.5t111.5 -54.5z" glyph-name="eth" unicode="ð"/><glyph d="M868 1063q-49 0 -83.5 22.5t-51 50t-45.5 50t-65 22.5q-51 0 -93.5 -34.5t-50.5 -67.5l-30 24q14 90 84.5 147.5t154.5 57.5q49 0 84 -22.5t50.5 -50t43 -50t64.5 -22.5q51 0 94 35t53 67l31 -24q-14 -90 -84 -147.5t-156 -57.5zM946 326l31 -35q-199 -311 -342 -311 q-49 0 -70.5 31.5t-1.5 84.5l174 449q25 61 36 97t14.5 65.5t-7 41t-35.5 11.5q-80 0 -245.5 -237.5t-280.5 -522.5h-162l234 653q35 96 0 88q-47 -10 -178 -188l-31 35q197 307 342 307q47 0 62.5 -32t-5.5 -85l-157 -397h26q293 514 506 514q188 0 39 -367l-125 -307 q-39 -92 -4 -86q49 13 180 191z" glyph-name="ntilde" unicode="ñ"/><glyph d="M631 1024q-143 158 -246 227q14 39 62.5 74t89.5 35q84 -119 141 -303zM276 -20q-109 0 -173 61t-64 195q0 248 189.5 455.5t412.5 207.5q109 0 172.5 -60.5t63.5 -193.5q0 -160 -87.5 -315.5t-228 -252.5t-285.5 -97zM342 41q90 0 175 111.5t133 255t48 254.5 q0 82 -32.5 129t-92.5 47q-92 0 -177 -110t-131 -250t-46 -251q0 -80 32 -133t91 -53z" glyph-name="ograve" horiz-adv-x="917" unicode="ò"/><glyph d="M635 1024l-47 33q57 184 141 303q41 0 89 -35t63 -74q-103 -69 -246 -227zM276 -20q-109 0 -173 61t-64 195q0 248 189.5 455.5t412.5 207.5q109 0 172.5 -60.5t63.5 -193.5q0 -160 -87.5 -315.5t-228 -252.5t-285.5 -97zM342 41q90 0 175 111.5t133 255t48 254.5 q0 82 -32.5 129t-92.5 47q-92 0 -177 -110t-131 -250t-46 -251q0 -80 32 -133t91 -53z" glyph-name="oacute" horiz-adv-x="917" unicode="ó"/><glyph d="M788 1386l156 -311l-31 -24l-170 186l-290 -186l-19 24zM276 -20q-109 0 -173 61t-64 195q0 248 189.5 455.5t412.5 207.5q109 0 172.5 -60.5t63.5 -193.5q0 -160 -87.5 -315.5t-228 -252.5t-285.5 -97zM342 41q90 0 175 111.5t133 255t48 254.5q0 82 -32.5 129t-92.5 47 q-92 0 -177 -110t-131 -250t-46 -251q0 -80 32 -133t91 -53z" glyph-name="ocircumflex" horiz-adv-x="917" unicode="ô"/><glyph d="M819 1063q-49 0 -84 22.5t-51 50t-45 50t-66 22.5q-51 0 -93 -34.5t-50 -67.5l-31 24q14 90 85 147.5t155 57.5q49 0 84 -22.5t50 -50t43 -50t65 -22.5q51 0 94 35t53 67l31 -24q-14 -90 -84 -147.5t-156 -57.5zM276 -20q-109 0 -173 61t-64 195q0 248 189.5 455.5 t412.5 207.5q109 0 172.5 -60.5t63.5 -193.5q0 -160 -87.5 -315.5t-228 -252.5t-285.5 -97zM342 41q90 0 175 111.5t133 255t48 254.5q0 82 -32.5 129t-92.5 47q-92 0 -177 -110t-131 -250t-46 -251q0 -80 32 -133t91 -53z" glyph-name="otilde" horiz-adv-x="917" unicode="õ"/><glyph d="M467 1147q-45 0 -75 29.5t-30 74.5t30 75t75 30t74.5 -30t29.5 -75t-29.5 -74.5t-74.5 -29.5zM872.5 1147q-45.5 0 -75 29.5t-29.5 74.5t29.5 75t75 30t75 -30t29.5 -75t-29.5 -74.5t-75 -29.5zM276 -20q-109 0 -173 61t-64 195q0 248 189.5 455.5t412.5 207.5 q109 0 172.5 -60.5t63.5 -193.5q0 -160 -87.5 -315.5t-228 -252.5t-285.5 -97zM342 41q90 0 175 111.5t133 255t48 254.5q0 82 -32.5 129t-92.5 47q-92 0 -177 -110t-131 -250t-46 -251q0 -80 32 -133t91 -53z" glyph-name="odieresis" horiz-adv-x="917" unicode="ö"/><glyph d="M549 735q-37 0 -64.5 28t-27.5 66q0 37 27.5 65t64.5 28t64.5 -28t27.5 -65q0 -39 -27.5 -66.5t-64.5 -27.5zM106 455l39 120h682l-39 -120h-682zM364.5 109q-36.5 0 -64.5 27.5t-28 66.5q0 37 28 64.5t64.5 27.5t64.5 -27.5t28 -64.5q0 -39 -28 -66.5t-64.5 -27.5z" glyph-name="divide" horiz-adv-x="886" unicode="÷"/><glyph d="M756 877q121 -51 121 -232q0 -160 -87.5 -315.5t-227.5 -252.5t-286 -97q-45 0 -75 8l-58 -90l-39 28l50 78q-115 57 -115 232q0 248 189.5 455.5t412.5 207.5q35 0 68 -6l69 113l39 -29zM219 227q0 -57 14 -94l420 672q-31 33 -80 33q-92 0 -177 -110t-131 -250 t-46 -251zM342 41q90 0 175 111.5t133 255t48 254.5q0 55 -16 98l-424 -678q35 -41 84 -41z" glyph-name="oslash" horiz-adv-x="917" unicode="ø"/><glyph d="M682 1024q-143 158 -246 227q14 39 62.5 74t89.5 35q84 -119 141 -303zM115 551l-33 35q197 309 342 309q49 0 71.5 -33t2.5 -86l-174 -444q-25 -59 -36.5 -98t-13.5 -67t8.5 -40t34.5 -12q84 0 252 238.5t279 535.5h162l-240 -668q-35 -96 0 -88q47 14 176 191l31 -35 q-197 -309 -340 -309q-49 0 -71.5 32.5t-2.5 83.5l158 402l-16 -2q-166 -289 -283 -402.5t-215 -113.5q-199 0 -43 368l127 303q39 94 2 86q-53 -12 -178 -186z" glyph-name="ugrave" unicode="ù"/><glyph d="M686 1024l-47 33q57 184 141 303q41 0 89.5 -35t62.5 -74q-103 -69 -246 -227zM115 551l-33 35q197 309 342 309q49 0 71.5 -33t2.5 -86l-174 -444q-25 -59 -36.5 -98t-13.5 -67t8.5 -40t34.5 -12q84 0 252 238.5t279 535.5h162l-240 -668q-35 -96 0 -88q47 14 176 191 l31 -35q-197 -309 -340 -309q-49 0 -71.5 32.5t-2.5 83.5l158 402l-16 -2q-166 -289 -283 -402.5t-215 -113.5q-199 0 -43 368l127 303q39 94 2 86q-53 -12 -178 -186z" glyph-name="uacute" unicode="ú"/><glyph d="M840 1386l155 -311l-30 -24l-170 186l-291 -186l-19 24zM115 551l-33 35q197 309 342 309q49 0 71.5 -33t2.5 -86l-174 -444q-25 -59 -36.5 -98t-13.5 -67t8.5 -40t34.5 -12q84 0 252 238.5t279 535.5h162l-240 -668q-35 -96 0 -88q47 14 176 191l31 -35 q-197 -309 -340 -309q-49 0 -71.5 32.5t-2.5 83.5l158 402l-16 -2q-166 -289 -283 -402.5t-215 -113.5q-199 0 -43 368l127 303q39 94 2 86q-53 -12 -178 -186z" glyph-name="ucircumflex" unicode="û"/><glyph d="M518 1147q-45 0 -74.5 29.5t-29.5 74.5t29.5 75t74.5 30t75 -30t30 -75t-30 -74.5t-75 -29.5zM924 1147q-45 0 -75 29.5t-30 74.5t30 75t75 30t74.5 -30t29.5 -75t-29.5 -74.5t-74.5 -29.5zM115 551l-33 35q197 309 342 309q49 0 71.5 -33t2.5 -86l-174 -444 q-25 -59 -36.5 -98t-13.5 -67t8.5 -40t34.5 -12q84 0 252 238.5t279 535.5h162l-240 -668q-35 -96 0 -88q47 14 176 191l31 -35q-197 -309 -340 -309q-49 0 -71.5 32.5t-2.5 83.5l158 402l-16 -2q-166 -289 -283 -402.5t-215 -113.5q-199 0 -43 368l127 303q39 94 2 86 q-53 -12 -178 -186z" glyph-name="udieresis" unicode="ü"/><glyph d="M862 1251q-102 -70 -246 -227l-47 33q57 184 142 303q41 0 89 -35t62 -74zM711 881h311l-698 -895q-12 -14 -60.5 -78t-62 -79t-53 -61.5t-61 -60.5t-57.5 -38.5t-70 -32t-73 -7.5q-70 0 -118 31t-48 86q0 41 26 65.5t69 24.5t85 -43t87 -43q51 0 100 46t152 184l43 688 q6 100 -23 129.5t-108 40.5l14 43h287l-45 -697l387 500q45 57 44 90t-35 45t-108 19z" glyph-name="yacute" horiz-adv-x="937" unicode="ý"/><glyph d="M221 -8l-63 -180q-27 -74 -1.5 -94.5t119.5 -30.5l-12 -45h-457l13 45q78 14 114.5 37.5t61.5 91.5l334 942q-102 -43 -201 -103l-18 50q133 92 249 139l99 278q29 80 -2 107.5t-135 27.5l16 54l332 47l20 -31l-151 -434q47 6 75 6q154 0 243 -67.5t89 -210.5 q0 -231 -210 -420t-515 -209zM565 813q-16 0 -57 -4l-268 -764q227 23 373.5 187.5t146.5 369.5q0 211 -195 211z" glyph-name="thorn" horiz-adv-x="989" unicode="þ"/><glyph d="M448.5 1147q-45.5 0 -75 29.5t-29.5 74.5t29.5 75t75 30t75 -30t29.5 -75t-29.5 -74.5t-75 -29.5zM854 1147q-45 0 -74.5 29.5t-29.5 74.5t29.5 75t74.5 30t74.5 -30t29.5 -75t-29.5 -74.5t-74.5 -29.5zM711 881h311l-698 -895q-12 -14 -60.5 -78t-62 -79t-53 -61.5 t-61 -60.5t-57.5 -38.5t-70 -32t-73 -7.5q-70 0 -118 31t-48 86q0 41 26 65.5t69 24.5t85 -43t87 -43q51 0 100 46t152 184l43 688q6 100 -23 129.5t-108 40.5l14 43h287l-45 -697l387 500q45 57 44 90t-35 45t-108 19z" glyph-name="ydieresis" horiz-adv-x="937" unicode="ÿ"/><glyph d="M788 1694h574l-31 -78h-573zM1059 176q4 -70 25.5 -93.5t89.5 -39.5l-11 -43h-483l12 45q59 14 87 22.5t53.5 36t23.5 72.5l-12 225h-482l-165 -237q-23 -33 -29 -54.5t11.5 -35t28.5 -16.5t52 -15l-12 -43h-344l12 45q78 16 112.5 37.5t84.5 89.5l805 1133h71zM403 463 h439l-31 586z" glyph-name="Amacron" horiz-adv-x="1323" unicode="Ā"/><glyph d="M463 1284h573l-30 -78h-574zM918 881l-232 -660q-33 -94 0 -86q45 10 176 191l33 -35q-199 -311 -336 -311q-51 0 -72.5 37.5t-1.5 93.5l76 215q-311 -346 -409 -346q-45 0 -83 51t-38 155q0 166 100 334t258 273.5t313 105.5q55 0 115 -18h101zM594 422l125 358 q-70 43 -131 43q-86 0 -179.5 -93t-151.5 -223t-58 -235q0 -127 71 -127q48 1 324 277z" glyph-name="amacron" horiz-adv-x="980" unicode="ā"/><glyph d="M1331 1792h39q-41 -135 -127 -208t-205 -73q-125 0 -169 79t-3 202h39q-14 -76 24 -110.5t128 -36.5q196 -3 274 147zM1059 176q4 -70 25.5 -93.5t89.5 -39.5l-11 -43h-483l12 45q59 14 87 22.5t53.5 36t23.5 72.5l-12 225h-482l-165 -237q-23 -33 -29 -54.5t11.5 -35 t28.5 -16.5t52 -15l-12 -43h-344l12 45q78 16 112.5 37.5t84.5 89.5l805 1133h71zM403 463h439l-31 586z" glyph-name="Abreve" horiz-adv-x="1323" unicode="Ă"/><glyph d="M1006 1382h38q-41 -135 -127 -207.5t-204 -72.5q-125 0 -169 79t-3 201h39q-14 -76 23.5 -110.5t127.5 -36.5q197 -3 275 147zM918 881l-232 -660q-33 -94 0 -86q45 10 176 191l33 -35q-199 -311 -336 -311q-51 0 -72.5 37.5t-1.5 93.5l76 215q-311 -346 -409 -346 q-45 0 -83 51t-38 155q0 166 100 334t258 273.5t313 105.5q55 0 115 -18h101zM594 422l125 358q-70 43 -131 43q-86 0 -179.5 -93t-151.5 -223t-58 -235q0 -127 71 -127q48 1 324 277z" glyph-name="abreve" horiz-adv-x="980" unicode="ă"/><glyph d="M985 0q-84 -47 -127 -94t-43 -109q0 -45 25.5 -70.5t68.5 -25.5q39 0 105 20l-15 -36q-82 -72 -188 -72q-76 0 -123 35t-47 108q0 82 61 150l154 94h-176l12 45q59 14 87 22.5t53.5 36t23.5 72.5l-12 225h-482l-165 -237q-23 -33 -29 -54.5t11.5 -35t28.5 -16.5t52 -15 l-12 -43h-344l12 45q78 16 112.5 37.5t84.5 89.5l805 1133h71l70 -1129q4 -70 25.5 -93.5t89.5 -39.5l-11 -43h-178zM403 463h439l-31 586z" glyph-name="Aogonek" horiz-adv-x="1323" unicode="Ą"/><glyph d="M698 35q-61 -45 -89.5 -69.5t-52.5 -61.5t-24 -76q0 -53 30 -84t79 -31q39 0 92 21v-37q-72 -72 -178 -72q-84 0 -138.5 42t-54.5 128q0 66 44 123l114 70q-68 31 -35 123l76 215q-311 -346 -409 -346q-45 0 -83 51t-38 155q0 166 100 334t258 273.5t313 105.5 q55 0 115 -18h101l-232 -660q-33 -94 0 -86q45 10 176 191l33 -35q-104 -164 -197 -244v-12zM270 145q47 0 324 277l125 358q-70 43 -131 43q-86 0 -179.5 -93t-151.5 -223t-58 -235q-1 -127 71 -127z" glyph-name="aogonek" horiz-adv-x="1011" unicode="ą"/><glyph d="M872 1434l-47 32q57 184 142 303q41 0 89 -34.5t62 -73.5q-103 -69 -246 -227zM584 -27q-213 0 -322.5 118t-109.5 327q0 223 114.5 432t314 340t427.5 131q221 0 319 -115l-65 -268h-58q12 156 -40 234.5t-183 78.5q-172 0 -318.5 -131t-222 -314t-75.5 -359.5 t85 -274.5t236 -98q205 0 342 119l21 -60q-78 -70 -203 -115t-262 -45z" glyph-name="Cacute" horiz-adv-x="1206" unicode="Ć"/><glyph d="M561 1024l-47 33q57 184 141 303q41 0 89.5 -35t62.5 -74q-103 -69 -246 -227zM594 899q94 0 143 -51t49 -129q0 -55 -25.5 -91t-72.5 -36q-88 0 -78 135q6 68 -4 90.5t-43 22.5q-127 0 -231.5 -179.5t-104.5 -343.5q0 -90 42 -145t114 -55q61 0 135 40t123 105l23 -41 q-61 -115 -173 -178t-210 -63q-104 0 -171 73.5t-67 202.5q0 145 80 295.5t210 249t261 98.5z" glyph-name="cacute" horiz-adv-x="792" unicode="ć"/><glyph d="M969 1501q-49 0 -86 35t-37 84t37 84t86 35t86 -35t37 -84t-37 -84t-86 -35zM584 -27q-213 0 -322.5 118t-109.5 327q0 223 114.5 432t314 340t427.5 131q221 0 319 -115l-65 -268h-58q12 156 -40 234.5t-183 78.5q-172 0 -318.5 -131t-222 -314t-75.5 -359.5t85 -274.5 t236 -98q205 0 342 119l21 -60q-78 -70 -203 -115t-262 -45z" glyph-name="Cdotaccent" horiz-adv-x="1206" unicode="Ċ"/><glyph d="M657.5 1092q-49.5 0 -86 34.5t-36.5 84t36.5 84t86 34.5t86 -34.5t36.5 -84t-36.5 -84t-86 -34.5zM594 899q94 0 143 -51t49 -129q0 -55 -25.5 -91t-72.5 -36q-88 0 -78 135q6 68 -4 90.5t-43 22.5q-127 0 -231.5 -179.5t-104.5 -343.5q0 -90 42 -145t114 -55 q61 0 135 40t123 105l23 -41q-61 -115 -173 -178t-210 -63q-104 0 -171 73.5t-67 202.5q0 145 80 295.5t210 249t261 98.5z" glyph-name="cdotaccent" horiz-adv-x="792" unicode="ċ"/><glyph d="M920 1460l-156 312l31 24l170 -186l290 186l19 -24zM584 -27q-213 0 -322.5 118t-109.5 327q0 223 114.5 432t314 340t427.5 131q221 0 319 -115l-65 -268h-58q12 156 -40 234.5t-183 78.5q-172 0 -318.5 -131t-222 -314t-75.5 -359.5t85 -274.5t236 -98q205 0 342 119 l21 -60q-78 -70 -203 -115t-262 -45z" glyph-name="Ccaron" horiz-adv-x="1206" unicode="Č"/><glyph d="M608 1051l-155 311l30 24l170 -186l291 186l19 -24zM594 899q94 0 143 -51t49 -129q0 -55 -25.5 -91t-72.5 -36q-88 0 -78 135q6 68 -4 90.5t-43 22.5q-127 0 -231.5 -179.5t-104.5 -343.5q0 -90 42 -145t114 -55q61 0 135 40t123 105l23 -41q-61 -115 -173 -178 t-210 -63q-104 0 -171 73.5t-67 202.5q0 145 80 295.5t210 249t261 98.5z" glyph-name="ccaron" horiz-adv-x="792" unicode="č"/><glyph d="M1350 1772l-355 -312l-155 312l30 24l170 -186l291 186zM829 1290q223 0 366.5 -108.5t143.5 -331.5q0 -229 -126 -426t-341 -310.5t-464 -113.5h-474l13 45q61 12 93 23.5t65.5 48.5t54.5 102l276 858q16 51 18.5 82t-16 47.5t-37 23.5t-61.5 15l12 45h477zM477 70 q176 0 331 126t242 317.5t87 389.5q0 317 -346 318h-109l-313 -963q-35 -106 -11.5 -147t119.5 -41z" glyph-name="Dcaron" horiz-adv-x="1333" unicode="Ď"/><glyph d="M1098 1327l-383 -1106q-33 -96 0 -86q47 14 176 191l31 -35q-195 -311 -340 -311q-47 0 -71 31.5t-5 84.5l96 277q-72 -80 -115 -127t-116.5 -120t-128 -109.5t-90.5 -36.5q-45 0 -83 51t-38 155q0 166 100 334t258 273.5t313 105.5q45 0 80 -8l80 231q27 80 -4 107.5 t-135 27.5l18 54l336 47zM1174 1337q33 16 85 5t68 -44q-43 -141 -158 -319l-43 25q48 231 48 333zM633 463l106 305q-80 55 -151 55q-86 0 -179.5 -93t-151.5 -223t-58 -235q0 -127 71 -127q56 1 363 318z" glyph-name="dcaron" horiz-adv-x="1110" unicode="ď"/><glyph d="M909 1290q223 0 366.5 -108.5t143.5 -331.5q0 -229 -126 -426t-341 -310.5t-465 -113.5h-473l13 45q61 12 93 23.5t65.5 48.5t54.5 102l125 387l-234 -6l21 74l233 -6l131 409q16 51 18.5 82t-16 47.5t-37 23.5t-61.5 15l12 45h477zM557 70q176 0 330.5 126t242 317.5 t87.5 389.5q0 317 -347 318h-108l-180 -553l225 6l-21 -74l-225 6l-112 -348q-35 -106 -11.5 -147t119.5 -41z" glyph-name="Dcroat" horiz-adv-x="1413" unicode="Đ"/><glyph d="M987 1006l-272 -785q-33 -96 0 -86q47 14 176 191l31 -35q-195 -311 -340 -311q-47 0 -71 31.5t-5 84.5l96 277q-72 -80 -115 -127t-116.5 -120t-128 -109.5t-90.5 -36.5q-45 0 -83 51t-38 155q0 166 100 334t258 273.5t313 105.5q45 0 80 -8l41 117q-176 0 -352 -7 l21 74q178 -6 352 -6l18 53q27 80 -4 107.5t-135 27.5l18 54l336 47l21 -31l-88 -256q47 0 137 4l-21 -74q-94 5 -139 5zM633 463l106 305q-80 55 -151 55q-86 0 -179.5 -93t-151.5 -223t-58 -235q0 -127 71 -127q56 1 363 318z" glyph-name="dcroat" horiz-adv-x="1015" unicode="đ"/><glyph d="M1260 1694l-31 -78h-574l31 78h574zM342 1245l12 45h903l-81 -291h-48q31 119 10.5 170.5t-118.5 51.5h-164q-104 0 -150.5 -34t-78.5 -138l-119 -363h139q156 0 215.5 40t102.5 144h41l-140 -426h-41q14 57 15.5 86t-17 51.5t-63.5 28.5t-131 6h-144l-129 -399 q-16 -55 -20 -83t14.5 -43t44 -18t84.5 -3h125q106 0 186 56t179 191h53l-182 -317h-906l13 45q61 12 93 23.5t65.5 48.5t54.5 102l278 858q16 51 18.5 82t-16 47.5t-37 23.5t-61.5 15z" glyph-name="Emacron" horiz-adv-x="1150" unicode="Ē"/><glyph d="M377 1284h573l-30 -78h-574zM610 899q84 0 123 -42t39 -107q0 -254 -545 -373q-6 -37 -6 -70q0 -84 39 -137t109 -53q57 0 127.5 34.5t119.5 100.5l25 -37q-66 -115 -175.5 -174t-205.5 -59q-102 0 -162.5 69.5t-60.5 190.5q0 150 87 304t221 253.5t265 99.5zM240 434 q367 78 366 295q0 100 -71 100q-80 0 -169 -124t-126 -271z" glyph-name="emacron" horiz-adv-x="782" unicode="ē"/><glyph d="M956.5 1501q-49.5 0 -86 35t-36.5 84t36.5 84t86 35t86 -35t36.5 -84t-36.5 -84t-86 -35zM354 1290h903l-81 -291h-48q31 119 10.5 170.5t-118.5 51.5h-164q-104 0 -150.5 -34t-78.5 -138l-119 -363h139q156 0 215.5 40t102.5 144h41l-140 -426h-41q14 57 15.5 86 t-17 51.5t-63.5 28.5t-131 6h-144l-129 -399q-16 -55 -20 -83t14.5 -43t44 -18t84.5 -3h125q106 0 186 56t179 191h53l-182 -317h-906l13 45q61 12 93 23.5t65.5 48.5t54.5 102l278 858q16 51 18.5 82t-16 47.5t-37 23.5t-61.5 15z" glyph-name="Edotaccent" horiz-adv-x="1150" unicode="Ė"/><glyph d="M647 1092q-49 0 -86 34.5t-37 84t37 84t86 34.5t86 -34.5t37 -84t-37 -84t-86 -34.5zM772 750q0 -254 -545 -373q-6 -37 -6 -70q0 -84 39 -137t109 -53q57 0 127.5 34.5t119.5 100.5l25 -37q-66 -115 -175.5 -174t-205.5 -59q-102 0 -162.5 69.5t-60.5 190.5 q0 150 87 304t221 253.5t265 99.5q84 0 123 -41.5t39 -107.5zM535 829q-80 0 -169.5 -123.5t-125.5 -271.5q367 78 366 295q1 100 -71 100z" glyph-name="edotaccent" horiz-adv-x="782" unicode="ė"/><glyph d="M354 1290h903l-81 -291h-48q31 119 10.5 170.5t-118.5 51.5h-164q-104 0 -150.5 -34t-78.5 -138l-119 -363h139q156 0 215.5 40t102.5 144h41l-140 -426h-41q14 57 15.5 86t-17 51.5t-63.5 28.5t-131 6h-144l-129 -399q-16 -55 -20 -83t14.5 -43t44 -18t84.5 -3h125 q106 0 186 56t179 191h53l-182 -317h-101q-84 -47 -127 -94t-43 -109q0 -45 26 -70.5t69 -25.5q39 0 104 20l-14 -36q-82 -72 -189 -72q-76 0 -123 35t-47 108q0 82 62 150l153 94h-676l13 45q61 12 93 23.5t65.5 48.5t54.5 102l278 858q16 51 18.5 82t-16 47.5t-37 23.5 t-61.5 15z" glyph-name="Eogonek" horiz-adv-x="1150" unicode="Ę"/><glyph d="M772 750q0 -254 -545 -373q-6 -37 -6 -70q0 -84 39 -137t109 -53q57 0 127.5 34.5t119.5 100.5l25 -37q-80 -141 -240 -205q-92 -49 -140 -98t-48 -115q0 -45 25.5 -70.5t68.5 -25.5q39 0 105 20l-15 -36q-82 -72 -188 -72q-76 0 -123 35t-47 108q0 82 61 150l127 78 q-90 10 -140 78.5t-50 179.5q0 150 87 304t221 253.5t265 99.5q84 0 123 -41.5t39 -107.5zM535 829q-80 0 -169.5 -123.5t-125.5 -271.5q367 78 366 295q1 100 -71 100z" glyph-name="eogonek" horiz-adv-x="782" unicode="ę"/><glyph d="M1262 1772l-355 -312l-155 312l30 24l170 -186l291 186zM342 1245l12 45h903l-81 -291h-48q31 119 10.5 170.5t-118.5 51.5h-164q-104 0 -150.5 -34t-78.5 -138l-119 -363h139q156 0 215.5 40t102.5 144h41l-140 -426h-41q14 57 15.5 86t-17 51.5t-63.5 28.5t-131 6h-144 l-129 -399q-16 -55 -20 -83t14.5 -43t44 -18t84.5 -3h125q106 0 186 56t179 191h53l-182 -317h-906l13 45q61 12 93 23.5t65.5 48.5t54.5 102l278 858q16 51 18.5 82t-16 47.5t-37 23.5t-61.5 15z" glyph-name="Ecaron" horiz-adv-x="1150" unicode="Ě"/><glyph d="M952 1362l-354 -311l-156 311l31 24l170 -186l291 186zM610 899q84 0 123 -42t39 -107q0 -254 -545 -373q-6 -37 -6 -70q0 -84 39 -137t109 -53q57 0 127.5 34.5t119.5 100.5l25 -37q-66 -115 -175.5 -174t-205.5 -59q-102 0 -162.5 69.5t-60.5 190.5q0 150 87 304 t221 253.5t265 99.5zM240 434q367 78 366 295q0 100 -71 100q-80 0 -169 -124t-126 -271z" glyph-name="ecaron" horiz-adv-x="782" unicode="ě"/><glyph d="M1047 1511q-125 0 -169 79t-4 202h39q-14 -76 24 -110.5t128 -36.5q197 -2 274 147h39q-41 -135 -126.5 -208t-204.5 -73zM627 -27q-242 0 -364 119t-118 326q4 227 129 436t334 338t443 129q238 0 331 -115q-57 -195 -73 -268h-58q43 311 -239 311q-176 0 -331 -136 t-240 -332.5t-89 -387.5q-4 -162 74 -256t225 -94q106 0 166 54.5t101 174.5l30 90q25 72 30 111t-12.5 61.5t-49 30.5t-97.5 13l15 53h507l-18 -56q-133 -18 -180 -155l-39 -117q-37 -111 -53 -237q-59 -37 -178 -65t-246 -28z" glyph-name="Gbreve" horiz-adv-x="1368" unicode="Ğ"/><glyph d="M684 1102q-125 0 -169 79t-3 201h39q-14 -76 23.5 -110.5t127.5 -36.5q197 -2 275 147h39q-41 -135 -127 -207.5t-205 -72.5zM717 862q43 -12 268 -12l-29 -115l-170 49q18 -39 19 -94q0 -150 -131 -261.5t-291 -111.5q-41 0 -82 11q-33 -12 -53.5 -33t-20.5 -35 q0 -33 58 -55l174 -74q61 -27 84.5 -37t61.5 -30.5t50.5 -37t23.5 -40t11 -54.5q0 -98 -86 -172.5t-204.5 -110.5t-243.5 -36q-158 0 -232 59.5t-69 145.5q2 37 55 87t98 78.5t129 75.5q16 10 25 15q-61 29 -88 56.5t-27 64.5q0 41 58.5 85t134.5 74q-82 55 -82 172 q0 150 129 260.5t291 110.5q82 0 139 -35zM403 362q96 0 168 123t72 248q0 119 -86 119q-94 0 -167 -127t-73 -250q0 -113 86 -113zM522 -141q0 45 -34.5 71.5t-120.5 61.5l-136 53q-90 -57 -155.5 -124.5t-67.5 -123.5q-4 -55 39 -92t148 -37q129 0 228 54.5t99 136.5z" glyph-name="gbreve" horiz-adv-x="933" unicode="ğ"/><glyph d="M1067 1501q-49 0 -86 35t-37 84t37 84t86 35t86 -35t37 -84t-37 -84t-86 -35zM627 -27q-242 0 -364 119t-118 326q4 227 129 436t334 338t443 129q238 0 331 -115q-57 -195 -73 -268h-58q43 311 -239 311q-176 0 -331 -136t-240 -332.5t-89 -387.5q-4 -162 74 -256 t225 -94q106 0 166 54.5t101 174.5l30 90q25 72 30 111t-12.5 61.5t-49 30.5t-97.5 13l15 53h507l-18 -56q-133 -18 -180 -155l-39 -117q-37 -111 -53 -237q-59 -37 -178 -65t-246 -28z" glyph-name="Gdotaccent" horiz-adv-x="1368" unicode="Ġ"/><glyph d="M704.5 1092q-49.5 0 -86 34.5t-36.5 84t36.5 84t86 34.5t86 -34.5t36.5 -84t-36.5 -84t-86 -34.5zM985 850l-29 -115l-170 49q18 -39 19 -94q0 -150 -131 -261.5t-291 -111.5q-41 0 -82 11q-33 -12 -53.5 -33t-20.5 -35q0 -33 58 -55l174 -74q61 -27 84.5 -37t61.5 -30.5 t50.5 -37t23.5 -40t11 -54.5q0 -98 -86 -172.5t-204.5 -110.5t-243.5 -36q-158 0 -232 59.5t-69 145.5q2 37 55 87t98 78.5t129 75.5q16 10 25 15q-61 29 -88 56.5t-27 64.5q0 41 58.5 85t134.5 74q-82 55 -82 172q0 150 129 260.5t291 110.5q82 0 139 -35q43 -12 268 -12z M403 362q96 0 168 123t72 248q0 119 -86 119q-94 0 -167 -127t-73 -250q0 -113 86 -113zM522 -141q0 45 -34.5 71.5t-120.5 61.5l-136 53q-90 -57 -155.5 -124.5t-67.5 -123.5q-4 -55 39 -92t148 -37q129 0 228 54.5t99 136.5z" glyph-name="gdotaccent" horiz-adv-x="933" unicode="ġ"/><glyph d="M627 -27q-242 0 -364 119t-118 326q4 227 129 436t334 338t443 129q238 0 331 -115q-57 -195 -73 -268h-58q43 311 -239 311q-176 0 -331 -136t-240 -332.5t-89 -387.5q-4 -162 74 -256t225 -94q106 0 166 54.5t101 174.5l30 90q25 72 30 111t-12.5 61.5t-49 30.5 t-97.5 13l15 53h507l-18 -56q-133 -18 -180 -155l-39 -117q-37 -111 -53 -237q-59 -37 -178 -65t-246 -28zM231 -653l-16 53q162 55 201 174q8 27 0 41t-37 33q-63 45 -64 106q0 53 40 90t95.5 37t93.5 -41t38 -112q0 -113 -97.5 -228.5t-253.5 -152.5z" glyph-name="Gcommaaccent" horiz-adv-x="1368" unicode="Ģ"/><glyph d="M600 1092q-55 0 -93 41t-38 112q0 113 97.5 228.5t252.5 152.5l17 -53q-162 -55 -201 -174q-8 -27 0 -41.5t37 -32.5q63 -45 63 -106q0 -53 -40 -90t-95 -37zM985 850l-29 -115l-170 49q18 -39 19 -94q0 -150 -131 -261.5t-291 -111.5q-41 0 -82 11q-33 -12 -53.5 -33 t-20.5 -35q0 -33 58 -55l174 -74q61 -27 84.5 -37t61.5 -30.5t50.5 -37t23.5 -40t11 -54.5q0 -98 -86 -172.5t-204.5 -110.5t-243.5 -36q-158 0 -232 59.5t-69 145.5q2 37 55 87t98 78.5t129 75.5q16 10 25 15q-61 29 -88 56.5t-27 64.5q0 41 58.5 85t134.5 74 q-82 55 -82 172q0 150 129 260.5t291 110.5q82 0 139 -35q43 -12 268 -12zM403 362q96 0 168 123t72 248q0 119 -86 119q-94 0 -167 -127t-73 -250q0 -113 86 -113zM522 -141q0 45 -34.5 71.5t-120.5 61.5l-136 53q-90 -57 -155.5 -124.5t-67.5 -123.5q-4 -55 39 -92 t148 -37q129 0 228 54.5t99 136.5z" glyph-name="gcommaaccent" horiz-adv-x="933" unicode="ģ"/><glyph d="M1114 1290h506l-14 -47q-47 -8 -73 -15t-55.5 -25.5t-49 -49.5t-35.5 -82l-281 -858q-12 -41 -14 -68.5t3 -44t25.5 -29t36 -16.5t49.5 -12l-10 -43h-502l13 45q88 16 132 47t75 127l127 391h-570l-129 -397q-12 -41 -14 -68.5t3 -44t25.5 -29t36 -16.5t50.5 -12l-11 -43 h-501l12 45q88 16 132 47t75 127l278 858q16 51 18.5 82t-16 47.5t-37 23.5t-61.5 15l12 45h506l-14 -47q-47 -8 -73 -15t-55.5 -25.5t-49 -49.5t-35.5 -82l-56 -170h568l57 176q16 51 18.5 82t-16 47.5t-37 23.5t-61.5 15zM502 680h567l49 151h-567z" glyph-name="Hbar" horiz-adv-x="1413" unicode="Ħ"/><glyph d="M866 899q158 0 148 -176q-6 -125 -90 -302t-200 -308t-202 -131q-39 0 -79 26.5t-40 75.5q0 37 23 58.5t51 21.5q35 0 51.5 -30t22.5 -59.5t16 -29.5q68 0 156 240.5t96 371.5q6 127 -63 127q-119 0 -285 -240.5t-268 -543.5h-166l344 1006q-59 0 -182 -5l20 74 q123 -4 182 -4l19 51q27 80 -3 107.5t-134 27.5l16 54l336 47l20 -31l-86 -258q152 0 305 6l-20 -74q-154 6 -305 7l-117 -351l-94 -217l14 2q133 244 266 350.5t248 106.5z" glyph-name="hbar" horiz-adv-x="1019" unicode="ħ"/><glyph d="M406 1616l30 78h574l-31 -78h-573zM-63 0l12 45q88 16 132 47t75 127l278 858q16 51 18.5 82t-16 47.5t-37 23.5t-61.5 15l12 45h506l-14 -47q-47 -8 -73 -15t-55.5 -25.5t-49 -49.5t-35.5 -82l-281 -858q-12 -41 -14 -68.5t3 -44t25.5 -29t36 -16.5t50.5 -12l-11 -43 h-501z" glyph-name="Imacron" horiz-adv-x="649" unicode="Ī"/><glyph d="M215 1206l31 78h573l-31 -78h-573zM449 322l32 -35q-197 -307 -336 -307q-49 0 -70.5 37.5t-0.5 93.5l213 538q39 98 2 88q-49 -12 -178 -188l-31 35q197 307 334 307q51 0 72.5 -38t0.5 -93l-215 -539q-39 -98 -2 -88q52 13 179 189z" glyph-name="imacron" horiz-adv-x="569" unicode="ī"/><glyph d="M350 1290h506l-14 -47q-47 -8 -73 -15t-55.5 -25.5t-49 -49.5t-35.5 -82l-281 -858q-12 -41 -14 -68.5t3 -44t25.5 -29t36 -16.5t50.5 -12l-11 -43h-174q-84 -47 -127 -94t-43 -109q0 -45 25.5 -70.5t68.5 -25.5q39 0 105 20l-14 -36q-82 -72 -189 -72q-76 0 -123 35 t-47 108q0 82 62 150l153 94h-198l12 45q88 16 132 47t75 127l278 858q16 51 18.5 82t-16 47.5t-37 23.5t-61.5 15z" glyph-name="Iogonek" horiz-adv-x="649" unicode="Į"/><glyph d="M516 1329q49 0 86 -34.5t37 -84t-37 -84t-86 -34.5t-86 34.5t-37 84t37 84t86 34.5zM414 891q51 0 72.5 -38t0.5 -93l-215 -539q-39 -98 -2 -88q51 12 179 189l32 -35q-158 -248 -280 -295q-154 -92 -154 -195q0 -45 25.5 -70.5t68.5 -25.5q39 0 105 20l-15 -36 q-82 -72 -188 -72q-76 0 -123 35t-47 108q0 82 61 150l154 94q-43 39 -14 111l213 538q39 98 2 88q-49 -12 -178 -188l-31 35q197 307 334 307z" glyph-name="iogonek" horiz-adv-x="569" unicode="į"/><glyph d="M706.5 1501q-49.5 0 -86 35t-36.5 84t36.5 84t86 35t86 -35t36.5 -84t-36.5 -84t-86 -35zM-63 0l12 45q88 16 132 47t75 127l278 858q16 51 18.5 82t-16 47.5t-37 23.5t-61.5 15l12 45h506l-14 -47q-47 -8 -73 -15t-55.5 -25.5t-49 -49.5t-35.5 -82l-281 -858 q-12 -41 -14 -68.5t3 -44t25.5 -29t36 -16.5t50.5 -12l-11 -43h-501z" glyph-name="Idotaccent" horiz-adv-x="649" unicode="İ"/><glyph d="M449 322l32 -35q-197 -307 -336 -307q-49 0 -70.5 37.5t-0.5 93.5l213 538q39 98 2 88q-49 -12 -178 -188l-31 35q197 307 334 307q51 0 72.5 -38t0.5 -93l-215 -539q-39 -98 -2 -88q52 13 179 189z" glyph-name="dotlessi" horiz-adv-x="569" unicode="ı"/><glyph d="M-63 0l12 45q88 16 132 47t75 127l278 858q16 51 18.5 82t-16 47.5t-37 23.5t-61.5 15l12 45h506l-14 -47q-47 -8 -73 -15t-55.5 -25.5t-49 -49.5t-35.5 -82l-281 -858q-12 -41 -14 -68.5t3 -44t25.5 -29t36 -16.5t50.5 -12l-11 -43h-501zM412 -371l18 62 q139 41 197.5 109.5t111.5 232.5l338 1044q16 51 18.5 81t-17 47.5t-40 23.5t-69.5 16l12 45h528l-14 -47q-51 -10 -77.5 -17t-58.5 -24.5t-51.5 -49.5t-35.5 -81l-350 -1083q-102 -318 -510 -359z" glyph-name="IJ" horiz-adv-x="1292" unicode="Ĳ"/><glyph d="M504 1145q-47 0 -82 32.5t-35 79.5q0 45 35 79t82 34t82 -33.5t35 -79.5q0 -47 -35 -79.5t-82 -32.5zM1124 1145q-47 0 -81.5 32.5t-34.5 79.5q0 45 34.5 79t81.5 34t82 -33.5t35 -79.5q0 -47 -35 -79.5t-82 -32.5zM451 322l32 -35q-197 -307 -333 -307q-53 0 -78 37.5 t-2 93.5l219 538q39 96 2 88q-49 -10 -180 -188l-31 35q197 307 336 307q55 0 78.5 -38t1.5 -93l-222 -539q-41 -98 -2 -88q52 13 179 189zM1032 891q51 0 71.5 -38t2.5 -93l-195 -604q-84 -256 -185 -385t-253 -129q-94 0 -143 44t-49 109q0 51 29.5 80t70.5 29 q47 0 67.5 -38t8 -103.5t47.5 -65.5q61 0 96 61.5t94 241.5l211 649q35 111 -10 86q-47 -25 -166 -186l-31 35q197 307 334 307z" glyph-name="ij" horiz-adv-x="1124" unicode="ĳ"/><glyph d="M1475 1243q-86 0 -143.5 -26.5t-125.5 -81.5l-440 -355l281 -635q23 -49 59.5 -73.5t112.5 -26.5l-13 -45h-364q25 80 -15 172l-211 487l-165 -133l-103 -313q-12 -41 -14 -68.5t3 -44t25.5 -29t36 -16.5t50.5 -12l-11 -43h-501l12 45q88 16 132 47t75 127l278 858 q16 51 18.5 82t-16 47.5t-37 23.5t-61.5 15l12 45h506l-14 -47q-47 -8 -73 -15t-55.5 -25.5t-49 -49.5t-35.5 -82l-140 -426l627 502q55 45 42 70.5t-89 27.5l12 45h410zM471 -119q55 0 93 -41t38 -112q0 -113 -97 -228.5t-253 -152.5l-16 53q162 55 200 174q8 27 0 41 t-37 33q-63 45 -63 106q0 53 40 90t95 37z" glyph-name="Kcommaaccent" horiz-adv-x="1355" unicode="Ķ"/><glyph d="M35 0l383 1122q27 80 -3 107.5t-134 27.5l16 54l336 47l20 -31l-452 -1327h-166zM1069 836q-135 -12 -328 -156l-168 -125l121 -393q14 -47 43 -65.5t64 -7.5t73 46l11 -43q-113 -113 -199 -112q-113 0 -158 151l-110 385l250 178q57 41 77.5 71t3 48t-72.5 23l16 45h395 zM82 -653l-16 53q162 55 200 174q8 27 0 41t-37 33q-63 45 -63 106q0 53 40 90t95 37t93 -41t38 -112q0 -113 -97 -228.5t-253 -152.5z" glyph-name="kcommaaccent" horiz-adv-x="1015" unicode="ķ"/><glyph d="M606 1434l-47 32q57 184 141 303q41 0 89.5 -34.5t62.5 -73.5q-103 -69 -246 -227zM-66 0l13 45q61 12 93 23.5t65.5 48.5t54.5 102l276 858q16 51 18.5 82t-16 47.5t-37 23.5t-61.5 15l12 45h529l-15 -47q-68 -12 -101.5 -22.5t-72.5 -47t-59 -102.5l-277 -854 q-29 -98 -5 -122.5t128 -24.5h131q106 0 187.5 58t179.5 204l49 -13l-180 -319h-912z" glyph-name="Lacute" horiz-adv-x="1103" unicode="Ĺ"/><glyph d="M514 1434l-47 32q57 184 141 303q41 0 89 -34.5t63 -73.5q-103 -69 -246 -227zM270 221q-33 -96 0 -86q47 14 176 191l31 -35q-195 -311 -340 -311q-47 0 -70.5 31.5t-5.5 84.5l357 1026q27 80 -4 107.5t-135 27.5l18 54l336 47l20 -31z" glyph-name="lacute" horiz-adv-x="552" unicode="ĺ"/><glyph d="M-66 0l13 45q61 12 93 23.5t65.5 48.5t54.5 102l276 858q16 51 18.5 82t-16 47.5t-37 23.5t-61.5 15l12 45h529l-15 -47q-68 -12 -101.5 -22.5t-72.5 -47t-59 -102.5l-277 -854q-29 -98 -5 -122.5t128 -24.5h131q106 0 187.5 58t179.5 204l49 -13l-180 -319h-912z M135 -653l-16 53q162 55 200 174q8 27 0 41t-36 33q-63 45 -64 106q0 53 40 90t95.5 37t93 -41t37.5 -112q0 -113 -97 -228.5t-253 -152.5z" glyph-name="Lcommaaccent" horiz-adv-x="1103" unicode="Ļ"/><glyph d="M270 221q-33 -96 0 -86q47 14 176 191l31 -35q-195 -311 -340 -311q-47 0 -70.5 31.5t-5.5 84.5l357 1026q27 80 -4 107.5t-135 27.5l18 54l336 47l20 -31zM-150 -653l-16 53q162 55 201 174q8 27 0 41t-37 33q-63 45 -64 106q0 53 40 90t95.5 37t93.5 -41t38 -112 q0 -113 -97.5 -228.5t-253.5 -152.5z" glyph-name="lcommaaccent" horiz-adv-x="552" unicode="ļ"/><glyph d="M866 774l-16 53q162 55 201 174q8 27 -0.5 41.5t-36.5 32.5q-63 45 -64 107q0 53 40 90t95.5 37t93.5 -41t38 -113q0 -113 -97.5 -228.5t-253.5 -152.5zM-66 0l13 45q61 12 93 23.5t65.5 48.5t54.5 102l276 858q16 51 18.5 82t-16 47.5t-37 23.5t-61.5 15l12 45h529 l-15 -47q-68 -12 -101.5 -22.5t-72.5 -47t-59 -102.5l-277 -854q-29 -98 -5 -122.5t128 -24.5h131q106 0 187.5 58t179.5 204l49 -13l-180 -319h-912z" glyph-name="Lcaron" horiz-adv-x="1103" unicode="Ľ"/><glyph d="M707 999l-45 25q49 223 49 334q31 16 84 5t69 -44q-42 -142 -157 -320zM270 221q-33 -96 0 -86q47 14 176 191l31 -35q-195 -311 -340 -311q-47 0 -70.5 31.5t-5.5 84.5l357 1026q27 80 -4 107.5t-135 27.5l18 54l336 47l20 -31z" glyph-name="lcaron" horiz-adv-x="600" unicode="ľ"/><glyph d="M-66 0l13 45q61 12 93 23.5t65.5 48.5t54.5 102l276 858q16 51 18.5 82t-16 47.5t-37 23.5t-61.5 15l12 45h529l-15 -47q-68 -12 -101.5 -22.5t-72.5 -47t-59 -102.5l-277 -854q-29 -98 -5 -122.5t128 -24.5h131q106 0 187.5 58t179.5 204l49 -13l-180 -319h-912z M784.5 510q-53.5 0 -91.5 37t-38 90q0 51 38 88t91.5 37t91 -37t37.5 -88q0 -53 -37.5 -90t-91 -37z" glyph-name="Ldot" horiz-adv-x="1103" unicode="Ŀ"/><glyph d="M270 221q-33 -96 0 -86q47 14 176 191l31 -35q-195 -311 -340 -311q-47 0 -70.5 31.5t-5.5 84.5l357 1026q27 80 -4 107.5t-135 27.5l18 54l336 47l20 -31zM690 565q-53 0 -91 37t-38 90q0 51 38 88t91 37t91 -37t38 -88q0 -53 -38 -90t-91 -37z" glyph-name="ldot" horiz-adv-x="720" unicode="ŀ"/><glyph d="M1067 332l49 -13l-180 -319h-911l12 45q61 12 93 23.5t65.5 48.5t54.5 102l139 434q-139 -49 -248 -92v84q104 29 273 82l112 350q16 51 18.5 82t-16 47.5t-37 23.5t-61.5 15l12 45h529l-15 -47q-68 -12 -101.5 -22.5t-72.5 -47t-59 -102.5l-86 -268q121 43 225 86v-84 q-141 -41 -250 -76l-166 -512q-29 -98 -5 -122.5t128 -24.5h131q106 0 187.5 58.5t179.5 203.5z" glyph-name="Lslash" horiz-adv-x="1193" unicode="Ł"/><glyph d="M653 1327l-192 -557q16 6 119 49v-80q-82 -25 -146 -45l-164 -473q-33 -96 0 -86q47 14 176 191l31 -35q-195 -311 -340 -311q-47 0 -70.5 31.5t-5.5 84.5l185 533q-53 -20 -160 -66v80q123 37 186 57l146 422q27 80 -4 107.5t-135 27.5l18 54l336 47z" glyph-name="lslash" horiz-adv-x="552" unicode="ł"/><glyph d="M1204 1661q-102 -70 -246 -227l-47 32q57 184 142 303q41 0 89 -34.5t62 -73.5zM1143 1290h401l-14 -45q-92 -16 -139.5 -48t-77.5 -126l-348 -1071h-76l-365 1094l-288 -881q-31 -94 -4.5 -123t114.5 -47l-10 -43h-402l13 45q92 16 139 48t78 126l278 858q12 41 14.5 69 t-2.5 44t-25.5 27.5t-36 16.5t-50.5 11l12 45h312l325 -971l250 758q31 94 4.5 123t-115.5 47z" glyph-name="Nacute" horiz-adv-x="1316" unicode="Ń"/><glyph d="M684 1024l-47 33q57 184 141 303q41 0 89 -35t63 -74q-103 -69 -246 -227zM946 326l31 -35q-199 -311 -342 -311q-49 0 -70.5 31.5t-1.5 84.5l174 449q25 61 36 97t14.5 65.5t-7 41t-35.5 11.5q-80 0 -245.5 -237.5t-280.5 -522.5h-162l234 653q35 96 0 88 q-47 -10 -178 -188l-31 35q197 307 342 307q47 0 62.5 -32t-5.5 -85l-157 -397h26q293 514 506 514q188 0 39 -367l-125 -307q-39 -92 -4 -86q49 13 180 191z" glyph-name="nacute" unicode="ń"/><glyph d="M1143 1290h401l-14 -45q-92 -16 -139.5 -48t-77.5 -126l-348 -1071h-76l-365 1094l-288 -881q-31 -94 -4.5 -123t114.5 -47l-10 -43h-402l13 45q92 16 139 48t78 126l278 858q12 41 14.5 69t-2.5 44t-25.5 27.5t-36 16.5t-50.5 11l12 45h312l325 -971l250 758 q31 94 4.5 123t-115.5 47zM461 -119q55 0 93 -41t38 -112q0 -113 -97.5 -228.5t-252.5 -152.5l-17 53q162 55 201 174q8 27 0 41t-37 33q-63 45 -63 106q0 53 40 90t95 37z" glyph-name="Ncommaaccent" horiz-adv-x="1316" unicode="Ņ"/><glyph d="M946 326l31 -35q-199 -311 -342 -311q-49 0 -70.5 31.5t-1.5 84.5l174 449q25 61 36 97t14.5 65.5t-7 41t-35.5 11.5q-80 0 -245.5 -237.5t-280.5 -522.5h-162l234 653q35 96 0 88q-47 -10 -178 -188l-31 35q197 307 342 307q47 0 62.5 -32t-5.5 -85l-157 -397h26 q293 514 506 514q188 0 39 -367l-125 -307q-39 -92 -4 -86q49 13 180 191zM100 -653l-16 53q162 55 201 174q8 27 -0.5 41t-36.5 33q-63 45 -64 106q0 53 40 90t95.5 37t93.5 -41t38 -112q0 -113 -97.5 -228.5t-253.5 -152.5z" glyph-name="ncommaaccent" unicode="ņ"/><glyph d="M1360 1772l-354 -312l-156 312l31 24l170 -186l290 186zM1143 1290h401l-14 -45q-92 -16 -139.5 -48t-77.5 -126l-348 -1071h-76l-365 1094l-288 -881q-31 -94 -4.5 -123t114.5 -47l-10 -43h-402l13 45q92 16 139 48t78 126l278 858q12 41 14.5 69t-2.5 44t-25.5 27.5 t-36 16.5t-50.5 11l12 45h312l325 -971l250 758q31 94 4.5 123t-115.5 47z" glyph-name="Ncaron" horiz-adv-x="1316" unicode="Ň"/><glyph d="M731 1051l-156 311l31 24l170 -186l291 186l18 -24zM946 326l31 -35q-199 -311 -342 -311q-49 0 -70.5 31.5t-1.5 84.5l174 449q25 61 36 97t14.5 65.5t-7 41t-35.5 11.5q-80 0 -245.5 -237.5t-280.5 -522.5h-162l234 653q35 96 0 88q-47 -10 -178 -188l-31 35 q197 307 342 307q47 0 62.5 -32t-5.5 -85l-157 -397h26q293 514 506 514q188 0 39 -367l-125 -307q-39 -92 -4 -86q49 13 180 191z" glyph-name="ncaron" unicode="ň"/><glyph d="M1143 1290h401l-14 -45q-92 -16 -139.5 -48t-77.5 -126l-271 -831h2l-81 -252q-31 -92 -84.5 -160t-126 -106.5t-140 -59t-153.5 -33.5q-8 31 12 62q139 41 197.5 109.5t111.5 232.5l49 147l-305 914l-288 -881q-31 -94 -4.5 -123t114.5 -47l-10 -43h-402l13 45 q92 16 139 48t78 126l278 858q12 41 14.5 69t-2.5 44t-25.5 27.5t-36 16.5t-50.5 11l12 45h312l325 -971l250 758q31 94 4.5 123t-115.5 47z" glyph-name="Eng" horiz-adv-x="1316" unicode="Ŋ"/><glyph d="M856 895q53 0 81 -26.5t27 -79t-15.5 -114t-45.5 -147.5l-131 -372q-96 -268 -188 -391t-236 -123q-104 0 -154.5 44t-50.5 109q0 51 30 80t71 29q47 0 67.5 -38t8 -103.5t47 -65.5t92.5 58.5t98 244.5l188 545q23 61 33 98t12.5 65.5t-9 40t-36.5 11.5 q-80 0 -245.5 -237.5t-280.5 -522.5h-162l234 653q35 96 0 88q-47 -10 -178 -188l-31 35q197 307 342 307q47 0 62.5 -32t-5.5 -85l-157 -397h26q293 514 506 514z" glyph-name="eng" horiz-adv-x="995" unicode="ŋ"/><glyph d="M780 1616l31 78h573l-30 -78h-574zM553 -27q-193 0 -299.5 118t-106.5 315q0 227 116 439t311.5 344t412.5 132q193 0 299.5 -117t106.5 -313q0 -170 -70 -337t-183.5 -295t-269 -207t-317.5 -79zM598 43q154 0 292 143.5t215 345t77 388.5q0 156 -61.5 243.5 t-178.5 87.5q-154 0 -292 -143t-215 -345t-77 -386q0 -158 61.5 -246t178.5 -88z" glyph-name="Omacron" horiz-adv-x="1398" unicode="Ō"/><glyph d="M430 1206l31 78h573l-30 -78h-574zM276 -20q-109 0 -173 61t-64 195q0 248 189.5 455.5t412.5 207.5q109 0 172.5 -60.5t63.5 -193.5q0 -160 -87.5 -315.5t-228 -252.5t-285.5 -97zM342 41q90 0 175 111.5t133 255t48 254.5q0 82 -32.5 129t-92.5 47q-92 0 -177 -110 t-131 -250t-46 -251q0 -80 32 -133t91 -53z" glyph-name="omacron" horiz-adv-x="917" unicode="ō"/><glyph d="M858 1434l-47 32q57 184 141 303q41 0 89.5 -34.5t62.5 -73.5q-103 -69 -246 -227zM1180 1434l-47 32q57 184 141 303q41 0 89 -34.5t62 -73.5q-102 -69 -245 -227zM553 -27q-193 0 -299.5 118t-106.5 315q0 227 116 439t311.5 344t412.5 132q193 0 299.5 -117 t106.5 -313q0 -170 -70 -337t-183.5 -295t-269 -207t-317.5 -79zM598 43q154 0 292 143.5t215 345t77 388.5q0 156 -61.5 243.5t-178.5 87.5q-154 0 -292 -143t-215 -345t-77 -386q0 -158 61.5 -246t178.5 -88z" glyph-name="Ohungarumlaut" horiz-adv-x="1398" unicode="Ő"/><glyph d="M508 1024l-47 33q57 184 141 303q41 0 89 -35t63 -74q-103 -69 -246 -227zM829 1024l-47 33q57 184 142 303q41 0 89 -35t62 -74q-103 -69 -246 -227zM276 -20q-109 0 -173 61t-64 195q0 248 189.5 455.5t412.5 207.5q109 0 172.5 -60.5t63.5 -193.5q0 -160 -87.5 -315.5 t-228 -252.5t-285.5 -97zM342 41q90 0 175 111.5t133 255t48 254.5q0 82 -32.5 129t-92.5 47q-92 0 -177 -110t-131 -250t-46 -251q0 -80 32 -133t91 -53z" glyph-name="ohungarumlaut" horiz-adv-x="917" unicode="ő"/><glyph d="M1161 1290h903l-82 -291h-47q31 119 10.5 170.5t-118.5 51.5h-164q-104 0 -150.5 -34t-78.5 -138l-119 -363h139q156 0 215.5 40t102.5 144h40l-139 -426h-41q14 57 15.5 86t-17 51.5t-63.5 28.5t-131 6h-144l-129 -399q-16 -55 -20 -83t14.5 -43t44 -18t84.5 -3h125 q106 0 186 56t179 191h53l-182 -317h-889q-94 -25 -201 -25q-195 0 -303.5 118t-108.5 313q0 164 71 330.5t185.5 294.5t271 209t318.5 81q96 0 170 -31zM999 317l203 625l-8 -6q18 135 -48.5 223t-199.5 88q-158 0 -298 -146.5t-217 -347t-77 -378.5q0 -154 65.5 -240 t182.5 -86q102 0 206.5 71.5t190.5 196.5z" glyph-name="OE" horiz-adv-x="1957" unicode="Œ"/><glyph d="M1378 752q0 -254 -544 -373q-6 -37 -7 -70q0 -84 39 -137t109 -53q57 0 128 34.5t120 100.5l24 -37q-66 -115 -175 -174t-206 -59q-82 0 -137 45t-76 125q-180 -174 -377 -174q-109 0 -173 61t-64 195q0 248 189.5 455.5t412.5 207.5q190 0 227 -170q176 172 349 172 q84 0 122.5 -41.5t38.5 -107.5zM342 41q90 0 175 111.5t133 255t48 254.5q0 82 -32.5 129t-92.5 47q-92 0 -177 -110t-131 -250t-46 -251q0 -80 32 -133t91 -53zM1141 831q-80 0 -169 -123.5t-126 -271.5q367 78 366 295q1 100 -71 100z" glyph-name="oe" horiz-adv-x="1388" unicode="œ"/><glyph d="M1100 1661q-102 -70 -246 -227l-47 32q57 184 141 303q41 0 89.5 -34.5t62.5 -73.5zM1239 1018q0 -182 -138 -295t-366 -145q113 -31 142 -160l47 -193q55 -217 198 -174l-14 -57q-53 -27 -135 -27q-106 0 -158.5 52.5t-81.5 164.5l-57 234q-20 84 -66.5 114.5 t-138.5 34.5l-115 -354q-16 -51 -17 -82t18.5 -48t41 -23.5t70.5 -16.5l-10 -43h-525l13 45q61 12 93 23.5t65.5 48.5t54.5 102l276 858q16 51 18.5 82t-16 47.5t-37 23.5t-61.5 15l12 45h477q410 0 410 -272zM606 639q186 0 310 121t124 282q0 178 -215 179 q-143 0 -180 -111l-151 -471h112z" glyph-name="Racute" horiz-adv-x="1259" unicode="Ŕ"/><glyph d="M573 1024l-47 33q57 184 142 303q41 0 89 -35t62 -74q-103 -69 -246 -227zM813 899q86 0 86 -92q0 -68 -48 -127t-112 -59q-41 0 -49 21.5t6.5 48t17.5 48t-20 21.5q-72 0 -210 -229.5t-261 -534.5q-80 -6 -162 0l234 661q10 31 14 50.5t1 28.5t-11 9q-43 0 -184 -188 l-31 35q197 307 340 307q47 0 62.5 -31.5t-5.5 -85.5l-155 -405h26q135 276 252 399t209 123z" glyph-name="racute" horiz-adv-x="847" unicode="ŕ"/><glyph d="M1239 1018q0 -182 -138 -295t-366 -145q113 -31 142 -160l47 -193q55 -217 198 -174l-14 -57q-53 -27 -135 -27q-106 0 -158.5 52.5t-81.5 164.5l-57 234q-20 84 -66.5 114.5t-138.5 34.5l-115 -354q-16 -51 -17 -82t18.5 -48t41 -23.5t70.5 -16.5l-10 -43h-525l13 45 q61 12 93 23.5t65.5 48.5t54.5 102l276 858q16 51 18.5 82t-16 47.5t-37 23.5t-61.5 15l12 45h477q410 0 410 -272zM606 639q186 0 310 121t124 282q0 178 -215 179q-143 0 -180 -111l-151 -471h112zM417.5 -119q55.5 0 93.5 -41t38 -112q0 -113 -97.5 -228.5t-252.5 -152.5 l-17 53q162 55 201 174q8 27 0 41t-37 33q-63 45 -63 106q0 53 39.5 90t95 37z" glyph-name="Rcommaaccent" horiz-adv-x="1259" unicode="Ŗ"/><glyph d="M813 899q86 0 86 -92q0 -68 -48 -127t-112 -59q-41 0 -49 21.5t6.5 48t17.5 48t-20 21.5q-72 0 -210 -229.5t-261 -534.5q-80 -6 -162 0l234 661q10 31 14 50.5t1 28.5t-11 9q-43 0 -184 -188l-31 35q197 307 340 307q47 0 62.5 -31.5t-5.5 -85.5l-155 -405h26 q135 276 252 399t209 123zM-143 -653l-17 53q162 55 201 174q8 27 0 41t-37 33q-63 45 -63 106q0 53 39.5 90t95 37t93.5 -41t38 -112q0 -113 -97 -228.5t-253 -152.5z" glyph-name="rcommaaccent" horiz-adv-x="847" unicode="ŗ"/><glyph d="M1255 1772l-354 -312l-156 312l31 24l170 -186l291 186zM829 1290q410 0 410 -272q0 -182 -138 -295t-366 -145q113 -31 142 -160l47 -193q55 -217 198 -174l-14 -57q-53 -27 -135 -27q-106 0 -158.5 52.5t-81.5 164.5l-57 234q-20 84 -66.5 114.5t-138.5 34.5l-115 -354 q-16 -51 -17 -82t18.5 -48t41 -23.5t70.5 -16.5l-10 -43h-525l13 45q61 12 93 23.5t65.5 48.5t54.5 102l276 858q16 51 18.5 82t-16 47.5t-37 23.5t-61.5 15l12 45h477zM606 639q186 0 310 121t124 282q0 178 -215 179q-143 0 -180 -111l-151 -471h112z" glyph-name="Rcaron" horiz-adv-x="1259" unicode="Ř"/><glyph d="M621 1051l-156 311l31 24l170 -186l290 186l19 -24zM813 899q86 0 86 -92q0 -68 -48 -127t-112 -59q-41 0 -49 21.5t6.5 48t17.5 48t-20 21.5q-72 0 -210 -229.5t-261 -534.5q-80 -6 -162 0l234 661q10 31 14 50.5t1 28.5t-11 9q-43 0 -184 -188l-31 35q197 307 340 307 q47 0 62.5 -31.5t-5.5 -85.5l-155 -405h26q135 276 252 399t209 123z" glyph-name="rcaron" horiz-adv-x="847" unicode="ř"/><glyph d="M788 1434l-47 32q57 184 142 303q41 0 89 -34.5t62 -73.5q-103 -69 -246 -227zM367 -23q-211 0 -340 136l65 256h43q-16 -150 46.5 -236t187.5 -86q135 0 230 87t95 208q0 82 -46 143.5t-134 132.5q-53 43 -76.5 63.5t-62.5 63.5t-55.5 91.5t-16.5 105.5q0 164 135 271.5 t332 107.5q207 0 311 -123l-75 -258h-41q18 143 -31 227t-168 84q-115 0 -193.5 -71.5t-78.5 -171.5q0 -119 163 -250q45 -37 61.5 -49.5t59.5 -55.5t62.5 -74.5t38 -83t18.5 -102.5q0 -174 -156.5 -295t-373.5 -121z" glyph-name="Sacute" horiz-adv-x="1007" unicode="Ś"/><glyph d="M729 1251q-102 -70 -246 -227l-47 33q57 184 142 303q41 0 89 -35t62 -74zM489 899q72 0 124.5 -30.5t52.5 -98.5q0 -141 -217 -305q74 -102 73 -193q0 -127 -107.5 -209.5t-240.5 -82.5q-100 0 -150.5 47t-50.5 108q0 68 56 115l45 -8q4 -66 58 -128.5t122 -62.5 q49 0 84 35t35 94q0 53 -33 112.5t-71 105.5t-70.5 108.5t-32.5 122.5q0 117 100 193.5t223 76.5zM432 487q111 127 111 236q0 51 -24.5 82t-67.5 31q-47 0 -92.5 -34t-45.5 -93q0 -23 6.5 -43.5t21.5 -47t24.5 -41t35 -47.5t31.5 -43z" glyph-name="sacute" horiz-adv-x="667" unicode="ś"/><glyph d="M770 1321q207 0 311 -123l-75 -258h-41q18 143 -31 227t-168 84q-115 0 -193.5 -71.5t-78.5 -171.5q0 -119 163 -250q45 -37 61.5 -49.5t59.5 -55.5t62.5 -74.5t38 -83t18.5 -102.5q0 -166 -142.5 -283.5t-344.5 -129.5l-41 -80q90 0 151.5 -43t61.5 -117q0 -78 -79 -126 t-245 -48l10 47q92 0 138.5 26.5t46.5 67.5q0 92 -224 92l93 181q-182 12 -295 133l65 256h43q-16 -150 46.5 -236t187.5 -86q135 0 230 87t95 208q0 82 -46 143.5t-134 132.5q-53 43 -76.5 63.5t-62.5 63.5t-55.5 91.5t-16.5 105.5q0 164 135 271.5t332 107.5z" glyph-name="Scedilla" horiz-adv-x="1007" unicode="Ş"/><glyph d="M666 770q0 -141 -217 -305q74 -102 73 -193q0 -111 -83 -188.5t-199 -97.5l-43 -86q90 0 151.5 -43t61.5 -117q0 -78 -79 -126t-245 -48l10 47q92 0 138.5 26.5t46.5 67.5q0 92 -224 92l93 181q-88 6 -132.5 52t-44.5 103q0 68 56 115l45 -8q4 -66 58 -128.5t122 -62.5 q49 0 84 35t35 94q0 53 -33 112.5t-71 105.5t-70.5 108.5t-32.5 122.5q0 117 100.5 193.5t222.5 76.5q72 0 124.5 -30.5t52.5 -98.5zM432 487q111 127 111 236q0 51 -24.5 82t-67.5 31q-47 0 -92.5 -34t-45.5 -93q0 -23 6.5 -43.5t21.5 -47t24.5 -41t35 -47.5t31.5 -43z" glyph-name="scedilla" horiz-adv-x="667" unicode="ş"/><glyph d="M836 1460l-156 312l31 24l170 -186l290 186l19 -24zM367 -23q-211 0 -340 136l65 256h43q-16 -150 46.5 -236t187.5 -86q135 0 230 87t95 208q0 82 -46 143.5t-134 132.5q-53 43 -76.5 63.5t-62.5 63.5t-55.5 91.5t-16.5 105.5q0 164 135 271.5t332 107.5q207 0 311 -123 l-75 -258h-41q18 143 -31 227t-168 84q-115 0 -193.5 -71.5t-78.5 -171.5q0 -119 163 -250q45 -37 61.5 -49.5t59.5 -55.5t62.5 -74.5t38 -83t18.5 -102.5q0 -174 -156.5 -295t-373.5 -121z" glyph-name="Scaron" horiz-adv-x="1007" unicode="Š"/><glyph d="M885 1362l-355 -311l-155 311l31 24l169 -186l291 186zM489 899q72 0 124.5 -30.5t52.5 -98.5q0 -141 -217 -305q74 -102 73 -193q0 -127 -107.5 -209.5t-240.5 -82.5q-100 0 -150.5 47t-50.5 108q0 68 56 115l45 -8q4 -66 58 -128.5t122 -62.5q49 0 84 35t35 94 q0 53 -33 112.5t-71 105.5t-70.5 108.5t-32.5 122.5q0 117 100 193.5t223 76.5zM432 487q111 127 111 236q0 51 -24.5 82t-67.5 31q-47 0 -92.5 -34t-45.5 -93q0 -23 6.5 -43.5t21.5 -47t24.5 -41t35 -47.5t31.5 -43z" glyph-name="scaron" horiz-adv-x="667" unicode="š"/><glyph d="M1276 1290l100 21l-102 -361h-39q29 154 -3 215.5t-173 61.5h-103l-327 -1014q-31 -96 -2.5 -125t139.5 -45l-10 -43h-244l-51 -100q90 0 151.5 -43t61.5 -117q0 -78 -79 -126t-245 -48l10 47q92 0 138.5 26.5t46.5 67.5q0 92 -223 92l102 201h-238l13 45q106 16 154 47 t79 127l328 1008h-103q-143 0 -220 -70t-146 -219h-43l135 373l88 -21h805z" glyph-name="Tcommaaccent" horiz-adv-x="1196" unicode="Ţ"/><glyph d="M500 809l-246 -659q-8 -25 12 -19q61 14 209 166q25 25 49 51l27 -37q-203 -250 -332 -311h10l-51 -100q90 0 151.5 -43t61.5 -117q0 -78 -79 -126t-244 -48l10 47q92 0 138 26.5t46 67.5q0 92 -223 92l94 185q-41 10 -57.5 54t2.5 93l252 690l-168 10l14 50h176l82 223 l182 20l-90 -243h179l-29 -82z" glyph-name="tcommaaccent" horiz-adv-x="641" unicode="ţ"/><glyph d="M1282 1772l-354 -312l-156 312l31 24l170 -186l291 186zM1276 1290l100 21l-102 -361h-39q29 154 -3 215.5t-173 61.5h-103l-327 -1014q-31 -96 -2.5 -125t139.5 -45l-10 -43h-570l13 45q106 16 154 47t79 127l328 1008h-103q-143 0 -220 -70t-146 -219h-43l135 373 l88 -21h805z" glyph-name="Tcaron" horiz-adv-x="1196" unicode="Ť"/><glyph d="M815 1352q45 0 58.5 -34t-19.5 -91l-125 -207q-18 -31 -45 -31q-18 0 -26.5 15.5t-2.5 33.5l82 240q27 74 78 74zM616 1124l-90 -243h179l-29 -82l-176 10l-246 -659q-8 -25 12 -19q61 14 209 166q25 25 49 51l27 -37q-268 -330 -399 -329q-49 0 -72 47t-2 102l252 690 l-168 10l14 50h176l82 223z" glyph-name="tcaron" horiz-adv-x="614" unicode="ť"/><glyph d="M1276 1290l100 21l-102 -361h-39q29 154 -3 215.5t-173 61.5h-103l-180 -559l234 6l-21 -74l-233 6l-127 -393q-31 -96 -2.5 -125t139.5 -45l-10 -43h-570l13 45q106 16 154 47t79 127l127 387l-225 -6l20 74l226 -6l180 559h-103q-143 0 -220 -70t-146 -219h-43l135 373 l88 -21h805z" glyph-name="Tbar" horiz-adv-x="1196" unicode="Ŧ"/><glyph d="M676 799l-176 10l-35 -94h203l-29 -82l-201 12l-184 -495q-8 -25 12 -19q61 14 209 166q25 25 49 51l27 -37q-268 -330 -399 -329q-49 0 -72 47t-2 102l192 526l-141 9l14 49h148l39 106l-168 10l14 50h176l82 223l182 20l-90 -243h179z" glyph-name="tbar" horiz-adv-x="641" unicode="ŧ"/><glyph d="M774 1616l31 78h573l-30 -78h-574zM559 -23q-68 0 -127 14.5t-111.5 52.5t-81 97.5t-26.5 158.5t43 226l178 551q16 51 18.5 82t-16 47.5t-37 23.5t-61.5 15l12 45h506l-14 -47q-63 -10 -95 -22.5t-63 -48t-53 -101.5l-193 -596q-33 -100 -37 -176t13.5 -120t52.5 -70.5 t69.5 -34.5t77.5 -8q135 0 261 93t198 312l197 606q12 41 14 69t-3 44t-25.5 27.5t-37 16.5t-51.5 11l13 45h401l-14 -47q-68 -12 -100.5 -23.5t-66.5 -47t-57 -101.5l-190 -586q-47 -143 -116.5 -246.5t-150.5 -158.5t-161 -79t-166 -24z" glyph-name="Umacron" horiz-adv-x="1353" unicode="Ū"/><glyph d="M481 1206l31 78h573l-30 -78h-574zM115 551l-33 35q197 309 342 309q49 0 71.5 -33t2.5 -86l-174 -444q-25 -59 -36.5 -98t-13.5 -67t8.5 -40t34.5 -12q84 0 252 238.5t279 535.5h162l-240 -668q-35 -96 0 -88q47 14 176 191l31 -35q-197 -309 -340 -309 q-49 0 -71.5 32.5t-2.5 83.5l158 402l-16 -2q-166 -289 -283 -402.5t-215 -113.5q-199 0 -43 368l127 303q39 94 2 86q-53 -12 -178 -186z" glyph-name="umacron" unicode="ū"/><glyph d="M762 1102q-125 0 -169 79t-3 201h39q-14 -76 23.5 -110.5t127.5 -36.5q197 -2 275 147h39q-41 -135 -127 -207.5t-205 -72.5zM115 551l-33 35q197 309 342 309q49 0 71.5 -33t2.5 -86l-174 -444q-25 -59 -36.5 -98t-13.5 -67t8.5 -40t34.5 -12q84 0 252 238.5t279 535.5 h162l-240 -668q-35 -96 0 -88q47 14 176 191l31 -35q-197 -309 -340 -309q-49 0 -71.5 32.5t-2.5 83.5l158 402l-16 -2q-166 -289 -283 -402.5t-215 -113.5q-199 0 -43 368l127 303q39 94 2 86q-53 -12 -178 -186z" glyph-name="ubreve" unicode="ŭ"/><glyph d="M1093.5 1481q-75.5 0 -129 52t-53.5 128t53.5 128t129 52t129 -52t53.5 -128t-53.5 -128t-129 -52zM1094 1565q41 0 68.5 27.5t27.5 68.5t-27.5 68.5t-68.5 27.5t-69 -27.5t-28 -68.5t28 -68.5t69 -27.5zM559 -23q-68 0 -127 14.5t-111.5 52.5t-81 97.5t-26.5 158.5 t43 226l178 551q16 51 18.5 82t-16 47.5t-37 23.5t-61.5 15l12 45h506l-14 -47q-63 -10 -95 -22.5t-63 -48t-53 -101.5l-193 -596q-33 -100 -37 -176t13.5 -120t52.5 -70.5t69.5 -34.5t77.5 -8q135 0 261 93t198 312l197 606q12 41 14 69t-3 44t-25.5 27.5t-37 16.5 t-51.5 11l13 45h401l-14 -47q-68 -12 -100.5 -23.5t-66.5 -47t-57 -101.5l-190 -586q-47 -143 -116.5 -246.5t-150.5 -158.5t-161 -79t-166 -24z" glyph-name="Uring" horiz-adv-x="1353" unicode="Ů"/><glyph d="M801 1071q-76 0 -129.5 52.5t-53.5 128t53.5 128t129.5 52.5t129 -52.5t53 -128t-53 -128t-129 -52.5zM801 1155q41 0 68.5 27.5t27.5 68.5t-27.5 69t-68.5 28t-68.5 -28t-27.5 -69t27.5 -68.5t68.5 -27.5zM115 551l-33 35q197 309 342 309q49 0 71.5 -33t2.5 -86 l-174 -444q-25 -59 -36.5 -98t-13.5 -67t8.5 -40t34.5 -12q84 0 252 238.5t279 535.5h162l-240 -668q-35 -96 0 -88q47 14 176 191l31 -35q-197 -309 -340 -309q-49 0 -71.5 32.5t-2.5 83.5l158 402l-16 -2q-166 -289 -283 -402.5t-215 -113.5q-199 0 -43 368l127 303 q39 94 2 86q-53 -12 -178 -186z" glyph-name="uring" unicode="ů"/><glyph d="M852 1434l-47 32q57 184 141 303q41 0 89 -34.5t63 -73.5q-103 -69 -246 -227zM1174 1434l-48 32q57 184 142 303q41 0 89 -34.5t62 -73.5q-102 -69 -245 -227zM559 -23q-68 0 -127 14.5t-111.5 52.5t-81 97.5t-26.5 158.5t43 226l178 551q16 51 18.5 82t-16 47.5 t-37 23.5t-61.5 15l12 45h506l-14 -47q-63 -10 -95 -22.5t-63 -48t-53 -101.5l-193 -596q-33 -100 -37 -176t13.5 -120t52.5 -70.5t69.5 -34.5t77.5 -8q135 0 261 93t198 312l197 606q12 41 14 69t-3 44t-25.5 27.5t-37 16.5t-51.5 11l13 45h401l-14 -47 q-68 -12 -100.5 -23.5t-66.5 -47t-57 -101.5l-190 -586q-47 -143 -116.5 -246.5t-150.5 -158.5t-161 -79t-166 -24z" glyph-name="Uhungarumlaut" horiz-adv-x="1353" unicode="Ű"/><glyph d="M559 1024l-47 33q57 184 141 303q41 0 89.5 -35t62.5 -74q-103 -69 -246 -227zM881 1024l-47 33q57 184 141 303q41 0 89 -35t62 -74q-102 -69 -245 -227zM115 551l-33 35q197 309 342 309q49 0 71.5 -33t2.5 -86l-174 -444q-25 -59 -36.5 -98t-13.5 -67t8.5 -40 t34.5 -12q84 0 252 238.5t279 535.5h162l-240 -668q-35 -96 0 -88q47 14 176 191l31 -35q-197 -309 -340 -309q-49 0 -71.5 32.5t-2.5 83.5l158 402l-16 -2q-166 -289 -283 -402.5t-215 -113.5q-199 0 -43 368l127 303q39 94 2 86q-53 -12 -178 -186z" glyph-name="uhungarumlaut" unicode="ű"/><glyph d="M1180 1290h401l-14 -47q-68 -12 -100.5 -23.5t-66.5 -47t-57 -101.5l-190 -586q-145 -449 -506 -501q-186 -61 -186 -172q0 -98 96 -99q41 0 100 23l-10 -41q-80 -70 -188 -70q-172 0 -172 144q0 82 61 149l148 64q-78 8 -136.5 37.5t-103.5 93t-44 164t44 249.5l178 551 q16 51 18.5 82t-16 47.5t-37 23.5t-61.5 15l12 45h506l-14 -47q-63 -10 -95 -22.5t-63 -48t-53 -101.5l-193 -596q-33 -100 -37 -176t13.5 -120t52.5 -70.5t69.5 -34.5t77.5 -8q135 0 261 93t198 312l197 606q12 41 14 69t-3 44t-25.5 27.5t-37 16.5t-51.5 11z" glyph-name="Uogonek" horiz-adv-x="1353" unicode="Ų"/><glyph d="M770 221q-35 -96 0 -88q47 14 176 191l31 -35q-160 -248 -281 -297q-156 -92 -155 -195q0 -45 25.5 -70.5t68.5 -25.5q39 0 104 20l-14 -36q-82 -72 -188 -72q-76 0 -123 35t-47 108q0 82 61 150l152 92q-43 33 -17 98l158 402l-16 -2q-166 -289 -283 -402.5t-215 -113.5 q-199 0 -43 368l127 303q39 94 2 86q-53 -12 -178 -186l-33 35q197 309 342 309q49 0 71.5 -33t2.5 -86l-174 -444q-25 -59 -36.5 -98t-13.5 -67t8.5 -40t34.5 -12q84 0 252 238.5t279 535.5h162z" glyph-name="uogonek" unicode="ų"/><glyph d="M1401 1796l155 -311l-30 -25l-170 187l-291 -187l-18 25zM438 -16l-14 1116q-2 82 -22.5 106.5t-94.5 40.5l12 43h482l-13 -45q-55 -12 -84.5 -21.5t-54 -37t-24.5 -70.5l4 -835l436 680q68 96 61.5 180t-96.5 106l10 43h314q-31 -98 -31 -295l6 -712l510 796 q33 51 42 82t-12.5 47.5t-45 22.5t-84.5 16l10 43h408l-13 -45q-80 -14 -121 -41.5t-98 -116.5l-717 -1103h-73l-11 948l-612 -948h-74z" glyph-name="Wcircumflex" horiz-adv-x="1921" unicode="Ŵ"/><glyph d="M967 1237l-291 -186l-19 24l355 311l155 -311l-30 -24zM1245 881h279l-729 -901h-62l82 688v4l-559 -692h-61l81 688q12 100 -15.5 129.5t-106.5 40.5l14 43h297l-82 -656l381 457q43 53 49 82q-6 27 -23.5 43t-38 21.5t-59.5 9.5l15 43h297l-82 -656l381 457 q47 57 49 91t-28 46t-93 19z" glyph-name="wcircumflex" horiz-adv-x="1439" unicode="ŵ"/><glyph d="M1014 1647l-291 -187l-18 25l354 311l155 -311l-30 -25zM1120 1290h373l-12 -45q-84 -14 -119 -36.5t-105 -100.5l-493 -555l-109 -340q-31 -96 -2 -125t140 -45l-11 -43h-569l12 45q106 16 154.5 47t79.5 127l106 324l-139 565q-18 78 -42 101.5t-97 37.5l12 43h498 l-13 -45q-41 -8 -64.5 -16t-50 -22.5t-34.5 -39t0 -59.5l117 -479l428 487q31 35 40 57.5t-6.5 36t-32 19.5t-55.5 14q-12 2 -18 4z" glyph-name="Ycircumflex" horiz-adv-x="1226" unicode="Ŷ"/><glyph d="M725 1237l-291 -186l-18 24l354 311l156 -311l-31 -24zM711 881h311l-698 -895q-12 -14 -60.5 -78t-62 -79t-53 -61.5t-61 -60.5t-57.5 -38.5t-70 -32t-73 -7.5q-70 0 -118 31t-48 86q0 41 26 65.5t69 24.5t85 -43t87 -43q51 0 100 46t152 184l43 688q6 100 -23 129.5 t-108 40.5l14 43h287l-45 -697l387 500q45 57 44 90t-35 45t-108 19z" glyph-name="ycircumflex" horiz-adv-x="937" unicode="ŷ"/><glyph d="M737 1556q-45 0 -74.5 30t-29.5 75t29.5 74.5t74.5 29.5t75 -29.5t30 -74.5t-30 -75t-75 -30zM1143 1556q-45 0 -75 30t-30 75t30 74.5t75 29.5t74.5 -29.5t29.5 -74.5t-29.5 -75t-74.5 -30zM1120 1290h373l-12 -45q-84 -14 -119 -36.5t-105 -100.5l-493 -555l-109 -340 q-31 -96 -2 -125t140 -45l-11 -43h-569l12 45q106 16 154.5 47t79.5 127l106 324l-139 565q-18 78 -42 101.5t-97 37.5l12 43h498l-13 -45q-41 -8 -64.5 -16t-50 -22.5t-34.5 -39t0 -59.5l117 -479l428 487q31 35 40 57.5t-6.5 36t-32 19.5t-55.5 14q-12 2 -18 4z" glyph-name="Ydieresis" horiz-adv-x="1226" unicode="Ÿ"/><glyph d="M868 1434l-47 32q57 184 142 303q41 0 89 -34.5t62 -73.5q-103 -69 -246 -227zM-35 0l-12 31l1110 1206l-375 -8q-133 -2 -206.5 -68.5t-133.5 -214.5h-47l115 357l104 -13h832l-1139 -1237l436 21q129 6 202 71.5t153 214.5h53q-113 -225 -158 -360h-934z" glyph-name="Zacute" horiz-adv-x="1150" unicode="Ź"/><glyph d="M829 1251q-102 -70 -245 -227l-47 33q57 184 141 303q41 0 89 -35t62 -74zM674 70q39 0 61.5 -26t22.5 -62q0 -68 -64.5 -109t-146.5 -41q-78 0 -157 46t-157.5 92t-156.5 46q-80 0 -148 -47l-24 33l735 739h-277q-164 0 -241 -170h-45l131 310h657l-717 -727 q68 0 123.5 -29t91 -69t66.5 -81t63.5 -68.5t67.5 -27.5q16 0 25.5 7.5t10.5 19.5t0 25.5t-3 32t-2 28.5q0 31 22.5 54.5t61.5 23.5z" glyph-name="zacute" horiz-adv-x="858" unicode="ź"/><glyph d="M964.5 1501q-49.5 0 -86 35t-36.5 84t36.5 84t86 35t86 -35t36.5 -84t-36.5 -84t-86 -35zM-35 0l-12 31l1110 1206l-375 -8q-133 -2 -206.5 -68.5t-133.5 -214.5h-47l115 357l104 -13h832l-1139 -1237l436 21q129 6 202 71.5t153 214.5h53q-113 -225 -158 -360h-934z" glyph-name="Zdotaccent" horiz-adv-x="1150" unicode="Ż"/><glyph d="M680 1092q-49 0 -86 34.5t-37 84t37 84t86 34.5t86 -34.5t37 -84t-37 -84t-86 -34.5zM674 70q39 0 61.5 -26t22.5 -62q0 -68 -64.5 -109t-146.5 -41q-78 0 -157 46t-157.5 92t-156.5 46q-80 0 -148 -47l-24 33l735 739h-277q-164 0 -241 -170h-45l131 310h657l-717 -727 q68 0 123.5 -29t91 -69t66.5 -81t63.5 -68.5t67.5 -27.5q16 0 25.5 7.5t10.5 19.5t0 25.5t-3 32t-2 28.5q0 31 22.5 54.5t61.5 23.5z" glyph-name="zdotaccent" horiz-adv-x="858" unicode="ż"/><glyph d="M915 1460l-155 312l31 24l170 -186l290 186l19 -24zM-35 0l-12 31l1110 1206l-375 -8q-133 -2 -206.5 -68.5t-133.5 -214.5h-47l115 357l104 -13h832l-1139 -1237l436 21q129 6 202 71.5t153 214.5h53q-113 -225 -158 -360h-934z" glyph-name="Zcaron" horiz-adv-x="1150" unicode="Ž"/><glyph d="M985 1362l-354 -311l-156 311l31 24l170 -186l291 186zM207 881h657l-717 -727q68 0 123.5 -29t91 -69t66.5 -81t63.5 -68.5t67.5 -27.5q16 0 25.5 7.5t10.5 19.5t0 25.5t-3 32t-2 28.5q0 31 22.5 54.5t61.5 23.5t61.5 -26t22.5 -62q0 -68 -64.5 -109t-146.5 -41 q-78 0 -157 46t-157.5 92t-156.5 46q-80 0 -148 -47l-24 33l735 739h-277q-164 0 -241 -170h-45z" glyph-name="zcaron" horiz-adv-x="858" unicode="ž"/><glyph d="M1200 1403q74 0 112 -34t31 -101q-18 -39 -65 -65.5t-96 -28.5q12 139 -80 139q-61 0 -137 -66.5t-146 -226.5l-55 -125l221 12q-25 -43 -41 -96l-213 4l-293 -672q-109 -250 -276.5 -375.5t-343.5 -125.5q-72 0 -110 33.5t-34 101.5q20 39 66.5 65.5t95.5 28.5 q-8 -139 80 -139q63 0 139 66.5t146 226.5l346 796l-129 2l16 47l148 31q109 246 277.5 374t340.5 128z" glyph-name="florin" horiz-adv-x="1060" unicode="ƒ"/><glyph d="M367 -23q-211 0 -340 136l65 256h43q-16 -150 46.5 -236t187.5 -86q135 0 230 87t95 208q0 82 -46 143.5t-134 132.5q-53 43 -76.5 63.5t-62.5 63.5t-55.5 91.5t-16.5 105.5q0 164 135 271.5t332 107.5q207 0 311 -123l-75 -258h-41q18 143 -31 227t-168 84 q-115 0 -193.5 -71.5t-78.5 -171.5q0 -119 163 -250q45 -37 61.5 -49.5t59.5 -55.5t62.5 -74.5t38 -83t18.5 -102.5q0 -174 -156.5 -295t-373.5 -121zM72 -653l-17 53q162 55 201 174q8 27 0 41t-37 33q-63 45 -63 106q0 53 40 90t95 37t93 -41t38 -112q0 -113 -97 -228.5 t-253 -152.5z" glyph-name="Scommaaccent" horiz-adv-x="1007" unicode="Ș"/><glyph d="M666 770q0 -141 -217 -305q74 -102 73 -193q0 -127 -107.5 -209.5t-240.5 -82.5q-100 0 -150.5 47t-50.5 108q0 68 56 115l45 -8q4 -66 58 -128.5t122 -62.5q49 0 84 35t35 94q0 53 -33 112.5t-71 105.5t-70.5 108.5t-32.5 122.5q0 117 100.5 193.5t222.5 76.5 q72 0 124.5 -30.5t52.5 -98.5zM432 487q111 127 111 236q0 51 -24.5 82t-67.5 31q-47 0 -92.5 -34t-45.5 -93q0 -23 6.5 -43.5t21.5 -47t24.5 -41t35 -47.5t31.5 -43zM118.5 -119q55.5 0 93.5 -41t38 -112q0 -113 -97.5 -228.5t-252.5 -152.5l-17 53q162 55 201 174 q8 27 0 41t-37 33q-63 45 -63 106q0 53 39.5 90t95 37z" glyph-name="scommaaccent" horiz-adv-x="667" unicode="ș"/><glyph d="M1276 1290l100 21l-102 -361h-39q29 154 -3 215.5t-173 61.5h-103l-327 -1014q-31 -96 -2.5 -125t139.5 -45l-10 -43h-570l13 45q106 16 154 47t79 127l328 1008h-103q-143 0 -220 -70t-146 -219h-43l135 373l88 -21h805zM383 -119q55 0 93 -41t38 -112 q0 -113 -97.5 -228.5t-252.5 -152.5l-17 53q162 55 201 174q8 27 0 41t-37 33q-63 45 -63 106q0 53 40 90t95 37z" glyph-name="uni021A" horiz-adv-x="1196" unicode="Ț"/><glyph d="M500 809l-246 -659q-8 -25 12 -19q61 14 209 166q25 25 49 51l27 -37q-268 -330 -399 -329q-49 0 -72 47t-2 102l252 690l-168 10l14 50h176l82 223l182 20l-90 -243h179l-29 -82zM100.5 -119q55.5 0 93 -41t37.5 -112q0 -113 -97 -228.5t-253 -152.5l-16 53 q162 55 201 174q8 27 -0.5 41t-36.5 33q-63 45 -64 106q0 53 40 90t95.5 37z" glyph-name="uni021B" horiz-adv-x="641" unicode="ț"/><glyph d="M457 891q51 0 71.5 -38t1.5 -93l-196 -604q-86 -266 -182.5 -390t-241.5 -124q-104 0 -153.5 45t-47.5 112q2 49 32 79t73 30q45 0 62.5 -40t4.5 -106q-12 -61 47 -61q61 0 97 60.5t94 238.5l211 649q35 111 -11 86q-47 -25 -165 -186l-31 35q197 307 334 307z" glyph-name="uni0237" horiz-adv-x="546" unicode="ȷ"/><glyph d="M588 1407l155 -311l-30 -25l-170 186l-291 -186l-19 25z" glyph-name="circumflex" horiz-adv-x="550" unicode="ˆ"/><glyph d="M481 1071l-155 311l30 25l170 -186l291 186l19 -25z" glyph-name="caron" horiz-adv-x="550" unicode="ˇ"/><glyph d="M508 1122q-125 0 -169 79t-3 202h39q-14 -76 23.5 -111t127.5 -37q197 -2 275 148h39q-41 -135 -127 -208t-205 -73z" glyph-name="breve" horiz-adv-x="544" unicode="˘"/><glyph d="M405.5 1112q-49.5 0 -86 35t-36.5 84t36.5 84t86 35t86 -35t36.5 -84t-36.5 -84t-86 -35z" glyph-name="dotaccent" horiz-adv-x="296" unicode="˙"/><glyph d="M483.5 1092q-75.5 0 -129 52t-53.5 128t53.5 128t129 52t129 -52t53.5 -128t-53.5 -128t-129 -52zM483 1176q41 0 69 27.5t28 68.5t-28 68.5t-69 27.5t-68.5 -27.5t-27.5 -68.5t27.5 -68.5t68.5 -27.5z" glyph-name="ring" horiz-adv-x="425" unicode="˚"/><glyph d="M-16 -375q-76 0 -123 35t-47 109q0 82 61 149l332 203l-12 -88q-102 -55 -154.5 -104.5t-52.5 -118.5q0 -45 25.5 -71t68.5 -26q39 0 104 21l-14 -37q-82 -72 -188 -72z" glyph-name="ogonek" horiz-adv-x="436" unicode="˛"/><glyph d="M674 1083q-49 0 -84 22.5t-51.5 50.5t-45 50.5t-65.5 22.5q-51 0 -93 -35t-50 -68l-31 25q14 90 85 147.5t155 57.5q49 0 83.5 -22.5t50 -50.5t43 -50.5t64.5 -22.5q51 0 94 35t54 68l30 -25q-14 -90 -83.5 -147.5t-155.5 -57.5z" glyph-name="tilde" horiz-adv-x="661" unicode="˜"/><glyph d="M274 1044l-47 33q57 184 142 303q41 0 89 -34.5t62 -73.5q-103 -70 -246 -228zM596 1044l-47 33q57 184 141 303q41 0 89 -34.5t63 -73.5q-103 -70 -246 -228z" glyph-name="hungarumlaut" horiz-adv-x="591" unicode="˝"/><glyph d="M4 1044l-47 33q57 184 141 303q41 0 89.5 -34.5t62.5 -73.5q-103 -70 -246 -228z" glyph-name="acutecomb" horiz-adv-x="0" unicode="́"/><glyph d="M-614 -653l-17 53q162 55 201 174q8 27 0 41t-37 33q-63 45 -63 106q0 53 39.5 90t95 37t93.5 -41t38 -112q0 -113 -97 -228.5t-253 -152.5z" glyph-name="uni0326" horiz-adv-x="0" unicode="̦"/><glyph d="M-98 0l938 1298l100 -1298h-1038zM78 158h661l-49 846z" glyph-name="Delta" horiz-adv-x="1099" unicode="Δ"/><glyph d="M983 170q92 0 139 10t88 49h39l-141 -229h-391l55 170q166 76 304 329t138 453q0 131 -61 205t-174 74q-150 0 -292 -132t-223 -316.5t-81 -348.5q0 -98 30.5 -166.5t71.5 -97.5l-55 -170h-391l8 229h31q14 -39 56 -49t134 -10h62q-57 49 -97 141t-40 207 q0 201 115.5 384t301 293t381.5 110q201 0 310.5 -117t109.5 -297q0 -217 -139 -412.5t-344 -308.5h55z" glyph-name="Omega" horiz-adv-x="1425" unicode="Ω"/><glyph d="M770 221q-35 -96 0 -88q47 14 176 191l31 -35q-197 -309 -340 -309q-49 0 -71.5 32.5t-2.5 83.5l158 402l-16 -2q-166 -289 -283 -402.5t-215 -113.5q-96 0 -109 88q-49 -139 -43 -197.5t25.5 -101.5t13.5 -66q-16 -49 -59 -80t-86 -31t-61.5 30t6.5 93l380 897l17 39 q39 94 2 86q-53 -12 -178 -186l-33 35q197 309 342 309q49 0 71.5 -33t2.5 -86l-174 -444q-25 -59 -36.5 -98t-13.5 -67t8.5 -40t34.5 -12q84 0 252 238.5t279 535.5h162z" glyph-name="mu" horiz-adv-x="1058" unicode="μ"/><glyph d="M1071 786l-203 -620q-29 -92 11 -92q31 0 56.5 35.5t53 71.5t64.5 36t47 -38t-8 -85q-18 -59 -79 -86.5t-134 -27.5q-113 0 -153 81.5t5 217.5l166 507h-250l-180 -550q-39 -121 -121 -184.5t-170 -63.5q-61 0 -119 28l-10 60q70 -20 144.5 29t109.5 155l172 526h-88 q-63 0 -107.5 -51t-52.5 -131l-37 53q-8 106 54.5 186.5t165.5 80.5h880l-45 -138h-172z" glyph-name="pi" horiz-adv-x="1292" unicode="π"/><glyph d="M1243 1434q-143 158 -246 227q14 39 62.5 73.5t89.5 34.5q84 -119 141 -303zM438 -16l-14 1116q-2 82 -22.5 106.5t-94.5 40.5l12 43h482l-13 -45q-55 -12 -84.5 -21.5t-54 -37t-24.5 -70.5l4 -835l436 680q68 96 61.5 180t-96.5 106l10 43h314q-31 -98 -31 -295l6 -712 l510 796q33 51 42 82t-12.5 47.5t-45 22.5t-84.5 16l10 43h408l-13 -45q-80 -14 -121 -41.5t-98 -116.5l-717 -1103h-73l-11 948l-612 -948h-74z" glyph-name="Wgrave" horiz-adv-x="1921" unicode="Ẁ"/><glyph d="M854 1024q-143 158 -246 227q14 39 62.5 74t89.5 35q84 -119 141 -303zM1245 881h279l-729 -901h-62l82 688v4l-559 -692h-61l81 688q12 100 -15.5 129.5t-106.5 40.5l14 43h297l-82 -656l381 457q43 53 49 82q-6 27 -23.5 43t-38 21.5t-59.5 9.5l15 43h297l-82 -656 l381 457q47 57 49 91t-28 46t-93 19z" glyph-name="wgrave" horiz-adv-x="1439" unicode="ẁ"/><glyph d="M1247 1434l-47 32q57 184 141 303q41 0 89.5 -34.5t62.5 -73.5q-103 -69 -246 -227zM438 -16l-14 1116q-2 82 -22.5 106.5t-94.5 40.5l12 43h482l-13 -45q-55 -12 -84.5 -21.5t-54 -37t-24.5 -70.5l4 -835l436 680q68 96 61.5 180t-96.5 106l10 43h314q-31 -98 -31 -295 l6 -712l510 796q33 51 42 82t-12.5 47.5t-45 22.5t-84.5 16l10 43h408l-13 -45q-80 -14 -121 -41.5t-98 -116.5l-717 -1103h-73l-11 948l-612 -948h-74z" glyph-name="Wacute" horiz-adv-x="1921" unicode="Ẃ"/><glyph d="M1104 1251q-102 -70 -246 -227l-47 33q57 184 141 303q41 0 89.5 -35t62.5 -74zM1245 881h279l-729 -901h-62l82 688v4l-559 -692h-61l81 688q12 100 -15.5 129.5t-106.5 40.5l14 43h297l-82 -656l381 457q43 53 49 82q-6 27 -23.5 43t-38 21.5t-59.5 9.5l15 43h297 l-82 -656l381 457q47 57 49 91t-28 46t-93 19z" glyph-name="wacute" horiz-adv-x="1439" unicode="ẃ"/><glyph d="M1079 1556q-45 0 -74.5 30t-29.5 75t29.5 74.5t74.5 29.5t75 -29.5t30 -74.5t-30 -75t-75 -30zM1485 1556q-45 0 -75 30t-30 75t30 74.5t75 29.5t74.5 -29.5t29.5 -74.5t-29.5 -75t-74.5 -30zM438 -16l-14 1116q-2 82 -22.5 106.5t-94.5 40.5l12 43h482l-13 -45 q-55 -12 -84.5 -21.5t-54 -37t-24.5 -70.5l4 -835l436 680q68 96 61.5 180t-96.5 106l10 43h314q-31 -98 -31 -295l6 -712l510 796q33 51 42 82t-12.5 47.5t-45 22.5t-84.5 16l10 43h408l-13 -45q-80 -14 -121 -41.5t-98 -116.5l-717 -1103h-73l-11 948l-612 -948h-74z" glyph-name="Wdieresis" horiz-adv-x="1921" unicode="Ẅ"/><glyph d="M690 1147q-45 0 -74.5 29.5t-29.5 74.5t29.5 75t74.5 30t75 -30t30 -75t-30 -74.5t-75 -29.5zM1096 1147q-45 0 -75 29.5t-30 74.5t30 75t75 30t74.5 -30t29.5 -75t-29.5 -74.5t-74.5 -29.5zM1245 881h279l-729 -901h-62l82 688v4l-559 -692h-61l81 688 q12 100 -15.5 129.5t-106.5 40.5l14 43h297l-82 -656l381 457q43 53 49 82q-6 27 -23.5 43t-38 21.5t-59.5 9.5l15 43h297l-82 -656l381 457q47 57 49 91t-28 46t-93 19z" glyph-name="wdieresis" horiz-adv-x="1439" unicode="ẅ"/><glyph d="M985 705q127 -14 202 -82t75 -191q0 -186 -160 -329.5t-365 -143.5q-145 0 -221 86q29 102 47 242h43q4 -156 33 -209t92 -53q129 0 228.5 133t99.5 266q0 111 -87 169t-251 58l479 535q-66 35 -174 35q-66 0 -127 -20.5t-130 -70t-131.5 -145.5t-107.5 -233l-174 -539 q-16 -49 -19 -79t10 -46t29.5 -24.5t51.5 -16.5l-10 -47h-484l13 47q49 10 72.5 17.5t53 24.5t49 49t36.5 81l174 531q180 555 647 555q215 0 428 -134z" glyph-name="uni1E9E" horiz-adv-x="1361" unicode="ẞ"/><glyph d="M799 1618q-51 0 -93 -35t-51 -67l-30 24q14 90 84.5 147.5t154.5 57.5q49 0 84 -22.5t50.5 -50t43 -50.5t64.5 -23q51 0 94 35t53 68l31 -25q-14 -90 -84 -147t-156 -57q-49 0 -83.5 22.5t-51 50t-45 50t-65.5 22.5zM342 1245l12 45h903l-81 -291h-48q31 119 10.5 170.5 t-118.5 51.5h-164q-104 0 -150.5 -34t-78.5 -138l-119 -363h139q156 0 215.5 40t102.5 144h41l-140 -426h-41q14 57 15.5 86t-17 51.5t-63.5 28.5t-131 6h-144l-129 -399q-16 -55 -20 -83t14.5 -43t44 -18t84.5 -3h125q106 0 186 56t179 191h53l-182 -317h-906l13 45 q61 12 93 23.5t65.5 48.5t54.5 102l278 858q16 51 18.5 82t-16 47.5t-37 23.5t-61.5 15z" glyph-name="uni1EBC" horiz-adv-x="1150" unicode="Ẽ"/><glyph d="M944 1292l31 -24q-14 -90 -84 -147.5t-156 -57.5q-49 0 -84 22.5t-51 50t-45 50t-66 22.5q-51 0 -93 -34.5t-50 -67.5l-31 24q14 90 85 147.5t155 57.5q49 0 84 -22.5t50.5 -50t43 -50t64.5 -22.5q51 0 94 34.5t53 67.5zM610 899q84 0 123 -42t39 -107q0 -254 -545 -373 q-6 -37 -6 -70q0 -84 39 -137t109 -53q57 0 127.5 34.5t119.5 100.5l25 -37q-66 -115 -175.5 -174t-205.5 -59q-102 0 -162.5 69.5t-60.5 190.5q0 150 87 304t221 253.5t265 99.5zM240 434q367 78 366 295q0 100 -71 100q-80 0 -169 -124t-126 -271z" glyph-name="uni1EBD" horiz-adv-x="782" unicode="ẽ"/><glyph d="M901 1434q-143 158 -246 227q14 39 62.5 73.5t89.5 34.5q84 -119 141 -303zM1120 1290h373l-12 -45q-84 -14 -119 -36.5t-105 -100.5l-493 -555l-109 -340q-31 -96 -2 -125t140 -45l-11 -43h-569l12 45q106 16 154.5 47t79.5 127l106 324l-139 565q-18 78 -42 101.5 t-97 37.5l12 43h498l-13 -45q-41 -8 -64.5 -16t-50 -22.5t-34.5 -39t0 -59.5l117 -479l428 487q31 35 40 57.5t-6.5 36t-32 19.5t-55.5 14q-12 2 -18 4z" glyph-name="Ygrave" horiz-adv-x="1226" unicode="Ỳ"/><glyph d="M612 1024q-143 158 -245 227q14 39 62 74t89 35q84 -119 141 -303zM711 881h311l-698 -895q-12 -14 -60.5 -78t-62 -79t-53 -61.5t-61 -60.5t-57.5 -38.5t-70 -32t-73 -7.5q-70 0 -118 31t-48 86q0 41 26 65.5t69 24.5t85 -43t87 -43q51 0 100 46t152 184l43 688 q6 100 -23 129.5t-108 40.5l14 43h287l-45 -697l387 500q45 57 44 90t-35 45t-108 19z" glyph-name="ygrave" horiz-adv-x="937" unicode="ỳ"/><glyph d="M102 496v71h1158v-71h-1158z" glyph-name="endash" horiz-adv-x="1361" unicode="–"/><glyph d="M102 496v71h1678v-71h-1678z" glyph-name="emdash" horiz-adv-x="1882" unicode="—"/><glyph d="M102 496v71h1678v-71h-1678z" glyph-name="afii00208" horiz-adv-x="1882" unicode="―"/><glyph d="M610 1317l17 -53q-162 -55 -201 -174q-8 -27 0 -41.5t37 -32.5q63 -45 63 -107q0 -53 -40 -90t-95 -37t-93 41t-38 113q0 113 97 228.5t253 152.5z" glyph-name="quoteleft" horiz-adv-x="458" unicode="‘"/><glyph d="M252 791l-16 53q162 55 200 174q8 27 0 41t-37 33q-63 45 -63 106q0 53 40 90t95 37t93 -41t38 -113q0 -113 -97 -228t-253 -152z" glyph-name="quoteright" horiz-adv-x="456" unicode="’"/><glyph d="M-102 -303l-17 53q162 55 201 174q8 27 0 41.5t-37 32.5q-63 45 -63 106q0 53 39.5 90t95 37t93.5 -40.5t38 -112.5q0 -113 -97 -228.5t-253 -152.5z" glyph-name="quotesinglbase" horiz-adv-x="456" unicode="‚"/><glyph d="M610 1317l17 -53q-162 -55 -201 -174q-8 -27 0 -41.5t37 -32.5q63 -45 63 -107q0 -53 -40 -90t-95 -37t-93 41t-38 113q0 113 97 228.5t253 152.5zM991 1317l17 -53q-162 -55 -201 -174q-8 -27 0 -41.5t37 -32.5q63 -45 63 -107q0 -53 -40 -90t-95 -37t-93 41t-38 113 q0 113 97 228.5t253 152.5z" glyph-name="quotedblleft" horiz-adv-x="839" unicode="“"/><glyph d="M254 791l-16 53q162 55 200 174q8 27 0 41t-37 33q-63 45 -63 106q0 53 40 90t95 37t93 -41t38 -113q0 -113 -97 -228t-253 -152zM635 791l-17 53q162 55 201 174q8 27 0 41t-37 33q-63 45 -63 106q0 53 40 90t95 37t93 -41t38 -113q0 -113 -97 -228t-253 -152z" glyph-name="quotedblright" horiz-adv-x="839" unicode="”"/><glyph d="M-98 -293l-17 53q162 55 201 174q8 27 0 41.5t-37 32.5q-63 45 -63 107q0 53 40 90t95 37t93 -41t38 -113q0 -113 -97 -228.5t-253 -152.5zM283 -293l-17 53q162 55 201 174q8 27 0 41.5t-37 32.5q-63 45 -63 107q0 53 39.5 90t95 37t93.5 -41t38 -113q0 -113 -97 -228.5 t-253 -152.5z" glyph-name="quotedblbase" horiz-adv-x="839" unicode="„"/><glyph d="M289 0l141 678l113 127l39 110q-53 -2 -136.5 -47t-113.5 -45q-43 0 -61.5 40t-0.5 95q12 37 48 61.5t75 24.5q31 0 87.5 -41.5t113.5 -35.5q18 53 4 132t0 124q10 35 46 60.5t77 25.5q43 0 60.5 -42t-1.5 -93q-8 -31 -72.5 -104t-84.5 -130q53 6 137 55t117 49 q41 0 59 -39.5t0 -95.5q-12 -37 -47 -61.5t-74 -24.5q-35 0 -90 45t-107 47l-38 -110l30 -127l-299 -678h-22z" glyph-name="dagger" horiz-adv-x="886" unicode="†"/><glyph d="M301 -14q-43 0 -60.5 41t-0.5 94q10 29 74.5 102.5t84.5 130.5q-53 -6 -137 -55t-117 -49q-43 0 -61 40t0 95q12 37 48 61.5t75 24.5q35 0 89 -45t105 -47l41 110l-18 168l119 148l39 110q-53 -2 -136.5 -47t-113.5 -45q-43 0 -61.5 40t-0.5 95q12 37 48 61.5t75 24.5 q31 0 87.5 -41.5t113.5 -35.5q18 53 4 132t0 124q10 35 46 60.5t77 25.5q43 0 60.5 -42t-1.5 -93q-8 -31 -72.5 -104t-84.5 -130q53 6 137 55t117 49q41 0 59 -39.5t0 -95.5q-12 -37 -47 -61.5t-74 -24.5q-35 0 -90 45t-107 47l-38 -110l24 -148l-125 -168l-39 -110 q53 2 136 47t114 45q41 0 59.5 -40t0.5 -95q-12 -37 -47 -61.5t-74 -24.5q-33 0 -88.5 42t-112.5 36q-20 -53 -5 -133t1 -123q-12 -35 -47 -60.5t-76 -25.5z" glyph-name="daggerdbl" horiz-adv-x="886" unicode="‡"/><glyph d="M350 317q-86 0 -147.5 61.5t-61.5 147.5t61.5 147.5t147.5 61.5t147.5 -61.5t61.5 -147.5t-61.5 -147.5t-147.5 -61.5z" glyph-name="bullet" horiz-adv-x="645" unicode="•"/><glyph d="M129 -20q-53 0 -91 36.5t-38 89.5q0 51 38 88t91 37t91 -36.5t38 -88.5q0 -53 -38 -89.5t-91 -36.5zM532.5 -20q-53.5 0 -91.5 36.5t-38 89.5q0 51 38 88t91.5 37t91.5 -36.5t38 -88.5q0 -53 -38 -89.5t-91.5 -36.5zM936 -20q-53 0 -91 36.5t-38 89.5q0 51 38 88t91 37 t91 -36.5t38 -88.5q0 -53 -38 -89.5t-91 -36.5z" glyph-name="ellipsis" horiz-adv-x="1282" unicode="…"/><glyph d="M1380 1300l123 -10l-1333 -1290h-111l1166 1118q-78 -33 -158 -33q-109 0 -203 62q-2 -166 -154.5 -328t-316.5 -162q-74 0 -113.5 42t-39.5 116q0 164 155.5 321.5t325.5 157.5q76 0 115 -45q145 -104 256 -104q138 -1 288 155zM444 721q109 0 237 159.5t128 272.5 q0 82 -84 82q-106 0 -227 -165t-121 -282q-1 -67 67 -67zM1174 633q143 0 143 -146q0 -166 -153.5 -328.5t-317.5 -162.5q-74 0 -114 42t-40 116q0 164 156 321.5t326 157.5zM1862 633q143 0 143 -146q0 -166 -153.5 -328.5t-317.5 -162.5q-74 0 -114 42t-40 116 q0 164 156 321.5t326 157.5zM897 59q109 0 237 160t128 273q0 82 -84 81q-106 0 -227.5 -164.5t-121.5 -281.5q0 -68 68 -68zM1585 59q109 0 237 160t128 273q0 82 -84 81q-106 0 -227 -164.5t-121 -281.5q-1 -68 67 -68z" glyph-name="perthousand" horiz-adv-x="2109" unicode="‰"/><glyph d="M109 449l370 282l15 -26l-252 -256l86 -256l-31 -27z" glyph-name="guilsinglleft" horiz-adv-x="528" unicode="‹"/><glyph d="M414 461l-371 -283l-14 27l252 256l-86 256l30 26z" glyph-name="guilsinglright" horiz-adv-x="526" unicode="›"/><glyph d="M-453 -10l1223 1313h51l-1222 -1313h-52z" glyph-name="fraction" horiz-adv-x="233" unicode="⁄"/><glyph d="M1253 1321q221 0 320 -115l-66 -268h-57q12 156 -40 234.5t-183 78.5q-168 0 -307.5 -120.5t-223.5 -307.5h357l-52 -100h-344q-20 -57 -34 -143h307l-51 -101h-269v-33q0 -176 85 -274t237 -98q205 0 342 119l20 -60q-78 -70 -202.5 -115t-262.5 -45q-213 0 -322.5 118 t-109.5 327q0 41 2 61h-270l51 101h234q16 82 41 143h-201l49 100h197q113 219 315 358.5t438 139.5z" glyph-name="Euro" horiz-adv-x="1452" unicode="€"/><glyph d="M440 612v37q39 4 52.5 7t32 12.5t23.5 27t5 45.5v504h-64q-76 0 -107.5 -37t-43.5 -114h-29l8 196h598l11 -196h-29q-14 78 -45 114.5t-104 36.5h-68l2 -504q0 -55 22.5 -69.5t90.5 -22.5v-37h-355zM1006 612v37q33 6 43 8t28.5 11.5t23.5 27t5 45.5v422q0 29 -5 45.5 t-24.5 25.5t-28 12t-42.5 9v35h221l223 -504l197 504h237v-35q-4 0 -10 -2q-27 -6 -38 -9t-25.5 -12t-19.5 -25.5t-5 -43.5l2 -422q0 -39 13.5 -58t27.5 -23.5t55 -10.5v-37h-321v37q27 4 35 6t24 8.5t21.5 14.5t10.5 24.5t5 38.5v445l-232 -574h-36l-236 529l-2 -400 q0 -39 15.5 -58t30.5 -23.5t61 -10.5v-37h-254z" glyph-name="trademark" horiz-adv-x="1869" unicode="™"/><glyph d="M455 838l-6 -23h-232l6 23q76 8 90 55l99 301q8 23 5 39t-18 14l-39 -6l9 23l161 67l13 -12l-140 -432q-8 -25 3.5 -35t48.5 -14zM1190 1303h51l-1223 -1313h-51zM958 500q63 0 92 -37t13 -86q-20 -59 -96 -107q86 -47 55 -137q-23 -70 -89.5 -111.5t-148.5 -41.5 q-78 0 -115.5 38.5t-17.5 104.5q31 84 123 129q-35 47 -14 110q18 57 74 97.5t124 40.5zM1004 375q14 31 0.5 60.5t-58.5 29.5q-78 0 -102 -74q-20 -57 51 -88l41 -18q52 35 68 90zM926 102q10 35 -2.5 53.5t-57.5 41.5l-45 20q-16 8 -22 14q-63 -37 -86 -102q-16 -51 6 -83 t82 -32q96 0 125 88z" glyph-name="oneeighth" horiz-adv-x="1222" unicode="⅛"/><glyph d="M322 786q-43 0 -76 12.5t-33 37.5q0 20 13.5 31.5t29.5 11.5t35.5 -32t52.5 -32q59 0 109.5 52.5t50.5 111.5q0 72 -86 72q-33 0 -72 -15l-2 25l66 24q72 27 109.5 54.5t37.5 72.5q0 43 -59 43q-76 0 -136 -55l-12 17q90 96 201 96q94 0 94 -76q0 -86 -149 -147 q106 -8 106 -93q0 -80 -90 -145.5t-190 -65.5zM1366 1303h51l-1222 -1313h-52zM1229 500q63 0 92 -37t12 -86q-20 -59 -96 -107q86 -47 55 -137q-23 -70 -89 -111.5t-148 -41.5q-78 0 -116 38.5t-17 104.5q31 84 122 129q-35 47 -14 110q18 57 74.5 97.5t124.5 40.5z M1274 375q14 31 1 60.5t-58 29.5q-78 0 -103 -74q-20 -57 51 -88l41 -18q52 35 68 90zM1196 102q10 35 -2 53.5t-57 41.5l-45 20q-16 8 -23 14q-63 -37 -86 -102q-16 -51 6.5 -83t81.5 -32q96 0 125 88z" glyph-name="threeeighths" horiz-adv-x="1472" unicode="⅜"/><glyph d="M315 799q-109 0 -108 49q0 16 13 29.5t30 13.5q18 0 37.5 -32t54.5 -32q55 0 104.5 52.5t49.5 109.5q0 88 -177 76l-8 16l148 230h123q72 0 96 24h16l-63 -100h-189l-65 -102q223 14 223 -103q0 -88 -91.5 -159.5t-193.5 -71.5zM1346 1303h51l-1223 -1313h-51zM1208 500 q63 0 92 -37t13 -86q-20 -59 -96 -107q86 -47 55 -137q-23 -70 -89.5 -111.5t-148.5 -41.5q-78 0 -115.5 38.5t-17.5 104.5q31 84 123 129q-35 47 -14 110q18 57 74 97.5t124 40.5zM1253 375q14 31 1 60.5t-58 29.5q-78 0 -102 -74q-20 -57 51 -88l41 -18q51 35 67 90z M1176 102q10 35 -2.5 53.5t-57.5 41.5l-45 20q-16 8 -22 14q-63 -37 -86 -102q-16 -51 6 -83t82 -32q96 0 125 88z" glyph-name="fiveeighths" horiz-adv-x="1474" unicode="⅝"/><glyph d="M332 815h-60q115 195 334 436h-151q-37 0 -59.5 -10t-51.5 -49h-16l82 135l30 -8h246l4 -12q-231 -256 -358 -492zM1294 1303h52l-1223 -1313h-51zM1157 500q63 0 92 -37t13 -86q-20 -59 -97 -107q86 -47 56 -137q-23 -70 -89.5 -111.5t-148.5 -41.5q-78 0 -116 38.5 t-17 104.5q31 84 123 129q-35 47 -15 110q18 57 74.5 97.5t124.5 40.5zM1202 375q14 31 1 60.5t-58 29.5q-78 0 -103 -74q-20 -57 52 -88l41 -18q51 35 67 90zM1124 102q10 35 -2 53.5t-57 41.5l-45 20q-16 8 -23 14q-63 -37 -86 -102q-16 -51 6.5 -83t81.5 -32q96 0 125 88 z" glyph-name="seveneighths" horiz-adv-x="1372" unicode="⅞"/><glyph d="M461 -25q-172 0 -268.5 90.5t-96.5 235.5q0 111 47 210t127 168t177.5 110.5t204 39.5t200.5 -49l-8 -49q-217 47 -384 -108.5t-167 -376.5q0 -195 174 -195q131 0 245.5 127t176 300t61.5 331q0 199 -106.5 313.5t-268.5 128.5l46 54q223 -12 376.5 -171t153.5 -399 q0 -295 -204.5 -527.5t-485.5 -232.5z" glyph-name="partialdiff" horiz-adv-x="1173" unicode="∂"/><glyph d="M1153 870l-149 -112q72 -133 14 -307q-63 -195 -243.5 -332t-375.5 -137q-176 0 -268 114l-149 -112l-29 47l147 110q-76 131 -16 310q63 195 244.5 331t373.5 136q176 0 271 -115l149 112zM152 451q-49 -147 10 -263l747 566q-78 96 -227 96q-166 0 -321.5 -116.5 t-208.5 -282.5zM950 451q49 147 -10 258l-747 -566q82 -94 227 -94q166 0 321.5 117t208.5 285z" glyph-name="emptyset" horiz-adv-x="1097" unicode="∅"/><glyph d="M1409 1638l-666 -2048h-116l626 1928h-663l-629 -1928h-115l666 2048h897z" glyph-name="product" horiz-adv-x="1142" unicode="∏"/><glyph d="M1393 1638l-39 -120h-729l313 -906l-879 -901h709l-39 -121h-881l39 121l887 920l-301 887l39 120h881z" glyph-name="summation" horiz-adv-x="1128" unicode="∑"/><glyph d="M106 455l39 120h682l-39 -120h-682z" glyph-name="minus" horiz-adv-x="886" unicode="−"/><glyph d="M317 -410l-100 693q-12 80 -35.5 109.5t-93.5 58.5l18 63h246l105 -661l1214 1787h223l-20 -73q-98 -27 -144.5 -60.5t-109.5 -126.5l-1239 -1790h-64z" glyph-name="radical" horiz-adv-x="1527" unicode="√"/><glyph d="M315 129q-94 0 -149 64.5t-55 181.5q0 195 125.5 376t287.5 181q156 0 211 -189q158 188 326 189q98 0 153.5 -63.5t55.5 -178.5q0 -197 -125 -379t-287 -182q-158 0 -213 188q-156 -188 -330 -188zM309 313q133 0 260 195l109 164q-39 115 -164 114 q-131 0 -232.5 -114.5t-101.5 -233.5q0 -125 129 -125zM864 274q133 0 234.5 115t101.5 236q0 66 -35 94.5t-86 28.5q-141 0 -268 -195l-109 -164q39 -115 162 -115z" glyph-name="infinity" horiz-adv-x="1320" unicode="∞"/><glyph d="M-182 -358q-72 0 -110 33.5t-34 101.5q20 39 66.5 65.5t95.5 28.5q-8 -139 80 -139q63 0 139 66.5t146 226.5l377 868q109 250 278.5 380t343.5 130q74 0 112 -34t31 -101q-18 -39 -65 -65.5t-96 -28.5q12 139 -80 139q-61 0 -137 -66.5t-146 -226.5l-381 -877 q-109 -250 -276.5 -375.5t-343.5 -125.5z" glyph-name="integral" horiz-adv-x="1060" unicode="∫"/><glyph d="M678 561q-59 0 -101 22.5t-60.5 50.5t-52.5 50.5t-79 22.5q-59 0 -107.5 -36t-60.5 -71l-31 25q14 92 96.5 150.5t184.5 58.5q59 0 100 -23t60.5 -50.5t53.5 -50t79 -22.5q59 0 108.5 36t61.5 71l31 -25q-14 -92 -97.5 -150.5t-185.5 -58.5zM563 213q-59 0 -101 22.5 t-60.5 50t-52.5 50t-79 22.5q-59 0 -107 -35.5t-61 -70.5l-30 24q14 92 96 150.5t184 58.5q59 0 100.5 -22.5t60.5 -50t53 -50t79 -22.5q59 0 108.5 36t61.5 70l31 -24q-14 -92 -97.5 -150.5t-185.5 -58.5z" glyph-name="approxequal" horiz-adv-x="976" unicode="≈"/><glyph d="M850 639h-262l-103 -248h285l-39 -121h-297l-112 -270h-129l112 270h-256l39 121h268l103 248h-291l39 121h303l106 256h129l-106 -256h250z" glyph-name="notequal" horiz-adv-x="888" unicode="≠"/><glyph d="M1051 264q-416 211 -795 352l-35 121q305 152 567 348l35 -116q-225 -174 -489 -279q385 -133 676 -284zM1118 2h-682l-39 121h682z" glyph-name="lessequal" horiz-adv-x="1384" unicode="≤"/><glyph d="M72 264l41 142q291 152 675 284q-264 104 -489 279l35 116q262 -197 567 -348l-35 -121q-378 -141 -794 -352zM4 2l39 121h682l-39 -121h-682z" glyph-name="greaterequal" horiz-adv-x="952" unicode="≥"/><glyph d="M467 -37l-301 672l739 674l301 -674zM512 102l584 533l-236 534l-584 -534z" glyph-name="lozenge" horiz-adv-x="1245" unicode="◊"/><glyph d="M1782 1290l-13 -47q-63 -12 -92.5 -23.5t-61.5 -47t-54 -101.5l-279 -858q-16 -49 -18 -80t17 -47t35.5 -22.5t59.5 -16.5l-10 -47h-504l12 47q49 10 73 17.5t53.5 24.5t49 49t35.5 81l287 887l-751 -1106h-56l-65 1028l-264 -815q-16 -51 -18.5 -81t18 -46t39 -22.5 t65.5 -16.5l-10 -47h-398l15 47q63 12 94 23.5t64.5 47.5t54.5 101l286 877q8 29 13.5 50t0.5 36.5t-7 23.5t-19.5 16.5t-22.5 10.5t-34 7t-35 7l12 43h336q-4 -25 6 -168l56 -821l555 832q68 98 96 157h379z" glyph-name="M.aalt" horiz-adv-x="1576"/><glyph d="M1663 1290h346l-14 -47q-80 -16 -114 -36.5t-81 -88.5l-796 -1132h-78l-27 489l-344 -489h-72l-59 1132q-2 68 -23.5 90.5t-91.5 38.5l10 43h1242l-13 -47q-82 -16 -115.5 -36.5t-80.5 -88.5l-256 -362l26 -494l594 866q10 14 15.5 25.5t9.5 21t3 17.5t-2 13t-7 10.5 t-10.5 8.5t-15.5 7t-16 5t-19.5 5t-20.5 6zM680 270l215 314l-29 534q-4 70 -23.5 97.5t-70.5 27.5q-55 0 -97 -30.5t-40 -94.5zM1219 1243q-59 0 -101.5 -30.5t-40.5 -94.5l13 -250l180 260q80 115 -51 115z" glyph-name="W.aalt" horiz-adv-x="1771"/><glyph d="M516 1092q-49 0 -86 34.5t-37 84t37 84t86 34.5t86 -34.5t37 -84t-37 -84t-86 -34.5zM449 322l32 -35q-197 -307 -336 -307q-49 0 -70.5 37.5t-0.5 93.5l213 538q39 98 2 88q-49 -12 -178 -188l-31 35q197 307 334 307q51 0 72.5 -38t0.5 -93l-215 -539q-39 -98 -2 -88 q52 13 179 189z" glyph-name="i.aalt" horiz-adv-x="569"/><glyph d="M1903 899q156 0 147 -176q-6 -125 -90 -302t-199.5 -308t-201.5 -131q-39 0 -79 26.5t-40 75.5q0 37 22.5 58.5t50.5 21.5q35 0 51.5 -30t22.5 -59.5t17 -29.5q68 0 155.5 240.5t95.5 371.5q6 127 -63 127q-119 0 -285 -240.5t-268 -543.5h-162l336 985q66 240 -170 240 h-211l-327 -1012q-31 -96 -2.5 -125t139.5 -45l-11 -43h-569l12 45q106 16 154.5 47t79.5 127l328 1006h-179q-143 0 -220 -69t-146 -218h-43l135 373l88 -21h889l311 68l21 -31l-224 -670l-94 -217l15 2q133 244 266 350.5t248 106.5z" glyph-name="T_h.dlig" horiz-adv-x="2056"/><glyph d="M1438 899q84 0 133 -58.5t49 -164.5q0 -152 -95 -315.5t-246 -271t-296 -107.5q-131 0 -192.5 82.5t-24.5 193.5l354 1032q0 49 -40 76t-103 27q-47 0 -92 -12.5t-99.5 -44t-101.5 -100.5t-74 -167l-53 -188h225l-28 -82l-217 12l-181 -641q-78 -272 -203.5 -411.5 t-289.5 -139.5q-88 0 -139.5 41t-51.5 96q0 39 27 64.5t65 25.5q45 0 64.5 -32.5t17.5 -69.5q-2 -68 66 -68q70 0 120 65.5t99 238.5l238 839l-215 12l14 50h217q82 291 233.5 430t346.5 139q125 0 222 -50t97 -110l-219 -639q180 248 373 248zM1010 37q94 0 196.5 115.5 t165 269t62.5 268.5q0 113 -84 113q-80 0 -177.5 -97.5t-177.5 -261.5l-69 -202q-29 -70 -7.5 -137.5t91.5 -67.5z" glyph-name="f_b.dlig" horiz-adv-x="1648"/><glyph d="M1509 899q156 0 148 -176q-6 -125 -90 -302t-200 -308t-202 -131q-39 0 -78.5 26.5t-39.5 75.5q0 37 22.5 58.5t50.5 21.5q35 0 51.5 -30t22.5 -59.5t16 -29.5q68 0 156 240.5t96 371.5q6 127 -63 127q-119 0 -285 -240.5t-268 -543.5h-166l440 1290q0 49 -40 76t-103 27 q-47 0 -92 -12.5t-99.5 -44t-101.5 -100.5t-74 -167l-53 -188h225l-28 -82l-217 12l-181 -641q-78 -272 -203.5 -411.5t-289.5 -139.5q-90 0 -140.5 41t-50.5 94q0 39 27 65.5t65 26.5q45 0 64.5 -32.5t17.5 -69.5q-2 -68 66 -68q70 0 120 65.5t99 238.5l238 839l-215 12 l14 50h217q82 291 233.5 430t346.5 139q125 0 224 -50t99 -110l-213 -633l-94 -217l14 2q133 244 266 350.5t248 106.5z" glyph-name="f_h.dlig" horiz-adv-x="1662"/><glyph d="M1288 1290q6 -16 6 -33q0 -47 -34.5 -79.5t-82 -32.5t-82 32.5t-34.5 79.5q0 20 6 35q18 57 -3.5 79t-78.5 22q-47 0 -95 -13.5t-103.5 -46.5t-102.5 -100.5t-74 -163.5l-53 -188h217l-29 -82l-208 12l-181 -641q-78 -272 -203.5 -411.5t-289.5 -139.5q-90 0 -140.5 41 t-50.5 94q0 39 27 65.5t65 26.5q45 0 64.5 -32.5t17.5 -69.5q-2 -68 66 -68q70 0 120 65.5t99 238.5l238 839l-224 12l15 50h225q82 291 239.5 430t360.5 139q121 0 200.5 -45t102.5 -115zM1085 891q51 0 72 -38t2 -93l-194 -604q-84 -256 -185.5 -385t-253.5 -129 q-94 0 -143 44t-49 109q0 51 29.5 80t70.5 29q47 0 67.5 -38t8.5 -103.5t47 -65.5q61 0 96 61.5t95 241.5l210 649q35 111 -10 86q-47 -25 -166 -186l-30 35q196 307 333 307z" glyph-name="f_j.dlig" horiz-adv-x="1177"/><glyph d="M965 1450q125 0 224 -50t99 -110l-440 -1290h-166l438 1290q0 49 -40 76t-103 27q-47 0 -92 -12.5t-99.5 -44t-100.5 -100.5t-73 -167l-53 -188h223l-28 -82l-215 12l-181 -641q-78 -272 -204.5 -411.5t-290.5 -139.5q-88 0 -139.5 41t-51.5 96q0 39 27 64.5t65 25.5 q45 0 64.5 -32.5t17.5 -69.5q-2 -68 66 -68q70 0 121 65.5t100 238.5l238 839l-217 12l14 50h219q82 291 232.5 430t345.5 139zM1716 836q-135 -12 -327 -156l-170 -125l120 -393q23 -72 77 -76t112 51l10 -43q-115 -115 -205 -114q-113 0 -157 151l-111 385l250 178 q57 41 77.5 71t3 48t-72.5 23l16 45h396z" glyph-name="f_k.dlig" horiz-adv-x="1667"/><glyph d="M1130 809l-245 -659q-8 -25 12 -19q61 14 209 166q25 25 49 51l27 -37q-268 -330 -400 -329q-49 0 -71.5 47t-1.5 102l243 668h-456l-242 -649q-8 -25 12 -19q61 14 209 166q25 25 49 51l27 -37q-268 -330 -399 -329q-49 0 -72 47t-2 102l252 690l-168 10l14 50h176 l82 223l182 20l-90 -243h457l82 223l182 20l-90 -243h178l-28 -82z" glyph-name="t_t.dlig" horiz-adv-x="1271"/><glyph d="M1405 70q39 0 61.5 -26t22.5 -62q0 -68 -64.5 -109t-146.5 -41q-78 0 -157 46t-157.5 92t-156.5 46h-8q-2 -80 -83 -132t-169 -52q-84 0 -230.5 92t-240.5 92q-78 0 -146 -47l-24 31l733 741h-277q-164 0 -241 -170h-45l131 310h657l-717 -727q84 0 153 -43t106.5 -94.5 t84 -94.5t87.5 -43q43 0 60 38t-3 85l735 739h-276q-164 0 -242 -170h-45l131 310h657l-716 -727q68 0 123 -29t90.5 -69t66.5 -81t63.5 -68.5t67.5 -27.5q16 0 25.5 7.5t10.5 19.5t0 25.5t-3 32t-2 28.5q0 31 22.5 54.5t61.5 23.5z" glyph-name="z_z.dlig" horiz-adv-x="1589"/><glyph d="M451 -18q-154 0 -235 99t-81 269q0 215 99.5 435.5t274.5 370t368 149.5q154 0 234.5 -99.5t80.5 -269.5q0 -129 -38 -265t-107.5 -258t-159.5 -219.5t-203.5 -154.5t-232.5 -57zM496 53q125 0 244.5 171t187 388t67.5 377q0 244 -161 244q-125 0 -246 -171t-188.5 -387 t-67.5 -378q0 -244 164 -244z" glyph-name="zero.lnum" horiz-adv-x="1187"/><glyph d="M-47 0l12 47q100 12 148.5 34.5t68.5 86.5l291 899q16 51 6 68.5t-55 7.5l-100 -23l14 45l364 158l27 -33l-364 -1128q-20 -63 10.5 -85t122.5 -34l-11 -43h-534z" glyph-name="one.lnum" horiz-adv-x="722"/><glyph d="M-53 0v55q39 29 140 102.5t157.5 115.5t153 117t153.5 127t129 124t110.5 128t66.5 120.5t28 120.5q0 70 -41 111.5t-123 41.5q-86 0 -192.5 -53t-204.5 -180l-37 53q102 158 249.5 240t288.5 82q127 0 199 -72t72 -191q0 -115 -60.5 -223t-173 -206.5t-216 -172 t-249 -167t-213.5 -144.5l344 8q115 0 193 43t166 164l47 -10l-213 -371h-49l8 37h-733z" glyph-name="two.lnum" horiz-adv-x="1105"/><glyph d="M231 -25q-102 0 -180 34t-78 102q0 86 93 86q33 0 56 -25t36.5 -54.5t47.5 -54t85 -24.5q141 0 287.5 143.5t146.5 284.5q0 88 -62.5 132t-156.5 44q-78 0 -203 -43l-4 57l164 68q178 74 284.5 150.5t106.5 177.5q0 59 -40 95t-107 36q-76 0 -175.5 -42t-191.5 -124 l-25 53q109 117 239 175.5t249 58.5q115 0 174 -53.5t59 -147.5q0 -125 -96 -208t-281 -167q115 4 192 -52t77 -173q0 -141 -104.5 -265t-265.5 -194t-327 -70z" glyph-name="three.lnum" horiz-adv-x="1003"/><glyph d="M1038 1311l-282 -865h176l-47 -88h-158l-63 -196q-20 -61 8 -84t108 -35l-12 -43h-498l13 47q88 12 133 35.5t65 85.5l62 190h-469l-15 41l922 912h57zM176 446h395l191 580z" glyph-name="four.lnum" horiz-adv-x="1011"/><glyph d="M1032 1120h-485l-201 -305q268 41 398 -47t130 -252q0 -215 -200.5 -378t-442.5 -163q-102 0 -179 35t-77 107q0 37 22.5 58.5t57.5 21.5q37 0 62.5 -26t38 -55.5t45 -55t80.5 -25.5q133 0 259 136t126 296q0 129 -98.5 196.5t-313.5 22.5l-25 41l363 563h315 q88 0 137.5 13.5t90.5 54.5h45z" glyph-name="five.lnum" horiz-adv-x="960"/><glyph d="M416 -25q-152 0 -228.5 90.5t-76.5 245.5q0 225 145 453.5t369.5 377t449.5 163.5l15 -58q-145 -14 -295 -117.5t-260.5 -249t-180 -315.5t-69.5 -311q0 -98 37.5 -152.5t111.5 -54.5q145 0 268 173t123 339q0 184 -182 184q-53 0 -113 -14l17 45q88 53 198 53 q121 0 193 -72.5t72 -203.5q0 -219 -182.5 -397.5t-411.5 -178.5z" glyph-name="six.lnum" horiz-adv-x="1079"/><glyph d="M1163 1290l8 -41q-569 -612 -886 -1249h-164q303 524 854 1120h-397q-90 0 -145.5 -28.5t-133.5 -130.5h-47l221 364h39l-8 -35h659z" glyph-name="seven.lnum" horiz-adv-x="960"/><glyph d="M776 709q164 -94 164 -256q0 -190 -175 -330.5t-392 -140.5q-147 0 -233.5 73.5t-86.5 202.5q0 139 97.5 253t259.5 179q-78 84 -78 201q0 168 136 291t316 123q129 0 197 -64.5t68 -167.5q0 -106 -75 -201t-198 -163zM780 1241q-111 0 -189.5 -90t-78.5 -193 q0 -125 135 -188l62 -29q100 59 159.5 153.5t59.5 190.5q0 70 -37 113t-111 43zM387 47q141 0 249.5 110.5t108.5 231.5q0 66 -41.5 110t-140.5 93l-47 22q-31 16 -55 31q-129 -61 -202 -163.5t-73 -223.5q0 -98 53.5 -154.5t147.5 -56.5z" glyph-name="eight.lnum" horiz-adv-x="1044"/><glyph d="M791 1305q152 0 228.5 -90.5t76.5 -245.5q0 -225 -145.5 -453.5t-370 -377t-449.5 -163.5l-14 58q145 14 294.5 117.5t260 249t180.5 315.5t70 311q0 98 -38 152.5t-112 54.5q-145 0 -268 -173t-123 -339q0 -184 182 -184q53 0 113 14l-17 -45q-88 -53 -198 -53 q-121 0 -192.5 72.5t-71.5 203.5q0 219 182.5 397.5t411.5 178.5z" glyph-name="nine.lnum" horiz-adv-x="1067"/><glyph d="M481 -18q-154 0 -234.5 99t-80.5 269q0 215 99.5 435.5t274.5 370t367 149.5q154 0 235 -99.5t81 -269.5q0 -129 -38 -265t-107.5 -258t-160 -219.5t-204 -154.5t-232.5 -57zM526 53q125 0 245 171t187.5 388t67.5 377q0 244 -162 244q-125 0 -245.5 -171t-188.5 -387 t-68 -378q0 -244 164 -244z" glyph-name="zero.tnum" horiz-adv-x="1228"/><glyph d="M205 0l12 47q100 12 148.5 34.5t68.5 86.5l291 899q16 51 6 68.5t-55 7.5l-101 -23l15 45l364 158l27 -33l-365 -1128q-20 -63 10.5 -85t123.5 -34l-11 -43h-534z" glyph-name="one.tnum" horiz-adv-x="1228"/><glyph d="M41 0v55q39 29 140.5 102.5t157.5 115.5t152.5 117t153.5 127t129 124t111 128t66.5 120.5t27.5 120.5q0 70 -41 111.5t-123 41.5q-86 0 -192.5 -53t-204.5 -180l-37 53q102 158 249.5 240t289.5 82q127 0 198.5 -72t71.5 -191q0 -115 -60.5 -223t-173 -206.5t-216 -172 t-249 -167t-212.5 -144.5l344 8q115 0 192.5 43t165.5 164l47 -10l-213 -371h-49l8 37h-733z" glyph-name="two.tnum" horiz-adv-x="1228"/><glyph d="M348 -25q-102 0 -180 34t-78 102q0 86 92 86q33 0 56.5 -25t37 -54.5t47 -54t85.5 -24.5q141 0 287.5 143.5t146.5 284.5q0 88 -62.5 132t-156.5 44q-78 0 -203 -43l-4 57l164 68q178 74 284.5 150.5t106.5 177.5q0 59 -40 95t-108 36q-76 0 -175 -42t-191 -124l-25 53 q109 117 239 175.5t249 58.5q115 0 174 -53.5t59 -147.5q0 -125 -96 -208t-281 -167q115 4 191.5 -52t76.5 -173q0 -141 -104 -265t-265 -194t-327 -70z" glyph-name="three.tnum" horiz-adv-x="1228"/><glyph d="M1130 1311l-282 -865h176l-47 -88h-158l-63 -196q-20 -61 8.5 -84t107.5 -35l-12 -43h-498l13 47q88 12 133 35.5t65 85.5l62 190h-469l-14 41l921 912h57zM268 446h396l190 580z" glyph-name="four.tnum" horiz-adv-x="1228"/><glyph d="M1145 1120h-486l-200 -305q268 41 398 -47t130 -252q0 -215 -200.5 -378t-442.5 -163q-102 0 -179 35t-77 107q0 37 22.5 58.5t57.5 21.5q37 0 62.5 -26t38 -55.5t44 -55t80.5 -25.5q133 0 259 136t126 296q0 129 -98 196.5t-313 22.5l-25 41l363 563h315q88 0 137 13.5 t90 54.5h45z" glyph-name="five.tnum" horiz-adv-x="1228"/><glyph d="M489 -25q-152 0 -228.5 90.5t-76.5 245.5q0 225 145.5 453.5t370 377t449.5 163.5l14 -58q-145 -14 -294.5 -117.5t-260 -249t-180.5 -315.5t-70 -311q0 -98 38 -152.5t112 -54.5q145 0 268 173t123 339q0 184 -182 184q-53 0 -113 -14l17 45q88 53 198 53 q121 0 192.5 -72.5t71.5 -203.5q0 -219 -182.5 -397.5t-411.5 -178.5z" glyph-name="six.tnum" horiz-adv-x="1228"/><glyph d="M1282 1290l8 -41q-569 -612 -887 -1249h-163q303 524 854 1120h-398q-90 0 -145 -28.5t-133 -130.5h-47l221 364h39l-8 -35h659z" glyph-name="seven.tnum" horiz-adv-x="1228"/><glyph d="M860 709q164 -94 164 -256q0 -190 -175 -330.5t-392 -140.5q-147 0 -233.5 73.5t-86.5 202.5q0 139 97.5 253t259.5 179q-78 84 -78 201q0 168 136 291t316 123q129 0 197 -64.5t68 -167.5q0 -106 -75 -201t-198 -163zM864 1241q-111 0 -189.5 -90t-78.5 -193 q0 -125 135 -188l62 -29q100 59 159.5 153.5t59.5 190.5q0 70 -37 113t-111 43zM471 47q141 0 249.5 110.5t108.5 231.5q0 66 -42 110t-140 93l-47 22q-31 16 -55 31q-129 -61 -202 -163.5t-73 -223.5q0 -98 53.5 -154.5t147.5 -56.5z" glyph-name="eight.tnum" horiz-adv-x="1228"/><glyph d="M903 1305q152 0 228.5 -90.5t76.5 -245.5q0 -225 -145 -453.5t-369.5 -377t-449.5 -163.5l-15 58q145 14 295 117.5t260.5 249t180 315.5t69.5 311q0 98 -38 152.5t-111 54.5q-145 0 -268 -173t-123 -339q0 -184 182 -184q53 0 112 14l-16 -45q-88 -53 -199 -53 q-121 0 -192.5 72.5t-71.5 203.5q0 219 182.5 397.5t411.5 178.5z" glyph-name="nine.tnum" horiz-adv-x="1228"/><glyph d="M135 -20q-63 0 -98 43t-35 114q0 135 88 252t209 117q63 0 98 -43t35 -117q0 -133 -88 -249.5t-209 -116.5zM150 12q70 0 132 140.5t62 236.5q0 84 -57 84q-70 0 -132.5 -138t-62.5 -239q1 -84 58 -84z" glyph-name="zero.dnom" horiz-adv-x="565"/><glyph d="M-49 0l6 23q76 8 90 55l98 301q8 23 5 39t-17 14l-39 -6l8 23l162 67l12 -12l-139 -432q-8 -25 3.5 -35t47.5 -14l-6 -23h-231z" glyph-name="one.dnom" horiz-adv-x="417"/><glyph d="M-53 0l2 31q20 14 81.5 58t100.5 72.5t86 70.5t70.5 80t23.5 71q0 25 -16 47.5t-51 22.5q-70 0 -152 -97l-10 37q82 123 209 123q55 0 85 -30.5t30 -82.5q0 -57 -43.5 -114.5t-85 -88t-119.5 -79.5t-92 -60l118 9q88 0 146 86l22 -13l-82 -143h-323z" glyph-name="two.dnom" horiz-adv-x="530"/><glyph d="M59 -20q-43 0 -75.5 12t-32.5 37q0 20 13 31.5t29.5 11.5t36 -32t52.5 -32q59 0 109.5 52.5t50.5 111.5q0 72 -86 72q-33 0 -72 -15l-2 25l65 25q72 27 110 54t38 73q0 43 -59 43q-76 0 -136 -56l-12 17q90 96 201 96q94 0 94 -76q0 -86 -150 -147q106 -8 107 -93 q0 -80 -90.5 -145t-190.5 -65z" glyph-name="three.dnom" horiz-adv-x="507"/><glyph d="M371 504l-107 -328h68l-21 -41h-61l-23 -69q-8 -25 3.5 -33t50.5 -13l-7 -20h-229l8 20q43 4 58.5 12.5t23.5 33.5l23 69h-199l6 41l320 328h86zM2 176h170l84 260z" glyph-name="four.dnom" horiz-adv-x="466"/><glyph d="M365 416h-189l-65 -103q223 14 223 -102q0 -88 -91 -159.5t-194 -71.5q-109 0 -108 49q0 16 13 29.5t30 13.5q18 0 37.5 -32t54.5 -32q55 0 104 52.5t49 109.5q0 88 -176 76l-8 16l148 230h122q72 0 97 24h16z" glyph-name="five.dnom" horiz-adv-x="520"/><glyph d="M154 -20q-66 0 -100 34.5t-34 94.5q0 135 128 261t270 136l4 -27q-119 -12 -216 -140t-97 -251q0 -78 59 -78t103 72t44 135q0 82 -106 74l8 26q78 23 136.5 -3.5t58.5 -94.5q0 -90 -81 -164.5t-177 -74.5z" glyph-name="six.dnom" horiz-adv-x="571"/><glyph d="M422 504l4 -12q-231 -256 -358 -492h-60q115 195 334 436h-152q-37 0 -59 -10t-51 -49h-17l82 135l31 -8h246z" glyph-name="seven.dnom" horiz-adv-x="460"/><glyph d="M410 377q-20 -59 -97 -107q86 -47 56 -137q-23 -70 -89.5 -111.5t-148.5 -41.5q-78 0 -116 38.5t-17 104.5q31 84 123 129q-35 47 -15 110q18 57 75 97.5t124 40.5q63 0 92 -37t13 -86zM350 375q14 31 1 60.5t-58 29.5q-78 0 -103 -74q-20 -57 52 -88l41 -18q51 35 67 90 zM272 102q10 35 -2 53.5t-57 41.5l-45 20q-16 8 -23 14q-63 -37 -86 -102q-16 -51 6.5 -83t81.5 -32q96 0 125 88z" glyph-name="eight.dnom" horiz-adv-x="569"/><glyph d="M283 498q66 0 99.5 -35t33.5 -94q0 -135 -128 -261t-270 -137l-4 27q119 12 216.5 140t97.5 251q0 78 -59.5 78t-103.5 -71.5t-44 -135.5q0 -82 106 -74l-8 -26q-78 -23 -136 3.5t-58 94.5q0 90 81 165t177 75z" glyph-name="nine.dnom" horiz-adv-x="559"/><glyph d="M401 797q-63 0 -98 43t-35 114q0 135 88 252t209 117q63 0 98 -43t35 -117q0 -133 -88 -249.5t-209 -116.5zM416 829q70 0 132 140.5t62 236.5q0 84 -57 84q-70 0 -132.5 -138t-62.5 -239q1 -84 58 -84z" glyph-name="zero.numr" horiz-adv-x="565"/><glyph d="M217 815l6 23q76 8 90 55l99 301q8 23 5 39t-18 14l-39 -6l9 23l161 67l13 -12l-140 -432q-8 -25 3.5 -35t48.5 -14l-6 -23h-232z" glyph-name="one.numr" horiz-adv-x="419"/><glyph d="M207 805l2 31q20 14 81.5 58t100.5 72.5t86 70.5t70.5 80t23.5 71q0 25 -16 47t-51 22q-70 0 -152 -96l-10 37q82 123 209 123q55 0 85 -30.5t30 -82.5q0 -57 -43 -114.5t-85 -88t-120 -79.5t-92 -60l118 8q88 0 146 87l22 -13l-82 -143h-323z" glyph-name="two.numr" horiz-adv-x="530"/><glyph d="M322 786q-43 0 -76 12.5t-33 37.5q0 20 13.5 31.5t29.5 11.5t35.5 -32t52.5 -32q59 0 109.5 52.5t50.5 111.5q0 72 -86 72q-33 0 -72 -15l-2 25l66 24q72 27 109.5 54.5t37.5 72.5q0 43 -59 43q-76 0 -136 -55l-12 17q90 96 201 96q94 0 94 -76q0 -86 -149 -147 q106 -8 106 -93q0 -80 -90 -145.5t-190 -65.5z" glyph-name="three.numr" horiz-adv-x="507"/><glyph d="M631 1305l-107 -328h68l-21 -41h-61l-23 -70q-8 -25 3.5 -33t50.5 -12l-6 -20h-230l8 20q43 4 58.5 12.5t23.5 32.5l23 70h-199l6 41l320 328h86zM262 977h170l84 260z" glyph-name="four.numr" horiz-adv-x="466"/><glyph d="M631 1235h-189l-65 -102q223 14 223 -103q0 -88 -91 -159.5t-194 -71.5q-109 0 -108 49q0 16 13 29.5t30 13.5q18 0 37.5 -32t54.5 -32q55 0 104.5 52.5t49.5 109.5q0 88 -177 76l-8 16l148 230h123q72 0 96 24h16z" glyph-name="five.numr" horiz-adv-x="520"/><glyph d="M416 784q-66 0 -99.5 35t-33.5 94q0 135 128 261t269 137l4 -27q-119 -12 -216 -140t-97 -251q0 -78 59 -78t103.5 71.5t44.5 135.5q0 82 -107 74l8 26q78 23 136.5 -3.5t58.5 -94.5q0 -90 -81 -165t-177 -75z" glyph-name="six.numr" horiz-adv-x="571"/><glyph d="M686 1319l4 -12q-231 -256 -358 -492h-60q115 195 334 436h-151q-37 0 -59.5 -10t-51.5 -49h-16l82 135l30 -8h246z" glyph-name="seven.numr" horiz-adv-x="460"/><glyph d="M676 1192q-20 -59 -96 -107q86 -47 55 -137q-23 -70 -89.5 -111.5t-148.5 -41.5q-78 0 -115.5 38.5t-17.5 104.5q31 84 123 129q-35 47 -14 111q18 57 74.5 97t123.5 40q63 0 92 -37t13 -86zM616 1190q14 31 1 60.5t-58 29.5q-78 0 -102 -74q-20 -57 51 -88l41 -18 q51 35 67 90zM539 918q10 35 -2.5 53t-57.5 41l-45 20q-16 8 -22 15q-63 -37 -86 -103q-16 -51 6 -83t82 -32q96 1 125 89z" glyph-name="eight.numr" horiz-adv-x="571"/><glyph d="M545 1305q66 0 99.5 -35t33.5 -94q0 -135 -128 -261.5t-269 -136.5l-5 27q119 12 216.5 140t97.5 251q0 78 -59.5 78t-103.5 -72t-44 -135q0 -82 106 -74l-8 -26q-78 -23 -136 3.5t-58 94.5q0 90 81 165t177 75z" glyph-name="nine.numr" horiz-adv-x="559"/></font>
</defs>
</svg>
