<?xml version="1.0" standalone="no"?>
<!DOCTYPE svg PUBLIC "-//W3C//DTD SVG 1.1//EN" "http://www.w3.org/Graphics/SVG/1.1/DTD/svg11.dtd">
<svg xmlns="http://www.w3.org/2000/svg"><metadata>This SVG WebFont was generated by YouWorkForThem.
Copyright Â© 2016 by Connary Fagen. All rights reserved.</metadata><defs><font horiz-adv-x="1445" id="ywftsvg"><font-face ascent="1638" bbox="-358 -682 2357 1847" cap-height="1290" descent="-410" font-family="" font-stretch="normal" font-weight="500" panose-1="0 0 6 0 0 0 0 0 0 0" underline-position="0" underline-thickness="0" unicode-range="U+0020-FB02" units-per-em="2048" x-height="901"/><missing-glyph d="M819 1638v-1996h-633v1996h633zM666 1505h-330v-65h129v-76h-131v-66h332v66h-134v76h134v65zM532 1247h-198v-207h332v68h-134v139zM465 1180v-72h-66v72h66zM666 985h-332v-65h131v-74h-131v-66h198v140h134v65zM666 866h-66v-133h-266v-67h332v200zM666 623h-201v-113 h67v47h68v-94h-201v160h-65v-226h332v226zM666 276h-332v-225h332v225zM600 211v-94h-201v94h201zM666 4h-332v-65h139l-139 -95v-65h332v65h-205l139 95h66v65z" horiz-adv-x="999"/><glyph d="M784 1352q-135 0 -242.5 -105.5t-107.5 -316.5v-31l205 21q-10 -43 -10 -103h-195v-655q0 -33 13.5 -53.5t48 -31.5t61.5 -16.5t88 -11.5v-49h-594v49q37 6 51.5 9t40 11.5t34.5 18.5t18.5 28.5t9.5 45.5v655h-154v51l154 31q12 244 188 383t408 139q96 0 199.5 -25.5 t140.5 -95.5q16 -29 16 -61q0 -53 -41 -92t-96 -39q-53 0 -94 39t-41 92v2h-2q4 59 -18 85t-81 26zM1143 162q0 -33 7 -53.5t29.5 -31.5t39 -15.5t59.5 -12.5v-49h-492v49q43 8 59.5 12.5t39 15.5t30 31.5t7.5 53.5v479q0 61 -26 90t-110 39v45q193 33 314 119l43 -39v-733z " glyph-name="uniFB01" horiz-adv-x="1337" unicode="fi"/><glyph d="M1106 162q0 -57 31.5 -78t103.5 -33q10 -2 14 -2v-49h-520v49q100 18 125 41t25 72v966q0 80 -62.5 135.5t-179.5 55.5q-209 0 -209 -268v-152l236 21q-10 -43 -11 -103h-225v-655q0 -33 13.5 -53.5t48 -31.5t61.5 -16.5t88 -11.5v-49h-594v49q37 6 51.5 9t40 11.5 t34.5 18.5t18.5 28.5t9.5 45.5v655h-154v51l154 31q2 250 149.5 381t382.5 131q223 0 369 -70v-1179z" glyph-name="uniFB02" horiz-adv-x="1316" unicode="fl"/><glyph d="M1389 1430q182 0 231 -121q-2 -51 -47 -88t-109 -47q-55 164 -157 163q-160 0 -160 -268v-154l239 9h7h10q-10 -45 -10 -103h-246v-659q0 -33 13.5 -53.5t48 -31.5t61 -16.5t88.5 -11.5v-49h-594v49q37 6 51 9t40 11.5t35 18.5t18.5 28.5t9.5 45.5v659h-484v-659 q0 -33 13.5 -53.5t48 -31.5t61.5 -16.5t88 -11.5v-49h-594v49q37 6 51.5 9t40 11.5t34.5 18.5t18.5 28.5t9.5 45.5v659h-154v49l154 31h2q12 227 138 350t300 123q166 0 215 -121q-2 -51 -44 -88t-103 -47q-14 63 -54.5 113.5t-89.5 50.5q-31 0 -58.5 -18.5t-52 -82 t-24.5 -167.5v-123l484 16q0 250 137 386.5t334 136.5z" glyph-name="f_f.liga" horiz-adv-x="1484" unicode="ff"/><glyph d="M1155 162q0 -33 13.5 -53.5t48 -31.5t61.5 -16.5t90 -11.5v-49h-594v49q37 6 51.5 9t40 11.5t34.5 18.5t18.5 28.5t9.5 45.5v659h-494v-659q0 -33 13.5 -53.5t48 -31.5t61.5 -16.5t88 -11.5v-49h-594v49q37 6 51.5 9t40 11.5t34.5 18.5t18.5 28.5t9.5 45.5v659h-154v49 l154 31h2q12 227 135 350t297 123q166 0 215 -121q-2 -51 -44 -88t-103 -47q-14 63 -54.5 113.5t-89.5 50.5q-31 0 -56.5 -18.5t-49 -82t-23.5 -167.5v-121l496 16q8 162 97 281t218 175t279 56q45 0 95 -6t113.5 -22.5t104.5 -55.5t41 -96v-2q0 -53 -41 -92t-96 -39 q-53 0 -94 39t-41 92v2q2 59 -19.5 85t-79.5 26q-135 0 -243.5 -105.5t-108.5 -316.5v-12l211 6q-10 -45 -10 -103h-201v-659zM1864 162q0 -33 7 -53.5t29.5 -31.5t39 -15.5t59.5 -12.5v-49h-492v49q43 8 59.5 12.5t39 15.5t29.5 31.5t7 53.5v479q0 61 -25.5 90t-109.5 39 v45q193 33 314 119l43 -39v-733z" glyph-name="f_f_i.liga" horiz-adv-x="2060" unicode="ffi"/><glyph d="M819 1638v-1996h-633v1996h633zM666 1505h-330v-65h129v-76h-131v-66h332v66h-134v76h134v65zM532 1247h-198v-207h332v68h-134v139zM465 1180v-72h-66v72h66zM666 985h-332v-65h131v-74h-131v-66h198v140h134v65zM666 866h-66v-133h-266v-67h332v200zM666 623h-201v-113 h67v47h68v-94h-201v160h-65v-226h332v226zM666 276h-332v-225h332v225zM600 211v-94h-201v94h201zM666 4h-332v-65h139l-139 -95v-65h332v65h-205l139 95h66v65z" glyph-name=".notdef" horiz-adv-x="999"/><glyph glyph-name="glyph1" horiz-adv-x="0"/><glyph glyph-name="glyph2" horiz-adv-x="681"/><glyph glyph-name="space" horiz-adv-x="450" unicode=" "/><glyph d="M213 383l-94 823q-14 131 123 131q139 0 123 -131l-95 -823h-57zM262 -20q-57 0 -98 40.5t-41 98.5q0 55 41 95t98 40t98 -40t41 -95q0 -57 -41 -98t-98 -41z" glyph-name="exclam" horiz-adv-x="483" unicode="!"/><glyph d="M158 795l-72 376q-10 51 15.5 85t74.5 34t74.5 -33.5t15.5 -85.5l-76 -376h-32zM438 795l-71 376q-10 51 15.5 85t74.5 34t74.5 -33.5t15.5 -85.5l-76 -376h-33z" glyph-name="quotedbl" horiz-adv-x="630" unicode="&quot;"/><glyph d="M1077 854h-200l-91 -389h205l-24 -103h-205l-96 -423h-115l98 423h-250l-96 -423h-115l99 423h-205l27 103h200l90 389h-204l24 100h203l98 422h113l-96 -422h247l99 422h112l-96 -422h205zM672 465l90 389h-248l-90 -389h248z" glyph-name="numbersign" horiz-adv-x="1185" unicode="#"/><glyph d="M1016 381q0 -143 -120 -236.5t-306 -105.5v-166h-68v164q-225 4 -403 117l-17 241h56q39 -131 135 -211t229 -82v469q-4 2 -12 5.5t-12 5.5q-80 35 -134.5 64.5t-115 74.5t-91 105.5t-30.5 131.5q0 131 102.5 213t292.5 91v165h68v-165q35 -2 67.5 -6.5t58 -9.5t52.5 -14 t43 -15.5t38.5 -17.5t32 -16t29 -16.5t23.5 -13.5l6 -244h-51q-80 270 -299 287v-405l16 -7q68 -29 106 -46t104.5 -57t103 -78t66.5 -97t30 -125zM348 1022q0 -113 174 -199v371q-86 -10 -130 -58t-44 -114zM590 109q86 14 137 71.5t51 134.5q0 72 -46 124.5t-142 101.5 v-432z" glyph-name="dollar" horiz-adv-x="1107" unicode="$"/><glyph d="M1108 1290h129l-915 -1290h-113l811 1130q-166 -100 -371 -2q6 -31 6 -63q0 -156 -97 -281t-236 -125q-100 0 -160 67t-60 175q0 154 103.5 274.5t247.5 120.5q82 0 131 -43q92 -53 153.5 -78.5t130 -32.5t127 29.5t113.5 118.5zM365 725q88 0 155.5 109.5t67.5 228.5 q0 78 -34 124t-89 46q-61 0 -110.5 -60.5t-72 -138.5t-22.5 -149q0 -74 27 -117t78 -43zM1135 633q96 0 149 -62.5t53 -169.5q0 -156 -97 -280.5t-236 -124.5q-100 0 -160 66.5t-60 175.5q0 154 104 274.5t247 120.5zM1047 63q88 0 155.5 110t67.5 228q0 78 -34 123t-89 45 q-92 0 -148.5 -113.5t-56.5 -232.5q1 -160 105 -160z" glyph-name="percent" horiz-adv-x="1439" unicode="%"/><glyph d="M1114 143q37 -45 150.5 -22.5t210.5 94.5v-59q-76 -78 -185.5 -128.5t-193.5 -47.5q-90 0 -189 112q-172 -113 -370 -112q-111 0 -212.5 35.5t-177 122.5t-75.5 210q0 139 85 227.5t230 151.5q-76 117 -76 211q0 139 115 227t266 88q109 0 190 -49t81 -153 q0 -178 -314 -359q8 -12 15 -18l307 -363q80 123 80 215q0 88 -177 88v62h570v-62q-94 -2 -146.5 -25.5t-76.5 -90.5q-53 -156 -168 -283zM637 1184q-57 0 -96 -43t-39 -127q0 -125 110 -277q162 127 162 287q0 68 -37 114t-100 46zM307 385q0 -150 91 -241t204 -91 q121 0 244 113l-361 430l-49 61q-129 -100 -129 -272z" glyph-name="ampersand" horiz-adv-x="1536" unicode="&amp;"/><glyph d="M158 795l-72 376q-10 51 15.5 85t74.5 34t74.5 -33.5t15.5 -85.5l-76 -376h-32z" glyph-name="quotesingle" horiz-adv-x="350" unicode="'"/><glyph d="M565 -326q-463 309 -463 932t463 932l51 -12q-305 -344 -299 -920q6 -580 289 -909z" glyph-name="parenleft" horiz-adv-x="657" unicode="("/><glyph d="M92 -326l-41 23q283 330 289 909q6 575 -299 920l51 12q463 -309 463 -932t-463 -932z" glyph-name="parenright" horiz-adv-x="657" unicode=")"/><glyph d="M373 1069l-49 119q-23 55 0.5 85t64.5 30t64.5 -30t3.5 -85l-49 -119q-6 -16 -17.5 -16t-17.5 16zM307 1008l-125 22q-57 10 -72.5 48t9.5 67q20 35 54 39t77 -41l78 -103q10 -12 2.5 -23t-23.5 -9zM471 1008q-14 -2 -21.5 9t3.5 23l77 103q41 45 75 41t57 -39 q25 -29 9 -67t-73 -48zM117 831q-23 27 -7.5 66t72.5 47l125 23q16 2 23.5 -9.5t-2.5 -21.5l-78 -102q-43 -45 -78 -41.5t-55 38.5zM662 831q-20 -35 -55.5 -39t-76.5 42l-77 102q-10 10 -3 21.5t21 9.5l127 -23q57 -8 73 -47t-9 -66zM389 674q-41 0 -64.5 28.5t-0.5 83.5 l47 121q6 14 18 14.5t19 -14.5l47 -121q23 -55 -1 -83.5t-65 -28.5z" glyph-name="asterisk" horiz-adv-x="778" unicode="*"/><glyph d="M901 586v-142h-307v-311h-141v311h-310v142h310v307h141v-307h307z" glyph-name="plus" horiz-adv-x="1044" unicode="+"/><glyph d="M100 -309l-18 49q154 55 182 170q12 53 -41 84q-80 47 -80 125q0 57 40 96t100 39q61 0 104 -48t43 -132q0 -121 -88 -233.5t-242 -149.5z" glyph-name="comma" horiz-adv-x="512" unicode=","/><glyph d="M123 473v105h635v-105h-635z" glyph-name="hyphen" horiz-adv-x="880" unicode="-"/><glyph d="M241.5 -20q-57.5 0 -98.5 40.5t-41 98.5q0 55 41 95t98.5 40t98.5 -40t41 -95q0 -57 -41 -98t-98.5 -41z" glyph-name="period" horiz-adv-x="483" unicode="."/><glyph d="M61 -131l641 1673l125 -55l-641 -1671z" glyph-name="slash" horiz-adv-x="827" unicode="/"/><glyph d="M557 -18q-199 0 -337 127t-138 335q0 217 146.5 346.5t351.5 129.5q201 0 338 -126t137 -337q0 -217 -146.5 -346t-351.5 -129zM586 53q98 0 165.5 92.5t67.5 266.5q0 180 -72.5 309t-193.5 129q-100 0 -167 -92t-67 -269q0 -178 72 -307t195 -129z" glyph-name="zero" horiz-adv-x="1136" unicode="0"/><glyph d="M508 162q0 -27 9 -45.5t19.5 -28.5t41 -18.5t51 -11.5t73.5 -9v-49h-610v49q53 6 73.5 9t51.5 11.5t41 18.5t19.5 28.5t9.5 45.5v577q0 61 -40 81t-155 32v49h610v-49q-61 -6 -88.5 -11t-56.5 -16.5t-39 -32t-10 -53.5v-577z" glyph-name="one" horiz-adv-x="794" unicode="1"/><glyph d="M100 0l-18 43q14 12 45 37q109 90 166 139t135 129t112.5 149.5t34.5 137t-40.5 114t-131.5 46.5q-154 0 -243 -146l-47 27q49 117 151.5 180.5t224.5 63.5q135 0 225.5 -72t90.5 -182q0 -37 -11.5 -74t-28.5 -68.5t-47 -66.5t-54.5 -60.5t-65.5 -57.5t-65.5 -50.5 t-67.5 -46t-60.5 -38.5t-55.5 -32.5t-42 -24.5h256q100 0 152.5 23t87.5 106h51l-82 -299h-51l-4 23h-617z" glyph-name="two" horiz-adv-x="935" unicode="2"/><glyph d="M389 -389q-115 0 -211 38t-96 113q0 37 23.5 56.5t54.5 19.5q33 0 63.5 -24.5t53 -55t60.5 -55.5t85 -25q94 0 182 84t88 224q0 135 -82 202.5t-207 67.5q-84 0 -174 -35l-20 58l143 67q152 70 212.5 123t60.5 139q0 80 -48.5 127t-136.5 47q-164 0 -278 -145l-41 39 q147 244 403 244q137 0 224.5 -72t85.5 -189q0 -98 -68 -167.5t-199 -133.5q145 -10 252 -87.5t107 -227.5q0 -180 -163 -306t-374 -126z" glyph-name="three" horiz-adv-x="1007" unicode="3"/><glyph d="M1020 -10h-174v-187q0 -61 33.5 -80.5t119.5 -31.5v-49h-538v49q37 6 52 9t40 11t35 18.5t18 29t8 44.5v187h-522l-31 45l707 897h78v-848h194zM184 84h430v551z" glyph-name="four" horiz-adv-x="1122" unicode="4"/><glyph d="M264 442q186 29 315.5 7.5t209 -90t115.5 -147.5t36 -163q0 -180 -151.5 -309t-374.5 -129q-51 0 -105.5 8t-106.5 24.5t-86 47t-34 71.5q0 37 25.5 56.5t60.5 19.5t67.5 -24.5t54 -55t61.5 -55.5t91 -25q102 0 180 85t78 214q0 76 -28.5 144.5t-91 125t-159.5 72 t-235 -15.5l-36 39l198 559h344q78 0 111 2t68.5 16.5t58.5 43.5h45l-80 -244h-530z" glyph-name="five" horiz-adv-x="1056" unicode="5"/><glyph d="M596 -25q-238 0 -367 157t-127 394q0 213 116 392.5t287 277.5t355 109l33 -60q-223 -20 -387 -217t-164 -536q0 -199 66.5 -323t197.5 -124q121 0 184.5 103.5t63.5 252.5q0 180 -96 276.5t-289 53.5v55q104 53 215 46t201 -51t147.5 -137t57.5 -212q0 -193 -137.5 -325 t-356.5 -132z" glyph-name="six" horiz-adv-x="1171" unicode="6"/><glyph d="M987 901l23 -31q-410 -616 -559 -1259h-181q160 510 564 1108h-445q-76 0 -111.5 -6t-75.5 -39t-73 -105h-47l113 367h47l4 -35h741z" glyph-name="seven" horiz-adv-x="1060" unicode="7"/><glyph d="M788 707q270 -115 271 -349q0 -168 -139.5 -278.5t-348.5 -110.5q-201 0 -335 99.5t-134 263.5q0 211 230 336q-143 113 -144 282q0 143 113 241.5t287 98.5q164 0 266 -90t102 -217q0 -157 -168 -276zM588 1225q-98 0 -148.5 -62.5t-50.5 -144.5q0 -74 45 -137.5 t139 -96.5l123 -43q109 94 109 236q0 96 -53 172t-164 76zM586 39q121 0 184.5 67.5t63.5 180.5q0 100 -51.5 155.5t-176.5 100.5l-137 49q-41 16 -59 26q-145 -102 -146 -272q0 -133 88.5 -220t233.5 -87z" glyph-name="eight" horiz-adv-x="1161" unicode="8"/><glyph d="M575 920q238 0 367 -157t127 -394q0 -213 -115.5 -392.5t-286.5 -277.5t-356 -109l-32 60q223 20 386.5 216.5t163.5 536.5q0 199 -66.5 323t-197.5 124q-121 0 -184.5 -103.5t-63.5 -252.5q0 -180 96.5 -276.5t288.5 -53.5v-55q-104 -53 -214.5 -46t-200.5 51 t-147.5 137t-57.5 212q0 193 137 325t356 132z" glyph-name="nine" horiz-adv-x="1171" unicode="9"/><glyph d="M241.5 645q-57.5 0 -98.5 41t-41 98q0 55 41 95.5t98.5 40.5t98.5 -40t41 -96q0 -57 -41 -98t-98.5 -41zM243.5 -20q-57.5 0 -98.5 40.5t-41 98.5q0 55 41 95t98.5 40t98.5 -40t41 -95q0 -57 -41 -98t-98.5 -41z" glyph-name="colon" horiz-adv-x="485" unicode=":"/><glyph d="M299 643q-57 0 -98 41t-41 98q0 55 41 95.5t98 40.5t98 -40t41 -96q0 -57 -41 -98t-98 -41zM100 -309l-18 49q154 55 182 170q12 53 -41 84q-80 47 -80 125q0 57 40 96t100 39q61 0 104 -48t43 -132q0 -121 -88 -233.5t-242 -149.5z" glyph-name="semicolon" horiz-adv-x="520" unicode=";"/><glyph d="M907 92q-358 195 -764 350v142q406 156 764 350v-164q-274 -147 -598 -256q324 -111 598 -256v-166z" glyph-name="less" horiz-adv-x="1050" unicode="&lt;"/><glyph d="M143 629v141h758v-141h-758zM143 260v141h758v-141h-758z" glyph-name="equal" horiz-adv-x="1044" unicode="="/><glyph d="M143 92v166q274 145 598 256q-324 109 -598 256v164q358 -195 764 -350v-142q-406 -155 -764 -350z" glyph-name="greater" horiz-adv-x="1050" unicode=">"/><glyph d="M438 399q-27 53 -21.5 109.5t28 96.5t56.5 91.5t65.5 96.5t54 110.5t22.5 134.5q0 231 -260 232q-57 0 -82 -58q-41 -106 -74.5 -148t-79.5 -42q-37 0 -61.5 23.5t-24.5 62.5q0 102 159 171t321 69q168 0 263 -87t95 -233q0 -80 -31.5 -147.5t-79 -110.5t-101.5 -88 t-100 -82t-75 -89t-25 -112h-49zM463 -23q-57 0 -98 41t-41 99q0 55 41 95t98 40t98 -40t41 -95q0 -57 -41 -98.5t-98 -41.5z" glyph-name="question" horiz-adv-x="980" unicode="?"/><glyph d="M1243 899l-98 -483q-29 -150 84 -150q88 0 162.5 103.5t74.5 267.5q0 266 -164.5 432t-427.5 166q-276 0 -444 -191.5t-168 -470.5q0 -270 167 -459.5t435 -189.5q186 0 377 111l41 -31q-190 -143 -442 -143q-309 0 -523.5 206.5t-214.5 505.5q0 303 219.5 515t542.5 212 q301 0 487.5 -191t186.5 -472q0 -190 -97.5 -308t-236.5 -118q-39 0 -76.5 7t-80.5 42t-46 96q-104 -139 -264 -139q-111 0 -184.5 70.5t-73.5 212.5q0 184 123 305t270 121q158 0 205 -148l25 121h141zM786 283q84 0 152 77.5t94 192.5l8 37q6 37 7 78q0 201 -156 200 q-111 0 -178.5 -114.5t-67.5 -257.5q0 -106 39 -159.5t102 -53.5z" glyph-name="at" horiz-adv-x="1640" unicode="@"/><glyph d="M1255 164q29 -66 55.5 -82t114.5 -33v-49h-563v49q10 2 36 7t35 8.5t27.5 9.5t23.5 13t11 17.5t4 25.5t-10 34l-98 229h-512l-96 -229q-8 -18 -10.5 -33.5t4 -26t11.5 -17.5t22.5 -13t26.5 -9.5t34.5 -8.5t36.5 -7v-49h-388v49q66 12 86.5 18.5t43 28t43.5 68.5l485 1141 h84zM410 467h448l-229 528z" glyph-name="A" unicode="A"/><glyph d="M911 678q371 -80 371 -330q0 -172 -167 -260t-456 -88h-598v49q104 20 132 41q39 33 38 121v868q0 47 -7 76t-35.5 46.5t-42 21.5t-68.5 14q-10 2 -17 4v49h598q244 0 389.5 -75.5t145.5 -227.5q0 -225 -283 -309zM940 965q0 111 -64.5 179t-238.5 68q-94 0 -127 -23.5 t-33 -76.5v-403h172q164 0 227.5 67.5t63.5 188.5zM692 78q317 0 318 258q0 127 -90.5 214t-309.5 87h-133v-404q0 -80 47 -117.5t168 -37.5z" glyph-name="B" horiz-adv-x="1374" unicode="B"/><glyph d="M795 -25q-307 0 -500 189.5t-193 480.5q0 293 200 485.5t519 192.5q244 0 402 -94q8 -186 14 -277h-80q-68 293 -362 293q-205 0 -315.5 -142t-110.5 -388q0 -279 152.5 -456t387.5 -177q219 0 320 108l43 -45q-66 -74 -192.5 -122t-284.5 -48z" glyph-name="C" horiz-adv-x="1374" unicode="C"/><glyph d="M618 1290q145 0 274.5 -36.5t237 -109.5t171 -200t63.5 -291q0 -168 -62.5 -298t-169 -204.5t-236.5 -112.5t-278 -38h-557v49q104 20 132 41q39 33 38 121v868q0 47 -7 76t-35.5 46.5t-42 21.5t-68.5 14q-10 2 -17 4v49h557zM676 78q211 0 317.5 145.5t106.5 409.5 q0 270 -121 425.5t-381 155.5h-121v-940q0 -109 42 -152.5t157 -43.5z" glyph-name="D" horiz-adv-x="1466" unicode="D"/><glyph d="M1112 311h59l-84 -311h-1026v49q104 20 132 41q39 33 38 121v868q0 47 -7 76t-35.5 46.5t-42 21.5t-68.5 14q-10 2 -17 4v49h1022l19 -295h-60q-14 117 -55 167t-145 50h-172q-121 0 -157 -26.5t-36 -128.5v-369h148q176 0 225 35t59 137h47v-418h-47q-10 102 -59 137 t-225 35h-148v-381q0 -102 36 -128.5t157 -26.5h129q121 0 188.5 50t124.5 183z" glyph-name="E" horiz-adv-x="1243" unicode="E"/><glyph d="M1077 1290l19 -295h-60q-14 117 -55 167t-145 50h-166q-121 0 -157 -26.5t-36 -128.5v-369h137q176 0 225.5 35t59.5 137h47v-418h-47q-10 102 -59 137t-226 35h-137v-403q0 -47 7.5 -76t36 -46t41.5 -21.5t69 -14.5q10 -2 16 -4v-49h-586v49q104 20 132 41q39 33 38 121 v868q0 47 -7 76t-35.5 46.5t-42 21.5t-68.5 14q-10 2 -17 4v49h1016z" glyph-name="F" horiz-adv-x="1167" unicode="F"/><glyph d="M838 -25q-342 0 -539 188.5t-197 481.5t201 485.5t520 192.5q254 0 412 -94q8 -186 14 -277h-80q-68 293 -374 293q-205 0 -315.5 -141t-110.5 -393q0 -293 128 -475.5t351 -182.5q115 0 160 49.5t45 167.5v80q0 133 -43 174t-174 51v58h563v-58q-72 -10 -102.5 -40.5 t-30.5 -102.5v-90q0 -156 32 -254q-59 -47 -184.5 -80t-275.5 -33z" glyph-name="G" horiz-adv-x="1490" unicode="G"/><glyph d="M1446 1241q-104 -20 -131 -41q-39 -33 -39 -121v-868q0 -47 7 -76t36 -46t42 -21.5t69 -14.5q10 -2 16 -4v-49h-586v49q104 20 131 41q39 33 39 121v397h-553v-397q0 -47 7.5 -76t36 -46t41.5 -21.5t69 -14.5q10 -2 16 -4v-49h-586v49q104 20 132 41q39 33 38 121v868 q0 47 -7 76t-35.5 46.5t-42 21.5t-68.5 14q-10 2 -17 4v49h586v-49q-104 -20 -131 -41q-39 -33 -39 -121v-397h553v397q0 47 -7 76t-36 46.5t-42 21.5t-68 14q-10 2 -17 4v49h586v-49z" glyph-name="H" horiz-adv-x="1505" unicode="H"/><glyph d="M61 0v49q104 20 132 41q39 33 38 121v868q0 47 -7 76t-35.5 46.5t-42 21.5t-68.5 14q-10 2 -17 4v49h586v-49q-104 -20 -131 -41q-39 -33 -39 -121v-868q0 -47 7.5 -76t36 -46t41.5 -21.5t69 -14.5q10 -2 16 -4v-49h-586z" glyph-name="I" horiz-adv-x="708" unicode="I"/><glyph d="M18 -379q-20 31 0 60q139 49 177 115.5t38 228.5v1054q0 47 -7 76t-36.5 46.5t-42 21.5t-69.5 14q-10 2 -17 4v49h588v-49q-104 -20 -131 -41q-39 -33 -39 -121v-1075q0 -94 -39 -163.5t-110.5 -112.5t-143.5 -66t-168 -41z" glyph-name="J" horiz-adv-x="710" unicode="J"/><glyph d="M1253 111q27 -39 60 -51.5t117 -12.5v-47h-418q0 45 -64 139l-350 508l-121 -119v-317q0 -47 7.5 -76t36 -46t41.5 -21.5t69 -14.5q10 -2 16 -4v-49h-586v49q104 20 132 41q39 33 38 121v868q0 47 -7 76t-35.5 46.5t-42 21.5t-68.5 14q-10 2 -17 4v49h586v-49 q-104 -20 -131 -41q-39 -33 -39 -121v-432l502 494q47 45 23.5 73.5t-107.5 28.5v47h448v-47q-92 0 -141 -24.5t-104 -77.5l-340 -336z" glyph-name="K" horiz-adv-x="1480" unicode="K"/><glyph d="M61 0v49q104 20 132 41q39 33 38 121v868q0 47 -7 76t-35.5 46.5t-42 21.5t-68.5 14q-10 2 -17 4v49h596v-49q-109 -20 -137 -41q-43 -35 -43 -121v-843q0 -102 36 -129t157 -27h135q123 0 190.5 51t122.5 193h60l-84 -324h-1033z" glyph-name="L" horiz-adv-x="1245" unicode="L"/><glyph d="M1595 211q2 -49 11.5 -79t39 -46t47 -21.5t72.5 -15.5v-49h-583v49q106 20 133 41q39 35 35 121l-35 913l-443 -1124h-61l-449 1040l-38 -829q-2 -47 6 -76t37.5 -46t47 -21.5t72.5 -14.5q14 -2 21 -4v-49h-447v49q104 20 132 41q41 33 45 121l38 868q2 47 -6 76 t-33.5 45.5t-45 22.5t-66.5 14q-14 2 -21 4v49h410q4 -27 64 -157l344 -797l307 797q51 135 55 157h438v-49q-106 -20 -133 -41q-39 -35 -35 -121z" glyph-name="M" horiz-adv-x="1826" unicode="M"/><glyph d="M950 1290h449v-49q-94 -8 -134 -37.5t-40 -124.5v-1079h-103l-798 1092v-881q0 -47 8 -76t38.5 -46t45 -21.5t73.5 -14.5q12 -2 19 -4v-49h-447v49q106 20 134 41q41 33 41 121v868q0 47 -8.5 76t-36 46.5t-44 21.5t-67.5 14q-12 2 -19 4v49h402l674 -921v710 q0 94 -42 124t-145 38v49z" glyph-name="N" horiz-adv-x="1460" unicode="N"/><glyph d="M758 -25q-285 0 -470.5 189.5t-185.5 478.5q0 291 187.5 485.5t476.5 194.5q285 0 469 -189.5t184 -480.5q0 -289 -186 -483.5t-475 -194.5zM793 53q166 0 266 142.5t100 396.5q0 291 -119.5 472t-308.5 181q-168 0 -267 -143.5t-99 -396.5q0 -289 120 -470.5t308 -181.5 z" glyph-name="O" horiz-adv-x="1521" unicode="O"/><glyph d="M61 0v49q104 20 132 41q39 33 38 121v868q0 47 -7 76t-35.5 46.5t-42 21.5t-68.5 14q-10 2 -17 4v49h545q612 0 613 -379q0 -201 -173.5 -306t-476.5 -105q-25 0 -24.5 37.5t24.5 37.5q389 0 389 324q0 313 -331 313q-88 0 -119 -22.5t-31 -71.5v-907q0 -47 7.5 -76 t36 -46t41.5 -21.5t69 -14.5q10 -2 16 -4v-49h-586z" glyph-name="P" horiz-adv-x="1300" unicode="P"/><glyph d="M1649 -168q35 -6 34 -45q-156 -145 -344 -145q-137 0 -272 82l-352 215q-53 33 -172 69q-201 63 -321 234.5t-120 400.5q0 291 187.5 485.5t476.5 194.5q285 0 469 -189.5t184 -480.5q0 -238 -129 -416t-344 -237q68 -12 135 -53l136 -84q156 -94 256 -94q92 0 176 63z M731 1245q-168 0 -267 -143.5t-99 -396.5q0 -289 119.5 -470.5t308.5 -181.5q166 0 266 142.5t100 396.5q0 291 -120 472t-308 181z" glyph-name="Q" horiz-adv-x="1529" unicode="Q"/><glyph d="M1110 236q139 -225 279 -185v-51q-66 -33 -158 -33q-127 0 -208 48t-146 155l-140 225q-57 94 -112.5 129t-147.5 39v-352q0 -47 7.5 -76t36 -46t41.5 -21.5t69 -14.5q10 -2 16 -4v-49h-586v49q104 20 132 41q39 33 38 121v868q0 47 -7 76t-35.5 46.5t-42 21.5t-68.5 14 q-10 2 -17 4v49h553q578 0 578 -356q0 -299 -397 -356q119 -23 200 -156zM629 1212q-90 0 -121 -22.5t-31 -71.5v-479h119q188 0 264 74.5t76 204.5q0 133 -71.5 213.5t-235.5 80.5z" glyph-name="R" horiz-adv-x="1429" unicode="R"/><glyph d="M537 -25q-227 0 -418 129l-17 265h56q39 -145 136 -233.5t232 -88.5q113 0 182.5 66.5t69.5 167.5q0 96 -68.5 162.5t-211.5 131.5q-80 37 -134.5 70t-115 83t-91 115.5t-30.5 145.5q0 150 111.5 242t320.5 92q35 0 66.5 -2t59.5 -8t50.5 -11.5t47 -16.5t39 -16t36 -18.5 t28.5 -17.5t26.5 -16.5t21.5 -14.5l6 -268h-51q-84 317 -324 317q-106 0 -161.5 -55t-55.5 -137q0 -80 59.5 -138.5t198.5 -123.5q68 -31 107 -50.5t104.5 -63.5t102 -85t66.5 -106.5t30 -137.5q0 -170 -136 -274.5t-343 -104.5z" glyph-name="S" horiz-adv-x="1107" unicode="S"/><glyph d="M1190 1311l16 -363h-47q-23 145 -83 209t-216 64h-102v-1010q0 -90 38 -116.5t138 -43.5q10 -2 16 -2v-49h-631v49q121 20 150 41q43 33 43 121v1010h-96q-160 0 -222.5 -63.5t-84.5 -209.5h-48l17 363l108 -21h895z" glyph-name="T" horiz-adv-x="1267" unicode="T"/><glyph d="M741 -25q-98 0 -181 21.5t-164 77t-128 168t-47 274.5v563q0 47 -7 76t-35.5 46.5t-42 21.5t-68.5 14q-10 2 -17 4v49h588v-49q-104 -20 -131 -41q-39 -33 -39 -121v-592q0 -422 334 -421q61 0 116.5 15t113 54t91 122t33.5 202v620q0 47 -8 76t-36 46.5t-44 21.5t-68 14 q-12 2 -18 4v49h449v-49q-115 -20 -142 -41q-43 -33 -43 -121v-579q0 -150 -42 -256.5t-116.5 -162.5t-160 -81t-187.5 -25z" glyph-name="U" horiz-adv-x="1482" unicode="U"/><glyph d="M1038 1290h387v-49q-66 -12 -86 -18t-42.5 -27.5t-43.5 -69.5l-485 -1140h-84l-494 1140q-29 66 -55 82.5t-115 32.5v49h564v-49q-10 -2 -36 -7t-35 -8t-27.5 -9.5t-23.5 -13.5t-11.5 -17t-4 -25.5t10.5 -34.5l360 -831l346 831q8 18 10.5 34t-4 26t-11.5 17t-22.5 13.5 t-26.5 9.5t-34.5 8t-36.5 7v49z" glyph-name="V" unicode="V"/><glyph d="M623 -16l-433 1142q-25 66 -52 83.5t-118 33.5v45h562v-45l-19 -4q-18 -4 -24.5 -5t-23.5 -7t-24.5 -11.5t-18.5 -14.5t-14 -19.5t-4 -24.5t5 -31l293 -815l225 639q39 100 1 186.5t-149 108.5v45h383q0 -78 74 -280l250 -697l256 725q18 49 19 84t-7 55.5t-36.5 34 t-56.5 19.5t-81 14v45h453v-45q-66 -12 -87.5 -19t-44 -28.5t-38.5 -69.5l-414 -1142h-92l-354 946l-338 -948h-92z" glyph-name="W" horiz-adv-x="2103" unicode="W"/><glyph d="M1225 178q49 -74 93 -93t163 -36v-49h-629v49q102 18 115 35q20 25 -27 92l-256 379l-278 -373q-12 -16 -20.5 -30.5t-14.5 -25.5t-5 -19.5t1 -14.5t8 -11t12 -8t20.5 -7.5t23.5 -5.5t27.5 -5t30.5 -6v-49h-448v49q135 18 170 39q43 23 96 92l332 441l-326 479 q-55 80 -99 102.5t-155 38.5v49h615v-49q-53 -10 -71.5 -15t-36 -19.5t-8.5 -39t38 -67.5l219 -324l248 328q25 33 32 55.5t7 34.5t-24.5 22.5t-38 13.5t-60.5 11v49h434v-49q-109 -16 -151.5 -36.5t-102.5 -100.5l-299 -391z" glyph-name="X" horiz-adv-x="1521" unicode="X"/><glyph d="M944 1290h408v-49q-82 -16 -107.5 -33.5t-73.5 -93.5l-346 -553v-354q0 -51 9.5 -80t42 -45t53 -21.5t86.5 -15.5v-45h-627v45q121 20 150 43q41 31 41 119v325l-371 582q-49 76 -73.5 93.5t-104.5 33.5v49h571v-49q-8 -2 -31.5 -7t-33 -7t-25.5 -8.5t-22.5 -11.5 t-13.5 -13t-6 -19.5t5 -26.5t17 -34l294 -473l289 473q20 35 23.5 56.5t-18 34t-39 17.5t-64.5 13q-23 4 -33 6v49z" glyph-name="Y" horiz-adv-x="1382" unicode="Y"/><glyph d="M84 0l-23 31l797 1202l-405 -8q-147 -2 -206 -63.5t-69 -207.5h-55v349l125 -13h932l-813 -1233l477 9q141 2 198.5 65.5t87.5 208.5h58q-39 -209 -39 -340h-1065z" glyph-name="Z" horiz-adv-x="1249" unicode="Z"/><glyph d="M578 -340l-435 25v1845l435 24v-45l-213 -45v-1714l213 -45v-45z" glyph-name="bracketleft" horiz-adv-x="638" unicode="["/><glyph d="M766 -131l-125 -53l-641 1671l125 55z" glyph-name="backslash" horiz-adv-x="827" unicode="\"/><glyph d="M61 -340v45l213 45v1714l-213 45v45l435 -24v-1845z" glyph-name="bracketright" horiz-adv-x="638" unicode="]"/><glyph d="M133 750l-31 30l369 543l367 -543l-29 -30l-338 393z" glyph-name="asciicircum" horiz-adv-x="940" unicode="^"/><glyph d="M102 -129l2 88h1104v-88h-1106z" glyph-name="underscore" horiz-adv-x="1310" unicode="_"/><glyph d="M283 1040q-135 143 -250 224q16 43 66.5 80.5t97.5 37.5q90 -127 141 -307z" glyph-name="grave" horiz-adv-x="360" unicode="`"/><glyph d="M897 193q0 -49 45 -58.5t109 27.5v-51q-92 -90 -205 -125q-66 0 -116 51t-52 115q-170 -166 -356 -166q-109 0 -179.5 57t-70.5 160q0 51 21.5 93t51 68.5t90 53t106.5 41t134 39.5q10 2 36 9t35 10t29.5 9t28.5 10.5t22.5 11.5t21.5 14t15.5 16.5t14.5 19.5v31 q0 121 -52.5 166t-172.5 45q-55 0 -80 -58q-41 -106 -74 -148t-80 -42q-37 0 -61.5 23.5t-24.5 62.5q0 100 161 171t318 71q285 0 285 -312v-415zM449 106q127 0 229 130v249l-189 -53q-188 -51 -188 -180q0 -70 41 -108t107 -38z" glyph-name="a" horiz-adv-x="1091" unicode="a"/><glyph d="M565 -18q-195 0 -300 85t-105 234v815q0 59 -30 89t-120 40v45q190 31 330 117l41 -39v-647q49 84 135 141.5t191 57.5q152 0 263 -119t111 -318q0 -229 -147.5 -365t-368.5 -136zM571 55q119 0 199 99.5t80 273.5q0 158 -67.5 258t-180.5 100q-141 0 -221 -145v-365 q0 -92 47 -156.5t143 -64.5z" glyph-name="b" horiz-adv-x="1163" unicode="b"/><glyph d="M563 -18q-209 0 -345 125.5t-136 336.5q0 217 141.5 346.5t356.5 129.5q156 0 251 -66t95 -154q0 -47 -27 -72.5t-72 -25.5q-94 0 -135 152q-25 98 -117 98q-111 0 -187.5 -86t-76.5 -246q0 -174 96.5 -285.5t251.5 -111.5q168 0 238 100l37 -24q-37 -102 -135.5 -159.5 t-235.5 -57.5z" glyph-name="c" horiz-adv-x="1015" unicode="c"/><glyph d="M1008 184q0 -61 25.5 -91t109.5 -44v-49h-340l16 186h-26q-125 -205 -330 -204q-154 0 -267.5 115.5t-113.5 318.5q0 227 149.5 365.5t352.5 138.5q117 0 202 -52v248q0 59 -32.5 89t-120.5 40v45q199 31 334 117l41 -39v-1184zM580 119q82 0 134 53t72 125v436 q-43 115 -188 115q-121 0 -205 -93t-84 -266q0 -166 78 -268t193 -102z" glyph-name="d" horiz-adv-x="1204" unicode="d"/><glyph d="M659 121q164 0 238 104l37 -24q-37 -104 -135.5 -161.5t-235.5 -57.5q-207 0 -344 127t-137 337.5t135 342t336 131.5q109 0 196 -42t129 -106.5t58 -139.5t-14 -143h-611q10 -166 104 -267t244 -101zM532 848q-90 0 -152.5 -74t-70.5 -213h406q18 109 -30.5 198 t-152.5 89z" glyph-name="e" horiz-adv-x="1032" unicode="e"/><glyph d="M676 1430q182 0 231 -121q-2 -51 -47 -88t-108 -47q-55 164 -158 163q-160 0 -160 -268v-168l246 23q-10 -45 -10 -103h-236v-659q0 -33 13.5 -53.5t48 -31.5t61.5 -16.5t88 -11.5v-49h-594v49q37 6 51.5 9t40 11.5t34.5 18.5t18.5 28.5t9.5 45.5v659h-154v49l154 31v6 q0 250 137 386.5t334 136.5z" glyph-name="f" horiz-adv-x="774" unicode="f"/><glyph d="M997 883v-129l-184 28q49 -68 49 -155q0 -127 -98 -210t-268 -83h-70q-47 0 -70.5 -20.5t-23.5 -51.5q0 -63 90 -72l215 -20q201 -16 270.5 -54t69.5 -134q0 -166 -153.5 -267.5t-391.5 -103.5q-190 0 -285.5 66.5t-95.5 160.5q0 41 58.5 97.5t138.5 91.5 q-119 47 -119 145q0 35 66.5 99.5t132.5 88.5q-94 35 -146.5 106t-52.5 161q0 125 99.5 209t267.5 84q80 0 141 -19q57 -18 360 -18zM496 393q61 0 100 41t50 89t11 104q0 90 -36.5 162.5t-124.5 72.5q-61 0 -100.5 -42t-51.5 -90t-12 -103q0 -90 37 -162t127 -72zM625 -25 l-230 19q-80 8 -122 -34t-42 -103q0 -68 59.5 -115t205.5 -47q147 0 227 56t80 134q0 49 -38 65.5t-140 24.5z" glyph-name="g" horiz-adv-x="1079" unicode="g"/><glyph d="M1034 162q0 -33 7.5 -53.5t30 -31.5t38.5 -15.5t59 -12.5v-49h-481v49q51 10 69.5 16.5t37 30t18.5 66.5v428q0 190 -151 190q-125 0 -230 -123v-495q0 -43 18.5 -66.5t37 -30t69.5 -16.5v-49h-496v49q100 18 125 41t25 72v954q0 59 -29.5 89t-120.5 40v45 q195 31 330 117l41 -39v-635q154 186 344 187q258 0 258 -316v-442z" glyph-name="h" horiz-adv-x="1220" unicode="h"/><glyph d="M295 1108q-53 0 -94 39t-41 92q0 55 40 93t95 38t96 -38t41 -93q0 -53 -41 -92t-96 -39zM61 0v49q43 8 59.5 12.5t39 15.5t30 31.5t7.5 53.5v479q0 61 -26 90t-110 39v45q193 33 314 119l43 -39v-733q0 -33 7 -53.5t29.5 -31.5t39 -15.5t59.5 -12.5v-49h-492z" glyph-name="i" horiz-adv-x="614" unicode="i"/><glyph d="M283 1108q-55 0 -96.5 39t-41.5 92q0 55 41 93t96.5 38t95.5 -38t40 -93q0 -53 -41 -92t-94 -39zM6 -379q-18 29 0 57q96 33 136 101.5t40 204.5v657q0 61 -25.5 90t-109.5 39v45q178 33 313 119l43 -39v-930q0 -86 -38.5 -152.5t-103 -104.5t-127 -58.5t-128.5 -28.5z " glyph-name="j" horiz-adv-x="540" unicode="j"/><glyph d="M1012 123q27 -37 58.5 -50.5t107.5 -21.5v-51h-367q0 57 -37 113l-235 338l-107 -105v-184q0 -57 32 -78t103 -33q10 -2 15 -2v-49h-521v49q100 18 125 41t25 72v954q0 59 -29.5 89t-120.5 40v45q195 31 330 117l41 -39v-913l299 288q96 90 -69 107v51h417v-51 q-86 -6 -137 -32.5t-106 -80.5l-154 -147z" glyph-name="k" horiz-adv-x="1204" unicode="k"/><glyph d="M61 0v49q100 18 125 41t25 72v954q0 59 -29.5 89t-120.5 40v45q195 31 330 117l41 -39v-1206q0 -57 32 -78t103 -33q10 -2 15 -2v-49h-521z" glyph-name="l" horiz-adv-x="643" unicode="l"/><glyph d="M51 0v49q55 10 77 16.5t40 30t18 66.5v500q0 61 -25.5 86.5t-109.5 21.5v45q193 29 328 119l41 -39l-60 -172h39q147 197 330 197q201 0 244 -197h14q133 197 322 197q141 0 200.5 -90.5t59.5 -225.5v-442q0 -33 7 -53.5t29.5 -31.5t39 -15.5t59.5 -12.5v-49h-487v49 q43 8 58 12.5t37.5 15.5t30 31.5t7.5 53.5v428q0 190 -148 190q-115 0 -215 -125v-493q0 -43 18.5 -66.5t39 -30t73.5 -16.5v-49h-485v49q43 8 59.5 12.5t39 15.5t29.5 31.5t7 53.5v428q0 190 -145 190q-119 0 -215 -125v-493q0 -43 18 -66.5t36.5 -30t69.5 -16.5v-49h-481z " glyph-name="m" horiz-adv-x="1755" unicode="m"/><glyph d="M51 0v49q43 8 59.5 12.5t39 15.5t29.5 31.5t7 53.5v479q0 61 -25.5 90t-109.5 39v45q193 29 328 119l41 -39l-60 -172h39q164 197 353 197q258 0 258 -316v-442q0 -33 7 -53.5t29.5 -31.5t39 -15.5t59.5 -12.5v-49h-481v49q51 10 69.5 16.5t36.5 30t18 66.5v426 q0 193 -149 192q-131 0 -231 -125v-493q0 -43 18 -66.5t36.5 -30t69.5 -16.5v-49h-481z" glyph-name="n" horiz-adv-x="1196" unicode="n"/><glyph d="M557 -18q-199 0 -337 127t-138 335q0 217 146.5 346.5t351.5 129.5q201 0 338 -126t137 -337q0 -217 -146.5 -346t-351.5 -129zM586 53q98 0 165.5 92.5t67.5 266.5q0 180 -72.5 309t-193.5 129q-100 0 -167 -92t-67 -269q0 -178 72 -307t195 -129z" glyph-name="o" horiz-adv-x="1136" unicode="o"/><glyph d="M745 920q150 0 258.5 -119t108.5 -318q0 -227 -143.5 -364t-350.5 -137q-109 0 -200 41v-218q0 -66 33.5 -84t130.5 -30v-49h-531v49q61 8 84 14t42.5 29.5t19.5 70.5v836q0 61 -28 90t-118 39v45q203 31 344 119l41 -39l-80 -231h31q49 102 143 179t215 77zM621 55 q113 0 187.5 95.5t74.5 271.5q0 160 -63.5 262t-174.5 102q-102 0 -164.5 -82.5t-62.5 -148.5v-233q0 -111 49.5 -189t153.5 -78z" glyph-name="p" horiz-adv-x="1183" unicode="p"/><glyph d="M1004 -197q0 -61 28.5 -80.5t106.5 -31.5v-49h-533v49q106 12 141 30.5t35 81.5v361q-125 -182 -319 -182q-154 0 -267.5 115.5t-113.5 318.5q0 231 160.5 367.5t408.5 136.5q133 0 242 -43l111 24v-1098zM580 119q143 0 202 155v422q0 63 -53 108.5t-135 45.5 q-119 0 -202 -93t-83 -265q0 -168 78 -270.5t193 -102.5z" glyph-name="q" horiz-adv-x="1189" unicode="q"/><glyph d="M51 0v49q47 8 65.5 12.5t42 15.5t31 31.5t7.5 53.5v481q0 61 -28 90t-118 37v45q199 31 344 119l41 -39l-53 -246h53q63 143 130 214t159 71q45 0 84 -16v-213q-68 29 -133 28q-123 0 -190.5 -82t-67.5 -205v-284q0 -33 7 -52.5t31.5 -31.5t44 -16.5t68.5 -12.5v-49h-518 z" glyph-name="r" horiz-adv-x="860" unicode="r"/><glyph d="M389 -18q-176 0 -303 81l-4 191h74q66 -203 256 -203q84 0 128 37t44 98q0 68 -48.5 102t-164.5 77q-125 43 -205 110.5t-80 181.5q0 121 94 192t254 71q143 0 268 -78v-189h-69q-59 199 -221 199q-70 0 -109 -34t-39 -87q0 -55 45 -93t140 -73q61 -23 87.5 -33t82 -39.5 t82 -57t50 -74t23.5 -99.5q0 -127 -107.5 -203.5t-277.5 -76.5z" glyph-name="s" horiz-adv-x="856" unicode="s"/><glyph d="M432 233q0 -51 25.5 -77.5t68.5 -27.5t84 7t86 25v-54q-147 -82 -309 -126q-74 0 -124 51t-50 119v671h-162v53q184 70 320 216h61v-197l262 27q-10 -43 -10 -99h-252v-588z" glyph-name="t" horiz-adv-x="747" unicode="t"/><glyph d="M444 -18q-145 0 -206.5 89t-61.5 226v463q0 37 -17.5 56.5t-39 25.5t-68.5 14v45q217 -10 346 12v-606q0 -184 158 -184q119 0 227 104v533q0 37 -17 56.5t-38.5 25.5t-69.5 14v45q215 -10 344 12v-729q0 -61 26 -91t110 -44v-49h-330l12 162h-28q-169 -180 -347 -180z " glyph-name="u" horiz-adv-x="1187" unicode="u"/><glyph d="M711 901h333v-49q-72 -8 -97 -23.5t-50 -74.5l-324 -766h-75l-334 766q-27 59 -50.5 74.5t-93.5 23.5v49h482v-49q-92 -14 -108.5 -35.5t-0.5 -62.5l215 -510l197 469q14 35 14 59.5t-6 37.5t-26.5 22.5t-34 12.5t-41.5 7v49z" glyph-name="v" horiz-adv-x="1064" unicode="v"/><glyph d="M467 -12l-305 776q-20 53 -46 67.5t-96 20.5v49h484v-49q-94 -12 -111 -37q-12 -18 0 -51l191 -512l174 428q33 80 6 127q-12 25 -33.5 32t-68.5 13v49h333q0 -76 37 -172l185 -479l167 418q25 59 26 96t-22.5 54.5t-51 23.5t-81.5 10v49h379v-49q-70 -6 -94 -20.5 t-47 -67.5l-311 -776h-80l-275 684l-280 -684h-80z" glyph-name="w" horiz-adv-x="1654" unicode="w"/><glyph d="M913 139q35 -49 70 -65.5t111 -24.5v-49h-508v49q33 4 49 8t33.5 14.5t15.5 27t-20 40.5l-168 234l-189 -234q-18 -25 -22 -41t15 -26.5t29.5 -12.5t49.5 -8q6 -2 10 -2v-49h-348v49q76 8 107.5 22.5t74.5 67.5l234 287l-240 332q-35 51 -68.5 68.5t-101.5 25.5v49h490 v-49q-31 -4 -48.5 -9t-32 -15.5t-12.5 -28t21 -41.5l143 -199l162 199q20 27 23.5 44t-16 27.5t-36 13.5t-51.5 9v49h336v-49q-66 -8 -96.5 -24.5t-73.5 -69.5l-209 -252z" glyph-name="x" horiz-adv-x="1134" unicode="x"/><glyph d="M723 901h334v-49q-70 -8 -93.5 -22.5t-48.5 -71.5l-356 -832q-35 -80 -66.5 -137t-93 -110.5t-131.5 -53.5q-68 0 -137 47v140q150 -16 230.5 6t117.5 108l23 54l-338 778q-25 57 -49.5 71.5t-94.5 22.5v49h484v-49q-94 -14 -111 -37q-14 -20 2 -57l219 -518l222 518 q8 18 9 31.5t-6.5 22.5t-14.5 15.5t-25.5 11.5t-27.5 6t-34 5q-10 2 -14 2v49z" glyph-name="y" horiz-adv-x="1077" unicode="y"/><glyph d="M84 0l-23 31l566 809l-256 -6q-172 -2 -193 -211h-55v290l121 -12h669l-583 -840l270 7q125 2 179.5 55t84.5 160h60q-39 -152 -39 -283h-801z" glyph-name="z" horiz-adv-x="985" unicode="z"/><glyph d="M573 -330q-197 51 -258 152.5t-61 265.5v318q0 117 -172 180v39q172 63 172 180v317q0 164 61.5 265.5t257.5 152.5l17 -41q-78 -33 -96.5 -114.5t-18.5 -262.5v-266q0 -195 -213 -242v-16q94 -20 153.5 -79.5t59.5 -164.5v-266q0 -94 2 -139t12.5 -102.5t35 -87 t65.5 -48.5z" glyph-name="braceleft" horiz-adv-x="651" unicode="{"/><glyph d="M164 -358v1681h92v-1681h-92z" glyph-name="bar" horiz-adv-x="419" unicode="|"/><glyph d="M78 -330l-17 41q41 18 66 48t35 87.5t12 102.5t2 139v266q0 104 59.5 164t153.5 80v16q-213 47 -213 242v266q0 94 -2 139.5t-12 102.5t-35 87t-66 48l17 41q197 -51 258 -152.5t61 -265.5v-317q0 -117 172 -180v-39q-172 -63 -172 -180v-318q0 -164 -61 -265.5 t-258 -152.5z" glyph-name="braceright" horiz-adv-x="651" unicode="}"/><glyph d="M641 371q-92 0 -191.5 73.5t-170.5 73.5q-57 0 -93 -31.5t-36 -64.5h-44q-18 100 50.5 165.5t177.5 65.5q92 0 191.5 -73.5t170.5 -73.5q57 0 93 31.5t36 64.5h43q18 -100 -50 -165.5t-177 -65.5z" glyph-name="asciitilde" horiz-adv-x="974" unicode="~"/><glyph d="M262 932q57 0 98 -41t41 -98q0 -55 -41 -95.5t-98 -40.5t-98 40t-41 96q0 57 41 98t98 41zM213 528h57l95 -823q16 -131 -123 -131q-137 0 -123 131z" glyph-name="exclamdown" horiz-adv-x="483" unicode="¡"/><glyph d="M897 223l37 -24q-37 -102 -135.5 -159.5t-235.5 -57.5q-76 0 -143 18l-35 -125h-80l41 150q-123 51 -193.5 160.5t-70.5 258.5q0 217 141.5 346.5t356.5 129.5h10l39 143h80l-41 -150q119 -18 188.5 -77.5t69.5 -135.5q0 -47 -27 -72.5t-72 -25.5q-94 0 -135 152 q-14 57 -47 80l-176 -654q82 -57 190 -57q168 0 238 100zM311 520q0 -172 92 -280l168 612q-109 -2 -184.5 -88t-75.5 -244z" glyph-name="cent" horiz-adv-x="1015" unicode="¢"/><glyph d="M1108 375q70 -45 70 -142q0 -92 -65.5 -160.5t-147.5 -97t-162 -28.5q-84 0 -164 44t-149.5 88t-131.5 44q-115 0 -211 -133l-65 67q121 119 174 222.5t53 281.5v10h-196l22 107h174v104q0 252 142.5 387.5t355.5 135.5q203 0 254 -121q-2 -51 -48 -89t-108 -48 q-55 166 -190 165q-174 0 -174 -268v-266h350l-23 -107h-327v-10q0 -205 -176 -348q70 35 139 35q80 0 154.5 -49t139 -98.5t117.5 -49.5q78 0 78 84q0 63 -41 121z" glyph-name="sterling" horiz-adv-x="1259" unicode="£"/><glyph d="M1036 467q0 -145 -90 -262l137 -135l-79 -80l-138 135q-117 -86 -258 -86q-143 0 -254 86l-135 -135l-80 80l135 135q-88 115 -88 262q0 141 86 258l-133 131l80 82l133 -133q111 88 256 88q147 0 260 -90l136 135l79 -82l-135 -133q88 -115 88 -256zM303 467 q0 -131 90 -225.5t217 -94.5q129 0 220.5 95.5t91.5 224.5t-91.5 222t-220.5 93t-218 -93t-89 -222z" glyph-name="currency" horiz-adv-x="1222" unicode="¤"/><glyph d="M944 1290h408v-49q-82 -16 -107.5 -33.5t-73.5 -93.5l-307 -491h254v-86h-293v-107h293v-86h-293v-137q0 -51 9.5 -80t42 -45t53 -21.5t86.5 -15.5v-45h-627v45q121 20 150 43q41 31 41 119v137h-322v86h322v102l-2 5h-320v86h264l-313 491q-49 76 -73.5 93.5 t-104.5 33.5v49h571v-49q-8 -2 -31.5 -7t-33 -7t-25.5 -8.5t-22.5 -11.5t-13.5 -13t-6 -19.5t5 -26.5t17 -34l294 -473l289 473q20 35 23.5 56.5t-18 34t-39 17.5t-64.5 13q-23 4 -33 6v49z" glyph-name="yen" horiz-adv-x="1382" unicode="¥"/><glyph d="M164 645v678h92v-678h-92zM164 -358v677h92v-677h-92z" glyph-name="brokenbar" horiz-adv-x="419" unicode="¦"/><glyph d="M754 188q162 -109 161 -266q0 -129 -99 -210t-281 -81q-82 0 -156 22.5t-97.5 37t-72.5 45.5l-6 207h47q31 -104 102.5 -176t177.5 -72q90 0 137.5 48t47.5 116q0 63 -54.5 112t-181.5 109q-59 27 -97 46t-96.5 58t-94 77t-62.5 96.5t-27 121.5q0 98 56.5 172t154.5 113 q-160 113 -159 268q0 127 99 209t275 82q29 0 57.5 -3t50 -8t46.5 -13.5t40 -14.5t36.5 -18.5t30 -17.5t27 -17t22.5 -14l6 -207h-47q-31 102 -100.5 174.5t-164.5 72.5q-86 0 -132 -48t-46 -113.5t51.5 -113.5t178.5 -108q76 -33 125 -60.5t115.5 -76.5t101.5 -114.5 t35 -145.5q0 -100 -54.5 -174t-152.5 -115zM319 541q0 -86 62.5 -142.5t196.5 -115.5q6 -2 33.5 -15.5t41.5 -21.5q90 53 90 168q0 88 -61 143t-197 115l-75 37q-91 -53 -91 -168z" glyph-name="section" horiz-adv-x="1052" unicode="§"/><glyph d="M135 1157q-47 0 -81 34t-34 81t34 80.5t81 33.5t81 -33.5t34 -80.5t-34 -81t-81 -34zM557 1157q-49 0 -82 34t-33 81t33 80.5t82 33.5q47 0 80 -33.5t33 -80.5t-33 -81t-80 -34z" glyph-name="dieresis" horiz-adv-x="690" unicode="¨"/><glyph d="M700 51q-248 0 -423 175t-175 423q0 246 175.5 421t422.5 175q246 0 421 -175t175 -421q0 -248 -175 -423t-421 -175zM700 111q219 0 376 158.5t157 379.5t-156.5 380t-376.5 159q-221 0 -376.5 -159t-155.5 -380t155.5 -379.5t376.5 -158.5zM725 305q-160 0 -259 96.5 t-99 243.5q0 152 102 250t264 98q133 0 211 -49l8 -141h-41q-35 145 -192 145q-104 0 -160.5 -73.5t-56.5 -194.5q0 -137 78.5 -225t203.5 -88q111 0 160 51l23 -25q-76 -88 -242 -88z" glyph-name="copyright" horiz-adv-x="1398" unicode="©"/><glyph d="M590 831q0 -31 28.5 -38t69.5 18v-33q-57 -57 -131 -80q-43 0 -75.5 33t-32.5 74q-106 -106 -230 -107q-70 0 -116 37t-46 103q0 35 14.5 61.5t32 42.5t59.5 33.5t68.5 27t85.5 25.5q6 2 22.5 7t23 7t19.5 6.5t18.5 7.5t14.5 7t14 8t10 10t10 13v18q0 78 -34 107.5 t-112 29.5q-37 0 -51 -37q-25 -68 -47.5 -95t-52.5 -27q-53 0 -54 55q0 66 103.5 110.5t206.5 44.5q182 0 182 -200v-269zM299 776q88 0 150 84v162l-121 -37q-123 -35 -123 -115q0 -45 26.5 -69.5t67.5 -24.5zM119 451v102h508v-102h-508z" glyph-name="ordfeminine" horiz-adv-x="745" unicode="ª"/><glyph d="M102 457l310 286l28 -28l-180 -258l180 -258l-26 -27zM426 457l309 286l29 -28l-180 -258l180 -258l-27 -27z" glyph-name="guillemotleft" horiz-adv-x="866" unicode="«"/><glyph d="M1032 770v-477h-141v336h-748v141h889z" glyph-name="logicalnot" horiz-adv-x="1175" unicode="¬"/><glyph d="M123 473v105h635v-105h-635z" glyph-name="uni00AD" horiz-adv-x="880" unicode="­"/><glyph d="M700 51q-248 0 -423 175t-175 423q0 246 175.5 421t422.5 175q246 0 421 -175t175 -421q0 -248 -175 -423t-421 -175zM700 111q219 0 376 158.5t157 379.5t-156.5 380t-376.5 159q-221 0 -376.5 -159t-155.5 -380t155.5 -379.5t376.5 -158.5zM973 324q-109 0 -166 92 l-68 108q-45 72 -75 84v31q180 0 180 137t-158 137q-43 0 -57.5 -10t-14.5 -35v-430q0 -33 12.5 -49t25 -19t44.5 -10v-26h-282v26q33 6 45 9.5t24.5 20t12.5 48.5v414q0 31 -11.5 48.5t-25 21.5t-45.5 10v24h266q287 0 287 -172q0 -72 -53.5 -114.5t-131.5 -57.5 q45 -14 109 -118l29 -48q55 -86 94 -90v-26q-18 -6 -41 -6z" glyph-name="registered" horiz-adv-x="1398" unicode="®"/><glyph d="M10 1221l31 84h573l-30 -84h-574z" glyph-name="macron" horiz-adv-x="624" unicode="¯"/><glyph d="M377 768q-115 0 -195 72.5t-80 195.5q0 125 85 200t204 75q115 0 194 -73t79 -196q0 -125 -84 -199.5t-203 -74.5zM393 815q59 0 99 52.5t40 150.5q0 102 -41.5 175t-115.5 73q-59 0 -99 -52.5t-40 -150.5q0 -102 41.5 -175t115.5 -73z" glyph-name="degree" horiz-adv-x="765" unicode="°"/><glyph d="M594 793h307v-142h-307v-311h-141v311h-310v142h310v307h141v-307zM143 -8v141h758v-141h-758z" glyph-name="plusminus" horiz-adv-x="1044" unicode="±"/><glyph d="M88 805l-6 22q10 8 41 35t43 37t38.5 34.5t40 39t34 37t30.5 39t21.5 36t16.5 38t5 36.5q0 41 -24.5 69.5t-71.5 28.5q-84 0 -135 -86l-23 15q25 63 79 99t120 36q72 0 119 -41t47 -102q0 -47 -35 -98.5t-72 -82t-93 -72.5t-66 -51h135q55 0 82.5 13.5t46.5 60.5h26 l-38 -143h-361z" glyph-name="uni00B2" horiz-adv-x="569" unicode="²"/><glyph d="M223 786q-55 0 -98 15.5t-43 46.5t35 31q18 0 52 -32t69 -32q47 0 85.5 34t38.5 91q0 55 -36.5 83t-92.5 28q-35 0 -73 -15l-10 25l63 24q66 25 93.5 46.5t27.5 58.5q0 66 -84 65.5t-131 -55.5l-21 17q66 96 189 96q59 0 97 -29t38 -76q0 -68 -115 -118q63 -4 108.5 -35 t45.5 -92q0 -76 -70 -126.5t-168 -50.5z" glyph-name="uni00B3" horiz-adv-x="542" unicode="³"/><glyph d="M78 1040l-55 35q51 180 141 307q47 0 97 -37.5t67 -80.5q-115 -81 -250 -224z" glyph-name="acute" horiz-adv-x="356" unicode="´"/><glyph d="M623 1290h741v-49q-104 -20 -131 -41q-39 -33 -39 -121v-1120q0 -154 -93 -235.5t-261 -81.5h-129v1476q0 49 -23.5 71.5t-85.5 22.5q-141 0 -213 -97t-72 -236.5t71 -231.5t220 -92q25 0 25 -38t-25 -38q-240 0 -393.5 108.5t-153.5 303t155 297t407 102.5zM967 -45 v1163q0 57 -18.5 81t-59.5 24t-59.5 -23.5t-18.5 -81.5v-1407q92 8 124 65.5t32 178.5z" glyph-name="paragraph" horiz-adv-x="1425" unicode="¶"/><glyph d="M262 473q-57 0 -98 41t-41 98q0 55 41 95.5t98 40.5t98 -40t41 -96q0 -57 -41 -98t-98 -41z" glyph-name="periodcentered" horiz-adv-x="483" unicode="·"/><glyph d="M156 -434l10 49q94 0 139 27.5t45 66.5q0 90 -227 90l102 201h94l-49 -96q90 0 154.5 -44t64.5 -120q0 -80 -82.5 -127t-250.5 -47z" glyph-name="cedilla" horiz-adv-x="509" unicode="¸"/><glyph d="M92 815v21q45 4 61.5 12t16.5 33v338q0 23 -8 29.5t-25 2.5l-41 -10v23l158 67l16 -12v-438q0 -25 16.5 -33t61.5 -12v-21h-256z" glyph-name="uni00B9" horiz-adv-x="440" unicode="¹"/><glyph d="M365 696q-129 0 -217.5 81t-88.5 216q0 141 93.5 224t226.5 83q129 0 217 -81.5t88 -217.5q0 -139 -93 -222t-226 -83zM383 741q63 0 106 59.5t43 172.5q0 117 -46 199.5t-124 82.5q-63 0 -106 -59t-43 -172q0 -117 46 -200t124 -83zM119 451v102h508v-102h-508z" glyph-name="ordmasculine" horiz-adv-x="743" unicode="º"/><glyph d="M451 457l-312 -285l-26 27l180 258l-180 258l28 28zM774 457l-311 -285l-27 27l180 258l-180 258l29 28z" glyph-name="guillemotright" horiz-adv-x="866" unicode="»"/><glyph d="M348 836v-21h-256v21q45 4 61.5 12t16.5 33v338q0 23 -8 29.5t-25 2.5l-41 -10v23l158 67l16 -12v-438q0 -25 16.5 -33t61.5 -12zM967 1303h57l-885 -1313h-57zM1059 66q0 -25 15.5 -33t60.5 -13v-20h-254v20q45 4 60 12.5t15 33.5v69h-221l-8 41l238 328h94v-328h76 l-9 -41h-67v-69zM768 176h188v260z" glyph-name="onequarter" horiz-adv-x="1216" unicode="¼"/><glyph d="M92 815v21q45 4 61.5 12t16.5 33v338q0 23 -8 29.5t-25 2.5l-41 -10v23l158 67l16 -12v-438q0 -25 16.5 -33t61.5 -12v-21h-256zM82 -10l885 1313h57l-885 -1313h-57zM754 0l-6 23q10 8 40.5 34.5t43 36.5t39 35t40 39t34 36.5t30.5 39t21.5 36t16.5 38t5 36.5 q0 41 -24.5 70t-71.5 29q-84 0 -136 -86l-22 14q25 63 79 99t120 36q72 0 118.5 -41t46.5 -102q0 -47 -34.5 -98.5t-71.5 -82t-93.5 -72.5t-66.5 -50h135q55 0 83 13t46 60h27l-39 -143h-360z" glyph-name="onehalf" horiz-adv-x="1234" unicode="½"/><glyph d="M461 963q0 -76 -69.5 -126.5t-168.5 -50.5q-55 0 -98 15.5t-43 46.5t35 31q18 0 52 -32t69 -32q47 0 85.5 34t38.5 91q0 55 -36.5 83t-92.5 28q-35 0 -73 -15l-10 25l63 24q66 25 93.5 46.5t27.5 58.5q0 66 -84 65.5t-131 -55.5l-21 17q66 96 189 96q59 0 97 -29t38 -76 q0 -68 -115 -118q63 -4 108.5 -35t45.5 -92zM1106 1303h57l-884 -1313h-58zM1300 66q0 -25 15.5 -33t60.5 -13v-20h-254v20q45 4 60.5 12.5t15.5 33.5v69h-221l-8 41l237 328h94v-328h76l-8 -41h-68v-69zM1010 176h188v260z" glyph-name="threequarters" horiz-adv-x="1458" unicode="¾"/><glyph d="M538.5 934q57.5 0 98.5 -41t41 -98q0 -55 -41 -95.5t-98.5 -40.5t-98.5 40t-41 96q0 57 41 98t98.5 41zM563 512q27 -53 22 -109.5t-27.5 -96.5t-56.5 -91t-66 -96t-54.5 -110.5t-22.5 -135.5q0 -231 260 -231q57 0 82 57q41 106 75 148t79 42q37 0 61.5 -23.5 t24.5 -62.5q0 -102 -158.5 -170.5t-320.5 -68.5q-168 0 -263.5 87t-95.5 232q0 80 32 147.5t79 110.5t101.5 88t100.5 82t74.5 89.5t24.5 111.5h49z" glyph-name="questiondown" horiz-adv-x="1001" unicode="¿"/><glyph d="M762 1430q-135 143 -250 223q16 43 66.5 81t97.5 38q90 -127 141 -308zM1255 164q29 -66 55.5 -82t114.5 -33v-49h-563v49q10 2 36 7t35 8.5t27.5 9.5t23.5 13t11 17.5t4 25.5t-10 34l-98 229h-512l-96 -229q-8 -18 -10.5 -33.5t4 -26t11.5 -17.5t22.5 -13t26.5 -9.5 t34.5 -8.5t36.5 -7v-49h-388v49q66 12 86.5 18.5t43 28t43.5 68.5l485 1141h84zM410 467h448l-229 528z" glyph-name="Agrave" unicode="À"/><glyph d="M987 1653q-115 -80 -250 -223l-55 34q51 180 141 308q47 0 97.5 -38t66.5 -81zM1255 164q29 -66 55.5 -82t114.5 -33v-49h-563v49q10 2 36 7t35 8.5t27.5 9.5t23.5 13t11 17.5t4 25.5t-10 34l-98 229h-512l-96 -229q-8 -18 -10.5 -33.5t4 -26t11.5 -17.5t22.5 -13 t26.5 -9.5t34.5 -8.5t36.5 -7v-49h-388v49q66 12 86.5 18.5t43 28t43.5 68.5l485 1141h84zM410 467h448l-229 528z" glyph-name="Aacute" unicode="Á"/><glyph d="M737 1640l-258 -180l-28 29l286 309l285 -311l-27 -27zM1255 164q29 -66 55.5 -82t114.5 -33v-49h-563v49q10 2 36 7t35 8.5t27.5 9.5t23.5 13t11 17.5t4 25.5t-10 34l-98 229h-512l-96 -229q-8 -18 -10.5 -33.5t4 -26t11.5 -17.5t22.5 -13t26.5 -9.5t34.5 -8.5t36.5 -7 v-49h-388v49q66 12 86.5 18.5t43 28t43.5 68.5l485 1141h84zM410 467h448l-229 528z" glyph-name="Acircumflex" unicode="Â"/><glyph d="M430 1516h-49q-18 98 48.5 163.5t166.5 65.5q82 0 173 -74t157 -74q51 0 83.5 31t32.5 64h48q18 -98 -48.5 -164t-167.5 -66q-53 0 -100 22.5t-73.5 51.5t-67.5 51.5t-86 22.5q-51 0 -84 -30.5t-33 -63.5zM1255 164q29 -66 55.5 -82t114.5 -33v-49h-563v49q10 2 36 7 t35 8.5t27.5 9.5t23.5 13t11 17.5t4 25.5t-10 34l-98 229h-512l-96 -229q-8 -18 -10.5 -33.5t4 -26t11.5 -17.5t22.5 -13t26.5 -9.5t34.5 -8.5t36.5 -7v-49h-388v49q66 12 86.5 18.5t43 28t43.5 68.5l485 1141h84zM410 467h448l-229 528z" glyph-name="Atilde" unicode="Ã"/><glyph d="M532.5 1546q-47.5 0 -81 34t-33.5 81t33.5 81t81 34t81 -34t33.5 -81t-33.5 -81t-81 -34zM954 1546q-49 0 -81.5 34t-32.5 81t32.5 81t81.5 34q47 0 80 -34t33 -81t-33 -81t-80 -34zM1255 164q29 -66 55.5 -82t114.5 -33v-49h-563v49q10 2 36 7t35 8.5t27.5 9.5t23.5 13 t11 17.5t4 25.5t-10 34l-98 229h-512l-96 -229q-8 -18 -10.5 -33.5t4 -26t11.5 -17.5t22.5 -13t26.5 -9.5t34.5 -8.5t36.5 -7v-49h-388v49q66 12 86.5 18.5t43 28t43.5 68.5l485 1141h84zM410 467h448l-229 528z" glyph-name="Adieresis" unicode="Ä"/><glyph d="M743.5 1477q-79.5 0 -134 53t-54.5 131t54.5 132t134 54t134 -54t54.5 -132t-54.5 -131t-134 -53zM743 1753q-39 0 -65.5 -26.5t-26.5 -65.5t27 -64.5t65 -25.5q41 0 67 25.5t26 64.5t-26 65.5t-67 26.5zM1255 164q29 -66 55.5 -82t114.5 -33v-49h-563v49q10 2 36 7 t35 8.5t27.5 9.5t23.5 13t11 17.5t4 25.5t-10 34l-98 229h-512l-96 -229q-8 -18 -10.5 -33.5t4 -26t11.5 -17.5t22.5 -13t26.5 -9.5t34.5 -8.5t36.5 -7v-49h-388v49q66 12 86.5 18.5t43 28t43.5 68.5l485 1141h84zM410 467h448l-229 528z" glyph-name="Aring" unicode="Å"/><glyph d="M1739 311h59l-84 -311h-1026v49q104 20 131 41q39 33 39 121v227h-420l-147 -256q-12 -23 -18.5 -40t0 -30.5t10.5 -20.5t23.5 -15t27.5 -10.5t37.5 -8.5t36.5 -8v-49h-388v49q82 16 109 34.5t72 96.5l518 891h-2q68 117 -49 150q-23 6 -113 20v49h1155l19 -295h-60 q-14 117 -55 167t-146 50h-172q-121 0 -156.5 -26.5t-35.5 -128.5v-369h147q176 0 225.5 35t59.5 137h47v-418h-47q-10 102 -59.5 137t-225.5 35h-147v-381q0 -102 36 -128.5t156 -26.5h129q121 0 189 50t125 183zM481 512h377v567q0 43 -10 74z" glyph-name="AE" horiz-adv-x="1869" unicode="Æ"/><glyph d="M795 -25h-13l-37 -71q90 0 155 -44t65 -120q0 -80 -83 -127t-251 -47l10 49q94 0 139 27.5t45 66.5q0 90 -227 90l92 183q-264 33 -426 216t-162 447q0 293 200 485.5t519 192.5q244 0 402 -94q8 -186 14 -277h-80q-68 293 -362 293q-205 0 -315.5 -142t-110.5 -388 q0 -279 152.5 -456t387.5 -177q219 0 320 108l43 -45q-66 -74 -192.5 -122t-284.5 -48z" glyph-name="Ccedilla" horiz-adv-x="1374" unicode="Ç"/><glyph d="M641 1430q-135 143 -250 223q16 43 66.5 81t97.5 38q90 -127 141 -308zM1112 311h59l-84 -311h-1026v49q104 20 132 41q39 33 38 121v868q0 47 -7 76t-35.5 46.5t-42 21.5t-68.5 14q-10 2 -17 4v49h1022l19 -295h-60q-14 117 -55 167t-145 50h-172q-121 0 -157 -26.5 t-36 -128.5v-369h148q176 0 225 35t59 137h47v-418h-47q-10 102 -59 137t-225 35h-148v-381q0 -102 36 -128.5t157 -26.5h129q121 0 188.5 50t124.5 183z" glyph-name="Egrave" horiz-adv-x="1243" unicode="È"/><glyph d="M866 1653q-115 -80 -250 -223l-55 34q51 180 141 308q47 0 97.5 -38t66.5 -81zM1112 311h59l-84 -311h-1026v49q104 20 132 41q39 33 38 121v868q0 47 -7 76t-35.5 46.5t-42 21.5t-68.5 14q-10 2 -17 4v49h1022l19 -295h-60q-14 117 -55 167t-145 50h-172 q-121 0 -157 -26.5t-36 -128.5v-369h148q176 0 225 35t59 137h47v-418h-47q-10 102 -59 137t-225 35h-148v-381q0 -102 36 -128.5t157 -26.5h129q121 0 188.5 50t124.5 183z" glyph-name="Eacute" horiz-adv-x="1243" unicode="É"/><glyph d="M616 1640l-258 -180l-28 29l286 309l285 -311l-27 -27zM1112 311h59l-84 -311h-1026v49q104 20 132 41q39 33 38 121v868q0 47 -7 76t-35.5 46.5t-42 21.5t-68.5 14q-10 2 -17 4v49h1022l19 -295h-60q-14 117 -55 167t-145 50h-172q-121 0 -157 -26.5t-36 -128.5v-369 h148q176 0 225 35t59 137h47v-418h-47q-10 102 -59 137t-225 35h-148v-381q0 -102 36 -128.5t157 -26.5h129q121 0 188.5 50t124.5 183z" glyph-name="Ecircumflex" horiz-adv-x="1243" unicode="Ê"/><glyph d="M412 1546q-47 0 -81 34t-34 81t34 81t81 34t80.5 -34t33.5 -81t-33.5 -81t-80.5 -34zM834 1546q-49 0 -82 34t-33 81t32.5 81t82.5 34q47 0 79.5 -34t32.5 -81t-32.5 -81t-79.5 -34zM1112 311h59l-84 -311h-1026v49q104 20 132 41q39 33 38 121v868q0 47 -7 76 t-35.5 46.5t-42 21.5t-68.5 14q-10 2 -17 4v49h1022l19 -295h-60q-14 117 -55 167t-145 50h-172q-121 0 -157 -26.5t-36 -128.5v-369h148q176 0 225 35t59 137h47v-418h-47q-10 102 -59 137t-225 35h-148v-381q0 -102 36 -128.5t157 -26.5h129q121 0 188.5 50t124.5 183z " glyph-name="Edieresis" horiz-adv-x="1243" unicode="Ë"/><glyph d="M373 1430q-135 143 -250 223q16 43 66.5 81t97.5 38q90 -127 141 -308zM61 0v49q104 20 132 41q39 33 38 121v868q0 47 -7 76t-35.5 46.5t-42 21.5t-68.5 14q-10 2 -17 4v49h586v-49q-104 -20 -131 -41q-39 -33 -39 -121v-868q0 -47 7.5 -76t36 -46t41.5 -21.5t69 -14.5 q10 -2 16 -4v-49h-586z" glyph-name="Igrave" horiz-adv-x="708" unicode="Ì"/><glyph d="M348 1430l-55 34q51 180 141 308q47 0 97.5 -38t66.5 -81q-115 -80 -250 -223zM61 0v49q104 20 132 41q39 33 38 121v868q0 47 -7 76t-35.5 46.5t-42 21.5t-68.5 14q-10 2 -17 4v49h586v-49q-104 -20 -131 -41q-39 -33 -39 -121v-868q0 -47 7.5 -76t36 -46t41.5 -21.5 t69 -14.5q10 -2 16 -4v-49h-586z" glyph-name="Iacute" horiz-adv-x="708" unicode="Í"/><glyph d="M348 1798l285 -311l-27 -27l-258 180l-258 -180l-29 29zM61 0v49q104 20 132 41q39 33 38 121v868q0 47 -7 76t-35.5 46.5t-42 21.5t-68.5 14q-10 2 -17 4v49h586v-49q-104 -20 -131 -41q-39 -33 -39 -121v-868q0 -47 7.5 -76t36 -46t41.5 -21.5t69 -14.5q10 -2 16 -4 v-49h-586z" glyph-name="Icircumflex" horiz-adv-x="708" unicode="Î"/><glyph d="M143 1546q-47 0 -80.5 34t-33.5 81t33.5 81t80.5 34t81 -34t34 -81t-34 -81t-81 -34zM565 1546q-49 0 -81.5 34t-32.5 81t32.5 81t81.5 34q47 0 80 -34t33 -81t-33 -81t-80 -34zM61 0v49q104 20 132 41q39 33 38 121v868q0 47 -7 76t-35.5 46.5t-42 21.5t-68.5 14 q-10 2 -17 4v49h586v-49q-104 -20 -131 -41q-39 -33 -39 -121v-868q0 -47 7.5 -76t36 -46t41.5 -21.5t69 -14.5q10 -2 16 -4v-49h-586z" glyph-name="Idieresis" horiz-adv-x="708" unicode="Ï"/><glyph d="M625 1290q145 0 274 -36.5t236.5 -109.5t171 -200t63.5 -291q0 -168 -62.5 -298t-169 -204.5t-236.5 -112.5t-277 -38h-557v49q104 20 131 41q39 33 39 121v391q-57 0 -177 -4l21 78q102 -4 156 -4v407q0 47 -7.5 76t-36 46.5t-42 21.5t-68.5 14q-10 2 -16 4v49h557z M682 78q211 0 317.5 145.5t106.5 409.5q0 270 -121 425.5t-381 155.5h-121v-544q139 0 281 6l-21 -78q-39 2 -82 3t-96 2t-82 1v-330q0 -109 42 -152.5t157 -43.5z" glyph-name="Eth" horiz-adv-x="1472" unicode="Ð"/><glyph d="M418 1516h-49q-18 98 48 163.5t167 65.5q82 0 173 -74t156 -74q51 0 84 31t33 64h47q18 -98 -48 -164t-167 -66q-53 0 -100 22.5t-73.5 51.5t-67.5 51.5t-86 22.5q-51 0 -84 -30.5t-33 -63.5zM950 1290h449v-49q-94 -8 -134 -37.5t-40 -124.5v-1079h-103l-798 1092v-881 q0 -47 8 -76t38.5 -46t45 -21.5t73.5 -14.5q12 -2 19 -4v-49h-447v49q106 20 134 41q41 33 41 121v868q0 47 -8.5 76t-36 46.5t-44 21.5t-67.5 14q-12 2 -19 4v49h402l674 -921v710q0 94 -42 124t-145 38v49z" glyph-name="Ntilde" horiz-adv-x="1460" unicode="Ñ"/><glyph d="M780 1430q-135 143 -250 223q16 43 66.5 81t97.5 38q90 -127 142 -308zM758 -25q-285 0 -470.5 189.5t-185.5 478.5q0 291 187.5 485.5t476.5 194.5q285 0 469 -189.5t184 -480.5q0 -289 -186 -483.5t-475 -194.5zM793 53q166 0 266 142.5t100 396.5q0 291 -119.5 472 t-308.5 181q-168 0 -267 -143.5t-99 -396.5q0 -289 120 -470.5t308 -181.5z" glyph-name="Ograve" horiz-adv-x="1521" unicode="Ò"/><glyph d="M756 1430l-56 34q51 180 142 308q47 0 97 -38t67 -81q-115 -80 -250 -223zM758 -25q-285 0 -470.5 189.5t-185.5 478.5q0 291 187.5 485.5t476.5 194.5q285 0 469 -189.5t184 -480.5q0 -289 -186 -483.5t-475 -194.5zM793 53q166 0 266 142.5t100 396.5q0 291 -119.5 472 t-308.5 181q-168 0 -267 -143.5t-99 -396.5q0 -289 120 -470.5t308 -181.5z" glyph-name="Oacute" horiz-adv-x="1521" unicode="Ó"/><glyph d="M756 1798l284 -311l-26 -27l-258 180l-258 -180l-29 29zM758 -25q-285 0 -470.5 189.5t-185.5 478.5q0 291 187.5 485.5t476.5 194.5q285 0 469 -189.5t184 -480.5q0 -289 -186 -483.5t-475 -194.5zM793 53q166 0 266 142.5t100 396.5q0 291 -119.5 472t-308.5 181 q-168 0 -267 -143.5t-99 -396.5q0 -289 120 -470.5t308 -181.5z" glyph-name="Ocircumflex" horiz-adv-x="1521" unicode="Ô"/><glyph d="M893 1462q-53 0 -100.5 22.5t-74 51.5t-67.5 51.5t-86 22.5q-51 0 -83.5 -31t-32.5 -63h-50q-18 98 48.5 163.5t166.5 65.5q82 0 173.5 -74t156.5 -74q51 0 84 31t33 64h47q18 -98 -48.5 -164t-166.5 -66zM758 -25q-285 0 -470.5 189.5t-185.5 478.5q0 291 187.5 485.5 t476.5 194.5q285 0 469 -189.5t184 -480.5q0 -289 -186 -483.5t-475 -194.5zM793 53q166 0 266 142.5t100 396.5q0 291 -119.5 472t-308.5 181q-168 0 -267 -143.5t-99 -396.5q0 -289 120 -470.5t308 -181.5z" glyph-name="Otilde" horiz-adv-x="1521" unicode="Õ"/><glyph d="M551 1546q-47 0 -81 34t-34 81t34 81t81 34t81 -34t34 -81t-34 -81t-81 -34zM973 1546q-49 0 -82 34t-33 81t33 81t82 34q47 0 79.5 -34t32.5 -81t-32.5 -81t-79.5 -34zM758 -25q-285 0 -470.5 189.5t-185.5 478.5q0 291 187.5 485.5t476.5 194.5q285 0 469 -189.5 t184 -480.5q0 -289 -186 -483.5t-475 -194.5zM793 53q166 0 266 142.5t100 396.5q0 291 -119.5 472t-308.5 181q-168 0 -267 -143.5t-99 -396.5q0 -289 120 -470.5t308 -181.5z" glyph-name="Odieresis" horiz-adv-x="1521" unicode="Ö"/><glyph d="M793 741l-226 -225l226 -225l-101 -101l-223 226l-225 -226l-101 101l226 225l-226 225l101 101l225 -226l223 226z" glyph-name="multiply" horiz-adv-x="935" unicode="×"/><glyph d="M1137 1214q133 -88 207.5 -234t74.5 -327q0 -289 -186 -483.5t-475 -194.5q-188 0 -342 91l-103 -166l-39 26l103 164q-129 88 -202 232.5t-73 320.5q0 291 187.5 485.5t476.5 194.5q180 0 330 -84l114 184l39 -26zM365 705q0 -274 110 -457l535 856q-113 141 -279 141 q-168 0 -267 -143t-99 -397zM793 53q166 0 266 142.5t100 396.5q0 291 -119 471l-536 -858q117 -152 289 -152z" glyph-name="Oslash" horiz-adv-x="1521" unicode="Ø"/><glyph d="M760 1430q-135 143 -250 223q16 43 66.5 81t97.5 38q90 -127 141 -308zM741 -25q-98 0 -181 21.5t-164 77t-128 168t-47 274.5v563q0 47 -7 76t-35.5 46.5t-42 21.5t-68.5 14q-10 2 -17 4v49h588v-49q-104 -20 -131 -41q-39 -33 -39 -121v-592q0 -422 334 -421 q61 0 116.5 15t113 54t91 122t33.5 202v620q0 47 -8 76t-36 46.5t-44 21.5t-68 14q-12 2 -18 4v49h449v-49q-115 -20 -142 -41q-43 -33 -43 -121v-579q0 -150 -42 -256.5t-116.5 -162.5t-160 -81t-187.5 -25z" glyph-name="Ugrave" horiz-adv-x="1482" unicode="Ù"/><glyph d="M735 1430l-55 34q51 180 141 308q47 0 97.5 -38t66.5 -81q-115 -80 -250 -223zM741 -25q-98 0 -181 21.5t-164 77t-128 168t-47 274.5v563q0 47 -7 76t-35.5 46.5t-42 21.5t-68.5 14q-10 2 -17 4v49h588v-49q-104 -20 -131 -41q-39 -33 -39 -121v-592q0 -422 334 -421 q61 0 116.5 15t113 54t91 122t33.5 202v620q0 47 -8 76t-36 46.5t-44 21.5t-68 14q-12 2 -18 4v49h449v-49q-115 -20 -142 -41q-43 -33 -43 -121v-579q0 -150 -42 -256.5t-116.5 -162.5t-160 -81t-187.5 -25z" glyph-name="Uacute" horiz-adv-x="1482" unicode="Ú"/><glyph d="M735 1798l285 -311l-27 -27l-258 180l-258 -180l-28 29zM741 -25q-98 0 -181 21.5t-164 77t-128 168t-47 274.5v563q0 47 -7 76t-35.5 46.5t-42 21.5t-68.5 14q-10 2 -17 4v49h588v-49q-104 -20 -131 -41q-39 -33 -39 -121v-592q0 -422 334 -421q61 0 116.5 15t113 54 t91 122t33.5 202v620q0 47 -8 76t-36 46.5t-44 21.5t-68 14q-12 2 -18 4v49h449v-49q-115 -20 -142 -41q-43 -33 -43 -121v-579q0 -150 -42 -256.5t-116.5 -162.5t-160 -81t-187.5 -25z" glyph-name="Ucircumflex" horiz-adv-x="1482" unicode="Û"/><glyph d="M530.5 1546q-47.5 0 -81 34t-33.5 81t33.5 81t81 34t81 -34t33.5 -81t-33.5 -81t-81 -34zM952 1546q-49 0 -81.5 34t-32.5 81t32.5 81t81.5 34q47 0 80 -34t33 -81t-33 -81t-80 -34zM741 -25q-98 0 -181 21.5t-164 77t-128 168t-47 274.5v563q0 47 -7 76t-35.5 46.5 t-42 21.5t-68.5 14q-10 2 -17 4v49h588v-49q-104 -20 -131 -41q-39 -33 -39 -121v-592q0 -422 334 -421q61 0 116.5 15t113 54t91 122t33.5 202v620q0 47 -8 76t-36 46.5t-44 21.5t-68 14q-12 2 -18 4v49h449v-49q-115 -20 -142 -41q-43 -33 -43 -121v-579 q0 -150 -42 -256.5t-116.5 -162.5t-160 -81t-187.5 -25z" glyph-name="Udieresis" horiz-adv-x="1482" unicode="Ü"/><glyph d="M936 1653q-115 -80 -250 -223l-55 34q51 180 141 308q47 0 97.5 -38t66.5 -81zM944 1290h408v-49q-82 -16 -107.5 -33.5t-73.5 -93.5l-346 -553v-354q0 -51 9.5 -80t42 -45t53 -21.5t86.5 -15.5v-45h-627v45q121 20 150 43q41 31 41 119v325l-371 582q-49 76 -73.5 93.5 t-104.5 33.5v49h571v-49q-8 -2 -31.5 -7t-33 -7t-25.5 -8.5t-22.5 -11.5t-13.5 -13t-6 -19.5t5 -26.5t17 -34l294 -473l289 473q20 35 23.5 56.5t-18 34t-39 17.5t-64.5 13q-23 4 -33 6v49z" glyph-name="Yacute" horiz-adv-x="1382" unicode="Ý"/><glyph d="M1153 643q0 -121 -54.5 -204t-155.5 -126t-210.5 -60t-255.5 -22v-20q0 -47 7.5 -76t36 -46t41.5 -21.5t69 -14.5q10 -2 16 -4v-49h-586v49q104 20 132 41q39 33 38 121v868q0 47 -7 76t-35.5 46.5t-42 21.5t-68.5 14q-10 2 -17 4v49h586v-49q-104 -20 -131 -41 q-39 -33 -39 -121v-24q147 -4 256 -21.5t210 -59.5t155.5 -126t54.5 -205zM887 643q0 164 -95.5 243t-314.5 91v-666q219 12 314.5 91t95.5 241z" glyph-name="Thorn" horiz-adv-x="1234" unicode="Þ"/><glyph d="M991 528q139 -139 139 -249q0 -84 -87 -158t-196.5 -111t-195.5 -37q-72 0 -119 29t-47 78q0 41 28 62.5t65 21.5q43 0 119.5 -52.5t103.5 -52.5q45 0 86 46.5t41 101.5q0 80 -101 180l-233 234q66 72 99.5 114.5t62 109t28.5 138.5q0 98 -45 172t-135 74 q-182 0 -182 -281v-948h-371v49q100 18 125 41t25 72v784q0 164 109.5 261.5t293.5 97.5t285.5 -84t99.5 -213q-2 -150 -190 -289z" glyph-name="germandbls" horiz-adv-x="1198" unicode="ß"/><glyph d="M549 1040q-135 143 -250 224q16 43 66.5 80.5t97.5 37.5q90 -127 141 -307zM897 193q0 -49 45 -58.5t109 27.5v-51q-92 -90 -205 -125q-66 0 -116 51t-52 115q-170 -166 -356 -166q-109 0 -179.5 57t-70.5 160q0 51 21.5 93t51 68.5t90 53t106.5 41t134 39.5q10 2 36 9 t35 10t29.5 9t28.5 10.5t22.5 11.5t21.5 14t15.5 16.5t14.5 19.5v31q0 121 -52.5 166t-172.5 45q-55 0 -80 -58q-41 -106 -74 -148t-80 -42q-37 0 -61.5 23.5t-24.5 62.5q0 100 161 171t318 71q285 0 285 -312v-415zM449 106q127 0 229 130v249l-189 -53q-188 -51 -188 -180 q0 -70 41 -108t107 -38z" glyph-name="agrave" horiz-adv-x="1091" unicode="à"/><glyph d="M774 1264q-115 -80 -250 -224l-55 35q51 180 141 307q47 0 97.5 -37.5t66.5 -80.5zM897 193q0 -49 45 -58.5t109 27.5v-51q-92 -90 -205 -125q-66 0 -116 51t-52 115q-170 -166 -356 -166q-109 0 -179.5 57t-70.5 160q0 51 21.5 93t51 68.5t90 53t106.5 41t134 39.5 q10 2 36 9t35 10t29.5 9t28.5 10.5t22.5 11.5t21.5 14t15.5 16.5t14.5 19.5v31q0 121 -52.5 166t-172.5 45q-55 0 -80 -58q-41 -106 -74 -148t-80 -42q-37 0 -61.5 23.5t-24.5 62.5q0 100 161 171t318 71q285 0 285 -312v-415zM449 106q127 0 229 130v249l-189 -53 q-188 -51 -188 -180q0 -70 41 -108t107 -38z" glyph-name="aacute" horiz-adv-x="1091" unicode="á"/><glyph d="M524 1251l-258 -180l-28 29l286 309l285 -311l-27 -27zM897 193q0 -49 45 -58.5t109 27.5v-51q-92 -90 -205 -125q-66 0 -116 51t-52 115q-170 -166 -356 -166q-109 0 -179.5 57t-70.5 160q0 51 21.5 93t51 68.5t90 53t106.5 41t134 39.5q10 2 36 9t35 10t29.5 9 t28.5 10.5t22.5 11.5t21.5 14t15.5 16.5t14.5 19.5v31q0 121 -52.5 166t-172.5 45q-55 0 -80 -58q-41 -106 -74 -148t-80 -42q-37 0 -61.5 23.5t-24.5 62.5q0 100 161 171t318 71q285 0 285 -312v-415zM449 106q127 0 229 130v249l-189 -53q-188 -51 -188 -180 q0 -70 41 -108t107 -38z" glyph-name="acircumflex" horiz-adv-x="1091" unicode="â"/><glyph d="M217 1126h-49q-18 98 48.5 164t166.5 66q82 0 173 -74t157 -74q51 0 83.5 31t32.5 64h48q18 -98 -48.5 -164t-166.5 -66q-53 0 -100.5 22.5t-74 51.5t-67.5 51.5t-86 22.5q-51 0 -84 -31t-33 -64zM897 193q0 -49 45 -58.5t109 27.5v-51q-92 -90 -205 -125q-66 0 -116 51 t-52 115q-170 -166 -356 -166q-109 0 -179.5 57t-70.5 160q0 51 21.5 93t51 68.5t90 53t106.5 41t134 39.5q10 2 36 9t35 10t29.5 9t28.5 10.5t22.5 11.5t21.5 14t15.5 16.5t14.5 19.5v31q0 121 -52.5 166t-172.5 45q-55 0 -80 -58q-41 -106 -74 -148t-80 -42 q-37 0 -61.5 23.5t-24.5 62.5q0 100 161 171t318 71q285 0 285 -312v-415zM449 106q127 0 229 130v249l-189 -53q-188 -51 -188 -180q0 -70 41 -108t107 -38z" glyph-name="atilde" horiz-adv-x="1091" unicode="ã"/><glyph d="M319.5 1157q-47.5 0 -81 34t-33.5 81t33.5 80.5t81 33.5t81 -33.5t33.5 -80.5t-33.5 -81t-81 -34zM741 1157q-49 0 -81.5 34t-32.5 81t32.5 80.5t81.5 33.5q47 0 80 -33.5t33 -80.5t-33 -81t-80 -34zM897 193q0 -49 45 -58.5t109 27.5v-51q-92 -90 -205 -125 q-66 0 -116 51t-52 115q-170 -166 -356 -166q-109 0 -179.5 57t-70.5 160q0 51 21.5 93t51 68.5t90 53t106.5 41t134 39.5q10 2 36 9t35 10t29.5 9t28.5 10.5t22.5 11.5t21.5 14t15.5 16.5t14.5 19.5v31q0 121 -52.5 166t-172.5 45q-55 0 -80 -58q-41 -106 -74 -148t-80 -42 q-37 0 -61.5 23.5t-24.5 62.5q0 100 161 171t318 71q285 0 285 -312v-415zM449 106q127 0 229 130v249l-189 -53q-188 -51 -188 -180q0 -70 41 -108t107 -38z" glyph-name="adieresis" horiz-adv-x="1091" unicode="ä"/><glyph d="M530.5 1087q-79.5 0 -134 53.5t-54.5 131.5t54.5 132t134 54t134 -54t54.5 -132t-54.5 -131.5t-134 -53.5zM530 1364q-39 0 -65.5 -26.5t-26.5 -65.5t27 -64.5t65 -25.5q41 0 67 25.5t26 64.5t-26 65.5t-67 26.5zM897 193q0 -49 45 -58.5t109 27.5v-51q-92 -90 -205 -125 q-66 0 -116 51t-52 115q-170 -166 -356 -166q-109 0 -179.5 57t-70.5 160q0 51 21.5 93t51 68.5t90 53t106.5 41t134 39.5q10 2 36 9t35 10t29.5 9t28.5 10.5t22.5 11.5t21.5 14t15.5 16.5t14.5 19.5v31q0 121 -52.5 166t-172.5 45q-55 0 -80 -58q-41 -106 -74 -148t-80 -42 q-37 0 -61.5 23.5t-24.5 62.5q0 100 161 171t318 71q285 0 285 -312v-415zM449 106q127 0 229 130v249l-189 -53q-188 -51 -188 -180q0 -70 41 -108t107 -38z" glyph-name="aring" horiz-adv-x="1091" unicode="å"/><glyph d="M1253 121q164 0 238 104l37 -24q-37 -104 -135.5 -161.5t-235.5 -57.5q-139 0 -251.5 60t-172.5 169q-201 -225 -411 -225q-109 0 -179.5 57t-70.5 160q0 51 21.5 93t51 68.5t90 53t106.5 41t134 39.5q10 2 36 9t35 10t29.5 9t28.5 10.5t22.5 11.5t21.5 14t15.5 16.5 t14.5 19.5v31q0 121 -52.5 166t-172.5 45q-55 0 -80 -58q-43 -109 -75 -149.5t-79 -40.5q-37 0 -61.5 23.5t-24.5 62.5q0 100 161 171t318 71q164 0 234 -101q127 100 301 101q109 0 196 -42t128.5 -106.5t58 -139.5t-13.5 -143h-611q10 -166 104 -267t244 -101zM1126 848 q-90 0 -152.5 -74t-70.5 -213h406q18 109 -30.5 198t-152.5 89zM449 106q74 0 143.5 48.5t112.5 119.5q-29 80 -29 172q0 27 2 39l-189 -53q-188 -51 -188 -180q0 -70 41 -108t107 -38z" glyph-name="ae" horiz-adv-x="1624" unicode="æ"/><glyph d="M563 -18h-4l-39 -78q90 0 154.5 -44t64.5 -120q0 -80 -83 -127t-250 -47l10 49q94 0 139 27.5t45 66.5q0 90 -227 90l96 191q-172 27 -279.5 148.5t-107.5 305.5q0 217 141.5 346.5t356.5 129.5q156 0 251 -66t95 -154q0 -47 -27 -72.5t-72 -25.5q-94 0 -135 152 q-25 98 -117 98q-111 0 -187.5 -86t-76.5 -246q0 -174 96.5 -285.5t251.5 -111.5q168 0 238 100l37 -24q-37 -102 -135.5 -159.5t-235.5 -57.5z" glyph-name="ccedilla" horiz-adv-x="1015" unicode="ç"/><glyph d="M535 1040q-135 143 -250 224q16 43 66 80.5t98 37.5q90 -127 141 -307zM659 121q164 0 238 104l37 -24q-37 -104 -135.5 -161.5t-235.5 -57.5q-207 0 -344 127t-137 337.5t135 342t336 131.5q109 0 196 -42t129 -106.5t58 -139.5t-14 -143h-611q10 -166 104 -267 t244 -101zM532 848q-90 0 -152.5 -74t-70.5 -213h406q18 109 -30.5 198t-152.5 89z" glyph-name="egrave" horiz-adv-x="1032" unicode="è"/><glyph d="M760 1264q-115 -80 -250 -224l-55 35q51 180 141 307q47 0 97.5 -37.5t66.5 -80.5zM659 121q164 0 238 104l37 -24q-37 -104 -135.5 -161.5t-235.5 -57.5q-207 0 -344 127t-137 337.5t135 342t336 131.5q109 0 196 -42t129 -106.5t58 -139.5t-14 -143h-611 q10 -166 104 -267t244 -101zM532 848q-90 0 -152.5 -74t-70.5 -213h406q18 109 -30.5 198t-152.5 89z" glyph-name="eacute" horiz-adv-x="1032" unicode="é"/><glyph d="M510 1251l-258 -180l-29 29l287 309l285 -311l-27 -27zM659 121q164 0 238 104l37 -24q-37 -104 -135.5 -161.5t-235.5 -57.5q-207 0 -344 127t-137 337.5t135 342t336 131.5q109 0 196 -42t129 -106.5t58 -139.5t-14 -143h-611q10 -166 104 -267t244 -101zM532 848 q-90 0 -152.5 -74t-70.5 -213h406q18 109 -30.5 198t-152.5 89z" glyph-name="ecircumflex" horiz-adv-x="1032" unicode="ê"/><glyph d="M305 1157q-47 0 -81 34t-34 81t34 80.5t81 33.5t81 -33.5t34 -80.5t-34 -81t-81 -34zM727 1157q-49 0 -82 34t-33 81t33 80.5t82 33.5q47 0 80 -33.5t33 -80.5t-33 -81t-80 -34zM659 121q164 0 238 104l37 -24q-37 -104 -135.5 -161.5t-235.5 -57.5q-207 0 -344 127 t-137 337.5t135 342t336 131.5q109 0 196 -42t129 -106.5t58 -139.5t-14 -143h-611q10 -166 104 -267t244 -101zM532 848q-90 0 -152.5 -74t-70.5 -213h406q18 109 -30.5 198t-152.5 89z" glyph-name="edieresis" horiz-adv-x="1032" unicode="ë"/><glyph d="M315 1040q-135 143 -249 224q16 43 66 80.5t97 37.5q90 -127 142 -307zM61 0v49q43 8 59.5 12.5t39 15.5t30 31.5t7.5 53.5v479q0 61 -26 90t-110 39v45q178 33 314 119l43 -39v-733q0 -33 7 -53.5t29.5 -31.5t39 -15.5t59.5 -12.5v-49h-492z" glyph-name="igrave" horiz-adv-x="614" unicode="ì"/><glyph d="M291 1040l-55 35q51 180 141 307q47 0 97 -37.5t67 -80.5q-115 -81 -250 -224zM61 0v49q43 8 59.5 12.5t39 15.5t30 31.5t7.5 53.5v479q0 61 -26 90t-110 39v45q178 33 314 119l43 -39v-733q0 -33 7 -53.5t29.5 -31.5t39 -15.5t59.5 -12.5v-49h-492z" glyph-name="iacute" horiz-adv-x="614" unicode="í"/><glyph d="M291 1409l284 -311l-26 -27l-258 180l-258 -180l-29 29zM61 0v49q43 8 59.5 12.5t39 15.5t30 31.5t7.5 53.5v479q0 61 -26 90t-110 39v45q178 33 314 119l43 -39v-733q0 -33 7 -53.5t29.5 -31.5t39 -15.5t59.5 -12.5v-49h-492z" glyph-name="icircumflex" horiz-adv-x="614" unicode="î"/><glyph d="M86 1157q-47 0 -81 34t-34 81t34 80.5t81 33.5t81 -33.5t34 -80.5t-34 -81t-81 -34zM508 1157q-49 0 -82 34t-33 81t33 80.5t82 33.5q47 0 80 -33.5t33 -80.5t-33 -81t-80 -34zM61 0v49q43 8 59.5 12.5t39 15.5t30 31.5t7.5 53.5v479q0 61 -26 90t-110 39v45 q178 33 314 119l43 -39v-733q0 -33 7 -53.5t29.5 -31.5t39 -15.5t59.5 -12.5v-49h-492z" glyph-name="idieresis" horiz-adv-x="614" unicode="ï"/><glyph d="M748 1114q299 -242 299 -588q0 -260 -128 -402t-366 -142q-201 0 -336 125.5t-135 336.5q0 217 144.5 346.5t348.5 129.5q78 0 146 -21q-47 90 -119 166q-176 -59 -342 -125v92q141 41 283 86q-137 111 -310 127l33 60q217 -12 412 -142q184 63 323 119v-92 q-151 -43 -253 -76zM582 53q113 0 170 100.5t57 272.5q0 174 -70.5 298t-191.5 124q-98 0 -163 -91t-65 -268q0 -180 71 -308t192 -128z" glyph-name="eth" horiz-adv-x="1148" unicode="ð"/><glyph d="M725 1073q-53 0 -100 22.5t-74 51.5t-68 51.5t-86 22.5q-51 0 -83.5 -31t-32.5 -64h-50q-18 98 48.5 164t166.5 66q82 0 173.5 -74t156.5 -74q51 0 84 31t33 64h47q18 -98 -48.5 -164t-166.5 -66zM51 0v49q43 8 59.5 12.5t39 15.5t29.5 31.5t7 53.5v479q0 61 -25.5 90 t-109.5 39v45q193 29 328 119l41 -39l-60 -172h39q164 197 353 197q258 0 258 -316v-442q0 -33 7 -53.5t29.5 -31.5t39 -15.5t59.5 -12.5v-49h-481v49q51 10 69.5 16.5t36.5 30t18 66.5v426q0 193 -149 192q-131 0 -231 -125v-493q0 -43 18 -66.5t36.5 -30t69.5 -16.5v-49 h-481z" glyph-name="ntilde" horiz-adv-x="1196" unicode="ñ"/><glyph d="M588 1040q-135 143 -250 224q16 43 66.5 80.5t97.5 37.5q90 -127 141 -307zM557 -18q-199 0 -337 127t-138 335q0 217 146.5 346.5t351.5 129.5q201 0 338 -126t137 -337q0 -217 -146.5 -346t-351.5 -129zM586 53q98 0 165.5 92.5t67.5 266.5q0 180 -72.5 309t-193.5 129 q-100 0 -167 -92t-67 -269q0 -178 72 -307t195 -129z" glyph-name="ograve" horiz-adv-x="1136" unicode="ò"/><glyph d="M563 1040l-55 35q51 180 141 307q47 0 97.5 -37.5t66.5 -80.5q-115 -81 -250 -224zM557 -18q-199 0 -337 127t-138 335q0 217 146.5 346.5t351.5 129.5q201 0 338 -126t137 -337q0 -217 -146.5 -346t-351.5 -129zM586 53q98 0 165.5 92.5t67.5 266.5q0 180 -72.5 309 t-193.5 129q-100 0 -167 -92t-67 -269q0 -178 72 -307t195 -129z" glyph-name="oacute" horiz-adv-x="1136" unicode="ó"/><glyph d="M563 1409l285 -311l-27 -27l-258 180l-258 -180l-29 29zM557 -18q-199 0 -337 127t-138 335q0 217 146.5 346.5t351.5 129.5q201 0 338 -126t137 -337q0 -217 -146.5 -346t-351.5 -129zM586 53q98 0 165.5 92.5t67.5 266.5q0 180 -72.5 309t-193.5 129q-100 0 -167 -92 t-67 -269q0 -178 72 -307t195 -129z" glyph-name="ocircumflex" horiz-adv-x="1136" unicode="ô"/><glyph d="M700 1073q-53 0 -100 22.5t-73.5 51.5t-67.5 51.5t-86 22.5q-51 0 -84 -31t-33 -64h-49q-18 98 48.5 164t166.5 66q82 0 173 -74t157 -74q51 0 83.5 31t32.5 64h47q18 -98 -48.5 -164t-166.5 -66zM557 -18q-199 0 -337 127t-138 335q0 217 146.5 346.5t351.5 129.5 q201 0 338 -126t137 -337q0 -217 -146.5 -346t-351.5 -129zM586 53q98 0 165.5 92.5t67.5 266.5q0 180 -72.5 309t-193.5 129q-100 0 -167 -92t-67 -269q0 -178 72 -307t195 -129z" glyph-name="otilde" horiz-adv-x="1136" unicode="õ"/><glyph d="M358.5 1157q-47.5 0 -81 34t-33.5 81t33.5 80.5t81 33.5t81 -33.5t33.5 -80.5t-33.5 -81t-81 -34zM780 1157q-49 0 -81.5 34t-32.5 81t32.5 80.5t81.5 33.5q47 0 80 -33.5t33 -80.5t-33 -81t-80 -34zM557 -18q-199 0 -337 127t-138 335q0 217 146.5 346.5t351.5 129.5 q201 0 338 -126t137 -337q0 -217 -146.5 -346t-351.5 -129zM586 53q98 0 165.5 92.5t67.5 266.5q0 180 -72.5 309t-193.5 129q-100 0 -167 -92t-67 -269q0 -178 72 -307t195 -129z" glyph-name="odieresis" horiz-adv-x="1136" unicode="ö"/><glyph d="M526 723q-43 0 -73.5 31.5t-30.5 74.5t30.5 74t73.5 31t74 -31t31 -74t-31 -74.5t-74 -31.5zM143 444v142h758v-142h-758zM526 96q-43 0 -73.5 32t-30.5 75t30.5 73.5t73.5 30.5t74 -30.5t31 -73.5t-31 -75t-74 -32z" glyph-name="divide" horiz-adv-x="1044" unicode="÷"/><glyph d="M846 848q209 -127 209 -391q0 -217 -146.5 -346t-351.5 -129q-123 0 -223 49l-82 -133l-39 28l80 127q-98 59 -154.5 159.5t-56.5 231.5q0 217 146.5 346.5t351.5 129.5q121 0 223 -50l84 136l39 -29zM319 489q0 -168 64 -290l344 551q-70 100 -174 100 q-100 0 -167 -92.5t-67 -268.5zM586 53q98 0 165.5 92.5t67.5 266.5q0 170 -63 293l-344 -553q72 -99 174 -99z" glyph-name="oslash" horiz-adv-x="1136" unicode="ø"/><glyph d="M616 1040q-135 143 -249 224q16 43 66 80.5t97 37.5q90 -127 142 -307zM444 -18q-145 0 -206.5 89t-61.5 226v463q0 37 -17.5 56.5t-39 25.5t-68.5 14v45q217 -10 346 12v-606q0 -184 158 -184q119 0 227 104v533q0 37 -17 56.5t-38.5 25.5t-69.5 14v45q215 -10 344 12 v-729q0 -61 26 -91t110 -44v-49h-330l12 162h-28q-169 -180 -347 -180z" glyph-name="ugrave" horiz-adv-x="1187" unicode="ù"/><glyph d="M592 1040l-55 35q51 180 141 307q47 0 97 -37.5t67 -80.5q-115 -81 -250 -224zM444 -18q-145 0 -206.5 89t-61.5 226v463q0 37 -17.5 56.5t-39 25.5t-68.5 14v45q217 -10 346 12v-606q0 -184 158 -184q119 0 227 104v533q0 37 -17 56.5t-38.5 25.5t-69.5 14v45 q215 -10 344 12v-729q0 -61 26 -91t110 -44v-49h-330l12 162h-28q-169 -180 -347 -180z" glyph-name="uacute" horiz-adv-x="1187" unicode="ú"/><glyph d="M592 1409l285 -311l-27 -27l-258 180l-258 -180l-29 29zM444 -18q-145 0 -206.5 89t-61.5 226v463q0 37 -17.5 56.5t-39 25.5t-68.5 14v45q217 -10 346 12v-606q0 -184 158 -184q119 0 227 104v533q0 37 -17 56.5t-38.5 25.5t-69.5 14v45q215 -10 344 12v-729 q0 -61 26 -91t110 -44v-49h-330l12 162h-28q-169 -180 -347 -180z" glyph-name="ucircumflex" horiz-adv-x="1187" unicode="û"/><glyph d="M387 1157q-47 0 -81 34t-34 81t34 80.5t81 33.5t81 -33.5t34 -80.5t-34 -81t-81 -34zM809 1157q-49 0 -82 34t-33 81t33 80.5t82 33.5q47 0 80 -33.5t33 -80.5t-33 -81t-80 -34zM444 -18q-145 0 -206.5 89t-61.5 226v463q0 37 -17.5 56.5t-39 25.5t-68.5 14v45 q217 -10 346 12v-606q0 -184 158 -184q119 0 227 104v533q0 37 -17 56.5t-38.5 25.5t-69.5 14v45q215 -10 344 12v-729q0 -61 26 -91t110 -44v-49h-330l12 162h-28q-169 -180 -347 -180z" glyph-name="udieresis" horiz-adv-x="1187" unicode="ü"/><glyph d="M788 1264q-115 -80 -249 -224l-56 35q51 180 142 307q47 0 97 -37.5t66 -80.5zM723 901h334v-49q-70 -8 -93.5 -22.5t-48.5 -71.5l-356 -832q-35 -80 -66.5 -137t-93 -110.5t-131.5 -53.5q-68 0 -137 47v140q150 -16 230.5 6t117.5 108l23 54l-338 778q-25 57 -49.5 71.5 t-94.5 22.5v49h484v-49q-94 -14 -111 -37q-14 -20 2 -57l219 -518l222 518q8 18 9 31.5t-6.5 22.5t-14.5 15.5t-25.5 11.5t-27.5 6t-34 5q-10 2 -14 2v49z" glyph-name="yacute" horiz-adv-x="1077" unicode="ý"/><glyph d="M709 920q150 0 259 -119t109 -320q0 -229 -145.5 -364t-364.5 -135q-102 0 -184 28v-205q0 -66 34 -84t130 -30v-49h-522v49q45 8 59 11t37.5 14.5t31 33t7.5 55.5v1285q0 59 -30 88.5t-120 40.5v45q199 33 332 116l41 -39v-622q49 86 136.5 143.5t189.5 57.5zM586 55 q113 0 187.5 93.5t74.5 265.5q0 162 -68.5 267t-181.5 105q-135 0 -215 -145v-340q0 -96 49.5 -171t153.5 -75z" glyph-name="thorn" horiz-adv-x="1159" unicode="þ"/><glyph d="M334 1157q-47 0 -81 34t-34 81t34 80.5t81 33.5t81 -33.5t34 -80.5t-34 -81t-81 -34zM756 1157q-49 0 -82 34t-33 81t33 80.5t82 33.5q47 0 79.5 -33.5t32.5 -80.5t-32.5 -81t-79.5 -34zM723 901h334v-49q-70 -8 -93.5 -22.5t-48.5 -71.5l-356 -832q-35 -80 -66.5 -137 t-93 -110.5t-131.5 -53.5q-68 0 -137 47v140q150 -16 230.5 6t117.5 108l23 54l-338 778q-25 57 -49.5 71.5t-94.5 22.5v49h484v-49q-94 -14 -111 -37q-14 -20 2 -57l219 -518l222 518q8 18 9 31.5t-6.5 22.5t-14.5 15.5t-25.5 11.5t-27.5 6t-34 5q-10 2 -14 2v49z" glyph-name="ydieresis" horiz-adv-x="1077" unicode="ÿ"/><glyph d="M1047 1694l-31 -84h-574l31 84h574zM1255 164q29 -66 55.5 -82t114.5 -33v-49h-563v49q10 2 36 7t35 8.5t27.5 9.5t23.5 13t11 17.5t4 25.5t-10 34l-98 229h-512l-96 -229q-8 -18 -10.5 -33.5t4 -26t11.5 -17.5t22.5 -13t26.5 -9.5t34.5 -8.5t36.5 -7v-49h-388v49 q66 12 86.5 18.5t43 28t43.5 68.5l485 1141h84zM410 467h448l-229 528z" glyph-name="Amacron" unicode="Ā"/><glyph d="M834 1305l-31 -84h-574l31 84h574zM897 193q0 -49 45 -58.5t109 27.5v-51q-92 -90 -205 -125q-66 0 -116 51t-52 115q-170 -166 -356 -166q-109 0 -179.5 57t-70.5 160q0 51 21.5 93t51 68.5t90 53t106.5 41t134 39.5q10 2 36 9t35 10t29.5 9t28.5 10.5t22.5 11.5 t21.5 14t15.5 16.5t14.5 19.5v31q0 121 -52.5 166t-172.5 45q-55 0 -80 -58q-41 -106 -74 -148t-80 -42q-37 0 -61.5 23.5t-24.5 62.5q0 100 161 171t318 71q285 0 285 -312v-415zM449 106q127 0 229 130v249l-189 -53q-188 -51 -188 -180q0 -70 41 -108t107 -38z" glyph-name="amacron" horiz-adv-x="1091" unicode="ā"/><glyph d="M743.5 1503q-137.5 0 -216 76t-78.5 201h53q29 -135 241 -135q211 0 242 135h51q0 -125 -77.5 -201t-215 -76zM1255 164q29 -66 55.5 -82t114.5 -33v-49h-563v49q10 2 36 7t35 8.5t27.5 9.5t23.5 13t11 17.5t4 25.5t-10 34l-98 229h-512l-96 -229q-8 -18 -10.5 -33.5 t4 -26t11.5 -17.5t22.5 -13t26.5 -9.5t34.5 -8.5t36.5 -7v-49h-388v49q66 12 86.5 18.5t43 28t43.5 68.5l485 1141h84zM410 467h448l-229 528z" glyph-name="Abreve" unicode="Ă"/><glyph d="M530.5 1114q-137.5 0 -216 76t-78.5 201h53q29 -135 241 -136q211 0 242 136h51q0 -125 -77.5 -201t-215 -76zM897 193q0 -49 45 -58.5t109 27.5v-51q-92 -90 -205 -125q-66 0 -116 51t-52 115q-170 -166 -356 -166q-109 0 -179.5 57t-70.5 160q0 51 21.5 93t51 68.5 t90 53t106.5 41t134 39.5q10 2 36 9t35 10t29.5 9t28.5 10.5t22.5 11.5t21.5 14t15.5 16.5t14.5 19.5v31q0 121 -52.5 166t-172.5 45q-55 0 -80 -58q-41 -106 -74 -148t-80 -42q-37 0 -61.5 23.5t-24.5 62.5q0 100 161 171t318 71q285 0 285 -312v-415zM449 106 q127 0 229 130v249l-189 -53q-188 -51 -188 -180q0 -70 41 -108t107 -38z" glyph-name="abreve" horiz-adv-x="1091" unicode="ă"/><glyph d="M1237 0q-90 -53 -130 -98t-40 -103q0 -53 29.5 -84.5t79.5 -31.5q39 0 86 18v-39q-74 -70 -181 -70q-86 0 -141 42t-55 130q0 66 43 121l170 115h-236v49q10 2 36 7t35 8.5t27.5 9.5t23.5 13t11 17.5t4 25.5t-10 34l-98 229h-512l-96 -229q-8 -18 -10.5 -33.5t4 -26 t11.5 -17.5t22.5 -13t26.5 -9.5t34.5 -8.5t36.5 -7v-49h-388v49q66 12 86.5 18.5t43 28t43.5 68.5l485 1141h84l493 -1141q29 -66 55.5 -82t114.5 -33v-49h-188zM410 467h448l-229 528z" glyph-name="Aogonek" unicode="Ą"/><glyph d="M907 10q-131 -84 -131 -178q0 -51 31 -84t80 -33q37 0 84 19v-39q-74 -70 -180 -70q-84 0 -139.5 42t-55.5 130q0 68 41 121l131 88q-86 49 -90 146q-170 -166 -356 -166q-109 0 -179.5 57t-70.5 160q0 51 21.5 93t51 68.5t90 53t106.5 41t134 39.5q10 2 36 9t35 10 t29.5 9t28.5 10.5t22.5 11.5t21.5 14t15.5 16.5t14.5 19.5v31q0 121 -52.5 166t-172.5 45q-55 0 -80 -58q-41 -106 -74 -148t-80 -42q-37 0 -61.5 23.5t-24.5 62.5q0 100 161 171t318 71q285 0 285 -312v-415q0 -49 45 -58.5t109 27.5v-51q-70 -66 -144 -101zM449 106 q127 0 229 130v249l-189 -53q-188 -51 -188 -180q0 -70 41 -108t107 -38z" glyph-name="aogonek" horiz-adv-x="1091" unicode="ą"/><glyph d="M758 1430l-56 34q51 180 142 308q47 0 97 -38t67 -81q-115 -80 -250 -223zM795 -25q-307 0 -500 189.5t-193 480.5q0 293 200 485.5t519 192.5q244 0 402 -94q8 -186 14 -277h-80q-68 293 -362 293q-205 0 -315.5 -142t-110.5 -388q0 -279 152.5 -456t387.5 -177 q219 0 320 108l43 -45q-66 -74 -192.5 -122t-284.5 -48z" glyph-name="Cacute" horiz-adv-x="1374" unicode="Ć"/><glyph d="M528 1040l-55 35q51 180 141 307q47 0 97.5 -37.5t66.5 -80.5q-115 -81 -250 -224zM563 -18q-209 0 -345 125.5t-136 336.5q0 217 141.5 346.5t356.5 129.5q156 0 251 -66t95 -154q0 -47 -27 -72.5t-72 -25.5q-94 0 -135 152q-25 98 -117 98q-111 0 -187.5 -86 t-76.5 -246q0 -174 96.5 -285.5t251.5 -111.5q168 0 238 100l37 -24q-37 -102 -135.5 -159.5t-235.5 -57.5z" glyph-name="cacute" horiz-adv-x="1015" unicode="ć"/><glyph d="M764 1477q-55 0 -96 38.5t-41 92.5q0 55 41 93t96 38t95 -38t40 -93q0 -53 -41 -92t-94 -39zM795 -25q-307 0 -500 189.5t-193 480.5q0 293 200 485.5t519 192.5q244 0 402 -94q8 -186 14 -277h-80q-68 293 -362 293q-205 0 -315.5 -142t-110.5 -388q0 -279 152.5 -456 t387.5 -177q219 0 320 108l43 -45q-66 -74 -192.5 -122t-284.5 -48z" glyph-name="Cdotaccent" horiz-adv-x="1374" unicode="Ċ"/><glyph d="M535 1087q-55 0 -96.5 39t-41.5 93q0 55 41 93t96.5 38t95.5 -38t40 -93q0 -53 -41 -92.5t-94 -39.5zM563 -18q-209 0 -345 125.5t-136 336.5q0 217 141.5 346.5t356.5 129.5q156 0 251 -66t95 -154q0 -47 -27 -72.5t-72 -25.5q-94 0 -135 152q-25 98 -117 98 q-111 0 -187.5 -86t-76.5 -246q0 -174 96.5 -285.5t251.5 -111.5q168 0 238 100l37 -24q-37 -102 -135.5 -159.5t-235.5 -57.5z" glyph-name="cdotaccent" horiz-adv-x="1015" unicode="ċ"/><glyph d="M760 1458l-287 309l29 29l258 -180l258 180l26 -27zM795 -25q-307 0 -500 189.5t-193 480.5q0 293 200 485.5t519 192.5q244 0 402 -94q8 -186 14 -277h-80q-68 293 -362 293q-205 0 -315.5 -142t-110.5 -388q0 -279 152.5 -456t387.5 -177q219 0 320 108l43 -45 q-66 -74 -192.5 -122t-284.5 -48z" glyph-name="Ccaron" horiz-adv-x="1374" unicode="Č"/><glyph d="M530 1069l-286 309l28 29l258 -180l258 180l27 -27zM563 -18q-209 0 -345 125.5t-136 336.5q0 217 141.5 346.5t356.5 129.5q156 0 251 -66t95 -154q0 -47 -27 -72.5t-72 -25.5q-94 0 -135 152q-25 98 -117 98q-111 0 -187.5 -86t-76.5 -246q0 -174 96.5 -285.5 t251.5 -111.5q168 0 238 100l37 -24q-37 -102 -135.5 -159.5t-235.5 -57.5z" glyph-name="ccaron" horiz-adv-x="1015" unicode="č"/><glyph d="M1016 1769l-285 -311l-287 309l29 29l258 -180l258 180zM618 1290q145 0 274.5 -36.5t237 -109.5t171 -200t63.5 -291q0 -168 -62.5 -298t-169 -204.5t-236.5 -112.5t-278 -38h-557v49q104 20 132 41q39 33 38 121v868q0 47 -7 76t-35.5 46.5t-42 21.5t-68.5 14 q-10 2 -17 4v49h557zM676 78q211 0 317.5 145.5t106.5 409.5q0 270 -121 425.5t-381 155.5h-121v-940q0 -109 42 -152.5t157 -43.5z" glyph-name="Dcaron" horiz-adv-x="1466" unicode="Ď"/><glyph d="M1008 184q0 -61 25.5 -91t109.5 -44v-49h-340l16 186h-26q-125 -205 -330 -204q-154 0 -267.5 115.5t-113.5 318.5q0 227 149.5 365.5t352.5 138.5q117 0 202 -52v248q0 59 -32.5 89t-120.5 40v45q199 31 334 117l41 -39v-1184zM1079 1341q39 25 100.5 26t100.5 -26 q0 -162 -66 -329l-63 2q-23 192 -72 327zM580 119q82 0 134 53t72 125v436q-43 115 -188 115q-121 0 -205 -93t-84 -266q0 -166 78 -268t193 -102z" glyph-name="dcaron" horiz-adv-x="1224" unicode="ď"/><glyph d="M625 1290q145 0 274 -36.5t236.5 -109.5t171 -200t63.5 -291q0 -168 -62.5 -298t-169 -204.5t-236.5 -112.5t-277 -38h-557v49q104 20 131 41q39 33 39 121v391q-57 0 -177 -4l21 78q102 -4 156 -4v407q0 47 -7.5 76t-36 46.5t-42 21.5t-68.5 14q-10 2 -16 4v49h557z M682 78q211 0 317.5 145.5t106.5 409.5q0 270 -121 425.5t-381 155.5h-121v-544q139 0 281 6l-21 -78q-39 2 -82 3t-96 2t-82 1v-330q0 -109 42 -152.5t157 -43.5z" glyph-name="Dcroat" horiz-adv-x="1472" unicode="Đ"/><glyph d="M1008 184q0 -61 25.5 -91t109.5 -44v-49h-340l16 186h-26q-125 -205 -330 -204q-154 0 -267.5 115.5t-113.5 318.5q0 227 149.5 365.5t352.5 138.5q117 0 202 -52v138q-172 0 -348 -7l21 78q162 -6 327 -6v45q0 59 -32.5 89t-120.5 40v45q199 31 334 117l41 -39v-295 q20 0 65 2t66 2l-21 -78q-18 0 -55 2.5t-55 2.5v-820zM580 119q82 0 134 53t72 125v436q-43 115 -188 115q-121 0 -205 -93t-84 -266q0 -166 78 -268t193 -102z" glyph-name="dcroat" horiz-adv-x="1204" unicode="đ"/><glyph d="M926 1694l-31 -84h-573l30 84h574zM1112 311h59l-84 -311h-1026v49q104 20 132 41q39 33 38 121v868q0 47 -7 76t-35.5 46.5t-42 21.5t-68.5 14q-10 2 -17 4v49h1022l19 -295h-60q-14 117 -55 167t-145 50h-172q-121 0 -157 -26.5t-36 -128.5v-369h148q176 0 225 35 t59 137h47v-418h-47q-10 102 -59 137t-225 35h-148v-381q0 -102 36 -128.5t157 -26.5h129q121 0 188.5 50t124.5 183z" glyph-name="Emacron" horiz-adv-x="1243" unicode="Ē"/><glyph d="M819 1305l-31 -84h-573l31 84h573zM659 121q164 0 238 104l37 -24q-37 -104 -135.5 -161.5t-235.5 -57.5q-207 0 -344 127t-137 337.5t135 342t336 131.5q109 0 196 -42t129 -106.5t58 -139.5t-14 -143h-611q10 -166 104 -267t244 -101zM532 848q-90 0 -152.5 -74 t-70.5 -213h406q18 109 -30.5 198t-152.5 89z" glyph-name="emacron" horiz-adv-x="1032" unicode="ē"/><glyph d="M623 1477q-55 0 -96.5 38.5t-41.5 92.5q0 55 41 93t96.5 38t95.5 -38t40 -93q0 -53 -41 -92t-94 -39zM1112 311h59l-84 -311h-1026v49q104 20 132 41q39 33 38 121v868q0 47 -7 76t-35.5 46.5t-42 21.5t-68.5 14q-10 2 -17 4v49h1022l19 -295h-60q-14 117 -55 167 t-145 50h-172q-121 0 -157 -26.5t-36 -128.5v-369h148q176 0 225 35t59 137h47v-418h-47q-10 102 -59 137t-225 35h-148v-381q0 -102 36 -128.5t157 -26.5h129q121 0 188.5 50t124.5 183z" glyph-name="Edotaccent" horiz-adv-x="1243" unicode="Ė"/><glyph d="M516 1087q-55 0 -96 39t-41 93q0 55 41 93t96 38t95 -38t40 -93q0 -53 -41 -92.5t-94 -39.5zM659 121q164 0 238 104l37 -24q-37 -104 -135.5 -161.5t-235.5 -57.5q-207 0 -344 127t-137 337.5t135 342t336 131.5q109 0 196 -42t129 -106.5t58 -139.5t-14 -143h-611 q10 -166 104 -267t244 -101zM532 848q-90 0 -152.5 -74t-70.5 -213h406q18 109 -30.5 198t-152.5 89z" glyph-name="edotaccent" horiz-adv-x="1032" unicode="ė"/><glyph d="M999 0q-90 -53 -130 -98t-40 -103q0 -53 30 -84.5t79 -31.5q39 0 86 18v-39q-74 -70 -180 -70q-86 0 -141.5 42t-55.5 130q0 66 43 121l170 115h-799v49q104 20 132 41q39 33 38 121v868q0 47 -7 76t-35.5 46.5t-42 21.5t-68.5 14q-10 2 -17 4v49h1022l19 -295h-60 q-14 117 -55 167t-145 50h-172q-121 0 -157 -26.5t-36 -128.5v-369h148q176 0 225 35t59 137h47v-418h-47q-10 102 -59 137t-225 35h-148v-381q0 -102 36 -128.5t157 -26.5h129q121 0 188.5 50t124.5 183h59l-84 -311h-88z" glyph-name="Eogonek" horiz-adv-x="1243" unicode="Ę"/><glyph d="M659 121q164 0 238 104l37 -24q-53 -152 -229 -201q-90 -53 -130 -98t-40 -103q0 -53 29.5 -84.5t78.5 -31.5q39 0 86 18v-39q-74 -70 -180 -70q-86 0 -141.5 42t-55.5 130q0 66 43 121l144 97q-199 8 -328 134t-129 330q0 211 135 342.5t336 131.5q109 0 196 -42 t129 -106.5t58 -139.5t-14 -143h-611q10 -166 104 -267t244 -101zM532 848q-90 0 -152.5 -74t-70.5 -213h406q18 109 -30.5 198t-152.5 89z" glyph-name="eogonek" horiz-adv-x="1032" unicode="ę"/><glyph d="M903 1769l-285 -311l-286 309l28 29l258 -180l259 180zM1112 311h59l-84 -311h-1026v49q104 20 132 41q39 33 38 121v868q0 47 -7 76t-35.5 46.5t-42 21.5t-68.5 14q-10 2 -17 4v49h1022l19 -295h-60q-14 117 -55 167t-145 50h-172q-121 0 -157 -26.5t-36 -128.5v-369 h148q176 0 225 35t59 137h47v-418h-47q-10 102 -59 137t-225 35h-148v-381q0 -102 36 -128.5t157 -26.5h129q121 0 188.5 50t124.5 183z" glyph-name="Ecaron" horiz-adv-x="1243" unicode="Ě"/><glyph d="M797 1380l-285 -311l-287 309l29 29l258 -180l258 180zM659 121q164 0 238 104l37 -24q-37 -104 -135.5 -161.5t-235.5 -57.5q-207 0 -344 127t-137 337.5t135 342t336 131.5q109 0 196 -42t129 -106.5t58 -139.5t-14 -143h-611q10 -166 104 -267t244 -101zM532 848 q-90 0 -152.5 -74t-70.5 -213h406q18 109 -30.5 198t-152.5 89z" glyph-name="ecaron" horiz-adv-x="1032" unicode="ě"/><glyph d="M745.5 1503q-137.5 0 -216 76t-78.5 201h53q29 -135 241 -135q211 0 242 135h51q0 -125 -77.5 -201t-215 -76zM838 -25q-342 0 -539 188.5t-197 481.5t201 485.5t520 192.5q254 0 412 -94q8 -186 14 -277h-80q-68 293 -374 293q-205 0 -315.5 -141t-110.5 -393 q0 -293 128 -475.5t351 -182.5q115 0 160 49.5t45 167.5v80q0 133 -43 174t-174 51v58h563v-58q-72 -10 -102.5 -40.5t-30.5 -102.5v-90q0 -156 32 -254q-59 -47 -184.5 -80t-275.5 -33z" glyph-name="Gbreve" horiz-adv-x="1490" unicode="Ğ"/><glyph d="M543 1114q-137 0 -216 76t-79 201h53q29 -135 242 -136q211 0 241 136h52q0 -125 -78 -201t-215 -76zM997 883v-129l-184 28q49 -68 49 -155q0 -127 -98 -210t-268 -83h-70q-47 0 -70.5 -20.5t-23.5 -51.5q0 -63 90 -72l215 -20q201 -16 270.5 -54t69.5 -134 q0 -166 -153.5 -267.5t-391.5 -103.5q-190 0 -285.5 66.5t-95.5 160.5q0 41 58.5 97.5t138.5 91.5q-119 47 -119 145q0 35 66.5 99.5t132.5 88.5q-94 35 -146.5 106t-52.5 161q0 125 99.5 209t267.5 84q80 0 141 -19q57 -18 360 -18zM496 393q61 0 100 41t50 89t11 104 q0 90 -36.5 162.5t-124.5 72.5q-61 0 -100.5 -42t-51.5 -90t-12 -103q0 -90 37 -162t127 -72zM625 -25l-230 19q-80 8 -122 -34t-42 -103q0 -68 59.5 -115t205.5 -47q147 0 227 56t80 134q0 49 -38 65.5t-140 24.5z" glyph-name="gbreve" horiz-adv-x="1079" unicode="ğ"/><glyph d="M745 1477q-55 0 -96 38.5t-41 92.5q0 55 41 93t96.5 38t95.5 -38t40 -93q0 -53 -41.5 -92t-94.5 -39zM838 -25q-342 0 -539 188.5t-197 481.5t201 485.5t520 192.5q254 0 412 -94q8 -186 14 -277h-80q-68 293 -374 293q-205 0 -315.5 -141t-110.5 -393q0 -293 128 -475.5 t351 -182.5q115 0 160 49.5t45 167.5v80q0 133 -43 174t-174 51v58h563v-58q-72 -10 -102.5 -40.5t-30.5 -102.5v-90q0 -156 32 -254q-59 -47 -184.5 -80t-275.5 -33z" glyph-name="Gdotaccent" horiz-adv-x="1490" unicode="Ġ"/><glyph d="M543 1087q-55 0 -96 39t-41 93q0 55 40.5 93t96 38t95.5 -38t40 -93q0 -53 -41 -92.5t-94 -39.5zM997 883v-129l-184 28q49 -68 49 -155q0 -127 -98 -210t-268 -83h-70q-47 0 -70.5 -20.5t-23.5 -51.5q0 -63 90 -72l215 -20q201 -16 270.5 -54t69.5 -134 q0 -166 -153.5 -267.5t-391.5 -103.5q-190 0 -285.5 66.5t-95.5 160.5q0 41 58.5 97.5t138.5 91.5q-119 47 -119 145q0 35 66.5 99.5t132.5 88.5q-94 35 -146.5 106t-52.5 161q0 125 99.5 209t267.5 84q80 0 141 -19q57 -18 360 -18zM496 393q61 0 100 41t50 89t11 104 q0 90 -36.5 162.5t-124.5 72.5q-61 0 -100.5 -42t-51.5 -90t-12 -103q0 -90 37 -162t127 -72zM625 -25l-230 19q-80 8 -122 -34t-42 -103q0 -68 59.5 -115t205.5 -47q147 0 227 56t80 134q0 49 -38 65.5t-140 24.5z" glyph-name="gdotaccent" horiz-adv-x="1079" unicode="ġ"/><glyph d="M838 -25q-342 0 -539 188.5t-197 481.5t201 485.5t520 192.5q254 0 412 -94q8 -186 14 -277h-80q-68 293 -374 293q-205 0 -315.5 -141t-110.5 -393q0 -293 128 -475.5t351 -182.5q115 0 160 49.5t45 167.5v80q0 133 -43 174t-174 51v58h563v-58q-72 -10 -102.5 -40.5 t-30.5 -102.5v-90q0 -156 32 -254q-59 -47 -184.5 -80t-275.5 -33zM586 -682l-19 49q154 55 183 170q12 53 -41 84q-80 47 -80 125q0 57 40 96t99 39q61 0 104 -48t43 -132q0 -121 -87.5 -233.5t-241.5 -149.5z" glyph-name="Gcommaaccent" horiz-adv-x="1490" unicode="Ģ"/><glyph d="M467 1069q-61 0 -104.5 48t-43.5 132q0 121 88.5 233.5t241.5 149.5l19 -49q-154 -55 -183 -170q-12 -53 41 -84q80 -47 80 -125q0 -57 -40 -96t-99 -39zM997 883v-129l-184 28q49 -68 49 -155q0 -127 -98 -210t-268 -83h-70q-47 0 -70.5 -20.5t-23.5 -51.5q0 -63 90 -72 l215 -20q201 -16 270.5 -54t69.5 -134q0 -166 -153.5 -267.5t-391.5 -103.5q-190 0 -285.5 66.5t-95.5 160.5q0 41 58.5 97.5t138.5 91.5q-119 47 -119 145q0 35 66.5 99.5t132.5 88.5q-94 35 -146.5 106t-52.5 161q0 125 99.5 209t267.5 84q80 0 141 -19q57 -18 360 -18z M496 393q61 0 100 41t50 89t11 104q0 90 -36.5 162.5t-124.5 72.5q-61 0 -100.5 -42t-51.5 -90t-12 -103q0 -90 37 -162t127 -72zM625 -25l-230 19q-80 8 -122 -34t-42 -103q0 -68 59.5 -115t205.5 -47q147 0 227 56t80 134q0 49 -38 65.5t-140 24.5z" glyph-name="gcommaaccent" horiz-adv-x="1079" unicode="ģ"/><glyph d="M1446 1241q-104 -20 -131 -41q-39 -33 -39 -121v-868q0 -47 7 -76t36 -46t42 -21.5t69 -14.5q10 -2 16 -4v-49h-586v49q104 20 131 41q39 33 39 121v397h-553v-397q0 -47 7.5 -76t36 -46t41.5 -21.5t69 -14.5q10 -2 16 -4v-49h-586v49q104 20 132 41q39 33 38 121v868 q0 47 -7 76t-35.5 46.5t-42 21.5t-68.5 14q-10 2 -17 4v49h586v-49q-104 -20 -131 -41q-39 -33 -39 -121v-178h553v178q0 47 -7 76t-36 46.5t-42 21.5t-68 14q-10 2 -17 4v49h586v-49zM477 682h553v145h-553v-145z" glyph-name="Hbar" horiz-adv-x="1505" unicode="Ħ"/><glyph d="M1051 162q0 -33 7 -53.5t29.5 -31.5t39 -15.5t59.5 -12.5v-49h-481v49q51 10 69.5 16.5t36.5 30t18 66.5v428q0 190 -151 190q-125 0 -229 -123v-495q0 -43 18 -66.5t36.5 -30t69.5 -16.5v-49h-495v49q100 18 125 41t24 72v842q-55 0 -166 -5l21 78q98 -4 145 -4v43 q0 59 -29.5 89t-119.5 40v45q195 31 330 117l41 -39v-297q158 0 315 6l-21 -78q-147 6 -294 7v-273q154 186 344 187q258 0 258 -316v-442z" glyph-name="hbar" horiz-adv-x="1234" unicode="ħ"/><glyph d="M53 1610l31 84h573l-30 -84h-574zM61 0v49q104 20 132 41q39 33 38 121v868q0 47 -7 76t-35.5 46.5t-42 21.5t-68.5 14q-10 2 -17 4v49h586v-49q-104 -20 -131 -41q-39 -33 -39 -121v-868q0 -47 7.5 -76t36 -46t41.5 -21.5t69 -14.5q10 -2 16 -4v-49h-586z" glyph-name="Imacron" horiz-adv-x="708" unicode="Ī"/><glyph d="M-4 1221l31 84h573l-31 -84h-573zM61 0v49q43 8 59.5 12.5t39 15.5t30 31.5t7.5 53.5v479q0 61 -26 90t-110 39v45q178 33 314 119l43 -39v-733q0 -33 7 -53.5t29.5 -31.5t39 -15.5t59.5 -12.5v-49h-492z" glyph-name="imacron" horiz-adv-x="614" unicode="ī"/><glyph d="M647 1241q-104 -20 -131 -41q-39 -33 -39 -121v-868q0 -47 7.5 -76t36 -46t41.5 -21.5t69 -14.5q10 -2 16 -4v-49h-170q-90 -53 -130 -98t-40 -103q0 -53 30 -84.5t79 -31.5q39 0 86 18v-39q-74 -70 -180 -70q-86 0 -141.5 42t-55.5 130q0 66 43 121l170 115h-277v49 q104 20 132 41q39 33 38 121v868q0 47 -7 76t-35.5 46.5t-42 21.5t-68.5 14q-10 2 -17 4v49h586v-49z" glyph-name="Iogonek" horiz-adv-x="708" unicode="Į"/><glyph d="M297 1087q-55 0 -96 39t-41 93q0 55 41 93t96 38t95 -38t40 -93q0 -53 -41 -92.5t-94 -39.5zM428 0q-90 -53 -130 -98t-40 -103q0 -53 29.5 -84.5t79.5 -31.5q39 0 86 18v-39q-74 -70 -181 -70q-86 0 -141 42t-55 130q0 66 43 121l170 115h-228v49q43 8 59.5 12.5 t39 15.5t30 31.5t7.5 53.5v479q0 61 -26 90t-110 39v45q178 33 314 119l43 -39v-733q0 -33 7 -53.5t29.5 -31.5t39 -15.5t59.5 -12.5v-49h-125z" glyph-name="iogonek" horiz-adv-x="614" unicode="į"/><glyph d="M354 1477q-55 0 -96 38.5t-41 92.5q0 55 41 93t96.5 38t95 -38t39.5 -93q0 -53 -41 -92t-94 -39zM61 0v49q104 20 132 41q39 33 38 121v868q0 47 -7 76t-35.5 46.5t-42 21.5t-68.5 14q-10 2 -17 4v49h586v-49q-104 -20 -131 -41q-39 -33 -39 -121v-868q0 -47 7.5 -76 t36 -46t41.5 -21.5t69 -14.5q10 -2 16 -4v-49h-586z" glyph-name="Idotaccent" horiz-adv-x="708" unicode="İ"/><glyph d="M61 0v49q43 8 59.5 12.5t39 15.5t30 31.5t7.5 53.5v479q0 61 -26 90t-110 39v45q178 33 314 119l43 -39v-733q0 -33 7 -53.5t29.5 -31.5t39 -15.5t59.5 -12.5v-49h-492z" glyph-name="dotlessi" horiz-adv-x="614" unicode="ı"/><glyph d="M61 0v49q104 20 132 41q39 33 38 121v868q0 47 -7 76t-35.5 46.5t-42 21.5t-68.5 14q-10 2 -17 4v49h586v-49q-104 -20 -131 -41q-39 -33 -39 -121v-868q0 -47 7.5 -76t36 -46t41.5 -21.5t69 -14.5q10 -2 16 -4v-49h-586zM727 -379q-20 31 0 60q139 49 177 115.5 t38 228.5v1054q0 47 -7 76t-37 46.5t-42 21.5t-70 14q-10 2 -16 4v49h588v-49q-104 -20 -131 -41q-39 -33 -39 -121v-1075q0 -94 -39 -163.5t-110.5 -112.5t-143.5 -66t-168 -41z" glyph-name="IJ" horiz-adv-x="1419" unicode="Ĳ"/><glyph d="M295 1108q-53 0 -94 39t-41 92q0 55 40 93t95 38t96 -38t41 -93q0 -53 -41 -92t-96 -39zM897 1108q-55 0 -96 39t-41 92q0 55 41 93t96 38t95 -38t40 -93q0 -53 -41 -92t-94 -39zM61 0v49q43 8 59.5 12.5t39 15.5t30 31.5t7.5 53.5v479q0 61 -26 90t-110 39v45 q193 33 314 119l43 -39v-733q0 -33 7 -53.5t29.5 -31.5t39 -15.5t59.5 -12.5v-49h-492zM621 -379q-18 29 0 57q96 33 136 101.5t40 204.5v657q0 61 -26 90t-109 39v45q178 33 313 119l43 -39v-930q0 -86 -39 -152.5t-103.5 -104.5t-126.5 -58.5t-128 -28.5z" glyph-name="ij" horiz-adv-x="1155" unicode="ĳ"/><glyph d="M1253 111q27 -39 60 -51.5t117 -12.5v-47h-418q0 45 -64 139l-350 508l-121 -119v-317q0 -47 7.5 -76t36 -46t41.5 -21.5t69 -14.5q10 -2 16 -4v-49h-586v49q104 20 132 41q39 33 38 121v868q0 47 -7 76t-35.5 46.5t-42 21.5t-68.5 14q-10 2 -17 4v49h586v-49 q-104 -20 -131 -41q-39 -33 -39 -121v-432l502 494q47 45 23.5 73.5t-107.5 28.5v47h448v-47q-92 0 -141 -24.5t-104 -77.5l-340 -336zM377 -119q61 0 104 -48t43 -132q0 -121 -88 -233.5t-241 -149.5l-19 49q154 55 182 170q12 53 -41 84q-80 47 -79 125q0 57 40 96t99 39z " glyph-name="Kcommaaccent" horiz-adv-x="1480" unicode="Ķ"/><glyph d="M1012 123q27 -37 58.5 -50.5t107.5 -21.5v-51h-367q0 57 -37 113l-235 338l-107 -105v-184q0 -57 32 -78t103 -33q10 -2 15 -2v-49h-521v49q100 18 125 41t25 72v954q0 59 -29.5 89t-120.5 40v45q195 31 330 117l41 -39v-913l299 288q96 90 -69 107v51h417v-51 q-86 -6 -137 -32.5t-106 -80.5l-154 -147zM616 -119q61 0 104.5 -48t43.5 -132q0 -121 -88 -233.5t-242 -149.5l-18 49q154 55 182 170q12 53 -41 84q-80 47 -80 125q0 57 40 96t99 39z" glyph-name="kcommaaccent" horiz-adv-x="1204" unicode="ķ"/><glyph d="M354 1430l-55 34q51 180 141 308q47 0 97.5 -38t66.5 -81q-115 -80 -250 -223zM61 0v49q104 20 132 41q39 33 38 121v868q0 47 -7 76t-35.5 46.5t-42 21.5t-68.5 14q-10 2 -17 4v49h596v-49q-109 -20 -137 -41q-43 -35 -43 -121v-843q0 -102 36 -129t157 -27h135 q123 0 190.5 51t122.5 193h60l-84 -324h-1033z" glyph-name="Lacute" horiz-adv-x="1245" unicode="Ĺ"/><glyph d="M281 1438l-56 35q51 180 142 307q47 0 97 -38t66 -81q-114 -80 -249 -223zM61 0v49q100 18 125 41t25 72v954q0 59 -29.5 89t-120.5 40v45q195 31 330 117l41 -39v-1206q0 -57 32 -78t103 -33q10 -2 15 -2v-49h-521z" glyph-name="lacute" horiz-adv-x="643" unicode="ĺ"/><glyph d="M61 0v49q104 20 132 41q39 33 38 121v868q0 47 -7 76t-35.5 46.5t-42 21.5t-68.5 14q-10 2 -17 4v49h596v-49q-109 -20 -137 -41q-43 -35 -43 -121v-843q0 -102 36 -129t157 -27h135q123 0 190.5 51t122.5 193h60l-84 -324h-1033zM465 -682l-19 49q154 55 183 170 q12 53 -41 84q-80 47 -80 125q0 57 40 96t99 39q61 0 104.5 -48t43.5 -132q0 -121 -88 -233.5t-242 -149.5z" glyph-name="Lcommaaccent" horiz-adv-x="1245" unicode="Ļ"/><glyph d="M61 0v49q100 18 125 41t25 72v954q0 59 -29.5 89t-120.5 40v45q195 31 330 117l41 -39v-1206q0 -57 32 -78t103 -33q10 -2 15 -2v-49h-521zM162 -682l-19 49q154 55 183 170q12 53 -41 84q-80 47 -80 125q0 57 40 96t99 39q61 0 104.5 -48t43.5 -132q0 -121 -88 -233.5 t-242 -149.5z" glyph-name="lcommaaccent" horiz-adv-x="643" unicode="ļ"/><glyph d="M61 0v49q104 20 132 41q39 33 38 121v868q0 47 -7 76t-35.5 46.5t-42 21.5t-68.5 14q-10 2 -17 4v49h596v-49q-109 -20 -137 -41q-43 -35 -43 -121v-843q0 -102 36 -129t157 -27h135q123 0 190.5 51t122.5 193h60l-84 -324h-1033zM762 727l-19 49q154 55 183 170 q12 53 -41 84q-80 47 -80 125q0 57 40 96t99 39q61 0 104.5 -48t43.5 -132q0 -121 -88 -233.5t-242 -149.5z" glyph-name="Lcaron" horiz-adv-x="1245" unicode="Ľ"/><glyph d="M61 0v49q100 18 125 41t25 72v954q0 59 -29.5 89t-120.5 40v45q195 31 330 117l41 -39v-1206q0 -57 32 -78t103 -33q10 -2 15 -2v-49h-521zM627 1012l-66 2q-25 203 -72 327q39 25 101.5 26t101.5 -26q1 -153 -65 -329z" glyph-name="lcaron" horiz-adv-x="634" unicode="ľ"/><glyph d="M61 0v49q104 20 132 41q39 33 38 121v868q0 47 -7 76t-35.5 46.5t-42 21.5t-68.5 14q-10 2 -17 4v49h596v-49q-109 -20 -137 -41q-43 -35 -43 -121v-843q0 -102 36 -129t157 -27h135q123 0 190.5 51t122.5 193h60l-84 -324h-1033zM858 500q-57 0 -98 41t-41 98 q0 55 41 95t98 40t98 -40t41 -95q0 -57 -41 -98t-98 -41z" glyph-name="Ldot" horiz-adv-x="1245" unicode="Ŀ"/><glyph d="M61 0v49q100 18 125 41t25 72v954q0 59 -29.5 89t-120.5 40v45q195 31 330 117l41 -39v-1206q0 -57 32 -78t103 -33q10 -2 15 -2v-49h-521zM682 555q-57 0 -98 41t-41 98q0 55 41 95t98 40t98 -39.5t41 -95.5q0 -57 -41 -98t-98 -41z" glyph-name="ldot" horiz-adv-x="772" unicode="ŀ"/><glyph d="M1124 324h60l-84 -324h-1032v49q104 20 131 41q39 33 39 121v410l-177 -68v92q31 8 88.5 25.5t88.5 25.5v383q0 47 -7.5 76t-36 46.5t-42 21.5t-68.5 14q-10 2 -16 4v49h596v-49q-109 -20 -138 -41q-43 -35 -43 -121v-301q178 61 320 119v-92q-160 -47 -320 -98v-471 q0 -102 36 -129t157 -27h135q123 0 190.5 51.5t122.5 192.5z" glyph-name="Lslash" horiz-adv-x="1249" unicode="Ł"/><glyph d="M449 162q0 -57 31.5 -78t103.5 -33q10 -2 14 -2v-49h-520v49q100 18 125 41t24 72v461l-166 -68v88q111 33 166 51v422q0 59 -29.5 89t-119.5 40v45q195 31 330 117l41 -39v-594q27 10 133 53v-88q-31 -8 -133 -41v-536z" glyph-name="lslash" horiz-adv-x="657" unicode="ł"/><glyph d="M975 1653q-115 -80 -250 -223l-55 34q51 180 141 308q47 0 97.5 -38t66.5 -81zM950 1290h449v-49q-94 -8 -134 -37.5t-40 -124.5v-1079h-103l-798 1092v-881q0 -47 8 -76t38.5 -46t45 -21.5t73.5 -14.5q12 -2 19 -4v-49h-447v49q106 20 134 41q41 33 41 121v868 q0 47 -8.5 76t-36 46.5t-44 21.5t-67.5 14q-12 2 -19 4v49h402l674 -921v710q0 94 -42 124t-145 38v49z" glyph-name="Nacute" horiz-adv-x="1460" unicode="Ń"/><glyph d="M588 1040l-56 35q51 180 142 307q47 0 97 -37.5t67 -80.5q-115 -81 -250 -224zM51 0v49q43 8 59.5 12.5t39 15.5t29.5 31.5t7 53.5v479q0 61 -25.5 90t-109.5 39v45q193 29 328 119l41 -39l-60 -172h39q164 197 353 197q258 0 258 -316v-442q0 -33 7 -53.5t29.5 -31.5 t39 -15.5t59.5 -12.5v-49h-481v49q51 10 69.5 16.5t36.5 30t18 66.5v426q0 193 -149 192q-131 0 -231 -125v-493q0 -43 18 -66.5t36.5 -30t69.5 -16.5v-49h-481z" glyph-name="nacute" horiz-adv-x="1196" unicode="ń"/><glyph d="M950 1290h449v-49q-94 -8 -134 -37.5t-40 -124.5v-1079h-103l-798 1092v-881q0 -47 8 -76t38.5 -46t45 -21.5t73.5 -14.5q12 -2 19 -4v-49h-447v49q106 20 134 41q41 33 41 121v868q0 47 -8.5 76t-36 46.5t-44 21.5t-67.5 14q-12 2 -19 4v49h402l674 -921v710 q0 94 -42 124t-145 38v49zM754 -119q61 0 104 -48t43 -132q0 -121 -88 -233.5t-242 -149.5l-18 49q154 55 182 170q12 53 -41 84q-80 47 -80 125q0 57 40.5 96t99.5 39z" glyph-name="Ncommaaccent" horiz-adv-x="1460" unicode="Ņ"/><glyph d="M51 0v49q43 8 59.5 12.5t39 15.5t29.5 31.5t7 53.5v479q0 61 -25.5 90t-109.5 39v45q193 29 328 119l41 -39l-60 -172h39q164 197 353 197q258 0 258 -316v-442q0 -33 7 -53.5t29.5 -31.5t39 -15.5t59.5 -12.5v-49h-481v49q51 10 69.5 16.5t36.5 30t18 66.5v426 q0 193 -149 192q-131 0 -231 -125v-493q0 -43 18 -66.5t36.5 -30t69.5 -16.5v-49h-481zM434 -682l-18 49q154 55 182 170q12 53 -41 84q-80 47 -80 125q0 57 40 96t99 39q61 0 104.5 -48t43.5 -132q0 -121 -88 -233.5t-242 -149.5z" glyph-name="ncommaaccent" horiz-adv-x="1196" unicode="ņ"/><glyph d="M1012 1769l-285 -311l-287 309l29 29l258 -180l258 180zM950 1290h449v-49q-94 -8 -134 -37.5t-40 -124.5v-1079h-103l-798 1092v-881q0 -47 8 -76t38.5 -46t45 -21.5t73.5 -14.5q12 -2 19 -4v-49h-447v49q106 20 134 41q41 33 41 121v868q0 47 -8.5 76t-36 46.5 t-44 21.5t-67.5 14q-12 2 -19 4v49h402l674 -921v710q0 94 -42 124t-145 38v49z" glyph-name="Ncaron" horiz-adv-x="1460" unicode="Ň"/><glyph d="M590 1069l-287 309l29 29l258 -180l258 180l26 -27zM51 0v49q43 8 59.5 12.5t39 15.5t29.5 31.5t7 53.5v479q0 61 -25.5 90t-109.5 39v45q193 29 328 119l41 -39l-60 -172h39q164 197 353 197q258 0 258 -316v-442q0 -33 7 -53.5t29.5 -31.5t39 -15.5t59.5 -12.5v-49 h-481v49q51 10 69.5 16.5t36.5 30t18 66.5v426q0 193 -149 192q-131 0 -231 -125v-493q0 -43 18 -66.5t36.5 -30t69.5 -16.5v-49h-481z" glyph-name="ncaron" horiz-adv-x="1196" unicode="ň"/><glyph d="M950 1290h449v-49q-94 -8 -134 -37.5t-40 -124.5v-1079q0 -76 -29 -135.5t-71 -98t-105.5 -68.5t-121.5 -46.5t-134 -30.5q-20 31 0 60q139 49 177 115.5t38 228.5v172l-655 895v-881q0 -47 8 -76t38.5 -46t45 -21.5t73.5 -14.5q12 -2 19 -4v-49h-447v49q106 20 134 41 q41 33 41 121v868q0 47 -8.5 76t-36 46.5t-44 21.5t-67.5 14q-12 2 -19 4v49h402l674 -921v710q0 94 -42 124t-145 38v49z" glyph-name="Eng" horiz-adv-x="1460" unicode="Ŋ"/><glyph d="M752 920q258 0 258 -316v-639q0 -86 -39 -152.5t-103.5 -104.5t-127 -58.5t-128.5 -28.5q-18 29 0 57q96 33 136 101.5t40 204.5v604q0 193 -149 192q-131 0 -231 -125v-493q0 -43 18 -66.5t36.5 -30t69.5 -16.5v-49h-481v49q43 8 59.5 12.5t39 15.5t29.5 31.5t7 53.5 v479q0 61 -25.5 90t-109.5 39v45q193 29 328 119l41 -39l-60 -172h39q165 197 353 197z" glyph-name="eng" horiz-adv-x="1132" unicode="ŋ"/><glyph d="M461 1610l31 84h573l-31 -84h-573zM758 -25q-285 0 -470.5 189.5t-185.5 478.5q0 291 187.5 485.5t476.5 194.5q285 0 469 -189.5t184 -480.5q0 -289 -186 -483.5t-475 -194.5zM793 53q166 0 266 142.5t100 396.5q0 291 -119.5 472t-308.5 181q-168 0 -267 -143.5 t-99 -396.5q0 -289 120 -470.5t308 -181.5z" glyph-name="Omacron" horiz-adv-x="1521" unicode="Ō"/><glyph d="M268 1221l31 84h573l-30 -84h-574zM557 -18q-199 0 -337 127t-138 335q0 217 146.5 346.5t351.5 129.5q201 0 338 -126t137 -337q0 -217 -146.5 -346t-351.5 -129zM586 53q98 0 165.5 92.5t67.5 266.5q0 180 -72.5 309t-193.5 129q-100 0 -167 -92t-67 -269 q0 -178 72 -307t195 -129z" glyph-name="omacron" horiz-adv-x="1136" unicode="ō"/><glyph d="M539 1430l-56 34q51 180 142 308q47 0 97 -38t66 -81q-114 -80 -249 -223zM874 1430l-55 34q51 180 142 308q47 0 97 -38t66 -81q-115 -80 -250 -223zM758 -25q-285 0 -470.5 189.5t-185.5 478.5q0 291 187.5 485.5t476.5 194.5q285 0 469 -189.5t184 -480.5 q0 -289 -186 -483.5t-475 -194.5zM793 53q166 0 266 142.5t100 396.5q0 291 -119.5 472t-308.5 181q-168 0 -267 -143.5t-99 -396.5q0 -289 120 -470.5t308 -181.5z" glyph-name="Ohungarumlaut" horiz-adv-x="1521" unicode="Ő"/><glyph d="M346 1040l-55 35q51 180 141 307q47 0 97.5 -37.5t66.5 -80.5q-115 -81 -250 -224zM682 1040l-55 35q51 180 141 307q47 0 97 -37.5t67 -80.5q-115 -81 -250 -224zM557 -18q-199 0 -337 127t-138 335q0 217 146.5 346.5t351.5 129.5q201 0 338 -126t137 -337 q0 -217 -146.5 -346t-351.5 -129zM586 53q98 0 165.5 92.5t67.5 266.5q0 180 -72.5 309t-193.5 129q-100 0 -167 -92t-67 -269q0 -178 72 -307t195 -129z" glyph-name="ohungarumlaut" horiz-adv-x="1136" unicode="ő"/><glyph d="M1987 311h59l-84 -311h-1006q-92 -25 -198 -25q-285 0 -470.5 189.5t-185.5 478.5q0 291 187.5 485.5t476.5 194.5q106 0 215 -33h977l18 -295h-59q-14 117 -55 167t-146 50h-172q-121 0 -156.5 -26.5t-35.5 -128.5v-369h147q176 0 225.5 35t59.5 137h47v-418h-47 q-10 102 -59.5 137t-225.5 35h-147v-381q0 -102 35.5 -128.5t156.5 -26.5h129q121 0 189 50t125 183zM367 705q0 -289 118.5 -470.5t307.5 -181.5q221 0 313 228v647q-39 150 -137.5 233.5t-237.5 83.5q-166 0 -265 -143t-99 -397z" glyph-name="OE" horiz-adv-x="2115" unicode="Œ"/><glyph d="M1407 123q164 0 238 104l36 -24q-37 -104 -135 -161.5t-235 -57.5q-233 0 -373 155q-145 -158 -381 -157q-199 0 -337 127t-138 335q0 217 146.5 346.5t351.5 129.5q227 0 362 -152q135 154 358 154q109 0 196 -42t129 -106.5t58.5 -139.5t-14.5 -142h-610 q10 -166 104 -267.5t244 -101.5zM586 53q98 0 165.5 92.5t67.5 266.5q0 180 -72.5 309t-193.5 129q-100 0 -167 -92t-67 -269q0 -178 72 -307t195 -129zM1280 850q-90 0 -152.5 -74t-70.5 -213h405q18 109 -30 198t-152 89z" glyph-name="oe" horiz-adv-x="1777" unicode="œ"/><glyph d="M944 1653q-115 -80 -250 -223l-55 34q51 180 141 308q47 0 97.5 -38t66.5 -81zM1110 236q139 -225 279 -185v-51q-66 -33 -158 -33q-127 0 -208 48t-146 155l-140 225q-57 94 -112.5 129t-147.5 39v-352q0 -47 7.5 -76t36 -46t41.5 -21.5t69 -14.5q10 -2 16 -4v-49h-586 v49q104 20 132 41q39 33 38 121v868q0 47 -7 76t-35.5 46.5t-42 21.5t-68.5 14q-10 2 -17 4v49h553q578 0 578 -356q0 -299 -397 -356q119 -23 200 -156zM629 1212q-90 0 -121 -22.5t-31 -71.5v-479h119q188 0 264 74.5t76 204.5q0 133 -71.5 213.5t-235.5 80.5z" glyph-name="Racute" horiz-adv-x="1429" unicode="Ŕ"/><glyph d="M422 1040l-55 35q51 180 141 307q47 0 97 -37.5t67 -80.5q-115 -81 -250 -224zM51 0v49q47 8 65.5 12.5t42 15.5t31 31.5t7.5 53.5v481q0 61 -28 90t-118 37v45q199 31 344 119l41 -39l-53 -246h53q63 143 130 214t159 71q45 0 84 -16v-213q-68 29 -133 28 q-123 0 -190.5 -82t-67.5 -205v-284q0 -33 7 -52.5t31.5 -31.5t44 -16.5t68.5 -12.5v-49h-518z" glyph-name="racute" horiz-adv-x="860" unicode="ŕ"/><glyph d="M1110 236q139 -225 279 -185v-51q-66 -33 -158 -33q-127 0 -208 48t-146 155l-140 225q-57 94 -112.5 129t-147.5 39v-352q0 -47 7.5 -76t36 -46t41.5 -21.5t69 -14.5q10 -2 16 -4v-49h-586v49q104 20 132 41q39 33 38 121v868q0 47 -7 76t-35.5 46.5t-42 21.5t-68.5 14 q-10 2 -17 4v49h553q578 0 578 -356q0 -299 -397 -356q119 -23 200 -156zM629 1212q-90 0 -121 -22.5t-31 -71.5v-479h119q188 0 264 74.5t76 204.5q0 133 -71.5 213.5t-235.5 80.5zM737 -119q61 0 104.5 -48t43.5 -132q0 -121 -88 -233.5t-242 -149.5l-18 49 q154 55 182 170q12 53 -41 84q-80 47 -80 125q0 57 40 96t99 39z" glyph-name="Rcommaaccent" horiz-adv-x="1429" unicode="Ŗ"/><glyph d="M51 0v49q47 8 65.5 12.5t42 15.5t31 31.5t7.5 53.5v481q0 61 -28 90t-118 37v45q199 31 344 119l41 -39l-53 -246h53q63 143 130 214t159 71q45 0 84 -16v-213q-68 29 -133 28q-123 0 -190.5 -82t-67.5 -205v-284q0 -33 7 -52.5t31.5 -31.5t44 -16.5t68.5 -12.5v-49h-518 zM152 -682l-19 49q154 55 182 170q12 53 -41 84q-80 47 -79 125q0 57 39.5 96t99.5 39q61 0 104 -48t43 -132q0 -121 -87.5 -233.5t-241.5 -149.5z" glyph-name="rcommaaccent" horiz-adv-x="860" unicode="ŗ"/><glyph d="M981 1769l-285 -311l-286 309l28 29l258 -180l258 180zM1110 236q139 -225 279 -185v-51q-66 -33 -158 -33q-127 0 -208 48t-146 155l-140 225q-57 94 -112.5 129t-147.5 39v-352q0 -47 7.5 -76t36 -46t41.5 -21.5t69 -14.5q10 -2 16 -4v-49h-586v49q104 20 132 41 q39 33 38 121v868q0 47 -7 76t-35.5 46.5t-42 21.5t-68.5 14q-10 2 -17 4v49h553q578 0 578 -356q0 -299 -397 -356q119 -23 200 -156zM629 1212q-90 0 -121 -22.5t-31 -71.5v-479h119q188 0 264 74.5t76 204.5q0 133 -71.5 213.5t-235.5 80.5z" glyph-name="Rcaron" horiz-adv-x="1429" unicode="Ř"/><glyph d="M424 1069l-287 309l29 29l258 -180l258 180l27 -27zM51 0v49q47 8 65.5 12.5t42 15.5t31 31.5t7.5 53.5v481q0 61 -28 90t-118 37v45q199 31 344 119l41 -39l-53 -246h53q63 143 130 214t159 71q45 0 84 -16v-213q-68 29 -133 28q-123 0 -190.5 -82t-67.5 -205v-284 q0 -33 7 -52.5t31.5 -31.5t44 -16.5t68.5 -12.5v-49h-518z" glyph-name="rcaron" horiz-adv-x="860" unicode="ř"/><glyph d="M541 1430l-56 34q51 180 142 308q47 0 97 -38t67 -81q-115 -80 -250 -223zM537 -25q-227 0 -418 129l-17 265h56q39 -145 136 -233.5t232 -88.5q113 0 182.5 66.5t69.5 167.5q0 96 -68.5 162.5t-211.5 131.5q-80 37 -134.5 70t-115 83t-91 115.5t-30.5 145.5 q0 150 111.5 242t320.5 92q35 0 66.5 -2t59.5 -8t50.5 -11.5t47 -16.5t39 -16t36 -18.5t28.5 -17.5t26.5 -16.5t21.5 -14.5l6 -268h-51q-84 317 -324 317q-106 0 -161.5 -55t-55.5 -137q0 -80 59.5 -138.5t198.5 -123.5q68 -31 107 -50.5t104.5 -63.5t102 -85t66.5 -106.5 t30 -137.5q0 -170 -136 -274.5t-343 -104.5z" glyph-name="Sacute" horiz-adv-x="1107" unicode="Ś"/><glyph d="M416 1040l-56 35q51 180 142 307q47 0 97 -37.5t67 -80.5q-115 -81 -250 -224zM389 -18q-176 0 -303 81l-4 191h74q66 -203 256 -203q84 0 128 37t44 98q0 68 -48.5 102t-164.5 77q-125 43 -205 110.5t-80 181.5q0 121 94 192t254 71q143 0 268 -78v-189h-69 q-59 199 -221 199q-70 0 -109 -34t-39 -87q0 -55 45 -93t140 -73q61 -23 87.5 -33t82 -39.5t82 -57t50 -74t23.5 -99.5q0 -127 -107.5 -203.5t-277.5 -76.5z" glyph-name="sacute" horiz-adv-x="856" unicode="ś"/><glyph d="M1016 354q0 -156 -116 -258t-298 -119l-39 -73q90 0 154.5 -44t64.5 -120q0 -80 -83 -127t-250 -47l10 49q94 0 139 27.5t45 66.5q0 90 -227 90l90 176q-207 8 -387 129l-17 265h56q39 -145 136 -233.5t232 -88.5q113 0 182.5 66.5t69.5 167.5q0 96 -68.5 162.5 t-211.5 131.5q-80 37 -134.5 70t-115 83t-91 115.5t-30.5 145.5q0 150 111.5 242t320.5 92q35 0 66.5 -2t59.5 -8t50.5 -11.5t47 -16.5t39 -16t36 -18.5t28.5 -17.5t26.5 -16.5t21.5 -14.5l6 -268h-51q-84 317 -324 317q-106 0 -161.5 -55t-55.5 -137q0 -80 59.5 -138.5 t198.5 -123.5q68 -31 107 -50.5t104.5 -63.5t102 -85t66.5 -106.5t30 -137.5z" glyph-name="Scedilla" horiz-adv-x="1107" unicode="Ş"/><glyph d="M774 262q0 -111 -83 -184.5t-220 -91.5l-43 -82q90 0 154.5 -44t64.5 -120q0 -80 -83 -127t-251 -47l11 49q94 0 139 27.5t45 66.5q0 90 -227 90l92 183q-174 4 -287 81l-4 191h74q66 -203 256 -203q84 0 128 37t44 98q0 68 -48.5 102t-164.5 77q-125 43 -205 110.5 t-80 181.5q0 121 94 192t254 71q143 0 268 -78v-189h-69q-59 199 -221 199q-70 0 -109 -34t-39 -87q0 -55 45 -93t140 -73q61 -23 87.5 -33t82 -39.5t82 -57t50 -74t23.5 -99.5z" glyph-name="scedilla" horiz-adv-x="856" unicode="ş"/><glyph d="M543 1458l-287 309l29 29l258 -180l258 180l26 -27zM537 -25q-227 0 -418 129l-17 265h56q39 -145 136 -233.5t232 -88.5q113 0 182.5 66.5t69.5 167.5q0 96 -68.5 162.5t-211.5 131.5q-80 37 -134.5 70t-115 83t-91 115.5t-30.5 145.5q0 150 111.5 242t320.5 92 q35 0 66.5 -2t59.5 -8t50.5 -11.5t47 -16.5t39 -16t36 -18.5t28.5 -17.5t26.5 -16.5t21.5 -14.5l6 -268h-51q-84 317 -324 317q-106 0 -161.5 -55t-55.5 -137q0 -80 59.5 -138.5t198.5 -123.5q68 -31 107 -50.5t104.5 -63.5t102 -85t66.5 -106.5t30 -137.5 q0 -170 -136 -274.5t-343 -104.5z" glyph-name="Scaron" horiz-adv-x="1107" unicode="Š"/><glyph d="M418 1069l-287 309l29 29l258 -180l258 180l26 -27zM389 -18q-176 0 -303 81l-4 191h74q66 -203 256 -203q84 0 128 37t44 98q0 68 -48.5 102t-164.5 77q-125 43 -205 110.5t-80 181.5q0 121 94 192t254 71q143 0 268 -78v-189h-69q-59 199 -221 199q-70 0 -109 -34 t-39 -87q0 -55 45 -93t140 -73q61 -23 87.5 -33t82 -39.5t82 -57t50 -74t23.5 -99.5q0 -127 -107.5 -203.5t-277.5 -76.5z" glyph-name="scaron" horiz-adv-x="856" unicode="š"/><glyph d="M1190 1311l16 -363h-47q-23 145 -83 209t-216 64h-102v-1010q0 -90 38 -116.5t138 -43.5q10 -2 16 -2v-49h-260l-49 -96q90 0 154.5 -44t64.5 -120q0 -80 -83 -127t-251 -47l11 49q94 0 139 27.5t45 66.5q0 90 -227 90l102 201h-277v49q121 20 150 41q43 33 43 121v1010 h-96q-160 0 -222.5 -63.5t-84.5 -209.5h-48l17 363l108 -21h895z" glyph-name="Tcommaaccent" horiz-adv-x="1267" unicode="Ţ"/><glyph d="M696 106q-125 -70 -276 -116l-43 -86q90 0 154.5 -44t64.5 -120q0 -80 -83 -127t-251 -47l10 49q94 0 139.5 27.5t45.5 66.5q0 90 -228 90l99 191q-51 18 -83 63t-32 97v671h-162v53q184 70 320 216h61v-197l262 27q-10 -43 -10 -99h-252v-588q0 -51 25.5 -77.5 t68.5 -27.5t84 7t86 25v-54z" glyph-name="tcommaaccent" horiz-adv-x="671" unicode="ţ"/><glyph d="M915 1751l-284 -311l-287 309l29 29l258 -181l258 181zM1190 1311l16 -363h-47q-23 145 -83 209t-216 64h-102v-1010q0 -90 38 -116.5t138 -43.5q10 -2 16 -2v-49h-631v49q121 20 150 41q43 33 43 121v1010h-96q-160 0 -222.5 -63.5t-84.5 -209.5h-48l17 363l108 -21h895 z" glyph-name="Tcaron" horiz-adv-x="1267" unicode="Ť"/><glyph d="M496 985q-51 0 -52 51l7 213q4 102 94 103q51 0 76.5 -34t3.5 -93l-70 -191q-18 -49 -59 -49zM432 233q0 -51 25.5 -77.5t68.5 -27.5t84 7t86 25v-54q-147 -82 -309 -126q-74 0 -124 51t-50 119v671h-162v53q184 70 320 216h61v-197l262 27q-10 -43 -10 -99h-252v-588z " glyph-name="tcaron" horiz-adv-x="690" unicode="ť"/><glyph d="M1190 1311l16 -363h-47q-23 145 -83 209t-216 64h-102v-551l223 6l-20 -78l-203 6v-393q0 -90 38 -116.5t138 -43.5q10 -2 16 -2v-49h-631v49q121 20 150 41q43 33 43 121v393l-233 -6l20 78l213 -6v551h-96q-160 0 -222.5 -63.5t-84.5 -209.5h-48l17 363l108 -21h895z " glyph-name="Tbar" horiz-adv-x="1267" unicode="Ŧ"/><glyph d="M438 233q0 -51 25.5 -77.5t68.5 -27.5t84 7t86 25v-54q-147 -82 -309 -126q-74 0 -124 51t-50 119v360h-168l21 78h147v233h-162v53q184 70 320 216h61v-197l262 27q-10 -43 -10 -99h-252v-233h244l-20 -78h-224v-277z" glyph-name="tbar" horiz-adv-x="753" unicode="ŧ"/><glyph d="M440 1610l31 84h573l-30 -84h-574zM741 -25q-98 0 -181 21.5t-164 77t-128 168t-47 274.5v563q0 47 -7 76t-35.5 46.5t-42 21.5t-68.5 14q-10 2 -17 4v49h588v-49q-104 -20 -131 -41q-39 -33 -39 -121v-592q0 -422 334 -421q61 0 116.5 15t113 54t91 122t33.5 202v620 q0 47 -8 76t-36 46.5t-44 21.5t-68 14q-12 2 -18 4v49h449v-49q-115 -20 -142 -41q-43 -33 -43 -121v-579q0 -150 -42 -256.5t-116.5 -162.5t-160 -81t-187.5 -25z" glyph-name="Umacron" horiz-adv-x="1482" unicode="Ū"/><glyph d="M297 1221l31 84h573l-31 -84h-573zM444 -18q-145 0 -206.5 89t-61.5 226v463q0 37 -17.5 56.5t-39 25.5t-68.5 14v45q217 -10 346 12v-606q0 -184 158 -184q119 0 227 104v533q0 37 -17 56.5t-38.5 25.5t-69.5 14v45q215 -10 344 12v-729q0 -61 26 -91t110 -44v-49h-330 l12 162h-28q-169 -180 -347 -180z" glyph-name="umacron" horiz-adv-x="1187" unicode="ū"/><glyph d="M598 1114q-137 0 -216 76t-79 201h53q29 -135 242 -136q211 0 242 136h51q0 -125 -78 -201t-215 -76zM444 -18q-145 0 -206.5 89t-61.5 226v463q0 37 -17.5 56.5t-39 25.5t-68.5 14v45q217 -10 346 12v-606q0 -184 158 -184q119 0 227 104v533q0 37 -17 56.5t-38.5 25.5 t-69.5 14v45q215 -10 344 12v-729q0 -61 26 -91t110 -44v-49h-330l12 162h-28q-169 -180 -347 -180z" glyph-name="ubreve" horiz-adv-x="1187" unicode="ŭ"/><glyph d="M741.5 1477q-79.5 0 -134 53t-54.5 131t54.5 132t134 54t134 -54t54.5 -132t-54.5 -131t-134 -53zM741 1571q41 0 67 25.5t26 64.5t-26 65.5t-67 26.5q-39 0 -65.5 -26.5t-26.5 -65.5t26.5 -64.5t65.5 -25.5zM741 -25q-98 0 -181 21.5t-164 77t-128 168t-47 274.5v563 q0 47 -7 76t-35.5 46.5t-42 21.5t-68.5 14q-10 2 -17 4v49h588v-49q-104 -20 -131 -41q-39 -33 -39 -121v-592q0 -422 334 -421q61 0 116.5 15t113 54t91 122t33.5 202v620q0 47 -8 76t-36 46.5t-44 21.5t-68 14q-12 2 -18 4v49h449v-49q-115 -20 -142 -41q-43 -33 -43 -121 v-579q0 -150 -42 -256.5t-116.5 -162.5t-160 -81t-187.5 -25z" glyph-name="Uring" horiz-adv-x="1482" unicode="Ů"/><glyph d="M598 1087q-80 0 -134 53.5t-54 131.5t54 132t134 54t134 -54t54 -132t-54 -131.5t-134 -53.5zM598 1182q41 0 66.5 25.5t25.5 64.5t-25.5 65.5t-66.5 26.5q-39 0 -65.5 -26.5t-26.5 -65.5t26.5 -64.5t65.5 -25.5zM444 -18q-145 0 -206.5 89t-61.5 226v463 q0 37 -17.5 56.5t-39 25.5t-68.5 14v45q217 -10 346 12v-606q0 -184 158 -184q119 0 227 104v533q0 37 -17 56.5t-38.5 25.5t-69.5 14v45q215 -10 344 12v-729q0 -61 26 -91t110 -44v-49h-330l12 162h-28q-169 -180 -347 -180z" glyph-name="uring" horiz-adv-x="1187" unicode="ů"/><glyph d="M518 1430l-55 34q51 180 141 308q47 0 97.5 -38t66.5 -81q-115 -80 -250 -223zM854 1430l-55 34q51 180 141 308q47 0 97 -38t67 -81q-115 -80 -250 -223zM741 -25q-98 0 -181 21.5t-164 77t-128 168t-47 274.5v563q0 47 -7 76t-35.5 46.5t-42 21.5t-68.5 14q-10 2 -17 4 v49h588v-49q-104 -20 -131 -41q-39 -33 -39 -121v-592q0 -422 334 -421q61 0 116.5 15t113 54t91 122t33.5 202v620q0 47 -8 76t-36 46.5t-44 21.5t-68 14q-12 2 -18 4v49h449v-49q-115 -20 -142 -41q-43 -33 -43 -121v-579q0 -150 -42 -256.5t-116.5 -162.5t-160 -81 t-187.5 -25z" glyph-name="Uhungarumlaut" horiz-adv-x="1482" unicode="Ű"/><glyph d="M375 1040l-56 35q51 180 142 307q47 0 97 -37.5t67 -80.5q-115 -81 -250 -224zM711 1040l-56 35q51 180 142 307q47 0 97 -37.5t67 -80.5q-115 -81 -250 -224zM444 -18q-145 0 -206.5 89t-61.5 226v463q0 37 -17.5 56.5t-39 25.5t-68.5 14v45q217 -10 346 12v-606 q0 -184 158 -184q119 0 227 104v533q0 37 -17 56.5t-38.5 25.5t-69.5 14v45q215 -10 344 12v-729q0 -61 26 -91t110 -44v-49h-330l12 162h-28q-169 -180 -347 -180z" glyph-name="uhungarumlaut" horiz-adv-x="1187" unicode="ű"/><glyph d="M983 1290h449v-49q-115 -20 -142 -41q-43 -33 -43 -121v-579q0 -416 -329 -504q-170 -68 -170 -197q0 -53 29.5 -84.5t78.5 -31.5q39 0 86 18v-39q-74 -70 -180 -70q-86 0 -141.5 42t-55.5 130q0 66 43 121l146 90h-13q-98 0 -181 21.5t-164 77t-128 168t-47 274.5v563 q0 47 -7 76t-35.5 46.5t-42 21.5t-68.5 14q-10 2 -17 4v49h588v-49q-104 -20 -131 -41q-39 -33 -39 -121v-592q0 -422 334 -421q61 0 116.5 15t113 54t91 122t33.5 202v620q0 47 -8 76t-36 46.5t-44 21.5t-68 14q-12 2 -18 4v49z" glyph-name="Uogonek" horiz-adv-x="1470" unicode="Ų"/><glyph d="M944 0q-90 -53 -130 -98t-40 -103q0 -53 30 -84.5t79 -31.5q39 0 86 18v-39q-74 -70 -181 -70q-86 0 -141 42t-55 130q0 66 43 121l172 117l12 160h-28q-168 -180 -347 -180q-145 0 -206.5 89t-61.5 226v463q0 37 -17.5 56.5t-39 25.5t-68.5 14v45q217 -10 346 12v-606 q0 -184 158 -184q119 0 227 104v533q0 37 -17 56.5t-38.5 25.5t-69.5 14v45q215 -10 344 12v-729q0 -61 26 -91t110 -44v-49h-193z" glyph-name="uogonek" horiz-adv-x="1187" unicode="ų"/><glyph d="M1047 1798l284 -311l-26 -27l-258 180l-259 -180l-28 29zM623 -16l-433 1142q-25 66 -52 83.5t-118 33.5v45h562v-45l-19 -4q-18 -4 -24.5 -5t-23.5 -7t-24.5 -11.5t-18.5 -14.5t-14 -19.5t-4 -24.5t5 -31l293 -815l225 639q39 100 1 186.5t-149 108.5v45h383 q0 -78 74 -280l250 -697l256 725q18 49 19 84t-7 55.5t-36.5 34t-56.5 19.5t-81 14v45h453v-45q-66 -12 -87.5 -19t-44 -28.5t-38.5 -69.5l-414 -1142h-92l-354 946l-338 -948h-92z" glyph-name="Wcircumflex" horiz-adv-x="2103" unicode="Ŵ"/><glyph d="M821 1409l285 -311l-27 -27l-258 180l-258 -180l-28 29zM467 -12l-305 776q-20 53 -46 67.5t-96 20.5v49h484v-49q-94 -12 -111 -37q-12 -18 0 -51l191 -512l174 428q33 80 6 127q-12 25 -33.5 32t-68.5 13v49h333q0 -76 37 -172l185 -479l167 418q25 59 26 96 t-22.5 54.5t-51 23.5t-81.5 10v49h379v-49q-70 -6 -94 -20.5t-47 -67.5l-311 -776h-80l-275 684l-280 -684h-80z" glyph-name="wcircumflex" horiz-adv-x="1654" unicode="ŵ"/><glyph d="M686 1640l-258 -180l-29 29l287 309l285 -311l-27 -27zM944 1290h408v-49q-82 -16 -107.5 -33.5t-73.5 -93.5l-346 -553v-354q0 -51 9.5 -80t42 -45t53 -21.5t86.5 -15.5v-45h-627v45q121 20 150 43q41 31 41 119v325l-371 582q-49 76 -73.5 93.5t-104.5 33.5v49h571v-49 q-8 -2 -31.5 -7t-33 -7t-25.5 -8.5t-22.5 -11.5t-13.5 -13t-6 -19.5t5 -26.5t17 -34l294 -473l289 473q20 35 23.5 56.5t-18 34t-39 17.5t-64.5 13q-23 4 -33 6v49z" glyph-name="Ycircumflex" horiz-adv-x="1382" unicode="Ŷ"/><glyph d="M539 1251l-258 -180l-29 29l287 309l284 -311l-26 -27zM723 901h334v-49q-70 -8 -93.5 -22.5t-48.5 -71.5l-356 -832q-35 -80 -66.5 -137t-93 -110.5t-131.5 -53.5q-68 0 -137 47v140q150 -16 230.5 6t117.5 108l23 54l-338 778q-25 57 -49.5 71.5t-94.5 22.5v49h484v-49 q-94 -14 -111 -37q-14 -20 2 -57l219 -518l222 518q8 18 9 31.5t-6.5 22.5t-14.5 15.5t-25.5 11.5t-27.5 6t-34 5q-10 2 -14 2v49z" glyph-name="ycircumflex" horiz-adv-x="1077" unicode="ŷ"/><glyph d="M481 1546q-47 0 -80.5 34t-33.5 81t33.5 81t80.5 34t81 -34t34 -81t-34 -81t-81 -34zM903 1546q-49 0 -82 34t-33 81t33 81t82 34q47 0 80 -34t33 -81t-33 -81t-80 -34zM944 1290h408v-49q-82 -16 -107.5 -33.5t-73.5 -93.5l-346 -553v-354q0 -51 9.5 -80t42 -45 t53 -21.5t86.5 -15.5v-45h-627v45q121 20 150 43q41 31 41 119v325l-371 582q-49 76 -73.5 93.5t-104.5 33.5v49h571v-49q-8 -2 -31.5 -7t-33 -7t-25.5 -8.5t-22.5 -11.5t-13.5 -13t-6 -19.5t5 -26.5t17 -34l294 -473l289 473q20 35 23.5 56.5t-18 34t-39 17.5t-64.5 13 q-23 4 -33 6v49z" glyph-name="Ydieresis" horiz-adv-x="1382" unicode="Ÿ"/><glyph d="M618 1430l-55 34q51 180 142 308q47 0 97 -38t66 -81q-115 -80 -250 -223zM84 0l-23 31l797 1202l-405 -8q-147 -2 -206 -63.5t-69 -207.5h-55v349l125 -13h932l-813 -1233l477 9q141 2 198.5 65.5t87.5 208.5h58q-39 -209 -39 -340h-1065z" glyph-name="Zacute" horiz-adv-x="1249" unicode="Ź"/><glyph d="M487 1040l-55 35q51 180 141 307q47 0 97.5 -37.5t66.5 -80.5q-115 -81 -250 -224zM84 0l-23 31l566 809l-256 -6q-172 -2 -193 -211h-55v290l121 -12h669l-583 -840l270 7q125 2 179.5 55t84.5 160h60q-39 -152 -39 -283h-801z" glyph-name="zacute" horiz-adv-x="985" unicode="ź"/><glyph d="M625 1477q-55 0 -96.5 38.5t-41.5 92.5q0 55 41 93t96.5 38t95.5 -38t40 -93q0 -53 -41 -92t-94 -39zM84 0l-23 31l797 1202l-405 -8q-147 -2 -206 -63.5t-69 -207.5h-55v349l125 -13h932l-813 -1233l477 9q141 2 198.5 65.5t87.5 208.5h58q-39 -209 -39 -340h-1065z" glyph-name="Zdotaccent" horiz-adv-x="1249" unicode="Ż"/><glyph d="M494 1087q-55 0 -96.5 39t-41.5 93q0 55 41 93t96.5 38t95.5 -38t40 -93q0 -53 -41 -92.5t-94 -39.5zM84 0l-23 31l566 809l-256 -6q-172 -2 -193 -211h-55v290l121 -12h669l-583 -840l270 7q125 2 179.5 55t84.5 160h60q-39 -152 -39 -283h-801z" glyph-name="zdotaccent" horiz-adv-x="985" unicode="ż"/><glyph d="M621 1458l-287 309l28 29l259 -180l258 180l26 -27zM84 0l-23 31l797 1202l-405 -8q-147 -2 -206 -63.5t-69 -207.5h-55v349l125 -13h932l-813 -1233l477 9q141 2 198.5 65.5t87.5 208.5h58q-39 -209 -39 -340h-1065z" glyph-name="Zcaron" horiz-adv-x="1249" unicode="Ž"/><glyph d="M489 1069l-286 309l28 29l258 -180l259 180l26 -27zM84 0l-23 31l566 809l-256 -6q-172 -2 -193 -211h-55v290l121 -12h669l-583 -840l270 7q125 2 179.5 55t84.5 160h60q-39 -152 -39 -283h-801z" glyph-name="zcaron" horiz-adv-x="985" unicode="ž"/><glyph d="M1194 1403q182 0 217 -121q-8 -51 -58 -88t-114 -47q-35 166 -137 166q-66 0 -121 -59.5t-74 -211.5l-16 -141l246 23q-10 -45 -11 -103h-245l-80 -661q-31 -250 -183.5 -384t-349.5 -134q-182 0 -217 120q8 51 58.5 88t113.5 48q35 -166 137 -166q66 0 121.5 59 t73.5 211l98 819h-145v49l154 31q37 240 188 371t344 131z" glyph-name="florin" horiz-adv-x="1277" unicode="ƒ"/><glyph d="M537 -25q-227 0 -418 129l-17 265h56q39 -145 136 -233.5t232 -88.5q113 0 182.5 66.5t69.5 167.5q0 96 -68.5 162.5t-211.5 131.5q-80 37 -134.5 70t-115 83t-91 115.5t-30.5 145.5q0 150 111.5 242t320.5 92q35 0 66.5 -2t59.5 -8t50.5 -11.5t47 -16.5t39 -16t36 -18.5 t28.5 -17.5t26.5 -16.5t21.5 -14.5l6 -268h-51q-84 317 -324 317q-106 0 -161.5 -55t-55.5 -137q0 -80 59.5 -138.5t198.5 -123.5q68 -31 107 -50.5t104.5 -63.5t102 -85t66.5 -106.5t30 -137.5q0 -170 -136 -274.5t-343 -104.5zM397 -682l-18 49q154 55 182 170 q12 53 -41 84q-80 47 -80 125q0 57 40 96t100 39q61 0 104 -48t43 -132q0 -121 -88 -233.5t-242 -149.5z" glyph-name="Scommaaccent" horiz-adv-x="1107" unicode="Ș"/><glyph d="M389 -18q-176 0 -303 81l-4 191h74q66 -203 256 -203q84 0 128 37t44 98q0 68 -48.5 102t-164.5 77q-125 43 -205 110.5t-80 181.5q0 121 94 192t254 71q143 0 268 -78v-189h-69q-59 199 -221 199q-70 0 -109 -34t-39 -87q0 -55 45 -93t140 -73q61 -23 87.5 -33t82 -39.5 t82 -57t50 -74t23.5 -99.5q0 -127 -107.5 -203.5t-277.5 -76.5zM262 -682l-18 49q154 55 182 170q12 53 -41 84q-80 47 -80 125q0 57 40 96t99 39q61 0 104.5 -48t43.5 -132q0 -121 -88 -233.5t-242 -149.5z" glyph-name="scommaaccent" horiz-adv-x="856" unicode="ș"/><glyph d="M1190 1311l16 -363h-47q-23 145 -83 209t-216 64h-102v-1010q0 -90 38 -116.5t138 -43.5q10 -2 16 -2v-49h-631v49q121 20 150 41q43 33 43 121v1010h-96q-160 0 -222.5 -63.5t-84.5 -209.5h-48l17 363l108 -21h895zM657 -119q61 0 104.5 -48t43.5 -132 q0 -121 -88 -233.5t-242 -149.5l-18 49q154 55 182 170q12 53 -41 84q-80 47 -80 125q0 57 40 96t99 39z" glyph-name="uni021A" horiz-adv-x="1267" unicode="Ț"/><glyph d="M432 233q0 -51 25.5 -77.5t68.5 -27.5t84 7t86 25v-54q-147 -82 -309 -126q-74 0 -124 51t-50 119v671h-162v53q184 70 320 216h61v-197l262 27q-10 -43 -10 -99h-252v-588zM406 -119q61 0 104 -48t43 -132q0 -121 -88 -233.5t-242 -149.5l-18 49q154 55 182 170 q12 53 -41 84q-80 47 -80 125q0 57 40.5 96t99.5 39z" glyph-name="uni021B" horiz-adv-x="671" unicode="ț"/><glyph d="M6 -379q-18 29 0 57q113 35 144.5 88.5t31.5 208.5v666q0 61 -25.5 90t-109.5 39v45q178 33 313 119l43 -39v-930q0 -86 -38.5 -152.5t-103 -104.5t-127 -58.5t-128.5 -28.5z" glyph-name="uni0237" horiz-adv-x="526" unicode="ȷ"/><glyph d="M307 1409l285 -311l-27 -27l-258 180l-258 -180l-29 29z" glyph-name="circumflex" horiz-adv-x="624" unicode="ˆ"/><glyph d="M307 1069l-287 309l29 29l258 -180l258 180l27 -27z" glyph-name="caron" horiz-adv-x="612" unicode="ˇ"/><glyph d="M315.5 1114q-137.5 0 -216.5 76t-79 201h54q29 -135 241 -136q211 0 242 136h51q0 -125 -77.5 -201t-215 -76z" glyph-name="breve" horiz-adv-x="628" unicode="˘"/><glyph d="M158 1087q-55 0 -96.5 39t-41.5 93q0 55 41 93t96.5 38t95.5 -38t40 -93q0 -53 -41 -92.5t-94 -39.5z" glyph-name="dotaccent" horiz-adv-x="313" unicode="˙"/><glyph d="M209 1087q-80 0 -134.5 53.5t-54.5 131.5t54.5 132t134.5 54t134 -54t54 -132t-54 -131.5t-134 -53.5zM209 1182q41 0 66.5 25.5t25.5 64.5t-25.5 65.5t-66.5 26.5q-39 0 -65.5 -26.5t-26.5 -65.5t26.5 -64.5t65.5 -25.5z" glyph-name="ring" horiz-adv-x="417" unicode="˚"/><glyph d="M217 -375q-86 0 -141.5 42t-55.5 130q0 66 43 121l310 209v-94q-90 -53 -130 -98.5t-40 -102.5q0 -53 29.5 -85t78.5 -32q39 0 86 19v-39q-74 -70 -180 -70z" glyph-name="ogonek" horiz-adv-x="417" unicode="˛"/><glyph d="M518 1073q-53 0 -100 22.5t-74 51.5t-67.5 51.5t-86.5 22.5q-51 0 -83.5 -31t-32.5 -64h-49q-18 98 48 164t167 66q82 0 173 -74t156 -74q51 0 84 31t33 64h47q18 -98 -48.5 -164t-166.5 -66z" glyph-name="tilde" horiz-adv-x="757" unicode="˜"/><glyph d="M76 1040l-56 35q51 180 142 307q47 0 97 -37.5t67 -80.5q-115 -81 -250 -224zM412 1040l-56 35q51 180 142 307q47 0 97 -37.5t67 -80.5q-115 -81 -250 -224z" glyph-name="hungarumlaut" horiz-adv-x="681" unicode="˝"/><glyph d="M-279 1040l-55 35q51 180 141 307q47 0 97.5 -37.5t66.5 -80.5q-115 -81 -250 -224z" glyph-name="acutecomb" horiz-adv-x="0" unicode="́"/><glyph d="M-328 -682l-18 49q154 55 182 170q12 53 -41 84q-80 47 -80 125q0 57 40 96t100 39q61 0 104 -48t43 -132q0 -121 -88 -233.5t-242 -149.5z" glyph-name="uni0326" horiz-adv-x="0" unicode="̦"/><glyph d="M20 0l588 1298l588 -1298h-1176zM172 178h713l-350 817z" glyph-name="Delta" horiz-adv-x="1216" unicode="Δ"/><glyph d="M1407 240h41l-74 -240h-444v180q84 41 159.5 183.5t75.5 322.5q0 242 -107.5 391.5t-281.5 149.5q-176 0 -283.5 -149.5t-107.5 -391.5q0 -180 76 -322.5t160 -183.5v-180h-445l-74 240h41q31 -41 78 -50.5t162 -9.5h41q-119 78 -211 212t-92 315q0 248 185.5 423 t470 175t470 -175.5t185.5 -422.5q0 -180 -92.5 -313.5t-213.5 -213.5h41q80 0 114 2t68.5 15.5t57.5 42.5z" glyph-name="Omega" horiz-adv-x="1550" unicode="Ω"/><glyph d="M1001 184q0 -61 26 -91t110 -44v-49h-330l12 162h-28q-168 -180 -347 -180q-94 0 -157 43q8 -78 29.5 -135.5t41 -80t36 -44t16.5 -37.5q0 -72 -59.5 -114t-119 -18.5t-59.5 107.5v647h4v410q0 37 -17.5 56.5t-39 25.5t-68.5 14v45q217 -10 346 12v-606q0 -184 158 -184 q119 0 227 104v533q0 37 -17 56.5t-38.5 25.5t-69.5 14v45q215 -10 344 12v-729z" glyph-name="mu" horiz-adv-x="1187" unicode="μ"/><glyph d="M1288 231q39 0 62.5 -26.5t23.5 -71.5q0 -76 -66.5 -114.5t-156.5 -38.5q-123 0 -203 74.5t-80 211.5v500h-256v-514q0 -125 -76.5 -194.5t-181.5 -69.5q-82 0 -149 24l-23 70q86 -20 147.5 21.5t61.5 148.5v514h-92q-72 0 -103.5 -43t-11.5 -121l-65 33q-53 109 -7 199 t173 90h995v-158h-193v-567q0 -117 56 -117q25 0 40 23.5t22 51t28.5 51t54.5 23.5z" glyph-name="pi" horiz-adv-x="1466" unicode="π"/><glyph d="M1071 1430q-135 143 -250 223q16 43 66.5 81t97.5 38q90 -127 141 -308zM623 -16l-433 1142q-25 66 -52 83.5t-118 33.5v45h562v-45l-19 -4q-18 -4 -24.5 -5t-23.5 -7t-24.5 -11.5t-18.5 -14.5t-14 -19.5t-4 -24.5t5 -31l293 -815l225 639q39 100 1 186.5t-149 108.5v45 h383q0 -78 74 -280l250 -697l256 725q18 49 19 84t-7 55.5t-36.5 34t-56.5 19.5t-81 14v45h453v-45q-66 -12 -87.5 -19t-44 -28.5t-38.5 -69.5l-414 -1142h-92l-354 946l-338 -948h-92z" glyph-name="Wgrave" horiz-adv-x="2103" unicode="Ẁ"/><glyph d="M846 1040q-135 143 -250 224q16 43 66.5 80.5t97.5 37.5q90 -127 141 -307zM467 -12l-305 776q-20 53 -46 67.5t-96 20.5v49h484v-49q-94 -12 -111 -37q-12 -18 0 -51l191 -512l174 428q33 80 6 127q-12 25 -33.5 32t-68.5 13v49h333q0 -76 37 -172l185 -479l167 418 q25 59 26 96t-22.5 54.5t-51 23.5t-81.5 10v49h379v-49q-70 -6 -94 -20.5t-47 -67.5l-311 -776h-80l-275 684l-280 -684h-80z" glyph-name="wgrave" horiz-adv-x="1654" unicode="ẁ"/><glyph d="M1047 1430l-56 34q51 180 142 308q47 0 97 -38t66 -81q-114 -80 -249 -223zM623 -16l-433 1142q-25 66 -52 83.5t-118 33.5v45h562v-45l-19 -4q-18 -4 -24.5 -5t-23.5 -7t-24.5 -11.5t-18.5 -14.5t-14 -19.5t-4 -24.5t5 -31l293 -815l225 639q39 100 1 186.5t-149 108.5 v45h383q0 -78 74 -280l250 -697l256 725q18 49 19 84t-7 55.5t-36.5 34t-56.5 19.5t-81 14v45h453v-45q-66 -12 -87.5 -19t-44 -28.5t-38.5 -69.5l-414 -1142h-92l-354 946l-338 -948h-92z" glyph-name="Wacute" horiz-adv-x="2103" unicode="Ẃ"/><glyph d="M821 1040l-55 35q51 180 141 307q47 0 97.5 -37.5t66.5 -80.5q-115 -81 -250 -224zM467 -12l-305 776q-20 53 -46 67.5t-96 20.5v49h484v-49q-94 -12 -111 -37q-12 -18 0 -51l191 -512l174 428q33 80 6 127q-12 25 -33.5 32t-68.5 13v49h333q0 -76 37 -172l185 -479 l167 418q25 59 26 96t-22.5 54.5t-51 23.5t-81.5 10v49h379v-49q-70 -6 -94 -20.5t-47 -67.5l-311 -776h-80l-275 684l-280 -684h-80z" glyph-name="wacute" horiz-adv-x="1654" unicode="ẃ"/><glyph d="M842 1546q-47 0 -81 34t-34 81t34 81t81 34t80.5 -34t33.5 -81t-33.5 -81t-80.5 -34zM1264 1546q-49 0 -82 34t-33 81t32.5 81t82.5 34q47 0 79.5 -34t32.5 -81t-32.5 -81t-79.5 -34zM623 -16l-433 1142q-25 66 -52 83.5t-118 33.5v45h562v-45l-19 -4q-18 -4 -24.5 -5 t-23.5 -7t-24.5 -11.5t-18.5 -14.5t-14 -19.5t-4 -24.5t5 -31l293 -815l225 639q39 100 1 186.5t-149 108.5v45h383q0 -78 74 -280l250 -697l256 725q18 49 19 84t-7 55.5t-36.5 34t-56.5 19.5t-81 14v45h453v-45q-66 -12 -87.5 -19t-44 -28.5t-38.5 -69.5l-414 -1142h-92 l-354 946l-338 -948h-92z" glyph-name="Wdieresis" horiz-adv-x="2103" unicode="Ẅ"/><glyph d="M616.5 1157q-47.5 0 -81 34t-33.5 81t33.5 80.5t81 33.5t81 -33.5t33.5 -80.5t-33.5 -81t-81 -34zM1038 1157q-49 0 -81.5 34t-32.5 81t32.5 80.5t81.5 33.5q47 0 80 -33.5t33 -80.5t-33 -81t-80 -34zM467 -12l-305 776q-20 53 -46 67.5t-96 20.5v49h484v-49 q-94 -12 -111 -37q-12 -18 0 -51l191 -512l174 428q33 80 6 127q-12 25 -33.5 32t-68.5 13v49h333q0 -76 37 -172l185 -479l167 418q25 59 26 96t-22.5 54.5t-51 23.5t-81.5 10v49h379v-49q-70 -6 -94 -20.5t-47 -67.5l-311 -776h-80l-275 684l-280 -684h-80z" glyph-name="wdieresis" horiz-adv-x="1654" unicode="ẅ"/><glyph d="M1014 711q180 -23 295.5 -114t115.5 -251q0 -164 -122.5 -275.5t-329.5 -111.5q-158 0 -273 66q-4 113 -34 249h57q59 -141 112.5 -193t129.5 -52q102 0 161.5 72.5t59.5 189.5q0 170 -127 265t-350 95l331 529q-78 37 -209 37q-362 0 -362 -451v-555q0 -49 7 -79 t31.5 -46t39 -21.5t61.5 -15.5v-49h-557v49q104 20 131 41q39 33 39 121v526q0 137 34 240.5t86 165t126 98.5t143.5 50.5t149.5 13.5q254 0 549 -127z" glyph-name="uni1E9E" horiz-adv-x="1517" unicode="ẞ"/><glyph d="M309 1516h-49q-18 98 48.5 163.5t166.5 65.5q82 0 173 -74t157 -74q51 0 84 31t33 64h47q18 -98 -48.5 -164t-166.5 -66q-53 0 -100.5 22.5t-74 51.5t-67.5 51.5t-86 22.5q-51 0 -84 -30.5t-33 -63.5zM1112 311h59l-84 -311h-1026v49q104 20 132 41q39 33 38 121v868 q0 47 -7 76t-35.5 46.5t-42 21.5t-68.5 14q-10 2 -17 4v49h1022l19 -295h-60q-14 117 -55 167t-145 50h-172q-121 0 -157 -26.5t-36 -128.5v-369h148q176 0 225 35t59 137h47v-418h-47q-10 102 -59 137t-225 35h-148v-381q0 -102 36 -128.5t157 -26.5h129q121 0 188.5 50 t124.5 183z" glyph-name="uni1EBC" horiz-adv-x="1243" unicode="Ẽ"/><glyph d="M203 1126h-49q-18 98 48 164t167 66q82 0 173 -74t156 -74q51 0 84 31t33 64h47q18 -98 -48 -164t-167 -66q-53 0 -100 22.5t-74 51.5t-67.5 51.5t-86.5 22.5q-51 0 -83.5 -31t-32.5 -64zM659 121q164 0 238 104l37 -24q-37 -104 -135.5 -161.5t-235.5 -57.5 q-207 0 -344 127t-137 337.5t135 342t336 131.5q109 0 196 -42t129 -106.5t58 -139.5t-14 -143h-611q10 -166 104 -267t244 -101zM532 848q-90 0 -152.5 -74t-70.5 -213h406q18 109 -30.5 198t-152.5 89z" glyph-name="uni1EBD" horiz-adv-x="1032" unicode="ẽ"/><glyph d="M711 1430q-135 143 -250 223q16 43 66.5 81t97.5 38q90 -127 141 -308zM944 1290h408v-49q-82 -16 -107.5 -33.5t-73.5 -93.5l-346 -553v-354q0 -51 9.5 -80t42 -45t53 -21.5t86.5 -15.5v-45h-627v45q121 20 150 43q41 31 41 119v325l-371 582q-49 76 -73.5 93.5 t-104.5 33.5v49h571v-49q-8 -2 -31.5 -7t-33 -7t-25.5 -8.5t-22.5 -11.5t-13.5 -13t-6 -19.5t5 -26.5t17 -34l294 -473l289 473q20 35 23.5 56.5t-18 34t-39 17.5t-64.5 13q-23 4 -33 6v49z" glyph-name="Ygrave" horiz-adv-x="1382" unicode="Ỳ"/><glyph d="M563 1040q-135 143 -250 224q16 43 66.5 80.5t97.5 37.5q90 -127 141 -307zM723 901h334v-49q-70 -8 -93.5 -22.5t-48.5 -71.5l-356 -832q-35 -80 -66.5 -137t-93 -110.5t-131.5 -53.5q-68 0 -137 47v140q150 -16 230.5 6t117.5 108l23 54l-338 778q-25 57 -49.5 71.5 t-94.5 22.5v49h484v-49q-94 -14 -111 -37q-14 -20 2 -57l219 -518l222 518q8 18 9 31.5t-6.5 22.5t-14.5 15.5t-25.5 11.5t-27.5 6t-34 5q-10 2 -14 2v49z" glyph-name="ygrave" horiz-adv-x="1077" unicode="ỳ"/><glyph d="M102 489v89h1158v-89h-1158z" glyph-name="endash" horiz-adv-x="1361" unicode="–"/><glyph d="M102 489v89h1678v-89h-1678z" glyph-name="emdash" horiz-adv-x="1882" unicode="—"/><glyph d="M102 489v89h1678v-89h-1678z" glyph-name="afii00208" horiz-adv-x="1882" unicode="―"/><glyph d="M412 1319l18 -49q-154 -55 -182 -170q-12 -53 41 -84q80 -47 80 -125q0 -57 -40 -96t-100 -39q-61 0 -104 48t-43 132q0 121 88 233.5t242 149.5z" glyph-name="quoteleft" horiz-adv-x="512" unicode="‘"/><glyph d="M100 764l-18 49q154 55 182 170q12 53 -41 84q-80 47 -80 125q0 57 40 96t100 39q61 0 104 -48t43 -132q0 -121 -88 -233.5t-242 -149.5z" glyph-name="quoteright" horiz-adv-x="512" unicode="’"/><glyph d="M100 -309l-18 49q154 55 182 170q12 53 -41 84q-80 47 -80 125q0 57 40 96t100 39q61 0 104 -48t43 -132q0 -121 -88 -233.5t-242 -149.5z" glyph-name="quotesinglbase" horiz-adv-x="512" unicode="‚"/><glyph d="M412 1319l18 -49q-154 -55 -182 -170q-12 -53 41 -84q80 -47 80 -125q0 -57 -40 -96t-100 -39q-61 0 -104 48t-43 132q0 121 88 233.5t242 149.5zM831 1319l19 -49q-154 -55 -182 -170q-12 -53 41 -84q80 -47 79 -125q0 -57 -39.5 -96t-99.5 -39q-61 0 -104 48t-43 132 q0 121 87.5 233.5t241.5 149.5z" glyph-name="quotedblleft" horiz-adv-x="931" unicode="“"/><glyph d="M100 764l-18 49q154 55 182 170q12 53 -41 84q-80 47 -80 125q0 57 40 96t100 39q61 0 104 -48t43 -132q0 -121 -88 -233.5t-242 -149.5zM520 764l-18 49q154 55 182 170q12 53 -41 84q-80 47 -80 125q0 57 40 96t99 39q61 0 104.5 -48t43.5 -132q0 -121 -88 -233.5 t-242 -149.5z" glyph-name="quotedblright" horiz-adv-x="931" unicode="”"/><glyph d="M100 -299l-18 49q154 55 182 170q12 53 -41 84q-80 47 -80 125q0 57 40 96t100 39q61 0 104 -48t43 -132q0 -121 -88 -233.5t-242 -149.5zM520 -299l-18 49q154 55 182 170q12 53 -41 84q-80 47 -80 125q0 57 40 96t99 39q61 0 104.5 -48t43.5 -132q0 -121 -88 -233.5 t-242 -149.5z" glyph-name="quotedblbase" horiz-adv-x="931" unicode="„"/><glyph d="M537 2l-95 674l86 131v108q-57 -2 -131.5 -47t-113.5 -45q-49 0 -84 32t-35 81t34.5 81t84.5 32q37 0 112.5 -47.5t132.5 -47.5q0 59 -46 134t-46 112q0 47 33 81t82 34q51 0 84 -34t33 -81q0 -37 -46.5 -111.5t-48.5 -134.5q59 0 134 47.5t112 47.5q49 0 84 -32t35 -81 t-35 -81t-84 -32q-37 0 -111.5 45t-134.5 47v-108l86 -131l-94 -674h-28z" glyph-name="dagger" horiz-adv-x="1101" unicode="†"/><glyph d="M551 -25q-49 0 -82 35t-33 82q0 37 46 110.5t46 133.5q-57 0 -133 -46t-112 -46q-49 0 -84 31.5t-35 81t34.5 81t84.5 31.5q37 0 112.5 -46t132.5 -46v108l-86 170l86 152v108q-57 -2 -131.5 -47t-113.5 -45q-49 0 -84 32t-35 81t34.5 81t84.5 32q37 0 112.5 -47.5 t132.5 -47.5q0 59 -46 134t-46 112q0 47 33 81t82 34q51 0 84 -34t33 -81q0 -37 -46.5 -111.5t-48.5 -134.5q59 0 134 47.5t112 47.5q49 0 84 -32t35 -81t-35 -81t-84 -32q-37 0 -111.5 45t-134.5 47v-108l86 -152l-86 -170v-108q59 0 134 46t112 46q49 0 84 -31.5t35 -81 t-35 -81t-84 -31.5q-37 0 -111.5 46t-134.5 46q2 -59 48.5 -133t46.5 -111q0 -47 -33 -82t-84 -35z" glyph-name="daggerdbl" horiz-adv-x="1128" unicode="‡"/><glyph d="M358 276q-96 0 -165.5 69t-69.5 167q0 96 69.5 166t165.5 70q98 0 167 -70t69 -166q0 -98 -69 -167t-167 -69z" glyph-name="bullet" horiz-adv-x="716" unicode="•"/><glyph d="M241.5 -20q-57.5 0 -98.5 40.5t-41 98.5q0 55 41 95t98.5 40t98.5 -40t41 -95q0 -57 -41 -98t-98.5 -41zM663.5 -20q-57.5 0 -98.5 40.5t-41 98.5q0 55 41 95t98.5 40t98.5 -40t41 -95q0 -57 -41 -98t-98.5 -41zM1085.5 -20q-57.5 0 -98.5 40.5t-41 98.5q0 55 41 95 t98.5 40t98.5 -40t41 -95q0 -57 -41 -98t-98.5 -41z" glyph-name="ellipsis" horiz-adv-x="1327" unicode="…"/><glyph d="M1108 1290h129l-915 -1290h-113l811 1130q-166 -100 -371 -2q6 -31 6 -63q0 -156 -97 -281t-236 -125q-100 0 -160 67t-60 175q0 154 103.5 274.5t247.5 120.5q82 0 131 -43q92 -53 153.5 -78.5t130 -32.5t127 29.5t113.5 118.5zM365 725q88 0 155.5 109.5t67.5 228.5 q0 78 -34 124t-89 46q-61 0 -110.5 -60.5t-72 -138.5t-22.5 -149q0 -74 27 -117t78 -43zM1135 633q96 0 149 -62.5t53 -169.5q0 -156 -97 -280.5t-236 -124.5q-100 0 -160 66.5t-60 175.5q0 154 104 274.5t247 120.5zM1755 633q96 0 149.5 -62.5t53.5 -169.5 q0 -156 -97.5 -280.5t-238.5 -124.5q-100 0 -158.5 66.5t-58.5 175.5q0 154 103.5 274.5t246.5 120.5zM1047 63q88 0 155.5 110t67.5 228q0 78 -34 123t-89 45q-92 0 -148.5 -113.5t-56.5 -232.5q1 -160 105 -160zM1665 63q88 0 155.5 110t67.5 228q0 78 -33.5 123t-89.5 45 q-90 0 -146 -114.5t-56 -231.5q0 -74 26.5 -117t75.5 -43z" glyph-name="perthousand" horiz-adv-x="2060" unicode="‰"/><glyph d="M102 457l310 286l28 -28l-180 -258l180 -258l-26 -27z" glyph-name="guilsinglleft" horiz-adv-x="542" unicode="‹"/><glyph d="M451 457l-312 -285l-26 27l180 258l-180 258l28 28z" glyph-name="guilsinglright" horiz-adv-x="542" unicode="›"/><glyph d="M-358 -10l884 1313h58l-885 -1313h-57z" glyph-name="fraction" horiz-adv-x="225" unicode="⁄"/><glyph d="M1450 190l43 -45q-66 -74 -192.5 -122t-284.5 -48q-254 0 -434.5 134.5t-235.5 353.5h-244l25 121h199q-2 20 -2 61q0 27 4 72h-174l24 121h170q61 219 246.5 352t447.5 133q244 0 402 -94q8 -186 14 -277h-80q-68 293 -362 293q-176 0 -283.5 -108.5t-134.5 -298.5h422 l-25 -121h-405v-2q0 -63 10 -131h369l-25 -121h-315q59 -176 192 -278.5t309 -102.5q220 -1 320 108z" glyph-name="Euro" horiz-adv-x="1595" unicode="€"/><glyph d="M1446 1241q-104 -20 -131 -41q-39 -33 -39 -121v-868q0 -47 7 -76t36 -46t42 -21.5t69 -14.5q10 -2 16 -4v-49h-1385v49q104 20 132 41q39 33 38 121v868q0 47 -7 76t-35.5 46.5t-42 21.5t-68.5 14q-10 2 -17 4v49h1385v-49zM911 1231q-55 -14 -79.5 -43t-24.5 -109v-397 h223v397q0 80 -28 109t-91 43zM477 682h117v397q0 109 -55 135q-61 -29 -62 -135v-397zM539 76q55 27 55 135v397h-117v-397q1 -106 62 -135zM911 59q63 14 91 43t28 109v397h-223v-397q0 -80 24.5 -109t79.5 -43z" glyph-name="uni210D" horiz-adv-x="1505" unicode="ℍ"/><glyph d="M193 612v39q35 4 49 7.5t31.5 13.5t22.5 26.5t5 44.5v500h-55q-76 0 -108 -37t-46 -114h-31l11 198h602l10 -198h-33q-12 76 -44 113.5t-103 37.5h-62l2 -500q0 -53 22.5 -68.5t86.5 -23.5v-39h-360zM768 612v39q31 6 43 8.5t29.5 11.5t23.5 26.5t6 45.5v418 q0 29 -5 45.5t-24.5 25.5t-27.5 12t-43 9v37h238l215 -483l188 483h254v-37q-4 0 -10 -2q-27 -6 -38 -9t-25.5 -12t-19.5 -25.5t-5 -43.5l2 -418q0 -29 5 -46t21.5 -26t28.5 -12.5t43 -7.5v-39h-338v39q39 6 54.5 11.5t28.5 25t13 55.5v443l-231 -574h-37l-235 529v-398 q0 -53 21.5 -68.5t82.5 -23.5v-39h-258z" glyph-name="trademark" horiz-adv-x="1728" unicode="™"/><glyph d="M348 836v-21h-256v21q45 4 61.5 12t16.5 33v338q0 23 -8 29.5t-25 2.5l-41 -10v23l158 67l16 -12v-438q0 -25 16.5 -33t61.5 -12zM967 1303h57l-885 -1313h-57zM1065 270q111 -47 111 -137q0 -68 -58.5 -110.5t-150.5 -42.5q-86 0 -142.5 38.5t-56.5 104.5q0 84 90 129 q-57 45 -57 110q0 57 48 97.5t124 40.5q72 0 116 -37t44 -86q0 -60 -68 -107zM973 465q-45 0 -66.5 -21.5t-21.5 -52.5q0 -57 88 -88l53 -18q43 35 43 90q0 37 -23.5 63.5t-72.5 26.5zM973 14q106 0 106 88q0 35 -20.5 53.5t-79.5 41.5l-55 20q-20 6 -31 14 q-59 -39 -59 -102q0 -51 36.5 -83t102.5 -32z" glyph-name="oneeighth" horiz-adv-x="1277" unicode="⅛"/><glyph d="M461 963q0 -76 -69.5 -126.5t-168.5 -50.5q-55 0 -98 15.5t-43 46.5t35 31q18 0 52 -32t69 -32q47 0 85.5 34t38.5 91q0 55 -36.5 83t-92.5 28q-35 0 -73 -15l-10 25l63 24q66 25 93.5 46.5t27.5 58.5q0 66 -84 65.5t-131 -55.5l-21 17q66 96 189 96q59 0 97 -29t38 -76 q0 -68 -115 -118q63 -4 108.5 -35t45.5 -92zM1114 1303h57l-884 -1313h-58zM1315 270q111 -47 110 -137q0 -68 -58 -110.5t-150 -42.5q-86 0 -142.5 38.5t-56.5 104.5q0 84 90 129q-57 45 -57 110q0 57 48 97.5t124 40.5q72 0 115.5 -37t43.5 -86q1 -60 -67 -107zM1223 465 q-45 0 -66.5 -21.5t-21.5 -52.5q0 -57 88 -88l53 -18q43 35 43 90q0 37 -23.5 63.5t-72.5 26.5zM1223 14q106 0 106 88q0 35 -20.5 53.5t-79.5 41.5l-55 20q-20 6 -31 14q-59 -39 -60 -102q0 -51 37 -83t103 -32z" glyph-name="threeeighths" horiz-adv-x="1507" unicode="⅜"/><glyph d="M463 985q0 -80 -69.5 -133t-170.5 -53q-51 0 -96 15t-45 46t35 31q18 0 53 -32t72 -32q47 0 83.5 34t36.5 89q0 129 -231 115l-14 16l80 230h137q80 0 98 24h19l-35 -100h-209l-35 -102q168 10 229.5 -37.5t61.5 -110.5zM1102 1303h57l-885 -1313h-57zM1303 270 q111 -47 110 -137q0 -68 -58.5 -110.5t-150.5 -42.5q-86 0 -142 38.5t-56 104.5q0 84 90 129q-57 45 -58 110q0 57 48.5 97.5t123.5 40.5q72 0 116 -37t44 -86q1 -60 -67 -107zM1210 465q-45 0 -66.5 -21.5t-21.5 -52.5q0 -57 88 -88l54 -18q43 35 43 90q0 37 -24 63.5 t-73 26.5zM1210 14q106 0 107 88q0 35 -20.5 53.5t-79.5 41.5l-56 20q-20 6 -31 14q-59 -39 -59 -102q0 -51 36.5 -83t102.5 -32z" glyph-name="fiveeighths" horiz-adv-x="1495" unicode="⅝"/><glyph d="M223 815h-67q59 195 215 436h-170q-29 0 -42.5 -3t-29.5 -16t-29 -40h-18l43 135l37 -8h272l10 -12q-164 -250 -221 -492zM1051 1303h57l-885 -1313h-57zM1251 270q111 -47 111 -137q0 -68 -58.5 -110.5t-150.5 -42.5q-86 0 -142.5 38.5t-56.5 104.5q0 84 90 129 q-57 45 -57 110q0 57 48 97.5t124 40.5q72 0 116 -37t44 -86q0 -60 -68 -107zM1159 465q-45 0 -66.5 -21.5t-21.5 -52.5q0 -57 88 -88l53 -18q43 35 43 90q0 37 -23.5 63.5t-72.5 26.5zM1159 14q106 0 107 88q0 35 -20.5 53.5t-80.5 41.5l-55 20q-20 6 -31 14 q-59 -39 -59 -102q0 -51 36.5 -83t102.5 -32z" glyph-name="seveneighths" horiz-adv-x="1413" unicode="⅞"/><glyph d="M598 -25q-219 0 -356.5 132.5t-137.5 324.5q0 119 57.5 212t147.5 137t201 51.5t215 -46.5v-55q-193 43 -289 -53t-96 -277q0 -150 63.5 -253t184.5 -103q131 0 197.5 124t66.5 323q0 340 -164 536.5t-387 216.5l33 60q184 -10 355 -108.5t287 -278t116 -392.5 q2 -238 -127 -394.5t-367 -156.5z" glyph-name="partialdiff" horiz-adv-x="1173" unicode="∂"/><glyph d="M903 756q115 -131 115 -305q0 -195 -136.5 -332t-330.5 -137q-172 0 -305 112l-113 -112l-49 53l111 110q-111 131 -111 306q0 193 136 330t331 137q170 0 303 -113l113 113l49 -50zM158 451q0 -145 90 -252l555 555q-111 90 -252 90q-164 0 -278.5 -114.5t-114.5 -278.5 zM551 57q164 0 277.5 115t113.5 279q0 141 -90 251l-553 -555q111 -90 252 -90z" glyph-name="emptyset" horiz-adv-x="1099" unicode="∅"/><glyph d="M1163 1638v-2048h-141v1907h-737v-1907h-142v2048h1020z" glyph-name="product" horiz-adv-x="1306" unicode="∏"/><glyph d="M1024 1638v-141h-702l600 -885l-600 -880h702v-142h-881v142l594 882l-594 883v141h881z" glyph-name="summation" horiz-adv-x="1167" unicode="∑"/><glyph d="M143 444v142h758v-142h-758z" glyph-name="minus" horiz-adv-x="1044" unicode="−"/><glyph d="M592 -410l-322 678q-41 82 -75.5 114t-112.5 60v72h274l316 -666l647 1792h233v-79q-92 -27 -130 -60t-72 -129l-658 -1782h-100z" glyph-name="radical" horiz-adv-x="1572" unicode="√"/><glyph d="M430 113q-147 0 -247.5 117.5t-100.5 308.5q0 178 92 285.5t219 107.5q164 0 285 -187q115 188 305 189q147 0 246.5 -118t99.5 -308q0 -178 -91 -286.5t-220 -108.5q-166 0 -283 186q-117 -186 -305 -186zM360 311q145 0 211 178l62 173q-92 119 -232 118 q-96 0 -166.5 -57t-70.5 -184q0 -117 57 -172.5t139 -55.5zM1010 264q96 0 166.5 57.5t70.5 184.5q0 119 -56 173t-140 54q-145 0 -209 -178l-64 -170q93 -121 232 -121z" glyph-name="infinity" horiz-adv-x="1411" unicode="∞"/><glyph d="M268 -358q-182 0 -217 120q8 51 58.5 88t113.5 48q35 -164 137 -164q160 0 195 268l104 879q31 250 184.5 386t350.5 136q182 0 217 -121q-8 -51 -58 -88t-114 -47q-35 164 -137 164q-160 0 -195 -269l-106 -882q-31 -250 -183.5 -384t-349.5 -134z" glyph-name="integral" horiz-adv-x="1462" unicode="∫"/><glyph d="M682 553q-100 0 -207.5 73.5t-185.5 73.5q-61 0 -100 -31.5t-39 -64.5h-48q-20 100 54.5 166t191.5 66q98 0 207 -74t186 -74q61 0 100.5 32t39.5 64h47q20 -100 -54.5 -165.5t-191.5 -65.5zM682 205q-100 0 -207.5 73.5t-185.5 73.5q-61 0 -100 -31.5t-39 -64.5h-48 q-20 100 54.5 165.5t191.5 65.5q98 0 207 -73.5t186 -73.5q61 0 100.5 31.5t39.5 64.5h47q20 -100 -54.5 -165.5t-191.5 -65.5z" glyph-name="approxequal" horiz-adv-x="1169" unicode="≈"/><glyph d="M901 629h-254l-94 -228h348v-141h-407l-109 -260h-149l108 260h-201v141h260l95 228h-355v141h414l102 246h150l-102 -246h194v-141z" glyph-name="notequal" horiz-adv-x="1044" unicode="≠"/><glyph d="M907 260q-358 195 -764 350v142q406 156 764 350v-164q-274 -147 -598 -256q324 -111 598 -256v-166zM907 -8h-757v141h757v-141z" glyph-name="lessequal" horiz-adv-x="1050" unicode="≤"/><glyph d="M143 260v166q274 145 598 256q-324 109 -598 256v164q358 -195 764 -350v-142q-406 -155 -764 -350zM143 -8v141h758v-141h-758z" glyph-name="greaterequal" horiz-adv-x="1050" unicode="≥"/><glyph d="M625 -37l-523 672l523 674l522 -674zM625 111l403 524l-403 526l-404 -526z" glyph-name="lozenge" horiz-adv-x="1249" unicode="◊"/><glyph d="M1516 211q0 -47 7 -76t35.5 -46t42 -21.5t68.5 -14.5q10 -2 17 -4v-49h-584v49q104 20 129 41q39 33 39 121l-2 899l-437 -1110h-61l-444 1030v-819q0 -49 9 -79t42 -46t51 -21.5t80 -15.5v-49h-447v49q109 20 136 41q41 35 41 121v868q0 47 -8.5 76t-36 46.5t-43 21.5 t-66.5 14q-12 2 -18 4v49h409q4 -27 64 -157l344 -797l307 797q51 135 55 157h438v-49q-104 -20 -129 -41q-39 -33 -38 -121v-868z" glyph-name="M.aalt" horiz-adv-x="1746"/><glyph d="M1516 1290h385v-49q-66 -12 -86.5 -18t-43 -27.5t-40.5 -69.5l-478 -1140h-90l-205 483l-202 -483h-84l-482 1140q-29 66 -55 82.5t-115 32.5v49h1383v-49q-66 -12 -86.5 -18t-43 -27.5t-40.5 -69.5l-141 -338l206 -497l342 835q8 18 10.5 34t-4 26t-11.5 17t-22.5 13.5 t-26.5 8.5t-34.5 8t-35.5 8v49zM803 299l112 272l-235 555q-29 70 -54.5 91.5t-76.5 21.5t-82 -25.5t-4 -87.5zM1049 1239q-57 0 -89 -25.5t-8 -87.5l97 -231l94 231q25 61 -7 87t-87 26z" glyph-name="W.aalt" horiz-adv-x="1921"/><glyph d="M297 1087q-55 0 -96 39t-41 93q0 55 41 93t96 38t95 -38t40 -93q0 -53 -41 -92.5t-94 -39.5zM61 0v49q43 8 59.5 12.5t39 15.5t30 31.5t7.5 53.5v479q0 61 -26 90t-110 39v45q178 33 314 119l43 -39v-733q0 -33 7 -53.5t29.5 -31.5t39 -15.5t59.5 -12.5v-49h-492z" glyph-name="i.aalt" horiz-adv-x="614"/><glyph d="M2222 162q0 -33 7 -53.5t29.5 -31.5t39 -15.5t59.5 -12.5v-49h-481v49q51 10 69.5 16.5t37 30t18.5 66.5v428q0 190 -152 190q-125 0 -229 -123v-495q0 -43 18.5 -66.5t37 -30t69.5 -16.5v-49h-496v49q100 18 125 41t25 72v786q0 145 -57.5 209t-241.5 64h-273v-1010 q0 -51 9.5 -80t41 -45t52 -21.5t86.5 -15.5v-49h-623v49q66 10 86.5 15.5t52 21.5t41 45t9.5 80v1010h-168q-160 0 -221.5 -63.5t-83.5 -209.5h-48l17 363l108 -21h1063q195 31 330 117l41 -39v-635q154 186 344 187q258 0 258 -316v-442z" glyph-name="T_h.dlig" horiz-adv-x="2408"/><glyph d="M1436 920q150 0 261 -120t111 -319q0 -229 -147.5 -364t-366.5 -135q-193 0 -301 95t-108 249v802q0 82 -61.5 136.5t-180.5 54.5q-209 0 -209 -268v-152l236 21q-10 -43 -11 -103h-225v-655q0 -33 13.5 -53.5t48 -31.5t61.5 -16.5t88 -11.5v-49h-594v49q37 6 51.5 9 t40 11.5t34.5 18.5t18.5 28.5t9.5 45.5v655h-154v51l154 31q2 250 149.5 381t382.5 131q223 0 371 -70v-622q51 86 137.5 143.5t190.5 57.5zM1315 55q113 0 188.5 94.5t75.5 264.5q0 162 -69.5 267t-182.5 105q-139 0 -219 -145v-340q0 -98 49 -172t158 -74z" glyph-name="f_b.dlig" horiz-adv-x="1890"/><glyph d="M1722 162q0 -43 18.5 -66.5t38 -30t72.5 -16.5v-49h-475v49q51 10 69.5 16.5t37 30t18.5 66.5v428q0 188 -143 188q-119 0 -252 -116v-500q0 -57 31.5 -78t103.5 -33q10 -2 14 -2v-49h-520v49q100 18 125 41t25 72v966q0 80 -62.5 135.5t-179.5 55.5q-209 0 -209 -268 v-152l236 21q-10 -43 -11 -103h-225v-655q0 -33 13.5 -53.5t48 -31.5t61.5 -16.5t88 -11.5v-49h-594v49q37 6 51.5 9t40 11.5t34.5 18.5t18.5 28.5t9.5 45.5v655h-154v51l154 31q2 250 149.5 381t382.5 131q223 0 369 -70v-614h4q176 193 358 193q254 0 254 -316v-442z" glyph-name="f_h.dlig" horiz-adv-x="1902"/><glyph d="M1155 1241v-2q0 -53 -41 -92t-94 -39q-55 0 -96 39t-41 92v2v6q2 55 -19.5 80t-79.5 25q-135 0 -242.5 -105.5t-107.5 -316.5v-29l195 19q-10 -43 -11 -103h-184v-655q0 -33 13.5 -53.5t48 -31.5t61.5 -16.5t88 -11.5v-49h-594v49q37 6 51.5 9t40 11.5t34.5 18.5 t18.5 28.5t9.5 45.5v655h-154v51l154 31q12 244 188 383t408 139q47 0 96 -6t113.5 -22.5t104.5 -55.5t40 -96zM784 815q178 33 314 119l43 -39v-930q0 -86 -39 -152.5t-103.5 -104.5t-127 -58.5t-128.5 -28.5q-18 29 0 57q96 33 136.5 101.5t40.5 204.5v657q0 61 -26 90 t-110 39v45z" glyph-name="f_j.dlig" horiz-adv-x="1277"/><glyph d="M1686 123q27 -37 58.5 -50.5t106.5 -21.5v-51h-366q0 57 -37 113l-236 338l-106 -105v-184q0 -57 31.5 -78t103.5 -33q10 -2 14 -2v-49h-520v49q100 18 125 41t25 72v966q0 80 -62.5 135.5t-179.5 55.5q-209 0 -209 -268v-152l236 21q-10 -43 -11 -103h-225v-655 q0 -33 13.5 -53.5t48 -31.5t61.5 -16.5t88 -11.5v-49h-594v49q37 6 51.5 9t40 11.5t34.5 18.5t18.5 28.5t9.5 45.5v655h-154v51l154 31q2 250 149.5 381t382.5 131q223 0 369 -70v-886l299 288q96 90 -70 107v51h418v-51q-86 -6 -137 -32.5t-107 -80.5l-153 -147z" glyph-name="f_k.dlig" horiz-adv-x="1878"/><glyph d="M1145 233q0 -51 25.5 -77.5t68.5 -27.5t84 7t86 25v-54q-147 -82 -309 -126q-74 0 -124 51t-50 119v671h-494v-588q0 -51 26.5 -77.5t67.5 -26.5t85 13.5t85 37.5v-53q-113 -92 -309 -147q-74 0 -124 51t-50 119v671h-162v62q193 70 320 207h61v-209l332 -2l8 -2 q178 70 311 213h62v-197l262 27q-10 -43 -10 -99h-252v-588z" glyph-name="t_t.dlig" horiz-adv-x="1460"/><glyph d="M639 -18q-244 0 -390.5 185t-146.5 470q0 287 148.5 477.5t396.5 190.5q244 0 389.5 -185.5t145.5 -472.5t-147.5 -476t-395.5 -189zM674 57q125 0 189.5 138.5t64.5 390.5q0 289 -83 467t-233 178q-125 0 -189.5 -139.5t-64.5 -393.5q0 -287 83 -464t233 -177z" glyph-name="zero.lnum" horiz-adv-x="1284"/><glyph d="M92 0v49q53 6 73.5 9t51.5 11.5t41 18.5t19.5 28.5t9.5 45.5v895q0 53 -19.5 69.5t-64.5 6.5l-103 -23v49l377 164l41 -33v-1128q0 -27 9.5 -45.5t19.5 -28.5t40.5 -18.5t51 -11.5t74.5 -9v-49h-621z" glyph-name="one.lnum" horiz-adv-x="804"/><glyph d="M98 0l-16 51q33 29 121 104.5t127 109.5t112.5 103.5t110.5 109.5t88 103.5t75.5 109.5t43 102.5t18.5 107.5q0 104 -64.5 178t-187.5 74q-225 0 -344 -219l-59 33q61 162 197.5 250t297.5 88q178 0 296 -103.5t118 -259.5q0 -98 -50 -196.5t-138 -184.5t-171 -152.5 t-185.5 -140t-143.5 -110.5h363q133 0 203.5 35.5t119.5 154.5h62l-105 -387h-61l-4 39h-824z" glyph-name="two.lnum" horiz-adv-x="1173"/><glyph d="M418 -25q-82 0 -157 13.5t-132 49.5t-57 89q0 37 25.5 57.5t60.5 20.5t69.5 -24.5t60 -55.5t72 -55.5t103.5 -24.5q117 0 220 88t103 234q0 137 -94 205.5t-231 68.5q-94 0 -195 -35l-20 58l157 67q174 72 243 124t69 140q0 80 -57.5 126t-159.5 46q-213 0 -338 -143 l-45 37q80 121 207 182.5t266 61.5q152 0 244 -71t90 -190q0 -98 -71 -168.5t-210 -132.5q158 -10 268.5 -87.5t110.5 -231.5q0 -195 -176 -322t-426 -127z" glyph-name="three.lnum" horiz-adv-x="1101"/><glyph d="M1020 348h-174v-186q0 -43 23.5 -66.5t51 -30t99.5 -16.5v-49h-580v49q72 10 99.5 16.5t51 30t23.5 66.5v186h-522l-31 45l707 918h78v-869h194zM182 442h432v568z" glyph-name="four.lnum" horiz-adv-x="1122"/><glyph d="M264 807q186 29 314.5 7.5t208 -90.5t114.5 -147.5t35 -162.5q0 -178 -149.5 -308.5t-372.5 -130.5q-51 0 -105.5 8.5t-106.5 25t-86 47t-34 71.5q0 37 25.5 57.5t60.5 20.5t67.5 -24.5t54 -55.5t61.5 -55.5t91 -24.5q102 0 181 85t79 214q0 74 -28.5 142.5t-91 125 t-160.5 71.5t-236 -15l-36 39l206 583h344q78 0 111 2t68.5 16.5t58.5 43.5h45l-80 -244h-530z" glyph-name="five.lnum" horiz-adv-x="1064"/><glyph d="M596 -25q-238 0 -367 157t-127 394q0 213 116 392.5t287 277.5t355 109l33 -60q-223 -20 -387 -217t-164 -536q0 -199 66.5 -323t197.5 -124q121 0 184.5 103.5t63.5 252.5q0 180 -96 276.5t-289 53.5v55q104 53 215 46t201 -51t147.5 -137t57.5 -212q0 -193 -137.5 -325 t-356.5 -132z" glyph-name="six.lnum" horiz-adv-x="1171"/><glyph d="M987 1290l23 -30q-410 -616 -559 -1260h-181q168 539 541 1108h-422q-76 0 -111.5 -6t-75.5 -39t-73 -105h-47l113 367h47l4 -35h741z" glyph-name="seven.lnum" horiz-adv-x="1060"/><glyph d="M791 707q272 -119 272 -349q0 -168 -140.5 -278.5t-351.5 -110.5q-201 0 -335 100.5t-134 262.5q0 211 226 336q-143 115 -144 278q0 143 114 243.5t288 100.5q162 0 266 -91t104 -216q1 -157 -165 -276zM588 1219q-100 0 -151.5 -61.5t-51.5 -141.5q0 -72 46 -135.5 t140 -96.5l121 -43q113 96 113 234q0 94 -54 169t-163 75zM588 45q121 0 185.5 66.5t64.5 175.5q0 98 -53.5 154.5t-180.5 101.5l-139 49q-25 8 -55 24q-145 -102 -146 -270q0 -131 89.5 -216t234.5 -85z" glyph-name="eight.lnum" horiz-adv-x="1165"/><glyph d="M575 1305q238 0 367 -157t127 -394q0 -213 -115.5 -392.5t-286.5 -277.5t-356 -109l-32 60q223 20 386.5 217t163.5 536q0 199 -66.5 323t-197.5 124q-121 0 -184.5 -103.5t-63.5 -252.5q0 -180 96.5 -276.5t288.5 -53.5v-55q-104 -53 -214.5 -46t-200.5 51t-147.5 137 t-57.5 212q0 193 137 325t356 132z" glyph-name="nine.lnum" horiz-adv-x="1171"/><glyph d="M610 -18q-244 0 -390 185t-146 470q0 287 148.5 477.5t395.5 190.5q244 0 389.5 -185.5t145.5 -472.5t-147.5 -476t-395.5 -189zM645 57q125 0 189.5 138.5t64.5 390.5q0 289 -83 467t-232 178q-125 0 -189.5 -139.5t-64.5 -393.5q0 -287 82.5 -464t232.5 -177z" glyph-name="zero.tnum" horiz-adv-x="1228"/><glyph d="M264 0v49q80 8 113 12.5t67.5 16.5t45 31.5t10.5 52.5v895q0 53 -20.5 69.5t-63.5 6.5l-144 -23v49l416 164l41 -33v-1128q0 -33 10.5 -52.5t45 -31.5t67.5 -16.5t113 -12.5v-49h-701z" glyph-name="one.tnum" horiz-adv-x="1228"/><glyph d="M115 0l-17 51q33 29 121 104.5t127 109.5t112.5 103.5t110.5 109.5t88.5 103.5t76 109.5t43 102.5t18.5 107.5q0 104 -64.5 178t-187.5 74q-225 0 -344 -219l-60 33q61 162 197.5 250t298.5 88q178 0 296 -103.5t118 -259.5q0 -98 -50.5 -196.5t-138.5 -184.5 t-171 -152.5t-185.5 -140t-143.5 -110.5h363q133 0 203.5 35.5t120.5 154.5h61l-104 -387h-62l-4 39h-823z" glyph-name="two.tnum" horiz-adv-x="1228"/><glyph d="M496 -25q-82 0 -157 13.5t-132 49.5t-57 89q0 37 25.5 57.5t60 20.5t69.5 -24.5t60.5 -55.5t71.5 -55.5t104 -24.5q117 0 220 88t103 234q0 137 -94 205.5t-231 68.5q-94 0 -195 -35l-20 58l157 67q174 72 243 124t69 140q0 80 -57.5 126t-160.5 46q-213 0 -337 -143 l-45 37q80 121 206.5 182.5t266.5 61.5q152 0 243.5 -71t89.5 -190q0 -98 -70.5 -168.5t-209.5 -132.5q158 -10 268.5 -87.5t110.5 -231.5q0 -195 -176 -322t-426 -127z" glyph-name="three.tnum" horiz-adv-x="1228"/><glyph d="M1047 348h-175v-186q0 -43 24 -66.5t51.5 -30t99.5 -16.5v-49h-580v49q72 10 99.5 16.5t51 30t23.5 66.5v186h-522l-31 45l707 918h77v-869h195zM209 442h432v568z" glyph-name="four.tnum" horiz-adv-x="1228"/><glyph d="M303 807q186 29 314 7.5t208 -90.5t115 -147.5t35 -162.5q0 -178 -149.5 -308.5t-372.5 -130.5q-51 0 -105.5 8.5t-107 25t-86 47t-33.5 71.5q0 37 25.5 57.5t60.5 20.5t67.5 -24.5t54 -55.5t61.5 -55.5t91 -24.5q102 0 181 85t79 214q0 74 -28.5 142.5t-91 125 t-161 71.5t-235.5 -15l-37 39l207 583h344q78 0 111 2t68.5 16.5t58.5 43.5h45l-80 -244h-530z" glyph-name="five.tnum" horiz-adv-x="1228"/><glyph d="M606 -25q-238 0 -366.5 157t-126.5 394q0 213 115.5 392.5t286.5 277.5t355 109l33 -60q-223 -20 -387 -217t-164 -536q0 -199 66.5 -323t197.5 -124q121 0 184.5 103.5t63.5 252.5q0 180 -96 276.5t-289 53.5v55q104 53 215 46t201 -51t147.5 -137t57.5 -212 q0 -193 -137.5 -325t-356.5 -132z" glyph-name="six.tnum" horiz-adv-x="1228"/><glyph d="M1067 1290l23 -30q-410 -616 -560 -1260h-180q168 539 541 1108h-422q-76 0 -111.5 -6t-75.5 -39t-73 -105h-47l112 367h48l4 -35h741z" glyph-name="seven.tnum" horiz-adv-x="1228"/><glyph d="M821 707q272 -119 273 -349q0 -168 -140.5 -278.5t-351.5 -110.5q-201 0 -335 100.5t-134 262.5q0 211 225 336q-143 115 -143 278q0 143 113.5 243.5t287.5 100.5q162 0 266.5 -91t104.5 -216q0 -157 -166 -276zM618 1219q-100 0 -151 -61.5t-51 -141.5q0 -72 46 -135.5 t140 -96.5l121 -43q113 96 113 234q0 94 -54.5 169t-163.5 75zM618 45q121 0 185.5 66.5t64.5 175.5q0 98 -53 154.5t-180 101.5l-139 49q-25 8 -56 24q-145 -102 -145 -270q0 -131 89 -216t234 -85z" glyph-name="eight.tnum" horiz-adv-x="1228"/><glyph d="M623 1305q238 0 366.5 -157t126.5 -394q0 -213 -115.5 -392.5t-286.5 -277.5t-356 -109l-32 60q223 20 387 217t164 536q0 199 -67 323t-198 124q-121 0 -184 -103.5t-63 -252.5q0 -180 96 -276.5t289 -53.5v-55q-104 -53 -215 -46t-201 51t-147.5 137t-57.5 212 q0 193 137.5 325t356.5 132z" glyph-name="nine.tnum" horiz-adv-x="1228"/><glyph d="M301 -20q-98 0 -158.5 73.5t-60.5 186.5q0 115 61.5 190.5t161.5 75.5q98 0 158.5 -74t60.5 -188.5t-61.5 -189t-161.5 -74.5zM315 12q96 0 97 207q0 115 -32 184.5t-89 69.5q-96 0 -96 -209q0 -113 31.5 -182.5t88.5 -69.5z" glyph-name="zero.dnom" horiz-adv-x="606"/><glyph d="M92 0v20q45 4 61.5 12.5t16.5 33.5v337q0 23 -8 30t-25 3l-41 -10v23l158 67l16 -12v-438q0 -25 16.5 -33t61.5 -13v-20h-256z" glyph-name="one.dnom" horiz-adv-x="440"/><glyph d="M88 0l-6 23q10 8 41 34.5t43 36.5t38.5 35t40 39t34 36.5t30.5 39t21.5 36t16.5 38t5 36.5q0 41 -24.5 70t-71.5 29q-84 0 -135 -86l-23 14q25 63 79 99t120 36q72 0 119 -41t47 -102q0 -47 -35 -98.5t-72 -82t-93 -72.5t-66 -50h135q55 0 82.5 13t46.5 60h26l-38 -143 h-361z" glyph-name="two.dnom" horiz-adv-x="569"/><glyph d="M223 -20q-55 0 -98 15t-43 46t35 31q18 0 52 -32t69 -32q47 0 85.5 34t38.5 91q0 55 -36.5 83t-92.5 28q-35 0 -73 -15l-10 25l63 25q66 25 93.5 46t27.5 58q0 66 -84 66t-131 -56l-21 17q66 96 189 96q59 0 97 -28.5t38 -76.5q0 -68 -115 -118q63 -4 108.5 -35t45.5 -92 q0 -76 -70 -126t-168 -50z" glyph-name="three.dnom" horiz-adv-x="542"/><glyph d="M393 66q0 -25 15.5 -33t60.5 -13v-20h-254v20q45 4 60.5 12.5t15.5 33.5v69h-221l-9 41l238 328h94v-328h76l-8 -41h-68v-69zM102 176h189v260z" glyph-name="four.dnom" horiz-adv-x="550"/><glyph d="M172 313q168 10 229.5 -37t61.5 -110q0 -80 -69.5 -133t-170.5 -53q-51 0 -96 15t-45 46t35 31q18 0 53 -32t72 -32q47 0 83.5 34t36.5 89q0 129 -231 115l-14 16l80 230h137q80 0 98 24h19l-35 -100h-209z" glyph-name="five.dnom" horiz-adv-x="544"/><glyph d="M311 -20q-96 0 -153.5 61t-55.5 156q2 127 99.5 215t214.5 94l14 -27q-90 -8 -156.5 -85t-66.5 -210q0 -78 28.5 -126t79.5 -48q49 0 75 40t26 102q0 150 -156 139v26q94 29 177 -15t83 -138q0 -80 -59.5 -132t-149.5 -52z" glyph-name="six.dnom" horiz-adv-x="602"/><glyph d="M434 504l10 -12q-164 -250 -221 -492h-67q59 195 215 436h-170q-29 0 -42.5 -3t-29.5 -16.5t-29 -39.5h-18l43 135l37 -8h272z" glyph-name="seven.dnom" horiz-adv-x="495"/><glyph d="M399 270q111 -47 111 -137q0 -68 -58.5 -110.5t-150.5 -42.5q-86 0 -142.5 38.5t-56.5 104.5q0 84 91 129q-57 45 -58 110q0 57 48 97.5t124 40.5q72 0 116 -37t44 -86q0 -60 -68 -107zM307 465q-45 0 -66.5 -21.5t-21.5 -52.5q0 -57 88 -88l53 -18q43 35 43 90 q0 37 -23.5 63.5t-72.5 26.5zM307 14q106 0 107 88q0 35 -20.5 53.5t-80.5 41.5l-55 20q-20 6 -31 14q-59 -39 -59 -102q0 -51 36.5 -83t102.5 -32z" glyph-name="eight.dnom" horiz-adv-x="612"/><glyph d="M291 498q96 0 153.5 -61.5t55.5 -155.5q-2 -127 -99.5 -215.5t-214.5 -94.5l-14 27q90 8 156.5 85t66.5 210q0 78 -28.5 126t-79.5 48q-49 0 -75 -40t-26 -101q0 -150 156 -140v-26q-94 -29 -177 15t-83 138q0 80 59.5 132.5t149.5 52.5z" glyph-name="nine.dnom" horiz-adv-x="602"/><glyph d="M301 797q-98 0 -158.5 73.5t-60.5 186.5q0 115 61.5 190.5t161.5 75.5q98 0 158.5 -73.5t60.5 -188.5t-61.5 -189.5t-161.5 -74.5zM315 829q96 0 97 207q0 115 -32 184.5t-89 69.5q-96 0 -96 -209q0 -113 31.5 -182.5t88.5 -69.5z" glyph-name="zero.numr" horiz-adv-x="606"/><glyph d="M92 815v21q45 4 61.5 12t16.5 33v338q0 23 -8 29.5t-25 2.5l-41 -10v23l158 67l16 -12v-438q0 -25 16.5 -33t61.5 -12v-21h-256z" glyph-name="one.numr" horiz-adv-x="440"/><glyph d="M88 805l-6 22q10 8 41 35t43 37t38.5 34.5t40 39t34 37t30.5 39t21.5 36t16.5 38t5 36.5q0 41 -24.5 69.5t-71.5 28.5q-84 0 -135 -86l-23 15q25 63 79 99t120 36q72 0 119 -41t47 -102q0 -47 -35 -98.5t-72 -82t-93 -72.5t-66 -51h135q55 0 82.5 13.5t46.5 60.5h26 l-38 -143h-361z" glyph-name="two.numr" horiz-adv-x="569"/><glyph d="M223 786q-55 0 -98 15.5t-43 46.5t35 31q18 0 52 -32t69 -32q47 0 85.5 34t38.5 91q0 55 -36.5 83t-92.5 28q-35 0 -73 -15l-10 25l63 24q66 25 93.5 46.5t27.5 58.5q0 66 -84 65.5t-131 -55.5l-21 17q66 96 189 96q59 0 97 -29t38 -76q0 -68 -115 -118q63 -4 108.5 -35 t45.5 -92q0 -76 -70 -126.5t-168 -50.5z" glyph-name="three.numr" horiz-adv-x="542"/><glyph d="M393 866q0 -25 15.5 -33t60.5 -12v-20h-254v20q45 4 60.5 12.5t15.5 32.5v70h-221l-9 41l238 328h94v-328h76l-8 -41h-68v-70zM102 977h189v260z" glyph-name="four.numr" horiz-adv-x="550"/><glyph d="M172 1133q168 10 229.5 -37t61.5 -111q0 -80 -69.5 -133t-170.5 -53q-51 0 -96 15t-45 46t35 31q18 0 53 -32t72 -32q47 0 83.5 34t36.5 89q0 129 -231 115l-14 16l80 230h137q80 0 98 24h19l-35 -100h-209z" glyph-name="five.numr" horiz-adv-x="544"/><glyph d="M311 784q-96 0 -153.5 61.5t-55.5 155.5q2 127 99.5 215.5t214.5 94.5l14 -27q-90 -8 -156.5 -85t-66.5 -210q0 -78 28.5 -126t79.5 -48q49 0 75 40t26 101q0 150 -156 140v26q94 29 177 -15t83 -138q0 -80 -59.5 -132.5t-149.5 -52.5z" glyph-name="six.numr" horiz-adv-x="602"/><glyph d="M434 1319l10 -12q-164 -250 -221 -492h-67q59 195 215 436h-170q-29 0 -42.5 -3t-29.5 -16t-29 -40h-18l43 135l37 -8h272z" glyph-name="seven.numr" horiz-adv-x="495"/><glyph d="M399 1085q111 -47 111 -137q0 -68 -58.5 -110.5t-150.5 -42.5q-86 0 -142.5 38.5t-56.5 104.5q0 84 91 129q-57 45 -58 111q0 57 48 97t124 40q72 0 116 -37t44 -86q0 -60 -68 -107zM307 1280q-45 0 -66.5 -21.5t-21.5 -52.5q0 -57 88 -88l53 -18q43 35 43 90 q0 37 -23.5 63.5t-72.5 26.5zM307 829q106 0 107 89q0 35 -20.5 53t-80.5 41l-55 20q-20 6 -31 15q-59 -39 -59 -103q0 -51 36.5 -83t102.5 -32z" glyph-name="eight.numr" horiz-adv-x="612"/><glyph d="M291 1305q96 0 153.5 -61.5t55.5 -156.5q-2 -127 -99.5 -215t-214.5 -94l-14 27q90 8 156.5 85t66.5 210q0 78 -28.5 126t-79.5 48q-49 0 -75 -40t-26 -101q0 -150 156 -140v-26q-94 -29 -177 15t-83 138q0 80 59.5 132.5t149.5 52.5z" glyph-name="nine.numr" horiz-adv-x="602"/></font>
</defs>
</svg>
