<?xml version="1.0" encoding="UTF-8"?>
<svg width="101px" height="13px" viewBox="0 0 101 13" version="1.1" xmlns="http://www.w3.org/2000/svg" xmlns:xlink="http://www.w3.org/1999/xlink">
    <!-- Generator: Sketch 44.1 (41455) - http://www.bohemiancoding.com/sketch -->
    <title>Barron's NEXT</title>
    <desc>Created with Sketch.</desc>
    <defs></defs>
    <g id="Pattern-Library-16-col" stroke="none" stroke-width="1" fill="none" fill-rule="evenodd">
        <g id="DJ-Pattern-Library---16-column" transform="translate(-761.000000, -523.000000)" fill="#FFFFFF">
            <g id="DJ-Mast-Head-Dropdown" transform="translate(120.000000, 337.000000)">
                <g id="News-and-Information" transform="translate(640.000000, 71.000000)">
                    <g id="Barron's-NEXT" transform="translate(1.000000, 115.000000)">
                        <path d="M44.1231556,9.49515185 C43.9736556,10.863763 43.6253037,10.8259667 43.2028037,10.9379111 C42.8202667,11.0390222 42.9661556,11.2735037 43.2148407,11.2364296 C43.3072852,11.2227074 43.9912296,11.1495222 44.4587481,11.1495222 C45.1138037,11.1495222 45.7081926,11.2113926 46.0286185,11.2113926 C46.1622296,11.2113926 46.3374889,11.0255407 46.0139333,10.9379111 C45.6393407,10.8372815 44.7209148,10.9379111 44.6332852,9.29581852 C44.5694889,8.09476296 44.6758963,3.98724444 44.6758963,3.98724444 C44.6758963,3.70052222 44.7161,3.65718889 44.7693037,3.65718889 C44.8624704,3.65718889 44.9599704,3.81896667 45.0502481,3.92994815 L50.7656741,11.1986333 C51.3689704,11.9035222 51.4062852,11.6919111 51.3942481,10.9829296 C51.3545259,8.69468889 51.4253037,2.37957778 51.4253037,2.37957778 C51.442637,1.13687407 52.5632852,1.64146667 52.5632852,1.26807778 C52.5632852,1.18165185 52.5100815,1.13855926 52.4299148,1.13855926 C52.1092481,1.13855926 51.1862481,1.23846667 50.7319704,1.23846667 C50.3039333,1.23846667 50.0509148,1.17394815 49.6498407,1.17394815 C49.5701556,1.17394815 49.5015444,1.21704074 49.5029889,1.31791111 C49.5090074,1.72067037 50.9464704,1.05646667 50.896637,3.10902222 L50.9106,9.05507778 C50.9106,9.16991111 50.903137,9.39596667 50.7103037,9.05507778 L44.7264519,1.51676296 C44.6460444,1.41613333 44.5261556,1.18622593 44.3788222,1.18622593 C44.1785259,1.18622593 43.5162481,1.23846667 43.3159519,1.23846667 C43.1021741,1.23846667 42.901637,1.18117037 42.6878593,1.18117037 C42.6214148,1.18117037 42.4750444,1.23918889 42.4873222,1.32465185 C42.5626741,1.82755926 44.1294148,1.2310037 44.1546926,3.58183704 C44.1546926,3.58183704 44.1874333,8.90461481 44.1231556,9.49515185" id="Fill-1"></path>
                        <path d="M53.4340926,0.0114351852 C53.2540185,0.0660833333 52.967537,0.302490741 52.8498148,0.384583333 C52.7145185,0.479194444 52.7171667,0.636398148 52.7865,0.77025 C53.1232963,1.41712037 53.456,2.48480556 52.6254444,3.76843519 C52.4887037,3.97980556 52.2770926,4.04191667 52.3895185,4.12906481 C52.5077222,4.22150926 52.8890556,3.9629537 53.0479444,3.80550926 C53.9442222,2.92199074 54.267537,1.41712037 53.7574074,0.322231481 C53.6536481,0.099787037 53.6112778,-0.0424907407 53.4340926,0.0114351852" id="Fill-3"></path>
                        <path d="M54.6037556,10.4608111 C54.6591259,10.7174407 55.8245519,11.2196259 56.8568481,11.2196259 C60.0240333,11.2196259 60.7732185,9.49231111 60.7732185,8.29631111 C60.7732185,4.51451481 55.3989222,5.89853333 55.3989222,3.22053333 C55.3989222,1.91066296 56.4117185,1.35503333 57.5140704,1.35503333 C58.7423296,1.35503333 59.7334593,2.14562593 60.0957741,3.11364444 C60.1424778,3.23979259 60.2031444,3.52458889 60.3562556,3.52458889 C60.4963667,3.52458889 60.4638667,3.42179259 60.4503852,3.30792222 L60.2505704,1.31795926 C60.2366074,1.16075556 60.1672741,1.11814444 60.0832556,1.11814444 C59.9436259,1.11814444 59.8588852,1.37212593 59.598163,1.32229259 C59.4060519,1.28594074 59.0690148,0.894977778 57.6262556,0.882218519 C56.0214778,0.868496296 54.6535889,1.85986667 54.6535889,3.66879259 C54.6535889,7.25125556 59.877663,5.88288519 59.9031815,8.5202 C59.9161815,10.0156815 58.9640519,10.7841259 57.6380519,10.7841259 C55.7130889,10.7841259 54.8637556,9.29177407 54.6969222,8.63671852 C54.6268667,8.33795926 54.5970148,8.17666296 54.4475148,8.20145926 C54.3100519,8.22457037 54.3235333,8.38466296 54.3793852,8.66945926 C54.3793852,8.66945926 54.5597,9.28358889 54.6037556,10.4608111" id="Fill-5"></path>
                        <path d="M37.6668019,1.53387963 C40.4454315,1.53387963 42.1188204,4.01687963 42.1188204,6.66839815 C42.1188204,9.36421296 40.3698389,11.0130463 38.2893574,11.0130463 C35.4673944,11.0130463 33.8253019,8.46047222 33.8253019,5.76537963 C33.8253019,3.46317593 35.2726352,1.53387963 37.6668019,1.53387963 M37.7727278,11.5058426 C40.9500241,11.5058426 43.1588204,9.39310185 43.1588204,6.11493519 C43.1588204,3.09869444 40.9218574,0.957064815 38.0151537,0.957064815 C35.0935241,0.957064815 32.7848204,3.1569537 32.7848204,6.18787963 C32.7848204,9.26189815 34.6796907,11.5058426 37.7727278,11.5058426" id="Fill-7"></path>
                        <path d="M26.6269852,2.00212037 C26.6269852,1.44384259 26.9327259,1.50378704 27.3971148,1.50378704 C28.6619667,1.50378704 29.9357259,2.13476852 29.9357259,3.88013889 C29.9357259,5.65439815 28.5866148,5.92547222 28.0319481,5.92547222 C27.425763,5.92547222 26.6255407,5.99673148 26.6255407,5.72517593 L26.6269852,2.00212037 Z M29.3059481,6.04969444 C30.2084852,5.64958333 31.0556519,4.7470463 31.0556519,3.6314537 C31.0556519,0.870157407 28.0755222,1.01797222 27.8692074,1.01797222 C27.198263,1.01797222 26.3287074,1.14676852 25.5800037,1.14676852 C24.9225407,1.14676852 24.6420778,1.07117593 24.4100037,1.07117593 C24.2549667,1.07117593 24.1516889,1.15712037 24.1516889,1.24306481 C24.1516889,1.72936111 25.6442815,1.00665741 25.6064852,2.53463889 L25.6064852,9.81680556 C25.6064852,10.9035093 24.8544111,10.8139537 24.6928741,10.9379352 C24.6249852,10.9904167 24.5532444,11.1868611 24.6305222,11.1868611 C25.1206704,11.1868611 25.6705222,11.1252315 26.1609111,11.1252315 C27.2314852,11.1252315 27.8879852,11.1784352 27.9996889,11.2099722 C28.1881889,11.2619722 28.2750963,11.0255648 28.0634852,10.9506944 C27.8051704,10.8596944 26.6455222,11.013287 26.6255407,9.83100926 L26.6255407,6.81236111 C26.6255407,6.66912037 26.5487444,6.41875 26.9611333,6.41176852 C28.2618556,6.39082407 28.2370593,6.29187963 28.4607074,6.62747222 C28.4607074,6.62747222 30.9429852,9.67356481 32.2928185,10.9444352 C33.4722074,12.0549722 34.9289296,12.8279907 35.8695037,12.874213 C37.1384481,12.9358426 37.8223926,12.7220648 37.8223926,12.5504167 C37.8223926,12.2071204 36.7152259,13.1727315 33.7054852,10.7593056 C31.8881333,9.30282407 29.6526148,6.5735463 29.3059481,6.12432407 C29.2777815,6.08893519 29.308837,6.05523148 29.3059481,6.04969444 L29.3059481,6.04969444 Z" id="Fill-9"></path>
                        <path d="M18.31635,2.02065741 C18.31635,1.46286111 18.5936833,1.51269444 19.0677019,1.49126852 C20.4447389,1.42939815 21.6886463,2.08493519 21.6886463,3.83030556 C21.6886463,5.60408333 20.4392019,5.91993519 19.8727389,5.91993519 C19.2530722,5.91993519 18.3177944,6.00539815 18.3177944,5.73360185 L18.31635,2.02065741 Z M20.9712389,6.03115741 C21.8932759,5.63056481 22.8579241,4.69769444 22.8579241,3.58186111 C22.8579241,0.820324074 19.6604056,1.01941667 19.4492759,1.01941667 C18.7643685,1.01941667 17.9870167,1.14676852 17.2226648,1.14676852 C16.5507574,1.14676852 16.3345722,1.07358333 16.0972019,1.07358333 C15.9392759,1.07358333 15.8326278,1.15952778 15.8338315,1.24523148 C15.8357574,1.64558333 17.2727389,1.00665741 17.249387,2.53463889 L17.249387,9.81680556 C17.2539611,10.9379352 16.47035,10.9008611 16.1968685,10.9008611 C15.8771648,10.9008611 16.3401093,11.2181574 16.4190722,11.2181574 C16.9195722,11.2181574 17.3129426,11.0874352 17.8136833,11.0874352 C18.9071278,11.0874352 19.6437944,11.2020278 19.7605537,11.2220093 C20.0655722,11.2735278 20.1214241,11.0443426 19.8289241,10.9757315 C19.3561093,10.863787 18.2987759,10.8758241 18.2927574,9.68969444 L18.29035,6.81236111 C18.29035,6.66912037 18.2111463,6.41176852 18.6326833,6.41176852 C20.1084241,6.41176852 19.9955167,6.33786111 20.4695352,7.13928704 L22.1046463,9.66634259 C22.605387,10.4817315 23.118887,11.2114167 24.080887,11.2114167 C24.199813,11.2114167 25.1052389,11.2294722 25.0970537,11.0578241 C25.088387,10.8840093 25.26485,10.7889167 24.8791833,10.8510278 C24.5635722,10.9023056 23.9602759,10.6750463 23.3432574,9.65213889 L20.9652204,6.1185463 C20.9276648,6.09326852 20.9712389,6.03115741 20.9712389,6.03115741 L20.9712389,6.03115741 Z" id="Fill-11"></path>
                        <path d="M11.4835259,2.66952593 C11.5624889,2.4933037 11.6284519,2.4933037 11.6944148,2.66952593 L13.0678407,6.40967407 C13.1338037,6.60106296 13.1470444,6.70385926 12.8564704,6.70385926 L10.0949333,6.70385926 C9.92352593,6.70385926 9.83084074,6.64511852 9.92352593,6.43952593 L11.4835259,2.66952593 Z M13.9778407,8.91265556 C14.1097667,9.3093963 14.2224333,9.76800741 14.3430444,10.0670074 C14.6042481,10.7146 13.9328222,10.9505259 13.6716185,10.9254889 C13.4600074,10.9057481 13.5096,11.2861185 13.8853963,11.2182296 C14.2361556,11.1546741 14.6829704,11.1123037 15.0399889,11.1123037 C15.5809333,11.1123037 16.0368963,11.2182296 16.5780815,11.2182296 C16.6702852,11.2182296 16.942563,10.9878407 16.706637,10.9254889 C16.5393222,10.8819148 16.0349704,10.8881741 15.7299519,10.3484333 C15.4367296,9.82843333 15.2316185,9.2378963 15.0334889,8.69454444 L12.1958778,1.1271 C12.1563963,1.00961852 12.0639519,0.583748148 11.9187852,0.583748148 C11.7473778,0.583748148 11.7078963,0.818711111 10.9291,2.66952593 L7.77467407,10.1608963 C7.43113704,10.9984333 6.72408148,10.7242296 6.72408148,11.0326185 C6.72408148,11.1209704 6.85047037,11.2182296 6.93015556,11.2182296 C7.27297037,11.2182296 7.6673037,11.125063 8.0236,11.125063 C8.39337778,11.125063 8.76315556,11.1392667 9.24921111,11.2196741 C9.57878519,11.2736 9.65534074,10.9926556 9.36741481,10.9254889 C8.99450741,10.8385815 8.43454444,10.6688593 8.51350741,10.0287296 C8.62111852,9.15917407 9.38595185,7.63672963 9.38595185,7.63672963 C9.51835926,7.32858148 9.82674815,7.22626667 10.0771185,7.22626667 L12.9811741,7.22626667 C13.3504704,7.22626667 13.4234148,7.36974815 13.5555815,7.70774815 L13.9778407,8.91265556 Z" id="Fill-13"></path>
                        <path d="M2.18563704,2.64860556 C2.18563704,1.8192537 2.1163037,1.59440185 2.99356296,1.57610556 C4.67152593,1.54143889 5.85669259,2.47816111 5.82250741,4.02155 C5.80348889,4.86005 5.25002593,5.58877222 3.4151,5.55964259 C2.16156296,5.53917963 2.18563704,5.46503148 2.18563704,5.00714259 L2.18563704,2.64860556 Z M2.18563704,6.24382778 C2.18563704,6.11503148 2.11582222,5.91473519 3.18856296,5.91473519 C6.39306296,5.91473519 6.44867407,7.8098463 6.44867407,8.72466111 C6.44867407,9.58217963 6.17013704,10.9007167 4.03067407,10.925513 C2.05274815,10.9486241 2.18563704,10.540087 2.18563704,9.51067963 L2.18563704,6.24382778 Z M1.18463704,9.56821667 C1.18463704,10.683087 0.707488889,10.8152537 0.553896296,10.8588278 C0.303525926,10.9445315 0.0317296296,10.871587 0.0560444444,11.11955 C0.0692851852,11.2478648 0.404155556,11.2261981 0.473488889,11.2261981 C1.11482222,11.2261981 1.51782222,11.1944204 2.15891481,11.1944204 C2.63245185,11.1944204 3.80943333,11.3191241 4.31065556,11.3191241 C7.02741481,11.3191241 7.60398889,9.26608704 7.60735926,8.1957537 C7.61337778,6.1612537 5.41806296,5.86080926 5.41806296,5.64630926 C5.41806296,5.54640185 6.78643333,5.00280926 6.78643333,3.54440185 C6.78643333,2.48610556 6.11621111,1.10473519 3.66402593,1.10473519 C2.54963704,1.10473519 2.3243037,1.21066111 1.76674815,1.21066111 C1.20967407,1.21066111 0.42847037,1.07367963 0.149933333,1.07367963 C-0.0173814815,1.07367963 -0.0987518519,1.26001296 0.199766667,1.38471667 C0.463618519,1.49473519 1.18463704,1.44755 1.18463704,2.5342537 L1.18463704,9.56821667 Z" id="Fill-15"></path>
                        <path d="M72.7968463,8.27392222 C72.7968463,8.79632963 72.8047907,9.56525556 72.8088833,9.95284815 C72.6589019,9.71523704 72.3957722,9.3067 72.13505,8.93981111 L66.6242537,1.09503333 L66.6021056,1.06301481 L65.926587,1.06301481 L65.926587,11.2593481 L66.6526611,11.2593481 L66.6526611,3.73812593 C66.6526611,3.16732963 66.6461611,2.64275556 66.6418278,2.35121852 C66.7959019,2.58907037 67.0667352,3.00338519 67.3291426,3.38207037 L72.8252537,11.2273296 L72.8476426,11.2593481 L73.5226796,11.2593481 L73.5226796,1.06301481 L72.7968463,1.06301481 L72.7968463,8.27392222 Z" id="Fill-18"></path>
                        <polygon id="Fill-20" points="76.9648389 6.33952222 82.1506352 6.33952222 82.1506352 5.64305926 76.9648389 5.64305926 76.9648389 1.75942963 82.6826722 1.75942963 82.6826722 1.06296667 76.2390056 1.06296667 76.2390056 11.2593 82.992987 11.2593 82.992987 10.5630778 76.9648389 10.5630778"></polygon>
                        <polygon id="Fill-22" points="91.9867722 1.06303889 91.1227537 1.06303889 88.2071426 5.20353889 85.3281241 1.09481667 85.3054944 1.06303889 84.3983833 1.06303889 87.7307167 5.79142778 83.8056796 11.2593722 84.6699389 11.2593722 88.1611611 6.33622407 91.5134759 11.2266315 91.5358648 11.2593722 92.4571796 11.2593722 88.6383093 5.74809444"></polygon>
                        <polygon id="Fill-24" points="92.6822722 1.06303889 92.6822722 1.75950185 96.1689204 1.75950185 96.1689204 11.2593722 96.9096796 11.2593722 96.9096796 1.75950185 100.411013 1.75950185 100.411013 1.06303889"></polygon>
                    </g>
                </g>
            </g>
        </g>
    </g>
</svg>