<?xml version="1.0" encoding="UTF-8"?>
<svg width="18px" height="14px" viewBox="0 0 18 14" version="1.1" xmlns="http://www.w3.org/2000/svg" xmlns:xlink="http://www.w3.org/1999/xlink">
    <!-- Generator: Sketch 44.1 (41455) - http://www.bohemiancoding.com/sketch -->
    <title>Financial News</title>
    <desc>Created with Sketch.</desc>
    <defs></defs>
    <g id="Pattern-Library-16-col" stroke="none" stroke-width="1" fill="none" fill-rule="evenodd">
        <g id="DJ-Pattern-Library---16-column" transform="translate(-761.000000, -578.000000)" fill="#FFFFFF">
            <g id="DJ-Mast-Head-Dropdown" transform="translate(120.000000, 337.000000)">
                <g id="News-and-Information" transform="translate(640.000000, 71.000000)">
                    <g id="Financial-News" transform="translate(1.000000, 170.000000)">
                        <path d="M17.2590303,13.6686242 L17.2590303,13.5337152 C16.5390909,13.3992303 16.2671515,13.1680182 16.2671515,12.0713515 L16.2671515,7.47638182 C16.2671515,5.97541212 15.2527879,4.89783636 13.5409697,4.89783636 C12.3772727,4.89783636 11.2810303,5.59868485 10.6887879,6.38565455 L10.6887879,4.91692727 L10.6501818,4.8592303 L6.7789697,5.99492727 L6.7789697,6.09080606 C6.87612121,6.12941212 7.05133333,6.24480606 7.1289697,6.32201818 C7.45987879,6.55280606 7.65418182,6.80310909 7.65418182,7.47638182 L7.65418182,12.0713515 C7.65418182,13.1680182 7.38181818,13.3992303 6.64278788,13.5337152 L6.64278788,13.6686242 L11.6030303,13.6686242 L11.6030303,13.5337152 C10.9416364,13.4183212 10.6887879,13.1489273 10.6887879,12.2253515 L10.6887879,6.60032121 C10.921697,6.5282 11.2033939,6.47601818 11.4596364,6.47601818 C12.3543636,6.47601818 13.2130303,6.89941212 13.2130303,7.89977576 L13.2130303,12.2253515 C13.2130303,13.1489273 12.9601818,13.4183212 12.3178788,13.5337152 L12.3178788,13.6686242 L17.2590303,13.6686242 Z" id="Fill-1"></path>
                        <path d="M5.48566667,13.5338848 C4.76572727,13.4375818 4.29906061,13.1681879 4.29906061,12.071097 L4.29906061,6.06467273 L5.7079697,6.06467273 L5.7079697,4.95315758 L4.29906061,4.95315758 L4.29906061,2.42467273 C4.29906061,1.1354 4.80475758,0.269521212 5.83566667,0.115521212 L5.83566667,0.000127272727 C3.1319697,0.173218182 1.2839697,1.44085455 1.2839697,3.71182424 L1.2839697,4.83267273 L-0.000212121212,5.91067273 L-0.000212121212,6.06467273 L1.26445455,6.06467273 L1.26445455,12.071097 C1.26445455,13.1681879 0.992090909,13.3989758 0.253060606,13.5338848 L0.253060606,13.6687939 L5.48566667,13.6687939 L5.48566667,13.5338848 Z" id="Fill-3"></path>
                        <path d="M6.69174545,0.327175758 C5.97180606,0.327175758 5.36895758,0.923660606 5.36895758,1.65505455 C5.36895758,2.38644848 5.97180606,2.98293333 6.69174545,2.98293333 C7.43077576,2.98293333 8.03404848,2.38644848 8.03404848,1.65505455 C8.03404848,0.923660606 7.43077576,0.327175758 6.69174545,0.327175758" id="Fill-6"></path>
                    </g>
                </g>
            </g>
        </g>
    </g>
</svg>