<?xml version="1.0" encoding="UTF-8"?>
<svg width="84px" height="12px" viewBox="0 0 84 12" version="1.1" xmlns="http://www.w3.org/2000/svg" xmlns:xlink="http://www.w3.org/1999/xlink">
    <!-- Generator: Sketch 44.1 (41455) - http://www.bohemiancoding.com/sketch -->
    <title>MarketWatch</title>
    <desc>Created with Sketch.</desc>
    <defs></defs>
    <g id="Pattern-Library-16-col" stroke="none" stroke-width="1" fill="none" fill-rule="evenodd">
        <g id="DJ-Pattern-Library---16-column" transform="translate(-761.000000, -551.000000)" fill="#FFFFFF">
            <g id="DJ-Mast-Head-Dropdown" transform="translate(120.000000, 337.000000)">
                <g id="News-and-Information" transform="translate(640.000000, 71.000000)">
                    <g id="MarketWatch" transform="translate(1.000000, 143.000000)">
                        <path d="M19.624812,8.369412 C19.496532,9.026652 18.871212,10.101012 17.620572,10.101012 C16.401972,10.101012 16.145652,9.026652 16.257732,8.401572 C16.401972,7.631892 17.091492,6.669852 18.245892,6.669852 C19.384212,6.669852 19.769052,7.567692 19.624812,8.369412 L19.624812,8.369412 Z M20.266092,5.018412 L20.121852,5.723892 L20.089692,5.723892 C19.913292,5.323092 19.400292,4.777932 18.294012,4.777932 C16.498212,4.777932 14.654412,6.172812 14.253612,8.369412 C13.900932,10.293252 14.830812,11.976852 16.963212,11.976852 C17.748852,11.976852 18.646692,11.672292 19.111692,11.014812 L19.143732,11.014812 L19.015452,11.736372 L21.003612,11.736372 L22.254132,5.018412 L20.266092,5.018412 Z" id="Fill-1"></path>
                        <path d="M23.376564,5.018436 L25.252404,5.018436 L25.124124,5.723916 L25.156284,5.723916 C25.396764,5.403156 25.861764,4.777956 27.016044,4.777956 L26.647404,6.814236 C25.701444,6.830316 25.011924,7.022556 24.835524,8.048796 L24.146124,11.736276 L22.125924,11.736276 L23.376564,5.018436 Z" id="Fill-3"></path>
                        <polygon id="Fill-5" points="28.3629 2.388984 30.3831 2.388984 29.43714 7.455504 29.46918 7.455504 31.79406 5.018424 34.16682 5.018424 31.08858 7.968504 32.85222 11.736264 30.57546 11.736264 29.27682 8.497584 29.24478 8.497584 28.6515 11.736264 26.63118 11.736264"></polygon>
                        <path d="M35.353368,7.631832 C35.513688,7.231032 36.058848,6.477552 37.101048,6.477552 C38.143128,6.477552 38.399808,7.231032 38.399808,7.631832 L35.353368,7.631832 Z M37.389648,4.777992 C35.353368,4.777992 33.541608,6.525552 33.205008,8.401512 C32.836128,10.389552 34.182888,11.960832 36.106968,11.960832 C36.796368,11.960832 37.501848,11.752392 38.127168,11.351592 C38.768448,10.966752 39.345768,10.389552 39.810648,9.635952 L37.758408,9.635952 C37.421688,9.988752 37.036848,10.261272 36.411528,10.261272 C35.626008,10.261272 35.048808,9.796272 35.080848,8.994672 L40.115328,8.994672 C40.179408,8.834352 40.211448,8.722032 40.259688,8.465592 C40.644408,6.413352 39.441768,4.777992 37.389648,4.777992 L37.389648,4.777992 Z" id="Fill-7"></path>
                        <path d="M45.358128,5.018436 L44.091408,5.018436 L44.460288,3.030276 L42.696648,3.030276 L42.552288,3.799956 C42.391968,4.681716 41.846808,4.938276 41.109408,5.018436 L41.093328,5.018436 L40.804728,6.541596 L41.798688,6.541596 L40.836768,11.736276 L42.840888,11.736276 L43.802928,6.541596 L45.085488,6.541596 L45.358128,5.018436 Z" id="Fill-12"></path>
                        <path d="M78.354492,2.388984 L80.358732,2.388984 L79.749492,5.723904 L79.781652,5.723904 C80.214492,5.098584 80.791572,4.777944 81.673452,4.777944 C82.314732,4.777944 83.036292,5.018424 83.373012,5.531424 C83.805852,6.188784 83.757732,6.782064 83.533212,7.984584 L82.843932,11.736264 L80.839812,11.736264 L81.513012,8.080824 C81.577092,7.760064 81.769692,6.669864 80.695452,6.669864 C79.573092,6.669864 79.380732,7.680024 79.316652,8.016624 L78.627252,11.736264 L76.622892,11.736264 L78.354492,2.388984 Z M69.905052,5.018424 L68.638332,5.018424 L69.007092,3.030264 L67.243572,3.030264 L67.099092,3.799944 C66.938892,4.681704 66.393612,4.938264 65.656332,5.018424 L65.640132,5.018424 L65.351772,6.541584 L66.345612,6.541584 L65.383692,11.736264 L67.387812,11.736264 L68.349972,6.541584 L69.632532,6.541584 L69.905052,5.018424 Z M60.237012,10.101024 C61.487532,10.101024 62.112852,9.026664 62.241132,8.369424 C62.385372,7.567704 62.000652,6.669864 60.862332,6.669864 C59.707812,6.669864 59.018412,7.631784 58.874172,8.401464 C58.761972,9.026664 59.018412,10.101024 60.237012,10.101024 L60.237012,10.101024 Z M63.620052,11.736264 L61.631892,11.736264 L61.760052,11.014824 L61.728012,11.014824 C61.263132,11.672304 60.365292,11.976864 59.579652,11.976864 C57.447012,11.976864 56.517252,10.293264 56.870052,8.369424 C57.270852,6.172824 59.114652,4.777944 60.910332,4.777944 C62.016732,4.777944 62.529732,5.323104 62.706132,5.723904 L62.738172,5.723904 L62.882532,5.018424 L64.870692,5.018424 L63.620052,11.736264 Z M59.804172,2.4e-05 L55.891932,2.388984 L56.998212,2.388984 L53.454852,7.711944 L53.422812,7.711944 L53.422812,2.388984 L51.691332,2.388984 L48.147852,7.711944 L48.115812,7.711944 L48.115812,2.388984 L46.095732,2.388984 L46.095732,11.736264 L47.843292,11.736264 L51.386652,6.413304 L51.418692,6.413304 L51.418692,11.736264 L53.150292,11.736264 L59.419332,2.388984 L60.413292,2.388984 L59.804172,2.4e-05 Z M76.462572,9.187104 C75.805332,10.710264 74.233932,11.960904 72.422292,11.960904 C70.386132,11.960904 69.119412,10.357464 69.488052,8.353344 C69.856932,6.381144 71.684772,4.777944 73.704852,4.777944 C75.484692,4.777944 76.703052,5.964384 76.735212,7.615944 L74.699052,7.615944 C74.570772,7.150824 74.266092,6.669864 73.416252,6.669864 C72.470412,6.621744 71.684772,7.407384 71.508372,8.369424 C71.331972,9.347424 71.828892,10.084944 72.791052,10.084944 C73.624692,10.084944 74.121852,9.603984 74.410452,9.187104 L76.462572,9.187104 Z" id="Fill-14"></path>
                        <polygon id="Fill-9" points="11.576016 2.388984 8.032776 7.711944 8.000616 7.711944 8.000616 2.388984 6.285096 2.388984 -2.4e-05 11.736264 2.437056 11.736264 5.964336 6.413304 5.996496 6.413304 5.996496 11.736264 7.728096 11.736264 11.255376 6.413304 11.287536 6.413304 11.287536 11.736264 13.307736 11.736264 13.307736 2.388984"></polygon>
                    </g>
                </g>
            </g>
        </g>
    </g>
</svg>