<?xml version="1.0" encoding="UTF-8"?>
<svg width="47px" height="12px" viewBox="0 0 47 12" version="1.1" xmlns="http://www.w3.org/2000/svg" xmlns:xlink="http://www.w3.org/1999/xlink">
    <!-- Generator: Sketch 44.1 (41455) - http://www.bohemiancoding.com/sketch -->
    <title>WSJ PRO</title>
    <desc>Created with Sketch.</desc>
    <defs></defs>
    <g id="Pattern-Library-16-col" stroke="none" stroke-width="1" fill="none" fill-rule="evenodd">
        <g id="DJ-Pattern-Library---16-column" transform="translate(-761.000000, -470.000000)" fill="#FFFFFF">
            <g id="DJ-Mast-Head-Dropdown" transform="translate(120.000000, 337.000000)">
                <g id="News-and-Information" transform="translate(640.000000, 71.000000)">
                    <g id="WSJ-PRO" transform="translate(1.000000, 62.000000)">
                        <path d="M24.466462,11.8867606 L24.466462,0.234084507 L46.0086592,0.234084507 L46.0086592,11.8867606 L24.466462,11.8867606 Z M40.810462,9.31385915 C42.5888282,9.31385915 43.739138,7.98692958 43.739138,6.05138028 C43.739138,4.11549296 42.5977859,2.80698592 40.8282085,2.80698592 C39.058631,2.80698592 37.9083211,4.12478873 37.9083211,6.06946479 C37.9083211,8.0051831 39.058631,9.31385915 40.810462,9.31385915 Z M40.8193014,4.02466479 C41.7040901,4.02466479 42.2172169,4.81531268 42.2172169,6.06027042 C42.2172169,7.30539718 41.7040901,8.09604507 40.8193014,8.09604507 C39.9433014,8.09604507 39.4213859,7.30539718 39.4213859,6.06027042 C39.4213859,4.81531268 39.9433014,4.02466479 40.8193014,4.02466479 Z M35.5858986,9.19571831 L37.3461803,9.19571831 L35.7214479,6.6875493 C36.4468563,6.36929577 36.8715887,5.77876056 36.8715887,4.90630986 C36.8715887,3.61571831 36.0045465,2.92512676 34.5270254,2.92512676 L32.3945746,2.92512676 L32.3945746,9.19571831 L33.8988,9.19571831 L33.8988,7.04180282 L34.2792507,7.04180282 L35.5858986,9.19571831 Z M34.3765014,4.09749296 C35.031262,4.09749296 35.3851775,4.41557746 35.3851775,4.99715493 C35.3851775,5.59698592 35.0135155,5.92402817 34.3587549,5.92402817 L33.8899099,5.92402817 L33.8899099,4.09749296 L34.3765014,4.09749296 Z M28.6382366,7.11464789 C30.1157577,7.11464789 31.0978986,6.38771831 31.0978986,4.96985915 C31.0978986,3.60676056 30.1865746,2.92512676 28.7000958,2.92512676 L26.7359831,2.92512676 L26.7359831,9.19571831 L28.2488282,9.19571831 L28.2488282,7.11464789 L28.6382366,7.11464789 Z M28.6116845,4.09749296 C29.2840225,4.09749296 29.6291493,4.39732394 29.6291493,4.99715493 C29.6291493,5.6424507 29.2576563,5.94228169 28.5851493,5.94228169 L28.2312338,5.94228169 L28.2312338,4.09749296 L28.6116845,4.09749296 Z" id="Combined-Shape"></path>
                        <path d="M18.8048958,0.236416901 L18.8048958,0.539966197 L19.2260789,0.641205634 C19.563431,0.725543662 19.7491775,0.843515493 19.7491775,1.33230423 L19.7491775,9.44210704 C19.7491775,10.5714592 19.647769,11.481938 18.8048958,11.481938 C18.2652338,11.481938 17.8606141,11.0604169 17.8776845,10.7570366 C17.9278817,10.2342761 18.8048958,10.2680789 18.8721634,9.42503662 C18.9228676,8.81810704 18.5349803,8.56526197 18.1810648,8.51472676 C17.6584732,8.44729014 17.0179099,8.88537465 17.0008394,9.76221972 C16.983769,10.8917408 17.7255718,11.9203606 18.9901352,11.9203606 C20.3897408,11.9203606 21.4688958,10.9762479 21.4688958,9.17202254 L21.4688958,1.34920563 C21.4688958,0.87731831 21.5868676,0.725543662 21.9237127,0.641205634 L22.2946986,0.539966197 L22.2946986,0.236416901 L18.8048958,0.236416901 Z" id="Fill-16"></path>
                        <path d="M13.3377803,0.607352113 C14.5516394,0.607352113 15.0071324,2.17546479 15.2094423,4.08059155 L15.5297239,4.08059155 L15.5297239,0.236366197 L15.3274141,0.236366197 C15.242738,0.607352113 15.0911324,0.775859155 14.8722592,0.775859155 C14.4842028,0.775859155 14.282062,0.168929577 13.3548507,0.168929577 C11.9216113,0.168929577 10.9438648,1.36622535 10.9438648,2.934 C10.9438648,5.78357746 14.7372169,6.9803662 14.7372169,9.61056338 C14.7372169,10.8075211 14.1809915,11.4818873 13.4222873,11.4818873 C12.2925972,11.4818873 11.5507944,10.1500563 11.3484845,8.0088169 L11.0282028,8.0088169 L11.0282028,11.8528732 L11.2305127,11.8528732 C11.3991887,11.2966479 11.618231,11.2459437 11.8034704,11.2459437 C12.1240901,11.2459437 12.4612732,11.9204789 13.4388507,11.9204789 C14.9396958,11.9204789 16.0861183,10.6222817 16.0861183,8.83495775 C16.0861183,5.37861972 12.2925972,4.46830986 12.2925972,1.95608451 C12.2925972,1.41676056 12.494907,0.607352113 13.3377803,0.607352113" id="Fill-10"></path>
                        <path d="M8.22758873,0.539932394 L8.58184225,0.607369014 C9.08736338,0.708608451 9.20533521,1.01198873 8.96939155,2.2596507 L7.74065915,8.30984789 L6.49096901,1.90573521 C6.35592676,1.24793239 6.27175775,0.708608451 6.82832113,0.607369014 L7.19913803,0.539932394 L7.19913803,0.236383099 L3.94510986,0.236383099 L3.94510986,0.539932394 L4.16415211,0.59063662 C4.50167324,0.67463662 4.55220845,0.877284507 4.68708169,1.51784789 L5.00618028,3.05181972 L4.01846197,8.26218592 L2.73108169,1.90573521 C2.57947606,1.21429859 2.52877183,0.691538028 3.06826479,0.59063662 L3.32144789,0.539932394 L3.32144789,0.236383099 L-1.69014085e-05,0.236383099 L-1.69014085e-05,0.539932394 L0.320264789,0.624270423 C0.62364507,0.708608451 0.792490141,0.860383099 0.9948,1.78742535 L3.13587042,11.886693 L3.82713803,11.886693 L5.28251831,4.1867493 L6.87868732,11.886693 L7.48578592,11.886693 L9.54268732,2.10804507 C9.76189859,1.07942535 9.87987042,0.725509859 10.2844901,0.624270423 L10.6049408,0.539932394 L10.6049408,0.236383099 L8.22758873,0.236383099 L8.22758873,0.539932394 Z" id="Fill-13"></path>
                    </g>
                </g>
            </g>
        </g>
    </g>
</svg>