<?xml version="1.0" encoding="UTF-8"?>
<svg width="125px" height="27px" viewBox="0 0 125 27" version="1.1" xmlns="http://www.w3.org/2000/svg" xmlns:xlink="http://www.w3.org/1999/xlink">
    <!-- Generator: Sketch 63 (92445) - https://sketch.com -->
    <title>Group 4</title>
    <desc>Created with Sketch.</desc>
    <g id="Page-1" stroke="none" stroke-width="1" fill="none" fill-rule="evenodd">
        <g id="Letter" transform="translate(-608.000000, -282.000000)">
            <g id="Group-4" transform="translate(608.589878, 282.000000)">
                <path d="M18.1779661,20.5466102 C18.1779661,23.7966102 16.470339,26 12.7245763,26 C11.5677966,26 10.5211864,25.6694915 9.63983051,25.1737288 C9.1440678,24.8983051 9.03389831,24.8983051 8.53813559,25.1737288 C7.65677966,25.6694915 6.61016949,26 5.45338983,26 C1.70762712,26 0,23.7966102 0,20.5466102 L0,1.21186441 C0,0.440677966 0.440677966,0 1.21186441,0 L2.75423729,0 C3.52542373,0 3.96610169,0.440677966 3.96610169,1.21186441 L3.96610169,20.5466102 C3.96610169,21.4830508 4.46186441,22.2542373 5.56355932,22.2542373 C6.66525424,22.2542373 7.16101695,21.4830508 7.16101695,20.5466102 L7.16101695,12.1186441 C7.16101695,11.3474576 7.60169492,10.9067797 8.37288136,10.9067797 L9.80508475,10.9067797 C10.5762712,10.9067797 11.0169492,11.3474576 11.0169492,12.1186441 L11.0169492,20.5466102 C11.0169492,21.4830508 11.5127119,22.2542373 12.6144068,22.2542373 C13.7161017,22.2542373 14.2118644,21.4830508 14.2118644,20.5466102 L14.2118644,1.21186441 C14.2118644,0.440677966 14.6525424,0 15.4237288,0 L16.9661017,0 C17.7372881,0 18.1779661,0.440677966 18.1779661,1.21186441 L18.1779661,20.5466102 Z M34.5176961,23.4803829 C34.8352386,23.945543 34.5882611,24.4494664 34.306001,24.6820465 C33.3180909,25.4573132 32.0126381,26 30.4249253,26 C26.6144146,26 24.0740741,22.9764595 24.0740741,19.5265223 L24.0740741,8.55649718 C24.0740741,8.01381042 24.3563341,7.7037037 24.8502892,7.7037037 L27.0730872,7.7037037 C27.5670422,7.7037037 27.8493023,8.01381042 27.8493023,8.55649718 L27.8493023,19.5265223 C27.8493023,20.8832392 28.7666475,22.3174827 30.4249253,22.3174827 C31.0600104,22.3174827 31.589248,22.0849027 32.2243331,21.658506 C32.6124407,21.3871626 33.0005483,21.3871626 33.3180909,21.8135593 L34.5176961,23.4803829 Z M53.2962963,2.38447972 C53.2962963,3.14317781 52.8527497,3.57671958 52.0765432,3.57671958 L47.4747475,3.57671958 C46.698541,3.57671958 46.2549944,4.01026134 46.2549944,4.76895944 L46.2549944,24.8447972 C46.2549944,25.6034953 45.8114478,26.037037 45.0352413,26.037037 L43.261055,26.037037 C42.4848485,26.037037 42.0413019,25.6034953 42.0413019,24.8447972 L42.0413019,4.76895944 C42.0413019,4.01026134 41.5977553,3.57671958 40.8215488,3.57671958 L36.2197531,3.57671958 C35.4435466,3.57671958 35,3.14317781 35,2.38447972 L35,1.19223986 C35,0.433541767 35.4435466,0 36.2197531,0 L52.0765432,0 C52.8527497,0 53.2962963,0.433541767 53.2962963,1.19223986 L53.2962963,2.38447972 Z" id="WiTNY-Copy-5" fill="#4C3EEA"></path>
                <path d="M76,24.7619048 C76,25.5497835 75.5393939,26 74.7333333,26 L72.5454545,26 C71.7393939,26 71.2787879,25.4372294 70.8757576,24.7619048 L61.9515152,9.22943723 C61.6636364,8.66666667 61.1454545,8.77922078 61.1454545,9.22943723 L61.1454545,24.7619048 C61.1454545,25.5497835 60.6848485,26 59.8787879,26 L58.2666667,26 C57.4606061,26 57,25.5497835 57,24.7619048 L57,1.23809524 C57,0.45021645 57.4606061,0 58.2666667,0 L60.4545455,0 C61.2606061,0 61.7212121,0.562770563 62.1242424,1.23809524 L71.0484848,16.6017316 C71.3939394,17.1645022 71.8545455,17.0519481 71.8545455,16.6017316 L71.8545455,1.23809524 C71.8545455,0.45021645 72.3151515,0 73.1212121,0 L74.7333333,0 C75.5393939,0 76,0.45021645 76,1.23809524 L76,24.7619048 Z" id="Path" fill="#002855"></path>
                <path d="M97.8325606,1.57575758 L91.4558579,12.04329 C90.9920977,12.8311688 90.7022476,13.9004329 90.7022476,14.8571429 L90.7022476,24.7619048 C90.7022476,25.5497835 90.2384874,26 89.426907,26 L87.5718663,26 C86.7602859,26 86.2965257,25.5497835 86.2965257,24.7619048 L86.2965257,14.8571429 C86.2965257,13.9004329 86.0066756,12.8311688 85.5429154,12.04329 L79.1662127,1.57575758 C78.7604226,0.956709957 79.1082427,0 80.0937331,0 L82.064714,0 C82.8762943,0 83.5139646,0.562770563 83.9197547,1.23809524 L87.8037464,7.76623377 C88.0356265,8.16017316 88.2095365,8.38528139 88.4993867,8.38528139 C88.7892368,8.38528139 88.9631468,8.16017316 89.1950269,7.76623377 L93.0790186,1.23809524 C93.4848087,0.562770563 94.122479,0 94.9340593,0 L96.9630102,0 C97.8905306,0 98.2383507,0.956709957 97.8325606,1.57575758 Z" id="Path" fill="#002855"></path>
                <g id="Group-3-Copy-2" transform="translate(98.410122, 0.000000)">
                    <circle id="Oval-Copy-10" fill="#4C3EEA" cx="13" cy="13" r="13"></circle>
                    <path d="M10.3771429,15.405 L10.3771429,14.775 C10.3771429,14.52 10.2421429,14.34 10.0471429,14.265 L7.34714286,13.155 C7.25714286,13.125 7.21214286,13.095 7.21214286,13.035 C7.21214286,12.975 7.25714286,12.945 7.34714286,12.915 L10.0471429,11.79 C10.2421429,11.715 10.3771429,11.535 10.3771429,11.28 L10.3771429,10.65 C10.3771429,10.41 10.1821429,10.26 9.97214286,10.35 L5.83214286,12.105 C5.33714286,12.315 4.97714286,12.57 4.97714286,13.035 C4.97714286,13.5 5.33714286,13.755 5.83214286,13.965 L9.97214286,15.705 C10.1821429,15.795 10.3771429,15.645 10.3771429,15.405 Z M12.0057143,18.48 C12.2007143,18.48 12.3657143,18.33 12.4257143,18.15 L16.2057143,6.99 C16.2807143,6.75 16.1457143,6.6 15.8907143,6.6 L15.0207143,6.6 C14.8257143,6.6 14.6607143,6.735 14.6007143,6.93 L10.8507143,18.09 C10.7757143,18.3 10.9107143,18.48 11.1507143,18.48 L12.0057143,18.48 Z M17.0992857,15.705 L21.2392857,13.965 C21.7342857,13.755 22.0942857,13.5 22.0942857,13.035 C22.0942857,12.57 21.7342857,12.315 21.2392857,12.105 L17.0992857,10.35 C16.8892857,10.26 16.6942857,10.41 16.6942857,10.65 L16.6942857,11.28 C16.6942857,11.535 16.8292857,11.715 17.0242857,11.79 L19.7242857,12.915 C19.8142857,12.945 19.8592857,12.975 19.8592857,13.035 C19.8592857,13.095 19.8142857,13.125 19.7242857,13.155 L17.0242857,14.265 C16.8292857,14.34 16.6942857,14.52 16.6942857,14.775 L16.6942857,15.405 C16.6942857,15.645 16.8892857,15.795 17.0992857,15.705 Z" id="&lt;/&gt;" fill="#FFFFFF" fill-rule="nonzero"></path>
                </g>
                <path d="M27.9259259,3.14567901 C27.9259259,3.59506173 27.637937,3.85185185 27.1339564,3.85185185 L24.8660436,3.85185185 C24.362063,3.85185185 24.0740741,3.59506173 24.0740741,3.14567901 L24.0740741,1.6691358 C24.0740741,1.21975309 24.362063,0.962962963 24.8660436,0.962962963 L27.1339564,0.962962963 C27.637937,0.962962963 27.9259259,1.21975309 27.9259259,1.6691358 L27.9259259,3.14567901 Z" id="Path" fill="#4C3EEA"></path>
            </g>
        </g>
    </g>
</svg>