<?xml version="1.0" encoding="UTF-8"?>
<svg width="249px" height="48px" viewBox="0 0 249 48" version="1.1" xmlns="http://www.w3.org/2000/svg" xmlns:xlink="http://www.w3.org/1999/xlink">
    <!-- Generator: Sketch 63 (92445) - https://sketch.com -->
    <title>Group 2</title>
    <desc>Created with Sketch.</desc>
    <g id="Page-1" stroke="none" stroke-width="1" fill="none" fill-rule="evenodd">
        <g id="Letter" transform="translate(-466.000000, -75.000000)">
            <g id="Group-2" transform="translate(466.000000, 75.000000)">
                <path d="M2.8227,45 L4.2195,40.1597 L5.626,45 L6.5378,45 L8.342,38.0936 L7.2362,38.0936 L6.0334,43.0309 L4.6463,38.0936 L3.8024,38.0936 L2.4153,43.0309 L1.2125,38.0936 L0.1067,38.0936 L1.9109,45 L2.8227,45 Z M11.0483,45.0582 C11.7176,45.0582 12.2026,44.806 12.5227,44.4762 C12.9883,43.9912 13.1047,43.3704 13.1047,42.5362 C13.1047,41.7117 12.9883,41.0909 12.5227,40.6059 C12.2026,40.2761 11.7176,40.0239 11.0483,40.0239 C10.379,40.0239 9.9037,40.2761 9.5836,40.6059 C9.118,41.0909 9.0016,41.7117 9.0016,42.5362 C9.0016,43.3704 9.118,43.9912 9.5836,44.4762 C9.9037,44.806 10.379,45.0582 11.0483,45.0582 Z M11.0483,44.1755 C10.7573,44.1755 10.5148,44.0688 10.3305,43.8845 C10.0298,43.5838 9.991,43.0697 9.991,42.5362 C9.991,42.0027 10.0298,41.4886 10.3305,41.1879 C10.5148,41.0036 10.7573,40.9066 11.0483,40.9066 C11.3393,40.9066 11.5915,41.0036 11.7758,41.1879 C12.0765,41.4886 12.1153,42.0027 12.1153,42.5362 C12.1153,43.0697 12.0765,43.5838 11.7758,43.8845 C11.5915,44.0688 11.3393,44.1755 11.0483,44.1755 Z M15.4327,45 L15.4327,42.0027 C15.4327,41.2461 15.8983,40.9066 16.4512,40.9066 C17.0041,40.9066 17.4406,41.2364 17.4406,42.0027 L17.4406,45 L18.43,45 L18.43,41.9542 C18.43,41.2461 18.915,40.9066 19.4485,40.9066 C20.0014,40.9066 20.4379,41.2364 20.4379,42.0027 L20.4379,45 L21.4273,45 L21.4273,41.8572 C21.4273,41.3043 21.2818,40.8387 20.9035,40.4701 C20.6125,40.1888 20.1663,40.0239 19.6619,40.0239 C19.012,40.0239 18.5173,40.2567 18.1196,40.7417 C17.8092,40.2664 17.3339,40.0239 16.7228,40.0239 C16.2281,40.0239 15.7431,40.2179 15.4133,40.5768 L15.4133,40.0821 L14.4433,40.0821 L14.4433,45 L15.4327,45 Z M24.9096,45.0582 C25.7729,45.0582 26.2482,44.7963 26.7526,44.2919 L26.1221,43.7002 C25.7729,44.0494 25.4819,44.2046 24.929,44.2046 C24.1142,44.2046 23.6777,43.6808 23.6777,42.8272 L26.869,42.8272 L26.869,42.4101 C26.869,40.9745 26.1027,40.0239 24.7835,40.0239 C23.5225,40.0239 22.698,40.9357 22.698,42.5362 C22.698,44.4083 23.6777,45.0582 24.9096,45.0582 Z M25.8893,42.1385 L23.6777,42.1385 C23.6874,41.8378 23.7068,41.6826 23.8038,41.4692 C23.9687,41.1006 24.3082,40.8484 24.7835,40.8484 C25.2491,40.8484 25.5886,41.1006 25.7535,41.4692 C25.8505,41.6826 25.8699,41.8378 25.8893,42.1385 Z M29.1679,45 L29.1679,42.0027 C29.1679,41.2461 29.6335,40.9066 30.1864,40.9066 C30.7393,40.9066 31.1758,41.2364 31.1758,42.0027 L31.1758,45 L32.1652,45 L32.1652,41.8572 C32.1652,41.3043 32.0488,40.8387 31.6705,40.4701 C31.3795,40.1888 30.9624,40.0239 30.458,40.0239 C29.9633,40.0239 29.488,40.2082 29.1485,40.5768 L29.1485,40.0821 L28.1785,40.0821 L28.1785,45 L29.1679,45 Z M37.0346,39.1121 L37.0346,38.0645 L35.987,38.0645 L35.987,39.1121 L37.0346,39.1121 Z M37.0055,45 L37.0055,40.0821 L36.0161,40.0821 L36.0161,45 L37.0055,45 Z M39.5663,45 L39.5663,42.0027 C39.5663,41.2461 40.0319,40.9066 40.5848,40.9066 C41.1377,40.9066 41.5742,41.2364 41.5742,42.0027 L41.5742,45 L42.5636,45 L42.5636,41.8572 C42.5636,41.3043 42.4472,40.8387 42.0689,40.4701 C41.7779,40.1888 41.3608,40.0239 40.8564,40.0239 C40.3617,40.0239 39.8864,40.2082 39.5469,40.5768 L39.5469,40.0821 L38.5769,40.0821 L38.5769,45 L39.5663,45 Z M48.8686,45 L48.8686,39.0345 L50.7698,39.0345 L50.7698,38.0936 L45.9198,38.0936 L45.9198,39.0345 L47.821,39.0345 L47.821,45 L48.8686,45 Z M53.8059,45.0582 C54.6692,45.0582 55.1445,44.7963 55.6489,44.2919 L55.0184,43.7002 C54.6692,44.0494 54.3782,44.2046 53.8253,44.2046 C53.0105,44.2046 52.574,43.6808 52.574,42.8272 L55.7653,42.8272 L55.7653,42.4101 C55.7653,40.9745 54.999,40.0239 53.6798,40.0239 C52.4188,40.0239 51.5943,40.9357 51.5943,42.5362 C51.5943,44.4083 52.574,45.0582 53.8059,45.0582 Z M54.7856,42.1385 L52.574,42.1385 C52.5837,41.8378 52.6031,41.6826 52.7001,41.4692 C52.865,41.1006 53.2045,40.8484 53.6798,40.8484 C54.1454,40.8484 54.4849,41.1006 54.6498,41.4692 C54.7468,41.6826 54.7662,41.8378 54.7856,42.1385 Z M59.0148,45.0582 C59.6938,45.0582 60.1691,44.8545 60.6347,44.3598 L59.9557,43.7099 C59.6453,44.0494 59.4028,44.1755 59.0148,44.1755 C58.6365,44.1755 58.3164,44.0203 58.103,43.739 C57.8896,43.4674 57.812,43.1085 57.812,42.5362 C57.812,41.9639 57.8896,41.6147 58.103,41.3431 C58.3164,41.0618 58.6365,40.9066 59.0148,40.9066 C59.4028,40.9066 59.6453,41.0327 59.9557,41.3722 L60.6347,40.7126 C60.1691,40.2179 59.6938,40.0239 59.0148,40.0239 C57.909,40.0239 56.8226,40.6932 56.8226,42.5362 C56.8226,44.3792 57.909,45.0582 59.0148,45.0582 Z M62.7687,45 L62.7687,42.0027 C62.7687,41.2461 63.2343,40.9066 63.7872,40.9066 C64.3401,40.9066 64.7766,41.2364 64.7766,42.0027 L64.7766,45 L65.766,45 L65.766,41.8572 C65.766,41.3043 65.6496,40.8387 65.2713,40.4701 C64.9803,40.1888 64.5632,40.0239 64.0588,40.0239 C63.5544,40.0239 63.0985,40.2082 62.7687,40.5768 L62.7687,38.0936 L61.7793,38.0936 L61.7793,45 L62.7687,45 Z M68.2783,45 L68.2783,42.0027 C68.2783,41.2461 68.7439,40.9066 69.2968,40.9066 C69.8497,40.9066 70.2862,41.2364 70.2862,42.0027 L70.2862,45 L71.2756,45 L71.2756,41.8572 C71.2756,41.3043 71.1592,40.8387 70.7809,40.4701 C70.4899,40.1888 70.0728,40.0239 69.5684,40.0239 C69.0737,40.0239 68.5984,40.2082 68.2589,40.5768 L68.2589,40.0821 L67.2889,40.0821 L67.2889,45 L68.2783,45 Z M74.6124,45.0582 C75.2817,45.0582 75.7667,44.806 76.0868,44.4762 C76.5524,43.9912 76.6688,43.3704 76.6688,42.5362 C76.6688,41.7117 76.5524,41.0909 76.0868,40.6059 C75.7667,40.2761 75.2817,40.0239 74.6124,40.0239 C73.9431,40.0239 73.4678,40.2761 73.1477,40.6059 C72.6821,41.0909 72.5657,41.7117 72.5657,42.5362 C72.5657,43.3704 72.6821,43.9912 73.1477,44.4762 C73.4678,44.806 73.9431,45.0582 74.6124,45.0582 Z M74.6124,44.1755 C74.3214,44.1755 74.0789,44.0688 73.8946,43.8845 C73.5939,43.5838 73.5551,43.0697 73.5551,42.5362 C73.5551,42.0027 73.5939,41.4886 73.8946,41.1879 C74.0789,41.0036 74.3214,40.9066 74.6124,40.9066 C74.9034,40.9066 75.1556,41.0036 75.3399,41.1879 C75.6406,41.4886 75.6794,42.0027 75.6794,42.5362 C75.6794,43.0697 75.6406,43.5838 75.3399,43.8845 C75.1556,44.0688 74.9034,44.1755 74.6124,44.1755 Z M79.9377,45 L79.9377,44.1561 L79.5012,44.1561 C79.1035,44.1561 78.9677,43.9621 78.9677,43.5838 L78.9677,38.0936 L77.9783,38.0936 L77.9783,43.642 C77.9783,44.3695 78.3857,45 79.3266,45 L79.9377,45 Z M82.838,45.0582 C83.5073,45.0582 83.9923,44.806 84.3124,44.4762 C84.778,43.9912 84.8944,43.3704 84.8944,42.5362 C84.8944,41.7117 84.778,41.0909 84.3124,40.6059 C83.9923,40.2761 83.5073,40.0239 82.838,40.0239 C82.1687,40.0239 81.6934,40.2761 81.3733,40.6059 C80.9077,41.0909 80.7913,41.7117 80.7913,42.5362 C80.7913,43.3704 80.9077,43.9912 81.3733,44.4762 C81.6934,44.806 82.1687,45.0582 82.838,45.0582 Z M82.838,44.1755 C82.547,44.1755 82.3045,44.0688 82.1202,43.8845 C81.8195,43.5838 81.7807,43.0697 81.7807,42.5362 C81.7807,42.0027 81.8195,41.4886 82.1202,41.1879 C82.3045,41.0036 82.547,40.9066 82.838,40.9066 C83.129,40.9066 83.3812,41.0036 83.5655,41.1879 C83.8662,41.4886 83.905,42.0027 83.905,42.5362 C83.905,43.0697 83.8662,43.5838 83.5655,43.8845 C83.3812,44.0688 83.129,44.1755 82.838,44.1755 Z M87.882,47.0467 C89.1915,47.0467 89.9869,46.1737 89.9869,44.9709 L89.9869,40.0821 L89.0266,40.0821 L89.0266,40.6059 C88.658,40.1597 88.2603,40.0239 87.7365,40.0239 C87.2418,40.0239 86.8247,40.1791 86.5531,40.4507 C86.0778,40.926 86.0002,41.6147 86.0002,42.4489 C86.0002,43.2831 86.0778,43.9718 86.5531,44.4471 C86.8247,44.7187 87.2321,44.8836 87.7268,44.8836 C88.2312,44.8836 88.6386,44.7478 88.9975,44.321 L88.9975,44.9515 C88.9975,45.6111 88.6774,46.2028 87.8432,46.2028 C87.3582,46.2028 87.0866,46.0573 86.7762,45.7663 L86.1457,46.3968 C86.6598,46.8721 87.1351,47.0467 87.882,47.0467 Z M87.9984,43.9912 C87.106,43.9912 86.9896,43.2249 86.9896,42.4489 C86.9896,41.6729 87.106,40.9066 87.9984,40.9066 C88.8908,40.9066 88.9975,41.6729 88.9975,42.4489 C88.9975,43.2249 88.8908,43.9912 87.9984,43.9912 Z M91.7329,46.9497 C92.1112,46.9497 92.4701,46.8624 92.7417,46.5908 C92.8872,46.4453 93.0036,46.2513 93.1006,45.9797 L95.2734,40.0821 L94.2161,40.0821 L93.0715,43.545 L91.8978,40.0821 L90.8502,40.0821 L92.5671,44.7672 L92.2955,45.5335 C92.15,45.9312 92.0045,46.0573 91.5874,46.0573 L91.3352,46.0573 L91.3352,46.9497 L91.7329,46.9497 Z M99.7645,45.0582 C100.3756,45.0582 100.7151,44.9127 101.074,44.5538 L101.074,45 L102.044,45 L102.044,41.7117 C102.044,40.6059 101.3747,40.0239 100.0167,40.0239 C99.1922,40.0239 98.7169,40.1985 98.261,40.7417 L98.9012,41.3528 C99.1825,41.0036 99.4541,40.8678 99.9779,40.8678 C100.7539,40.8678 101.0546,41.1588 101.0546,41.7893 L101.0546,42.1385 L99.7645,42.1385 C98.6296,42.1385 98.0573,42.7302 98.0573,43.5547 C98.0573,43.9718 98.1931,44.3501 98.4453,44.612 C98.746,44.9127 99.1534,45.0582 99.7645,45.0582 Z M99.9488,44.2337 C99.2989,44.2337 99.0176,43.9912 99.0176,43.5353 C99.0176,43.0794 99.3183,42.8272 99.9197,42.8272 L101.0546,42.8272 L101.0546,43.2249 C101.0546,43.5741 100.9964,43.8069 100.8412,43.9524 C100.5793,44.1949 100.298,44.2337 99.9488,44.2337 Z M104.5563,45 L104.5563,42.0027 C104.5563,41.2461 105.0219,40.9066 105.5748,40.9066 C106.1277,40.9066 106.5642,41.2364 106.5642,42.0027 L106.5642,45 L107.5536,45 L107.5536,41.8572 C107.5536,41.3043 107.4372,40.8387 107.0589,40.4701 C106.7679,40.1888 106.3508,40.0239 105.8464,40.0239 C105.3517,40.0239 104.8764,40.2082 104.5369,40.5768 L104.5369,40.0821 L103.5669,40.0821 L103.5669,45 L104.5563,45 Z M110.5994,45.0582 C111.1329,45.0582 111.5306,44.9224 111.8992,44.4762 L111.8992,45 L112.8692,45 L112.8692,38.0936 L111.8798,38.0936 L111.8798,40.5768 C111.5209,40.15 111.1135,40.0239 110.5897,40.0239 C110.095,40.0239 109.6682,40.1888 109.3966,40.4604 C108.9213,40.9454 108.8437,41.7311 108.8437,42.5362 C108.8437,43.351 108.9213,44.1367 109.3966,44.6217 C109.6682,44.8933 110.1047,45.0582 110.5994,45.0582 Z M110.8613,44.1755 C109.9592,44.1755 109.8331,43.4092 109.8331,42.5362 C109.8331,41.6632 109.9592,40.9066 110.8613,40.9066 C111.7537,40.9066 111.8798,41.6632 111.8798,42.5362 C111.8798,43.4092 111.7537,44.1755 110.8613,44.1755 Z M121.2985,45 L121.2985,44.0591 L117.9326,44.0591 L117.9326,41.9833 L120.8038,41.9833 L120.8038,41.0521 L117.9326,41.0521 L117.9326,39.0345 L121.2985,39.0345 L121.2985,38.0936 L116.885,38.0936 L116.885,45 L121.2985,45 Z M123.6071,45 L123.6071,42.0027 C123.6071,41.2461 124.0727,40.9066 124.6256,40.9066 C125.1785,40.9066 125.615,41.2364 125.615,42.0027 L125.615,45 L126.6044,45 L126.6044,41.8572 C126.6044,41.3043 126.488,40.8387 126.1097,40.4701 C125.8187,40.1888 125.4016,40.0239 124.8972,40.0239 C124.4025,40.0239 123.9272,40.2082 123.5877,40.5768 L123.5877,40.0821 L122.6177,40.0821 L122.6177,45 L123.6071,45 Z M130.1837,45 L130.1837,44.1561 L129.7763,44.1561 C129.4077,44.1561 129.2331,43.9427 129.2331,43.5838 L129.2331,40.8387 L130.1837,40.8387 L130.1837,40.0821 L129.2331,40.0821 L129.2331,38.6756 L128.2437,38.6756 L128.2437,40.0821 L127.6811,40.0821 L127.6811,40.8387 L128.2437,40.8387 L128.2437,43.6323 C128.2437,44.3404 128.6705,45 129.592,45 L130.1837,45 Z M132.4341,45 L132.4341,42.0124 C132.4341,41.3334 132.8803,40.9066 133.4138,40.9066 C133.7533,40.9066 133.9279,41.0133 134.151,41.2364 L134.8979,40.4895 C134.5584,40.15 134.1995,40.0239 133.7242,40.0239 C133.1713,40.0239 132.6669,40.2664 132.4147,40.6156 L132.4147,40.0821 L131.4447,40.0821 L131.4447,45 L132.4341,45 Z M137.6624,45.0582 C138.5257,45.0582 139.001,44.7963 139.5054,44.2919 L138.8749,43.7002 C138.5257,44.0494 138.2347,44.2046 137.6818,44.2046 C136.867,44.2046 136.4305,43.6808 136.4305,42.8272 L139.6218,42.8272 L139.6218,42.4101 C139.6218,40.9745 138.8555,40.0239 137.5363,40.0239 C136.2753,40.0239 135.4508,40.9357 135.4508,42.5362 C135.4508,44.4083 136.4305,45.0582 137.6624,45.0582 Z M138.6421,42.1385 L136.4305,42.1385 C136.4402,41.8378 136.4596,41.6826 136.5566,41.4692 C136.7215,41.1006 137.061,40.8484 137.5363,40.8484 C138.0019,40.8484 138.3414,41.1006 138.5063,41.4692 C138.6033,41.6826 138.6227,41.8378 138.6421,42.1385 Z M141.9207,46.9885 L141.9207,44.4956 C142.2796,44.9321 142.687,45.0582 143.2108,45.0582 C143.7152,45.0582 144.1323,44.8933 144.4039,44.6217 C144.8792,44.1367 144.9568,43.3413 144.9568,42.5362 C144.9568,41.7311 144.8792,40.9454 144.4039,40.4604 C144.1323,40.1888 143.7055,40.0239 143.2011,40.0239 C142.6773,40.0239 142.2699,40.1597 141.9013,40.6059 L141.9013,40.0821 L140.9313,40.0821 L140.9313,46.9885 L141.9207,46.9885 Z M142.9489,44.1755 C142.0468,44.1755 141.9207,43.4092 141.9207,42.5362 C141.9207,41.6632 142.0468,40.9066 142.9489,40.9066 C143.8413,40.9066 143.9674,41.6632 143.9674,42.5362 C143.9674,43.4092 143.8413,44.1755 142.9489,44.1755 Z M147.2848,45 L147.2848,42.0124 C147.2848,41.3334 147.731,40.9066 148.2645,40.9066 C148.604,40.9066 148.7786,41.0133 149.0017,41.2364 L149.7486,40.4895 C149.4091,40.15 149.0502,40.0239 148.5749,40.0239 C148.022,40.0239 147.5176,40.2664 147.2654,40.6156 L147.2654,40.0821 L146.2954,40.0821 L146.2954,45 L147.2848,45 Z M152.5131,45.0582 C153.3764,45.0582 153.8517,44.7963 154.3561,44.2919 L153.7256,43.7002 C153.3764,44.0494 153.0854,44.2046 152.5325,44.2046 C151.7177,44.2046 151.2812,43.6808 151.2812,42.8272 L154.4725,42.8272 L154.4725,42.4101 C154.4725,40.9745 153.7062,40.0239 152.387,40.0239 C151.126,40.0239 150.3015,40.9357 150.3015,42.5362 C150.3015,44.4083 151.2812,45.0582 152.5131,45.0582 Z M153.4928,42.1385 L151.2812,42.1385 C151.2909,41.8378 151.3103,41.6826 151.4073,41.4692 C151.5722,41.1006 151.9117,40.8484 152.387,40.8484 C152.8526,40.8484 153.1921,41.1006 153.357,41.4692 C153.454,41.6826 153.4734,41.8378 153.4928,42.1385 Z M156.7714,45 L156.7714,42.0027 C156.7714,41.2461 157.237,40.9066 157.7899,40.9066 C158.3428,40.9066 158.7793,41.2364 158.7793,42.0027 L158.7793,45 L159.7687,45 L159.7687,41.8572 C159.7687,41.3043 159.6523,40.8387 159.274,40.4701 C158.983,40.1888 158.5659,40.0239 158.0615,40.0239 C157.5668,40.0239 157.0915,40.2082 156.752,40.5768 L156.752,40.0821 L155.782,40.0821 L155.782,45 L156.7714,45 Z M163.251,45.0582 C164.1143,45.0582 164.5896,44.7963 165.094,44.2919 L164.4635,43.7002 C164.1143,44.0494 163.8233,44.2046 163.2704,44.2046 C162.4556,44.2046 162.0191,43.6808 162.0191,42.8272 L165.2104,42.8272 L165.2104,42.4101 C165.2104,40.9745 164.4441,40.0239 163.1249,40.0239 C161.8639,40.0239 161.0394,40.9357 161.0394,42.5362 C161.0394,44.4083 162.0191,45.0582 163.251,45.0582 Z M164.2307,42.1385 L162.0191,42.1385 C162.0288,41.8378 162.0482,41.6826 162.1452,41.4692 C162.3101,41.1006 162.6496,40.8484 163.1249,40.8484 C163.5905,40.8484 163.93,41.1006 164.0949,41.4692 C164.1919,41.6826 164.2113,41.8378 164.2307,42.1385 Z M168.1786,45.0582 C168.6733,45.0582 169.1486,44.8739 169.4881,44.5053 L169.4881,45 L170.4581,45 L170.4581,40.0821 L169.4687,40.0821 L169.4687,43.0794 C169.4687,43.836 169.0031,44.1755 168.4502,44.1755 C167.8973,44.1755 167.4608,43.8457 167.4608,43.0794 L167.4608,40.0821 L166.4714,40.0821 L166.4714,43.2249 C166.4714,43.7778 166.5878,44.2434 166.9661,44.612 C167.2571,44.8933 167.6742,45.0582 168.1786,45.0582 Z M173.0189,45 L173.0189,42.0124 C173.0189,41.3334 173.4651,40.9066 173.9986,40.9066 C174.3381,40.9066 174.5127,41.0133 174.7358,41.2364 L175.4827,40.4895 C175.1432,40.15 174.7843,40.0239 174.309,40.0239 C173.7561,40.0239 173.2517,40.2664 172.9995,40.6156 L172.9995,40.0821 L172.0295,40.0821 L172.0295,45 L173.0189,45 Z M177.8786,45.0582 C179.0523,45.0582 179.9253,44.5247 179.9253,43.4965 C179.9253,42.6332 179.3918,42.187 178.3733,42.0997 L177.6846,42.0415 C177.1996,41.993 177.0056,41.8184 177.0056,41.4789 C177.0056,41.1006 177.2966,40.8484 177.898,40.8484 C178.3636,40.8484 178.8001,40.9454 179.1105,41.2073 L179.7313,40.5768 C179.2754,40.1791 178.6546,40.0239 177.9077,40.0239 C176.8795,40.0239 176.055,40.5574 176.055,41.5274 C176.055,42.3907 176.5788,42.7981 177.51,42.8854 L178.2957,42.9533 C178.771,43.0018 178.9553,43.1958 178.9553,43.5353 C178.9553,44.0009 178.4897,44.2143 177.8786,44.2143 C177.3936,44.2143 176.8601,44.1076 176.4624,43.7002 L175.8125,44.3501 C176.3945,44.9224 177.0735,45.0582 177.8786,45.0582 Z M182.1175,45 L182.1175,42.0027 C182.1175,41.2461 182.5831,40.9066 183.136,40.9066 C183.6889,40.9066 184.1254,41.2364 184.1254,42.0027 L184.1254,45 L185.1148,45 L185.1148,41.8572 C185.1148,41.3043 184.9984,40.8387 184.6201,40.4701 C184.3291,40.1888 183.912,40.0239 183.4076,40.0239 C182.9032,40.0239 182.4473,40.2082 182.1175,40.5768 L182.1175,38.0936 L181.1281,38.0936 L181.1281,45 L182.1175,45 Z M187.6562,39.1121 L187.6562,38.0645 L186.6086,38.0645 L186.6086,39.1121 L187.6562,39.1121 Z M187.6271,45 L187.6271,40.0821 L186.6377,40.0821 L186.6377,45 L187.6271,45 Z M190.1879,46.9885 L190.1879,44.4956 C190.5468,44.9321 190.9542,45.0582 191.478,45.0582 C191.9824,45.0582 192.3995,44.8933 192.6711,44.6217 C193.1464,44.1367 193.224,43.3413 193.224,42.5362 C193.224,41.7311 193.1464,40.9454 192.6711,40.4604 C192.3995,40.1888 191.9727,40.0239 191.4683,40.0239 C190.9445,40.0239 190.5371,40.1597 190.1685,40.6059 L190.1685,40.0821 L189.1985,40.0821 L189.1985,46.9885 L190.1879,46.9885 Z M191.2161,44.1755 C190.314,44.1755 190.1879,43.4092 190.1879,42.5362 C190.1879,41.6632 190.314,40.9066 191.2161,40.9066 C192.1085,40.9066 192.2346,41.6632 192.2346,42.5362 C192.2346,43.4092 192.1085,44.1755 191.2161,44.1755 Z M197.9091,39.1121 L197.9091,38.0645 L196.8615,38.0645 L196.8615,39.1121 L197.9091,39.1121 Z M197.88,45 L197.88,40.0821 L196.8906,40.0821 L196.8906,45 L197.88,45 Z M200.4408,45 L200.4408,42.0027 C200.4408,41.2461 200.9064,40.9066 201.4593,40.9066 C202.0122,40.9066 202.4487,41.2364 202.4487,42.0027 L202.4487,45 L203.4381,45 L203.4381,41.8572 C203.4381,41.3043 203.3217,40.8387 202.9434,40.4701 C202.6524,40.1888 202.2353,40.0239 201.7309,40.0239 C201.2362,40.0239 200.7609,40.2082 200.4214,40.5768 L200.4214,40.0821 L199.4514,40.0821 L199.4514,45 L200.4408,45 Z M208.453,45 L208.453,40.1403 L211.6443,45 L212.6046,45 L212.6046,38.0936 L211.557,38.0936 L211.557,42.9436 L208.3657,38.0936 L207.4054,38.0936 L207.4054,45 L208.453,45 Z M216.2518,45.0582 C217.1151,45.0582 217.5904,44.7963 218.0948,44.2919 L217.4643,43.7002 C217.1151,44.0494 216.8241,44.2046 216.2712,44.2046 C215.4564,44.2046 215.0199,43.6808 215.0199,42.8272 L218.2112,42.8272 L218.2112,42.4101 C218.2112,40.9745 217.4449,40.0239 216.1257,40.0239 C214.8647,40.0239 214.0402,40.9357 214.0402,42.5362 C214.0402,44.4083 215.0199,45.0582 216.2518,45.0582 Z M217.2315,42.1385 L215.0199,42.1385 C215.0296,41.8378 215.049,41.6826 215.146,41.4692 C215.3109,41.1006 215.6504,40.8484 216.1257,40.8484 C216.5913,40.8484 216.9308,41.1006 217.0957,41.4692 C217.1927,41.6826 217.2121,41.8378 217.2315,42.1385 Z M221.1891,45 L222.3337,41.5662 L223.488,45 L224.3319,45 L225.8645,40.0821 L224.8072,40.0821 L223.8566,43.545 L222.7217,40.0821 L221.9554,40.0821 L220.8108,43.545 L219.8602,40.0821 L218.8126,40.0821 L220.3355,45 L221.1891,45 Z M231.4323,45 L231.4323,42.1579 L233.4984,38.0936 L232.3538,38.0936 L230.9085,41.1297 L229.4632,38.0936 L228.3186,38.0936 L230.3847,42.1579 L230.3847,45 L231.4323,45 Z M236.1465,45.0582 C236.8158,45.0582 237.3008,44.806 237.6209,44.4762 C238.0865,43.9912 238.2029,43.3704 238.2029,42.5362 C238.2029,41.7117 238.0865,41.0909 237.6209,40.6059 C237.3008,40.2761 236.8158,40.0239 236.1465,40.0239 C235.4772,40.0239 235.0019,40.2761 234.6818,40.6059 C234.2162,41.0909 234.0998,41.7117 234.0998,42.5362 C234.0998,43.3704 234.2162,43.9912 234.6818,44.4762 C235.0019,44.806 235.4772,45.0582 236.1465,45.0582 Z M236.1465,44.1755 C235.8555,44.1755 235.613,44.0688 235.4287,43.8845 C235.128,43.5838 235.0892,43.0697 235.0892,42.5362 C235.0892,42.0027 235.128,41.4886 235.4287,41.1879 C235.613,41.0036 235.8555,40.9066 236.1465,40.9066 C236.4375,40.9066 236.6897,41.0036 236.874,41.1879 C237.1747,41.4886 237.2135,42.0027 237.2135,42.5362 C237.2135,43.0697 237.1747,43.5838 236.874,43.8845 C236.6897,44.0688 236.4375,44.1755 236.1465,44.1755 Z M240.5309,45 L240.5309,42.0124 C240.5309,41.3334 240.9771,40.9066 241.5106,40.9066 C241.8501,40.9066 242.0247,41.0133 242.2478,41.2364 L242.9947,40.4895 C242.6552,40.15 242.2963,40.0239 241.821,40.0239 C241.2681,40.0239 240.7637,40.2664 240.5115,40.6156 L240.5115,40.0821 L239.5415,40.0821 L239.5415,45 L240.5309,45 Z M244.7892,45 L244.7892,43.5547 L245.5167,42.7302 L246.8941,45 L248.1163,45 L246.1957,42.0124 L247.9029,40.0821 L246.7001,40.0821 L244.7892,42.3519 L244.7892,38.0936 L243.7998,38.0936 L243.7998,45 L244.7892,45 Z" id="WomeninTechnologyandEntrepreneurshipinNewYork" fill="#4C3EEA" fill-rule="nonzero"></path>
                <g id="Group-3-Copy-22" transform="translate(104.000000, 4.000000)" fill="#002855">
                    <g id="Group-2-Copy" transform="translate(31.000000, 0.000000)">
                        <g id="Group" transform="translate(0.372777, 0.108647)">
                            <path d="M3.97490992,10.8961505 C2.80822503,10.8961505 1.85163502,10.4751142 1.10399495,9.72289349 C0.0277596242,8.64006423 0.0563829041,7.30035101 0.0563829041,5.4503257 C0.0563829041,3.59914845 0.0277596242,2.26058717 1.10399495,1.17775791 C1.85163502,0.42496119 2.80822503,0.00334894696 3.97490992,0.00334894696 C5.96308294,0.00334894696 7.51847197,1.14723134 7.89229201,3.38834233 L5.78390121,3.38834233 C5.5743788,2.53071851 5.0368336,1.87007747 3.98979403,1.87007747 C3.42190815,1.87007747 2.95821102,2.07973165 2.65881151,2.42589143 C2.25522326,2.87745427 2.13615042,3.38834233 2.13615042,5.4503257 C2.13615042,7.51115713 2.25522326,8.02319714 2.65881151,8.47360803 C2.95821102,8.82034378 3.42190815,9.03057393 3.98979403,9.03057393 C5.0368336,9.03057393 5.5743788,8.36878094 5.78390121,7.51115713 L7.89229201,7.51115713 C7.51847197,9.75342006 5.9487713,10.8961505 3.97490992,10.8961505 L3.97490992,10.8961505 Z" id="Fill-1"></path>
                            <path d="M14.2536442,2.44080913 C13.9553896,2.09522532 13.4916925,1.8694439 12.9232342,1.8694439 C12.3547758,1.8694439 11.8767671,2.09522532 11.5773676,2.44080913 C11.1737793,2.89237197 11.0684456,3.3888607 11.0684456,5.44969213 C11.0684456,7.51052356 11.1737793,8.00758827 11.5773676,8.45915111 C11.8767671,8.80473491 12.3547758,9.03051633 12.9232342,9.03051633 C13.4916925,9.03051633 13.9553896,8.80473491 14.2536442,8.45915111 C14.6572325,8.00758827 14.7774502,7.51052356 14.7774502,5.44969213 C14.7774502,3.3888607 14.6572325,2.89237197 14.2536442,2.44080913 M15.7941491,9.72283589 C15.0470815,10.4756326 14.1345714,10.8960929 12.9232342,10.8960929 C11.711897,10.8960929 10.7850752,10.4756326 10.0368626,9.72283589 C8.96005484,8.63943066 8.99039552,7.30029341 8.99039552,5.44969213 C8.99039552,3.59966682 8.96005484,2.26052958 10.0368626,1.17712434 C10.7850752,0.425479566 11.711897,0.00386732267 12.9232342,0.00386732267 C14.1345714,0.00386732267 15.0470815,0.425479566 15.7941491,1.17712434 C16.8709569,2.26052958 16.8560728,3.59966682 16.8560728,5.44969213 C16.8560728,7.30029341 16.8709569,8.63943066 15.7941491,9.72283589" id="Fill-3"></path>
                            <path d="M22.3278708,1.9590653 L20.3694659,1.9590653 L20.3694659,4.78766875 L22.3278708,4.78766875 C23.2403809,4.78766875 23.838035,4.20132823 23.838035,3.37365501 C23.838035,2.54655777 23.2403809,1.9590653 22.3278708,1.9590653 L22.3278708,1.9590653 Z M23.9433687,10.8060107 L21.8653185,6.53344295 L20.3694659,6.53344295 L20.3694659,10.8060107 L18.2914158,10.8060107 L18.2914158,0.093488723 L22.4629726,0.093488723 C24.6314723,0.093488723 25.9166576,1.58295493 25.9166576,3.37365501 C25.9166576,4.87867249 25.0052924,5.81059682 23.9737093,6.18728317 L26.351159,10.8060107 L23.9433687,10.8060107 Z" id="Fill-5"></path>
                            <polygon id="Fill-7" points="35.814416 0.0938919041 33.7357934 0.0938919041 33.7357934 6.65307254 29.5195843 0.0938919041 27.6653682 0.0938919041 27.6653682 10.8058379 29.7434184 10.8058379 29.7434184 4.23053006 33.9596275 10.8058379 35.814416 10.8058379"></polygon>
                            <polygon id="Fill-9" points="44.6984524 8.94014617 39.7637989 8.94014617 39.7637989 6.33732414 43.9662689 6.33732414 43.9662689 4.4728995 39.7637989 4.4728995 39.7637989 1.95935329 44.6984524 1.95935329 44.6984524 0.0943526825 37.6851764 0.0943526825 37.6851764 10.8057227 44.6984524 10.8057227"></polygon>
                            <polygon id="Fill-11" points="53.2584732 8.94014617 48.428581 8.94014617 48.428581 0.0943526825 46.3505309 0.0943526825 46.3505309 10.8057227 53.2584732 10.8057227"></polygon>
                            <polygon id="Fill-13" points="61.3574875 8.94014617 56.5275953 8.94014617 56.5275953 0.0943526825 54.4495452 0.0943526825 54.4495452 10.8057227 61.3574875 10.8057227"></polygon>
                            <polygon id="Fill-15" points="7.8931507 14.8206578 0.250734975 14.8206578 0.250734975 16.6862344 3.03234531 16.6862344 3.03234531 25.5326038 5.11154036 25.5326038 5.11154036 16.6862344 7.8931507 16.6862344"></polygon>
                            <polygon id="Fill-17" points="16.2775963 23.6669121 11.3429429 23.6669121 11.3429429 21.06409 15.5454128 21.06409 15.5454128 19.1985135 11.3429429 19.1985135 11.3429429 16.6855432 16.2775963 16.6855432 16.2775963 14.8211186 9.2643203 14.8211186 9.2643203 25.5324886 16.2775963 25.5324886"></polygon>
                            <path d="M21.3698496,25.622686 C20.2031647,25.622686 19.2465747,25.2016497 18.4995071,24.449429 C17.4226993,23.3665997 17.451895,22.0268865 17.451895,20.1768612 C17.451895,18.325684 17.4226993,16.9871227 18.4995071,15.9042934 C19.2465747,15.1514967 20.2031647,14.7298845 21.3698496,14.7298845 C23.3580226,14.7298845 24.9134116,15.8737669 25.2872317,18.1148778 L23.1788409,18.1148778 C22.9693185,17.257254 22.4317733,16.595461 21.3847337,16.595461 C20.8168478,16.595461 20.3531507,16.8062672 20.0537512,17.1524269 C19.6501629,17.6039898 19.5310901,18.1148778 19.5310901,20.1768612 C19.5310901,22.2376926 19.6501629,22.7497326 20.0537512,23.2001435 C20.3531507,23.5468793 20.8168478,23.7571094 21.3847337,23.7571094 C22.4317733,23.7571094 22.9693185,23.0953165 23.1788409,22.2376926 L25.2872317,22.2376926 C24.9134116,24.4799556 23.3442834,25.622686 21.3698496,25.622686" id="Fill-19"></path>
                            <polygon id="Fill-21" points="34.4832618 14.8206578 32.4046392 14.8206578 32.4046392 19.1980527 28.8009683 19.1980527 28.8009683 14.8206578 26.7229181 14.8206578 26.7229181 25.5326038 28.8009683 25.5326038 28.8009683 21.048654 32.4046392 21.048654 32.4046392 25.5326038 34.4832618 25.5326038"></polygon>
                        </g>
                    </g>
                    <path d="M0,13.4776903 C0,9.51966525 1.25419621,6.28391458 3.76262626,3.77034121 C6.27105631,1.25676783 9.51176465,0 13.4848485,0 C16.8855389,0 19.6548715,0.978117953 21.7929293,2.9343832 C23.9309871,4.89064845 25,7.59184629 25,11.0380577 C25,14.2795438 24.4079745,16.6338509 23.2239057,18.1010499 C22.039837,19.5682488 20.4826135,20.3018373 18.5521886,20.3018373 C17.4074017,20.3018373 16.5600476,20.0345609 16.010101,19.5 C15.4601544,18.9654391 15.173962,18.2545976 15.1515152,17.3674541 L13.4680135,18.8175853 C13.0864178,19.1360471 12.5645375,19.4630342 11.9023569,19.7985564 C11.2401763,20.1340787 10.5948404,20.3018373 9.96632997,20.3018373 C7.68797963,20.3018373 6.55443316,18.7493594 6.56565657,15.644357 C6.56565657,12.9601791 7.23063308,10.6940162 8.56060606,8.84580052 C9.89057904,6.99758481 11.6498207,6.07349081 13.8383838,6.07349081 C15.1964153,6.07349081 16.6105426,6.44881514 18.0808081,7.19947507 L17.037037,13.9383202 C16.7788988,15.56475 16.6554433,16.6224822 16.6666667,17.1115486 C16.6666667,17.8849557 16.8602674,18.399605 17.2474747,18.6555118 C17.6346821,18.9114186 18.2323192,19.0393701 19.040404,19.0393701 C19.4781167,19.0393701 19.9158227,18.945539 20.3535354,18.757874 C20.791248,18.570209 21.2626237,18.2375352 21.7676768,17.7598425 C22.2727298,17.2821498 22.6851836,16.5030675 23.0050505,15.4225722 C23.3249174,14.3420768 23.4848485,13.0341284 23.4848485,11.4986877 C23.4848485,8.25720164 22.6010189,5.7578828 20.8333333,4.00065617 C19.0656477,2.24342953 16.5376146,1.3648294 13.2491582,1.3648294 C9.84846785,1.3648294 7.06791204,2.48795902 4.90740741,4.73425197 C2.74690278,6.98054491 1.66666667,9.87224828 1.66666667,13.4094488 C1.66666667,17.208243 2.65431111,20.0231754 4.62962963,21.8543307 C6.60494815,23.685486 9.29291229,24.6010499 12.6936027,24.6010499 C14.6464744,24.6010499 16.6329865,24.2257255 18.6531987,23.4750656 L19.1077441,24.8057743 C17.1773192,25.6019287 14.9607308,26 12.4579125,26 C8.66440303,26 5.63974192,24.9365811 3.38383838,22.8097113 C1.12793485,20.6828415 0,17.572199 0,13.4776903 L0,13.4776903 Z M8.24915825,15.3713911 C8.24915825,16.4405128 8.38103123,17.2622456 8.64478114,17.8366142 C8.90853106,18.4109827 9.43321717,18.6981627 10.2188552,18.6981627 C10.9595997,18.6981627 11.8097595,18.3598022 12.7693603,17.6830709 C13.728961,17.0063396 14.5454512,16.2699077 15.2188552,15.4737533 L16.2794613,8.27427822 C15.4938232,7.76246463 14.5735182,7.50656168 13.5185185,7.50656168 C12.048253,7.50656168 10.8024742,8.28280064 9.78114478,9.83530184 C8.75981532,11.387803 8.24915825,13.2331477 8.24915825,15.3713911 L8.24915825,15.3713911 Z" id="@"></path>
                </g>
                <g id="Group-11" transform="translate(1.000000, 4.000000)" fill="#4C3EEA">
                    <path d="M18.7678436,20.5466102 C18.7678436,23.7966102 17.0602165,26 13.3144538,26 C12.1576741,26 11.111064,25.6694915 10.229708,25.1737288 C9.73394533,24.8983051 9.62377584,24.8983051 9.12801313,25.1737288 C8.2466572,25.6694915 7.20004703,26 6.04326736,26 C2.29750465,26 0.589877534,23.7966102 0.589877534,20.5466102 L0.589877534,1.21186441 C0.589877534,0.440677966 1.0305555,0 1.80174194,0 L3.34411482,0 C4.11530126,0 4.55597923,0.440677966 4.55597923,1.21186441 L4.55597923,20.5466102 C4.55597923,21.4830508 5.05174194,22.2542373 6.15343686,22.2542373 C7.25513177,22.2542373 7.75089448,21.4830508 7.75089448,20.5466102 L7.75089448,12.1186441 C7.75089448,11.3474576 8.19157245,10.9067797 8.96275889,10.9067797 L10.3949623,10.9067797 C11.1661487,10.9067797 11.6068267,11.3474576 11.6068267,12.1186441 L11.6068267,20.5466102 C11.6068267,21.4830508 12.1025894,22.2542373 13.2042843,22.2542373 C14.3059792,22.2542373 14.8017419,21.4830508 14.8017419,20.5466102 L14.8017419,1.21186441 C14.8017419,0.440677966 15.2424199,0 16.0136063,0 L17.5559792,0 C18.3271657,0 18.7678436,0.440677966 18.7678436,1.21186441 L18.7678436,20.5466102 Z M28.5158035,3.14567901 C28.5158035,3.59506173 28.2278145,3.85185185 27.7238339,3.85185185 L25.4559211,3.85185185 C24.9519405,3.85185185 24.6639516,3.59506173 24.6639516,3.14567901 L24.6639516,1.6691358 C24.6639516,1.21975309 24.9519405,0.962962963 25.4559211,0.962962963 L27.7238339,0.962962963 C28.2278145,0.962962963 28.5158035,1.21975309 28.5158035,1.6691358 L28.5158035,3.14567901 Z M35.1075736,23.4803829 C35.4251162,23.945543 35.1781386,24.4494664 34.8958786,24.6820465 C33.9079684,25.4573132 32.6025156,26 31.0148028,26 C27.2042921,26 24.6639516,22.9764595 24.6639516,19.5265223 L24.6639516,8.55649718 C24.6639516,8.01381042 24.9462117,7.7037037 25.4401668,7.7037037 L27.6629647,7.7037037 C28.1569198,7.7037037 28.4391798,8.01381042 28.4391798,8.55649718 L28.4391798,19.5265223 C28.4391798,20.8832392 29.356525,22.3174827 31.0148028,22.3174827 C31.649888,22.3174827 32.1791256,22.0849027 32.8142107,21.658506 C33.2023183,21.3871626 33.5904258,21.3871626 33.9079684,21.8135593 L35.1075736,23.4803829 Z M53.5528405,3.34744268 C53.5528405,4.10614077 53.1092939,4.53968254 52.3330874,4.53968254 L47.7312917,4.53968254 C46.9550852,4.53968254 46.5115386,4.97322431 46.5115386,5.7319224 L46.5115386,24.8077601 C46.5115386,25.5664582 46.067992,26 45.2917855,26 L43.5175992,26 C42.7413927,26 42.2978461,25.5664582 42.2978461,24.8077601 L42.2978461,5.7319224 C42.2978461,4.97322431 41.8542995,4.53968254 41.078093,4.53968254 L36.4762973,4.53968254 C35.7000908,4.53968254 35.2565442,4.10614077 35.2565442,3.34744268 L35.2565442,2.15520282 C35.2565442,1.39650473 35.7000908,0.962962963 36.4762973,0.962962963 L52.3330874,0.962962963 C53.1092939,0.962962963 53.5528405,1.39650473 53.5528405,2.15520282 L53.5528405,3.34744268 Z M75.7009886,24.8077601 C75.7009886,25.5664582 75.2574421,26 74.4812356,26 L72.3743893,26 C71.5981828,26 71.1546362,25.4580728 70.766533,24.8077601 L62.1728181,9.85056918 C61.8956014,9.30864198 61.3966115,9.41702742 61.3966115,9.85056918 L61.3966115,24.8077601 C61.3966115,25.5664582 60.953065,26 60.1768585,26 L58.6244454,26 C57.8482389,26 57.4046923,25.5664582 57.4046923,24.8077601 L57.4046923,2.15520282 C57.4046923,1.39650473 57.8482389,0.962962963 58.6244454,0.962962963 L60.7312917,0.962962963 C61.5074982,0.962962963 61.9510448,1.50489017 62.339148,2.15520282 L70.9328629,16.9498156 C71.2655229,17.4917428 71.7090695,17.3833574 71.7090695,16.9498156 L71.7090695,2.15520282 C71.7090695,1.39650473 72.152616,0.962962963 72.9288225,0.962962963 L74.4812356,0.962962963 C75.2574421,0.962962963 75.7009886,1.39650473 75.7009886,2.15520282 L75.7009886,24.8077601 Z M97.6878988,2.48035915 L91.5473703,12.5602052 C91.1007864,13.3189033 90.8216715,14.348565 90.8216715,15.2698413 L90.8216715,24.8077601 C90.8216715,25.5664582 90.3750876,26 89.5935658,26 L87.8072302,26 C87.0257084,26 86.5791245,25.5664582 86.5791245,24.8077601 L86.5791245,15.2698413 C86.5791245,14.348565 86.3000096,13.3189033 85.8534257,12.5602052 L79.7128972,2.48035915 C79.3221363,1.88423922 79.6570742,0.962962963 80.606065,0.962962963 L82.5040465,0.962962963 C83.2855683,0.962962963 83.8996212,1.50489017 84.2903821,2.15520282 L88.0305222,8.44155844 C88.2538141,8.82090749 88.4212831,9.03767837 88.700398,9.03767837 C88.9795129,9.03767837 89.1469819,8.82090749 89.3702738,8.44155844 L93.1104139,2.15520282 C93.5011748,1.50489017 94.1152277,0.962962963 94.8967495,0.962962963 L96.850554,0.962962963 C97.7437218,0.962962963 98.0786597,1.88423922 97.6878988,2.48035915 Z" id="WiTNY-Copy-5"></path>
                </g>
                <g id="Group-34-Copy-5" transform="translate(219.000000, 4.000000)" fill="#002855">
                    <g id="Group-33" transform="translate(0.000000, 0.014444)">
                        <polygon id="Fill-29" points="10.1551359 13.132209 10.1551359 19.9781053 4.05004696 13.1322283 0.895072148 13.132209 0.895072148 25.9046994 4.40751807 25.9046994 4.40751807 19.0588224 10.4273847 25.9046994 13.6675625 25.9046994 13.6675625 13.132209"></polygon>
                        <path d="M26.4376185,7.76847837 L26.4376185,6.37526356 L26.4376185,5.11886652 L26.4376185,5.11886652 L26.4376185,5.11857763 L26.4376185,0.648022074 L23.0018052,0.647656148 L22.9251341,0.647656148 L22.9251341,5.11886652 L22.9251341,7.76847837 C22.9251341,8.0813643 22.8764852,8.36505319 22.7781474,8.62237615 C22.6528081,8.95041911 22.4466763,9.23561022 22.1569978,9.48353467 C21.6177193,9.94548726 20.8329237,10.2218576 20.0562941,10.2239954 L20.0559281,10.2229361 L20.0559281,10.2228591 C20.0551193,10.2228591 20.0543296,10.2228784 20.0535207,10.2228976 C20.0527119,10.2228784 20.0519222,10.2228591 20.0511133,10.2228591 L20.0511133,10.2229361 L20.0507474,10.2239954 C19.2741178,10.2218576 18.4893222,9.94548726 17.9500437,9.48353467 C17.6603652,9.23561022 17.4542333,8.95041911 17.3288941,8.62237615 C17.2305563,8.36505319 17.1819074,8.0813643 17.1819074,7.76847837 L17.1819074,5.11886652 L17.1819074,0.647656148 L17.1052363,0.647656148 L13.669423,0.648022074 L13.669423,5.11857763 L13.669423,5.11886652 L13.669423,5.11886652 L13.669423,6.37526356 L13.669423,7.76847837 L13.669423,8.62237615 L13.669423,8.62237615 C13.669423,11.4462458 16.7188185,13.6902769 19.8908378,13.7352473 C19.9237133,13.7357095 19.9565311,13.7364413 19.9895415,13.7364413 C20.002137,13.7364413 20.0146363,13.7361332 20.0271741,13.7359791 C20.0351474,13.7360176 20.0431207,13.736191 20.0511133,13.7363065 L20.0511133,13.7364413 C20.0519222,13.7364413 20.0527119,13.7364413 20.0535207,13.7364413 C20.0543296,13.7364413 20.0551193,13.7364413 20.0559281,13.7364413 C20.0574111,13.7364413 20.0588748,13.7364413 20.0603385,13.7364413 L20.0589133,13.736268 C20.0659044,13.7361524 20.0728763,13.7360176 20.0798674,13.7359791 C20.0924052,13.7361332 20.1049044,13.7364413 20.1175,13.7364413 C20.1505104,13.7364413 20.1833281,13.7357095 20.2162037,13.7352473 C23.3882037,13.6902769 26.4376185,11.5108606 26.4376185,8.62237615 L26.4376185,8.62237615 L26.4376185,7.76847837 Z" id="Fill-30"></path>
                        <path d="M9.842248,8.62239348 C9.275448,9.56804237 8.26372059,10.2022498 7.10645096,10.2183698 C7.09142874,10.2185624 7.07650281,10.2191209 7.06142281,10.2191209 C5.25966133,10.2191209 3.79900059,8.71999941 3.79869244,6.87062904 C3.79900059,5.02125867 5.25966133,3.52213719 7.06142281,3.52213719 C7.07650281,3.52213719 7.09142874,3.5226957 7.10645096,3.52290756 C8.26372059,3.5390083 9.275448,4.1732157 9.842248,5.11886459 L13.6690243,5.11886459 C13.6690243,2.23754459 10.6346895,0.0619801481 7.47116356,0.00659051852 C7.46332504,0.00643644444 7.45550578,0.00610903704 7.44762874,0.00599348148 C7.41475319,0.00553125926 7.38193541,0.00483792593 7.34892504,0.00483792593 C7.33629096,0.00483792593 7.32371467,0.00512681481 7.31113837,0.00528088889 C7.30420504,0.00524237037 7.2972717,0.00510755556 7.29033837,0.004992 L7.29176356,0.00483792593 C7.29029985,0.00483792593 7.28883615,0.00483792593 7.28735319,0.00483792593 C7.28656356,0.00483792593 7.28575467,0.00483792593 7.28494578,0.00483792593 C7.28415615,0.00483792593 7.28334726,0.00483792593 7.28253837,0.00483792593 L7.28253837,0.00483792593 C7.27456504,0.00506903704 7.2665917,0.00524237037 7.25861837,0.00528088889 C7.24606133,0.00512681481 7.23356207,0.00483792593 7.22098578,0.00483792593 C7.18809096,0.00483792593 7.15538874,0.00553125926 7.12262874,0.00599348148 L6.86520948,0.00599348148 C4.35174133,0.00599348148 2.15416356,1.356992 0.957932444,3.37218459 C0.349840593,4.39658459 0.000227259259,5.592392 -3.85185185e-06,6.87005126 L-3.85185185e-06,6.87005126 L-3.85185185e-06,6.87062904 L-3.85185185e-06,6.87120681 L-3.85185185e-06,6.87120681 C0.000227259259,8.14886607 0.349840593,9.34467348 0.957932444,10.3690735 C2.15416356,12.3842661 4.35174133,13.7352646 6.86520948,13.7352646 L7.12262874,13.7352646 C7.15538874,13.7357268 7.18809096,13.7364394 7.22098578,13.7364394 C7.23356207,13.7364394 7.24606133,13.7361313 7.25861837,13.7359772 C7.2665917,13.7360157 7.27456504,13.736189 7.28253837,13.7364394 L7.28253837,13.7364394 C7.28334726,13.7364394 7.28415615,13.7364394 7.28494578,13.7364394 C7.28575467,13.7364394 7.28656356,13.7364394 7.28735319,13.7364394 C7.28883615,13.7364394 7.29029985,13.7364394 7.29176356,13.7364394 L7.29033837,13.7362661 C7.2972717,13.7361505 7.30420504,13.7360157 7.31113837,13.7359772 C7.32371467,13.7361313 7.33629096,13.7364394 7.34892504,13.7364394 C7.38193541,13.7364394 7.41475319,13.7357268 7.44762874,13.7352646 C7.45550578,13.735149 7.46332504,13.7348216 7.47116356,13.7346868 C10.6346895,13.6792779 13.6690243,11.5037327 13.6690243,8.62239348 L9.842248,8.62239348 Z" id="Fill-31"></path>
                        <polygon id="Fill-32" points="22.9271274 13.132209 20.0535111 18.9922239 17.1799141 13.132209 13.6674681 13.132209 18.2972978 22.5735794 18.2972978 25.9046994 21.8097244 25.9046994 21.8097244 22.5735794 26.4395733 13.132209"></polygon>
                    </g>
                </g>
                <rect id="Rectangle-Copy-13" fill="#002855" x="208" y="0" width="1" height="34"></rect>
            </g>
        </g>
    </g>
</svg>